<?xml version="1.0" encoding="utf-8" ?><svg xmlns="http://www.w3.org/2000/svg" xmlns:xlink="http://www.w3.org/1999/xlink" width="1024" height="1024" viewBox="0 0 1024 1024"><path transform="scale(2 2)" d="M255.672 101.88C257.821 102.472 262.64 110.734 264.2 113.131C280.211 137.649 288.54 165.257 292.994 193.979C293.573 197.716 295.732 219.185 296.231 220.051C305.324 235.817 316.286 250.999 325.864 266.543C322.112 284.382 320.588 312.842 320.757 330.849C310.073 322.818 299.614 313.85 288.993 305.78C287.274 311.241 286.851 312.124 282.231 315.518C281.076 321.365 281.107 326.62 279.613 333.134C277.971 333.526 276.372 333.609 274.692 333.751C282.309 349.432 284.549 362.818 277.022 379.351C275.342 383.042 272.898 386.564 271.379 390.216L271.228 390.585C271.078 385.38 270.288 380.126 268.654 375.177C265.7 383.263 262.175 398.923 255.672 403.906C250.091 394.244 246.068 386.391 243.857 375.177C241.587 380.039 240.654 385.22 240.766 390.585C230.453 368.891 225.181 358.373 237.596 333.751C235.733 333.721 234.697 333.487 232.868 333.134C231.747 327.454 230.826 320.885 229.666 315.518C225.682 312.951 224.24 310.205 223.245 305.78C213.606 312.222 201.436 323.28 192.267 330.849C191.753 309.2 189.67 286.998 185.829 265.727C195.322 252.01 204.14 237.453 213.519 223.626C216.35 219.452 216.017 215.049 216.546 210.176C220.138 177.063 228.615 143.447 246.662 115.094C249.025 111.383 252.593 104.829 255.672 101.88ZM238.465 144.964C216.445 194.256 218.175 254.814 229.251 306.388C230.405 311.761 240.385 309.749 244.511 309.997C246.593 291.895 246.699 275.901 250.428 257.311C250.659 256.185 254.975 234.711 258.197 245.338C262.752 260.359 264.805 276.148 266.279 291.724C266.819 297.438 266.805 304.531 267.875 309.997C277.686 310.065 282.007 312.689 284.097 301.439C292.786 254.647 294.559 189.262 273.632 145.219L273.251 144.964C260.426 149.735 251.289 149.372 238.465 144.964ZM290.278 299.547C298.215 306.337 306.85 312.531 314.87 319.144L315.258 319.343C315.746 318.537 316.535 303.125 316.529 301.153C308.423 295.577 300.584 289.187 292.841 283.104C291.897 287.621 290.756 294.979 290.278 299.547ZM219.131 283.104C211.56 287.619 202.536 295.63 195.462 301.153C196.173 303.892 196.732 318.455 197.475 319.251L197.746 319.144C204.706 313.11 214.359 304.904 221.867 299.547C221.457 295.749 220.003 286.837 219.131 283.104ZM274.692 328.224C275.488 325.136 276.392 321.477 276.812 318.308L276.812 315.518C273.761 315.574 270.925 315.587 267.875 315.518C267.904 318.397 267.976 321.56 267.875 324.415L244.511 324.415L244.511 315.518C241.642 315.488 238.57 315.398 235.718 315.518C235.983 319.29 237.15 324.199 237.596 328.224L274.692 328.224ZM243.857 333.751C239.615 344.89 236.493 354.408 241.933 365.746C243.768 360.421 245.016 357.587 247.951 352.777C247.157 363.505 250.319 374.424 255.672 383.606C257.897 380.775 258.628 379.408 260.241 376.266C263.342 368.875 264.426 360.769 264.237 352.777C266.704 357.781 268.384 360.225 269.997 365.746C276.163 353.527 271.842 345.411 268.654 333.751L243.857 333.751Z"/><path transform="scale(2 2)" d="M252.917 162.434C263.468 160.722 273.397 167.923 275.047 178.484C276.697 189.044 269.438 198.931 258.868 200.519C248.385 202.094 238.598 194.908 236.961 184.434C235.325 173.961 242.454 164.132 252.917 162.434ZM257.879 189.769C262.618 188.726 265.61 184.034 264.557 179.297C263.504 174.56 258.805 171.578 254.07 172.641C249.35 173.701 246.379 178.383 247.429 183.106C248.479 187.828 253.154 190.81 257.879 189.769Z"/></svg>