<?xml version="1.0" encoding="utf-8" ?><svg xmlns="http://www.w3.org/2000/svg" xmlns:xlink="http://www.w3.org/1999/xlink" width="1024" height="1024" viewBox="0 0 1024 1024"><path transform="scale(2 2)" d="M253.973 152.387C279.946 150.778 320.041 158.948 342.554 169.745C349.619 173.067 361.467 181.291 363.516 189.262C369.003 210.608 333.462 221.1 318.818 225.75C302.318 247.015 288.523 263.802 258.661 266.741C230.956 267.093 208.052 248.153 194.052 225.75C179.556 219.598 150.023 214.061 148.172 193.858C145.277 162.257 234.293 152.881 253.973 152.387ZM253.973 245.327C238.287 237.381 259.133 236.806 263.849 239.245C265.547 242.5 261.089 244.087 258.661 245.327C258.504 248.23 258.488 256.616 258.661 259.622C289.493 254.778 314.674 230.393 321.408 200.195C315.816 180.469 263.937 176.426 247.944 177.246C230.976 178.942 213.291 181.107 198.71 190.714C189.813 196.576 190.072 198.654 193.553 208.502C202.341 233.357 227.158 256.714 253.973 259.622C253.59 254.791 254.11 250.17 253.973 245.327Z"/><path transform="scale(2 2)" d="M294.173 196.751C320.996 195.796 305.092 230.995 275.554 231.246C272.571 230.982 261.786 230.437 262.285 225.948C263.968 210.816 278.859 196.959 294.173 196.751ZM281.632 215.288C283.187 214.984 284.21 213.489 283.931 211.93C283.653 210.371 282.175 209.323 280.612 209.576C279.577 209.744 278.713 210.456 278.352 211.439C277.99 212.423 278.187 213.525 278.867 214.322C279.547 215.12 280.604 215.489 281.632 215.288Z"/><path transform="scale(2 2)" d="M214.72 196.751C229.243 194.984 244.403 207.224 248.873 220.621C251.993 229.971 248.277 229.728 240.221 231.246C215.17 233.54 189.702 201.985 214.72 196.751ZM231.878 215.15C233.457 214.885 234.533 213.404 234.298 211.821C234.063 210.237 232.604 209.133 231.016 209.337C229.961 209.472 229.061 210.167 228.664 211.154C228.267 212.141 228.433 213.265 229.1 214.094C229.767 214.923 230.829 215.327 231.878 215.15Z"/><path transform="scale(2 2)" d="M236.628 266.741C250.239 272.584 261.698 271.743 275.554 266.741C276.001 270.97 278.802 278.558 280.176 282.883L289.634 312.324C297.178 335.385 304.758 360.038 311.391 383.335C307.664 384.295 303.658 385.027 299.862 385.652C299.442 381.101 296.307 371.238 295.046 366.469L291.075 351.185C290.191 347.855 289.326 343.558 287.692 340.613C286.772 340.15 285.735 339.717 284.786 339.298C282.536 340.116 279.985 341.233 280.583 344.154C283.528 358.541 288.92 372.845 291.916 387.186C288.273 387.947 281.875 388.543 278.088 389.011C277.927 381.904 276.568 378.137 271.948 372.68C259.898 356.946 233.35 367.925 232.447 389.011C229.636 388.314 224.417 387.264 221.506 387.186C221.935 384.117 223.921 377.723 224.816 374.559L230.481 354.502C231.204 351.98 234.32 344.08 232.992 341.94C231.051 338.81 226.517 338.996 225.203 342.786C221.292 354.062 218.498 365.887 215.112 377.34C214.326 380 213.497 382.921 213.089 385.652C208.862 385.188 205.583 383.708 200.553 383.335C201.341 379.07 203.318 373.349 204.65 369.102L223.801 307.457C228.036 293.869 232.077 280.238 236.628 266.741Z"/><path transform="scale(2 2)" d="M175.473 378.301C176.742 378.38 182.954 381.968 184.695 382.806C217.751 398.714 273.342 398.183 307.45 389.591C318.927 386.7 328.214 382.019 338.913 378.392L339.187 378.301C337.267 379.606 335.35 380.831 333.395 382.08C309.412 398.335 285.706 404.41 256.745 404.719C229.471 405.009 195.837 397.847 175.473 378.301Z"/><path transform="scale(2 2)" d="M312.305 102.009L313.226 102.072C313.685 102.381 313.907 102.684 314.14 103.184C321.575 119.179 325.518 137.44 320.6 154.614C318.324 154.09 316.29 153.359 314.174 152.387C317.459 139.977 314.677 124.689 310.099 112.859C307.147 114.869 305.043 116.887 302.494 119.337C293.326 128.404 288.67 136.648 283.417 148.14C281.533 147.736 279.033 147.451 277.085 147.174C281.178 132.323 297.658 108.604 312.305 102.009Z"/><path transform="scale(2 2)" d="M198.561 102.009C199.646 102.034 200.572 102.445 201.459 103.065C215.944 113.197 230.864 129.846 235.22 147.174C233.153 147.314 230.814 147.596 228.818 148.14C225.532 138.539 217.655 127.541 210.659 120.294C208.027 117.607 204.963 114.57 201.632 112.859C196.399 125.667 195.806 139.89 198.561 153.348C196.738 153.605 194.154 154.226 192.297 154.614C188.819 138.802 189.075 116.051 198.561 102.009Z"/></svg>