<?xml version="1.0" encoding="utf-8" ?><svg xmlns="http://www.w3.org/2000/svg" xmlns:xlink="http://www.w3.org/1999/xlink" width="1024" height="1024" viewBox="0 0 1024 1024"><path transform="scale(2 2)" d="M104.784 102.099L105.039 102.097C126.607 101.975 137.213 111.417 151.304 125.47L310.917 284.46C316.182 278.43 322.601 272.834 328.08 266.97C337.63 256.749 349.047 266.733 337.765 277.537C332.167 282.897 322.994 291.343 318.295 297.442L318.074 297.733C317.434 304.687 316.287 308.022 310.917 312.823C306.567 315.901 303.816 316.404 298.572 316.848C296.554 318.449 293.996 321.389 292.083 323.331L280.314 335.095C276.035 339.414 271.248 345.838 264.592 340.417C256.23 333.366 279.701 315.452 284.526 310.528C272.728 299.285 260.796 286.691 249.201 275.084L129.61 154.032C114.185 138.206 103.077 129.872 103.135 104.394C103.139 102.581 103.178 102.32 104.784 102.099ZM280.005 279.805C282.212 277.536 282.076 275.734 279.698 273.4C233.058 227.609 193.945 174.632 146.889 129.237C131.846 114.726 130.903 111.371 108.734 107.501C108.939 127.422 120.497 137.675 133.4 149.785L253.442 259.648C260.36 265.979 266.927 272.517 273.459 279.242C275.628 281.476 277.619 282.151 280.005 279.805ZM286.211 316.848L289.018 319.374L308.403 300.102C311.379 297.165 316.556 292.353 319.113 289.288L316.374 286.702L297.873 305.123C294.005 308.975 289.887 312.842 286.211 316.848Z"/><path transform="scale(2 2)" d="M320.799 303.648C324.873 307.388 329.834 312.728 333.825 316.731L369.553 352.962C376.21 359.667 383.487 367.195 390.508 373.452C395.28 367.8 397.069 366.169 400.273 359.39C418.973 373.31 403.126 394.003 389.235 403.695C379.287 410.352 367.706 408.64 360.251 399.284C365.743 397.377 369.209 394.54 373.175 390.367C367.726 384.494 361.449 378.55 355.726 372.833L316.211 333.039C311.804 328.611 308.114 324.552 303.375 320.396C312.327 317.447 318.717 313.442 320.799 303.648ZM386.144 385.166C384.633 385.894 382.436 387.03 380.925 387.582C382.629 388.19 384.477 388.831 386.144 389.523C386.559 390.585 387.717 393.973 388.295 394.575L388.49 394.565C390.433 390.049 390.339 389.619 394.919 387.814L395.519 387.582C394.16 386.953 391.704 385.896 390.508 385.166C389.828 383.86 388.875 380.797 388.49 380.372C387.71 382.204 386.985 383.438 386.144 385.166Z"/><path transform="scale(2 2)" d="M150.007 270.395C151.402 278.216 152.12 286.136 153.92 293.924C159.878 295.115 171.405 297.428 176.958 297.733C170.603 299.687 161.1 300.453 153.92 302.312C153.321 304.716 152.703 308.972 152.396 311.467C151.356 316.363 150.43 321.663 150.007 326.643C149.378 322.406 148.107 316.644 147.628 312.823C146.985 310.508 146.268 304.775 145.913 302.312C140.599 300.954 127.307 298.234 122.219 297.733C129.024 296.364 139.179 294.672 145.913 293.924C146.169 288.08 148.676 276.225 150.007 270.395Z"/><path transform="scale(2 2)" d="M365.322 222.872L365.712 223.385C366.285 227.96 367.6 233.214 368.389 237.862C370.406 238.42 379.799 240.485 380.876 241.17L380.727 241.475C379.154 242.16 370.389 244.2 368.389 244.708C367.887 247.024 366.271 257.137 365.322 258.364C364.244 254.444 363.128 248.183 361.9 244.708C359.495 243.892 350.32 241.948 349.289 241.19C349.957 240.329 360.141 238.272 361.9 237.862C363.047 232.366 363.616 228.283 365.322 222.872Z"/><path transform="scale(2 2)" d="M221.103 353.588L221.387 353.946C221.515 357.778 222.859 362.714 223.454 366.699C227.326 367.1 231.127 368.101 234.943 368.939C231.416 369.815 226.929 371.093 223.454 371.659C222.647 375.526 221.725 379.616 221.103 383.495C220.346 382.653 218.636 373.493 218.214 371.659C214.813 371.297 210.199 369.68 206.498 368.939C209.901 368.14 214.873 366.754 218.214 366.699C219.396 361.638 218.977 358.881 221.103 353.588Z"/><path transform="scale(2 2)" d="M282.831 131.425C283.489 132.172 284.843 141.409 285.603 143.839C288.631 144.764 293.239 145.589 296.484 146.38C292.978 147.416 289.204 148.35 285.603 148.98C284.907 150.751 283.11 159.535 282.831 159.876C281.75 156.271 281.233 152.49 280.005 148.98C278.019 148.467 271.531 146.998 270.133 146.357L270.105 146.043C271.715 145.317 277.966 144.211 280.005 143.839C281.085 139.801 281.548 135.796 282.831 131.425Z"/></svg>