<?xml version="1.0" encoding="utf-8" ?><svg xmlns="http://www.w3.org/2000/svg" xmlns:xlink="http://www.w3.org/1999/xlink" width="585" height="585" viewBox="0 0 585 585"><path transform="scale(0.571289 0.571289)" d="M625.87 231.578C633.219 230.925 638.144 232.733 641.068 240.447C645.059 249.542 629.506 254.907 629.405 255.114C626.207 261.706 612.327 290.075 609.457 295.692C633.016 308.513 658.191 325.317 667.845 352.021C670.381 359.036 670.152 365.4 669.417 372.715C716.496 400.866 767.622 435.814 801.967 479.099C807.815 486.648 814.027 494.973 817.974 503.65C832.82 536.372 780.806 539.153 760.997 538.533C682.82 536.084 604.984 507.813 534.123 476.794C456.719 443.888 357.485 383.259 308.702 314.127C301.944 304.55 292.991 290.585 295.439 278.17C296.382 273.387 299.404 269.451 303.538 266.938C330.062 250.818 423.925 269.839 452.711 277.258C469.195 281.506 485.07 287.71 501.483 291.995C522.316 274.144 550.482 276.809 575.573 282.928C583.514 284.864 592.42 288.663 600.04 291.665C606.807 280.437 614.343 263.515 621.117 251.246C619.507 248.046 618.938 246.648 617.81 243.245C619.187 237.036 620.389 234.94 625.87 231.578Z"/><path fill="#FEFEFE" transform="scale(0.571289 0.571289)" d="M332.959 273.721C353.847 271.856 398.837 279.267 419.208 283.601C442.799 288.621 477.973 297.872 500.744 306.571C526.947 316.581 558.395 330.789 583.695 343.168C650.802 376.001 718.509 413.952 772.568 466.203C780.515 473.885 792.693 486.508 798.691 495.589C797.04 495.057 789.054 490.36 787.117 489.291L751.017 469.086C713.092 447.967 674.674 427.747 635.795 408.442C574.238 377.353 511.769 348.103 448.472 320.73C424.747 310.562 400.905 300.538 377.063 290.644C362.831 284.737 346.979 279.667 332.959 273.721Z"/><path fill="#FEFEFE" transform="scale(0.571289 0.571289)" d="M530.934 398.145C548.835 397.372 578.852 409.36 586.352 427.385C589.261 434.375 581.515 437.847 575.823 439.087C557.416 439.781 524.732 427.829 518.792 408.76C520.412 400.718 522.991 399.336 530.934 398.145Z"/><path fill="#FEFEFE" transform="scale(0.571289 0.571289)" d="M404.919 336.59C417.508 336.028 423.126 338.264 434.723 342.948C445.124 347.149 478.246 371.549 452.174 378.393C432.392 379.225 403.329 367.358 395.446 347.088C393.174 341.247 400.142 337.755 404.919 336.59Z"/><path fill="#FEFEFE" transform="scale(0.571289 0.571289)" d="M653.597 457.139C671.486 455.695 701.849 468.493 709.657 486.174C712.364 492.303 704.81 495.767 700.038 496.982C681.635 498.235 659.291 488.194 646.973 474.64C638.502 465.318 641.63 459.043 653.597 457.139Z"/><path transform="scale(0.571289 0.571289)" d="M486.656 504.922C494.446 507.682 505.66 513.935 513.856 517.56C498.214 557.808 482.107 597.078 465.006 636.754C457.15 654.981 450.08 674.491 441.927 692.481C453.904 709.902 473.189 728.437 486.87 745.027C481.619 744.937 471.124 742.882 465.431 741.962C450.159 739.366 434.865 736.895 419.552 734.548C417.789 734.233 416.406 733.988 414.681 733.524C406.508 738.753 394.564 745.53 387.23 750.986L385.686 754.749C384.908 753.49 385.455 753.912 384.22 753.249C379.772 754.186 370.254 761.025 366.426 763.919C366.374 760.003 367.077 752.352 366.024 749.242C363.378 747.111 359.798 751.049 358.135 753.106C355.888 756.09 349.686 768.311 346.773 772.96C338.912 768.471 331.096 763.904 323.328 759.258C318.586 756.472 311.493 752.561 307.274 749.427C314.559 740.894 330.535 728.322 338.777 720.147C342.91 716.047 353.799 705.073 358.105 702.465C351.994 694.889 341.99 685.719 334.817 678.764C327.891 671.939 321.071 665.008 314.358 657.973C334.232 660.868 361.987 663.059 382.279 664.648C396.004 642.044 411.848 620.235 425.967 597.773C445.567 566.591 467.596 536.459 486.656 504.922Z"/><path fill="#FEFEFE" transform="scale(0.571289 0.571289)" d="M358.105 702.465C360.316 704.952 363.195 707.345 364.916 709.333C365.268 719.139 365.682 728.943 366.159 738.743C363.118 743.317 360.435 748.119 358.135 753.106C355.888 756.09 349.686 768.311 346.773 772.96C338.912 768.471 331.096 763.904 323.328 759.258C318.586 756.472 311.493 752.561 307.274 749.427C314.559 740.894 330.535 728.322 338.777 720.147C342.91 716.047 353.799 705.073 358.105 702.465Z"/><path fill="#FEFEFE" transform="scale(0.571289 0.571289)" d="M419.22 662.888C420.326 666 418.241 688.735 417.875 693.708C422.624 701.37 429.623 709.791 435.043 717.538C425.667 715.802 416.176 714.762 406.647 714.425C400.983 718.468 391.786 726.32 385.803 730.989L385.207 731.256C384.14 729.309 384.464 707.135 384.462 703.354C378.638 696.588 372.674 689.944 366.574 683.426C375.471 683.175 387.622 683.984 396.175 683.012C404.247 676.085 410.618 669.857 419.22 662.888Z"/><path transform="scale(0.571289 0.571289)" d="M430.181 427.232C440.559 433.67 451.73 440.828 462.289 446.828C498.108 466.747 535.324 484.043 573.645 498.58C586.659 503.513 598.702 508.27 612.045 512.268C608.344 514.834 604.164 516.996 600.199 519.166C591.251 523.576 585.904 526.235 575.627 524.033C563.784 521.496 553.061 516.525 541.9 512.051C516.818 501.995 491.846 491.849 468.95 477.309C456.385 469.381 431.14 454.039 426.414 438.589C425.243 434.76 428.168 430.326 430.181 427.232Z"/><path fill="#FEFEFE" transform="scale(0.571289 0.571289)" d="M414.681 733.524C416.406 733.988 417.789 734.233 419.552 734.548C419.382 742.99 418.36 750.433 417.63 758.818L413.875 803.868C399.826 799.202 386.451 791.49 372.873 786.571C376.003 776.95 382.01 765.278 385.686 754.749L387.23 750.986C394.564 745.53 406.508 738.753 414.681 733.524Z"/></svg>