<?xml version="1.0" encoding="utf-8" ?><svg xmlns="http://www.w3.org/2000/svg" xmlns:xlink="http://www.w3.org/1999/xlink" width="1024" height="1024" viewBox="0 0 1024 1024"><path transform="scale(2 2)" d="M176.872 219.25L316.761 219.254C327.925 219.251 338.026 215.474 341.44 226.623L371.191 326.14C372.8 331.342 376.375 336.692 372.475 340.698C359.072 345.025 335.605 349.378 321.447 352.186C300.775 356.78 276.608 359.77 256.795 365.401C253.723 364.608 249.626 364.149 246.35 363.502L215.767 357.624C205.385 355.647 194.267 353.103 183.93 350.833L158.753 345.416C153.275 344.196 147.75 343.134 142.303 341.775C137.019 340.458 135.784 338.808 137.181 333.668L168.066 235.496C169.919 229.665 170.746 220.746 176.872 219.25ZM237.283 243.757L210.514 243.757C211.221 239.99 213.917 229.403 213.319 226.35C208.268 219.023 205.33 241.632 205.101 243.757C194.997 244.06 183.264 243.752 173.007 243.757C172.477 245.605 171.926 247.715 171.335 249.524C181.206 249.953 193.695 249.435 203.863 249.524C200.878 257.697 200.142 267.087 197.775 275.35C186.463 275.353 174.576 275.157 163.326 275.35C162.77 277.348 162.222 279.443 161.622 281.419L196.131 281.419C194.746 292.213 190.965 304.068 189.861 314.053L151.429 314.053C150.7 315.905 150.214 317.979 149.532 319.618C161.759 319.989 176.184 319.633 188.574 319.618C187.483 326.872 184.841 337.119 184.495 343.914L189.861 344.86C191.533 336.825 192.978 327.444 194.837 319.618L231.625 319.618C231.294 329.856 229.799 343.371 230.054 353.169C231.653 353.399 233.749 353.76 235.316 353.861C235.987 343.859 237.414 329.25 237.283 319.618L261.916 319.606C265.861 319.604 270.662 319.47 274.554 319.618C274.618 325.367 275.22 331.742 275.555 337.551C275.85 342.4 276.063 349.214 276.769 353.861C278.581 353.258 279.843 353.275 281.745 353.169C282.031 341.9 280.176 330.561 280.292 319.618L305.156 319.606C308.804 319.604 313.886 319.429 317.411 319.618C318.075 325.68 320.782 338.76 322.572 344.86L328.338 343.914C327.625 337.505 325.116 326.178 323.681 319.618L362.012 319.618C361.555 317.693 361.169 315.922 360.491 314.053C348.178 314.059 334.793 314.328 322.572 314.053L318.758 295.339C317.849 290.961 316.487 285.784 316.399 281.419L351.245 281.419L349.604 275.35C338.346 275.57 325.885 275.423 314.549 275.35C313.19 269.501 309.598 254.713 309.865 249.524L341.875 249.524C341.615 247.64 340.936 245.6 340.385 243.757L308.091 243.757C307.484 241.099 304.837 226.513 303.293 225.47C295.781 220.391 301.948 242.289 302.344 243.757L274.554 243.757C274.272 240.661 273.379 226.951 272.265 225.06C265.496 220.886 269.022 240.624 269.078 243.757L243.456 243.757C243.029 239.293 245.511 224.485 240.982 224.425C237.426 227.174 237.933 238.836 237.283 243.757Z"/><path transform="scale(2 2)" d="M277.775 281.419L309.865 281.419C312.231 292.254 314.101 303.196 316.399 314.053L279.444 314.053C279.601 303.298 277.588 291.727 277.775 281.419Z"/><path transform="scale(2 2)" d="M202.127 281.419L234.315 281.419C234.107 291.748 233.2 303.831 232.202 314.053C230.882 314.098 229.31 314.055 227.968 314.053L207.299 314.059C203.701 314.066 199.659 314.231 196.131 314.053C196.434 309.303 197.579 304.982 198.509 300.316L202.127 281.419Z"/><path transform="scale(2 2)" d="M239.989 281.419L272.088 281.419C271.884 291.894 274.068 303.977 273.491 314.053L272.088 314.053L238.285 314.053C238.126 303.475 240.2 292.009 239.989 281.419Z"/><path transform="scale(2 2)" d="M275.555 249.524L303.217 249.524C303.88 253.104 308.472 274.502 308.091 275.35L276.769 275.35C276.914 266.847 275.179 257.923 275.555 249.524Z"/><path transform="scale(2 2)" d="M209.569 249.524L236.417 249.524C236.911 256.583 235.218 267.353 235.316 275.35L231.625 275.35L203.863 275.35C205.184 267.881 207.156 256.518 209.569 249.524Z"/><path transform="scale(2 2)" d="M242.077 249.524C250.957 249.666 260.172 249.532 269.078 249.524C269.613 251.992 271.872 274.025 271.107 275.31L270.094 275.35L240.982 275.35C240.834 266.968 242.514 257.555 242.077 249.524Z"/><path transform="scale(2 2)" d="M213.671 360.726C224.834 361.581 249.629 369.354 256.438 368.367C270.167 366.376 284.166 363.113 297.831 360.726C298.606 363.49 299.249 368.621 299.687 371.563L302.344 389.808C302.387 390.633 302.346 391.792 302.344 392.645L220.375 392.652C216.807 392.663 213.103 392.847 209.569 392.645C210.482 382.816 212.362 370.631 213.671 360.726Z"/><path transform="scale(2 2)" d="M185.137 394.997L309.472 394.996C311.89 394.996 325.352 394.704 326.91 395.407C327.583 396.931 328.059 406.179 326.458 406.964C323.067 407.214 316.517 406.98 312.888 406.975L218.234 406.965C207.099 406.965 195.588 406.79 184.495 406.964C184.353 405.067 184.123 396.139 185.137 394.997Z"/><path transform="scale(2 2)" d="M254.399 142.157C262.033 141.363 268.87 146.895 269.686 154.526C270.503 162.158 264.99 169.011 257.361 169.849C249.701 170.69 242.814 165.151 241.995 157.488C241.175 149.826 246.735 142.955 254.399 142.157Z"/><path transform="scale(2 2)" d="M238.285 160.529C238.953 160.995 239.559 162.483 239.989 163.318C228.898 166.563 217.425 171.866 206.312 175.728C197.656 172.391 235.853 161.345 238.285 160.529Z"/><path transform="scale(2 2)" d="M272.771 160.529C279.495 161.372 297.882 168.763 305.062 171.318C307.184 172.073 307.904 172.795 306.335 174.625C304.244 175.092 276.691 165.042 272.771 163.318C272.654 162.151 272.528 161.651 272.771 160.529Z"/><path transform="scale(2 2)" d="M287.112 114.143C288.208 114.286 288.571 114.523 289.113 115.453C289.152 117.242 271.832 137.461 267.682 142.076C266.841 141.504 265.927 140.476 265.197 139.723C268.03 136.07 284.514 115.647 287.112 114.143Z"/><path transform="scale(2 2)" d="M224.188 114.143C226.359 114.344 245.223 137.12 246.421 140.404C246.293 141.186 245.858 141.493 245.297 142.076C242.651 142.819 225.989 119.941 223.46 116.42C223.042 115.839 223.775 114.755 224.188 114.143Z"/><path transform="scale(2 2)" d="M205.101 139.723C207.931 139.372 235.697 148.094 239.225 149.94L238.285 152.678C233.542 151.203 206.802 143.591 204.693 141.864C204.448 141.041 204.775 140.546 205.101 139.723Z"/><path transform="scale(2 2)" d="M266.374 170.646C268.756 170.649 288.6 197.19 288.59 198.352C288.271 199.202 287.886 199.327 287.112 199.819C285.366 198.684 264.779 173.211 264.537 172.157C264.871 171.327 265.555 171.105 266.374 170.646Z"/><path transform="scale(2 2)" d="M255.941 101.977C256.65 102.111 256.972 102.073 257.456 102.579C257.766 104.071 257.879 137.16 257.792 137.363L256.795 137.605C256.003 137.574 255.463 137.639 254.788 137.24C254.154 135.636 252.85 103.121 255.941 101.977Z"/><path transform="scale(2 2)" d="M304.661 139.723C306.118 139.505 306.665 139.852 306.658 141.35C305.629 143.17 298.761 144.915 296.544 145.609L284.853 149.355C281.461 150.43 278.255 151.294 274.968 152.678C272.92 153.072 273.035 151.622 272.771 149.94C279.143 147.122 298.597 140.852 304.661 139.723Z"/><path transform="scale(2 2)" d="M245.297 170.646C249.674 171.496 243.539 176.73 241.939 178.928C236.942 185.792 230.735 192.788 226.137 199.819C224.893 200.029 223.738 198.956 223.753 197.668C223.776 195.692 240.886 174.404 245.297 170.646Z"/><path transform="scale(2 2)" d="M254.484 174.625L257.749 174.625L257.761 198.059C257.766 199.993 258.001 206.086 257.749 207.496C256.443 207.907 255.993 208.301 254.902 207.411C254.04 204.909 254.484 178.671 254.484 174.625Z"/></svg>