<?xml version="1.0" encoding="utf-8" ?><svg xmlns="http://www.w3.org/2000/svg" xmlns:xlink="http://www.w3.org/1999/xlink" width="1024" height="1024" viewBox="0 0 1024 1024"><path transform="scale(2 2)" d="M359.565 102.261C369.061 101.856 371.816 109.411 371.015 117.545C370.067 127.164 373.845 133.112 364.995 139.803C364.996 155.776 364.622 173.302 364.995 189.126C366.559 189.977 372.467 196.341 374.695 198.182L370.999 202.894C374.987 207.795 377.436 216.759 373.041 222.264C368.891 227.461 353.184 248.958 348.973 252.073C345.747 250.122 337.953 246.011 335.648 243.758C337.569 233.107 339.955 222.886 342.015 212.29C343.428 205.019 344.911 203.178 351.013 199.163C343.472 185.726 328.624 171.398 316.945 161.5C313.672 164.763 307.922 165.352 307.825 165.448C307.617 165.652 307.479 174.41 302.277 179.549C296.774 184.985 290.185 184.546 282.999 184.501C283.004 200.608 286.786 217.748 270.25 226.266L270.25 270.623L282.999 270.623L282.999 278.504L229.254 278.504C229.23 275.873 229.191 273.253 229.254 270.623C232.894 270.8 238 270.636 241.754 270.623C241.753 266.714 242.108 227.197 241.495 226.797C239.936 225.779 236.526 224.225 235.262 222.937C225.981 213.482 228.299 197.299 228.456 184.501C214.407 184.655 205.356 180.825 204.452 165.35C200.452 165.62 197.541 164.461 194.821 161.5C185.595 168.459 168.133 187.231 161.801 195.86L159.787 198.182C170.096 203.328 169.707 210.84 171.892 221.251L176.584 244.751C171.145 248.11 167.576 249.515 161.801 252.073L147.342 233.484C140.661 224.875 129.97 212.888 142.007 202.894C141.185 201.118 140.401 199.762 139.266 198.182L147.678 189.126C147.381 172.921 147.772 156.078 147.678 139.803C139.44 134.176 142.527 127.814 141.992 119.098C140.492 94.6203 165.189 97.9799 161.766 121.027C160.934 128.957 164.463 135.751 155.397 139.803C155.526 153.136 155.635 168.076 155.397 181.382C169.433 169.956 176.678 161.25 193.627 151.277C193.486 143.053 194.053 134.902 204.452 136.134C204.586 124.418 212.28 118.164 223.759 119.118C227.178 114.274 231.936 107.139 235.687 102.762C242.109 102.529 271.658 102.192 275.94 103.514C277.126 103.881 286.265 117.199 287.736 118.879L287.949 119.118C300.04 118.981 306.714 123.526 307.808 136.134C317.897 136.727 318.831 142.925 318.75 151.277C330.404 156.222 349.141 171.743 357.145 181.382L357.145 139.803C348.911 134.574 351.185 127.703 350.988 119.313C350.787 110.76 350.221 105.043 359.565 102.261ZM296.114 173.525C301.043 168.245 299.247 149.011 299.283 141.435C299.341 129.519 297.432 127.74 285.696 127.741L257.27 127.753C254.839 127.752 251.473 127.61 249.158 127.735L248.75 127.759L248.75 176.195L274.569 176.202C280.489 176.204 291.801 177.597 296.114 173.525ZM152.795 132.863C153.68 131.984 157.174 110.496 150.804 110.438C149.887 111.854 147.251 134.559 152.795 132.863ZM360.557 110.438C357.018 111.783 358.605 130.29 359.167 131.6C359.946 132.379 360.541 132.655 361.661 132.863C364.685 131.053 363.542 113.081 362.815 111.097C362.161 110.444 361.489 110.482 360.557 110.438ZM348.973 248.733C353.114 237.958 363.212 227.244 367.02 217.276C369.295 211.322 363.353 205.577 357.145 206.041C348.367 207.827 341.762 235.137 338.549 243.758C340.342 244.913 346.639 248.791 348.511 249.025L348.973 248.733ZM242.524 176.195L242.524 127.759L219.097 127.759C216.611 128.31 212.978 131.06 212.95 133.689C212.821 145.606 212.298 157.891 213.304 169.746C214.032 178.099 231.8 176.17 236.807 176.195C238.702 176.197 240.633 176.22 242.524 176.195ZM152.795 206.041C148.126 206.78 143.626 210.654 144.465 215.81C144.946 218.764 159.849 243.529 162.531 248.733C162.994 248.726 164.296 248.679 164.684 248.733C167.735 246.865 171.018 245.454 173.736 243.758L164.921 219.592C162.81 213.791 161.167 203.794 152.795 206.041Z"/><path transform="scale(2 2)" d="M227.681 138.509C239.654 138.083 240.058 158.849 229.254 162.164C219.353 163.166 216.786 141.227 227.681 138.509Z"/><path transform="scale(2 2)" d="M213.535 286.209C216.115 286.018 221.285 286.193 224.034 286.196L297.192 286.222C308.264 286.282 310.682 298.106 301.82 306.34C302.153 312.586 301.828 322.555 301.826 329.01L301.82 377.133C329.814 391.341 294.716 424.512 281.526 400.58C276.403 391.284 280.017 382.067 288.994 377.133C289.175 373.682 288.986 368.858 288.92 365.35L288.433 344.67C288.143 332.559 288.386 319.434 288.393 307.25C285.159 307.06 280.134 307.223 276.769 307.25C265.107 318.816 244.465 322.693 235.687 307.25C231.381 307.196 227.702 307.122 223.376 307.25L222.858 366.425C222.819 370.116 223.46 373.027 223.376 377.133C233.748 384.803 237.568 398.684 225.16 406.215C206.934 417.275 188.052 389.92 209.996 377.133C210.219 374.697 210.027 372.324 210.039 369.877L209.996 307.25C201.761 300.099 202.475 289.55 213.535 286.209ZM275.848 300.354C278.605 292.542 277.688 292.972 270.25 293.012C265.982 311.71 245.351 310.826 241.754 293.012C240.108 292.987 238.448 292.934 236.807 293.012C233.54 293.623 234.795 296.63 235.6 299.085C241.739 317.809 268.117 318.421 275.848 300.354ZM288.152 392.866C288.281 394.98 289.312 396.936 290.983 398.237C292.654 399.538 294.804 400.057 296.884 399.663C300.888 398.904 303.517 395.042 302.754 391.039C301.991 387.036 298.126 384.411 294.124 385.178C290.484 385.876 287.928 389.167 288.152 392.866ZM217.645 399.616C221.624 398.901 224.271 395.098 223.561 391.119C222.85 387.14 219.05 384.489 215.07 385.196C211.084 385.904 208.429 389.71 209.141 393.695C209.852 397.679 213.661 400.331 217.645 399.616Z"/></svg>