<?xml version="1.0" encoding="utf-8" ?><svg xmlns="http://www.w3.org/2000/svg" xmlns:xlink="http://www.w3.org/1999/xlink" width="1024" height="1024" viewBox="0 0 1024 1024"><path fill="#0DC6D1" d="M0 0L71.4074 0L436.43 0L1024 0L1024 626.185L1024 702.516L1024 782.467L1024 880.338L1024 965.257L1024 1024L67.7816 1024L0 1024L0 962.523L0 913.439L0 900.411L0 862.882L0 848.491L0 808.9L0 798.431L0 765.426L0 728.429L0 712.738L0 694.489L0 667.911L0 651.698L0 634.522C6.0964 624.656 11.6008 614.809 17.8742 604.936C28.849 605.04 48.7713 604.345 58.8311 605.524C58.2698 603.175 58.5878 602.578 59.3813 600.308C66.1467 588.124 74.1451 576.916 80.8443 564.752C81.3892 563.762 80.2199 562.085 79.7577 561.164C77.4108 559.466 62.7681 533.128 59.0491 527.987C45.9352 528.651 31.4164 528.411 18.214 528.322C12.4078 538.554 6.33437 548.631 0 558.544L0 540.189L0 510.261L0 493.567L0 481.167L0 459.938L0 430.126L0 412.421L0 399.593L0 381.808L0 350.318L0 333.339L0 321.197L0 305.644L0 260.502L0 258.961L0 229.147L0 217.63L0 175.576L0 123.964L0 112.585L0 62.4731L0 0Z"/><path fill="#F43487" d="M407 474.277C413.846 469.239 420.803 463.805 427.216 472.716C428.521 474.53 428.919 476.221 429.942 477.912C438.234 479.535 446.464 481.463 454.614 483.691L454.951 483.96C454.99 492.451 455.588 524.806 453.972 530.945C471.634 536.647 496.406 540.113 513.134 546.828C511.427 559.753 509.493 572.647 507.33 585.503C506.757 588.84 503.979 600.564 504.32 602.583L504.02 602.645C486.076 596.538 465.338 590.595 447.859 584.038L447.579 583.996C446.602 590.402 436.835 636.735 433.387 639.278L434.132 639.593C431.674 648.479 428.799 657.244 425.518 665.86C423.772 670.521 421.089 676.697 419.598 681.194L418.765 681.003C416.117 679.446 409.669 676.728 406.699 675.378L381.144 663.705C379.602 664.989 377.516 668.474 376.314 670.292C368.75 679.114 365.685 683.17 355.095 688.097C344.602 689.93 339.744 684.941 338.288 674.582C336.697 663.262 337.969 650.776 338.677 639.363C343.756 615.396 347.745 591.469 355.733 568.255C359.043 558.221 362.695 548.314 366.456 538.44C374.272 517.925 385.187 500.289 398.228 482.723C400.835 479.896 404.159 476.934 407 474.277Z"/><path fill="#FB77B2" d="M409.423 518.748C416.25 520.802 422.732 521.915 429.614 524.348L429.895 524.26C437.733 526.427 445.944 528.575 453.67 531.011L453.972 530.945C471.634 536.647 496.406 540.113 513.134 546.828C511.427 559.753 509.493 572.647 507.33 585.503C506.757 588.84 503.979 600.564 504.32 602.583L504.02 602.645C486.076 596.538 465.338 590.595 447.859 584.038L447.579 583.996C441.428 581.572 425.303 577.175 418.387 575.098C413.639 573.817 401.277 570.888 397.602 568.369C403.209 550.211 406.518 537.27 409.423 518.748Z"/><path fill="#FA8AB4" d="M409.423 518.748C416.25 520.802 422.732 521.915 429.614 524.348L429.895 524.26C437.733 526.427 445.944 528.575 453.67 531.011C454.13 535.366 453.025 541.974 452.673 546.425C451.722 558.473 448.767 572.287 447.859 584.038L447.579 583.996C441.428 581.572 425.303 577.175 418.387 575.098C413.639 573.817 401.277 570.888 397.602 568.369C403.209 550.211 406.518 537.27 409.423 518.748Z"/><path fill="#FA8AB4" d="M409.423 518.748C416.25 520.802 422.732 521.915 429.614 524.348C427.294 539.356 425.239 553.933 420.257 568.314C419.591 570.237 418.646 573.179 418.387 575.098C413.639 573.817 401.277 570.888 397.602 568.369C403.209 550.211 406.518 537.27 409.423 518.748Z"/><path fill="#FCABC9" d="M397.602 568.369C401.277 570.888 413.639 573.817 418.387 575.098C425.303 577.175 441.428 581.572 447.579 583.996C446.602 590.402 436.835 636.735 433.387 639.278L434.132 639.593C431.674 648.479 428.799 657.244 425.518 665.86C423.772 670.521 421.089 676.697 419.598 681.194L418.765 681.003C416.117 679.446 409.669 676.728 406.699 675.378L381.144 663.705L380.533 663.455C373.308 660.025 367.305 657.076 359.594 654.666C366.342 644.998 374.349 629.04 379.209 618.346C385.558 603.45 393.12 583.89 397.602 568.369Z"/><path fill="#FB77B2" d="M379.209 618.346C384.535 621.495 393.98 624.351 400.144 626.217L400.446 626.46C410.45 630.252 423.722 635.037 433.387 639.278L434.132 639.593C431.674 648.479 428.799 657.244 425.518 665.86C423.772 670.521 421.089 676.697 419.598 681.194L418.765 681.003C416.117 679.446 409.669 676.728 406.699 675.378L381.144 663.705L380.533 663.455C373.308 660.025 367.305 657.076 359.594 654.666C366.342 644.998 374.349 629.04 379.209 618.346Z"/><path fill="#FA8AB4" d="M379.209 618.346C384.535 621.495 393.98 624.351 400.144 626.217L400.446 626.46C397.769 634.163 385.536 657.148 380.533 663.455C373.308 660.025 367.305 657.076 359.594 654.666C366.342 644.998 374.349 629.04 379.209 618.346Z"/><path fill="#B91D90" d="M359.594 654.666C357.638 656.987 355.305 660.738 352.007 659.764C342.209 647.278 372.761 551.724 380.062 534.361C383.192 527.07 386.769 519.98 390.772 513.129C393.751 508.033 399.672 497.213 406.513 497.74C411.721 500.243 410.057 513.942 409.423 518.748C406.518 537.27 403.209 550.211 397.602 568.369C393.12 583.89 385.558 603.45 379.209 618.346C374.349 629.04 366.342 644.998 359.594 654.666Z"/><path fill="#020937" d="M515.085 497.878C535.108 502.634 555.098 507.528 575.054 512.561C603.89 519.929 635.661 528.433 664.604 534.932C784.682 564.236 904.486 594.655 1024 626.185L1024 702.516L1024 782.467L1024 880.338L1024 965.257L1024 1024L67.7816 1024L0 1024L0 962.523L0 913.439L0 900.411L0 862.882C7.06038 862.955 14.1215 862.879 21.1787 862.654C130.698 858.597 238.27 801.226 299.792 709.909C312.407 691.395 323.268 671.745 332.234 651.214C333.708 647.871 336.06 641.756 338.677 639.363C337.969 650.776 336.697 663.262 338.288 674.582C339.744 684.941 344.602 689.93 355.095 688.097C365.685 683.17 368.75 679.114 376.314 670.292C377.516 668.474 379.602 664.989 381.144 663.705L406.699 675.378C409.669 676.728 416.117 679.446 418.765 681.003L419.598 681.194C421.089 676.697 423.772 670.521 425.518 665.86C428.799 657.244 431.674 648.479 434.132 639.593L433.387 639.278C436.835 636.735 446.602 590.402 447.579 583.996L447.859 584.038C465.338 590.595 486.076 596.538 504.02 602.645L504.32 602.583C503.979 600.564 506.757 588.84 507.33 585.503C509.493 572.647 511.427 559.753 513.134 546.828C513.904 530.256 514.606 514.511 515.085 497.878Z"/><path fill="#5350BE" d="M0 862.882C7.06038 862.955 14.1215 862.879 21.1787 862.654C130.698 858.597 238.27 801.226 299.792 709.909C312.407 691.395 323.268 671.745 332.234 651.214C333.708 647.871 336.06 641.756 338.677 639.363C337.969 650.776 336.697 663.262 338.288 674.582C339.744 684.941 344.602 689.93 355.095 688.097C365.685 683.17 368.75 679.114 376.314 670.292C377.516 668.474 379.602 664.989 381.144 663.705L406.699 675.378C409.669 676.728 416.117 679.446 418.765 681.003L419.598 681.194C433.891 688.577 456.473 698.813 471.548 704.569L472.482 705.181C470.741 706.614 470.138 709.477 469.227 711.686C464.824 722.362 459.593 732.793 454.239 743.025C442.567 765.49 429.468 787.184 415.022 807.973C350.672 898.1 259.731 965.828 154.947 1001.66C137.921 1007.32 120.342 1012.01 102.932 1016.3C94.3505 1018.41 74.8516 1020.82 67.7816 1024L0 1024L0 962.523L0 913.439L0 900.411L0 862.882Z"/><path fill="#43187F" d="M418.765 681.003L419.598 681.194C433.891 688.577 456.473 698.813 471.548 704.569L472.482 705.181C470.741 706.614 470.138 709.477 469.227 711.686C464.824 722.362 459.593 732.793 454.239 743.025C442.567 765.49 429.468 787.184 415.022 807.973C350.672 898.1 259.731 965.828 154.947 1001.66C137.921 1007.32 120.342 1012.01 102.932 1016.3C94.3505 1018.41 74.8516 1020.82 67.7816 1024L0 1024L0 962.523C14.2656 962.495 28.2686 962.372 42.5048 961.264C52.1075 960.517 63.8742 958.004 73.3093 957.965C76.9223 966.259 77.6414 969.722 79.4728 978.451C81.1592 970.015 82.5158 964.156 86.2368 956.426C88.7535 956.169 98.5895 953.507 101.56 952.752C127.252 946.005 152.453 937.507 176.985 927.318C286.554 879.795 373.286 791.437 418.765 681.003Z"/><path fill="#F0FAFC" d="M172.787 961.303C175.296 960.61 177.89 962.091 178.568 964.604C179.246 967.117 177.75 969.702 175.233 970.366C172.737 971.024 170.178 969.543 169.505 967.05C168.832 964.558 170.299 961.99 172.787 961.303Z"/><path fill="#F0FAFC" d="M333.164 867.713C334.608 867.052 336.3 867.247 337.557 868.218C338.814 869.19 339.428 870.779 339.152 872.344C338.875 873.908 337.754 875.19 336.24 875.673C334.086 876.36 331.77 875.25 330.955 873.141C330.14 871.032 331.108 868.653 333.164 867.713Z"/><path fill="#1087D7" d="M0 862.882C7.06038 862.955 14.1215 862.879 21.1787 862.654C130.698 858.597 238.27 801.226 299.792 709.909C312.407 691.395 323.268 671.745 332.234 651.214C333.708 647.871 336.06 641.756 338.677 639.363C337.969 650.776 336.697 663.262 338.288 674.582C339.744 684.941 344.602 689.93 355.095 688.097C353.926 694.412 329.198 731.506 324.233 738.299C297.566 774.253 265.28 805.675 228.616 831.357C191.629 856.825 150.234 875.44 107.016 887.065C101.149 888.643 85.8527 893.271 80.2947 893.06L79.8141 892.336L79.0301 893.485C78.8989 898.344 77.5806 903.722 76.4685 908.468C72.9996 907.642 42.9296 911.894 36.3647 912.386C24.2636 913.255 12.131 913.606 0 913.439L0 900.411L0 862.882Z"/><path fill="#43187F" d="M79.0301 893.485C78.8989 898.344 77.5806 903.722 76.4685 908.468C72.9996 907.642 42.9296 911.894 36.3647 912.386C24.2636 913.255 12.131 913.606 0 913.439L0 900.411C20.9361 900.474 40.256 899.461 60.9667 896.209C66.5025 895.339 73.7017 894.703 79.0301 893.485Z"/><path fill="#43187F" d="M376.314 670.292C377.175 672.93 371.514 683.863 369.938 687.03C321.878 783.642 237.307 859.342 134.419 893.028C117.543 898.553 100.253 903.567 82.6781 906.641C81.808 902.206 81.0703 897.53 80.2947 893.06C85.8527 893.271 101.149 888.643 107.016 887.065C150.234 875.44 191.629 856.825 228.616 831.357C265.28 805.675 297.566 774.253 324.233 738.299C329.198 731.506 353.926 694.412 355.095 688.097C365.685 683.17 368.75 679.114 376.314 670.292Z"/><path fill="#5350BE" d="M0 913.439C12.131 913.606 24.2636 913.255 36.3647 912.386C42.9296 911.894 72.9996 907.642 76.4685 908.468C73.9064 918.005 71.9758 924.428 62.6151 929.719C57.4566 932.634 50.4148 935.298 44.5964 936.523C57.7852 942.027 67.4169 944.237 73.3093 957.965C63.8742 958.004 52.1075 960.517 42.5048 961.264C28.2686 962.372 14.2656 962.495 0 962.523L0 913.439Z"/><path fill="#F0FAFC" d="M79.0301 893.485L79.8141 892.336L80.2947 893.06C81.0703 897.53 81.808 902.206 82.6781 906.641C86.5379 926.723 94.9411 932.136 114.373 936.567C100.935 941.255 93.1189 942.886 86.2368 956.426C82.5158 964.156 81.1592 970.015 79.4728 978.451C77.6414 969.722 76.9223 966.259 73.3093 957.965C67.4169 944.237 57.7852 942.027 44.5964 936.523C50.4148 935.298 57.4566 932.634 62.6151 929.719C71.9758 924.428 73.9064 918.005 76.4685 908.468C77.5806 903.722 78.8989 898.344 79.0301 893.485Z"/><path fill="#F0FAFC" d="M227.658 862.675C229.881 861.538 232.604 862.416 233.744 864.637C234.884 866.858 234.01 869.583 231.791 870.726C229.567 871.872 226.836 870.995 225.693 868.77C224.551 866.544 225.431 863.814 227.658 862.675Z"/><path fill="#F0FAFC" d="M329.195 770.272C331.518 769.527 334.008 770.786 334.785 773.098C335.563 775.411 334.339 777.918 332.038 778.728C330.521 779.262 328.833 778.938 327.622 777.88C326.41 776.821 325.862 775.192 326.188 773.617C326.514 772.041 327.663 770.763 329.195 770.272Z"/><path fill="#FD669C" d="M515.085 497.878C535.108 502.634 555.098 507.528 575.054 512.561C603.89 519.929 635.661 528.433 664.604 534.932C784.682 564.236 904.486 594.655 1024 626.185L1024 702.516L1024 782.467C1019.24 780.315 1007.46 776.624 1002.13 774.768C987.044 769.399 971.904 764.191 956.709 759.145L851.591 722.42C736.045 681.866 620.287 641.919 504.32 602.583C503.979 600.564 506.757 588.84 507.33 585.503C509.493 572.647 511.427 559.753 513.134 546.828C513.904 530.256 514.606 514.511 515.085 497.878Z"/><path fill="#B91D90" d="M515.085 497.878C535.108 502.634 555.098 507.528 575.054 512.561C603.89 519.929 635.661 528.433 664.604 534.932C784.682 564.236 904.486 594.655 1024 626.185L1024 702.516C1017.67 700.169 1004.42 696.769 997.569 694.772C981.855 690.264 966.2 685.554 950.607 680.641C945.604 679.102 937.803 677.335 933.376 675.576C920.055 688.104 921.281 702.247 917.502 718.638C915.756 707.496 913.249 688.939 906.652 680.035C896.936 666.921 879.705 665.838 864.776 663.543C872.415 661.848 879.59 660.913 887.449 658.966C886.06 657.935 860.383 650.883 856.705 649.786C818.592 638.031 780.359 626.668 742.012 615.698L513.134 546.828C513.904 530.256 514.606 514.511 515.085 497.878Z"/><path fill="#F0FAFC" d="M887.449 658.966C915.097 650.213 911.322 632.419 917.506 609.61C919.548 623.895 920.712 643.521 932.96 652.56C944.736 661.249 957.749 660.127 970.496 663.517C959.261 665.183 942.126 668.357 933.376 675.576C920.055 688.104 921.281 702.247 917.502 718.638C915.756 707.496 913.249 688.939 906.652 680.035C896.936 666.921 879.705 665.838 864.776 663.543C872.415 661.848 879.59 660.913 887.449 658.966Z"/><path fill="#F0FAFC" d="M761.579 576.286C768.928 575.545 775.513 580.835 776.374 588.171C777.235 595.507 772.053 602.177 764.732 603.158C759.889 603.806 755.073 601.793 752.132 597.891C749.191 593.989 748.582 588.804 750.54 584.327C752.497 579.85 756.717 576.777 761.579 576.286Z"/><path fill="#F0FAFC" d="M606.223 544.255C607.556 543.474 609.206 543.474 610.538 544.255C611.87 545.035 612.677 546.474 612.648 548.018C612.619 549.562 611.758 550.969 610.397 551.699C608.348 552.797 605.796 552.053 604.658 550.025C603.521 547.996 604.217 545.431 606.223 544.255Z"/><path fill="#FA8AB4" d="M447.579 583.996L447.859 584.038C465.338 590.595 486.076 596.538 504.02 602.645L504.32 602.583C620.287 641.919 736.045 681.866 851.591 722.42L956.709 759.145C971.904 764.191 987.044 769.399 1002.13 774.768C1007.46 776.624 1019.24 780.315 1024 782.467L1024 880.338C991.931 868.84 959.591 853.664 927.193 841.879C924.041 848.634 916.049 851.607 909.249 848.554C902.449 845.501 899.359 837.554 902.312 830.71L668.757 734.821L539.526 681.707C523.748 675.292 504.683 666.434 489.435 660.876C485.628 669.704 476.173 697.708 471.548 704.569C456.473 698.813 433.891 688.577 419.598 681.194C421.089 676.697 423.772 670.521 425.518 665.86C428.799 657.244 431.674 648.479 434.132 639.593L433.387 639.278C436.835 636.735 446.602 590.402 447.579 583.996Z"/><path fill="#FB4995" d="M434.132 639.593L489.316 660.664L489.435 660.876C485.628 669.704 476.173 697.708 471.548 704.569C456.473 698.813 433.891 688.577 419.598 681.194C421.089 676.697 423.772 670.521 425.518 665.86C428.799 657.244 431.674 648.479 434.132 639.593Z"/><path fill="#F0FAFC" d="M902.312 830.71C904.261 826.193 908.492 823.075 913.384 822.552C918.276 822.029 923.071 824.182 925.931 828.185C928.791 832.188 929.273 837.421 927.193 841.879C924.041 848.634 916.049 851.607 909.249 848.554C902.449 845.501 899.359 837.554 902.312 830.71Z"/><path fill="#F43487" d="M489.435 660.876C504.683 666.434 523.748 675.292 539.526 681.707L668.757 734.821L902.312 830.71C899.359 837.554 902.449 845.501 909.249 848.554C916.049 851.607 924.041 848.634 927.193 841.879C959.591 853.664 991.931 868.84 1024 880.338L1024 965.257C920.006 915.545 815.763 866.355 711.275 817.691C708.878 813.448 705.966 795.879 704.539 789.825C703.198 797.648 701.871 804.773 699.651 812.42C655.18 792.226 610.983 771.434 567.072 750.048L517.395 726.306C502.241 719.192 487.549 712.609 472.482 705.181L471.548 704.569C476.173 697.708 485.628 669.704 489.435 660.876Z"/><path fill="#F0FAFC" d="M558.996 709.898C566.372 708.603 573.406 713.522 574.719 720.896C576.031 728.27 571.128 735.314 563.757 736.644C556.363 737.978 549.29 733.055 547.973 725.657C546.656 718.26 551.595 711.198 558.996 709.898Z"/><path fill="#F0FAFC" d="M704.539 789.825C705.966 795.879 708.878 813.448 711.275 817.691C719.714 841.05 736.221 841.785 758.239 845.574C746.812 849.171 733.794 849.179 723.647 857.15C710.929 867.14 706.799 889.788 704.996 905.105C702.897 893.187 700.45 879.426 695.619 868.314C688.309 851.502 670.102 848.539 653.699 845.483C680.265 839.02 689.956 841.854 699.651 812.42C701.871 804.773 703.198 797.648 704.539 789.825Z"/><path fill="#F0FAFC" d="M613.254 906.894C614.894 908.656 615.552 920.372 618.789 925.326C623.496 932.531 631.86 932.853 639.71 934.881C618.018 939.429 618.834 943.907 613.339 963.143C608.806 943.062 607.036 938.411 586.067 934.558C607.827 930.865 608.193 927.032 613.254 906.894Z"/><path fill="#F0FAFC" d="M396.34 968.589C404.169 968.404 410.681 974.568 410.927 982.395C411.173 990.222 405.061 996.782 397.236 997.09C389.324 997.401 382.674 991.205 382.425 983.291C382.176 975.376 388.424 968.775 396.34 968.589Z"/><path fill="#F0FAFC" d="M469.032 865.06C473.458 864.515 477.413 865.568 479.821 869.675C481.197 872 481.55 874.79 480.798 877.385C479.804 880.891 477.811 882.179 474.868 883.888C462.387 885.919 458.05 872.501 469.032 865.06Z"/><path fill="#F0FAFC" d="M483.523 759.798C485.7 763.695 485.852 773.524 487.643 776.567C489.227 779.259 501.684 780.045 505.367 780.466C499.489 782.226 493.454 782.053 487.403 784.02C486.073 787.304 484.411 797.675 483.696 801.61L483.34 801.546C482.619 800.231 480.887 787.353 480.159 784.12C473.879 781.777 468.403 781.301 461.822 780.547C467.861 779.715 474.762 778.916 480.506 777.141C481.928 771.401 482.223 765.556 483.523 759.798Z"/><path fill="#F0FAFC" d="M794.886 935.634C799.93 934.361 805.045 937.437 806.285 942.489C807.525 947.54 804.416 952.636 799.356 953.843C794.343 955.038 789.305 951.964 788.077 946.959C786.848 941.954 789.89 936.896 794.886 935.634Z"/><path fill="#F0FAFC" d="M313.051 967.218C314.637 966.582 316.444 966.863 317.763 967.95C319.082 969.037 319.703 970.757 319.382 972.436C319.061 974.115 317.85 975.485 316.224 976.01C313.825 976.783 311.246 975.516 310.39 973.146C309.535 970.776 310.711 968.154 313.051 967.218Z"/><path fill="#F0FAFC" d="M501.293 949.831C502.914 949.512 504.579 950.113 505.623 951.394C506.666 952.676 506.917 954.429 506.275 955.951C505.633 957.474 504.204 958.519 502.558 958.667C500.19 958.88 498.07 957.202 497.733 954.849C497.396 952.496 498.96 950.291 501.293 949.831Z"/><path fill="#F0FAFC" d="M551.814 828.89C554.17 828.268 556.589 829.652 557.246 831.998C557.903 834.345 556.554 836.784 554.218 837.475C552.676 837.932 551.007 837.522 549.852 836.403C548.696 835.284 548.233 833.63 548.64 832.073C549.046 830.517 550.259 829.301 551.814 828.89Z"/><path fill="#F0FAFC" d="M937.465 956.8C938.972 956.302 940.631 956.659 941.8 957.732C942.97 958.806 943.467 960.428 943.1 961.973C942.733 963.517 941.559 964.742 940.032 965.175C937.739 965.824 935.348 964.522 934.649 962.244C933.951 959.965 935.202 957.546 937.465 956.8Z"/><defs><linearGradient id="gradient_0" gradientUnits="userSpaceOnUse" x1="547.07349" y1="367.35989" x2="1083.3451" y2="208.21465"><stop offset="0" stop-color="#000123"/><stop offset="1" stop-color="#0C0055"/></linearGradient></defs><path fill="url(#gradient_0)" d="M436.43 0L1024 0L1024 626.185C904.486 594.655 784.682 564.236 664.604 534.932C664.19 531.834 664.406 525.716 664.382 522.351L664.127 497.949C663.943 476.943 662.468 455.969 659.712 435.144C656.351 409.525 651.644 384.101 645.611 358.977C623.171 269.205 584.105 184.435 530.434 109.057C525.153 101.66 519.448 93.1861 513.859 86.1127C499.5 68.1503 484.491 50.7175 468.862 33.849C458.68 22.9762 446.097 10.7839 436.43 0Z"/><defs><linearGradient id="gradient_1" gradientUnits="userSpaceOnUse" x1="685.75543" y1="169.74098" x2="762.74591" y2="250.76045"><stop offset="0" stop-color="#80A0E5"/><stop offset="1" stop-color="#5DD4E8"/></linearGradient></defs><path fill="url(#gradient_1)" d="M674.167 159.582C676.553 153.956 678.849 148.719 682.237 143.589C702.883 112.325 743.087 99.3296 777.952 111.734C783.059 113.77 787.705 115.628 792.565 118.282C798.411 121.577 801.456 123.578 806.591 127.87C808.663 129.638 813.863 134.064 815.422 136.264C816.783 138.118 818.676 140.534 819.887 142.413L820.374 142.991C821.799 145.632 824.61 150.528 825.617 153.12C826.969 155.77 827.981 157.941 829.066 160.538C830.083 162.972 832.847 172.667 833.886 174.116L833.759 174.518C834.062 177.568 834.245 181.146 835.518 183.917L834.861 184.455C834.949 189.112 835.144 194.174 835.05 198.798C834.563 206.152 833.132 213.412 830.792 220.401C821.029 244.74 809.801 258.061 785.394 269.404C779.933 271.941 769.48 274.961 763.462 275.187C755.798 277.911 735.1 273.482 727.205 270.818C712.502 265 702.297 257.892 691.601 246.098C689.904 244.457 687.634 241.539 686.066 239.645C669.124 244.896 639.175 250.995 621.274 248.374C619.225 248.075 616.392 246.65 615.307 244.721C614.45 243.199 614.436 240.781 615.145 239.275C622.201 224.286 655.262 202.774 669.119 195.768L669.377 195.611C669.76 193.958 669.563 185.407 669.657 183.148C669.864 178.19 670.343 174.907 671.107 170.029C672.074 165.849 672.707 163.599 674.167 159.582Z"/><path fill="#02B4D9" d="M772.394 211.945C791.091 204.864 816.905 193.172 834.861 184.455C834.949 189.112 835.144 194.174 835.05 198.798C834.563 206.152 833.132 213.412 830.792 220.401C821.029 244.74 809.801 258.061 785.394 269.404C779.933 271.941 769.48 274.961 763.462 275.187C755.798 277.911 735.1 273.482 727.205 270.818C712.502 265 702.297 257.892 691.601 246.098C689.904 244.457 687.634 241.539 686.066 239.645C692.037 238.277 700.582 235.592 706.616 233.863C728.885 227.631 750.837 220.316 772.394 211.945Z"/><path fill="#1087D7" d="M771.954 216.245C784.549 212.051 811.439 196.16 821.19 195.391C825.994 195.013 831.251 195.617 835.05 198.798C834.563 206.152 833.132 213.412 830.792 220.401C824.053 221.575 808.714 232.369 799.196 235.811C792.646 234.968 780.149 231.363 773.3 229.557C774.334 225.928 775.742 221.262 775.479 217.478L774.763 216.935C773.433 217.23 773.155 217.384 771.818 217.284L771.954 216.245Z"/><path fill="#1087D7" d="M686.066 239.645C692.037 238.277 700.582 235.592 706.616 233.863C728.885 227.631 750.837 220.316 772.394 211.945C772.034 213.304 771.881 214.006 771.358 215.327C769.017 221.245 769.167 223.843 767.592 229.162C763.794 232.643 733.403 252.857 728.761 254.805C716.557 252.743 706.037 248.572 694.2 245.447C693.204 245.184 692.409 245.581 691.601 246.098C689.904 244.457 687.634 241.539 686.066 239.645Z"/><path fill="#1087D7" d="M727.205 270.818C729.448 267.779 732.135 265.721 735.235 263.635C740.668 259.979 774.211 241.084 778.685 240.322C786.965 238.913 797.428 241.897 804.2 246.65C798.668 251.653 794.422 254.217 789.195 258.132C784.805 261.419 765.042 272.594 763.462 275.187C755.798 277.911 735.1 273.482 727.205 270.818Z"/><path fill="#02B4D9" d="M674.167 159.582C676.553 153.956 678.849 148.719 682.237 143.589C702.883 112.325 743.087 99.3296 777.952 111.734C783.059 113.77 787.705 115.628 792.565 118.282C798.411 121.577 801.456 123.578 806.591 127.87C792.876 127.988 773.175 144.386 761.921 152.718C745.997 164.507 743.202 163.447 723.673 160.046C711.5 167.394 682.025 192.59 669.377 195.611C669.76 193.958 669.563 185.407 669.657 183.148C669.864 178.19 670.343 174.907 671.107 170.029C672.074 165.849 672.707 163.599 674.167 159.582Z"/><path fill="#02B4D9" d="M674.167 159.582C676.553 153.956 678.849 148.719 682.237 143.589C702.883 112.325 743.087 99.3296 777.952 111.734C774.829 114.38 768.157 116.06 764.325 118.131C747.88 127.018 729.871 132.759 713.203 140.89C709.988 142.458 704.168 150.211 701.999 153.25C698.073 152.492 695.261 152.059 691.29 151.645C685.364 154.409 680.27 158.373 674.167 159.582Z"/><path fill="#0DC6D1" d="M777.952 111.734C783.059 113.77 787.705 115.628 792.565 118.282C788.165 121.217 781.182 122.963 776.189 125.174C764.979 130.136 753.974 135.416 742.637 140.103C733.709 143.795 719.95 147.18 711.811 151.606C706.554 164.348 703.455 159.726 691.529 158.444C684.224 162.103 679.28 167.551 671.107 170.029C672.074 165.849 672.707 163.599 674.167 159.582C680.27 158.373 685.364 154.409 691.29 151.645C695.261 152.059 698.073 152.492 701.999 153.25C704.168 150.211 709.988 142.458 713.203 140.89C729.871 132.759 747.88 127.018 764.325 118.131C768.157 116.06 774.829 114.38 777.952 111.734Z"/><path fill="#02B4D9" d="M723.673 160.046C743.202 163.447 745.997 164.507 761.921 152.718C773.175 144.386 792.876 127.988 806.591 127.87C808.663 129.638 813.863 134.064 815.422 136.264C816.783 138.118 818.676 140.534 819.887 142.413L820.374 142.991C821.799 145.632 824.61 150.528 825.617 153.12C825.341 153.771 825.156 154.275 825.012 154.975C817.727 160.755 791.601 175.853 783.23 175.106C763.011 173.301 766.673 173.499 748.795 185.22L718.819 204.59C704.141 214.131 694.945 221.063 676.603 223.041C674.534 217.28 672.775 212.533 671.278 206.588C671.051 204.914 671.116 204.881 670.318 203.307C669.514 201.492 669.477 198.095 669.119 195.768L669.377 195.611C682.025 192.59 711.5 167.394 723.673 160.046Z"/><path fill="#0DC6D1" d="M723.673 160.046C743.202 163.447 745.997 164.507 761.921 152.718C773.175 144.386 792.876 127.988 806.591 127.87C808.663 129.638 813.863 134.064 815.422 136.264C816.783 138.118 818.676 140.534 819.887 142.413L819.274 143.337C816.58 142.911 813.593 141.194 811.015 140.013C799.473 143.214 777.31 155.558 767.019 162.517C763.186 164.601 757.871 170.064 754.004 171.498C743.926 175.235 734.931 170.441 724.758 176.064C710.38 184.012 696.362 192.239 682.517 201.075C678.533 203.618 675.919 205.452 671.278 206.588C671.051 204.914 671.116 204.881 670.318 203.307C669.514 201.492 669.477 198.095 669.119 195.768L669.377 195.611C682.025 192.59 711.5 167.394 723.673 160.046Z"/><defs><linearGradient id="gradient_2" gradientUnits="userSpaceOnUse" x1="759.10889" y1="207.36902" x2="748.53442" y2="181.69308"><stop offset="0" stop-color="#00B3DD"/><stop offset="1" stop-color="#08D9EA"/></linearGradient></defs><path fill="url(#gradient_2)" d="M825.617 153.12C826.969 155.77 827.981 157.941 829.066 160.538C830.083 162.972 832.847 172.667 833.886 174.116L833.759 174.518C826.071 178.855 817.722 182.725 809.738 186.55C784.848 198.549 759.154 208.805 732.842 217.242C726.363 219.316 718.511 221.4 711.85 223.276C703.793 225.544 689.064 230.983 681.101 232.213C679.141 229.045 678.087 226.45 676.603 223.041C694.945 221.063 704.141 214.131 718.819 204.59L748.795 185.22C766.673 173.499 763.011 173.301 783.23 175.106C791.601 175.853 817.727 160.755 825.012 154.975C825.156 154.275 825.341 153.771 825.617 153.12Z"/><path fill="#020937" d="M670.318 203.307C671.116 204.881 671.051 204.914 671.278 206.588C672.775 212.533 674.534 217.28 676.603 223.041C678.087 226.45 679.141 229.045 681.101 232.213C672.464 234.165 643.238 241.685 634.075 236.393C633.6 236.119 633.362 234.598 633.542 234.287C640.389 222.42 659.195 210.614 670.318 203.307Z"/><path fill="#05B3FC" d="M815.422 136.264C837.425 131.722 870.263 121.546 892.605 129.505C897.633 131.297 894.82 139.145 892.399 142.322C880.419 158.037 862.453 168.924 845.463 178.561C843.014 179.94 837.604 183.102 835.518 183.917C834.245 181.146 834.062 177.568 833.759 174.518L833.886 174.116C832.847 172.667 830.083 162.972 829.066 160.538C827.981 157.941 826.969 155.77 825.617 153.12C824.61 150.528 821.799 145.632 820.374 142.991L819.887 142.413C818.676 140.534 816.783 138.118 815.422 136.264Z"/><path fill="#020937" d="M820.374 142.991C827.135 140.98 883.867 128.259 868.6 149.508C862.868 157.487 843.433 168.93 833.886 174.116C832.847 172.667 830.083 162.972 829.066 160.538C827.981 157.941 826.969 155.77 825.617 153.12C824.61 150.528 821.799 145.632 820.374 142.991Z"/><path fill="#F0FAFC" d="M886.149 430.301C886.29 430.431 891.702 446.474 893.3 449.488C900.148 452.757 909.605 455.077 917.051 456.606C898.801 459.347 891.257 459.217 887.58 479.114C887.358 480.555 887.327 481.521 886.601 482.793C885.08 480.637 884.3 470.681 880.978 465.964C875.576 458.291 868.338 457.649 859.788 455.473C879.871 451.818 881.25 449.423 886.149 430.301Z"/><path fill="#F0FAFC" d="M963.326 322.184C968.364 321.406 973.431 323.4 976.588 327.403C979.745 331.406 980.504 336.798 978.574 341.516C976.643 346.234 972.323 349.549 967.266 350.191C959.591 351.166 952.557 345.793 951.479 338.131C950.401 330.47 955.68 323.365 963.326 322.184Z"/><path fill="#F0FAFC" d="M971.118 22.9322C978.737 22.8128 985.025 28.8632 985.199 36.4809C985.373 44.0987 979.367 50.4296 971.751 50.658C964.057 50.8888 957.648 44.8091 957.472 37.1138C957.297 29.4185 963.422 23.0527 971.118 22.9322Z"/><path fill="#F0FAFC" d="M951.395 545.519C956.993 544.901 962.038 548.924 962.683 554.519C963.328 560.115 959.329 565.179 953.737 565.851C948.107 566.527 943 562.496 942.351 556.862C941.702 551.228 945.758 546.141 951.395 545.519Z"/><path fill="#F0FAFC" d="M946.758 210.159C947.597 216.131 948.633 222.074 949.865 227.978C955.901 229.844 961.962 231.094 967.948 232.916C963.058 233.864 954.927 235.236 950.454 236.898C949.284 242.52 948.598 248.375 947.327 253.938C946.278 247.527 945.457 242.742 943.838 236.457C937.434 234.624 930.89 233.317 924.273 232.549C932.234 231.889 936.467 231.277 943.898 228.49C945.623 221.512 945.469 216.796 946.758 210.159Z"/><path fill="#F0FAFC" d="M892.772 42.8688C893.535 43.7801 895.352 55.657 896.198 58.6788C902.485 60.2457 907.496 60.9471 913.932 61.9411C908.194 63.4175 902.56 63.9163 896.633 65.6411C895.111 71.3797 894.213 77.654 892.742 83.5877C892.015 82.6336 889.514 68.6698 889.008 66.3526C882.024 64.0659 878.68 63.3155 871.38 62.5634C877.616 61.3338 883.254 60.7953 889.443 58.9971C890.509 53.6047 891.744 48.2751 892.772 42.8688Z"/><path fill="#F0FAFC" d="M734.749 42.8416C735.671 43.9164 737.956 56.5697 738.425 58.8075C745.171 60.3072 751.22 60.1783 758.749 62.1689C752.905 63.4698 744.825 64.0588 738.57 64.994C737.461 69.5774 736.883 73.4578 736.239 78.1221C736.057 79.0238 735.888 79.4146 735.585 80.2848C734.064 79.1804 732.183 67.8543 731.45 64.8798C726.195 63.6809 720.656 63.1697 714.886 61.844C733.104 56.7933 730.544 64.1105 734.749 42.8416Z"/><path fill="#F0FAFC" d="M570.421 110.325C573.674 109.33 577.211 110.16 579.682 112.498C582.153 114.835 583.178 118.32 582.366 121.624C581.553 124.927 579.029 127.539 575.755 128.464C570.768 129.872 565.577 127.004 564.115 122.033C562.653 117.062 565.465 111.84 570.421 110.325Z"/><path fill="#F0FAFC" d="M760.557 342.075C764.718 341.449 768.421 342.306 770.36 346.477C771.451 348.853 771.528 351.57 770.575 354.004C769.384 357.09 767.805 358.12 764.98 359.469C753.219 359.966 750.377 348.426 760.557 342.075Z"/><path fill="#F0FAFC" d="M754.493 507.975C760.882 509.589 761.264 516.628 754.75 518.716C748.332 516.559 748.167 510.628 754.493 507.975Z"/><path fill="#F0FAFC" d="M727.35 440.667C728.831 439.86 730.631 439.912 732.064 440.801C733.497 441.691 734.341 443.281 734.275 444.967C734.21 446.652 733.244 448.172 731.746 448.947C729.464 450.128 726.656 449.252 725.451 446.982C724.246 444.712 725.093 441.896 727.35 440.667Z"/><path fill="#F0FAFC" d="M968.582 114.262C971.029 113.864 973.345 115.493 973.798 117.93C974.251 120.367 972.673 122.72 970.247 123.226C968.629 123.564 966.954 122.999 965.871 121.751C964.788 120.502 964.465 118.765 965.028 117.21C965.59 115.656 966.95 114.528 968.582 114.262Z"/><path fill="#F0FAFC" d="M888.042 342.83C890.467 342.629 892.617 344.382 892.909 346.798C893.202 349.214 891.532 351.428 889.129 351.812C887.491 352.074 885.841 351.419 884.829 350.105C883.816 348.792 883.603 347.03 884.273 345.513C884.943 343.995 886.389 342.966 888.042 342.83Z"/><path fill="#F0FAFC" d="M829.063 76.8308C831.486 76.2556 833.918 77.7475 834.503 80.1681C835.089 82.5887 833.607 85.0271 831.189 85.6228C828.756 86.2219 826.3 84.7295 825.711 82.2944C825.122 79.8593 826.625 77.4094 829.063 76.8308Z"/><path fill="#F0FAFC" d="M513.098 35.7227C515.482 35.1719 517.867 36.6381 518.452 39.0146C519.037 41.3911 517.605 43.7967 515.237 44.4154C513.675 44.8236 512.014 44.359 510.891 43.1995C509.767 42.0401 509.355 40.3654 509.812 38.817C510.269 37.2685 511.525 36.0861 513.098 35.7227Z"/><path fill="#F0FAFC" d="M979.548 430.272C981.027 429.946 982.566 430.441 983.578 431.567C984.589 432.694 984.916 434.278 984.433 435.713C983.95 437.148 982.731 438.212 981.244 438.498C978.989 438.931 976.803 437.471 976.339 435.221C975.875 432.972 977.305 430.767 979.548 430.272Z"/><path fill="#020937" d="M0 0L71.4074 0L436.43 0C446.097 10.7839 458.68 22.9762 468.862 33.849C484.491 50.7175 499.5 68.1503 513.859 86.1127C519.448 93.1861 525.153 101.66 530.434 109.057C584.105 184.435 623.171 269.205 645.611 358.977C651.644 384.101 656.351 409.525 659.712 435.144C662.468 455.969 663.943 476.943 664.127 497.949L664.382 522.351C664.406 525.716 664.19 531.834 664.604 534.932C635.661 528.433 603.89 519.929 575.054 512.561C555.098 507.528 535.108 502.634 515.085 497.878C514.606 514.511 513.904 530.256 513.134 546.828C496.406 540.113 471.634 536.647 453.972 530.945C455.588 524.806 454.99 492.451 454.951 483.96L454.614 483.691C446.464 481.463 438.234 479.535 429.942 477.912C428.919 476.221 428.521 474.53 427.216 472.716C420.803 463.805 413.846 469.239 407 474.277C404.159 476.934 400.835 479.896 398.228 482.723C391.314 419.197 369.991 358.088 335.884 304.05C288.153 229.199 208.749 169.378 124.567 142.11C108.867 137.025 96.6609 134.262 80.767 130.745C80.4492 132.285 79.7442 134.426 79.2852 135.988C78.9074 134.238 78.6623 132.388 78.3944 130.61C77.4208 126.417 76.57 123.097 75.2993 118.993C73.2763 119.551 63.7286 117.541 61.2176 117.061C41.0406 113.204 20.5181 113.264 0 112.585L0 62.4731L0 0Z"/><path fill="#43187F" d="M0 0L71.4074 0L71.9359 0.164556C80.4993 2.73965 95.8888 5.05818 105.6 7.39356C131.286 13.54 156.602 21.1384 181.427 30.1523C198.902 36.6364 223.975 48.9151 240.134 57.7491C313.075 98.1218 375.557 155.003 422.582 223.843C433.264 239.418 446.087 261.128 455.242 277.896C475.253 314.549 490.366 355.507 501.004 395.815C502.91 403.038 503.897 410.455 505.533 417.603C509.797 436.228 513.016 455.655 514.06 474.751C514.376 480.537 515.419 492.284 515.044 497.624L515.085 497.878C514.606 514.511 513.904 530.256 513.134 546.828C496.406 540.113 471.634 536.647 453.972 530.945C455.588 524.806 454.99 492.451 454.951 483.96L454.614 483.691C446.464 481.463 438.234 479.535 429.942 477.912C428.919 476.221 428.521 474.53 427.216 472.716C420.803 463.805 413.846 469.239 407 474.277C404.159 476.934 400.835 479.896 398.228 482.723C391.314 419.197 369.991 358.088 335.884 304.05C288.153 229.199 208.749 169.378 124.567 142.11C108.867 137.025 96.6609 134.262 80.767 130.745C80.4492 132.285 79.7442 134.426 79.2852 135.988C78.9074 134.238 78.6623 132.388 78.3944 130.61C77.4208 126.417 76.57 123.097 75.2993 118.993C73.2763 119.551 63.7286 117.541 61.2176 117.061C41.0406 113.204 20.5181 113.264 0 112.585L0 62.4731L0 0Z"/><path fill="#5350BE" d="M79.6371 46.1995C80.6568 53.2185 82.4335 62.2244 84.9718 68.8581C96.1742 70.0086 110.175 74.2661 121.053 77.2095C288.612 122.545 417.852 268.935 448.865 438.864C451.286 452.133 454.605 470.006 454.614 483.691C446.464 481.463 438.234 479.535 429.942 477.912C428.919 476.221 428.521 474.53 427.216 472.716C420.803 463.805 413.846 469.239 407 474.277C404.159 476.934 400.835 479.896 398.228 482.723C391.314 419.197 369.991 358.088 335.884 304.05C288.153 229.199 208.749 169.378 124.567 142.11C108.867 137.025 96.6609 134.262 80.767 130.745C80.4492 132.285 79.7442 134.426 79.2852 135.988C78.9074 134.238 78.6623 132.388 78.3944 130.61C77.4208 126.417 76.57 123.097 75.2993 118.993C73.2763 119.551 63.7286 117.541 61.2176 117.061C41.0406 113.204 20.5181 113.264 0 112.585L0 62.4731C26.4601 62.4338 47.1762 64.809 73.4476 68.3682C76.7321 60.0661 77.7619 54.854 79.6371 46.1995Z"/><path fill="#43187F" d="M82.9582 120.82C105.376 123.57 135.528 134.277 156.467 143.217C222.895 171.576 278.097 212.823 322.751 269.983C347.92 301.982 367.867 337.762 381.853 375.996C385.231 385.037 388.056 393.646 391 402.819C392.458 407.363 394.764 415.244 396.744 419.296C392.547 422.34 390.559 427.587 391.687 432.647C392.814 437.708 396.84 441.615 401.932 442.59C401.576 448.414 405.2 468.437 407 474.277C404.159 476.934 400.835 479.896 398.228 482.723C391.314 419.197 369.991 358.088 335.884 304.05C288.153 229.199 208.749 169.378 124.567 142.11C108.867 137.025 96.6609 134.262 80.767 130.745C81.1132 128.212 82.3466 123.475 82.9582 120.82Z"/><path fill="#5350BE" d="M0 62.4731C26.4601 62.4338 47.1762 64.809 73.4476 68.3682C67.0091 84.2638 58.9686 86.3027 43.6447 89.982C61.7058 95.9143 70.4597 98.5877 75.2993 118.993C73.2763 119.551 63.7286 117.541 61.2176 117.061C41.0406 113.204 20.5181 113.264 0 112.585L0 62.4731Z"/><path fill="#F0FAFC" d="M79.6371 46.1995C80.6568 53.2185 82.4335 62.2244 84.9718 68.8581C91.5764 83.9888 102.966 86.478 117.773 89.9621C96.4341 93.8282 89.0242 100.28 82.9582 120.82C82.3466 123.475 81.1132 128.212 80.767 130.745C80.4492 132.285 79.7442 134.426 79.2852 135.988C78.9074 134.238 78.6623 132.388 78.3944 130.61C77.4208 126.417 76.57 123.097 75.2993 118.993C70.4597 98.5877 61.7058 95.9143 43.6447 89.982C58.9686 86.3027 67.0091 84.2638 73.4476 68.3682C76.7321 60.0661 77.7619 54.854 79.6371 46.1995Z"/><path fill="#F0FAFC" d="M396.744 419.296C401.548 415.812 408.102 416.024 412.671 419.81C417.241 423.596 418.667 429.997 416.136 435.365C413.605 440.732 407.761 443.705 401.932 442.59C396.84 441.615 392.814 437.708 391.687 432.647C390.559 427.587 392.547 422.34 396.744 419.296Z"/><path fill="#F0FAFC" d="M236.079 137.271C238.021 139.134 237.438 144.562 238.811 147.157C241.493 152.223 248.144 153.905 253.088 155.529C234.154 158.879 241.105 161.793 235.169 175.412C233.621 161.154 232.105 156.421 216.941 154.065C231.44 151.425 232 151.563 236.079 137.271Z"/><path fill="#F0FAFC" d="M328.563 243.255C330.053 242.452 331.866 242.549 333.262 243.506C334.658 244.463 335.403 246.119 335.193 247.798C334.982 249.478 333.851 250.899 332.262 251.481C330.035 252.297 327.556 251.253 326.583 249.09C325.61 246.927 326.474 244.379 328.563 243.255Z"/><path fill="#F0FAFC" d="M388.541 343.187C390.788 342.718 392.99 344.159 393.46 346.406C393.931 348.652 392.492 350.855 390.246 351.327C387.997 351.8 385.791 350.359 385.32 348.11C384.849 345.861 386.292 343.657 388.541 343.187Z"/><path fill="#FB4995" d="M454.951 483.96C475.001 488.843 495.009 492.78 515.044 497.624L515.085 497.878C514.606 514.511 513.904 530.256 513.134 546.828C496.406 540.113 471.634 536.647 453.972 530.945C455.588 524.806 454.99 492.451 454.951 483.96Z"/><path fill="#F0FAFC" d="M485.536 412.323C487.853 411.475 490.421 412.648 491.295 414.956C492.169 417.263 491.024 419.844 488.727 420.743C487.218 421.334 485.508 421.069 484.249 420.048C482.991 419.028 482.378 417.41 482.644 415.811C482.91 414.213 484.015 412.881 485.536 412.323Z"/><path fill="#F0FAFC" d="M590.243 405.096C592.455 412.284 592.318 420.438 597.294 427.773C602.678 435.708 612.552 436.7 621.364 438.453C597.876 445.442 594.4 448.754 590.784 473.375L590.415 473.935C589.726 472.959 589.145 467.415 588.911 465.904C585.677 445.066 577.972 444.614 561.092 438.56C586.204 434.219 585.633 427.27 590.243 405.096Z"/><path fill="#F0FAFC" d="M395.147 25.5747C402.881 24.5801 409.956 30.0468 410.945 37.7816C411.934 45.5163 406.462 52.5869 398.726 53.5698C390.999 54.5517 383.937 49.0868 382.95 41.3603C381.962 33.6338 387.422 26.5683 395.147 25.5747Z"/><path fill="#F0FAFC" d="M482.671 215.864C483.01 216.362 485.468 231.432 485.938 233.482C491.311 235.422 498.561 236.799 504.242 237.93L486.256 241.347C484.861 248.066 484.098 252.96 483.712 259.791C482.704 258.209 480.187 244.7 479.427 241.681C472.939 239.896 468.231 239.204 461.586 238.496C467.566 236.042 473.389 235.941 479.733 233.345C480.999 227.584 481.29 221.367 482.671 215.864Z"/><path fill="#F0FAFC" d="M467.2 142.736C471.925 141.788 476.55 144.76 477.651 149.452C478.751 154.144 475.931 158.863 471.277 160.116C468.129 160.963 464.77 160.028 462.513 157.676C460.255 155.324 459.459 151.929 460.435 148.819C461.411 145.708 464.004 143.377 467.2 142.736Z"/><path fill="#F0FAFC" d="M582.441 334.261C584.98 333.395 587.744 334.724 588.653 337.248C589.563 339.771 588.281 342.558 585.773 343.51C584.113 344.141 582.241 343.826 580.877 342.688C579.514 341.549 578.87 339.764 579.194 338.017C579.519 336.27 580.76 334.835 582.441 334.261Z"/><path fill="#F0FAFC" d="M313.992 51.2601C316.483 50.7373 318.939 52.2837 319.544 54.7554C320.149 57.2272 318.685 59.7336 316.235 60.4206C314.576 60.8858 312.795 60.4096 311.59 59.1784C310.385 57.9472 309.946 56.1568 310.446 54.508C310.947 52.8591 312.306 51.6141 313.992 51.2601Z"/><path fill="#F0FAFC" d="M516.685 298.337C519.022 297.443 521.64 298.621 522.521 300.963C523.402 303.305 522.208 305.917 519.86 306.783C517.533 307.643 514.948 306.461 514.075 304.139C513.201 301.816 514.367 299.224 516.685 298.337Z"/><path fill="#FB77B2" d="M0 258.961C71.0381 256.754 136.807 280.573 188.086 329.864C193.815 335.371 207.612 349.153 211.172 355.536C217.941 364.239 225.402 375.007 231.249 384.342C234.926 390.211 238.44 397.526 241.969 403.615C257.113 431.627 262.659 455.683 266.969 486.626C269.298 517.836 268.213 532.368 261.87 562.796C255.863 594.303 235.349 635.209 215.263 660.039C212.287 663.718 207.39 670.088 204.109 673.349C202.052 676.129 200.534 678.032 198.247 680.621C169.702 712.724 127.413 739.091 86.6135 751.975C78.2922 754.603 65.9784 758.354 57.4106 759.537L54.8397 759.78C36.2113 764.425 19.0986 765.744 0 765.426L0 728.429L0 712.738L0 694.489L0 667.911L0 651.698L0 634.522C6.0964 624.656 11.6008 614.809 17.8742 604.936C28.849 605.04 48.7713 604.345 58.8311 605.524C58.2698 603.175 58.5878 602.578 59.3813 600.308C66.1467 588.124 74.1451 576.916 80.8443 564.752C81.3892 563.762 80.2199 562.085 79.7577 561.164C77.4108 559.466 62.7681 533.128 59.0491 527.987C45.9352 528.651 31.4164 528.411 18.214 528.322C12.4078 538.554 6.33437 548.631 0 558.544L0 540.189L0 510.261L0 493.567L0 481.167L0 459.938L0 430.126L0 412.421L0 399.593L0 381.808L0 350.318L0 333.339L0 321.197L0 305.644L0 260.502L0 258.961Z"/><path fill="#FA8AB4" d="M0 258.961C71.0381 256.754 136.807 280.573 188.086 329.864C193.815 335.371 207.612 349.153 211.172 355.536C217.941 364.239 225.402 375.007 231.249 384.342C234.926 390.211 238.44 397.526 241.969 403.615C257.113 431.627 262.659 455.683 266.969 486.626C269.298 517.836 268.213 532.368 261.87 562.796C255.863 594.303 235.349 635.209 215.263 660.039C212.287 663.718 207.39 670.088 204.109 673.349C205.341 668.924 219.331 648.677 222.642 643.741C215.138 633.285 209.089 620.429 201.748 609.73C200.221 607.504 199.699 605.953 197.046 605.03C196.658 603.747 196.979 603.054 197.325 601.709C200.24 599.859 218.746 567.698 221.668 562.478C216.297 554.207 204.273 533.116 198.371 526.711C198.024 525.291 198.502 524.538 199.032 523.155C187.152 522.965 171.689 523.77 160.15 522.636C155.859 515.889 138.873 492.586 137.075 487.719C137.282 481.56 156.254 454.261 159.816 446.255C166.543 446.306 192.335 446.404 197.549 444.803L197.607 444.176C194.213 443.593 187.061 443.745 183.415 443.747C175.345 443.814 167.275 443.784 159.206 443.656C158.087 441.957 155.083 437.802 154.724 436.103C153.255 430.925 140.811 412.299 137.255 407.365C134.89 407.252 130.073 407.386 128.181 406.52L127.569 406.994L127.52 407.675C121.711 408.48 98.1186 407.779 90.9161 407.678C89.5947 398.99 76.9791 382.712 72.0096 374.704C70.3775 372.074 68.0652 369.186 67.0882 366.247C64.8821 365.071 62.3661 364.661 59.9365 364.201C46.828 363.579 32.2565 363.904 19.0381 363.989L19.6239 367.348C17.6736 367.007 10.4229 366.592 9.97426 366.33C6.7297 371.532 3.53659 376.802 0 381.808L0 350.318L0 333.339L0 321.197L0 305.644L0 260.502L0 258.961Z"/><path fill="#FB4995" d="M160.238 369.131C172.579 369.242 186.145 369.632 198.401 369.126C206.645 381.355 214.542 393.814 222.084 406.487C215.825 416.583 209.3 426.524 203.295 436.792C201.5 439.862 199.591 442.606 197.187 445.236C201.1 449.982 206.633 459.338 210.061 464.849C213.132 469.787 219.788 479.463 222.232 484.461C216.06 495.561 209.147 506.392 202.714 517.355C201.69 519.1 200.271 521.586 199.032 523.155C187.152 522.965 171.689 523.77 160.15 522.636C155.859 515.889 138.873 492.586 137.075 487.719C137.282 481.56 156.254 454.261 159.816 446.255C166.543 446.306 192.335 446.404 197.549 444.803L197.607 444.176C194.213 443.593 187.061 443.745 183.415 443.747C175.345 443.814 167.275 443.784 159.206 443.656C158.087 441.957 155.083 437.802 154.724 436.103C153.255 430.925 140.811 412.299 137.255 407.365C144.962 395.203 152.79 381.593 160.238 369.131Z"/><path fill="#FB4995" d="M15.5636 283.841C17.0971 284.84 19.3464 286.414 20.9048 287.21C28.4861 288.254 53.7707 288.99 61.0366 287.985C68.0302 301.079 75.5792 313.869 83.6632 326.32C78.5849 333.144 62.9632 356.767 59.9365 364.201C46.828 363.579 32.2565 363.904 19.0381 363.989L19.6239 367.348C17.6736 367.007 10.4229 366.592 9.97426 366.33C6.7297 371.532 3.53659 376.802 0 381.808L0 350.318L0 333.339L0 321.197L0 305.644C5.35125 296.793 8.42042 291.376 15.5636 283.841Z"/><path fill="#FA8AB4" d="M0 333.339C4.9278 340.07 8.8338 347.147 13.0861 354.278C14.599 356.815 17.3096 361.782 19.0381 363.989L19.6239 367.348C17.6736 367.007 10.4229 366.592 9.97426 366.33C6.7297 371.532 3.53659 376.802 0 381.808L0 350.318L0 333.339Z"/><path fill="#F43487" d="M0 350.318C3.13884 355.529 6.49812 361.402 9.97426 366.33C6.7297 371.532 3.53659 376.802 0 381.808L0 350.318Z"/><path fill="#FB77B2" d="M15.5636 283.841C17.0971 284.84 19.3464 286.414 20.9048 287.21C19.7412 288.534 15.4385 296.558 14.2016 298.749C9.59307 306.91 5.46548 313.632 0 321.197L0 305.644C5.35125 296.793 8.42042 291.376 15.5636 283.841Z"/><path fill="#FB4995" d="M90.4155 329.432C103.18 329.504 116.556 329.628 129.301 329.321C137.006 341.056 144.995 355.445 152.717 366.598C145.882 377.552 134.018 395.381 128.181 406.52L127.569 406.994L127.52 407.675C121.711 408.48 98.1186 407.779 90.9161 407.678C89.5947 398.99 76.9791 382.712 72.0096 374.704C70.3775 372.074 68.0652 369.186 67.0882 366.247C71.271 362.068 86.8194 335.657 90.4155 329.432Z"/><path fill="#FB4995" d="M230.901 486.462C242.869 486.575 255.025 486.251 266.969 486.626C269.298 517.836 268.213 532.368 261.87 562.796C253.269 561.699 239.776 562.052 231.062 562.352C228.256 555.833 213.159 532.787 208.495 525.401C216.286 512.609 223.757 499.626 230.901 486.462Z"/><path fill="#FB4995" d="M205.25 363.886C207.084 361.068 208.915 358.003 211.172 355.536C217.941 364.239 225.402 375.007 231.249 384.342C234.926 390.211 238.44 397.526 241.969 403.615C237.928 403.812 234.651 403.962 230.663 404.535C224.288 392.389 212.881 375.686 205.25 363.886Z"/><path fill="#FB4995" d="M0 260.502C6.22652 268.293 9.99802 275.99 15.5636 283.841C8.42042 291.376 5.35125 296.793 0 305.644L0 260.502Z"/><path fill="#F43487" d="M77.3142 267.854C77.9805 270.806 68.4341 285.231 64.9749 286.706C64.9656 285.23 75.5831 270.323 77.3142 267.854Z"/><path fill="#8E0E8E" d="M59.9365 364.201C62.3661 364.661 64.8821 365.071 67.0882 366.247C68.0652 369.186 70.3775 372.074 72.0096 374.704C76.9791 382.712 89.5947 398.99 90.9161 407.678C98.1186 407.779 121.711 408.48 127.52 407.675L127.569 406.994L128.181 406.52C130.073 407.386 134.89 407.252 137.255 407.365C140.811 412.299 153.255 430.925 154.724 436.103C152.527 433.499 149.475 427.888 147.594 424.769C144.133 419.028 140.736 413.45 136.79 408L129.44 408.003C134.228 414.293 149.083 437.853 152.358 445.076C148.122 452.841 129.076 482.051 129.553 487.794C133.151 494.169 146.238 512.237 147.79 518.499L151.68 525.24C148.152 531.064 132.132 559.425 128.815 562.526C117.971 561.552 100.915 562.038 89.6078 562.203L87.5859 558.377L86.9941 558.692L88.2339 560.767C86.6569 563.063 84.0773 562.589 81.5723 562.634C80.8228 561.856 80.7557 561.537 79.7577 561.164C77.4108 559.466 62.7681 533.128 59.0491 527.987C45.9352 528.651 31.4164 528.411 18.214 528.322C12.4078 538.554 6.33437 548.631 0 558.544L0 540.189L0 510.261L0 493.567L0 481.167L0 459.938L0 430.126L0 412.421L0 399.593L0 381.808C3.53659 376.802 6.7297 371.532 9.97426 366.33C10.4229 366.592 17.6736 367.007 19.6239 367.348L19.0381 363.989C32.2565 363.904 46.828 363.579 59.9365 364.201Z"/><path fill="#8E0E8E" d="M19.6548 448.45C33.0409 448.607 46.4281 448.652 59.815 448.586C66.9169 460.757 74.3273 472.746 82.039 484.54C76.7397 493.054 71.5867 501.658 66.5821 510.348C65.3658 512.444 60.7754 520.851 59.5776 522.344C58.8711 524.604 58.8917 525.553 59.0491 527.987C45.9352 528.651 31.4164 528.411 18.214 528.322C12.4078 538.554 6.33437 548.631 0 558.544L0 540.189L0 510.261L0 493.567L0 481.167C6.69983 470.495 12.9142 458.749 19.6548 448.45Z"/><path fill="#FB77B2" d="M0 493.567C4.43379 500.079 14.9265 516.218 18.4589 522.925C18.4647 524.45 18.5852 526.96 18.214 528.322C12.4078 538.554 6.33437 548.631 0 558.544L0 540.189L0 510.261L0 493.567Z"/><path fill="#F43487" d="M0 510.261L8.95227 525.216L0 540.189L0 510.261Z"/><path fill="#F43487" d="M59.5776 522.344C58.8711 524.604 58.8917 525.553 59.0491 527.987C45.9352 528.651 31.4164 528.411 18.214 528.322C18.5852 526.96 18.4647 524.45 18.4589 522.925C31.6954 522.311 46.264 522.432 59.5776 522.344Z"/><path fill="#8E0E8E" d="M9.97426 366.33C10.4229 366.592 17.6736 367.007 19.6239 367.348L18.8762 368.459C32.3652 368.734 45.8559 368.912 59.3474 368.993C66.8557 381.255 74.5053 393.431 82.2946 405.517C75.4733 418.347 67.4989 430.555 59.6642 442.787C46.3215 442.812 32.5748 443.017 19.268 442.857C12.1755 432.94 6.28636 422.848 0 412.421L0 399.593L0 381.808C3.53659 376.802 6.7297 371.532 9.97426 366.33Z"/><path fill="#FB77B2" d="M9.97426 366.33C10.4229 366.592 17.6736 367.007 19.6239 367.348L18.8762 368.459C16.0949 374.943 4.43246 393.318 0 399.593L0 381.808C3.53659 376.802 6.7297 371.532 9.97426 366.33Z"/><path fill="#B91D90" d="M90.768 487.528L128.32 487.852C135.581 497.629 140.981 508.764 147.79 518.499L151.68 525.24C148.152 531.064 132.132 559.425 128.815 562.526C117.971 561.552 100.915 562.038 89.6078 562.203L87.5859 558.377C84.7536 551.661 72.7336 533.785 68.2934 525.895C73.8548 513.702 84.8603 500.366 90.768 487.528Z"/><path fill="#F43487" d="M59.9365 364.201C62.3661 364.661 64.8821 365.071 67.0882 366.247C68.0652 369.186 70.3775 372.074 72.0096 374.704C76.9791 382.712 89.5947 398.99 90.9161 407.678C85.6344 419.789 75.2821 433.459 69.0923 446.089C75.8401 457.888 83.165 469.653 90.1289 481.368L129.996 481.14C136.689 470.111 145.629 455.898 151.399 444.613C146.547 437.1 132.27 412.254 127.52 407.675L127.569 406.994L128.181 406.52C130.073 407.386 134.89 407.252 137.255 407.365C140.811 412.299 153.255 430.925 154.724 436.103C152.527 433.499 149.475 427.888 147.594 424.769C144.133 419.028 140.736 413.45 136.79 408L129.44 408.003C134.228 414.293 149.083 437.853 152.358 445.076C148.122 452.841 129.076 482.051 129.553 487.794C133.151 494.169 146.238 512.237 147.79 518.499C140.981 508.764 135.581 497.629 128.32 487.852L90.768 487.528C84.8603 500.366 73.8548 513.702 68.2934 525.895C72.7336 533.785 84.7536 551.661 87.5859 558.377L86.9941 558.692L88.2339 560.767C86.6569 563.063 84.0773 562.589 81.5723 562.634C80.8228 561.856 80.7557 561.537 79.7577 561.164C77.4108 559.466 62.7681 533.128 59.0491 527.987C58.8917 525.553 58.8711 524.604 59.5776 522.344C60.7754 520.851 65.3658 512.444 66.5821 510.348C71.5867 501.658 76.7397 493.054 82.039 484.54C74.3273 472.746 66.9169 460.757 59.815 448.586C46.4281 448.652 33.0409 448.607 19.6548 448.45C12.9142 458.749 6.69983 470.495 0 481.167L0 459.938L0 430.126L0 412.421C6.28636 422.848 12.1755 432.94 19.268 442.857C32.5748 443.017 46.3215 442.812 59.6642 442.787C67.4989 430.555 75.4733 418.347 82.2946 405.517C74.5053 393.431 66.8557 381.255 59.3474 368.993C45.8559 368.912 32.3652 368.734 18.8762 368.459L19.6239 367.348L19.0381 363.989C32.2565 363.904 46.828 363.579 59.9365 364.201Z"/><path fill="#FB4995" d="M0 430.126L9.60033 446.379C6.47621 450.779 2.99897 455.49 0 459.938L0 430.126Z"/><path fill="#FB4995" d="M17.8742 604.936C28.849 605.04 48.7713 604.345 58.8311 605.524C64.5829 613.486 76.3376 632.412 81.1709 641.318C76.6027 649.065 71.966 656.772 67.2614 664.437C64.3075 669.324 57.7474 678.377 58.7152 683.878C45.2438 683.56 31.7417 683.694 18.2541 683.393C12.2862 693.024 6.16239 703.332 0 712.738L0 694.489L0 667.911L0 651.698L0 634.522C6.0964 624.656 11.6008 614.809 17.8742 604.936Z"/><path fill="#FA8AB4" d="M0 651.698C3.36783 655.162 18.034 677.805 18.7719 681.751L18.2541 683.393C12.2862 693.024 6.16239 703.332 0 712.738L0 694.489L0 667.911L0 651.698Z"/><path fill="#F43487" d="M0 667.911C3.09463 672.51 6.07524 677.184 8.9391 681.929C6.12051 686.157 3.16356 690.513 0 694.489L0 667.911Z"/><path fill="#B91D90" d="M18.2541 683.393C31.7417 683.694 45.2438 683.56 58.7152 683.878C66.1871 692.9 74.9352 710.03 82.0931 720.2C76.4312 731.48 67.8462 742.531 61.2959 753.387C60.2185 755.173 58.6209 757.941 57.4106 759.537L54.8397 759.78C36.2113 764.425 19.0986 765.744 0 765.426L0 728.429L0 712.738C6.16239 703.332 12.2862 693.024 18.2541 683.393Z"/><defs><linearGradient id="gradient_3" gradientUnits="userSpaceOnUse" x1="48.084763" y1="745.99481" x2="0.52646708" y2="749.10278"><stop offset="0" stop-color="#FF4BAE"/><stop offset="1" stop-color="#FF98C4"/></linearGradient></defs><path fill="url(#gradient_3)" d="M0 728.429C3.58314 734.213 16.6019 753.944 18.4287 758.993C27.7828 759.037 46.1242 758.634 54.8397 759.78C36.2113 764.425 19.0986 765.744 0 765.426L0 728.429Z"/><path fill="#FB4995" d="M89.6078 562.203C100.915 562.038 117.971 561.552 128.815 562.526C128.448 567.082 140.231 583.089 142.904 588.197C145.243 592.668 148.861 597.534 151.138 602.525C144.331 614.551 136.315 627.511 129.006 639.392C128.772 640.757 128.738 641.565 128.032 642.772C124.633 643.368 92.827 643.321 90.6225 642.33C90.4564 641.496 90.0109 640.111 89.7636 639.244C88.3352 636.362 85.1932 631.679 83.4156 628.775C78.1154 620.117 72.4001 611.665 67.1791 602.951C71.757 595.952 89.4263 569.322 89.6078 562.203Z"/><path fill="#FB77B2" d="M89.7636 639.244C101.544 639.2 117.415 638.856 129.006 639.392C128.772 640.757 128.738 641.565 128.032 642.772C124.633 643.368 92.827 643.321 90.6225 642.33C90.4564 641.496 90.0109 640.111 89.7636 639.244Z"/><path fill="#FB4995" d="M90.6225 642.33C92.827 643.321 124.633 643.368 128.032 642.772C131.167 646.074 137.426 658.312 140.307 662.89C143.983 668.733 148.459 675.371 151.95 681.258C144.384 693.166 137 705.189 129.802 717.323C116.716 716.869 103.134 717.001 89.9942 716.973C82.4825 704.645 74.5756 692.987 66.931 680.783C70.0913 675.7 88.1433 644.341 90.6225 642.33Z"/><path fill="#FB4995" d="M159.987 525.703C165.613 526.755 192.842 527.256 198.371 526.711C204.273 533.116 216.297 554.207 221.668 562.478C218.746 567.698 200.24 599.859 197.325 601.709C195.151 601.392 187.909 601.469 185.516 601.456L160.653 601.462C153.678 588.376 143.925 576.018 137.534 563.629C143.976 552.784 154.94 536.652 159.987 525.703Z"/><path fill="#FB4995" d="M197.046 605.03C199.699 605.953 200.221 607.504 201.748 609.73C209.089 620.429 215.138 633.285 222.642 643.741C219.331 648.677 205.341 668.924 204.109 673.349C202.052 676.129 200.534 678.032 198.247 680.621C186.307 679.758 173.448 680.012 161.409 680.016C153.867 667.617 145.724 655.126 138.443 642.683C144.361 630.843 153.733 617.2 160.545 605.356C165.681 605.464 193.361 605.918 197.046 605.03Z"/><defs><linearGradient id="gradient_4" gradientUnits="userSpaceOnUse" x1="26.447138" y1="869.11072" x2="237.52995" y2="177.20274"><stop offset="0" stop-color="#1C59BC"/><stop offset="1" stop-color="#1882D5"/></linearGradient></defs><path fill="url(#gradient_4)" d="M0 112.585C20.5181 113.264 41.0406 113.204 61.2176 117.061C63.7286 117.541 73.2763 119.551 75.2993 118.993C76.57 123.097 77.4208 126.417 78.3944 130.61C78.6623 132.388 78.9074 134.238 79.2852 135.988C79.7442 134.426 80.4492 132.285 80.767 130.745C96.6609 134.262 108.867 137.025 124.567 142.11C208.749 169.378 288.153 229.199 335.884 304.05C369.991 358.088 391.314 419.197 398.228 482.723C385.187 500.289 374.272 517.925 366.456 538.44C362.695 548.314 359.043 558.221 355.733 568.255C347.745 591.469 343.756 615.396 338.677 639.363C336.06 641.756 333.708 647.871 332.234 651.214C323.268 671.745 312.407 691.395 299.792 709.909C238.27 801.226 130.698 858.597 21.1787 862.654C14.1215 862.879 7.06038 862.955 0 862.882L0 848.491C34.4049 848.753 68.6731 844.134 101.781 834.773C108.183 832.95 118.244 830.015 124.002 827.083C134.04 831.072 138.362 828.685 143.407 819.533C147.525 818.218 156.206 814.136 160.228 812.155C187.131 798.902 215.224 780.86 237.096 760.247C303.996 698.034 343.489 611.826 346.911 520.533C349.005 431.4 315.277 345.148 253.275 281.079C199.431 224.83 127.962 188.697 50.7431 178.681C33.5824 176.387 17.2459 176.013 0 175.576L0 123.964L0 112.585Z"/><path fill="#43187F" d="M0 112.585C20.5181 113.264 41.0406 113.204 61.2176 117.061C63.7286 117.541 73.2763 119.551 75.2993 118.993C76.57 123.097 77.4208 126.417 78.3944 130.61C50.7849 125.493 27.7329 123.873 0 123.964L0 112.585Z"/><path fill="#F0FAFC" d="M247.999 236.298C254.707 235.761 260.598 240.721 261.211 247.422C261.825 254.123 256.932 260.071 250.238 260.76C245.84 261.214 241.537 259.268 238.973 255.666C236.409 252.064 235.978 247.361 237.846 243.354C239.714 239.346 243.591 236.651 247.999 236.298Z"/><path fill="#1087D7" d="M-2.22045e-14 217.63C80.2835 215.762 157.946 246.253 215.514 302.243C270.853 356.117 305.524 428.171 306.499 505.962C306.951 534.344 303.413 562.648 295.988 590.045C293.135 600.209 289.289 609.536 285.376 619.296C269.911 657.863 248.127 690.954 218.961 720.595C165.216 775.216 84.3143 808.241 7.9156 808.905C5.2771 808.924 2.63848 808.922 0 808.9L0 798.431L0 765.426C19.0986 765.744 36.2113 764.425 54.8397 759.78L57.4106 759.537C65.9784 758.354 78.2922 754.603 86.6135 751.975C127.413 739.091 169.702 712.724 198.247 680.621C200.534 678.032 202.052 676.129 204.109 673.349C207.39 670.088 212.287 663.718 215.263 660.039C235.349 635.209 255.863 594.303 261.87 562.796C268.213 532.368 269.298 517.836 266.969 486.626C262.659 455.683 257.113 431.627 241.969 403.615C238.44 397.526 234.926 390.211 231.249 384.342C225.402 375.007 217.941 364.239 211.172 355.536C207.612 349.153 193.815 335.371 188.086 329.864C136.807 280.573 71.0381 256.754 0 258.961L0 229.147L0 217.63L-2.22045e-14 217.63Z"/><path fill="#F0FAFC" d="M124.002 827.083C118.181 822.27 116.856 814.854 122.277 809.13C124.706 806.526 128.104 805.044 131.665 805.036C139.994 805.093 143.64 811.964 143.407 819.533C138.362 828.685 134.04 831.072 124.002 827.083Z"/><path fill="#B91D90" d="M59.0491 527.987C62.7681 533.128 77.4108 559.466 79.7577 561.164C80.2199 562.085 81.3892 563.762 80.8443 564.752C74.1451 576.916 66.1467 588.124 59.3813 600.308C58.5878 602.578 58.2698 603.175 58.8311 605.524C48.7713 604.345 28.849 605.04 17.8742 604.936C11.6008 614.809 6.0964 624.656 0 634.522L0 615.974L0 588.764L0 572.216L0 558.544C6.33437 548.631 12.4078 538.554 18.214 528.322C31.4164 528.411 45.9352 528.651 59.0491 527.987Z"/><path fill="#FA8AB4" d="M1.13687e-13 572.216C6.15475 581.544 12.1603 590.969 18.0144 600.488C18.3718 602.694 18.4658 602.846 17.8742 604.936C11.6008 614.809 6.0964 624.656 0 634.522L0 615.974L0 588.764L0 572.216L1.13687e-13 572.216Z"/><path fill="#F43487" d="M0 588.764C2.82813 593.347 5.78951 597.991 8.34918 602.718C5.64952 607.097 2.61082 611.631 0 615.974L0 588.764Z"/><path fill="#F43487" d="M18.0144 600.488C31.4829 599.847 45.8814 600.053 59.3813 600.308C58.5878 602.578 58.2698 603.175 58.8311 605.524C48.7713 604.345 28.849 605.04 17.8742 604.936C18.4658 602.846 18.3718 602.694 18.0144 600.488Z"/></svg>