<?xml version="1.0" encoding="utf-8" ?><svg xmlns="http://www.w3.org/2000/svg" xmlns:xlink="http://www.w3.org/1999/xlink" width="1024" height="1024" viewBox="0 0 1024 1024"><path fill="#05B3FC" d="M0 0L202.837 0L264.129 0L451.32 0L651.221 0L723.443 0L758.288 0L796.813 0L857.168 0L922.085 0L979.59 0L1024 0L1024 25.4937L1024 160.41L1024 207.57L1024 284.4L1024 470.99L1024 1024L517.674 1024L318.453 1024L274.741 1024C275.793 976.158 262.933 929.04 237.721 888.367C230.97 877.433 224.423 869.773 217.268 859.668L211.74 853.024C202.341 841.671 190.293 830.992 178.693 821.924C174.386 818.557 166.525 814.01 163.029 810.749C159.145 807.995 153.181 804.372 149.067 802.11C139.767 796.968 127.669 790.992 117.977 786.526C113.762 784.649 110.352 783.374 105.99 781.823C90.823 776.599 75.2314 772.702 59.3905 770.176C51.726 768.651 42.8496 768.16 34.9732 767.68C19.8912 766.773 14.167 767.948 0 768.573L0 643.144L0 539.846L0 466.305L0 0Z"/><path fill="#F0FAFC" d="M392.856 282.973C402.203 286.875 393.904 313.067 414.889 319.918L415.499 320.206C420.353 322.458 429.677 324.404 431.581 328.743C431.988 333.931 425.428 336.112 421.541 337.889C416.018 340.414 411.522 342.665 407.391 347.237C401.503 353.972 400.232 362.608 398.686 371.124C397.993 374.942 396.871 385.276 392.339 385.753C388.423 386.165 386.584 381.174 385.87 378.248C383.195 369.229 382.791 361.984 379.099 352.384C373.585 343.226 366.165 340.873 356.872 336.953C339.754 326.746 375.159 323.645 378.93 316.381C383.683 307.224 385.545 297.446 388.233 287.521C389.577 284.859 389.855 283.706 392.856 282.973Z"/><defs><linearGradient id="gradient_0" gradientUnits="userSpaceOnUse" x1="544.18329" y1="511.35193" x2="785.33063" y2="785.71747"><stop offset="0" stop-color="#0C0434"/><stop offset="1" stop-color="#1C166C"/></linearGradient></defs><path fill="url(#gradient_0)" d="M1024 207.57L1024 284.4L1024 470.99L1024 1024L517.674 1024L318.453 1024L274.741 1024C275.793 976.158 262.933 929.04 237.721 888.367C230.97 877.433 224.423 869.773 217.268 859.668C218.488 857.006 220.926 844.708 221.844 840.79C224.071 831.296 226.577 821.871 229.361 812.525C245.128 759.486 270.447 718.032 304.191 675.048C382.986 573.647 494.511 514.023 611.452 467.016C694.156 433.771 789.193 403.666 863.694 353.866C869.985 349.719 876.143 345.373 882.16 340.837C889.849 334.941 897.938 327.893 906.324 323.341C903.044 321.873 896.425 320.588 895.526 316.762C896.655 314.413 905.726 310.781 909.108 308.874C911.11 304.157 915.352 288.075 917.676 286.44C921.109 288.305 924.328 300.766 925.976 305.172C930.369 302.631 939.174 295.583 943.268 292.268C974.134 267.271 999.922 239.035 1024 207.57Z"/><path fill="#020937" d="M1024 470.99L1024 1024L517.674 1024C517.209 1017.47 518.735 1006.63 519.294 999.992C523.639 949.677 535.868 900.357 555.532 853.84C585.696 781.756 630.646 715.116 686.087 659.81C689.897 656.009 694.426 652.852 698.266 649.144C730.07 618.425 766.596 591.933 803.2 567.222C807.496 564.322 812.3 559.266 816.938 557.364C819.386 563.749 818.342 569.244 822.211 573.297C823.754 573.784 822.989 573.815 824.568 573.009C830.698 564.812 825.388 552.575 837.268 548.421C840.237 547.383 844.789 544.836 847.627 543.273C849.536 542.971 865.45 533.336 868.926 531.493C917.224 505.876 970.984 484.696 1024 470.99Z"/><path fill="#FB4995" d="M877.015 639.93C892.908 625.734 949.669 587.897 969.957 589.096C972.394 589.24 974.913 590 976.461 592.01C978.146 594.199 978.197 597.128 977.769 599.736C974.087 622.151 939.493 666.836 925.042 685.695C928.634 693.598 931.81 700.518 934.34 708.897C941.692 733.806 940.784 760.427 931.752 784.778C920.314 815.474 894.697 842.109 864.957 855.635C836.287 868.997 803.441 870.238 773.844 859.079C765.215 855.823 758.789 851.578 752.07 848.937C731.792 862.209 681.657 890.688 657.418 891.103C654.248 891.157 650.468 890.72 648.158 888.291C646.56 886.611 646.07 884.324 646.206 882.067C647.353 863.049 692.537 812.666 707.526 799.47C705.253 795.37 702.48 788.071 700.969 783.659C690.34 753.11 692.385 719.578 706.646 690.547C720.561 662.073 745.395 640.434 775.504 630.546C812.119 618.255 843.223 624.058 877.015 639.93Z"/><path fill="#F43487" d="M925.042 685.695C928.634 693.598 931.81 700.518 934.34 708.897C941.692 733.806 940.784 760.427 931.752 784.778C920.314 815.474 894.697 842.109 864.957 855.635C836.287 868.997 803.441 870.238 773.844 859.079C765.215 855.823 758.789 851.578 752.07 848.937C760.516 843.299 770.556 836.876 779.235 831.627L825.492 796.407C830.595 791.126 837.568 784.996 843.052 779.849C859.269 762.748 876.149 746.349 891.042 728.05C895.152 723 899.293 717.692 903.574 712.807C910.662 703.716 917.818 694.678 925.042 685.695Z"/><path fill="#FB4995" d="M843.052 779.849C859.269 762.748 876.149 746.349 891.042 728.05C895.152 723 899.293 717.692 903.574 712.807C911.541 731.796 911.221 754.819 903.24 773.729C896.241 790.31 881.06 808.762 866.232 818.853C874.681 806.473 876.932 792.146 862.726 781.665C856.873 777.347 849.789 778.475 843.052 779.849Z"/><path fill="#FB4995" d="M825.492 796.407C825.525 815.758 834.905 824.509 854.103 825.659C831.113 837.66 803.878 839.223 779.235 831.627L825.492 796.407Z"/><path fill="#FD9DD4" d="M877.015 639.93C892.908 625.734 949.669 587.897 969.957 589.096C972.394 589.24 974.913 590 976.461 592.01C978.146 594.199 978.197 597.128 977.769 599.736C974.087 622.151 939.493 666.836 925.042 685.695C917.818 694.678 910.662 703.716 903.574 712.807C899.293 717.692 895.152 723 891.042 728.05C876.149 746.349 859.269 762.748 843.052 779.849C837.568 784.996 830.595 791.126 825.492 796.407L779.235 831.627C770.556 836.876 760.516 843.299 752.07 848.937C731.792 862.209 681.657 890.688 657.418 891.103C654.248 891.157 650.468 890.72 648.158 888.291C646.56 886.611 646.07 884.324 646.206 882.067C647.353 863.049 692.537 812.666 707.526 799.47C709.646 798.161 713.27 794.735 715.514 792.903C718.984 791.285 725.773 783.863 726.634 783.642C723.745 788.171 718.974 793.512 717.205 798.104C715.751 799.914 711.598 804.803 710.772 806.581C719.536 820.278 728.976 829.909 740.963 840.64C746.023 838.588 760.923 829.158 765.552 826.187C767.526 825.37 778.725 817.119 781.191 815.322C813.653 791.663 842.791 763.131 869.096 732.849C878.2 722.369 887.632 711.966 896.116 700.916C901.802 694.135 912.141 682.763 916.447 675.647C907.056 662.308 897.776 654.364 885.11 644.541C878.707 646.61 877.7 648.175 869.45 649.853C871.643 645.725 873.921 643.37 877.015 639.93Z"/><path fill="#020937" d="M710.772 806.581C719.536 820.278 728.976 829.909 740.963 840.64C728.436 847.358 713.528 855.268 700.093 859.83C653.85 875.532 704.002 817.051 710.772 806.581Z"/><path fill="#020937" d="M885.11 644.541C895.666 639.101 929.125 617.364 939.49 621.029C940.887 621.523 941.983 622.486 942.617 623.83C944.513 627.848 942.586 633.354 941.022 637.224C935.13 651.801 924.765 662.669 916.447 675.647C907.056 662.308 897.776 654.364 885.11 644.541Z"/><path fill="#F43487" d="M775.504 630.546C812.119 618.255 843.223 624.058 877.015 639.93C873.921 643.37 871.643 645.725 869.45 649.853C877.7 648.175 878.707 646.61 885.11 644.541C897.776 654.364 907.056 662.308 916.447 675.647C912.141 682.763 901.802 694.135 896.116 700.916L895.422 699.54C877.664 664.469 861.189 653.886 824.739 641.927C814.051 638.306 802.928 635.895 791.873 633.752C787.627 632.929 778.739 632.326 775.504 630.546Z"/><path fill="#F43487" d="M717.205 798.104C719.934 795.334 722.456 791.529 724.436 788.172C738.807 807.748 744.737 812.907 765.552 826.187C760.923 829.158 746.023 838.588 740.963 840.64C728.976 829.909 719.536 820.278 710.772 806.581C711.598 804.803 715.751 799.914 717.205 798.104Z"/><path fill="#F43487" d="M777.133 724.59C796.442 724.124 804.41 757.833 784.125 765.102C763.583 765.829 756.021 731.52 777.133 724.59Z"/><path fill="#FD9DD4" d="M818.014 652.276C827.376 651.959 835.229 659.28 835.566 668.642C835.904 678.003 828.6 685.872 819.239 686.23C809.85 686.59 801.952 679.258 801.613 669.867C801.274 660.477 808.623 652.595 818.014 652.276Z"/><path fill="#FD9DD4" d="M841.206 706.563C858.886 705.757 863.691 733.477 846.596 739.622C827.513 740.191 823.333 712.177 841.206 706.563Z"/><path fill="#FD9DD4" d="M732.686 748.907C740.537 747.317 748.181 752.427 749.712 760.29C751.244 768.153 746.076 775.758 738.201 777.23C730.411 778.686 722.904 773.585 721.389 765.806C719.874 758.026 724.918 750.481 732.686 748.907Z"/><path fill="#FD9DD4" d="M744.699 677.01C757.821 678.651 762.299 701.682 747.308 706.828C732.823 703.241 729.956 682.854 744.699 677.01Z"/><path fill="#F0FAFC" d="M570.204 915.16C571.558 915.367 571.138 915.269 572.4 915.843C575.955 919.963 575.968 925.755 577.507 930.901C579.477 937.487 592.463 934.404 593.41 939.943C591.734 944.082 582.573 945.48 580.415 948.433C575.061 955.76 577.367 963.303 571.305 971.146C563.676 970.693 566.801 958.849 563.22 953.869C560.478 950.057 549.763 947.15 548.179 943.548C550.009 939.567 560.212 937.785 562.838 933.946C567.063 927.769 566.094 921.995 570.204 915.16Z"/><path fill="#F0FAFC" d="M960.542 906.21L962.479 906.53C965.354 908.636 965.887 913.843 967.638 917.787L967.893 918.351C970.853 920.298 978.932 922.234 979.43 925.121C977.659 927.861 972.23 929.514 969.159 930.713C965.701 935.803 964.954 941.356 962.045 947.1C961.316 947.328 961.384 947.207 960.523 947.08C958.408 945.275 956.185 935.78 955.22 932.587C950.781 931.115 946.456 930.793 943.077 927.535C943.067 927.16 943.057 926.785 943.048 926.409C945.808 924.5 951.168 922.884 953.694 920.87C958.432 917.094 957.768 911.844 960.542 906.21Z"/><path fill="#43187F" d="M814.871 920.811C820.084 919.317 825.524 922.32 827.037 927.528C828.55 932.735 825.566 938.186 820.364 939.718C815.135 941.257 809.65 938.255 808.13 933.021C806.609 927.786 809.631 922.312 814.871 920.811Z"/><path fill="#43187F" d="M952.206 834.506C957.472 834.015 962.154 837.851 962.708 843.111C963.262 848.372 959.482 853.099 954.229 853.716C950.774 854.122 947.368 852.639 945.312 849.834C943.255 847.028 942.866 843.334 944.293 840.161C945.72 836.989 948.742 834.829 952.206 834.506Z"/><path fill="#8DC0F0" d="M884.529 962.787C889.205 962.496 893.273 965.955 893.739 970.616C894.205 975.278 890.9 979.473 886.26 980.113C883.099 980.549 879.953 979.222 878.059 976.655C876.165 974.087 875.825 970.69 877.174 967.799C878.523 964.907 881.345 962.985 884.529 962.787Z"/><path fill="#05B3FC" d="M691.714 937.812C696.232 936.253 701.158 938.658 702.707 943.18C704.256 947.701 701.84 952.621 697.315 954.16C692.804 955.695 687.903 953.288 686.358 948.781C684.814 944.273 687.21 939.366 691.714 937.812Z"/><path fill="#8DC0F0" d="M977.348 736.767C980.301 736.218 983.321 737.298 985.256 739.594C987.191 741.891 987.743 745.05 986.702 747.866C985.66 750.683 983.186 752.723 980.222 753.208C975.708 753.948 971.44 750.915 970.653 746.409C969.865 741.903 972.851 737.603 977.348 736.767Z"/><path fill="#74D2F4" d="M925.372 556.387C928.21 555.555 931.276 556.347 933.356 558.449C935.437 560.551 936.198 563.624 935.338 566.454C934.478 569.284 932.136 571.414 929.237 572.003C925.01 572.861 920.857 570.235 919.82 566.048C918.784 561.86 921.232 557.6 925.372 556.387Z"/><path fill="#8E0E8E" d="M1024 207.57L1024 284.4C984.174 322.751 939.324 355.516 890.681 381.798C814.484 423.815 733.742 452.184 653.348 484.406C561.922 521.049 475.216 567.526 402.943 635.455C376.75 659.64 353.348 686.682 333.172 716.075C302.091 761.943 279.315 815.416 277.922 871.5C276.185 925.208 290.28 978.241 318.453 1024L274.741 1024C275.793 976.158 262.933 929.04 237.721 888.367C230.97 877.433 224.423 869.773 217.268 859.668C218.488 857.006 220.926 844.708 221.844 840.79C224.071 831.296 226.577 821.871 229.361 812.525C245.128 759.486 270.447 718.032 304.191 675.048C382.986 573.647 494.511 514.023 611.452 467.016C694.156 433.771 789.193 403.666 863.694 353.866C869.985 349.719 876.143 345.373 882.16 340.837C889.849 334.941 897.938 327.893 906.324 323.341C903.044 321.873 896.425 320.588 895.526 316.762C896.655 314.413 905.726 310.781 909.108 308.874C911.11 304.157 915.352 288.075 917.676 286.44C921.109 288.305 924.328 300.766 925.976 305.172C930.369 302.631 939.174 295.583 943.268 292.268C974.134 267.271 999.922 239.035 1024 207.57Z"/><path fill="#F0FAFC" d="M909.108 308.874C911.11 304.157 915.352 288.075 917.676 286.44C921.109 288.305 924.328 300.766 925.976 305.172C930.385 309.613 940.747 309.297 941.536 314.053C939.864 317.725 930.225 320.111 927.272 323.659C922.241 329.704 922.575 340.49 917.954 345.716L916.71 346.177C910.512 343.275 913.132 327.958 906.324 323.341C903.044 321.873 896.425 320.588 895.526 316.762C896.655 314.413 905.726 310.781 909.108 308.874Z"/><path fill="#F0FAFC" d="M816.938 557.364C813.028 549.059 801.485 548.504 800.421 544.293C802.321 539.576 812.327 538.622 815.246 534.687C818.484 530.322 817.303 514.86 823.682 513.881C827.237 515.565 828.728 528.126 830.492 532.42C836.459 535.734 845.431 536.489 847.627 543.273C844.789 544.836 840.237 547.383 837.268 548.421C825.388 552.575 830.698 564.812 824.568 573.009C822.989 573.815 823.754 573.784 822.211 573.297C818.342 569.244 819.386 563.749 816.938 557.364Z"/><path fill="#F0FAFC" d="M408.462 725.332C409.254 725.485 411.324 725.86 411.83 726.396C417.384 733.574 414.368 741.157 419.455 749.581C423.703 756.616 441.673 753.85 439.755 763.67C438.96 767.74 428.424 768.436 424.964 770.322C421.481 772.22 420.937 773.925 419.439 777.661C416.427 785.04 415.576 792.787 413.163 800.299C412.346 802.843 411.156 803.393 408.802 804.445C407.944 804.013 406.12 803.099 405.747 802.279C401.484 792.9 400.702 781.807 395.227 772.745C389.373 769.383 381.198 768.476 377.273 765.205L377.234 764.371C380.695 759.626 393.47 756.263 398.225 750.22C404.721 741.963 401.725 731.184 408.462 725.332Z"/><path fill="#F0FAFC" d="M650.459 546.382C651.164 546.39 652.523 546.338 653.014 546.743C656.236 549.393 658.222 560.068 659.908 564.498C663.753 567.317 666.307 567.552 670.542 569.242C686.883 575.761 663.967 581.145 661.22 584.966C656.935 590.929 657.574 599.683 654.009 606.636C645.962 608.361 648.41 595.209 644.702 589.123C640.368 582.007 632.013 582.793 629.321 577.724C629.395 572.084 639.97 570.347 643.557 565.946C647.893 560.627 646.746 551.906 650.459 546.382Z"/><path fill="#FD669C" d="M323.51 857.752C329.055 856.265 334.753 859.57 336.215 865.123C337.678 870.675 334.347 876.358 328.788 877.795C323.264 879.224 317.625 875.919 316.172 870.401C314.719 864.884 317.999 859.23 323.51 857.752Z"/><path fill="#B1AFE0" d="M595.057 670.12C609.394 668.902 612.7 682.728 597.43 687.412C580.682 690.336 579.255 672.95 595.057 670.12Z"/><path fill="#43187F" d="M550.743 570.556C556.211 569.191 561.753 572.504 563.139 577.966C564.525 583.428 561.232 588.983 555.775 590.389C550.289 591.802 544.699 588.488 543.306 582.998C541.913 577.507 545.247 571.929 550.743 570.556Z"/><path fill="#05B3FC" d="M951.171 424.758C955.973 423.187 961.137 425.819 962.687 430.629C964.237 435.438 961.581 440.59 956.764 442.118C951.979 443.636 946.867 441.001 945.327 436.222C943.787 431.444 946.399 426.32 951.171 424.758Z"/><path fill="#05B3FC" d="M495.44 636.228C499.869 635.162 504.339 637.827 505.508 642.23C506.677 646.633 504.117 651.163 499.743 652.435C496.821 653.284 493.668 652.484 491.505 650.344C489.342 648.204 488.507 645.061 489.324 642.13C490.142 639.199 492.482 636.94 495.44 636.228Z"/><path fill="#43187F" d="M416.265 915.857C417.618 917.199 419.043 920.308 419.988 922.117C422.465 922.992 424.666 924.037 427.046 925.126L419.867 929.606L417.208 935.145C412.359 930.58 415.246 929.635 406.167 925.244C408.246 924.493 410.528 923.818 412.648 923.143L416.265 915.857Z"/><path fill="#F0FAFC" d="M535.288 807.764C536.846 807.096 538.644 807.326 539.983 808.366C541.322 809.406 541.991 811.09 541.729 812.765C541.468 814.44 540.318 815.841 538.726 816.423C536.355 817.29 533.725 816.112 532.794 813.766C531.863 811.42 532.968 808.759 535.288 807.764Z"/><path fill="#F0FAFC" d="M686.2 647.342C687.364 647 688.602 647.565 689.108 648.667C689.614 649.769 689.234 651.076 688.217 651.736C687.413 652.257 686.379 652.26 685.572 651.745C684.765 651.229 684.334 650.289 684.469 649.341C684.604 648.393 685.281 647.611 686.2 647.342Z"/><path fill="#FD9DD4" d="M857.168 0L922.085 0L979.59 0L1024 0L1024 25.4937L1024 160.41L1024 207.57C999.922 239.035 974.134 267.271 943.268 292.268C939.174 295.583 930.369 302.631 925.976 305.172C924.328 300.766 921.109 288.305 917.676 286.44C915.352 288.075 911.11 304.157 909.108 308.874C905.726 310.781 896.655 314.413 895.526 316.762C896.425 320.588 903.044 321.873 906.324 323.341C897.938 327.893 889.849 334.941 882.16 340.837C876.143 345.373 869.985 349.719 863.694 353.866C789.193 403.666 694.156 433.771 611.452 467.016C494.511 514.023 382.986 573.647 304.191 675.048C270.447 718.032 245.128 759.486 229.361 812.525C226.577 821.871 224.071 831.296 221.844 840.79C220.926 844.708 218.488 857.006 217.268 859.668L211.74 853.024C202.341 841.671 190.293 830.992 178.693 821.924C174.386 818.557 166.525 814.01 163.029 810.749C159.145 807.995 153.181 804.372 149.067 802.11C139.767 796.968 127.669 790.992 117.977 786.526C113.762 784.649 110.352 783.374 105.99 781.823C113.096 669.2 160.464 565.862 245.326 490.334C304.916 437.299 371.658 411.745 445.527 385.659C472.827 376.086 499.9 365.875 526.723 355.035C538.168 350.377 549.435 345.292 560.5 339.792C577.507 331.166 597.567 320.627 613.897 311.004C666.116 280.231 711.236 239.457 752.445 195.341C804.83 139.26 837.966 73.9206 857.168 0Z"/><path fill="#43187F" d="M558.952 443.963C562.669 442.01 570.722 439.031 574.741 437.513C586.673 433.115 598.659 428.865 610.696 424.764C637.402 415.241 664.054 405.567 690.65 395.741C711.143 388.145 731.368 379.842 751.287 370.846C866.834 319.726 947.988 261.937 1024 160.41L1024 207.57C999.922 239.035 974.134 267.271 943.268 292.268C939.174 295.583 930.369 302.631 925.976 305.172C924.328 300.766 921.109 288.305 917.676 286.44C915.352 288.075 911.11 304.157 909.108 308.874C905.726 310.781 896.655 314.413 895.526 316.762C896.425 320.588 903.044 321.873 906.324 323.341C897.938 327.893 889.849 334.941 882.16 340.837C876.143 345.373 869.985 349.719 863.694 353.866C789.193 403.666 694.156 433.771 611.452 467.016C494.511 514.023 382.986 573.647 304.191 675.048C270.447 718.032 245.128 759.486 229.361 812.525C226.577 821.871 224.071 831.296 221.844 840.79C220.926 844.708 218.488 857.006 217.268 859.668L211.74 853.024C202.341 841.671 190.293 830.992 178.693 821.924C174.386 818.557 166.525 814.01 163.029 810.749C166.319 785.991 169.968 763.398 178.086 739.622C180.636 732.153 183.261 724.382 185.557 716.849L179.854 714.299C187.985 713.745 187.8 712.337 190.798 704.939C240.259 590.257 342.378 512.929 451.684 459.372C479.486 445.75 507.948 434.749 536.481 422.912C549.67 428.593 549.193 432.742 552.182 445.788C552.625 447.625 552.642 447.556 553.62 449.046C556.775 450.57 558.051 446.274 558.952 443.963Z"/><path fill="#F43487" d="M536.481 422.912C549.67 428.593 549.193 432.742 552.182 445.788C543.543 449.845 533.733 453.091 524.764 456.764C508.055 463.542 491.583 470.891 475.379 478.799C472.525 480.187 463.472 484.379 461.663 486.024C462.312 488.972 460.821 491.974 458.08 493.238C455.339 494.502 452.087 493.687 450.267 491.278L449.763 491.639C444.994 494.981 436.706 499.357 431.439 502.4C422.945 507.405 414.539 512.558 406.225 517.856C372.334 539.542 340.08 564.688 312.554 594.097C308.018 598.943 299.281 608.27 296.185 613.818C294.707 610.359 293.575 607.531 291.196 604.531C287.499 612.051 287.901 620.347 282.966 626.638C279.907 630.537 267.065 633.293 267.613 638.256C269.437 640.357 272.21 640.74 274.932 641.454C267.406 654.929 259.493 666.965 252.321 680.941C229.86 725.011 216.298 773.073 212.411 822.384C211.566 832.991 212.225 842.905 211.74 853.024C202.341 841.671 190.293 830.992 178.693 821.924C174.386 818.557 166.525 814.01 163.029 810.749C166.319 785.991 169.968 763.398 178.086 739.622C180.636 732.153 183.261 724.382 185.557 716.849L179.854 714.299C187.985 713.745 187.8 712.337 190.798 704.939C240.259 590.257 342.378 512.929 451.684 459.372C479.486 445.75 507.948 434.749 536.481 422.912Z"/><path fill="#F0FAFC" d="M450.267 491.278C448.683 489.183 448.535 486.333 449.893 484.085C451.252 481.836 453.843 480.642 456.435 481.069C459.027 481.496 461.098 483.458 461.663 486.024C462.312 488.972 460.821 491.974 458.08 493.238C455.339 494.502 452.087 493.687 450.267 491.278Z"/><path fill="#F0FAFC" d="M190.798 704.939C193.254 712.392 192.772 712.355 199.941 715.553C194.735 718.315 193.192 718.732 191.446 724.429L191.272 725.01C189.552 721.522 188.6 719.472 185.557 716.849L179.854 714.299C187.985 713.745 187.8 712.337 190.798 704.939Z"/><path fill="#F0FAFC" d="M291.196 604.531C293.575 607.531 294.707 610.359 296.185 613.818C299.492 621.592 300.827 624.566 309.41 628.105C311.837 629.105 316.008 630.286 317.938 631.759C318.857 635.606 305.331 639.741 301.682 644.262C297.18 649.837 296.83 662.011 293.683 664.837C286.523 663.869 293.083 645.268 274.932 641.454C272.21 640.74 269.437 640.357 267.613 638.256C267.065 633.293 279.907 630.537 282.966 626.638C287.901 620.347 287.499 612.051 291.196 604.531Z"/><path fill="#F43487" d="M979.59 0L1024 0L1024 25.4937L1024 160.41C947.988 261.937 866.834 319.726 751.287 370.846C731.368 379.842 711.143 388.145 690.65 395.741C664.054 405.567 637.402 415.241 610.696 424.764C598.659 428.865 586.673 433.115 574.741 437.513C570.722 439.031 562.669 442.01 558.952 443.963C558.051 446.274 556.775 450.57 553.62 449.046C552.642 447.556 552.625 447.625 552.182 445.788C549.193 432.742 549.67 428.593 536.481 422.912C534.351 421.975 533.181 421.685 532.531 419.359C533.694 416.236 544.035 413.244 546.476 409.812C549.537 405.507 550.321 400.549 551.028 395.634C551.409 392.482 551.391 388.824 555.589 389.496C557.478 390.675 557.592 391.359 558.65 393.449C564.197 390.84 574.357 387.514 580.5 385.274L620.479 370.522C647.951 360.012 674.788 347.908 700.852 334.273C791.651 286.304 874.448 209.772 926.766 121.191C949.024 82.9845 966.752 42.3128 979.59 2.84217e-14L979.59 0Z"/><path fill="#43187F" d="M979.59 0L1024 0L1024 25.4937L1023.53 26.388C1022.23 28.9332 1021.06 32.6381 1020.03 35.4053C1015.47 47.6081 1011.09 59.6786 1005.42 71.4257C978.201 127.551 941.577 178.601 897.13 222.364C893.474 226.033 868.543 249.81 865.964 250.62C865.379 252.423 863.814 253.733 861.937 253.992C849.599 265.969 825.329 283.725 810.983 293.555C780.537 314.567 748.711 333.504 715.72 350.239C704.775 355.684 693.226 360.512 682.09 365.545C654.055 378.216 625.429 389.563 596.703 400.553C588.134 403.831 579.221 407.912 570.422 410.442C561.74 407.708 560.708 401.187 558.65 393.449C564.197 390.84 574.357 387.514 580.5 385.274L620.479 370.522C647.951 360.012 674.788 347.908 700.852 334.273C791.651 286.304 874.448 209.772 926.766 121.191C949.024 82.9845 966.752 42.3128 979.59 2.84217e-14L979.59 0Z"/><path fill="#F0FAFC" d="M861.937 253.992C859.753 254.293 857.633 253.112 856.74 251.097C855.848 249.081 856.397 246.718 858.087 245.303C859.777 243.888 862.2 243.763 864.027 244.996C865.854 246.229 866.644 248.523 865.964 250.62C865.379 252.423 863.814 253.733 861.937 253.992Z"/><path fill="#F0FAFC" d="M551.028 395.634C551.409 392.482 551.391 388.824 555.589 389.496C557.478 390.675 557.592 391.359 558.65 393.449C560.708 401.187 561.74 407.708 570.422 410.442C573.473 412.049 576.71 413.58 579.395 415.719C575.397 420.771 571.731 421.809 566.447 424.625C563.325 426.289 559.92 440.499 558.952 443.963C558.051 446.274 556.775 450.57 553.62 449.046C552.642 447.556 552.625 447.625 552.182 445.788C549.193 432.742 549.67 428.593 536.481 422.912C534.351 421.975 533.181 421.685 532.531 419.359C533.694 416.236 544.035 413.244 546.476 409.812C549.537 405.507 550.321 400.549 551.028 395.634Z"/><path fill="#F0FAFC" d="M785.087 319.79C787.143 319.131 789.393 319.65 790.952 321.143C792.51 322.636 793.126 324.863 792.556 326.944C791.986 329.026 790.322 330.628 788.221 331.119C785.147 331.836 782.055 330.001 781.214 326.959C780.373 323.917 782.082 320.753 785.087 319.79Z"/><path fill="#F0FAFC" d="M1002.76 115.207C1005.15 114.42 1007.72 115.689 1008.55 118.06C1009.38 120.43 1008.15 123.025 1005.79 123.893C1004.23 124.468 1002.49 124.156 1001.22 123.078C999.955 122 999.37 120.323 999.689 118.691C1000.01 117.06 1001.18 115.728 1002.76 115.207Z"/><path fill="#087BD0" d="M857.168 0L922.085 0C918.962 9.97212 903.193 66.4606 896.195 71.3712C892.545 77.8282 891.737 86.4563 887.736 91.8039C884.773 95.7642 872.783 97.4689 872.286 103.787C873.541 107.562 879.083 108.448 882.512 109.312C855.462 153.356 829.035 183.659 792.478 219.695C741.083 270.358 687.966 306.609 623.829 339.784C562.696 371.404 496.793 388.805 433.937 416.316C411.187 426.385 387.058 437.37 365.303 449.426C329.113 469.426 295.03 493.019 263.569 519.849C181.267 590.33 127.153 676.861 117.977 786.526C113.762 784.649 110.352 783.374 105.99 781.823C113.096 669.2 160.464 565.862 245.326 490.334C304.916 437.299 371.658 411.745 445.527 385.659C472.827 376.086 499.9 365.875 526.723 355.035C538.168 350.377 549.435 345.292 560.5 339.792C577.507 331.166 597.567 320.627 613.897 311.004C666.116 280.231 711.236 239.457 752.445 195.341C804.83 139.26 837.966 73.9206 857.168 0Z"/><path fill="#F0FAFC" d="M292.118 464.844C295.471 463.88 298.973 465.801 299.962 469.145C300.952 472.49 299.057 476.007 295.72 477.021C292.347 478.047 288.785 476.128 287.785 472.747C286.785 469.366 288.73 465.818 292.118 464.844Z"/><path fill="#F0FAFC" d="M773.951 190.253C775.991 189.385 778.343 189.703 780.08 191.083C781.816 192.462 782.659 194.681 782.275 196.866C781.891 199.05 780.342 200.849 778.239 201.553C775.16 202.585 771.816 201.001 770.664 197.964C769.511 194.928 770.962 191.524 773.951 190.253Z"/><path fill="#43187F" d="M149.067 802.11C150.309 787.93 152.43 773.84 155.416 759.922C162.483 726.412 174.53 694.15 191.157 664.209C211.614 626.605 234.952 595.717 266.121 566.229C332.505 503.426 411.624 455.418 495.489 420.079L530.557 405.328C536.576 402.757 545.761 399.247 551.028 395.634C550.321 400.549 549.537 405.507 546.476 409.812C544.035 413.244 533.694 416.236 532.531 419.359C533.181 421.685 534.351 421.975 536.481 422.912C507.948 434.749 479.486 445.75 451.684 459.372C342.378 512.929 240.259 590.257 190.798 704.939C187.8 712.337 187.985 713.745 179.854 714.299L185.557 716.849C183.261 724.382 180.636 732.153 178.086 739.622C169.968 763.398 166.319 785.991 163.029 810.749C159.145 807.995 153.181 804.372 149.067 802.11Z"/><path fill="#F0FAFC" d="M896.195 71.3712C900.613 77.1995 900.618 82.7659 904.821 88.1904C907.471 91.6092 916.173 92.6776 917.896 96.3821C916.441 99.6151 906.787 105.308 903.958 109.432C901.659 112.783 898.378 125.819 895.901 127.324C892.983 125.343 889.387 114.874 888.129 111.253C886.361 110.577 884.321 109.677 882.512 109.312C879.083 108.448 873.541 107.562 872.286 103.787C872.783 97.4689 884.773 95.7642 887.736 91.8039C891.737 86.4563 892.545 77.8282 896.195 71.3712Z"/><path fill="#020937" d="M0 0L202.837 0L264.129 0L451.32 0C450.448 6.4074 448.407 38.9855 446.748 43.1186C447.289 46.3673 447.698 48.9529 445.667 51.8379C445.029 52.7456 444.305 53.5896 443.505 54.3581C443.594 60.3118 441.63 67.1876 440.256 72.9902C422.352 148.567 374.5 213.356 332.584 277.187C329.647 281.658 306.924 311.089 306.466 313.8L224.001 337.33C207.232 341.992 192.772 347.533 176.64 354.11C169.183 357.151 157.871 362.572 150.656 364.977C150.142 365.377 149.392 366.016 148.856 366.314C138.094 371.295 124.668 377.082 114.458 382.674C76.5007 403.462 29.9166 435.072 0 466.305L0 0Z"/><path fill="#150E51" d="M202.837 0L264.129 0L451.32 0C450.448 6.4074 448.407 38.9855 446.748 43.1186C447.289 46.3673 447.698 48.9529 445.667 51.8379C445.029 52.7456 444.305 53.5896 443.505 54.3581C443.594 60.3118 441.63 67.1876 440.256 72.9902C422.352 148.567 374.5 213.356 332.584 277.187C329.647 281.658 306.924 311.089 306.466 313.8L224.001 337.33C226.963 332.213 231.858 325.799 235.184 320.372C246.874 301.3 259.065 282.761 267.784 262.053C269.803 257.257 273.257 251.14 273.851 246.094C314.167 217.879 332.394 175.418 320.306 126.937C314.124 101.721 298.126 80.0195 275.867 66.6558C257.48 56.1287 239.191 51.8461 218.23 51.9878C216.997 42.7879 206.539 8.41737 202.837 0Z"/><path fill="#271D73" d="M202.837 0L264.129 0C265.358 9.83371 268.235 20.4662 269.931 30.302C272.038 42.5207 273.473 54.4819 275.867 66.6558C257.48 56.1287 239.191 51.8461 218.23 51.9878C216.997 42.7879 206.539 8.41737 202.837 0Z"/><path fill="#05B3FC" d="M443.505 54.3581C436.676 57.8306 429.741 54.7935 429.964 46.7357C430.051 44.0158 431.252 41.4511 433.285 39.6422C438.015 35.4271 443.486 39.0677 446.748 43.1186C447.289 46.3673 447.698 48.9529 445.667 51.8379C445.029 52.7456 444.305 53.5896 443.505 54.3581Z"/><path fill="#5350BE" d="M385.634 122.817C391.146 121.872 396.39 125.549 397.38 131.053C398.369 136.558 394.734 141.831 389.238 142.865C383.678 143.911 378.332 140.225 377.331 134.657C376.33 129.09 380.058 123.773 385.634 122.817Z"/><path fill="#F0FAFC" d="M363.724 63.7878C365.415 63.134 367.319 63.9569 368 65.6369C368.682 67.317 367.891 69.2335 366.223 69.9431C365.118 70.4128 363.847 70.2504 362.896 69.5184C361.945 68.7864 361.463 67.5985 361.635 66.4109C361.806 65.2233 362.605 64.2206 363.724 63.7878Z"/><path fill="#05B3FC" d="M218.23 51.9878C239.191 51.8461 257.48 56.1287 275.867 66.6558C298.126 80.0195 314.124 101.721 320.306 126.937C332.394 175.418 314.167 217.879 273.851 246.094C250.82 259.239 233.357 264.475 206.503 263.421C184.886 261.148 165.685 254.425 148.147 241.333C125.853 224.447 111.074 199.488 106.987 171.822C103.962 150.185 108.991 120.064 122.139 102.485C140.554 71.2298 177.74 54.3417 212.933 52.4349C214.302 52.1375 216.733 52.0729 218.23 51.9878Z"/><path fill="#087BD0" d="M218.23 51.9878C239.191 51.8461 257.48 56.1287 275.867 66.6558C298.126 80.0195 314.124 101.721 320.306 126.937C332.394 175.418 314.167 217.879 273.851 246.094C250.82 259.239 233.357 264.475 206.503 263.421C184.886 261.148 165.685 254.425 148.147 241.333C125.853 224.447 111.074 199.488 106.987 171.822C103.962 150.185 108.991 120.064 122.139 102.485C122.64 108.704 118.813 113.728 117.965 118.78C115.353 134.321 114.255 147.527 117.91 162.946C124.281 188.913 140.624 211.325 163.399 225.329C205.624 251.337 262.194 239.939 288.073 196.962C301.018 175.039 304.763 148.885 298.491 124.21C289.239 87.6191 260.494 61.3357 222.632 54.7508C219.431 54.194 215.557 54.4011 212.933 52.4349C214.302 52.1375 216.733 52.0729 218.23 51.9878Z"/><path fill="#087BD0" d="M265.557 160.119C284.983 160.674 282.708 197.993 260.255 204.588C239.128 203.656 242.833 163.715 265.557 160.119Z"/><path fill="#087BD0" d="M193.047 119.073C214.184 118.269 213.759 157.334 192.03 161.881C171.491 161.211 171.063 123.594 193.047 119.073Z"/><path fill="#74D2F4" d="M244.652 88.3529C252.253 87.3081 259.279 92.5788 260.401 100.169C261.524 107.759 256.326 114.838 248.747 116.038C243.776 116.826 238.764 114.883 235.623 110.949C232.481 107.016 231.695 101.698 233.563 97.0239C235.431 92.3495 239.665 89.0384 244.652 88.3529Z"/><path fill="#087BD0" d="M217.533 77.1008C221.791 76.8217 225.309 76.347 229.232 78.639C234.078 81.4705 235.577 87.4961 232.104 92.0733C229.355 95.6969 225.62 97.0371 221.238 97.7617C201.255 99.575 198.217 81.3844 217.533 77.1008Z"/><path fill="#087BD0" d="M167.364 191.565C185.683 189.862 192.003 206.98 175.211 212.938C168.287 214.458 159.726 212.72 157.273 205.18C156.464 202.743 156.708 200.079 157.947 197.83C159.989 194.183 163.574 192.689 167.364 191.565Z"/><path fill="#74D2F4" d="M176.968 75.6165C182.83 75.1855 189.069 76.6294 191.081 82.9297C191.872 85.4846 191.606 88.2495 190.345 90.6076C188.195 94.724 184.579 96.5016 180.391 97.8951C174.013 98.1815 167.761 97.0969 165.787 89.8789C165.083 87.2503 165.442 84.4503 166.786 82.0841C169.126 78.0154 172.684 76.667 176.968 75.6165Z"/><path fill="#087BD0" d="M139.009 120.503C143.972 120.174 148.058 121.214 150.587 125.969C152.182 128.944 152.434 132.458 151.279 135.631C149.922 139.317 147.544 141.128 144.115 142.68C129.452 144.777 126.956 126.286 139.009 120.503Z"/><path fill="#087BD0" d="M219.606 215.588C235.706 214.856 236.468 231.757 221.229 234.229C204.116 233.627 202.985 219.028 219.606 215.588Z"/><path fill="#087BD0" d="M271.24 95.1043C275.861 95.4698 279.538 97.3563 281.549 101.734C282.862 104.521 282.922 107.736 281.715 110.571C280.315 113.88 278.193 114.925 275.038 116.125C260.847 115.755 258.926 98.4831 271.24 95.1043Z"/><path fill="#271D73" d="M206.503 263.421C233.357 264.475 250.82 259.239 273.851 246.094C273.257 251.14 269.803 257.257 267.784 262.053C259.065 282.761 246.874 301.3 235.184 320.372C231.858 325.799 226.963 332.213 224.001 337.33C207.232 341.992 192.772 347.533 176.64 354.11C169.183 357.151 157.871 362.572 150.656 364.977C153.754 358.936 163.767 346.087 166.98 340.695C174.267 328.468 205.2 274.932 206.503 263.421Z"/><path fill="#F0FAFC" d="M48.5585 336.146C50.958 337.573 53.9151 344.952 54.3553 347.523C55.8033 355.982 68.5217 356.243 69.8639 360.722C68.2117 365.16 58.361 366.44 55.8358 371.442C53.3819 376.302 51.8396 381.686 49.0502 386.275C45.8033 385.177 43.955 374.838 41.3992 370.568C37.4892 369.216 30.5041 367.38 27.9863 364.437C27.8098 361.324 37.1691 358.393 40.1556 355.311C45.6714 349.62 45.3646 342.972 48.5585 336.146Z"/><path fill="#8DC0F0" d="M55.1358 53.2311C58.3824 52.5356 61.7693 53.3478 64.3474 55.4401C66.9255 57.5324 68.4173 60.6797 68.4048 64C68.3855 69.1251 64.8202 73.554 59.8174 74.6675C53.8865 75.9875 48.0122 72.2357 46.7157 66.2995C45.4192 60.3633 49.1944 54.5039 55.1358 53.2311Z"/><path fill="#8DC0F0" d="M79.8614 219.832C83.9074 219.014 87.847 221.642 88.6449 225.693C89.4428 229.743 86.7946 233.669 82.7406 234.447C78.715 235.219 74.822 232.593 74.0297 228.572C73.2374 224.55 75.8437 220.644 79.8614 219.832Z"/><path fill="#8DC0F0" d="M52.6625 157.854C55.6344 157.096 58.6647 158.865 59.4653 161.826C60.2658 164.787 58.5398 167.842 55.5905 168.684C53.6452 169.24 51.5514 168.705 50.111 167.284C48.6705 165.864 48.1065 163.778 48.6349 161.825C49.1633 159.872 50.7022 158.355 52.6625 157.854Z"/><path fill="#F0FAFC" d="M123.499 29.7939C125.698 29.1862 127.975 30.47 128.593 32.6663C129.212 34.8626 127.939 37.1458 125.746 37.7749C123.537 38.4084 121.235 37.125 120.612 34.9135C119.989 32.7019 121.284 30.4057 123.499 29.7939Z"/><path fill="#F0FAFC" d="M142.104 318.842C144.076 317.931 146.416 318.744 147.398 320.682C148.381 322.62 147.654 324.988 145.753 326.041C144.46 326.757 142.88 326.71 141.632 325.917C140.384 325.125 139.669 323.714 139.767 322.24C139.866 320.765 140.762 319.462 142.104 318.842Z"/><path fill="#020937" d="M451.32 0L651.221 0C648.937 9.67726 647.346 20.0773 644.457 29.5457C632.181 69.773 613.546 108.996 586.829 141.692C583.547 145.709 576.026 156.522 572.152 158.607C571.142 154.749 570.742 150.646 567.763 148.344C565.884 147.982 566.729 147.842 565.119 148.604C559.954 155.213 561.915 163.973 556.456 170.242C552.307 175.006 539.912 176.682 539.047 182.733C540.402 185.133 541.892 185.112 544.505 185.768C542.998 187.068 543.062 186.677 541.756 187.506C536.553 190.806 530.748 196.968 525.958 201.179C518.985 207.279 511.852 213.195 504.567 218.918C476.415 240.975 444.338 260.649 411.87 275.663C407.5 277.684 397.382 283.503 392.856 282.973C389.855 283.706 389.577 284.859 388.233 287.521C384.002 287.629 360.492 296.981 353.951 299.039C339.024 303.736 321.813 310.337 306.466 313.8C306.924 311.089 329.647 281.658 332.584 277.187C374.5 213.356 422.352 148.567 440.256 72.9902C441.63 67.1876 443.594 60.3118 443.505 54.3581C444.305 53.5896 445.029 52.7456 445.667 51.8379C447.698 48.9529 447.289 46.3673 446.748 43.1186C448.407 38.9855 450.448 6.4074 451.32 0Z"/><path fill="#F0FAFC" d="M507.008 54.2243C509.993 56.3631 511.303 64.7209 514.056 69.5121C517.394 70.4396 522.693 71.0265 522.708 75.1713C520.794 78.4065 517.249 79.3818 513.719 80.9253C509.925 86.5848 509.956 95.6908 504.302 98.4802C499.757 95.1818 502.077 86.7486 498.543 83.1795C496.714 81.3323 491.441 80.1661 488.331 77.7903L488.311 76.918C491.727 73.5619 496.663 72.4954 500.635 68.9052C502.888 63.6442 503.047 57.5422 507.008 54.2243Z"/><path fill="#FD9DD4" d="M451.154 172.794C455.731 171.681 460.346 174.482 461.47 179.056C462.594 183.631 459.804 188.252 455.233 189.387C450.646 190.527 446.005 187.725 444.877 183.135C443.749 178.545 446.562 173.912 451.154 172.794Z"/><path fill="#22E6F9" d="M618.33 43.8213C619.923 43.2608 621.696 43.6278 622.936 44.7749C624.176 45.922 624.68 47.661 624.245 49.2933C623.81 50.9255 622.507 52.1831 620.861 52.5608C618.505 53.1011 616.138 51.7084 615.465 49.3871C614.793 47.0657 616.05 44.6233 618.33 43.8213Z"/><path fill="#43187F" d="M306.466 313.8C321.813 310.337 339.024 303.736 353.951 299.039C360.492 296.981 384.002 287.629 388.233 287.521C385.545 297.446 383.683 307.224 378.93 316.381C375.159 323.645 339.754 326.746 356.872 336.953C332.117 342.435 307.099 351.451 283.355 360.199C211.711 386.595 157.838 419.651 105.063 474.704C82.5729 497.932 62.5057 523.39 45.1718 550.683C32.7734 570.307 21.8428 590.822 12.4693 612.058C8.3532 621.642 4.35494 634.121 0 643.144L0 539.846L0 466.305C29.9166 435.072 76.5007 403.462 114.458 382.674C124.668 377.082 138.094 371.295 148.856 366.314C149.392 366.016 150.142 365.377 150.656 364.977C157.871 362.572 169.183 357.151 176.64 354.11C192.772 347.533 207.232 341.992 224.001 337.33L306.466 313.8Z"/><path fill="#271D73" d="M0 466.305C29.9166 435.072 76.5007 403.462 114.458 382.674C124.668 377.082 138.094 371.295 148.856 366.314C145.698 371.351 141.719 376.165 138.246 381.007C130.943 391.189 123.379 400.512 115.358 410.125C99.0646 429.482 82.1802 448.333 64.729 466.652C47.0751 485.347 28.8165 503.601 12.7507 523.721C8.47506 529.076 4.26367 534.481 0 539.846L0 466.305Z"/><path fill="#271D73" d="M651.221 0L723.443 0C715.875 26.5804 706.083 52.4765 694.171 77.414C661.547 146.93 621.117 197.186 559.7 243.432C542.743 256.2 525.37 268.075 506.826 278.449C488.306 288.82 469.207 298.124 449.624 306.314C443.68 308.76 437.69 311.094 431.658 313.315C425.798 315.457 420.419 317.016 414.889 319.918C393.904 313.067 402.203 286.875 392.856 282.973C397.382 283.503 407.5 277.684 411.87 275.663C444.338 260.649 476.415 240.975 504.567 218.918C511.852 213.195 518.985 207.279 525.958 201.179C530.748 196.968 536.553 190.806 541.756 187.506C543.062 186.677 542.998 187.068 544.505 185.768C541.892 185.112 540.402 185.133 539.047 182.733C539.912 176.682 552.307 175.006 556.456 170.242C561.915 163.973 559.954 155.213 565.119 148.604C566.729 147.842 565.884 147.982 567.763 148.344C570.742 150.646 571.142 154.749 572.152 158.607C576.026 156.522 583.547 145.709 586.829 141.692C613.546 108.996 632.181 69.773 644.457 29.5457C647.346 20.0773 648.937 9.67726 651.221 0Z"/><path fill="#F0FAFC" d="M544.505 185.768C541.892 185.112 540.402 185.133 539.047 182.733C539.912 176.682 552.307 175.006 556.456 170.242C561.915 163.973 559.954 155.213 565.119 148.604C566.729 147.842 565.884 147.982 567.763 148.344C570.742 150.646 571.142 154.749 572.152 158.607C573.241 161.796 574.59 166.155 576.063 169.072C580.644 171.678 591.898 173.148 594.243 176.82C593.728 178.553 592.46 179.722 590.816 180.384C581.049 184.313 574.708 187.68 571.435 198.486C570.248 202.404 569.173 214.406 563.995 213.537C558.35 209.732 561.745 193.484 555.075 188.817C552.921 187.31 547.082 186.103 544.505 185.768Z"/><path fill="#05B3FC" d="M356.872 336.953C366.165 340.873 373.585 343.226 379.099 352.384C363.59 358.065 347.546 362.072 331.491 367.966C277.918 387.146 228.101 415.525 184.282 451.827C172.427 461.805 161.336 472.674 150.34 483.569C148.879 485.018 147.163 487.139 145.7 488.434C144.952 485.432 144.536 479.96 140.651 480.696C136.409 484.34 133.912 496.523 131.336 502.261C129.125 503.982 117.36 517.994 115.895 520.529C116.306 521.317 116.161 521.152 116.365 521.33C112.218 523.204 103.927 525.35 102.051 528.184C101.806 531.621 104.811 532.65 107.552 534.17C58.5853 607.92 34.6551 679.35 34.9732 767.68C19.8912 766.773 14.167 767.948 0 768.573L0 643.144C4.35494 634.121 8.3532 621.642 12.4693 612.058C21.8428 590.822 32.7734 570.307 45.1718 550.683C62.5057 523.39 82.5729 497.932 105.063 474.704C157.838 419.651 211.711 386.595 283.355 360.199C307.099 351.451 332.117 342.435 356.872 336.953Z"/><path fill="#05B3FC" d="M723.443 0L758.288 0C753.565 20.6204 747.684 40.9582 740.671 60.9165C738.403 67.3751 735.7 73.3752 733.365 79.672C735.761 80.1474 738.245 80.3538 740.107 81.7878C740.997 83.3628 740.879 82.5447 740.43 84.3298C737.823 87.1901 732.537 89.3437 728.927 91.7457C727.812 95.1614 724.158 104.594 721.898 107.141C721.043 111.27 721.23 115.818 716.457 116.389C716.327 116.518 716.197 116.648 716.067 116.777C702.046 143.34 685.122 168.047 665.629 190.923C648.67 210.926 629.948 229.365 609.687 246.016C559.142 287.217 474.078 330.967 407.9 347.207C407.73 347.217 407.56 347.227 407.391 347.237C411.522 342.665 416.018 340.414 421.541 337.889C425.428 336.112 431.988 333.931 431.581 328.743C429.677 324.404 420.353 322.458 415.499 320.206L414.889 319.918C420.419 317.016 425.798 315.457 431.658 313.315C437.69 311.094 443.68 308.76 449.624 306.314C469.207 298.124 488.306 288.82 506.826 278.449C525.37 268.075 542.743 256.2 559.7 243.432C621.117 197.186 661.547 146.93 694.171 77.414C706.083 52.4765 715.875 26.5804 723.443 0Z"/><path fill="#F0FAFC" d="M716.457 116.389L716.153 115.768C713.332 110.1 712.835 102.977 709.49 96.7114C705.199 88.6736 696.702 91.844 694.626 87.7728C695.474 86.3196 700.825 84.1821 702.646 83.256C712.807 78.0872 711.994 69.4381 715.163 60.0173C715.699 58.4231 716.038 58.2749 717.241 57.6507C723.794 58.8084 723.097 74.2742 733.365 79.672C735.761 80.1474 738.245 80.3538 740.107 81.7878C740.997 83.3628 740.879 82.5447 740.43 84.3298C737.823 87.1901 732.537 89.3437 728.927 91.7457C727.812 95.1614 724.158 104.594 721.898 107.141C721.043 111.27 721.23 115.818 716.457 116.389Z"/><path fill="#05B3FC" d="M728.927 91.7457C727.812 95.1614 724.158 104.594 721.898 107.141C721.997 103.07 723.065 99.0254 724.314 95.1718C725.763 93.8752 727.331 92.8553 728.927 91.7457Z"/><path fill="#F0FAFC" d="M582.214 253.903C583.934 253.467 585.687 254.486 586.158 256.197C586.629 257.907 585.645 259.68 583.945 260.186C582.813 260.522 581.589 260.221 580.743 259.398C579.898 258.575 579.563 257.359 579.868 256.219C580.173 255.079 581.071 254.193 582.214 253.903Z"/><path fill="#087BD0" d="M758.288 0L796.813 0C786.151 41.9401 771.001 94.079 746.959 130.673C673.061 243.157 559.256 329.84 428.343 363.855C418.571 366.401 409.217 369.505 399.494 371.891L398.686 371.124C400.232 362.608 401.503 353.972 407.391 347.237C407.56 347.227 407.73 347.217 407.9 347.207C474.078 330.967 559.142 287.217 609.687 246.016C629.948 229.365 648.67 210.926 665.629 190.923C685.122 168.047 702.046 143.34 716.067 116.777C716.197 116.648 716.327 116.518 716.457 116.389C721.23 115.818 721.043 111.27 721.898 107.141C724.158 104.594 727.812 95.1614 728.927 91.7457C732.537 89.3437 737.823 87.1901 740.43 84.3298C740.879 82.5447 740.997 83.3628 740.107 81.7878C738.245 80.3538 735.761 80.1474 733.365 79.672C735.7 73.3752 738.403 67.3751 740.671 60.9165C747.684 40.9582 753.565 20.6204 758.288 0Z"/><path fill="#F0FAFC" d="M502.274 313.777C504.454 313.307 506.717 314.046 508.2 315.711C509.682 317.376 510.155 319.709 509.437 321.82C508.719 323.931 506.921 325.492 504.731 325.907C501.402 326.539 498.184 324.376 497.512 321.055C496.839 317.735 498.962 314.49 502.274 313.777Z"/><path fill="#087BD0" d="M379.099 352.384C382.791 361.984 383.195 369.229 385.87 378.248C373.242 380.611 353.168 388.423 340.949 393.035C284.911 414.189 234.675 443.796 191.443 485.623C183.129 493.667 171.085 505.694 164.515 515.203C164.274 515.552 164.037 515.905 163.806 516.261C161.003 515.196 157.218 514.089 154.298 513.144C151.586 506.852 148.025 495.298 145.7 488.434C147.163 487.139 148.879 485.018 150.34 483.569C161.336 472.674 172.427 461.805 184.282 451.827C228.101 415.525 277.918 387.146 331.491 367.966C347.546 362.072 363.59 358.065 379.099 352.384Z"/><path fill="#087BD0" d="M107.552 534.17C112.742 536.867 119.869 540.392 125.122 543.203C125.613 543.466 126.026 544.621 126.279 545.205C118.658 558.564 110.939 570.581 104.291 584.595C77.3945 641.294 59.4093 707.249 59.3905 770.176C51.726 768.651 42.8496 768.16 34.9732 767.68C34.6551 679.35 58.5853 607.92 107.552 534.17Z"/><path fill="#F0FAFC" d="M131.336 502.261C133.912 496.523 136.409 484.34 140.651 480.696C144.536 479.96 144.952 485.432 145.7 488.434C148.025 495.298 151.586 506.852 154.298 513.144C157.218 514.089 161.003 515.196 163.806 516.261C167.741 517.57 176.303 519.387 178.663 521.722C179.574 524.496 178.137 526.091 175.875 527.656C169.492 532.071 162.378 535.551 156.019 540.007L155.714 540.742C153.173 546.96 147.651 572.969 143.309 575.289C142.567 575.686 142.042 575.406 141.26 575.27C137.345 572.346 128.955 551.06 126.279 545.205C126.026 544.621 125.613 543.466 125.122 543.203C119.869 540.392 112.742 536.867 107.552 534.17C104.811 532.65 101.806 531.621 102.051 528.184C103.927 525.35 112.218 523.204 116.365 521.33C116.161 521.152 116.306 521.317 115.895 520.529C117.36 517.994 129.125 503.982 131.336 502.261Z"/><path fill="#087BD0" d="M116.365 521.33C116.161 521.152 116.306 521.317 115.895 520.529C117.36 517.994 129.125 503.982 131.336 502.261C129.511 507.38 127.73 512.629 125.597 517.618L116.365 521.33Z"/><path fill="#F0FAFC" d="M562.367 318.807C564.396 318.515 566.426 319.342 567.672 320.971C568.918 322.599 569.187 324.774 568.374 326.657C567.562 328.539 565.795 329.836 563.755 330.046C560.688 330.363 557.931 328.167 557.553 325.107C557.175 322.047 559.315 319.247 562.367 318.807Z"/><path fill="#F0FAFC" d="M732.117 166.325C735.082 165.681 738.011 167.551 738.674 170.512C739.338 173.473 737.486 176.414 734.53 177.097C731.546 177.785 728.572 175.913 727.902 172.925C727.233 169.937 729.124 166.975 732.117 166.325Z"/><path fill="#F0FAFC" d="M801.701 48.1458C803.653 47.7714 805.652 48.4988 806.907 50.0395C808.162 51.5803 808.47 53.6857 807.709 55.5213C806.948 57.3569 805.24 58.6263 803.263 58.8264C800.387 59.1175 797.791 57.0932 797.373 54.2331C796.955 51.3729 798.862 48.6903 801.701 48.1458Z"/><path fill="#F0FAFC" d="M214.112 494.197C216.428 493.764 218.681 495.21 219.252 497.497C219.824 499.783 218.516 502.119 216.269 502.827C214.689 503.325 212.964 502.905 211.789 501.738C210.614 500.571 210.183 498.848 210.671 497.265C211.158 495.682 212.484 494.501 214.112 494.197Z"/><path fill="#F0FAFC" d="M116.323 625.741C117.775 625.186 119.416 625.486 120.578 626.52C121.74 627.553 122.23 629.147 121.848 630.655C121.467 632.162 120.277 633.332 118.764 633.688C116.629 634.19 114.471 632.952 113.828 630.856C113.184 628.76 114.275 626.524 116.323 625.741Z"/><path fill="#FB4995" d="M0 768.573C14.167 767.948 19.8912 766.773 34.9732 767.68C42.8496 768.16 51.726 768.651 59.3905 770.176C75.2314 772.702 90.823 776.599 105.99 781.823C110.352 783.374 113.762 784.649 117.977 786.526C127.669 790.992 139.767 796.968 149.067 802.11C153.181 804.372 159.145 807.995 163.029 810.749C166.525 814.01 174.386 818.557 178.693 821.924C190.293 830.992 202.341 841.671 211.74 853.024L217.268 859.668C224.423 869.773 230.97 877.433 237.721 888.367C262.933 929.04 275.793 976.158 274.741 1024L108.062 1024L0 1024L0 917.848L0 768.573Z"/><path fill="#F43487" d="M0 917.848C25.6078 920.084 52.8216 933.308 71.2318 951.02C88.7224 967.848 99.0769 987.965 105.582 1011.13C106.5 1014.36 109.008 1020.82 108.062 1024L0 1024L0 917.848Z"/><path fill="#F43487" d="M161.932 909.557C178.295 907.829 194.037 916.34 201.55 930.978C209.064 945.617 206.803 963.369 195.86 975.656C184.026 988.945 164.814 992.772 148.792 985.032C132.769 977.293 123.823 959.865 126.875 942.335C129.927 924.805 144.237 911.426 161.932 909.557Z"/><path fill="#B91D90" d="M161.932 909.557C178.295 907.829 194.037 916.34 201.55 930.978C209.064 945.617 206.803 963.369 195.86 975.656C202.78 960.893 205.196 948.963 198.47 933.122C193.839 922.887 184.37 914.283 173.356 911.647C169.983 910.84 164.564 910.754 161.932 909.557Z"/><path fill="#F43487" d="M100.602 879.845C96.4188 883.156 88.4824 882.391 83.7365 880.613C78.097 878.555 73.5642 874.25 71.2199 868.723C66.1784 856.791 72.7986 843.389 84.4142 838.441C86.436 837.579 91.1002 836.506 93.1679 837.362C99.4812 837.978 104.873 840.606 108.955 845.531C112.734 850.063 114.536 855.922 113.96 861.794C113.37 867.928 110.237 873.533 105.321 877.249C103.996 878.252 102.156 879.232 100.602 879.845Z"/><path fill="#B91D90" d="M93.1679 837.362C99.4812 837.978 104.873 840.606 108.955 845.531C112.734 850.063 114.536 855.922 113.96 861.794C113.37 867.928 110.237 873.533 105.321 877.249C103.996 878.252 102.156 879.232 100.602 879.845C101.724 877.948 104.292 876.311 105.803 874.371C113.385 864.641 110.404 847.665 99.8509 841.238C97.7829 839.978 94.7655 839.159 93.1679 837.362Z"/></svg>