<?xml version="1.0" encoding="utf-8" ?><svg xmlns="http://www.w3.org/2000/svg" xmlns:xlink="http://www.w3.org/1999/xlink" width="1024" height="1024" viewBox="0 0 1024 1024"><path fill="#020937" d="M0 0L272.947 0L470.049 0L558.067 0L601.209 0L667.129 0L806.182 0L1024 0L1024 665.627L1024 714.061L1024 741.519L1024 906.548L1024 944.016L1024 996.303L1024 1024L942.299 1024L722.398 1024L296.291 1024L80.6114 1024L0 1024L0 996.113L0 943.603L0 906.095L0 741.602L0 713.681L0 665.212L0 0Z"/><path fill="#5591F4" d="M512.544 200.349L515.979 200.75L516.527 206.674C516.612 211.446 516.724 216.218 516.864 220.989C517.084 228.143 517.693 237.445 517.489 244.394C518.115 250.965 518.545 259.92 518.536 266.474L519.384 296.378C519.746 313.737 519.67 332.767 520.411 349.915L520.362 350.273C518.175 350.464 510.698 354.523 507.545 355.659C507.478 353.172 507.615 350.689 507.725 348.204C508.357 333.918 508.63 319.626 508.95 305.33L510.008 271.256C510.139 264.681 510.326 258.107 510.568 251.534C511.437 243.241 511.439 230.5 511.697 221.898C511.904 220.966 512.174 209.316 512.23 207.592L512.544 200.349Z"/><path fill="#07BCEF" d="M497.17 592.029C506.976 592.022 517.079 591.89 526.862 592.101L527.012 592.404C596.07 593.083 665.072 596.517 733.856 602.696C767.273 606.238 800.584 610.714 833.751 616.12C898.28 626.745 962.892 642.028 1024 665.627L1024 714.061L1024 741.519L1024 906.548L1024 944.016L1024 996.303L1024 1024L942.299 1024L722.398 1024L296.291 1024L80.6114 1024L0 1024L0 996.113L0 943.603L0 906.095L0 741.602L0 713.681L0 665.212C17.5339 658.312 34.005 653.796 52.0439 648.645C85.9785 638.976 120.287 630.672 154.887 623.753C170.484 620.696 187.113 618.212 202.898 615.388C291.029 601.899 379.973 594.4 469.119 592.943C478.304 592.852 487.519 592.397 496.687 592.489L497.17 592.029Z"/><path fill="#F43487" d="M495.801 660.498C504.754 661.443 519.389 660.725 528.839 660.837C621.991 661.272 721.641 671.286 811.913 694.663C845.744 702.898 877.963 714.13 909.345 729.187C940.974 744.362 995.345 775.292 973.225 817.922C957.723 847.798 910.844 869.372 880.343 880.007C730.15 932.376 566.267 937.27 408.802 930.393C401.575 930.078 394.283 929.457 387.048 929.125C304.798 921.959 221.944 910.719 144.284 881.44C16.1384 833.567 11.9651 766.665 142.552 716.891C240.181 679.76 346.349 666.787 450.151 662.141C464.983 661.477 480.099 660.739 494.937 660.578L495.801 660.498Z"/><path fill="#FC6DB4" d="M494.004 692.953L529.58 692.502C530.326 704.74 530.539 717.553 531.155 729.951L531.435 730.11C554.203 731.032 576.935 731.896 599.607 734.354C657.217 740.598 764.279 760.474 804.583 804.277C812.717 813.116 817.744 823.276 817.114 835.526C816.505 847.352 808.715 858.322 800.151 865.947C787.533 877.181 771.322 885.627 755.574 891.493C748.865 893.992 741.063 895.617 735.059 899.574L734.567 899.639C726.013 900.837 715.772 903.531 707.05 905.141C692.523 907.753 677.912 909.879 663.244 911.517C564.678 922.89 465.144 923.102 366.53 912.148C347.951 909.966 329.227 907.828 310.903 904.021C307.954 903.408 299.129 901.559 296.603 900.616C290.071 897.736 282.438 896.229 275.635 893.901C259.896 888.514 243.866 880.302 230.502 870.318C219.979 862.456 209.611 850.751 207.738 837.266C206.245 826.523 210.111 815.734 216.648 807.292C252.075 761.545 367.205 739.801 423.011 734.192C439.763 732.508 456.627 731.546 473.431 730.546C479.742 730.17 486.345 730.58 492.588 729.726C492.723 729.707 492.858 729.686 492.993 729.666C493.75 718.175 492.787 703.628 494.004 692.953Z"/><path fill="#F4A6CB" d="M494.004 692.953L529.58 692.502C530.326 704.74 530.539 717.553 531.155 729.951L531.435 730.11C531.646 744.646 531.976 759.179 532.425 773.709C550.232 775.452 568.234 775.545 586.085 777.322C620.459 780.744 712.724 794.144 735.955 822.133C739.404 826.288 741.774 831.35 741.207 836.858C740.466 844.056 735.008 849.937 729.548 854.204C723.347 859.048 698.63 871.988 691.31 871.158C690.731 871.092 690.516 870.904 689.989 870.625C677.751 877.11 645.58 882.376 631.664 884.505C589.807 890.907 546.954 892.904 504.644 892.604C460.979 892.293 417.155 890.244 374.153 882.135C360.063 879.477 343.963 876.43 331.11 870.154C330.844 870.188 330.58 870.231 330.313 870.256C321.47 871.065 297.88 859.149 291.055 853.04C286.325 848.806 282.552 843.031 282.336 836.525C282.124 830.133 285.614 824.418 289.954 819.997C324.765 784.531 444.32 773.911 492.555 773.485C492.403 759.355 492.788 744.072 493.091 729.909L492.993 729.666C493.75 718.175 492.787 703.628 494.004 692.953Z"/><path fill="#F0FAFC" d="M491.13 821.559C506.029 821.074 519.047 820.671 534.013 821.454C578.716 824.069 624.531 827.439 667.649 841.123C674.676 843.353 709.323 854.72 696.414 866.743C695.139 867.93 691.496 869.466 689.989 870.625C677.751 877.11 645.58 882.376 631.664 884.505C589.807 890.907 546.954 892.904 504.644 892.604C460.979 892.293 417.155 890.244 374.153 882.135C360.063 879.477 343.963 876.43 331.11 870.154C328.579 868.304 324.659 866.101 324.217 862.68C323.963 860.715 325.07 859.065 326.314 857.681C351.78 829.336 453.107 823.522 491.13 821.559Z"/><path fill="#F4C9DE" d="M492.382 773.352C506.51 772.843 518.826 773.588 532.499 773.484C532.785 788.458 534.134 807.117 534.013 821.454C519.047 820.671 506.029 821.074 491.13 821.559C492.1 805.818 491.795 789.18 492.382 773.352Z"/><path fill="#F587D8" d="M494.004 692.953L529.58 692.502C530.326 704.74 530.539 717.553 531.155 729.951C524.145 730.114 497.445 728.859 493.091 729.909L492.993 729.666C493.75 718.175 492.787 703.628 494.004 692.953Z"/><path fill="#FB4995" d="M493.941 692.678L494.004 692.953C492.787 703.628 493.75 718.175 492.993 729.666C492.858 729.686 492.723 729.707 492.588 729.726C486.345 730.58 479.742 730.17 473.431 730.546C456.627 731.546 439.763 732.508 423.011 734.192C367.205 739.801 252.075 761.545 216.648 807.292C210.111 815.734 206.245 826.523 207.738 837.266C209.611 850.751 219.979 862.456 230.502 870.318C243.866 880.302 259.896 888.514 275.635 893.901C282.438 896.229 290.071 897.736 296.603 900.616C292.095 901.216 279.934 898.161 274.693 897.139C232.238 888.857 182.023 876.37 145.505 852.516C133.949 844.967 118.773 829.593 116.556 815.447C114.979 805.39 118.33 793.843 124.529 786.061C160.955 740.341 260.571 717.444 315.299 708.077C349.685 702.381 384.32 698.31 419.09 695.877C435.513 694.681 451.958 693.825 468.417 693.311C474.796 693.136 488.257 693.746 493.941 692.678Z"/><path fill="#FB4995" d="M529.58 692.502C550.995 693.291 572.913 693.261 594.249 694.722C654.459 698.908 717.278 706.205 775.436 722.951C815.113 734.375 862.172 750.01 892.045 779.42C912.441 799.499 908.257 826.879 887.053 844.482C852.096 873.503 803.8 885.361 760.313 894.894C754.71 896.086 740.147 899.203 735.059 899.574C741.063 895.617 748.865 893.992 755.574 891.493C771.322 885.627 787.533 877.181 800.151 865.947C808.715 858.322 816.505 847.352 817.114 835.526C817.744 823.276 812.717 813.116 804.583 804.277C764.279 760.474 657.217 740.598 599.607 734.354C576.935 731.896 554.203 731.032 531.435 730.11L531.155 729.951C530.539 717.553 530.326 704.74 529.58 692.502Z"/><path fill="#FC6DB4" d="M495.801 660.498C504.754 661.443 519.389 660.725 528.839 660.837C529.02 671.394 529.268 681.949 529.58 692.502L494.004 692.953L493.941 692.678C494.106 688.792 495.867 662.377 494.937 660.578L495.801 660.498Z"/><path fill="#05B3FC" d="M0 906.095C50.0895 938.941 101.917 955.418 159.413 969.852C260.942 995.342 364.479 1005.12 468.912 1007.55C560.267 1010.38 651.697 1005.43 742.212 992.75C763.831 989.615 785.536 986.857 806.917 982.104C828.458 977.316 850.132 973.371 871.555 967.805C909.469 957.955 947.542 944.994 983.328 928.974C997.229 922.751 1010.99 914.298 1024 906.548L1024 944.016L1024 996.303L1024 1024L942.299 1024L722.398 1024L296.291 1024L80.6114 1024L0 1024L0 996.113L0 943.603L0 906.095Z"/><path fill="#07BCEF" d="M1024 944.016L1024 996.303L1024 1024L942.299 1024L722.398 1024C729.024 1022.01 747.569 1019.82 754.742 1018.84C771.255 1016.65 787.722 1014.13 804.131 1011.28C868.085 1000.5 935.81 983.733 995.763 958.172C1004.95 954.254 1015.03 948.654 1024 944.016Z"/><path fill="#05B3FC" d="M1024 996.303L1024 1024L942.299 1024C948.308 1021.33 965.039 1016.73 972.455 1014.43C989.9 1009.17 1007.1 1003.12 1024 996.303Z"/><path fill="#07BCEF" d="M0 943.603C63.4737 979.78 155.202 1001.09 226.906 1013.27C240.881 1015.64 255.648 1017.33 269.713 1019.37C276.451 1020.35 290.269 1021.71 296.291 1024L80.6114 1024L0 1024L0 996.113L0 943.603Z"/><path fill="#05B3FC" d="M0 996.113C8.7382 999.53 17.2216 1003.32 26.0421 1006.59C43.9554 1013.23 62.5285 1018.01 80.6114 1024L0 1024L0 996.113Z"/><path fill="#07BCEF" d="M527.012 592.404C596.07 593.083 665.072 596.517 733.856 602.696C767.273 606.238 800.584 610.714 833.751 616.12C898.28 626.745 962.892 642.028 1024 665.627L1024 714.061C1021.83 713.042 1018.43 710.575 1016.3 709.241C968.855 679.517 910.154 660.684 856.499 647.011C796.881 631.968 736.215 621.434 675.015 615.5C651.625 613.322 628.186 611.71 604.719 610.664C579.81 609.33 552.393 607.907 527.431 608.064C527.421 604.283 527.481 600.753 527.073 596.987L527.012 592.404Z"/><path fill="#07BCEF" d="M202.898 615.388C291.029 601.899 379.973 594.4 469.119 592.943C478.304 592.852 487.519 592.397 496.687 592.489L496.894 593.718C496.313 597.367 496.5 604.173 496.509 608.081C473.578 608.289 450.654 608.989 427.753 610.18C292.437 616.772 116.91 643.511 0 713.681L0 665.212C17.5339 658.312 34.005 653.796 52.0439 648.645C85.9785 638.976 120.287 630.672 154.887 623.753C170.484 620.696 187.113 618.212 202.898 615.388Z"/><path fill="#05B3FC" d="M527.431 608.064C552.393 607.907 579.81 609.33 604.719 610.664C628.186 611.71 651.625 613.322 675.015 615.5C736.215 621.434 796.881 631.968 856.499 647.011C910.154 660.684 968.855 679.517 1016.3 709.241C1018.43 710.575 1021.83 713.042 1024 714.061L1024 741.519C1021.22 739.788 1015.98 735.138 1013.17 732.952C1006.14 727.284 998.598 721.827 990.835 717.269C961.271 699.819 930.497 687.319 898.203 675.973C867.811 665.296 836.332 657.446 804.824 650.789C754.456 640.157 703.458 632.761 652.144 628.646C622.652 626.464 593.132 624.675 563.592 623.277C551.637 622.749 539.468 622.803 527.586 622.1C527.349 617.818 527.462 612.43 527.431 608.064Z"/><path fill="#05B3FC" d="M0 713.681C116.91 643.511 292.437 616.772 427.753 610.18C450.654 608.989 473.578 608.289 496.509 608.081L496.34 622.034L496.141 622.051C475.211 621.477 448.26 623.69 427.326 624.831C392.995 626.678 358.741 629.74 324.627 634.01C310.606 635.689 295.348 637.081 281.359 639.6C193.301 655.458 102.453 675.298 25.161 722.363C16.5709 727.594 7.64399 735.195 0 741.602L0 713.681Z"/><path fill="#BFDCF5" d="M497.17 592.029C506.976 592.022 517.079 591.89 526.862 592.101L527.012 592.404L527.073 596.987C527.481 600.753 527.421 604.283 527.431 608.064C527.462 612.43 527.349 617.818 527.586 622.1L527.499 622.34C528.062 633.363 527.65 650.954 528.839 660.837C519.389 660.725 504.754 661.443 495.801 660.498C496.386 650.549 496.277 632.125 496.141 622.051L496.34 622.034L496.509 608.081C496.5 604.173 496.313 597.367 496.894 593.718L496.687 592.489L497.17 592.029Z"/><path fill="#BFDCF5" d="M497.17 592.029C506.976 592.022 517.079 591.89 526.862 592.101L527.012 592.404L527.073 596.987C527.481 600.753 527.421 604.283 527.431 608.064C527.462 612.43 527.349 617.818 527.586 622.1L527.499 622.34C524.729 621.418 500.748 622.011 496.34 622.034L496.509 608.081C496.5 604.173 496.313 597.367 496.894 593.718L496.687 592.489L497.17 592.029Z"/><path fill="#A0C4F2" d="M496.509 608.081C496.5 604.173 496.313 597.367 496.894 593.718C497.229 598.206 496.963 603.57 496.856 608.135C506.889 608.287 516.924 608.31 526.957 608.203C526.935 605.048 526.759 599.96 527.073 596.987C527.481 600.753 527.421 604.283 527.431 608.064C527.462 612.43 527.349 617.818 527.586 622.1L527.499 622.34C524.729 621.418 500.748 622.011 496.34 622.034L496.509 608.081Z"/><path fill="#020937" d="M0 0L272.947 0C231.37 73.1551 318.536 149.079 375.733 180.782C383.948 185.336 418.36 202.461 426.36 203.219C449.729 210.981 473.492 217.953 498.149 219.991C501.188 220.242 510.499 219.55 511.697 221.898C511.439 230.5 511.437 243.241 510.568 251.534C510.326 258.107 510.139 264.681 510.008 271.256L508.95 305.33C508.63 319.626 508.357 333.918 507.725 348.204C507.615 350.689 507.478 353.172 507.545 355.659C510.698 354.523 518.175 350.464 520.362 350.273C520.527 354.942 521.046 362.044 520.992 366.424C521.082 368.007 521.145 369.588 521.32 371.163C521.768 384.695 522.148 398.229 522.459 411.765C522.477 422.451 522.66 433.136 523.007 443.816C516.817 449.54 509.362 454.481 502.072 458.682L502.001 459.405C500.042 460.419 495.802 462.741 493.939 463.393C496.024 466.032 498.793 469.567 501.485 471.609L501.579 471.917C501.127 479.669 500.629 487.418 500.087 495.165L498.846 540.312L497.917 576.443C497.764 580.866 497.688 587.794 497.17 592.029L496.687 592.489C487.519 592.397 478.304 592.852 469.119 592.943C379.973 594.4 291.029 601.899 202.898 615.388C187.113 618.212 170.484 620.696 154.887 623.753C120.287 630.672 85.9785 638.976 52.0439 648.645C34.005 653.796 17.5339 658.312 0 665.212L0 0Z"/><path fill="#0C0166" d="M202.898 615.388C201.994 610.63 194.533 597.088 192.155 592.125C188.712 584.885 185.963 577.335 183.943 569.577C174.669 533.243 181.564 487.049 201.519 455.058C257.434 367.683 359.429 315.975 451.668 275.547C465.82 269.345 497.059 254.936 510.568 251.534C510.326 258.107 510.139 264.681 510.008 271.256L508.95 305.33C508.63 319.626 508.357 333.918 507.725 348.204C507.615 350.689 507.478 353.172 507.545 355.659C510.698 354.523 518.175 350.464 520.362 350.273C520.527 354.942 521.046 362.044 520.992 366.424C521.082 368.007 521.145 369.588 521.32 371.163C521.768 384.695 522.148 398.229 522.459 411.765C522.477 422.451 522.66 433.136 523.007 443.816C516.817 449.54 509.362 454.481 502.072 458.682L502.001 459.405C500.042 460.419 495.802 462.741 493.939 463.393C496.024 466.032 498.793 469.567 501.485 471.609L501.579 471.917C501.127 479.669 500.629 487.418 500.087 495.165L498.846 540.312L497.917 576.443C497.764 580.866 497.688 587.794 497.17 592.029L496.687 592.489C487.519 592.397 478.304 592.852 469.119 592.943C379.973 594.4 291.029 601.899 202.898 615.388Z"/><path fill="#020937" d="M510.008 271.256L508.95 305.33C508.63 319.626 508.357 333.918 507.725 348.204C507.615 350.689 507.478 353.172 507.545 355.659C510.698 354.523 518.175 350.464 520.362 350.273C520.527 354.942 521.046 362.044 520.992 366.424C521.082 368.007 521.145 369.588 521.32 371.163C521.768 384.695 522.148 398.229 522.459 411.765C522.477 422.451 522.66 433.136 523.007 443.816C516.817 449.54 509.362 454.481 502.072 458.682L502.001 459.405C500.042 460.419 495.802 462.741 493.939 463.393C496.024 466.032 498.793 469.567 501.485 471.609L501.579 471.917C501.127 479.669 500.629 487.418 500.087 495.165L498.846 540.312C492.442 541.823 486.64 543.941 479.945 545.367C456.488 550.26 432.275 550.27 408.814 545.395C385.521 540.469 363.868 530.751 350.255 510.119C338.255 491.754 337.711 465.117 342.61 444.232C362.033 361.431 444.499 313.025 510.008 271.256Z"/><path fill="#0C0166" d="M422.93 386.455C423.559 385.092 427.629 379.646 428.69 378.302C447.292 354.742 471.724 333.237 495.889 315.566C499.677 312.796 504.973 307.583 508.95 305.33C508.63 319.626 508.357 333.918 507.725 348.204C507.615 350.689 507.478 353.172 507.545 355.659C510.698 354.523 518.175 350.464 520.362 350.273C520.527 354.942 521.046 362.044 520.992 366.424C521.082 368.007 521.145 369.588 521.32 371.163C521.768 384.695 522.148 398.229 522.459 411.765C522.477 422.451 522.66 433.136 523.007 443.816C516.817 449.54 509.362 454.481 502.072 458.682L502.001 459.405C500.042 460.419 495.802 462.741 493.939 463.393C488.745 466.998 479.753 472.467 474.004 474.589L473.668 474.442C470.235 476.659 462.655 479.413 458.709 480.804C380.894 508.231 380.81 455.667 412.023 401.941C413.714 399.031 417.796 390.367 421.154 389.335C420.977 388.716 421.069 388.051 421.407 387.503C421.745 386.955 422.298 386.575 422.93 386.455Z"/><path fill="#8E0E8E" d="M506.505 377.376C510.189 375.705 517.771 371.245 521.32 371.163C521.768 384.695 522.148 398.229 522.459 411.765C522.477 422.451 522.66 433.136 523.007 443.816C516.817 449.54 509.362 454.481 502.072 458.682L502.001 459.405C500.042 460.419 495.802 462.741 493.939 463.393C484.238 452.239 477.924 441.527 475.381 426.944C476.089 425.949 476.093 424.615 475.39 423.616C475.462 422.565 475.558 421.517 475.678 420.471C477.281 406.537 484.768 394.331 495.627 385.555C498.668 383.098 502.831 380.886 505.716 378.555L506.325 378.057L506.505 377.376Z"/><path fill="#F587D8" d="M506.505 377.376C510.189 375.705 517.771 371.245 521.32 371.163C521.768 384.695 522.148 398.229 522.459 411.765C522.477 422.451 522.66 433.136 523.007 443.816C516.817 449.54 509.362 454.481 502.072 458.682C501.792 449.797 502.82 437.988 503.294 429.017C504.147 412.021 505.157 395.034 506.325 378.057L506.505 377.376Z"/><path fill="#6F1379" d="M507.545 355.659C510.698 354.523 518.175 350.464 520.362 350.273C520.527 354.942 521.046 362.044 520.992 366.424C521.082 368.007 521.145 369.588 521.32 371.163C517.771 371.245 510.189 375.705 506.505 377.376L506.325 378.057L505.716 378.555C502.831 380.886 498.668 383.098 495.627 385.555C484.768 394.331 477.281 406.537 475.678 420.471C475.558 421.517 475.462 422.565 475.39 423.616C476.093 424.615 476.089 425.949 475.381 426.944C477.924 441.527 484.238 452.239 493.939 463.393C488.745 466.998 479.753 472.467 474.004 474.589L473.668 474.442C472.676 472.784 469.65 469.189 468.442 467.711C446.098 440.383 447.12 405.343 472.112 380.182C482.989 369.231 494.03 362.894 507.461 355.89L507.545 355.659Z"/><path fill="#DB86EE" d="M507.545 355.659C510.698 354.523 518.175 350.464 520.362 350.273C520.527 354.942 521.046 362.044 520.992 366.424C521.082 368.007 521.145 369.588 521.32 371.163C517.771 371.245 510.189 375.705 506.505 377.376C506.381 371.524 507.195 362.151 507.461 355.89L507.545 355.659Z"/><path fill="#F0FAFC" d="M475.381 426.944C474.653 427.966 473.348 428.399 472.154 428.016C470.96 427.632 470.152 426.52 470.155 425.266C470.158 424.012 470.973 422.904 472.169 422.527C473.365 422.15 474.668 422.59 475.39 423.616C476.093 424.615 476.089 425.949 475.381 426.944Z"/><path fill="#F0FAFC" d="M422.93 386.455C424.147 386.224 425.328 387.002 425.595 388.212C425.863 389.421 425.121 390.625 423.92 390.928C422.718 391.232 421.493 390.526 421.154 389.335C420.977 388.716 421.069 388.051 421.407 387.503C421.745 386.955 422.298 386.575 422.93 386.455Z"/><path fill="#460258" d="M493.939 463.393C496.024 466.032 498.793 469.567 501.485 471.609L501.579 471.917C501.127 479.669 500.629 487.418 500.087 495.165C492.054 492.048 479.548 481.498 474.004 474.589C479.753 472.467 488.745 466.998 493.939 463.393Z"/><path fill="#F0FAFC" d="M417.373 499.859C422.928 506.113 416.8 513.491 431.192 518.187C420.282 523.243 420.769 526.918 418.312 537.894L417.866 538.369C416.949 536.955 416.485 534.665 416.01 533.03C413.52 524.447 412.617 523.18 405.679 518.407C406.4 518.04 407.115 517.662 407.823 517.272C414.406 513.634 415.377 506.772 417.373 499.859Z"/><path fill="#F0FAFC" d="M377.536 387.776C378.286 389.031 379.048 391.36 379.637 392.795C382.382 399.481 384.802 400.316 390.754 403.397C384.309 405.895 381.368 407.725 379.188 414.449C378.658 416.084 378.052 418.223 377.17 419.636C373.906 408.885 372.988 407.418 362.649 403.314C373.588 399.245 373.467 398.314 377.536 387.776Z"/><path fill="#F0FAFC" d="M346.718 445.791C347.915 445.419 349.188 446.074 349.581 447.264C349.974 448.454 349.341 449.739 348.159 450.152C347.375 450.427 346.504 450.257 345.881 449.708C345.258 449.159 344.98 448.316 345.154 447.504C345.327 446.692 345.925 446.037 346.718 445.791Z"/><path fill="#07BCEF" d="M262.501 488.812C266.531 487.797 270.637 490.17 271.77 494.168C272.903 498.166 270.652 502.34 266.689 503.591C264.019 504.433 261.103 503.756 259.077 501.825C257.05 499.895 256.234 497.014 256.947 494.308C257.659 491.601 259.787 489.495 262.501 488.812Z"/><path fill="#F0FAFC" d="M306.728 567.354C307.858 566.845 309.187 567.332 309.722 568.45C310.257 569.568 309.802 570.908 308.697 571.469C307.959 571.844 307.075 571.789 306.389 571.326C305.702 570.864 305.32 570.065 305.391 569.24C305.461 568.415 305.973 567.693 306.728 567.354Z"/><path fill="#F0FAFC" d="M292.657 433.374C293.857 433.138 295.029 433.894 295.31 435.084C295.59 436.275 294.878 437.474 293.699 437.798C292.896 438.019 292.037 437.783 291.459 437.184C290.881 436.585 290.677 435.718 290.927 434.924C291.177 434.129 291.84 433.535 292.657 433.374Z"/><path fill="#F0FAFC" d="M233.681 564.757C234.393 564.362 235.263 564.382 235.956 564.811C236.648 565.239 237.055 566.008 237.019 566.822C236.984 567.635 236.511 568.366 235.784 568.732C234.69 569.282 233.357 568.857 232.785 567.775C232.213 566.693 232.611 565.351 233.681 564.757Z"/><path fill="#F0FAFC" d="M229.128 434.344C229.809 433.929 230.662 433.916 231.355 434.31C232.049 434.703 232.475 435.442 232.468 436.24C232.461 437.037 232.022 437.768 231.322 438.15C230.274 438.721 228.962 438.351 228.367 437.318C227.771 436.284 228.109 434.964 229.128 434.344Z"/><path fill="#FD669C" d="M197.069 222.275C209.845 205.126 261.818 158.691 282.247 155.386C286.295 154.731 290.394 155.114 293.804 157.56C296.94 159.809 298.585 163.325 299.133 167.075C302.961 193.247 256.933 259.521 240.505 280.65C241.621 285.212 242.717 289.672 243.025 294.378C244.815 317.53 237.328 340.444 222.213 358.072C208.719 373.789 188.532 385.643 167.883 388.181C156.538 389.983 149.01 389.845 137.814 388.083L126.905 385.823C107.088 408.405 82.1077 433.413 52.4697 441.608C31.5299 447.398 31.5271 427.674 36.0174 413.759C44.2029 388.393 58.31 367.609 73.7626 346.278C70.0227 340.321 68.3923 335.659 65.8575 329.14C64.7048 325.678 63.9712 323.09 63.0978 319.544C58.6637 301.696 60.2133 282.886 67.5085 266.005C77.3417 243.231 94.5351 226.733 117.571 217.655C126.17 212.904 150.032 209.028 159.837 210.836C172.989 211.591 185.763 215.515 197.069 222.275Z"/><path fill="#FC6DB4" d="M137.814 388.083C140.113 383.649 165.1 355.633 169.616 350.303C183.439 333.684 197.391 317.172 211.469 300.768C220.577 289.966 227.209 281.129 237.18 270.909C238.486 273.508 239.05 274.536 239.745 277.438L240.505 280.65C241.621 285.212 242.717 289.672 243.025 294.378C244.815 317.53 237.328 340.444 222.213 358.072C208.719 373.789 188.532 385.643 167.883 388.181C156.538 389.983 149.01 389.845 137.814 388.083Z"/><path fill="#FB4995" d="M167.883 388.181C170.549 383.794 180.304 373.036 184.18 368.222C198.347 350.624 213.147 333.415 226.979 315.516C232.351 308.565 238.121 301.654 243.025 294.378C244.815 317.53 237.328 340.444 222.213 358.072C208.719 373.789 188.532 385.643 167.883 388.181Z"/><path fill="#FB4995" d="M117.571 217.655C126.17 212.904 150.032 209.028 159.837 210.836C157.716 210.955 156.886 210.918 154.758 210.737C149.869 215.485 144.533 222.475 140.366 227.931C118.484 256.586 96.2039 285.148 75.7421 314.831C73.1895 318.534 68.754 326.397 65.8575 329.14C64.7048 325.678 63.9712 323.09 63.0978 319.544C58.6637 301.696 60.2133 282.886 67.5085 266.005C77.3417 243.231 94.5351 226.733 117.571 217.655Z"/><path fill="#FC6DB4" d="M63.0978 319.544C58.6637 301.696 60.2133 282.886 67.5085 266.005C77.3417 243.231 94.5351 226.733 117.571 217.655C116.263 221.121 105.589 233.915 102.564 237.952C89.7369 255.072 79.781 270.975 72.4652 291.253C70.7047 296.139 69.2143 301.118 68.0007 306.167C67.0555 309.99 66.0645 317.445 63.0978 319.544Z"/><path fill="#FC6DB4" d="M212.772 233.073C218.812 238.027 225.889 245.854 229.671 252.647C228.128 255.988 213.509 271.528 210.084 275.413L142.839 351.03C140.543 353.629 116.782 381.195 115.315 381.747C106.613 378.212 100.836 374.991 93.4986 369.226C94.389 367.379 100.025 361.365 101.678 359.272C113.719 344.026 126.868 330.11 139.803 315.655L196.249 251.81C199.256 248.454 210.546 234.972 212.772 233.073Z"/><path fill="#020937" d="M206.791 228.802C216.41 219.334 251.28 187.561 262.012 197.624C271.928 206.921 240.949 255.341 235.767 263.354C233.951 260.044 231.72 255.711 229.671 252.647C225.889 245.854 218.812 238.027 212.772 233.073C210.707 231.515 208.987 230.198 206.791 228.802Z"/><path fill="#020937" d="M81.9024 357.701C85.8257 361.527 89.479 365.379 93.4986 369.226C100.836 374.991 106.613 378.212 115.315 381.747C114.949 384.816 68.4215 424.444 64.3017 406.699C61.4841 394.563 76.3742 368.547 81.9024 357.701Z"/><path fill="#5350BE" d="M140.19 499.873C151.25 499.294 160.715 507.726 161.413 518.778C162.111 529.831 153.782 539.386 142.737 540.204C135.486 540.741 128.505 537.34 124.458 531.299C120.411 525.258 119.922 517.508 123.176 511.006C126.431 504.504 132.929 500.252 140.19 499.873Z"/><path fill="#05B3FC" d="M335.993 253.856C342.489 252.91 348.991 255.535 353.009 260.726C357.027 265.917 357.939 272.87 355.395 278.921C352.851 284.973 347.246 289.186 340.726 289.947C330.841 291.101 321.862 284.102 320.568 274.235C319.274 264.367 326.145 255.289 335.993 253.856Z"/><path fill="#05B3FC" d="M47.618 42.5959C55.2104 40.6844 62.9202 45.2674 64.8688 52.8503C66.8174 60.4333 62.2722 68.1654 54.6989 70.1511C47.073 72.1506 39.2754 67.5669 37.3132 59.9313C35.3511 52.2957 39.9729 44.5206 47.618 42.5959Z"/><path fill="#F0FAFC" d="M188.727 37.4051C190.712 39.3407 192.633 46.7013 194.386 49.4953C196.87 53.4573 198.899 54.2724 202.795 56.3307C192.6 61.9472 193.232 65.7604 189.044 76.3698L188.275 76.2427C185.309 67.9588 184.184 60.2869 175.426 56.4385C183.732 51.3646 185.106 45.9856 188.727 37.4051Z"/><path fill="#F0FAFC" d="M92.2625 107.251C94.5405 109.26 94.54 118.145 98.7212 121.913C100.785 123.773 102.131 124.704 104.556 126.378L98.03 129.577C95.2391 134.826 94.0219 139.532 92.6051 145.279C86.9263 138.054 91.8225 131.634 80.0526 125.839C88.8709 120.456 88.9775 117.04 92.2625 107.251Z"/><path fill="#F0FAFC" d="M33.0531 488.341C36.275 498.656 37.8538 502.489 48.6551 505.684C38.3837 509.016 37.3949 510.603 33.8217 520.86L33.2609 521.348C30.857 512.683 28.2252 509.05 19.822 505.605C30.5191 501.849 30.7421 499.16 33.0531 488.341Z"/><path fill="#F0FAFC" d="M88.7303 586.94C94.2254 595.025 89.7852 597.921 101.957 602.024C93.1051 603.664 92.3435 608.629 89.6033 616.162L89.5422 616.201L88.9885 616.046C86.4447 608.329 85.3072 604.278 76.9433 602.67C78.2525 602.006 79.548 601.315 80.829 600.597C86.4198 597.413 87.1737 592.707 88.7303 586.94Z"/><path fill="#F0FAFC" d="M291.168 319.781C292.993 321.48 292.317 325.079 295.333 326.166C296.066 326.43 297.023 327.168 297.584 327.711C292.048 330.918 294.253 330.263 290.969 335.271C288.839 330.209 288.535 330.096 283.578 327.916L284.295 327.615C289.406 325.419 289.05 325.105 291.168 319.781Z"/><path fill="#F0FAFC" d="M40.9009 190.74C42.3505 190.072 44.0482 190.244 45.3344 191.189C46.6207 192.134 47.2929 193.702 47.0899 195.285C46.8869 196.868 45.8407 198.216 44.3577 198.805C42.1472 199.684 39.639 198.642 38.702 196.456C37.765 194.269 38.7401 191.734 40.9009 190.74Z"/><path fill="#F0FAFC" d="M165.296 159.336C166.734 158.906 168.253 159.693 168.731 161.115C169.209 162.537 168.474 164.082 167.069 164.608C166.117 164.964 165.046 164.773 164.276 164.109C163.507 163.445 163.16 162.415 163.372 161.42C163.585 160.426 164.322 159.627 165.296 159.336Z"/><path fill="#F0FAFC" d="M108.657 462.327C109.676 462.241 110.611 462.898 110.874 463.886C111.137 464.875 110.654 465.909 109.727 466.342C108.963 466.698 108.06 466.565 107.431 466.004C106.802 465.443 106.567 464.562 106.834 463.762C107.1 462.962 107.817 462.398 108.657 462.327Z"/><path fill="#43187F" d="M272.947 0L470.049 0C474.592 2.48235 480.067 4.24666 484.863 6.36115C493.956 10.5228 503.135 14.1584 512.076 18.7143C556.541 41.3721 605.764 76.4449 622.567 125.525C625.12 132.984 629.933 153.659 625.987 160.562C624.703 174.814 618.655 193.103 607.132 202.127C606.448 202.662 605.908 203.252 605.125 203.599C602.337 204.936 591.682 209.63 589.791 210.854C562.321 220.523 545.841 221.253 516.864 220.989C516.724 216.218 516.612 211.446 516.527 206.674L515.979 200.75L512.544 200.349L512.23 207.592C512.174 209.316 511.904 220.966 511.697 221.898C510.499 219.55 501.188 220.242 498.149 219.991C473.492 217.953 449.729 210.981 426.36 203.219C418.36 202.461 383.948 185.336 375.733 180.782C318.536 149.079 231.37 73.1551 272.947 0Z"/><path fill="#2D024B" d="M272.947 0L470.049 0C474.592 2.48235 480.067 4.24666 484.863 6.36115C493.956 10.5228 503.135 14.1584 512.076 18.7143C556.541 41.3721 605.764 76.4449 622.567 125.525C625.12 132.984 629.933 153.659 625.987 160.562C624.152 152.788 624.144 147.621 620.933 139.177C616.941 128.682 612.055 116.983 605.324 107.984C587.552 84.2226 555.348 59.0505 528.845 46.4413C527.994 47.7854 526.295 48.3166 524.83 47.6971C523.365 47.0775 522.563 45.4891 522.934 43.9422C521.7 43.4986 521.318 43.1725 520.254 42.6179C489.024 26.3432 453.606 18.1039 418.753 14.5049C407.733 13.3979 391.609 15.0956 381.271 17.7113C365.673 21.6576 352.637 28.8637 344.246 42.9839C337.257 54.7455 336.672 71.1447 340.613 84.3699C350.466 117.433 380.517 145.763 409.797 162.51C410.334 162.817 411.064 163.075 411.629 163.284C406.222 152.684 392.828 134.471 406.435 122.91C421.935 147.11 436.939 157.536 464.825 165.237C469.447 166.513 480.567 169.246 484.772 170.69C487.471 172.312 510.715 182.952 512.741 181.494C515.489 172.328 508.058 174.377 507.759 170.95C509.691 171.875 511.739 172.912 513.721 173.686L515.902 173.559C514.281 175.036 514.945 180.47 515.01 182.789L514.995 185.988C515.394 190.659 515.463 196.421 515.979 200.75L512.544 200.349L512.23 207.592C512.174 209.316 511.904 220.966 511.697 221.898C510.499 219.55 501.188 220.242 498.149 219.991C473.492 217.953 449.729 210.981 426.36 203.219C418.36 202.461 383.948 185.336 375.733 180.782C318.536 149.079 231.37 73.1551 272.947 0Z"/><defs><linearGradient id="gradient_0" gradientUnits="userSpaceOnUse" x1="461.30612" y1="132.05171" x2="453.22626" y2="191.2258"><stop offset="0" stop-color="#8B0984"/><stop offset="1" stop-color="#AF2CA1"/></linearGradient></defs><path fill="url(#gradient_0)" d="M406.435 122.91C421.935 147.11 436.939 157.536 464.825 165.237C469.447 166.513 480.567 169.246 484.772 170.69C487.471 172.312 510.715 182.952 512.741 181.494C515.489 172.328 508.058 174.377 507.759 170.95C509.691 171.875 511.739 172.912 513.721 173.686L515.902 173.559C514.281 175.036 514.945 180.47 515.01 182.789L514.995 185.988C515.394 190.659 515.463 196.421 515.979 200.75L512.544 200.349L512.475 200.13C492.117 199.166 466.19 190.445 447.356 183.216C434.929 177.297 425.536 170.999 413.984 165.129L411.629 163.284C406.222 152.684 392.828 134.471 406.435 122.91Z"/><path fill="#A0C4F2" d="M513.416 185.597L514.995 185.988C515.394 190.659 515.463 196.421 515.979 200.75L512.544 200.349L512.475 200.13C512.705 195.28 513.019 190.436 513.416 185.597Z"/><path fill="#CCCAF3" d="M513.721 173.686L515.902 173.559C514.281 175.036 514.945 180.47 515.01 182.789L514.995 185.988L513.416 185.597C513.493 181.626 513.594 177.656 513.721 173.686Z"/><path fill="#43187F" d="M413.984 165.129C425.536 170.999 434.929 177.297 447.356 183.216C466.19 190.445 492.117 199.166 512.475 200.13L512.544 200.349L512.23 207.592C512.174 209.316 511.904 220.966 511.697 221.898C510.499 219.55 501.188 220.242 498.149 219.991C473.492 217.953 449.729 210.981 426.36 203.219C428.776 202.986 442.497 207.823 446.197 208.879C464.138 213.996 481.883 218.37 500.568 219.549C503.636 219.743 507.601 220.31 510.558 219.753C510.565 217.887 510.66 216.09 510.654 214.188C509.313 213.505 500.299 212.609 498.043 212.319C488.488 211.089 480.2 209.088 471.026 205.997C465.359 204.072 459.866 201.67 454.606 198.815C444.034 193.028 418.492 175.999 413.984 165.129Z"/><path fill="#6F1379" d="M447.356 183.216C466.19 190.445 492.117 199.166 512.475 200.13L512.544 200.349L512.23 207.592L511.744 205.257C510.883 204.694 495.979 202.465 493.508 201.99C481.795 199.704 470.343 196.236 459.328 191.641C455.105 189.841 449.1 187.541 447.356 183.216Z"/><path fill="#F0FAFC" d="M522.934 43.9422C523.235 42.6874 524.25 41.7294 525.52 41.5004C526.79 41.2714 528.075 41.8148 528.795 42.8854C529.516 43.9559 529.535 45.3511 528.845 46.4413C527.994 47.7854 526.295 48.3166 524.83 47.6971C523.365 47.0775 522.563 45.4891 522.934 43.9422Z"/><path fill="#F0FAFC" d="M317.685 48.9017C323.145 57.0423 318.909 62.9665 331.346 68.1856C321.65 74.7834 321.643 77.9528 317.974 88.8546L317.63 89.1004C316.246 88.3995 313.531 75.1861 310.356 72.3762C308.404 70.6486 307.428 69.9305 304.993 68.324C314.069 63.6938 314.811 57.8491 317.685 48.9017Z"/><path fill="#6F1379" d="M406.492 122.641C435.062 95.6592 496.138 102.27 531.922 111.15C548.244 115.2 565.034 123.336 576.784 135.686C580.091 139.177 582.898 143.11 585.125 147.372C585.932 148.916 587.149 151.828 587.964 153.116C581.164 157.503 575.197 159.748 567.398 162.017L567.148 162.171C558.747 163.958 536.352 167.696 528.295 166.277C525.022 170.707 521.811 173.717 515.902 173.559L513.721 173.686C511.739 172.912 509.691 171.875 507.759 170.95C508.058 174.377 515.489 172.328 512.741 181.494C510.715 182.952 487.471 172.312 484.772 170.69C480.567 169.246 469.447 166.513 464.825 165.237C436.939 157.536 421.935 147.11 406.435 122.91L406.492 122.641Z"/><path fill="#8E0E8E" d="M484.772 170.69C484.189 169.355 482.046 167.121 480.962 166.151C464.456 150.613 462.134 133.696 487.378 126.865C511.092 120.448 561.24 135.717 567.398 162.017L567.148 162.171C558.747 163.958 536.352 167.696 528.295 166.277C525.022 170.707 521.811 173.717 515.902 173.559L513.721 173.686C511.739 172.912 509.691 171.875 507.759 170.95C508.058 174.377 515.489 172.328 512.741 181.494C510.715 182.952 487.471 172.312 484.772 170.69Z"/><path fill="#F0FAFC" d="M507.759 170.95C504.005 166.795 499.754 159.878 502.137 154.333C509.497 137.212 535.586 146.804 528.295 166.277C525.022 170.707 521.811 173.717 515.902 173.559L513.721 173.686C511.739 172.912 509.691 171.875 507.759 170.95Z"/><path fill="#2D024B" d="M406.492 122.641C405.942 122.019 405.41 121.38 404.898 120.726C399.506 113.901 394.51 100.35 396.169 91.7519C402.913 56.8182 452.229 53.849 479.482 58.6193C519.738 65.6656 561.061 81.8417 587.244 114.244C589.089 116.527 590.616 119.264 592.349 121.648C597.389 133.583 598.712 143.954 587.964 153.116C587.149 151.828 585.932 148.916 585.125 147.372C582.898 143.11 580.091 139.177 576.784 135.686C565.034 123.336 548.244 115.2 531.922 111.15C496.138 102.27 435.062 95.6592 406.492 122.641Z"/><path fill="#F0FAFC" d="M476.705 90.7861C477.767 90.3176 479.009 90.7915 479.489 91.8487C479.969 92.906 479.508 94.1524 478.456 94.6434C477.765 94.9657 476.955 94.8922 476.333 94.4508C475.712 94.0095 475.376 93.2685 475.453 92.5103C475.53 91.7521 476.008 91.0937 476.705 90.7861Z"/><defs><linearGradient id="gradient_1" gradientUnits="userSpaceOnUse" x1="562.02222" y1="130.51793" x2="564.0777" y2="199.12886"><stop offset="0" stop-color="#6E0780"/><stop offset="1" stop-color="#AB32A9"/></linearGradient></defs><path fill="url(#gradient_1)" d="M592.349 121.648L593.009 121.707C594.994 125.54 595.008 129.282 598.009 130.128C601.631 131.149 604.17 131.705 608.001 131.419L608.754 130.871C608.537 127.976 606.534 119.615 607.198 118.445C610.976 135.808 614.163 155.836 603.918 171.415C594.033 186.447 576.596 192.131 560.642 198.268C546.321 199.455 530.964 202.519 515.979 200.75C515.463 196.421 515.394 190.659 514.995 185.988L515.01 182.789C514.945 180.47 514.281 175.036 515.902 173.559C521.811 173.717 525.022 170.707 528.295 166.277C536.352 167.696 558.747 163.958 567.148 162.171L567.398 162.017C575.197 159.748 581.164 157.503 587.964 153.116C598.712 143.954 597.389 133.583 592.349 121.648Z"/><path fill="#B91D90" d="M567.148 162.171C567.837 163.758 567.664 167.446 566.852 168.877C558.773 183.111 537.883 184.542 523.274 184.19C520.351 184.12 516.982 184.476 515.01 182.789C514.945 180.47 514.281 175.036 515.902 173.559C521.811 173.717 525.022 170.707 528.295 166.277C536.352 167.696 558.747 163.958 567.148 162.171Z"/><path fill="#6F1379" d="M515.979 200.75C530.964 202.519 546.321 199.455 560.642 198.268C551.185 206.12 528.148 206.689 516.527 206.674L515.979 200.75Z"/><path fill="#F0FAFC" d="M376.942 112.256C377.664 111.824 378.564 111.82 379.29 112.246C380.015 112.672 380.451 113.459 380.426 114.3C380.401 115.141 379.919 115.902 379.169 116.284C378.063 116.847 376.71 116.432 376.109 115.346C375.509 114.26 375.877 112.893 376.942 112.256Z"/><path fill="#F0FAFC" d="M425.644 24.3462C426.828 23.8842 428.163 24.4693 428.625 25.6531C429.088 26.837 428.504 28.1717 427.32 28.6348C426.135 29.0982 424.8 28.5133 424.337 27.3287C423.874 26.1441 424.459 24.8085 425.644 24.3462Z"/><path fill="#F0FAFC" d="M364.092 47.2547C365.222 46.8234 366.489 47.3812 366.934 48.506C367.379 49.6309 366.837 50.9045 365.717 51.3631C364.981 51.6647 364.14 51.5471 363.514 51.0552C362.889 50.5634 362.576 49.7732 362.696 48.9866C362.815 48.2 363.349 47.5385 364.092 47.2547Z"/><path fill="#020937" d="M470.049 0L558.067 0L601.209 0L667.129 0C701.933 39.1213 726.265 82.1327 723.747 136.269C722.311 167.145 713.973 198.1 699.018 225.099C697.189 228.399 693.259 235.772 690.725 238.055C690.07 236.639 689.763 235.51 688.699 234.498C687.778 235.744 686.959 238.013 686.548 239.482C684.396 247.191 681.78 248.938 675.291 253.167C678.107 254.3 680.376 255.013 682.648 257.071C680.084 258.4 663.345 280.891 660.019 285.053C643.172 306.132 623.949 320.118 603.67 337.354C602.429 337.78 602.52 337.897 601.281 337.92C594.82 343.775 577.858 351.674 571.324 357.613C561.762 359.409 551.793 359.79 542.32 362.324C535.383 364.179 528.59 366.673 521.844 369.123C521.165 367.871 521.23 367.853 520.992 366.424C521.046 362.044 520.527 354.942 520.362 350.273L520.411 349.915C519.67 332.767 519.746 313.737 519.384 296.378L518.536 266.474C518.545 259.92 518.115 250.965 517.489 244.394C517.693 237.445 517.084 228.143 516.864 220.989C545.841 221.253 562.321 220.523 589.791 210.854C591.682 209.63 602.337 204.936 605.125 203.599C605.908 203.252 606.448 202.662 607.132 202.127C618.655 193.103 624.703 174.814 625.987 160.562C629.933 153.659 625.12 132.984 622.567 125.525C605.764 76.4449 556.541 41.3721 512.076 18.7143C503.135 14.1584 493.956 10.5228 484.863 6.36115C480.067 4.24666 474.592 2.48235 470.049 0Z"/><path fill="#020937" d="M470.049 0L558.067 0C569.361 8.49307 581.697 15.8727 593.13 24.5602C651.518 68.9259 687.078 137.86 634.93 203.219C608.859 235.895 569.739 260.715 536.075 285.117C532.198 287.83 522.968 294.403 519.384 296.378L518.536 266.474C518.545 259.92 518.115 250.965 517.489 244.394C517.693 237.445 517.084 228.143 516.864 220.989C545.841 221.253 562.321 220.523 589.791 210.854C591.682 209.63 602.337 204.936 605.125 203.599C605.908 203.252 606.448 202.662 607.132 202.127C618.655 193.103 624.703 174.814 625.987 160.562C629.933 153.659 625.12 132.984 622.567 125.525C605.764 76.4449 556.541 41.3721 512.076 18.7143C503.135 14.1584 493.956 10.5228 484.863 6.36115C480.067 4.24666 474.592 2.48235 470.049 0Z"/><path fill="#0C0166" d="M589.791 210.854C591.682 209.63 602.337 204.936 605.125 203.599C601.137 212.838 565.783 238.449 555.932 244.08C554.978 245.807 554.798 246.559 553.015 247.372C551.95 247.386 551.674 247.431 550.629 247.28C542.611 251.287 533.269 258.286 525.228 262.704C523.564 263.618 520.158 265.982 518.536 266.474C518.545 259.92 518.115 250.965 517.489 244.394C517.693 237.445 517.084 228.143 516.864 220.989C545.841 221.253 562.321 220.523 589.791 210.854Z"/><path fill="#020937" d="M589.791 210.854C582.704 219.292 548.82 235.327 538.297 239.456C533.121 241.487 524.168 246.545 518.743 247.479L518.193 247.204L517.489 244.394C517.693 237.445 517.084 228.143 516.864 220.989C545.841 221.253 562.321 220.523 589.791 210.854Z"/><path fill="#F0FAFC" d="M550.629 247.28C550.15 244.639 549.95 241.533 553.41 241.369C554.942 242.098 555.074 242.621 555.932 244.08C554.978 245.807 554.798 246.559 553.015 247.372C551.95 247.386 551.674 247.431 550.629 247.28Z"/><defs><linearGradient id="gradient_2" gradientUnits="userSpaceOnUse" x1="671.51508" y1="86.372665" x2="447.28122" y2="237.93259"><stop offset="0" stop-color="#060064"/><stop offset="1" stop-color="#380A99"/></linearGradient></defs><path fill="url(#gradient_2)" d="M558.067 0L601.209 0C637.739 31.7242 671.416 72.4603 679.915 122.467C694.74 209.705 611.019 279.182 550.358 327.486C546.038 330.926 522.808 345.379 521.989 349.176L520.411 349.915C519.67 332.767 519.746 313.737 519.384 296.378C522.968 294.403 532.198 287.83 536.075 285.117C569.739 260.715 608.859 235.895 634.93 203.219C687.078 137.86 651.518 68.9259 593.13 24.5602C581.697 15.8727 569.361 8.49307 558.067 0Z"/><path fill="#F0FAFC" d="M554.656 284.78C558.026 287.699 556.42 294.449 566.773 302.119C559.235 303.88 558.594 308.625 555.979 315.156C555.913 315.341 555.275 316.317 555.148 316.519C552.239 313.838 554.544 307.223 546.498 300.552C551.827 296.083 552.568 291.304 554.656 284.78Z"/><path fill="#F0FAFC" d="M630.702 221.298C631.654 220.863 632.769 220.993 633.596 221.634C634.423 222.275 634.826 223.323 634.642 224.353C634.457 225.383 633.717 226.226 632.719 226.541C631.3 226.99 629.778 226.256 629.244 224.868C628.71 223.48 629.349 221.915 630.702 221.298Z"/><defs><linearGradient id="gradient_3" gradientUnits="userSpaceOnUse" x1="577.20325" y1="366.22968" x2="535.38757" y2="332.60669"><stop offset="0" stop-color="#340B75"/><stop offset="1" stop-color="#5D2192"/></linearGradient></defs><path fill="url(#gradient_3)" d="M521.989 349.176C549.303 339.337 572.485 336.62 601.281 337.92C594.82 343.775 577.858 351.674 571.324 357.613C561.762 359.409 551.793 359.79 542.32 362.324C535.383 364.179 528.59 366.673 521.844 369.123C521.165 367.871 521.23 367.853 520.992 366.424C521.046 362.044 520.527 354.942 520.362 350.273L520.411 349.915L521.989 349.176Z"/><path fill="#0C0166" d="M667.129 0L806.182 0C820.195 19.0674 828.89 32.2492 838.276 53.9822C851.582 84.7911 856.709 114.328 851.455 147.797C850.732 152.648 846.713 171.503 843.5 174.613C844.435 175.002 845.002 175.961 844.893 176.968C844.783 177.975 844.024 178.79 843.027 178.97C842.855 183.125 839.291 188.262 837.526 192.01C825.132 218.335 805.191 240.002 784.828 260.378C753.23 291.996 717.645 318.635 680.311 343.08C677.329 345.033 673.859 347.163 670.656 348.721L670.272 348.662C665.604 347.124 658.896 345.857 654.039 344.671C636.859 340.476 621.261 338.394 603.67 337.354C623.949 320.118 643.172 306.132 660.019 285.053C663.345 280.891 680.084 258.4 682.648 257.071C680.376 255.013 678.107 254.3 675.291 253.167C681.78 248.938 684.396 247.191 686.548 239.482C686.959 238.013 687.778 235.744 688.699 234.498C689.763 235.51 690.07 236.639 690.725 238.055C693.259 235.772 697.189 228.399 699.018 225.099C713.973 198.1 722.311 167.145 723.747 136.269C726.265 82.1327 701.933 39.1213 667.129 0Z"/><path fill="#F0FAFC" d="M675.291 253.167C681.78 248.938 684.396 247.191 686.548 239.482C686.959 238.013 687.778 235.744 688.699 234.498C689.763 235.51 690.07 236.639 690.725 238.055C694.375 246.854 695.854 248.439 704.453 252.858C691.971 259.638 695.638 260.69 690.459 271.286C688.528 267.783 684.618 259.603 682.648 257.071C680.376 255.013 678.107 254.3 675.291 253.167Z"/><path fill="#F0FAFC" d="M843.027 178.97C842.068 179.144 841.105 178.69 840.628 177.84C840.151 176.99 840.266 175.931 840.914 175.203C841.562 174.475 842.6 174.238 843.5 174.613C844.435 175.002 845.002 175.961 844.893 176.968C844.783 177.975 844.024 178.79 843.027 178.97Z"/><path fill="#05B3FC" d="M787.637 100.916C793.917 100.288 799.536 104.824 800.245 111.095C800.954 117.366 796.491 123.043 790.23 123.833C786.107 124.353 782.023 122.615 779.539 119.283C777.056 115.951 776.557 111.541 778.234 107.739C779.91 103.937 783.502 101.33 787.637 100.916Z"/><path fill="#2D024B" d="M603.67 337.354C621.261 338.394 636.859 340.476 654.039 344.671C658.896 345.857 665.604 347.124 670.272 348.662C663.284 353.231 649.928 362.225 642.91 365.828L642.176 366.477C645.484 368.556 651.023 370.483 654.732 371.96C677.152 380.885 698.484 393.487 714.075 412.244C716.263 414.877 718.379 419.273 720.829 421.535C721.699 420.805 722.244 420.256 723.044 419.446C724.81 419.432 723.913 419.252 725.678 420.66L725.629 421.307C724.63 421.844 723.669 422.214 722.937 423.005C723.554 424.662 727.895 429.356 729.332 430.898C731.784 433.529 736.288 441.875 737.096 445.05C735.096 446.4 730.711 449.584 729.809 451.771C730.042 454.689 732.717 452.393 732.196 460.27C732.151 468.273 730.786 475.833 727.095 482.986C725.495 486.089 723.818 487.222 721.965 489.8C715.544 498.735 700.524 502.993 707.066 515.801L706.79 516.219C682.063 530.796 654.913 530.32 627.658 527.501C587.713 523.369 557.64 515.572 523.922 493.513L523.555 491.956C518.391 490.83 506.507 474.928 501.579 471.917L501.485 471.609C498.793 469.567 496.024 466.032 493.939 463.393C495.802 462.741 500.042 460.419 502.001 459.405L502.072 458.682C509.362 454.481 516.817 449.54 523.007 443.816C522.66 433.136 522.477 422.451 522.459 411.765C522.148 398.229 521.768 384.695 521.32 371.163C521.145 369.588 521.082 368.007 520.992 366.424C521.23 367.853 521.165 367.871 521.844 369.123C528.59 366.673 535.383 364.179 542.32 362.324C551.793 359.79 561.762 359.409 571.324 357.613C577.858 351.674 594.82 343.775 601.281 337.92C602.52 337.897 602.429 337.78 603.67 337.354Z"/><path fill="#43187F" d="M641.648 366.557L642.176 366.477C645.484 368.556 651.023 370.483 654.732 371.96C677.152 380.885 698.484 393.487 714.075 412.244C716.263 414.877 718.379 419.273 720.829 421.535C721.699 420.805 722.244 420.256 723.044 419.446C724.81 419.432 723.913 419.252 725.678 420.66L725.629 421.307C724.63 421.844 723.669 422.214 722.937 423.005C723.554 424.662 727.895 429.356 729.332 430.898C731.784 433.529 736.288 441.875 737.096 445.05C735.096 446.4 730.711 449.584 729.809 451.771C730.042 454.689 732.717 452.393 732.196 460.27C732.151 468.273 730.786 475.833 727.095 482.986C725.495 486.089 723.818 487.222 721.965 489.8C715.544 498.735 700.524 502.993 707.066 515.801L706.79 516.219C682.063 530.796 654.913 530.32 627.658 527.501C587.713 523.369 557.64 515.572 523.922 493.513L523.555 491.956L523.426 477.639C523.88 472.596 523.553 462.545 523.528 457.12C527.748 462.182 530.607 468.451 535.503 473.157C550.642 487.71 573.509 493.825 593.805 496.356C600.174 497.124 625.488 497.859 630.104 495.904C630.587 496.687 631.484 497.113 632.396 496.994C633.308 496.874 634.065 496.231 634.33 495.351C639.021 496.07 657.697 491.744 662.57 489.786C677.581 483.754 686.163 477.676 692.914 463.151C705.34 433.979 674.601 407.411 651.524 395.922C638.174 389.275 625.918 387.865 612.121 384.186C621.045 378.216 633.476 372.295 641.648 366.557Z"/><path fill="#8E0E8E" d="M603.67 337.354C621.261 338.394 636.859 340.476 654.039 344.671C658.896 345.857 665.604 347.124 670.272 348.662C663.284 353.231 649.928 362.225 642.91 365.828L642.176 366.477L641.648 366.557C633.476 372.295 621.045 378.216 612.121 384.186L611.414 384.145C586.925 379.158 558.312 381.83 537.143 395.974C527.7 402.283 528.374 404.313 522.459 411.765C522.148 398.229 521.768 384.695 521.32 371.163C521.145 369.588 521.082 368.007 520.992 366.424C521.23 367.853 521.165 367.871 521.844 369.123C528.59 366.673 535.383 364.179 542.32 362.324C551.793 359.79 561.762 359.409 571.324 357.613C577.858 351.674 594.82 343.775 601.281 337.92C602.52 337.897 602.429 337.78 603.67 337.354Z"/><path fill="#43187F" d="M603.67 337.354C621.261 338.394 636.859 340.476 654.039 344.671C658.896 345.857 665.604 347.124 670.272 348.662C663.284 353.231 649.928 362.225 642.91 365.828L642.176 366.477L641.648 366.557C638.791 366.072 632.213 364.084 628.771 363.316C619.472 361.248 610.045 359.806 600.554 358.997C600.115 358.269 599.378 357.771 598.54 357.632C597.701 357.494 596.843 357.73 596.194 358.278C588.079 357.626 579.241 358.438 571.324 357.613C577.858 351.674 594.82 343.775 601.281 337.92C602.52 337.897 602.429 337.78 603.67 337.354Z"/><path fill="#F0FAFC" d="M596.194 358.278C596.843 357.73 597.701 357.494 598.54 357.632C599.378 357.771 600.115 358.269 600.554 358.997C601.353 360.32 600.976 362.037 599.697 362.904C598.418 363.771 596.684 363.485 595.751 362.253C594.818 361.021 595.012 359.275 596.194 358.278Z"/><path fill="#6F1379" d="M522.459 411.765C528.374 404.313 527.7 402.283 537.143 395.974C558.312 381.83 586.925 379.158 611.414 384.145C603.675 388.591 590.28 396.828 583.396 402.23C577.961 404.602 565.724 413.044 560.161 416.768C549.442 423.945 532.485 434.105 523.371 443.216C523.545 447.849 523.597 452.485 523.528 457.12C523.553 462.545 523.88 472.596 523.426 477.639L523.555 491.956C518.391 490.83 506.507 474.928 501.579 471.917L501.485 471.609C498.793 469.567 496.024 466.032 493.939 463.393C495.802 462.741 500.042 460.419 502.001 459.405L502.072 458.682C509.362 454.481 516.817 449.54 523.007 443.816C522.66 433.136 522.477 422.451 522.459 411.765Z"/><path fill="#FC6DB4" d="M523.007 443.816C523.018 450.319 522.642 472.968 523.426 477.639L523.555 491.956C518.391 490.83 506.507 474.928 501.579 471.917L501.485 471.609C498.793 469.567 496.024 466.032 493.939 463.393C495.802 462.741 500.042 460.419 502.001 459.405L502.072 458.682C509.362 454.481 516.817 449.54 523.007 443.816Z"/><path fill="#6F1379" d="M493.939 463.393C495.802 462.741 500.042 460.419 502.001 459.405C501.877 463.363 501.831 467.696 501.485 471.609C498.793 469.567 496.024 466.032 493.939 463.393Z"/><path fill="#F0FAFC" d="M553.608 405.828C554.379 405.262 555.403 405.178 556.255 405.613C557.106 406.047 557.64 406.925 557.633 407.882C557.627 408.838 557.081 409.708 556.223 410.131C555.049 410.71 553.627 410.295 552.947 409.176C552.267 408.058 552.554 406.605 553.608 405.828Z"/><path fill="#460258" d="M612.121 384.186C625.918 387.865 638.174 389.275 651.524 395.922C674.601 407.411 705.34 433.979 692.914 463.151C691.455 460.464 689.609 455.172 688.087 451.945C683.72 442.688 676.756 431.561 669.84 423.807C653.362 405.917 627.343 401.468 604.114 401.038C597.618 400.918 589.435 402.807 583.396 402.23C590.28 396.828 603.675 388.591 611.414 384.145L612.121 384.186Z"/><path fill="#F0FAFC" d="M630.104 495.904C629.539 494.989 629.672 493.807 630.425 493.039C631.178 492.272 632.358 492.118 633.283 492.665C634.208 493.213 634.641 494.322 634.33 495.351C634.065 496.231 633.308 496.874 632.396 496.994C631.484 497.113 630.587 496.687 630.104 495.904Z"/><path fill="#F0FAFC" d="M572.753 466.739C574.009 466.144 575.51 466.667 576.125 467.914C576.739 469.16 576.239 470.669 575.003 471.303C574.185 471.722 573.206 471.667 572.44 471.161C571.673 470.655 571.24 469.775 571.305 468.859C571.37 467.943 571.923 467.133 572.753 466.739Z"/><path fill="#F0FAFC" d="M603.106 446.193C604.321 445.99 605.487 446.758 605.782 447.954C606.077 449.15 605.4 450.372 604.23 450.757C603.389 451.034 602.464 450.816 601.835 450.193C601.206 449.57 600.979 448.648 601.247 447.804C601.515 446.961 602.233 446.338 603.106 446.193Z"/><path fill="#2D024B" d="M670.272 348.662L670.656 348.721C682.256 352.746 695.247 356.789 706.529 361.785C749.117 380.645 792.865 411.802 814.477 454.125C824.431 473.619 828.685 500.364 821.378 521.314C815.18 539.005 802.148 553.473 785.198 561.478C770.431 568.559 756.061 570.235 739.788 570.692C738.765 558.173 735.599 553.336 725.671 546.18C718.631 547.768 712.004 548.771 704.871 549.809C701.382 547.545 709.508 521.983 706.79 516.219L707.066 515.801C700.524 502.993 715.544 498.735 721.965 489.8C723.818 487.222 725.495 486.089 727.095 482.986C730.786 475.833 732.151 468.273 732.196 460.27C732.717 452.393 730.042 454.689 729.809 451.771C730.711 449.584 735.096 446.4 737.096 445.05C736.288 441.875 731.784 433.529 729.332 430.898C727.895 429.356 723.554 424.662 722.937 423.005C723.669 422.214 724.63 421.844 725.629 421.307L725.678 420.66C723.913 419.252 724.81 419.432 723.044 419.446C722.244 420.256 721.699 420.805 720.829 421.535C718.379 419.273 716.263 414.877 714.075 412.244C698.484 393.487 677.152 380.885 654.732 371.96C651.023 370.483 645.484 368.556 642.176 366.477L642.91 365.828C649.928 362.225 663.284 353.231 670.272 348.662Z"/><path fill="#460258" d="M642.176 366.477L642.91 365.828C651.451 366.982 662.467 370.911 670.652 373.909C704.003 386.077 736.39 404.816 758.215 433.361C772.486 452.025 781.519 471.525 777.898 495.367C773.641 523.404 750.356 538.459 725.671 546.18C718.631 547.768 712.004 548.771 704.871 549.809C701.382 547.545 709.508 521.983 706.79 516.219L707.066 515.801C700.524 502.993 715.544 498.735 721.965 489.8C723.818 487.222 725.495 486.089 727.095 482.986C730.786 475.833 732.151 468.273 732.196 460.27C732.717 452.393 730.042 454.689 729.809 451.771C730.711 449.584 735.096 446.4 737.096 445.05C736.288 441.875 731.784 433.529 729.332 430.898C727.895 429.356 723.554 424.662 722.937 423.005C723.669 422.214 724.63 421.844 725.629 421.307L725.678 420.66C723.913 419.252 724.81 419.432 723.044 419.446C722.244 420.256 721.699 420.805 720.829 421.535C718.379 419.273 716.263 414.877 714.075 412.244C698.484 393.487 677.152 380.885 654.732 371.96C651.023 370.483 645.484 368.556 642.176 366.477Z"/><path fill="#6F1379" d="M707.066 515.801C700.524 502.993 715.544 498.735 721.965 489.8C723.818 487.222 725.495 486.089 727.095 482.986C730.786 475.833 732.151 468.273 732.196 460.27C732.717 452.393 730.042 454.689 729.809 451.771C730.711 449.584 735.096 446.4 737.096 445.05C739.376 449.254 741.208 452.956 742.495 457.59C749.636 483.288 729.619 506.483 707.066 515.801Z"/><path fill="#F0FAFC" d="M785.678 481.758C787.354 480.659 789.605 481.136 790.692 482.819C791.779 484.503 791.287 486.75 789.596 487.826C787.921 488.891 785.701 488.405 784.625 486.737C783.548 485.07 784.018 482.847 785.678 481.758Z"/><path fill="#2D024B" d="M523.922 493.513C557.64 515.572 587.713 523.369 627.658 527.501C654.913 530.32 682.063 530.796 706.79 516.219C709.508 521.983 701.382 547.545 704.871 549.809C679.03 555.461 661.846 553.732 636.006 551.449C629.821 550.585 622.461 548.477 616.37 546.978C588.43 540.107 561.079 529.682 535.26 517.032C531.797 515.335 528.408 513.379 524.825 511.958L524.356 511.777L523.922 493.513Z"/><path fill="#FB4995" d="M501.579 471.917C506.507 474.928 518.391 490.83 523.555 491.956L523.922 493.513L524.356 511.777L526.862 592.101C517.079 591.89 506.976 592.022 497.17 592.029C497.688 587.794 497.764 580.866 497.917 576.443L498.846 540.312L500.087 495.165C500.629 487.418 501.127 479.669 501.579 471.917Z"/><path fill="#0C0166" d="M704.871 549.809C712.004 548.771 718.631 547.768 725.671 546.18C735.599 553.336 738.765 558.173 739.788 570.692C735.689 570.809 722.305 570.729 719.326 571.295C718.799 570.789 718.089 570.519 717.359 570.549C716.629 570.579 715.944 570.906 715.461 571.454C713.959 567.499 702.988 568.406 699.151 567.668C687.309 565.388 643.449 558.637 636.006 551.449C661.846 553.732 679.03 555.461 704.871 549.809Z"/><path fill="#F0FAFC" d="M715.461 571.454C715.944 570.906 716.629 570.579 717.359 570.549C718.089 570.519 718.799 570.789 719.326 571.295C720.381 572.31 720.425 573.984 719.425 575.054C718.426 576.123 716.753 576.192 715.669 575.208C714.585 574.224 714.492 572.552 715.461 571.454Z"/><path fill="#5350BE" d="M821.971 249.046C850.731 226.06 885.96 221.267 920.07 234.634L926.543 237.9C934.97 242.748 943.856 248.825 950.537 255.951C953.918 259.633 957.358 263.209 960.285 267.263C961.238 268.518 962.524 270.07 963.229 271.413C965.495 274.993 967.524 278.718 969.305 282.562C974.063 292.826 976.041 299.244 977.807 310.566C978.397 316.918 978.487 320.657 978.536 327.081C978.008 335.272 976.088 348.28 972.85 355.92C970.537 361.989 966.596 371.093 962.86 376.442C952.041 394.874 929.465 408.929 909.039 414.165C883.076 420.837 855.527 416.935 832.44 403.315C825.885 399.414 817.067 392.85 812.417 386.694C808.278 382.96 804.594 377.735 801.63 373.042C797.549 368.109 792.485 354.972 790.558 348.944C789.533 345.66 788.929 343.228 788.184 339.862C787.376 336.535 786.928 332.38 786.464 328.927C785.974 322.066 786.28 316.653 786.846 309.869C787.623 303.14 790.2 294.166 793.066 288.059C794.926 283.396 797.061 278.848 799.46 274.438C803.172 268.419 805.353 265.652 810.117 260.385C814.296 255.649 816.991 252.904 821.971 249.046Z"/><path fill="#5350BE" d="M821.971 249.046C850.731 226.06 885.96 221.267 920.07 234.634L926.543 237.9C934.97 242.748 943.856 248.825 950.537 255.951C953.918 259.633 957.358 263.209 960.285 267.263C961.238 268.518 962.524 270.07 963.229 271.413C939.314 300.6 896.877 308.947 861.245 312.498C844.609 314.097 827.857 314.089 811.223 312.475C803.938 311.806 793.74 310.175 786.846 309.869C787.623 303.14 790.2 294.166 793.066 288.059C794.926 283.396 797.061 278.848 799.46 274.438C803.172 268.419 805.353 265.652 810.117 260.385C814.296 255.649 816.991 252.904 821.971 249.046Z"/><path fill="#5350BE" d="M821.971 249.046C850.731 226.06 885.96 221.267 920.07 234.634L926.543 237.9C934.97 242.748 943.856 248.825 950.537 255.951L950.088 256.115C946.61 257.424 943.298 259.309 939.879 260.852C935.017 262.999 930.06 264.924 925.023 266.623C884.528 279.932 841.294 282.623 799.46 274.438C803.172 268.419 805.353 265.652 810.117 260.385C814.296 255.649 816.991 252.904 821.971 249.046Z"/><path fill="#5350BE" d="M821.971 249.046C850.731 226.06 885.96 221.267 920.07 234.634C898.806 249.546 848.688 251.855 822.445 249.152C822.287 249.117 822.129 249.081 821.971 249.046Z"/><path fill="#5591F4" d="M920.07 234.634L926.543 237.9C918.987 247.833 876.32 256.096 862.744 257.901C855.206 258.902 816.145 263.171 810.117 260.385C814.296 255.649 816.991 252.904 821.971 249.046C822.129 249.081 822.287 249.117 822.445 249.152C848.688 251.855 898.806 249.546 920.07 234.634Z"/><path fill="#5591F4" d="M950.537 255.951C953.918 259.633 957.358 263.209 960.285 267.263C954.343 271.738 943.091 276.181 935.812 278.679C891.077 294.035 846.357 296.415 799.77 289.404C797.487 289.061 795.224 288.843 793.066 288.059C794.926 283.396 797.061 278.848 799.46 274.438C841.294 282.623 884.528 279.932 925.023 266.623C930.06 264.924 935.017 262.999 939.879 260.852C943.298 259.309 946.61 257.424 950.088 256.115L950.537 255.951Z"/><path fill="#5350BE" d="M786.846 309.869C793.74 310.175 803.938 311.806 811.223 312.475C827.857 314.089 844.609 314.097 861.245 312.498C896.877 308.947 939.314 300.6 963.229 271.413C965.495 274.993 967.524 278.718 969.305 282.562C974.063 292.826 976.041 299.244 977.807 310.566C978.397 316.918 978.487 320.657 978.536 327.081C972.498 329.27 966.397 333.303 960.489 336.001C917.591 355.593 868.769 360.479 822.209 355.292C812.328 354.188 799.33 352.924 790.558 348.944C789.533 345.66 788.929 343.228 788.184 339.862C787.376 336.535 786.928 332.38 786.464 328.927C785.974 322.066 786.28 316.653 786.846 309.869Z"/><path fill="#5591F4" d="M786.846 309.869C793.74 310.175 803.938 311.806 811.223 312.475C827.857 314.089 844.609 314.097 861.245 312.498C896.877 308.947 939.314 300.6 963.229 271.413C965.495 274.993 967.524 278.718 969.305 282.562C933.188 319.348 868.776 331.041 819.61 330.511C810.327 330.411 795.457 330.651 786.464 328.927C785.974 322.066 786.28 316.653 786.846 309.869Z"/><path fill="#5591F4" d="M977.807 310.566C978.397 316.918 978.487 320.657 978.536 327.081C972.498 329.27 966.397 333.303 960.489 336.001C917.591 355.593 868.769 360.479 822.209 355.292C812.328 354.188 799.33 352.924 790.558 348.944C789.533 345.66 788.929 343.228 788.184 339.862C789.94 339.054 800.053 341.098 802.626 341.485C809.751 342.536 816.914 343.316 824.098 343.826C863.959 346.722 911.128 342.674 948.324 326.78C959.624 321.952 967.497 316.769 977.807 310.566Z"/><path fill="#5350BE" d="M812.417 386.694C822.676 387.919 834.326 390.744 845.118 392.114C887.294 397.467 923.394 391.826 962.86 376.442C952.041 394.874 929.465 408.929 909.039 414.165C883.076 420.837 855.527 416.935 832.44 403.315C825.885 399.414 817.067 392.85 812.417 386.694Z"/><path fill="#5591F4" d="M801.63 373.042C803.414 373.13 811.655 374.92 813.812 375.335C820.001 376.519 826.225 377.51 832.475 378.305C874.719 383.803 918.353 379.731 957.822 363.185C962.172 361.361 968.514 356.946 972.85 355.92C970.537 361.989 966.596 371.093 962.86 376.442C923.394 391.826 887.294 397.467 845.118 392.114C834.326 390.744 822.676 387.919 812.417 386.694C808.278 382.96 804.594 377.735 801.63 373.042Z"/><path fill="#5591F4" d="M904.905 45.2181C912.632 39.8502 922.177 37.7754 931.436 39.4511C936.226 40.2862 942.378 42.5611 946.12 45.6873C950.789 48.3036 954.045 51.7097 957.402 55.8268C959.096 58.2667 960.491 60.2474 961.945 62.845C962.997 65.2746 964.076 67.603 964.874 70.1282C965.62 73.1014 965.948 76.7229 966.057 79.7959C965.901 83.0797 965.779 85.3965 965.311 88.6631C964.457 91.6841 962.611 98.4377 960.451 100.649C957.873 104.498 956.009 106.648 952.478 109.724C945.862 116.153 936.06 119.405 926.988 119.673C914.105 120.053 906.172 116.599 897.006 108.097L894.498 105.266C891.502 101.747 890.358 99.203 888.636 95.0224C887.065 91.3153 886.55 88.5437 885.662 84.5988C885.384 82.1132 885.381 78.9489 885.307 76.3981C885.796 72.1129 886.399 69.9675 887.641 65.8607C888.978 62.7988 890.589 59.5813 892.587 56.9056C896.412 51.2495 899.211 48.8662 904.905 45.2181Z"/><path fill="#5591F4" d="M904.905 45.2181C912.632 39.8502 922.177 37.7754 931.436 39.4511C936.226 40.2862 942.378 42.5611 946.12 45.6873C950.789 48.3036 954.045 51.7097 957.402 55.8268C959.096 58.2667 960.491 60.2474 961.945 62.845C962.997 65.2746 964.076 67.603 964.874 70.1282C963.058 72.3605 953.002 73.3278 949.941 73.7634C928.324 76.8404 907.086 77.2468 885.307 76.3981C885.796 72.1129 886.399 69.9675 887.641 65.8607C888.978 62.7988 890.589 59.5813 892.587 56.9056C896.412 51.2495 899.211 48.8662 904.905 45.2181Z"/><path fill="#5591F4" d="M904.905 45.2181C912.632 39.8502 922.177 37.7754 931.436 39.4511C936.226 40.2862 942.378 42.5611 946.12 45.6873C950.789 48.3036 954.045 51.7097 957.402 55.8268C949.79 57.5046 897.338 60.1001 892.587 56.9056C896.412 51.2495 899.211 48.8662 904.905 45.2181Z"/><path fill="#5350BE" d="M904.905 45.2181C912.632 39.8502 922.177 37.7754 931.436 39.4511C936.226 40.2862 942.378 42.5611 946.12 45.6873C944.811 45.8928 935.886 44.6855 934.093 44.4134C925.025 43.0369 913.419 46.238 904.905 45.2181Z"/><path fill="#5350BE" d="M957.402 55.8268C959.096 58.2667 960.491 60.2474 961.945 62.845C935.453 66.0173 914.15 66.1487 887.641 65.8607C888.978 62.7988 890.589 59.5813 892.587 56.9056C897.338 60.1001 949.79 57.5046 957.402 55.8268Z"/><path fill="#5591F4" d="M894.498 105.266C901.274 104.398 915.305 104.986 923.733 104.37C930.847 103.848 937.948 103.147 945.027 102.266C948.734 101.808 957.175 100.517 960.451 100.649C957.873 104.498 956.009 106.648 952.478 109.724C945.862 116.153 936.06 119.405 926.988 119.673C914.105 120.053 906.172 116.599 897.006 108.097L894.498 105.266Z"/><path fill="#5350BE" d="M897.006 108.097C901.144 107.527 903.196 112.394 908.03 112.982C924.207 114.95 937.015 111.979 952.478 109.724C945.862 116.153 936.06 119.405 926.988 119.673C914.105 120.053 906.172 116.599 897.006 108.097Z"/><path fill="#5350BE" d="M888.636 95.0224C906.297 97.4083 948.186 93.6124 965.311 88.6631C964.457 91.6841 962.611 98.4377 960.451 100.649C957.175 100.517 948.734 101.808 945.027 102.266C937.948 103.147 930.847 103.848 923.733 104.37C915.305 104.986 901.274 104.398 894.498 105.266C891.502 101.747 890.358 99.203 888.636 95.0224Z"/><path fill="#5350BE" d="M964.874 70.1282C965.62 73.1014 965.948 76.7229 966.057 79.7959C947.497 83.0067 926.482 84.4363 907.627 84.9182C900.384 85.1034 892.694 84.4185 885.662 84.5988C885.384 82.1132 885.381 78.9489 885.307 76.3981C907.086 77.2468 928.324 76.8404 949.941 73.7634C953.002 73.3278 963.058 72.3605 964.874 70.1282Z"/><path fill="#05B3FC" d="M939.954 536.391C951.495 533.904 962.858 541.273 965.294 552.825C967.73 564.377 960.31 575.707 948.748 578.092C937.258 580.461 926.013 573.098 923.593 561.618C921.172 550.139 928.486 538.862 939.954 536.391Z"/><path fill="#F0FAFC" d="M867.216 498.599C870.065 499.792 872.19 509.716 876.026 512.7C878.14 514.344 878.895 514.795 881.306 516.197C872.719 523.944 873.948 521.949 869.017 533.642C868.243 534.495 868.592 534.256 867.475 534.597C866.226 533.495 863.957 524.36 861.331 521.476C859.383 519.336 858.032 518.001 855.711 515.905L861.235 512.947C863.805 508.443 865.443 503.476 867.216 498.599Z"/><path fill="#F0FAFC" d="M976.625 452.808C978.121 454.198 979.849 460.294 980.973 462.888C983.97 465.301 986.616 466.22 990.14 467.602C986.869 469.521 982.199 471.738 979.681 474.204C978.772 477.194 977.776 480.158 976.695 483.092C975.425 481.499 973.488 475.321 972.677 473.027C970.542 471.461 966.405 469.275 963.702 467.452C967.45 465.647 969.226 464.776 972.611 462.437C973.704 460.432 975.569 455.285 976.625 452.808Z"/><path fill="#07BCEF" d="M980 194.828C982.148 193.835 984.666 194.084 986.579 195.477C988.491 196.87 989.5 199.19 989.214 201.54C988.928 203.889 987.393 205.899 985.202 206.793C981.918 208.132 978.167 206.605 976.753 203.353C975.339 200.101 976.781 196.316 980 194.828Z"/><path fill="#F0FAFC" d="M988.082 29.9093C990.37 29.3886 992.655 30.7872 993.233 33.0613C993.811 35.3355 992.47 37.6555 990.211 38.29C988.699 38.7148 987.075 38.2861 985.969 37.1702C984.863 36.0542 984.45 34.4264 984.889 32.9181C985.328 31.4097 986.55 30.2579 988.082 29.9093Z"/><path fill="#F0FAFC" d="M889.976 584.211C890.938 583.644 892.133 583.654 893.085 584.235C894.038 584.817 894.592 585.876 894.527 586.99C894.462 588.104 893.788 589.091 892.775 589.558C891.313 590.231 889.58 589.641 888.834 588.215C888.087 586.789 888.59 585.028 889.976 584.211Z"/><path fill="#F0FAFC" d="M861.417 34.7312C862.643 34.2179 864.057 34.7452 864.647 35.9359C865.238 37.1266 864.802 38.5711 863.651 39.2363C862.839 39.7061 861.832 39.6853 861.04 39.1824C860.247 38.6794 859.8 37.7777 859.879 36.8424C859.959 35.9072 860.551 35.0936 861.417 34.7312Z"/><path fill="#F0FAFC" d="M609.304 584.78C610.099 584.338 611.072 584.37 611.836 584.864C612.6 585.358 613.029 586.232 612.952 587.138C612.875 588.044 612.305 588.834 611.469 589.192C610.265 589.708 608.868 589.19 608.291 588.014C607.714 586.838 608.159 585.416 609.304 584.78Z"/></svg>