<?xml version="1.0" encoding="utf-8" ?><svg xmlns="http://www.w3.org/2000/svg" xmlns:xlink="http://www.w3.org/1999/xlink" width="1024" height="1024" viewBox="0 0 1024 1024"><path fill="#020937" d="M0 0L390.666 0L547.74 0L793.742 0L1024 0L1024 147.275L1024 347.629L1024 373.887L1024 505.933L1024 691.234L1024 809.874L1024 1024L840.413 1024L711.73 1024L654.429 1024L563.959 1024L498.645 1024L324.264 1024L0 1024L0 902.975L0 685.344L0 518.186L0 444.736L0 346.054L0 0Z"/><path fill="#F43487" d="M941.876 237.414C950.242 229.154 960.649 221.669 969.424 212.616C988.681 192.748 1007.83 169.661 1024 147.275L1024 347.629L1024 373.887L1024 505.933L1024 691.234L1024 809.874L1024 1024L840.413 1024L711.73 1024L654.429 1024L563.959 1024L498.645 1024C497.122 958.501 524.047 902.927 580.496 868.09C603.09 854.147 625.496 848.492 651.569 845.386C647.16 826.846 643.192 808.205 639.666 789.478C638.635 784.864 637.781 780.091 636.892 775.439C633.963 761.653 631.198 747.443 628.04 733.764C620.827 703.028 612.761 672.498 603.849 642.211C600.014 629.473 592.25 601.462 586.734 590.146C568.339 582.216 561.633 573.787 553.653 555.016C559.48 553.312 571.552 551.086 577.875 549.771L625.376 540.04C637.914 536.101 642.831 529.922 644.654 516.8C645.97 507.327 644.447 496.127 638.448 488.378C632.474 480.038 624.177 478.946 614.843 477.795L618.276 475.565C618.45 471.242 620.158 465.21 620.952 460.895C635.189 383.536 678.275 312.69 759.696 294.434C770.156 291.894 781.101 289.042 791.791 287.758C828.164 283.39 865.306 281.187 898.746 264.646C905.143 261.482 925.742 250.959 928.474 245.444C929.01 242.501 930.79 239.931 933.356 238.393C935.923 236.856 939.028 236.499 941.876 237.414Z"/><path fill="#FD669C" d="M941.876 237.414C950.242 229.154 960.649 221.669 969.424 212.616C988.681 192.748 1007.83 169.661 1024 147.275L1024 347.629L1024 373.887L1023.41 374.204C998.498 387.461 957.28 395.951 930.314 386.947C910.432 381.193 894.741 368.767 879.029 355.531C853.255 333.818 831.601 322.351 797.613 317.672C748.335 310.887 736.111 358.394 755.74 395.528C774.805 431.594 816.82 443.017 850.072 461.348C866.201 470.239 881.531 483.854 891.964 499.262C899.695 510.608 905.394 523.212 908.805 536.511C914.528 558.669 914.34 581.939 908.261 604.002C900.738 631.349 885.65 652.043 860.825 666.284C830.35 683.87 790.78 688.134 779.068 726.661C767.492 764.739 796.492 805.227 770.744 839.247C748.957 868.033 716.898 868.272 684.561 872.73C672.696 874.366 659.52 878.455 648.674 883.269C596.394 907.394 565.04 967.633 563.959 1024L498.645 1024C497.122 958.501 524.047 902.927 580.496 868.09C603.09 854.147 625.496 848.492 651.569 845.386C647.16 826.846 643.192 808.205 639.666 789.478C638.635 784.864 637.781 780.091 636.892 775.439C633.963 761.653 631.198 747.443 628.04 733.764C620.827 703.028 612.761 672.498 603.849 642.211C600.014 629.473 592.25 601.462 586.734 590.146C568.339 582.216 561.633 573.787 553.653 555.016C559.48 553.312 571.552 551.086 577.875 549.771L625.376 540.04C637.914 536.101 642.831 529.922 644.654 516.8C645.97 507.327 644.447 496.127 638.448 488.378C632.474 480.038 624.177 478.946 614.843 477.795L618.276 475.565C618.45 471.242 620.158 465.21 620.952 460.895C635.189 383.536 678.275 312.69 759.696 294.434C770.156 291.894 781.101 289.042 791.791 287.758C828.164 283.39 865.306 281.187 898.746 264.646C905.143 261.482 925.742 250.959 928.474 245.444C929.01 242.501 930.79 239.931 933.356 238.393C935.923 236.856 939.028 236.499 941.876 237.414Z"/><path fill="#43187F" d="M941.876 237.414C950.242 229.154 960.649 221.669 969.424 212.616C988.681 192.748 1007.83 169.661 1024 147.275L1024 347.629C1016.31 351.473 1008.16 355.582 1000 358.414C978.38 365.917 954.571 366.899 932.75 359.691C912.804 353.103 898.822 339.66 881.904 327.697C843.01 300.194 797.07 295.848 753.872 316.381C731.119 327.195 713.42 344.395 704.87 368.484C698.808 385.563 699.537 407.391 707.622 423.682C709.328 427.121 711.301 430.792 713.401 434.05C714.65 435.988 717.314 439.007 718.204 440.809C717.954 450.327 718.326 459.54 718.575 469.043C718.996 485.159 720.722 505.388 707.752 517.509C705.5 519.584 702.984 521.351 700.268 522.765C698.41 523.716 689.753 527.09 688.482 528.288C672.845 543.021 710.254 548.934 708.25 566.018C707.045 576.281 702.378 577.05 701.653 583.311L701.188 581.918C699.774 582.5 700.208 582.319 699.218 583.452C695.994 587.144 691.661 589.769 687.977 592.898C674.152 604.644 659.03 611.984 643.652 621.144C640.045 613.804 624.139 578.466 623.915 572.36C623.78 568.682 624.824 564.768 625.319 561.118C625.852 557.188 626.021 553.335 626.04 549.372C625.856 546.259 625.635 543.148 625.376 540.04C637.914 536.101 642.831 529.922 644.654 516.8C645.97 507.327 644.447 496.127 638.448 488.378C632.474 480.038 624.177 478.946 614.843 477.795L618.276 475.565C618.45 471.242 620.158 465.21 620.952 460.895C635.189 383.536 678.275 312.69 759.696 294.434C770.156 291.894 781.101 289.042 791.791 287.758C828.164 283.39 865.306 281.187 898.746 264.646C905.143 261.482 925.742 250.959 928.474 245.444C929.01 242.501 930.79 239.931 933.356 238.393C935.923 236.856 939.028 236.499 941.876 237.414Z"/><path fill="#8E0E8E" d="M618.276 475.565C620.151 474.759 623.914 473.132 625.826 472.915C633.684 472.137 653.269 470.839 660.124 473.824C680.229 482.577 684.999 510.894 676.867 529.441C665.99 554.244 647.942 549.596 626.04 549.372C625.856 546.259 625.635 543.148 625.376 540.04C637.914 536.101 642.831 529.922 644.654 516.8C645.97 507.327 644.447 496.127 638.448 488.378C632.474 480.038 624.177 478.946 614.843 477.795L618.276 475.565Z"/><path fill="#5350BE" d="M928.474 245.444C929.01 242.501 930.79 239.931 933.356 238.393C935.923 236.856 939.028 236.499 941.876 237.414C947.173 239.116 950.19 244.687 948.72 250.053C947.25 255.419 941.815 258.675 936.39 257.441C930.966 256.206 927.476 250.917 928.474 245.444Z"/><path fill="#1D5FBA" d="M959.531 288.258C962.796 287.193 966.309 288.96 967.4 292.217C968.49 295.474 966.75 299.001 963.502 300.117C960.218 301.244 956.644 299.481 955.541 296.188C954.439 292.895 956.23 289.335 959.531 288.258Z"/><path fill="#93D6F4" d="M701.653 583.311C702.378 577.05 707.045 576.281 708.25 566.018C710.254 548.934 672.845 543.021 688.482 528.288C689.753 527.09 698.41 523.716 700.268 522.765C702.984 521.351 705.5 519.584 707.752 517.509C720.722 505.388 718.996 485.159 718.575 469.043C718.326 459.54 717.954 450.327 718.204 440.809C730.961 454.188 742.264 461.717 760.222 467.364C773.105 471.415 785.714 472.298 798.851 474.421C823.013 478.325 842.267 489.644 854.776 511.077C863.536 526.086 867.148 542.753 866.761 560.148C866.129 589.149 853.882 616.683 832.766 636.573C822.531 646.155 810.768 653.961 797.961 659.668C796.268 653.378 792.397 645.687 788.972 640.137C767.753 647.872 728.894 655.546 715.357 630.39C711.276 622.807 711.781 616.89 714.168 609.023C704.133 606.676 700.818 601.134 706.965 592.392C703.896 588.943 702.758 587.917 701.653 583.311Z"/><path fill="#93D6F4" d="M553.653 555.016C559.48 553.312 571.552 551.086 577.875 549.771L625.376 540.04C625.635 543.148 625.856 546.259 626.04 549.372C626.021 553.335 625.852 557.188 625.319 561.118C624.824 564.768 623.78 568.682 623.915 572.36C624.139 578.466 640.045 613.804 643.652 621.144C660.719 657.761 678.232 688.419 698.758 722.878C694.433 729.559 690.835 736.647 686.226 743.142C676.19 757.285 664.487 770.401 651.091 781.449C648.465 783.616 642.825 788.199 639.666 789.478C638.635 784.864 637.781 780.091 636.892 775.439C633.963 761.653 631.198 747.443 628.04 733.764C620.827 703.028 612.761 672.498 603.849 642.211C600.014 629.473 592.25 601.462 586.734 590.146C568.339 582.216 561.633 573.787 553.653 555.016Z"/><path fill="#020937" d="M643.652 621.144C659.03 611.984 674.152 604.644 687.977 592.898C691.661 589.769 695.994 587.144 699.218 583.452C700.208 582.319 699.774 582.5 701.188 581.918L701.653 583.311C702.758 587.917 703.896 588.943 706.965 592.392C700.818 601.134 704.133 606.676 714.168 609.023C711.781 616.89 711.276 622.807 715.357 630.39C728.894 655.546 767.753 647.872 788.972 640.137C792.397 645.687 796.268 653.378 797.961 659.668C767.139 674.941 749.502 687.105 738.374 721.541C735.213 731.326 732.778 740.295 730.417 750.45C729.58 754.05 727.746 762.245 726.635 765.62C718.432 755.557 705.668 734.334 698.758 722.878C678.232 688.419 660.719 657.761 643.652 621.144Z"/><path fill="#05B3FC" d="M698.758 722.878C705.668 734.334 718.432 755.557 726.635 765.62C721.575 790.46 709.593 817.196 687.869 831.594C676.891 838.728 664.514 843.43 651.569 845.386C647.16 826.846 643.192 808.205 639.666 789.478C642.825 788.199 648.465 783.616 651.091 781.449C664.487 770.401 676.19 757.285 686.226 743.142C690.835 736.647 694.433 729.559 698.758 722.878Z"/><path fill="#8E0E8E" d="M1024 691.234L1024 809.874L1024 1024L840.413 1024L711.73 1024C712.308 1019.55 714.26 1012.8 716.099 1008.69C732.382 972.335 762.789 955.27 800.807 948.68C817.479 945.791 833.865 944.62 849.216 938.23C877.854 927.151 893.495 901.371 891.514 871.001C889.648 842.392 885.736 820.065 901.933 794.502C911.587 777.717 927.916 764.397 945.077 755.29C980.103 736.702 1007.32 730.894 1024 691.234Z"/><path fill="#F43487" d="M1024 809.874L1024 1024L840.413 1024C840.618 1011.51 843.509 1000.46 850.533 990.163C871.642 959.223 913.03 971.236 934.414 948.573C945.67 935.445 940.279 913.277 938.88 897.87C935.023 855.373 960.52 824.619 1000.79 813.812C1008.16 811.835 1016.28 811.032 1024 809.874Z"/><path fill="#020937" d="M535.882 558.792C541.226 557.949 548.192 556.22 553.653 555.016C561.633 573.787 568.339 582.216 586.734 590.146C592.25 601.462 600.014 629.473 603.849 642.211C612.761 672.498 620.827 703.028 628.04 733.764C631.198 747.443 633.963 761.653 636.892 775.439C637.781 780.091 638.635 784.864 639.666 789.478C643.192 808.205 647.16 826.846 651.569 845.386C625.496 848.492 603.09 854.147 580.496 868.09C524.047 902.927 497.122 958.501 498.645 1024L324.264 1024L0 1024L0 902.975L0 685.344C3.48428 681.674 6.35356 677.444 9.6936 673.794C15.0899 667.897 21.3295 661.466 27.2806 656.178C70.5141 617.763 129.222 599.391 185.474 618.085C216.474 628.387 240.027 642.231 275.062 631.181C291.717 625.928 305.532 616.231 318.48 604.818C320.82 602.755 324.906 600.15 326.188 597.679C341.897 600.486 352.601 597.37 367.737 593.784C374.653 592.145 381.699 590.992 388.633 589.188L454.576 575.621C481.36 570.155 509.224 564.694 535.882 558.792Z"/><path fill="#43187F" d="M535.882 558.792C541.226 557.949 548.192 556.22 553.653 555.016C561.633 573.787 568.339 582.216 586.734 590.146C592.25 601.462 600.014 629.473 603.849 642.211C599.18 643.233 593.139 646.534 588.31 648.115C577.271 651.73 564.894 654.752 553.445 656.274C535.235 658.696 516.327 657.726 498.003 658.368C437.412 660.491 393.857 684.298 361.181 736.239C332.222 782.273 317.125 827.128 257.182 840.607C231.868 846.3 210.264 844.132 185.048 839.144C179.896 838.125 174.199 837.353 168.888 836.151L164.413 834.934C146.126 846.744 132.87 849.833 110.586 845.819C103.454 844.535 98.5885 840.627 95.032 839.855C83.3077 837.313 66.824 842.291 56.5975 847.278L56.0232 847.687C54.3285 848.871 51.7794 850.154 49.8891 851.322C27.6204 865.081 15.1066 882.263 0 902.975L0 685.344C3.48428 681.674 6.35356 677.444 9.6936 673.794C15.0899 667.897 21.3295 661.466 27.2806 656.178C70.5141 617.763 129.222 599.391 185.474 618.085C216.474 628.387 240.027 642.231 275.062 631.181C291.717 625.928 305.532 616.231 318.48 604.818C320.82 602.755 324.906 600.15 326.188 597.679C341.897 600.486 352.601 597.37 367.737 593.784C374.653 592.145 381.699 590.992 388.633 589.188L454.576 575.621C481.36 570.155 509.224 564.694 535.882 558.792Z"/><path fill="#12397B" d="M91.9969 838.5C85.0147 831.871 80.0736 823.384 77.7561 814.039C74.7193 802.043 76.0924 790.603 82.4213 779.955C97.3109 754.903 127.805 747.493 152.812 762.759C174.989 776.298 182.035 801.25 172.633 825.338C171.726 827.662 169.127 830.434 167.989 832.692C167.31 833.992 168.274 835.004 168.888 836.151L164.413 834.934C146.126 846.744 132.87 849.833 110.586 845.819C103.454 844.535 98.5885 840.627 95.032 839.855C83.3077 837.313 66.824 842.291 56.5975 847.278C59.2654 841.021 85.3896 838.432 91.9969 838.5Z"/><path fill="#1D5FBA" d="M120.092 771.703C135.772 770.764 149.258 782.681 150.259 798.356C151.259 814.031 139.397 827.565 123.725 828.628C107.966 829.697 94.3389 817.753 93.3328 801.989C92.3268 786.225 104.325 772.646 120.092 771.703Z"/><path fill="#268AD8" d="M101.872 788.095C104.953 782.875 106.385 781.582 112.595 779.955C117.638 778.635 123.308 779.441 127.717 782.311C132.199 785.272 135.293 789.921 136.293 795.199C137.214 800.523 135.929 805.994 132.735 810.352C129.499 814.759 124.593 817.642 119.168 818.325C113.783 819.107 108.314 817.634 104.049 814.254C103.178 813.573 102.975 813.335 102.35 812.472C95.8276 804.275 96.0899 796.491 101.872 788.095Z"/><path fill="#93D6F4" d="M101.872 788.095C108.612 785.454 108.624 784.519 116.372 785.121C120.941 787.828 123.105 789.496 123.72 795.178C124.516 800.854 124.481 804.883 118.318 807.171C115.656 808.159 114.494 807.557 112.002 809.148C109.192 810.109 106.384 810.647 103.283 811.007C102.972 811.496 102.661 811.984 102.35 812.472C95.8276 804.275 96.0899 796.491 101.872 788.095Z"/><path fill="#61ECEE" d="M112.002 809.148C100.19 798.342 110.502 781.089 123.72 795.178C124.516 800.854 124.481 804.883 118.318 807.171C115.656 808.159 114.494 807.557 112.002 809.148Z"/><path fill="#268AD8" d="M259.74 757.257C262.895 756.714 266.129 757.6 268.567 759.674C271.006 761.748 272.399 764.798 272.369 768C272.323 772.9 268.983 777.156 264.233 778.365C260.396 779.341 256.332 778.139 253.644 775.232C250.955 772.325 250.073 768.18 251.344 764.431C252.616 760.681 255.838 757.928 259.74 757.257Z"/><path fill="#1D5FBA" d="M312.187 663.838C314.54 665.915 315.12 673.405 315.607 676.802C318.274 677.057 324.954 677.239 326.186 679.645C324.407 682.015 318.209 682.617 315.131 683.154C314.681 688.199 314.249 691.421 312.275 696.081C310.973 692.733 310.459 686.868 310.026 683.118C307.524 682.756 298.716 682.021 297.934 679.572C300.252 677.365 305.876 676.836 309.092 676.293C309.872 671.964 310.74 667.99 312.187 663.838Z"/><path fill="#F0FAFC" d="M176.999 670.245C179.054 669.444 181.373 670.421 182.235 672.451C183.097 674.48 182.19 676.828 180.188 677.751C178.838 678.373 177.256 678.212 176.059 677.329C174.862 676.447 174.241 674.983 174.436 673.509C174.632 672.035 175.614 670.785 176.999 670.245Z"/><path fill="#43187F" d="M636.892 775.439C637.781 780.091 638.635 784.864 639.666 789.478C643.192 808.205 647.16 826.846 651.569 845.386C625.496 848.492 603.09 854.147 580.496 868.09C524.047 902.927 497.122 958.501 498.645 1024L324.264 1024C327.533 1023.02 333.786 1022.28 337.331 1021.75C345.098 1020.6 350.021 1019.19 357.247 1016.57C370.294 1011.83 380.735 1005.54 392.488 998.941C441.122 971.618 471.874 927.936 501.728 882.343C521.336 852.397 543.974 821.41 574.562 801.763C587.381 793.637 601.033 786.135 615.521 781.484C622.544 779.229 630.116 778.302 636.892 775.439Z"/><path fill="#6273D0" d="M582.249 816.805C584.938 816.173 587.647 817.772 588.393 820.431C589.138 823.091 587.655 825.865 585.03 826.723C583.23 827.311 581.252 826.864 579.879 825.56C578.506 824.255 577.959 822.303 578.454 820.475C578.949 818.648 580.406 817.238 582.249 816.805Z"/><path fill="#43187F" d="M433.703 760.809C455.008 758.084 474.497 773.123 477.264 794.422C480.031 815.722 465.031 835.241 443.737 838.05C422.383 840.867 402.798 825.816 400.023 804.456C397.248 783.097 412.338 763.542 433.703 760.809Z"/><path fill="#8E0E8E" d="M437.204 775.743C450.218 774.845 461.516 784.623 462.494 797.632C463.472 810.641 453.762 821.998 440.759 823.055C427.644 824.121 416.168 814.309 415.181 801.188C414.195 788.067 424.077 776.65 437.204 775.743Z"/><path fill="#B91D90" d="M433.651 782.355C442.804 780.195 451.985 785.825 454.21 794.962C456.436 804.099 450.873 813.32 441.752 815.611C432.538 817.926 423.201 812.293 420.953 803.063C418.704 793.832 424.404 784.536 433.651 782.355Z"/><path fill="#F0FAFC" d="M432.125 789.342C437.453 788.231 442.677 791.634 443.814 796.957C444.951 802.279 441.572 807.52 436.254 808.681C430.902 809.85 425.619 806.444 424.475 801.086C423.331 795.728 426.762 790.461 432.125 789.342Z"/><path fill="#F0FAFC" d="M229.644 875.35C233.319 889.794 231.022 907.404 241.493 921.757C251.602 935.615 272.514 939.031 288.557 941.467C274.795 945.313 261.715 945.117 248.755 953.867C234.1 963.761 232.412 987.942 229.387 1004.81L229.068 1005.08C226.38 992.031 224.879 971.855 217.414 961.032C207.886 947.22 186.182 944.186 170.7 941.489C183.19 939.112 196.49 937.916 207.592 931.495C227.872 919.767 224.28 895.443 229.483 875.931L229.644 875.35Z"/><path fill="#F0FAFC" d="M536.142 689.161C536.745 689.42 537.417 689.641 537.432 690.456C537.867 714.082 548.269 717.946 569.685 720.944C564.314 721.949 560.357 721.468 554.777 723.386C541.157 728.068 538.544 736.697 537.291 749.381C537.177 750.897 537.256 751.129 536.619 752.536C535.229 749.701 536.242 740.476 532.834 734.702C527.19 725.14 519.061 723.676 509.324 720.877C530.407 715.735 535.22 711.224 536.142 689.161Z"/><path fill="#5350BE" d="M82.6019 962.766C88.7428 961.867 94.4432 966.134 95.3105 972.28C96.1778 978.425 91.881 984.103 85.7312 984.939C79.626 985.769 73.9977 981.51 73.1367 975.409C72.2758 969.308 76.5056 963.658 82.6019 962.766Z"/><path fill="#5350BE" d="M408.648 915.029C414.737 914.945 419.763 919.769 419.928 925.856C420.093 931.943 415.337 937.033 409.253 937.28C405.244 937.443 401.457 935.436 399.342 932.026C397.227 928.616 397.111 924.332 399.038 920.813C400.965 917.294 404.637 915.084 408.648 915.029Z"/><path fill="#6273D0" d="M344.666 976.825C347.647 975.671 351.001 977.145 352.168 980.122C353.336 983.098 351.877 986.459 348.905 987.639C345.915 988.827 342.529 987.357 341.355 984.361C340.18 981.366 341.665 977.987 344.666 976.825Z"/><path fill="#F0FAFC" d="M348.142 878.358C350.769 877.947 353.237 879.728 353.676 882.35C354.115 884.972 352.362 887.459 349.744 887.927C348.026 888.234 346.275 887.593 345.159 886.25C344.044 884.907 343.736 883.069 344.353 881.436C344.971 879.803 346.418 878.627 348.142 878.358Z"/><path fill="#12397B" d="M0 0L390.666 0L547.74 0C536.638 7.92493 525.732 15.8137 515.354 24.8521C487.888 48.7736 462.794 80.0702 443.214 110.7C430.294 130.91 418.433 156.478 408.299 178.366C384.027 232.003 356.274 305.693 282.831 292.665C268.359 290.098 238.754 281.089 226.786 290.693C205 308.175 237.042 345.905 203.08 358.691C185.132 365.447 165.885 364.388 149.058 373.616C135.766 381.069 128.175 394.68 118.86 406.207C92.4443 441.347 52.2705 452.616 9.55564 446.421C6.3573 445.936 3.17116 445.375 -7.10543e-15 444.736L0 346.054L0 0Z"/><path fill="#43187F" d="M0 0L390.666 0C386.915 2.36388 379.818 4.64466 375.454 6.28267C370.024 8.3032 364.66 10.4974 359.371 12.862C318.004 31.0974 280.349 56.0841 268.31 102.44C266.425 109.803 265.011 117.279 264.075 124.822C261.601 144.224 260.815 177.175 242.163 188.592C226.317 198.291 194.469 191.008 175.416 189.881C113.379 184.669 57.6343 211.607 41.5762 275.694C39.5315 283.854 37.563 292.336 35.9169 300.812C30.9725 326.271 27.874 340.759 0 346.054L0 0Z"/><path fill="#8E0E8E" d="M86.7149 59.0926C102.128 58.402 115.185 70.3339 115.881 85.747C116.578 101.16 104.651 114.221 89.2385 114.924C73.817 115.627 60.747 103.692 60.0499 88.2707C59.3528 72.8489 71.2928 59.7836 86.7149 59.0926Z"/><path fill="#F43487" d="M82.5752 67.3714C92.4187 64.8287 102.457 70.7606 104.977 80.6099C107.497 90.4592 101.542 100.483 91.6874 102.981C81.8641 105.471 71.879 99.5398 69.3667 89.7222C66.8545 79.9045 72.7633 69.9059 82.5752 67.3714Z"/><path fill="#F0FAFC" d="M80.1735 78.8146C83.3648 77.4529 87.0569 78.9219 88.4404 82.1038C89.8239 85.2857 88.3802 88.9877 85.2079 90.393C82.0046 91.8119 78.2587 90.3511 76.8617 87.1382C75.4647 83.9254 76.9512 80.1895 80.1735 78.8146Z"/><path fill="#FB4995" d="M190.483 114.748C193.614 113.828 196.997 114.671 199.331 116.951C201.665 119.232 202.586 122.595 201.739 125.747C200.892 128.898 198.41 131.347 195.247 132.15C190.48 133.361 185.621 130.531 184.322 125.787C183.024 121.044 185.764 116.134 190.483 114.748Z"/><path fill="#05B3FC" d="M49.5264 183.203C51.5471 182.485 53.7982 182.917 55.4097 184.332C57.0212 185.747 57.7406 187.923 57.2901 190.02C56.8395 192.116 55.2895 193.805 53.239 194.433C50.1639 195.375 46.8997 193.687 45.8902 190.634C44.8807 187.58 46.4958 184.279 49.5264 183.203Z"/><path fill="#F0FAFC" d="M201.036 60.2058C203.678 59.4138 206.47 60.8695 207.333 63.4888C208.196 66.1082 206.817 68.9386 204.221 69.8723C202.479 70.4992 200.534 70.1306 199.142 68.9099C197.75 67.6892 197.13 65.8089 197.524 63.9996C197.917 62.1904 199.262 60.7376 201.036 60.2058Z"/><path fill="#F0FAFC" d="M149.202 194.39C150.174 195.463 152.999 220.123 154.1 224.63C161.732 255.872 183.338 258.74 213.217 263.566C205.228 264.528 197.36 265.455 189.407 266.736C155.346 272.225 153.243 298.049 149.657 327.237C148.904 325.875 148.458 320.808 148.229 319.055C146.292 304.193 145.166 288.705 133.364 277.984C122.785 268.374 110.139 266.475 96.4953 264.714C92.9403 264.255 89.0475 263.77 85.6111 262.812C136.952 259.17 145.643 242.465 149.202 194.39Z"/><path fill="#0CC2B5" d="M376.205 67.2691C379.343 66.9691 382.459 68.0249 384.769 70.1703C387.078 72.3157 388.36 75.346 388.292 78.4974C388.174 83.9189 384.135 88.4519 378.763 89.1923C374.802 89.7383 370.856 88.0995 368.446 84.9084C366.037 81.7173 365.542 77.4729 367.152 73.8129C368.762 70.1529 372.225 67.6497 376.205 67.2691Z"/><path fill="#0CC2B5" d="M69.5613 338.666C74.9668 338.223 79.7117 342.237 80.1726 347.64C80.6335 353.044 76.6367 357.803 71.2344 358.283C65.8057 358.764 61.0187 354.744 60.5556 349.314C60.0924 343.883 64.1295 339.11 69.5613 338.666Z"/><path fill="#05B3FC" d="M318.117 156.86C319.07 158.1 320.079 161.793 320.618 163.464C322.533 165.018 324.941 166.294 327.095 167.547C324.713 168.847 322.641 170.118 320.347 171.54L318.138 178.143L315.59 171.456C313.044 169.858 310.721 168.545 308.101 167.087L314.416 164.707C315.634 162.446 316.998 159.25 318.117 156.86Z"/><path fill="#F0FAFC" d="M88.0965 375.32C89.5279 374.66 91.2062 374.837 92.4685 375.781C93.7308 376.725 94.3743 378.285 94.1448 379.845C93.9153 381.405 92.8497 382.713 91.3688 383.254C89.2054 384.044 86.8041 382.986 85.9259 380.857C85.0477 378.728 86.0054 376.285 88.0965 375.32Z"/><path fill="#43187F" d="M547.74 0L793.742 0C790.103 2.26582 784.56 4.30415 780.519 5.99751C774.549 8.44408 768.658 11.079 762.854 13.8982C738.456 25.6595 716.267 39.5235 694.973 56.2935C647.096 93.9987 608.81 145.987 584.468 201.684C562.854 251.14 549.265 314.213 507.337 351.011C471.696 382.291 427.709 382.367 383.749 374.037C354.985 368.587 325.348 360.737 296.008 366.22C214.48 381.457 203.26 495.528 118.592 528.22C91.9862 538.492 62.4019 537.637 35.0932 530.626C23.2555 527.586 10.9971 523.581 0 518.186L0 444.736C3.17116 445.375 6.3573 445.936 9.55564 446.421C52.2705 452.616 92.4443 441.347 118.86 406.207C128.175 394.68 135.766 381.069 149.058 373.616C165.885 364.388 185.132 365.447 203.08 358.691C237.042 345.905 205 308.175 226.786 290.693C238.754 281.089 268.359 290.098 282.831 292.665C356.274 305.693 384.027 232.003 408.299 178.366C418.433 156.478 430.294 130.91 443.214 110.7C462.794 80.0702 487.888 48.7736 515.354 24.8521C525.732 15.8137 536.638 7.92493 547.74 0Z"/><path fill="#F0FAFC" d="M471.29 221.365C471.894 223.173 472.4 227.733 472.716 229.986C474.067 239.62 475.59 251.473 481.421 259.405C488.868 269.534 508.96 272.579 521.067 273.984C510.784 275.675 495.145 277.629 486.455 283.006C473.809 290.83 474.104 312.041 471.125 325.511C470.594 324.053 470.033 319.054 469.897 317.432C466.775 279.96 452.968 278.93 420.821 273.385C431.462 272.61 447.056 270.511 456.067 264.362C468.833 255.651 468.74 235.479 471.29 221.365Z"/><path fill="#F43487" d="M530.329 71.8691C531.276 73.0002 531.613 78.9255 531.817 80.6946C534.87 107.163 548.659 111.449 572.069 114.63C563.096 116.114 555.427 116.44 546.861 120.781C535.878 126.345 532.978 138.137 531.477 149.342C531.19 151.485 531.279 155.602 530.781 157.167L530.145 156.862C528.503 147.709 527.778 135.517 521.954 127.821C514.798 118.367 499.26 116.535 488.304 114.83C496.166 111.996 507.357 112.44 516.218 106.177C526.22 99.1076 528.011 83.2034 530.329 71.8691Z"/><path fill="#F0FAFC" d="M633.666 55.7461C638.389 54.6908 643.084 57.6296 644.198 62.3398C645.312 67.05 642.432 71.7806 637.736 72.9534C634.646 73.7252 631.379 72.7752 629.185 70.4666C626.99 68.158 626.207 64.8475 627.135 61.8004C628.062 58.7534 630.557 56.4406 633.666 55.7461Z"/><path fill="#F0FAFC" d="M62.7115 490.781C66.9334 490.172 70.8652 493.056 71.5536 497.266C72.242 501.475 69.4335 505.461 65.2377 506.229C62.4518 506.739 59.6077 505.705 57.8005 503.524C55.9933 501.344 55.5049 498.357 56.5233 495.714C57.5418 493.071 59.9082 491.185 62.7115 490.781Z"/><path fill="#05B3FC" d="M383.744 320.684C386.87 320.161 389.833 322.253 390.386 325.374C390.938 328.495 388.874 331.478 385.758 332.06C382.601 332.65 379.569 330.552 379.009 327.389C378.448 324.226 380.576 321.213 383.744 320.684Z"/><path fill="#F0FAFC" d="M179.239 405.78C181.847 405.196 184.447 406.788 185.113 409.377C185.778 411.965 184.268 414.614 181.701 415.359C179.969 415.863 178.099 415.383 176.823 414.107C175.547 412.832 175.067 410.962 175.569 409.229C176.072 407.497 177.479 406.175 179.239 405.78Z"/><path fill="#8E0E8E" d="M326.188 597.679L325.719 597.551C255.935 577.977 242.98 474.527 305.904 438.743C325.576 427.556 348.372 433.518 369.431 436.061C374.808 436.711 386.191 437.789 391.092 439.306L390.986 439.961C403.105 450.451 410.532 457.874 417.245 473.128C418.535 476.061 420.598 480.889 421.334 483.913C422.904 489.397 424.157 494.578 424.947 500.124C429.454 531.794 417.962 570.397 389.631 587.979C388.892 588.438 389.072 588.362 388.633 589.188C381.699 590.992 374.653 592.145 367.737 593.784C352.601 597.37 341.897 600.486 326.188 597.679Z"/><path fill="#05B3FC" d="M329.093 565.836C318.515 562.09 309.958 553.117 304.808 543.345C296.701 527.606 295.182 509.29 300.588 492.431C312.826 454.392 352.271 443.377 371.395 484.769C382.603 508.025 377.123 552.26 351.183 564.975C344.632 568.186 335.985 568.268 329.093 565.836Z"/><path fill="#93D6F4" d="M329.093 565.836C318.515 562.09 309.958 553.117 304.808 543.345C296.701 527.606 295.182 509.29 300.588 492.431C312.826 454.392 352.271 443.377 371.395 484.769C363.88 485.959 358.254 486.841 351.133 489.729C328.583 498.872 317.347 521.85 321.011 545.459C322.209 553.175 325.436 559.002 329.093 565.836Z"/><path fill="#FDBDE7" d="M421.334 483.913C431.842 483.43 443.894 483.587 454.5 483.579C475.39 483.61 496.279 483.757 517.167 484.02C526.869 484.132 540.247 484.846 549.496 484.42L549.825 484.889C562.101 507.968 560.856 531.127 542.753 551.219C540.845 553.337 537.443 556.587 535.882 558.792C509.224 564.694 481.36 570.155 454.576 575.621L388.633 589.188C389.072 588.362 388.892 588.438 389.631 587.979C417.962 570.397 429.454 531.794 424.947 500.124C424.157 494.578 422.904 489.397 421.334 483.913Z"/><path fill="#FD669C" d="M532.435 463.31L614.843 477.795C624.177 478.946 632.474 480.038 638.448 488.378C644.447 496.127 645.97 507.327 644.654 516.8C642.831 529.922 637.914 536.101 625.376 540.04L577.875 549.771C571.552 551.086 559.48 553.312 553.653 555.016C548.192 556.22 541.226 557.949 535.882 558.792C537.443 556.587 540.845 553.337 542.753 551.219C560.856 531.127 562.101 507.968 549.825 484.889L549.496 484.42C545.142 476.464 538.68 469.865 532.435 463.31Z"/><path fill="#FDBDE7" d="M532.435 463.31L614.843 477.795C624.177 478.946 632.474 480.038 638.448 488.378C636.887 489.074 631.85 488.278 629.972 488.076C603.279 485.203 576.654 485.112 549.825 484.889L549.496 484.42C545.142 476.464 538.68 469.865 532.435 463.31Z"/><path fill="#FDE4FA" d="M391.092 439.306C423.913 444.263 456.669 449.636 489.353 455.424C502.849 457.836 519.224 460.339 532.435 463.31C538.68 469.865 545.142 476.464 549.496 484.42C540.247 484.846 526.869 484.132 517.167 484.02C496.279 483.757 475.39 483.61 454.5 483.579C443.894 483.587 431.842 483.43 421.334 483.913C420.598 480.889 418.535 476.061 417.245 473.128C410.532 457.874 403.105 450.451 390.986 439.961L391.092 439.306Z"/><path fill="#43187F" d="M861.053 80.0795C866.691 86.5909 871.974 93.0262 881.426 93.7448C887.208 94.1912 892.923 92.2636 897.253 88.4062C904.252 82.0755 906.375 72.6863 906.495 63.6505C906.513 62.2552 906.355 62.0424 906.894 60.8276C908.144 62.8353 907.732 68.607 907.815 71.1884C908.19 82.7185 912.277 93.3127 924.802 96.0377C932.491 97.7105 936.08 96.7588 942.631 93.122C946.323 91.0729 954.753 81.7695 956.295 81.3504C955.726 82.5587 951.863 87.0426 950.763 88.2571C939.64 100.541 939.694 120.234 955.752 128.431C963.404 132.337 972.203 130.734 980.599 130.168L979.997 130.376C968.756 134.188 957.328 134.359 951.178 146.43C944.268 159.994 951.119 171.849 963.363 178.508C964.347 179.043 966.518 180.29 967.12 181.175C964.844 181.171 959.272 177.967 956.971 176.997C941.854 170.623 921.322 180.178 921.463 197.93C921.501 202.728 923.643 208.018 923.445 211.704L923.016 211.54C916.879 196.71 907.004 185.051 888.645 192.269C879.835 195.733 876.689 204.423 871.625 211.645C873.518 205.823 876.222 201.125 876.57 194.934C877.168 184.279 870.19 175.374 860.385 171.834C849.651 167.958 839.369 174.879 829.377 177.837C838.851 172.162 850.016 167.354 852.663 155.489C855.828 141.303 847.335 128.561 833.542 124.701C831.891 124.239 828.602 123.449 827.344 122.555C829.341 121.75 837.306 123.963 840.295 123.953C865.859 123.866 873.493 100.166 860.227 81.1729L861.053 80.0795Z"/><path fill="#8E0E8E" d="M901.137 109.177C918.978 108.061 934.35 121.61 935.482 139.45C936.614 157.291 923.078 172.675 905.239 173.822C887.378 174.971 871.971 161.415 870.837 143.553C869.704 125.691 883.273 110.295 901.137 109.177Z"/><path fill="#F43487" d="M880.856 136.347C883.874 126.115 892.808 120.258 903.438 122.241C907.708 123.048 911.48 125.522 913.921 129.117C923.268 133.887 922.121 146.228 917.501 153.954C914.765 158.57 910.278 161.884 905.061 163.14C899.917 164.454 894.458 163.548 890.016 160.642C882.095 155.459 878.648 145.41 880.856 136.347Z"/><path fill="#B91D90" d="M913.921 129.117C923.268 133.887 922.121 146.228 917.501 153.954C914.765 158.57 910.278 161.884 905.061 163.14C899.917 164.454 894.458 163.548 890.016 160.642C882.095 155.459 878.648 145.41 880.856 136.347C880.92 138.808 880.879 141.074 881.661 143.434C884.896 153.194 894.85 159.793 904.947 155.467C909.394 153.558 912.903 149.964 914.703 145.471C916.947 139.806 916.287 134.536 913.921 129.117Z"/><path fill="#F0FAFC" d="M892.623 133.794C903.531 133.705 909.182 141.95 899.757 148.963L898.858 149.099C889.22 150.465 885.861 141.163 892.623 133.794Z"/><path fill="#FB4995" d="M179.549 519.804C186.43 518.017 193.451 522.177 195.188 529.072C196.925 535.966 192.713 542.956 185.806 544.642C178.97 546.311 172.068 542.152 170.349 535.329C168.63 528.506 172.738 521.573 179.549 519.804Z"/><path fill="#F43487" d="M716.678 195.339C722.447 193.869 728.314 197.362 729.772 203.135C731.229 208.908 727.723 214.767 721.947 216.211C718.77 217.005 715.405 216.311 712.803 214.323C710.201 212.336 708.645 209.273 708.575 205.999C708.468 200.994 711.826 196.576 716.678 195.339Z"/><path fill="#5350BE" d="M813.666 238.154C817.26 237.461 820.95 238.755 823.323 241.542C825.696 244.33 826.385 248.179 825.127 251.616C823.869 255.054 820.857 257.549 817.246 258.145C811.765 259.051 806.573 255.385 805.593 249.916C804.614 244.447 808.211 239.207 813.666 238.154Z"/><path fill="#5350BE" d="M585.786 392.673C589.197 391.804 592.812 392.842 595.241 395.39C597.671 397.937 598.537 401.597 597.507 404.963C596.477 408.329 593.712 410.878 590.273 411.629C585.081 412.765 579.937 409.528 578.713 404.356C577.489 399.185 580.636 393.986 585.786 392.673Z"/><path fill="#F0FAFC" d="M957.04 40.3024C961.559 39.1072 966.196 41.7864 967.418 46.2991C968.639 50.8118 965.987 55.4639 961.482 56.7117C956.939 57.9699 952.24 55.2911 951.008 50.741C949.776 46.1909 952.483 41.5075 957.04 40.3024Z"/><path fill="#F0FAFC" d="M78.7404 584.016C82.1652 583.895 85.0766 586.495 85.3413 589.912C85.6061 593.329 83.1301 596.347 79.7275 596.754C77.3957 597.034 75.0983 596.013 73.7435 594.095C72.3886 592.176 72.1944 589.67 73.2376 587.566C74.2807 585.462 76.3933 584.099 78.7404 584.016Z"/><path fill="#5350BE" d="M626.826 264.771C629.847 266.743 628.012 268.631 629.224 270.546C630.157 272.018 633.723 271.196 634.862 273.984L634.247 275.038C632.932 276.05 632.448 275.944 630.792 276.059L630.249 276.091C627.369 278.172 629.517 280.183 626.992 282.923C624.008 279.959 625.591 278.659 623.734 276.471C623.221 275.866 619.039 275.621 617.997 273.799C619.461 271.784 622.846 271.924 624.764 269.693C625.369 267.246 625.485 266.898 626.826 264.771Z"/><path fill="#F0FAFC" d="M248.257 599.796C250.966 598.969 253.844 600.43 254.777 603.105C255.709 605.78 254.363 608.713 251.727 609.75C249.927 610.458 247.884 610.124 246.403 608.88C244.922 607.636 244.241 605.681 244.627 603.786C245.014 601.891 246.407 600.36 248.257 599.796Z"/><path fill="#F0FAFC" d="M480.304 407.69C482.128 407.228 484.059 407.812 485.321 409.208C486.583 410.604 486.969 412.584 486.326 414.352C485.682 416.121 484.114 417.389 482.25 417.648C479.578 418.018 477.083 416.237 476.565 413.59C476.048 410.943 477.689 408.352 480.304 407.69Z"/><path fill="#F0FAFC" d="M805.104 78.2549C806.783 77.602 808.684 77.9231 810.054 79.0909C811.425 80.2588 812.044 82.0848 811.666 83.8453C811.288 85.6058 809.973 87.0166 808.244 87.5187C805.729 88.249 803.084 86.8696 802.243 84.3887C801.402 81.9078 802.663 79.2046 805.104 78.2549Z"/><path fill="#43187F" d="M860.227 81.1729C858.723 79.1339 856.345 76.3035 855.607 74.0169L856.168 73.9617L855.625 74.5707L856.664 74.3765C858.003 75.7423 859.861 78.4521 861.053 80.0795L860.227 81.1729Z"/></svg>