<?xml version="1.0" encoding="utf-8" ?><svg xmlns="http://www.w3.org/2000/svg" xmlns:xlink="http://www.w3.org/1999/xlink" width="1024" height="1024" viewBox="0 0 1024 1024"><path transform="scale(2 2)" d="M254.607 101.884C255.953 102.826 261.645 110.757 263.141 112.676L296.483 156.293C299.86 160.676 305.974 169.542 309.352 173.107C308.609 175.287 307.456 182.993 307.001 185.684L297.85 237.993C296.719 244.142 294.963 251.935 294.704 258.081C296.772 251.733 303.456 233.287 307.032 227.628C312.007 225.626 317.482 222.82 322.353 220.564L352.169 206.817C356.58 204.809 364.149 201.034 368.401 199.758C368.581 202.533 369.271 206.669 369.65 209.562L376.09 255.619C376.61 259.316 377.013 263.425 377.616 267.029C376.826 268.375 374.702 271.054 373.695 272.445L334.809 326.831C324.442 341.425 314.321 356.333 303.703 370.75C293.31 384.862 297.132 381.728 282.355 391.238L255.75 408.488L249.896 404.911C238.825 397.969 218.818 387.176 211.628 376.754L146.179 283.262C142.518 278.066 137.737 272.473 134.621 267.029C134.93 261.163 136.895 250.494 137.726 244.238L140.855 221.361C141.675 215.125 142.429 208.329 143.491 202.195C146.495 203.51 149.2 205.077 152.107 206.582L193.847 228.465C196.998 230.141 201.939 232.591 204.854 234.471C208.837 244.383 213.762 261.112 216.617 271.553C216.266 267.077 215.38 263.342 214.688 258.999L205.743 204.3C204.273 194.981 202.432 182.176 200.385 173.107L246.981 111.678C249.224 108.737 252.205 104.578 254.607 101.884ZM255.267 212.386C255.985 265.877 257.991 319.003 257.283 372.625C257.217 377.601 257.558 382.55 257.402 387.562L257.458 388.501C258.318 387.564 259.421 379.11 259.758 377.332L294.846 186.871L294.704 186.621C285.11 190.159 264.735 206.253 255.267 212.386ZM181.342 272.301L182.747 268.858C186.439 259.789 189.685 249.785 192.991 240.495C180.23 233.31 165.922 225.852 152.809 219.266C150.459 230.689 147.407 250.362 146.646 262.316C157.636 265.62 170.26 269.5 181.342 272.301ZM239.581 384.54L200.073 255.793C199.658 254.453 197.374 246.999 196.853 246.18C193.362 251.44 182.79 268.575 182.747 272.301L182.904 272.718C184.028 275.65 186.393 279.645 187.916 282.561L197.347 300.876C200.257 306.657 225.027 358.148 224.931 360.167L183.718 281.011C182.266 278.248 180.636 274.923 178.999 272.301C170.45 271.056 158.694 272.018 150.724 270.089C153.937 274.953 157.368 279.605 160.776 284.332L216.133 363.151C226.598 378.17 225.843 373.804 239.581 384.54ZM278.981 379.4C280.391 378.56 281.906 377.694 283.288 376.826C288.657 373.655 288.702 372.357 292.199 367.35L355.785 277.357C357.155 275.423 359.245 272.872 360.418 270.988C358.761 270.232 356.42 269.314 354.661 268.858C350.624 274.169 346.655 280.119 342.81 285.611L295.018 355.255C289.762 363.071 283.952 371.444 278.981 379.4ZM326.863 254.084C324.09 259.702 321.557 265.382 318.863 271.033L300.547 309.576C299.125 312.592 297.189 316.2 296.287 319.297L296.287 319.297C300.538 311.892 303.973 304.227 308.007 296.661C321.02 272.253 335.656 243.055 350.875 220.233C345.193 222.438 339.691 225.391 334.189 227.997L313.896 237.403C316.987 241.098 324.623 250.294 326.863 254.084ZM215.021 172.325C218.944 176.328 252.548 209.115 253.823 209.579C266.934 196.737 280.652 184.455 293.62 171.48C280.968 156.268 269.558 139.255 257.174 123.741C256.465 122.853 255.367 121.118 254.607 120.403C252.092 124.187 248.676 128.306 245.883 131.988L223.385 161.345C220.77 164.792 217.415 168.89 215.021 172.325ZM214.195 186.621C214.478 190.43 215.873 195.496 216.508 199.372L222.941 237.541C229.365 276.337 235.858 317.179 243.84 355.576L248.012 375.501C248.552 378.002 249.155 382.375 250.037 384.655L250.226 384.577L250.242 384.54C250.041 380.51 250.217 376.334 250.235 372.278L250.376 236.511C250.423 228.97 249.785 219.834 251.088 212.386L226.137 194.836C224.234 193.5 215.681 187.356 214.195 186.621Z"/><path fill="#A1A4A4" transform="scale(2 2)" d="M296.287 319.297C294.563 323.403 292.044 328.079 289.894 331.941C289.906 330.555 294.952 320.668 296.287 319.297L296.287 319.297Z"/></svg>