<?xml version="1.0" encoding="utf-8" ?><svg xmlns="http://www.w3.org/2000/svg" xmlns:xlink="http://www.w3.org/1999/xlink" width="1024" height="1024" viewBox="0 0 1024 1024"><path transform="scale(2 2)" d="M251.701 102.25C266.282 100.948 282.842 105.768 294.72 113.745C334.503 140.462 332.738 186.925 307.569 222.905C297.039 237.958 279.317 259.542 260.509 263.149C226.67 268.405 191.16 207.131 186.895 179.436C180.523 138.061 212.497 106.847 251.701 102.25ZM259.517 254.556C289.917 246.238 324.424 189.244 315.445 156.468C307.868 128.81 281.382 108.987 252.558 111.006C234.004 113.216 219.034 120.353 207.153 135.008C177.692 172.206 208.228 222.573 239.217 247.69C245.138 252.49 251.825 255.884 259.517 254.556Z"/><path transform="scale(2 2)" d="M302.272 165.606C310.975 165.479 312.991 168.859 312.47 177.193C311.19 197.663 293.216 220.278 271.506 219.028C248.571 217.354 268.377 168.559 302.272 165.606ZM279.688 192.266C291.764 192.354 297.117 180.229 290.513 181.336C284.087 182.419 271.021 192.127 279.688 192.266Z"/><path transform="scale(2 2)" d="M206.464 165.606C231.546 162.626 265.952 206.53 242.762 219.028C219.818 219.843 203.148 200.813 199.593 179.118C198.908 174.937 198.962 171.269 201.03 167.478C203.223 166.079 203.889 165.944 206.464 165.606ZM233.714 192.266C240.163 189.92 226.674 181.179 221.197 181.336C215.109 181.396 221.24 192.936 233.714 192.266Z"/><path transform="scale(2 2)" d="M214.287 155.301C226.592 152.474 244.392 165.614 255.93 165.864C265.017 166.062 267.567 162.435 275.266 159.428C280.942 157.211 292.436 155.406 298.653 155.301C297.151 155.768 293.922 156.377 292.287 156.746C282.566 157.923 270.576 165.404 263.104 171.38C253.154 179.339 245.478 167.184 237.268 163.096C229.796 159.376 222.58 156.693 214.287 155.301Z"/><path transform="scale(2 2)" d="M247.005 267.082C253.107 268.527 258.864 268.374 264.96 267.082L264.96 280.508C280.574 282.539 309.075 265.427 317.281 268.383C324.971 271.153 340.529 302.835 344.56 310.986C340.735 312.313 339.213 313.025 336.034 315.575C334.36 309.099 319.909 281.323 313.546 277.362C308.307 278.303 292.721 284.616 287.749 287.186C286.979 309.585 282.395 341.179 264.96 356.427C262.918 358.495 259.418 361.358 256.5 361.192C236.306 360.045 227.117 316.864 225.315 300.708C224.805 296.127 225.092 291.641 225.015 287.186C216.926 284.664 207.25 279.227 199.058 277.362C190.145 282.069 180.387 305.769 175.282 314.675C172.977 312.757 171.035 311.821 168.211 310.986C171.931 299.834 177.99 288.77 184.711 279.212C192.603 268.526 196.277 266.085 209.221 270.526C219.536 274.065 236.555 282.241 247.005 280.508C247.196 276.319 246.892 271.449 247.005 267.082Z"/><path transform="scale(2 2)" d="M163.605 315.575C171.553 313.573 179.535 326.054 177.393 331.991C176.021 335.795 170.905 360.646 169.198 362.348L168.715 362.2C167.51 360.368 168.45 341.478 168.211 337.596C164.894 341.109 145.579 366.234 143.04 365.54L142.797 364.996C143.176 362.516 156.691 341.302 159.001 337.596C160.301 335.657 161.426 333.987 162.574 331.943C157.589 334.047 131.306 350.698 129.597 350.49C127.666 348.482 136.506 342.521 137.798 341.351C144.162 335.594 151.758 330.47 157.94 324.609C154.71 325.027 129.221 328.797 127.798 327.192L128.031 326.692C130.974 324.335 158.737 316.081 163.605 315.575Z"/><path transform="scale(2 2)" d="M346.24 315.575C349.657 315.83 381.175 324.904 382.442 326.255C385.113 329.105 355.473 324.783 353.94 324.918C353.921 326.21 360.255 330.861 361.527 331.87L377.747 344.514C379.055 345.516 383.675 348.076 382.262 349.83C378.527 350.565 357.856 334.684 350.353 332.527L348.32 331.943C350.195 334.559 352.364 337.308 354.309 340.009C356.646 343.207 371.47 363.676 370.71 366.329L370.154 366.392C366.072 364.625 347.458 340.904 342.496 335.804C342.905 339.251 345.981 361.492 344.574 363.157L344.025 363.199C341.7 361.556 336.405 335.203 335.429 330.761C333.884 323.724 339.366 316.797 346.24 315.575Z"/><path transform="scale(2 2)" d="M275.689 352.433C276.795 353.509 287.32 402.568 290.513 409.79C287.858 409.981 284.639 409.839 281.938 409.79C278.302 409.955 276.6 395.036 275.6 390.924L268.002 360.486C271.178 357.817 272.979 355.517 275.689 352.433Z"/><path transform="scale(2 2)" d="M237.345 354.667C238.443 355.833 243.305 361.06 244.008 362C242.419 367.114 240.876 373.973 239.594 379.261L232.261 409.79L229.335 409.79L222.491 409.79C225.016 397.578 232.006 365.935 237.345 354.667Z"/><path transform="scale(2 2)" d="M218.438 293.79C221.439 293.578 220.029 300.779 219.999 303.797C207.294 306.998 196.492 312.03 186.262 320.238C185.39 320.937 182.214 323.85 181.42 323.983L181.046 323.446C180.142 320.841 179.003 319.199 177.503 316.894C186.508 306.566 205.686 296.879 218.438 293.79Z"/><path transform="scale(2 2)" d="M292.287 293.79C308.665 295.509 323.14 305.738 334.608 316.894C333.412 318.66 332.481 319.945 331.6 321.907C331.31 322.803 330.91 323.729 330.557 324.609C317.82 311.659 308.256 308.452 292.287 303.016C292.35 300.046 292.278 296.792 292.287 293.79Z"/></svg>