<?xml version="1.0" encoding="utf-8" ?><svg xmlns="http://www.w3.org/2000/svg" xmlns:xlink="http://www.w3.org/1999/xlink" width="1024" height="1024" viewBox="0 0 1024 1024"><defs><linearGradient id="gradient_0" gradientUnits="userSpaceOnUse" x1="978.96106" y1="151.15317" x2="458.19705" y2="877.74701"><stop offset="0" stop-color="#000134"/><stop offset="1" stop-color="#200157"/></linearGradient></defs><path fill="url(#gradient_0)" d="M0 0L639.583 0L743.354 0L809.947 0L840.063 0L945.125 0L975.982 0L1024 0L1024 35.9965L1024 145.455L1024 179.549L1024 995.986L1024 1024L863.826 1024L714.364 1024L595.587 1024L369.03 1024L291.727 1024L180.328 1024L109.792 1024L0 1024L0 983.985L0 840.144L0 736.405L0 699.925L0 682.188L0 613.612L0 576.407L0 550.174L0 502.513L0 472.682L0 449.745L0 420.581L0 397.214L0 367.276L0 330.77L0 0Z"/><path fill="#020937" d="M0 0L639.583 0L743.354 0L809.947 0L840.063 0L945.125 0L975.982 0L1024 0L1024 35.9965L1024 145.455L1024 179.549C1002.3 195.47 979.996 210.546 957.133 224.743C901.402 260.084 843.684 292.189 784.265 320.899C656.288 382.895 523.774 435.05 387.873 476.912C320.936 498.27 253.381 517.638 185.296 534.992C150.398 543.889 113.268 551.766 78.1213 559.984C52.1442 565.756 26.1021 571.23 0 576.407L0 550.174L0 502.513L0 472.682L0 449.745L0 420.581L0 397.214L0 367.276L0 330.77L0 0Z"/><path fill="#020937" d="M0 0L639.583 0C627.077 17.1606 611.498 32.7773 596.351 47.6043C471.635 169.68 260.975 255.078 94.8583 304.439C75.9067 310.153 56.8893 315.648 37.8102 320.922C25.2142 324.452 12.8459 328.179 0 330.77L0 0Z"/><path fill="#F0FAFC" d="M61.6857 76.825C62.999 78.1698 64.4293 87.6129 67.7757 90.9568C69.575 92.7548 71.0242 94.0338 73.2719 95.8331C64.663 102.202 64.5823 105.842 61.6017 115.846C58.9449 105.204 58.2587 102.953 49.6664 95.7209C57.7485 89.5756 58.6 86.3541 61.6857 76.825Z"/><path fill="#F0FAFC" d="M486.861 64.7584C489.956 64.3441 493.033 65.6377 494.902 68.139C496.771 70.6404 497.139 73.9575 495.864 76.8079C494.589 79.6583 491.871 81.5952 488.761 81.8699C484.099 82.2815 479.962 78.8943 479.446 74.2429C478.929 69.5916 482.223 65.3794 486.861 64.7584Z"/><path fill="#F0FAFC" d="M136.684 218.125C140.459 217.206 144.271 219.491 145.24 223.253C146.209 227.014 143.976 230.857 140.227 231.876C137.757 232.548 135.117 231.839 133.316 230.02C131.515 228.2 130.833 225.553 131.531 223.09C132.228 220.627 134.197 218.73 136.684 218.125Z"/><path fill="#F0FAFC" d="M212.026 48.8335C215.904 48.6922 219.177 51.6924 219.373 55.5686C219.569 59.4447 216.615 62.7593 212.742 63.0093C210.187 63.1742 207.742 61.9512 206.342 59.8085C204.943 57.6658 204.805 54.9353 205.982 52.6625C207.159 50.3897 209.468 48.9267 212.026 48.8335Z"/><path fill="#F0FAFC" d="M56.7215 205.25C60.4782 205.135 63.6249 208.071 63.7701 211.827C63.9153 215.582 61.0047 218.752 57.2503 218.928C53.4531 219.105 50.2391 216.154 50.0923 212.355C49.9454 208.557 52.922 205.367 56.7215 205.25Z"/><path fill="#F0FAFC" d="M373.771 54.7814C376.117 54.1134 378.639 54.7779 380.351 56.5146C382.062 58.2513 382.69 60.7834 381.988 63.1184C381.285 65.4535 379.365 67.2193 376.98 67.7239C373.463 68.4677 369.989 66.2913 369.124 62.8023C368.259 59.3132 370.314 55.7663 373.771 54.7814Z"/><defs><linearGradient id="gradient_1" gradientUnits="userSpaceOnUse" x1="355.14041" y1="97.339241" x2="577.72833" y2="340.54474"><stop offset="0" stop-color="#028FC7"/><stop offset="1" stop-color="#09A5C4"/></linearGradient></defs><path fill="url(#gradient_1)" d="M639.583 0L743.354 0L809.947 0L840.063 0L945.125 0C825.391 140.946 592.584 251.798 422.651 318.087C369.31 338.896 315.419 358.268 261.037 376.181C227.087 387.263 192.581 397.363 158.274 407.287C127.591 416.459 96.7044 424.934 65.6373 432.706L22.107 443.931C15.6516 445.603 6.03134 447.769 0 449.745L0 420.581L0 397.214L0 367.276L0 330.77C12.8459 328.179 25.2142 324.452 37.8102 320.922C56.8893 315.648 75.9067 310.153 94.8583 304.439C260.975 255.078 471.635 169.68 596.351 47.6043C611.498 32.7773 627.077 17.1606 639.583 0Z"/><path fill="#077DC0" d="M639.583 0L743.354 0C733.866 11.3491 724.541 22.788 714.399 33.5736C697.415 51.6356 677.46 69.4864 658.309 85.2372C607.029 127.414 549.682 161.747 490.757 192.02C380.049 248.895 264.238 290.877 145.235 326.766C124.598 332.927 103.899 338.878 83.1408 344.616C56.6164 351.701 26.1324 359.277 0 367.276L0 330.77C12.8459 328.179 25.2142 324.452 37.8102 320.922C56.8893 315.648 75.9067 310.153 94.8583 304.439C260.975 255.078 471.635 169.68 596.351 47.6043C611.498 32.7773 627.077 17.1606 639.583 0Z"/><path fill="#05B3FC" d="M743.354 0L809.947 0C763.013 62.6492 698.63 109.77 632.663 150.566C546.762 202.578 456.457 246.94 362.789 283.142C323.061 299.03 282.894 313.795 242.335 327.421C196.926 342.28 151.245 356.291 105.313 369.446C70.4824 379.093 34.9475 387.813 0 397.214L0 367.276C26.1324 359.277 56.6164 351.701 83.1408 344.616C103.899 338.878 124.598 332.927 145.235 326.766C264.238 290.877 380.049 248.895 490.757 192.02C549.682 161.747 607.029 127.414 658.309 85.2372C677.46 69.4864 697.415 51.6356 714.399 33.5736C724.541 22.788 733.866 11.3491 743.354 0Z"/><path fill="#F0FAFC" d="M809.947 0L840.063 0C825.819 22.2532 804.199 46.0427 785.224 64.3502C714.191 132.886 626.587 185.22 538.944 229.529C475.673 261.682 410.674 290.313 344.243 315.292C332.592 319.732 321.095 324.701 309.354 328.888C246.793 350.811 183.62 370.949 119.913 389.278C93.0428 396.632 66.1292 403.828 39.1738 410.865C26.1042 414.201 13.0344 417.071 0 420.581L0 397.214C34.9475 387.813 70.4824 379.093 105.313 369.446C151.245 356.291 196.926 342.28 242.335 327.421C282.894 313.795 323.061 299.03 362.789 283.142C456.457 246.94 546.762 202.578 632.663 150.566C698.63 109.77 763.013 62.6492 809.947 0Z"/><path fill="#05B3FC" d="M945.125 0L975.982 0L1024 0L1024 35.9965C1016.47 44.0787 1009.24 52.7054 1001.43 60.4738C931.993 129.567 846.582 186.039 761.317 233.172C747.629 240.905 733.819 248.419 719.892 255.712C700.768 265.265 681.525 274.576 662.166 283.642C611.065 307.75 559.154 330.103 506.525 350.663C469.18 364.8 431.596 378.297 393.79 391.147C264.676 435.487 133.213 472.666 -1.13687e-13 502.513L0 472.682L0 449.745C6.03134 447.769 15.6516 445.603 22.107 443.931L65.6373 432.706C96.7044 424.934 127.591 416.459 158.274 407.287C192.581 397.363 227.087 387.263 261.037 376.181C315.419 358.268 369.31 338.896 422.651 318.087C592.584 251.798 825.391 140.946 945.125 0Z"/><path fill="#F0FAFC" d="M945.125 0L975.982 0C922.546 70.0193 840.666 130.532 766.179 176.74C713.727 209.007 659.735 238.701 604.394 265.715C569.709 282.116 534.651 297.715 499.248 312.5C401.538 353.777 301.575 389.506 199.838 419.516C133.886 439.634 67.2301 457.368 0 472.682L0 449.745C6.03134 447.769 15.6516 445.603 22.107 443.931L65.6373 432.706C96.7044 424.934 127.591 416.459 158.274 407.287C192.581 397.363 227.087 387.263 261.037 376.181C315.419 358.268 369.31 338.896 422.651 318.087C592.584 251.798 825.391 140.946 945.125 0Z"/><path fill="#E749B5" d="M0 550.174C28.4943 545.096 57.7926 537.841 86.0791 531.702C197.274 507.74 307.037 477.557 414.85 441.294C519.824 407.776 622.654 367.883 722.767 321.836C818.564 277.716 910.893 228.135 996.441 166.166C1005.59 159.539 1015.33 152.669 1024 145.455L1024 179.549C1002.3 195.47 979.996 210.546 957.133 224.743C901.402 260.084 843.684 292.189 784.265 320.899C656.288 382.895 523.774 435.05 387.873 476.912C320.936 498.27 253.381 517.638 185.296 534.992C150.398 543.889 113.268 551.766 78.1213 559.984C52.1442 565.756 26.1021 571.23 0 576.407L0 550.174Z"/><path fill="#F0FAFC" d="M923.998 148.83C927.46 148.044 930.9 150.232 931.656 153.701C932.413 157.17 930.196 160.591 926.721 161.319C923.286 162.037 919.915 159.853 919.167 156.425C918.42 152.996 920.576 149.606 923.998 148.83Z"/><path fill="#43187F" d="M0 576.407C26.1021 571.23 52.1442 565.756 78.1213 559.984C77.8501 560.181 77.5854 560.387 77.3077 560.574C76.1419 561.36 36.3488 570.484 33.755 570.559C32.8203 570.586 33.2034 570.527 32.2713 570.953C32.7417 571.531 33.2074 572.112 33.6685 572.698C40.8915 573.375 51.0905 570.816 56.4605 576.896L59.2947 576.713C61.1067 579.261 62.6819 579.021 66.248 580.144L66.7562 579.028L67.4873 579.287L67.6008 580.639C75.6793 581.491 83.3181 585.627 91.6476 585.623L91.8473 586.965C96.3634 588.867 100.532 591.178 105.409 591.057C108.038 590.991 107.716 590.717 108.258 592.006L109.325 591.06L109.789 591.967C111.343 591.966 119.835 592.911 119.872 592.899L120.31 593.862C122.273 594.265 123.909 594.551 125.877 593.82L126.152 595.505L126.556 595.21C127.099 594.818 126.873 594.965 127.394 594.662L127.749 595.608L128.861 594.563C130.012 594.722 133.43 595.122 134.284 595.446C136.154 596.156 139.236 594.965 139.834 596.072C140.054 596.481 141.101 597.15 141.212 597.23L141.787 596.165C147.904 596.859 154.726 602.25 160.253 599.379C160.707 600.261 160.564 599.765 160.6 600.886C161.529 600.226 161.106 600.555 161.877 599.912C162.89 600.953 162.623 600.933 163.997 601.363L166.253 600.277C166.421 600.808 166.589 601.338 166.757 601.869L169.267 600.685C169.434 601.21 169.601 601.736 169.768 602.261C178.347 602.598 190.68 608.314 199.707 609.157C198.966 609.087 211.992 612.848 211.83 612.777L212.219 611.757C223.579 615.773 234.487 618.299 245.747 622.414L246.777 621.473C252.978 624.744 260.77 626.621 267.408 629.011C271.597 630.519 275.461 632.395 279.62 633.858C291.758 637.524 304.441 639.788 316.869 642.808L317.785 641.875C319.53 642.787 326.545 646.523 328.132 646.928C334.145 648.463 340.199 650.286 346.261 651.69C347.571 651.994 350.043 654.105 350.896 654.187C354.621 654.543 360.005 655.441 363.623 656.545C372.513 659.258 381.667 661.824 390.61 664.41C397.052 666.272 405.385 668.009 412.044 669.786C419.063 671.66 426.748 672.357 434.161 674.555C440.444 676.419 445.929 679.267 451.076 681.146C460.718 684.666 467.687 686.157 476.765 690.819C479.436 692.191 501.539 700.222 503.478 700.568L503.841 702.642C505.185 703.291 504.644 702.902 506.199 703.051C515.155 703.91 524.675 707.217 533.242 710.023C535.853 710.879 535.329 708.999 537.101 710.342C540.869 713.199 548.892 713.547 554.439 715.433C569.801 720.548 584.981 726.195 599.951 732.365C603.013 733.604 609.354 734.098 611.417 735.12C624.101 741.404 640.646 745.659 652.518 752.969L653.382 752.911C656.888 752.705 670.21 760.671 675.21 760.84C675.779 760.859 683.319 764.399 684.523 764.911C694.786 769.272 705.475 772.262 715.925 776.015C725.61 779.493 735.279 783.567 744.844 787.381C753.493 791.205 762.062 794.69 770.823 798.223C778.566 801.346 785.679 805.49 793.024 809.389C796.406 811.2 800.835 812.12 804.278 813.908C810.307 817.04 816.806 819.727 822.686 823.091C827.005 826.056 831.112 830.041 835.026 833.481C845.709 842.872 859.938 852.02 866.562 865.078C871.241 874.303 874.131 883.877 880.427 892.525C882.239 895.014 883.539 902.004 884.913 905.129C885.855 907.708 886.455 910.398 887.575 912.915C891.618 916.966 907.759 922.783 910.094 927.134L949.243 949.219C956.851 953.474 968.951 959.833 975.788 964.649C990.51 973.103 1009.96 986.322 1024 995.986L1024 1024L863.826 1024L714.364 1024L595.587 1024L369.03 1024L291.727 1024L180.328 1024L109.792 1024L0 1024L0 983.985L0 840.144L0 736.405L0 699.925L0 682.188L0 613.612L0 576.407Z"/><path fill="#FD669C" d="M197.582 658.474C211.765 661.668 226.536 665.415 240.543 669.41C266.622 676.847 293.402 683.239 319.341 691.017C328.864 693.562 337.978 697.014 347.577 699.333C368.514 705.043 389.259 712.521 410.032 718.849C413.87 720.018 417.875 721.291 421.649 722.65C419.425 724.226 395.615 731.433 391.54 732.824C382.076 736.1 372.725 739.69 363.499 743.587C338.838 754.001 313.831 767.733 290.701 781.136L289.512 781.772L289.157 782.058C283.89 786.209 277.262 789.813 271.673 793.709C231.83 821.491 196.406 854.054 174.381 898.049L174.151 898.055C152.189 945.969 156.252 978.455 180.328 1024L109.792 1024L0 1024L0 983.985L0 840.144L0 736.405L0 699.925L0 682.188C6.53481 681.62 25.6388 677.372 33.6117 675.947C53.7777 672.478 74.0296 669.529 94.3472 667.101C122.892 663.82 151.603 662.205 180.23 659.877C185.601 659.44 192.504 659.539 197.582 658.474Z"/><path fill="#F43487" d="M0 840.144C6.28361 842.673 14.694 845.173 21.2676 847.405C32.6846 851.335 44.0802 855.327 55.4538 859.381L55.7163 859.235C59.2958 861.076 80.99 867.995 86.5261 869.859C115.256 879.533 145.027 889.762 174.151 898.055C152.189 945.969 156.252 978.455 180.328 1024L109.792 1024L0 1024L0 983.985L0 840.144Z"/><path fill="#E749B5" d="M0 840.144C6.28361 842.673 14.694 845.173 21.2676 847.405C32.6846 851.335 44.0802 855.327 55.4538 859.381C43.8667 880.5 41.5957 902.273 48.3608 925.307C58.0828 958.408 85.4221 998.4 108.943 1023.39L109.792 1024L0 1024L0 983.985L0 840.144Z"/><path fill="#B91D90" d="M0 983.985C16.6321 993.13 93.1342 1023.24 108.943 1023.39L109.792 1024L0 1024L0 983.985Z"/><path fill="#E749B5" d="M193.036 752.859C214.601 759.487 236.563 764.927 258.07 771.808C268.496 775.143 279.267 777.905 289.512 781.772L289.157 782.058C283.89 786.209 277.262 789.813 271.673 793.709C231.83 821.491 196.406 854.054 174.381 898.049L174.151 898.055C145.027 889.762 115.256 879.533 86.5261 869.859C80.99 867.995 59.2958 861.076 55.7163 859.235C82.1342 815.723 128.986 786.642 172.821 763.109C176.488 761.141 190.687 755.011 192.534 752.964L193.036 752.859Z"/><path fill="#F43487" d="M69.479 718.312C81.8976 722.548 101.114 727.091 114.178 730.633C140.364 737.837 166.484 745.282 192.534 752.964C190.687 755.011 176.488 761.141 172.821 763.109C128.986 786.642 82.1342 815.723 55.7163 859.235L55.4538 859.381C44.0802 855.327 32.6846 851.335 21.2676 847.405C14.694 845.173 6.28361 842.673 0 840.144L0 736.405C19.7259 730.088 47.5618 721.769 67.2177 718.515L69.479 718.312Z"/><path fill="#FD669C" d="M347.577 699.333C368.514 705.043 389.259 712.521 410.032 718.849C413.87 720.018 417.875 721.291 421.649 722.65C419.425 724.226 395.615 731.433 391.54 732.824C382.076 736.1 372.725 739.69 363.499 743.587C338.838 754.001 313.831 767.733 290.701 781.136L289.512 781.772C279.267 777.905 268.496 775.143 258.07 771.808C236.563 764.927 214.601 759.487 193.036 752.859C242.614 729.853 294.391 711.92 347.577 699.333Z"/><path fill="#FB4995" d="M319.341 691.017C328.864 693.562 337.978 697.014 347.577 699.333C294.391 711.92 242.614 729.853 193.036 752.859L192.534 752.964C166.484 745.282 140.364 737.837 114.178 730.633C101.114 727.091 81.8976 722.548 69.479 718.312C121.201 705.025 179.372 702.877 232.327 697.622C244.037 696.46 316.086 693.898 319.341 691.017Z"/><path fill="#E749B5" d="M0 699.925C12.8412 703.741 25.7761 707.233 38.7926 710.4C42.9807 711.453 63.6334 716.796 67.2177 718.515C47.5618 721.769 19.7259 730.088 0 736.405L0 699.925Z"/><path fill="#F43487" d="M290.701 781.136C294.914 784.501 325.924 793.314 333.711 795.912C364.843 806.297 395.392 818.103 426.193 829.053L458.27 840.277C462.101 841.644 470.133 844.299 473.473 846.004L474.917 845.967C479.606 848.743 491.169 852.904 496.699 855.046C513.455 861.526 530.166 868.121 546.832 874.831C550.073 876.129 564.413 881.525 567.012 882.965C553.514 887.2 540.631 890.498 527.176 895.351C477.584 913.24 443.835 934.045 405.387 969.967L405.125 970.018C387.208 990.249 379.816 998.694 369.03 1024L291.727 1024L180.328 1024C156.252 978.455 152.189 945.969 174.151 898.055L174.381 898.049C196.406 854.054 231.83 821.491 271.673 793.709C277.262 789.813 283.89 786.209 289.157 782.058L289.512 781.772L290.701 781.136Z"/><path fill="#E749B5" d="M473.473 846.004L474.917 845.967C479.606 848.743 491.169 852.904 496.699 855.046C513.455 861.526 530.166 868.121 546.832 874.831C550.073 876.129 564.413 881.525 567.012 882.965C553.514 887.2 540.631 890.498 527.176 895.351C477.584 913.24 443.835 934.045 405.387 969.967L405.125 970.018C387.208 990.249 379.816 998.694 369.03 1024L291.727 1024C291.124 1018.61 290.226 1013.51 289.942 1008.07C289.14 990.261 292.922 972.548 300.925 956.623C303.459 951.553 307.363 946.439 309.847 941.403L310.036 941.011L310.249 940.705C347.639 886.719 413.568 863.797 473.473 846.004Z"/><path fill="#F43487" d="M310.036 941.011L310.249 940.705C312.843 942.222 324.828 946.27 328.166 947.328C345.72 952.891 363.839 957.477 381.467 962.885C388.092 964.917 398.965 967.542 405.125 970.018C387.208 990.249 379.816 998.694 369.03 1024L291.727 1024C291.124 1018.61 290.226 1013.51 289.942 1008.07C289.14 990.261 292.922 972.548 300.925 956.623C303.459 951.553 307.363 946.439 309.847 941.403L310.036 941.011Z"/><path fill="#E749B5" d="M174.381 898.049C219.466 912.786 264.686 927.107 310.036 941.011L309.847 941.403C307.363 946.439 303.459 951.553 300.925 956.623C292.922 972.548 289.14 990.261 289.942 1008.07C290.226 1013.51 291.124 1018.61 291.727 1024L180.328 1024C156.252 978.455 152.189 945.969 174.151 898.055L174.381 898.049Z"/><path fill="#F43487" d="M567.012 882.965L569.625 882.525C570.75 885.021 603.812 898.124 608.529 900.132C653.176 919.355 697.347 939.666 741.002 961.048L774.33 977.861C780.292 980.847 787.964 984.309 793.643 987.499L794.305 987.453C800.332 991.47 809.195 995.599 815.834 998.901C826.489 1004.21 837.058 1009.7 847.539 1015.34C851.757 1017.57 860.019 1021.61 863.826 1024L714.364 1024L595.587 1024L369.03 1024C379.816 998.694 387.208 990.249 405.125 970.018L405.387 969.967C443.835 934.045 477.584 913.24 527.176 895.351C540.631 890.498 553.514 887.2 567.012 882.965Z"/><path fill="#E749B5" d="M405.387 969.967C447.407 982.496 489.51 994.744 531.694 1006.71C544.11 1010.11 556.546 1013.43 569 1016.69C577.565 1018.9 587.288 1021.17 595.587 1024L369.03 1024C379.816 998.694 387.208 990.249 405.125 970.018L405.387 969.967Z"/><path fill="#E749B5" d="M793.643 987.499L794.305 987.453C800.332 991.47 809.195 995.599 815.834 998.901C826.489 1004.21 837.058 1009.7 847.539 1015.34C851.757 1017.57 860.019 1021.61 863.826 1024L714.364 1024C740.833 1007.49 763.85 996.595 793.643 987.499Z"/><path fill="#FB4995" d="M768.184 856.177C780.377 860.988 793.97 867.989 805.961 873.751C833.411 887.187 860.745 900.86 887.96 914.767C894.905 918.313 903.576 924.087 910.094 927.134L949.243 949.219C956.851 953.474 968.951 959.833 975.788 964.649C990.51 973.103 1009.96 986.322 1024 995.986L1024 1024L863.826 1024C860.019 1021.61 851.757 1017.57 847.539 1015.34C837.058 1009.7 826.489 1004.21 815.834 998.901C809.195 995.599 800.332 991.47 794.305 987.453L793.643 987.499C787.964 984.309 780.292 980.847 774.33 977.861L741.002 961.048C697.347 939.666 653.176 919.355 608.529 900.132C603.812 898.124 570.75 885.021 569.625 882.525C623.329 869.275 681.893 863.63 737.013 858.91C742.158 858.47 764.738 858.06 768.184 856.177Z"/><path fill="#FD669C" d="M975.788 964.649C990.51 973.103 1009.96 986.322 1024 995.986L1024 1024L863.826 1024C860.019 1021.61 851.757 1017.57 847.539 1015.34C837.058 1009.7 826.489 1004.21 815.834 998.901C809.195 995.599 800.332 991.47 794.305 987.453C830.994 975.069 873.635 968.759 912.326 966.209C933.2 964.833 955.185 965.633 975.788 964.649Z"/><path fill="#FB4995" d="M421.649 722.65C475.593 741.12 529.166 758.357 582.244 779.457C615.295 792.596 648.853 804.211 681.37 818.897C708.697 828.754 741.515 843.956 768.184 856.177C764.738 858.06 742.158 858.47 737.013 858.91C681.893 863.63 623.329 869.275 569.625 882.525L567.012 882.965C564.413 881.525 550.073 876.129 546.832 874.831C530.166 868.121 513.455 861.526 496.699 855.046C491.169 852.904 479.606 848.743 474.917 845.967L473.473 846.004C470.133 844.299 462.101 841.644 458.27 840.277L426.193 829.053C395.392 818.103 364.843 806.297 333.711 795.912C325.924 793.314 294.914 784.501 290.701 781.136C313.831 767.733 338.838 754.001 363.499 743.587C372.725 739.69 382.076 736.1 391.54 732.824C395.615 731.433 419.425 724.226 421.649 722.65Z"/><path fill="#FD669C" d="M681.37 818.897C708.697 828.754 741.515 843.956 768.184 856.177C764.738 858.06 742.158 858.47 737.013 858.91C681.893 863.63 623.329 869.275 569.625 882.525L567.012 882.965C564.413 881.525 550.073 876.129 546.832 874.831C530.166 868.121 513.455 861.526 496.699 855.046C491.169 852.904 479.606 848.743 474.917 845.967C494.781 842.017 513.914 836.922 534.199 833.49C583.522 825.143 631.59 821.492 681.37 818.897Z"/><path fill="#FB4995" d="M0 613.612C30.4381 619.475 61.7567 626.814 92.1157 633.386C115.408 638.323 138.62 643.634 161.742 649.316C173.016 652.062 186.524 655.191 197.582 658.474C192.504 659.539 185.601 659.44 180.23 659.877C151.603 662.205 122.892 663.82 94.3472 667.101C74.0296 669.529 53.7777 672.478 33.6117 675.947C25.6388 677.372 6.53481 681.62 0 682.188L0 613.612Z"/><path fill="#637FE1" d="M869.114 389.693C898.975 370.171 936.428 372.256 965.77 391.48C971.86 395.88 974.859 398.397 980.013 403.845C986.617 410.914 990.152 416.858 994.903 425.143C997.491 430.65 1000.26 437.058 1001.35 443.094C1004.71 458.608 1004.22 470.813 1000.27 486.077C997.806 494.035 995.78 498.598 992.059 505.933C959.684 565.729 867.054 564.174 835.125 505.059C832.451 500.107 830.929 495.594 829.238 490.274C827.929 485.106 826.993 481.31 826.17 475.996C824.149 461.32 826.605 447.934 831.629 434.122C833.53 429.479 834.673 426.97 837.109 422.536C844.401 410.256 849.795 404.061 861.053 395.288C863.651 393.237 866.353 391.515 869.114 389.693Z"/><path fill="#637FE1" d="M829.238 490.274C834.2 490.281 839.709 488.903 844.698 488.319C867.748 485.62 887.936 495.284 909.274 501.926C917.866 504.558 926.659 506.483 935.565 507.684C948.857 509.412 961.252 509.14 974.539 507.851C979.269 507.392 987.687 505.974 992.059 505.933C959.684 565.729 867.054 564.174 835.125 505.059C832.451 500.107 830.929 495.594 829.238 490.274Z"/><path fill="#637FE1" d="M869.114 389.693C898.975 370.171 936.428 372.256 965.77 391.48C971.86 395.88 974.859 398.397 980.013 403.845C986.617 410.914 990.152 416.858 994.903 425.143C991.407 426.64 986.366 428.88 982.676 429.497C947.006 435.465 912.374 420.359 877.26 417.482C862.004 416.232 852.035 420.766 837.994 422.435L837.109 422.536C844.401 410.256 849.795 404.061 861.053 395.288C863.651 393.237 866.353 391.515 869.114 389.693Z"/><path fill="#778CE4" d="M869.114 389.693C898.975 370.171 936.428 372.256 965.77 391.48C971.86 395.88 974.859 398.397 980.013 403.845C976.382 407.37 960.946 408.014 955.949 408.032C928.695 408.128 902.038 400.22 875.037 397.643C871.819 397.335 863.188 397.379 861.053 395.288C863.651 393.237 866.353 391.515 869.114 389.693Z"/><path fill="#637FE1" d="M869.114 389.693C898.975 370.171 936.428 372.256 965.77 391.48C956.516 395.883 904.007 387.937 891.853 387.896C886.94 387.879 871.391 389.931 869.114 389.693Z"/><path fill="#778CE4" d="M826.17 475.996C827.913 472.795 843.236 467.309 847.238 465.995C870.836 458.247 893.147 470.788 914.478 479.564C943.82 491.635 969.439 492.239 1000.27 486.077C997.806 494.035 995.78 498.598 992.059 505.933C987.687 505.974 979.269 507.392 974.539 507.851C961.252 509.14 948.857 509.412 935.565 507.684C926.659 506.483 917.866 504.558 909.274 501.926C887.936 495.284 867.748 485.62 844.698 488.319C839.709 488.903 834.2 490.281 829.238 490.274C827.929 485.106 826.993 481.31 826.17 475.996Z"/><path fill="#778CE4" d="M837.109 422.536L837.994 422.435C852.035 420.766 862.004 416.232 877.26 417.482C912.374 420.359 947.006 435.465 982.676 429.497C986.366 428.88 991.407 426.64 994.903 425.143C997.491 430.65 1000.26 437.058 1001.35 443.094C1000.49 444.582 992.244 446.665 989.936 447.468C952.427 460.527 910.358 430.647 873.494 428.809C864.593 428.406 855.68 429.28 847.027 431.407C843.504 432.272 834.468 435.54 831.629 434.122C833.53 429.479 834.673 426.97 837.109 422.536Z"/><path fill="#F0FAFC" d="M384.487 591.65C389.33 596.327 382.944 603.349 398.095 612.002C387.277 620.089 389.013 620.304 385.233 633.187C383.187 631.706 382.427 625.73 381.454 623.076C379.296 617.19 376.668 615.443 371.848 612.181C381.779 605.398 381.215 603.028 384.487 591.65Z"/><path fill="#F0FAFC" d="M905.682 651.869C906.39 652.705 906.65 654.049 906.967 655.095C909.751 664.278 909.61 666.969 917.487 672.667C908.988 679.633 909.208 683.712 905.361 693.296C902.673 683.799 901.74 678.655 893.219 672.891C902.356 666.818 903.124 662.009 905.682 651.869Z"/><path fill="#F0FAFC" d="M680.546 678.24C682.196 679.584 684.426 688.186 686.062 691.616C688.833 693.771 690.66 694.669 693.758 696.314C684.776 702.16 683.943 707.841 681.178 716.983C677.997 715.285 679.541 703.867 668.304 696.78C677.313 691.669 677.504 687.674 680.546 678.24Z"/><path fill="#F0FAFC" d="M741.821 470.733C746.613 469.624 751.411 472.556 752.611 477.326C753.811 482.096 750.972 486.949 746.226 488.24C743.074 489.098 739.704 488.186 737.415 485.855C735.126 483.525 734.274 480.14 735.188 477.004C736.102 473.867 738.638 471.469 741.821 470.733Z"/><path fill="#F0FAFC" d="M953.373 278.228C958.067 276.844 962.997 279.509 964.412 284.193C965.826 288.878 963.194 293.826 958.518 295.27C953.8 296.728 948.797 294.067 947.369 289.339C945.942 284.611 948.636 279.625 953.373 278.228Z"/><path fill="#F0FAFC" d="M166.563 557.753C170.83 557.522 174.467 560.816 174.658 565.085C174.85 569.354 171.523 572.96 167.252 573.113C163.036 573.263 159.487 569.988 159.298 565.774C159.109 561.56 162.351 557.981 166.563 557.753Z"/><path fill="#F0FAFC" d="M595.624 544.799C598.116 543.731 600.99 544.092 603.14 545.744C605.289 547.396 606.379 550.08 605.988 552.763C605.597 555.446 603.787 557.708 601.256 558.678C597.446 560.138 593.169 558.28 591.634 554.5C590.1 550.719 591.874 546.406 595.624 544.799Z"/><path fill="#F0FAFC" d="M833.268 642.805C835.822 642.201 838.503 643.029 840.271 644.968C842.04 646.907 842.618 649.653 841.782 652.14C840.945 654.628 838.826 656.467 836.245 656.944C832.39 657.656 828.669 655.164 827.861 651.327C827.053 647.49 829.452 643.708 833.268 642.805Z"/><path fill="#F0FAFC" d="M962 819.292C964.525 819.03 966.996 820.147 968.467 822.217C969.938 824.287 970.181 826.988 969.103 829.287C968.025 831.585 965.793 833.126 963.261 833.318C959.421 833.611 956.058 830.763 955.713 826.927C955.368 823.091 958.169 819.69 962 819.292Z"/><path fill="#F0FAFC" d="M542.24 652.235C545.837 651.052 549.717 652.977 550.952 656.556C552.186 660.136 550.317 664.043 546.755 665.329C544.405 666.177 541.781 665.694 539.887 664.065C537.993 662.436 537.123 659.913 537.611 657.463C538.098 655.013 539.867 653.015 542.24 652.235Z"/><path fill="#F0FAFC" d="M982.646 612.286C986.382 611.576 989.989 614.024 990.707 617.759C991.425 621.494 988.984 625.105 985.251 625.831C981.507 626.559 977.883 624.109 977.162 620.364C976.442 616.618 978.899 612.999 982.646 612.286Z"/><path fill="#F0FAFC" d="M776.378 767.6C778.784 766.942 781.357 767.638 783.104 769.417C784.852 771.196 785.5 773.781 784.8 776.175C784.099 778.568 782.159 780.396 779.728 780.953C776.076 781.789 772.426 779.551 771.514 775.917C770.602 772.283 772.764 768.587 776.378 767.6Z"/><path fill="#F0FAFC" d="M297.118 569.618C300.44 569.356 303.387 571.74 303.823 575.045C304.258 578.349 302.031 581.416 298.754 582.024C296.476 582.447 294.151 581.578 292.709 579.765C291.266 577.953 290.942 575.492 291.865 573.367C292.788 571.243 294.808 569.801 297.118 569.618Z"/><path fill="#F0FAFC" d="M635.242 395.788C637.014 395.122 639.007 395.461 640.461 396.673C641.914 397.886 642.604 399.786 642.267 401.649C641.93 403.511 640.619 405.049 638.832 405.676C636.112 406.631 633.13 405.218 632.146 402.508C631.162 399.798 632.543 396.801 635.242 395.788Z"/><path fill="#F0FAFC" d="M901.507 330.498C903.699 329.769 906.068 330.946 906.813 333.133C907.557 335.32 906.397 337.698 904.216 338.458C902.012 339.225 899.605 338.051 898.853 335.842C898.102 333.633 899.292 331.235 901.507 330.498Z"/><path fill="#F0FAFC" d="M785.445 561.21C787.535 560.504 789.805 561.601 790.551 563.677C791.297 565.753 790.244 568.044 788.183 568.83C786.814 569.352 785.27 569.093 784.145 568.154C783.02 567.215 782.491 565.741 782.76 564.301C783.03 562.861 784.057 561.678 785.445 561.21Z"/><path fill="#F0FAFC" d="M660.158 620.265C661.153 619.946 662.228 620.437 662.637 621.398C663.047 622.36 662.657 623.475 661.737 623.971C661.062 624.336 660.239 624.287 659.611 623.845C658.984 623.403 658.661 622.644 658.777 621.886C658.893 621.128 659.427 620.5 660.158 620.265Z"/></svg>