<?xml version="1.0" encoding="utf-8" ?><svg xmlns="http://www.w3.org/2000/svg" xmlns:xlink="http://www.w3.org/1999/xlink" width="1024" height="1024" viewBox="0 0 1024 1024"><path fill="#020937" d="M0 0L1024 0L1024 603.063L1024 637.143L1024 693.944L1024 723.061L1024 765.097L1024 834.68L1024 874.452L1024 911.077L1024 984.863L1024 1024L963.773 1024L883.421 1024L613.609 1024L312.81 1024L243.466 1024L198.535 1024L161.861 1024L73.7848 1024L0 1024L0 0Z"/><path fill="#FD669C" d="M513.599 707.217C608.902 657.884 721.148 624.311 827.527 609.722L827.693 610.474C828.357 613.643 828.335 620.077 828.892 623.767C830.221 632.582 834.036 638.017 837.598 645.664L837.923 645.684C845.208 659.493 863.524 676.755 876.594 685.599C881.451 688.884 891.649 694.624 895.575 698.02L896.082 698.114C907.51 708.225 930.605 717.714 943.064 725.889L943.62 726.053C968.276 723.903 999.515 723.03 1024 723.061L1024 765.097L1024 834.68L1024 874.452L1024 911.077L1024 984.863L1024 1024L963.773 1024L883.421 1024L613.609 1024L312.81 1024L243.466 1024L198.535 1024L161.861 1024C164.743 1019.64 168.314 1013 171.068 1008.35C176.14 999.868 181.314 991.449 186.588 983.092C191.314 975.56 198.904 965.869 202.801 958.929C251.358 894.427 304.615 841.668 370.211 794.636C378.403 788.762 386.926 783.458 394.63 776.941C397.608 775.537 404.816 770.565 407.839 768.584C417.094 762.432 426.397 756.351 435.747 750.343C452.868 739.192 470.528 729.692 488.389 719.86C493.547 717.02 507.712 710.559 511.568 707.614L513.599 707.217Z"/><path fill="#B91D90" d="M971.284 880.021C983.331 877.292 1011.3 874.911 1024 874.452L1024 911.077L1024 984.863L1024 1024L963.773 1024L883.421 1024L613.609 1024C615.359 1022.37 617.252 1020.75 619.056 1019.17C648.412 994.459 677.971 975.733 711.707 957.709C718.995 953.815 726.65 950.359 733.703 946.54L734.107 946.466C737.872 943.729 773.147 927.492 777.536 927.257L777.464 927.101C808.701 915.168 837.593 904.369 870.848 898L870.909 897.718C894.198 893.448 917.191 886.96 940.884 884.24C950.426 883.144 961.535 882.004 970.9 880.069L971.284 880.021Z"/><path fill="#B91D90" d="M733.703 946.54L734.107 946.466C744.778 952.025 756.239 956.924 767.051 962.417C805.539 981.969 846.758 1001.17 883.421 1024L613.609 1024C615.359 1022.37 617.252 1020.75 619.056 1019.17C648.412 994.459 677.971 975.733 711.707 957.709C718.995 953.815 726.65 950.359 733.703 946.54Z"/><path fill="#BD46AA" d="M971.284 880.021C983.331 877.292 1011.3 874.911 1024 874.452L1024 911.077L1024 984.863C1005.28 970.59 987.203 960.421 967.01 948.937C946.756 937.285 926.294 925.998 905.635 915.081C900.137 912.124 894.568 909.3 888.935 906.609C885.817 905.155 872.844 899.619 870.848 898L870.909 897.718C894.198 893.448 917.191 886.96 940.884 884.24C950.426 883.144 961.535 882.004 970.9 880.069L971.284 880.021Z"/><path fill="#B91D90" d="M971.284 880.021C983.331 877.292 1011.3 874.911 1024 874.452L1024 911.077C1020.13 908.057 1012.88 904.127 1008.55 901.429C996.317 893.819 983.865 886.986 971.284 880.021Z"/><path fill="#6525A8" d="M734.107 946.466C737.872 943.729 773.147 927.492 777.536 927.257C822.017 947.468 865.788 969.206 908.771 992.433C919.438 998.153 930.053 1003.97 940.617 1009.88C947.331 1013.64 957.685 1019.47 963.773 1024L883.421 1024C846.758 1001.17 805.539 981.969 767.051 962.417C756.239 956.924 744.778 952.025 734.107 946.466Z"/><path fill="#FB4995" d="M413.976 921.617C429.606 908.969 445.721 896.933 462.285 885.535C471.056 879.407 481.225 872.186 490.456 866.841C493.598 868.306 501.645 869.581 505.586 870.477C553.196 881.301 600.209 895.259 646.029 912.06C664.589 918.722 683.017 925.744 701.305 933.12C711.108 937.055 724.307 943.194 733.703 946.54C726.65 950.359 718.995 953.815 711.707 957.709C677.971 975.733 648.412 994.459 619.056 1019.17C617.252 1020.75 615.359 1022.37 613.609 1024L312.81 1024C314.735 1020.77 323.473 1010.62 326.307 1007.22C352.558 975.794 381.932 947.112 413.976 921.617Z"/><path fill="#F43487" d="M413.976 921.617C473.407 933.973 550.426 965.363 598.575 1001.92C604.134 1006.14 614.959 1013.85 619.056 1019.17C617.252 1020.75 615.359 1022.37 613.609 1024L312.81 1024C314.735 1020.77 323.473 1010.62 326.307 1007.22C352.558 975.794 381.932 947.112 413.976 921.617Z"/><path fill="#F43487" d="M1024 723.061L1024 765.097L1024 834.68L1024 874.452C1011.3 874.911 983.331 877.292 971.284 880.021L970.9 880.069C966.662 876.963 958.953 873.003 954.214 870.48C945.505 865.817 936.759 861.225 927.975 856.705C894.072 839.204 851.482 818.745 816.216 804.947C799.037 798.228 781.823 791.598 764.576 785.057C751.553 780.232 732.35 773.529 720.322 767.538C736.269 761.34 756.091 758.449 772.628 754.193C791.85 749.247 810.745 745.285 830.109 741.138L830.614 740.965C833.053 740.289 835.817 739.825 838.311 739.311C867.337 733.331 896.797 730.534 926.222 727.388C931.839 726.788 937.425 726.148 943.064 725.889L943.62 726.053C968.276 723.903 999.515 723.03 1024 723.061Z"/><path fill="#B91D90" d="M1024 723.061L1024 765.097L1024 834.68C1007.13 825.588 990.372 815.734 973.443 806.54C957.911 798.222 942.185 790.269 926.279 782.689C906.238 773.068 885.99 763.884 865.549 755.145C855.05 750.723 840.841 745.634 831.146 741.211L830.614 740.965C833.053 740.289 835.817 739.825 838.311 739.311C867.337 733.331 896.797 730.534 926.222 727.388C931.839 726.788 937.425 726.148 943.064 725.889L943.62 726.053C968.276 723.903 999.515 723.03 1024 723.061Z"/><path fill="#8E0E8E" d="M1024 723.061L1024 765.097C1002.79 756.165 981.653 744.503 960.781 734.711C955.368 732.171 948.694 729.099 943.62 726.053C968.276 723.903 999.515 723.03 1024 723.061Z"/><path fill="#F43487" d="M616.527 800.618C622.049 798.847 637.786 805.312 644.169 807.288C686.564 820.414 727.901 836.338 768.945 853.172C781.359 858.264 793.883 863.057 806.199 868.39C823.362 875.822 840.274 883.937 857.371 891.546C861.891 893.558 866.331 895.855 870.909 897.718L870.848 898C837.593 904.369 808.701 915.168 777.464 927.101L777.536 927.257C773.147 927.492 737.872 943.729 734.107 946.466L733.703 946.54C724.307 943.194 711.108 937.055 701.305 933.12C683.017 925.744 664.589 918.722 646.029 912.06C600.209 895.259 553.196 881.301 505.586 870.477C501.645 869.581 493.598 868.306 490.456 866.841C504.459 857.887 515.289 851.593 530.04 844.064C532.854 842.605 535.611 841.015 538.351 839.418C563.527 824.747 590.375 813.282 616.527 800.618Z"/><path fill="#8E0E8E" d="M530.04 844.064C546.062 849.394 566.7 854.255 583.331 858.916C616.532 868.037 649.363 878.451 681.752 890.133C701.147 897.327 720.774 904.971 740.204 911.985C746.567 914.282 773.674 926.808 777.464 927.101L777.536 927.257C773.147 927.492 737.872 943.729 734.107 946.466L733.703 946.54C724.307 943.194 711.108 937.055 701.305 933.12C683.017 925.744 664.589 918.722 646.029 912.06C600.209 895.259 553.196 881.301 505.586 870.477C501.645 869.581 493.598 868.306 490.456 866.841C504.459 857.887 515.289 851.593 530.04 844.064Z"/><path fill="#FD669C" d="M394.63 776.941C397.608 775.537 404.816 770.565 407.839 768.584C417.094 762.432 426.397 756.351 435.747 750.343C446.4 753.526 457.098 756.555 467.838 759.43C473.217 760.873 484.795 763.656 489.685 765.548C484.733 769.499 470.76 776.256 464.495 779.9C448.072 789.451 431.409 799.169 415.379 809.35C411.328 811.923 399.225 819.043 395.876 821.713C387.097 826.921 370.808 840.098 362.978 846.736C343.035 859.599 321.462 883.146 302.883 898.232C270.24 926.617 237.352 967.139 212.482 1002.57C209.406 1006.95 200.378 1019.76 198.535 1024L161.861 1024C164.743 1019.64 168.314 1013 171.068 1008.35C176.14 999.868 181.314 991.449 186.588 983.092C191.314 975.56 198.904 965.869 202.801 958.929C251.358 894.427 304.615 841.668 370.211 794.636C378.403 788.762 386.926 783.458 394.63 776.941Z"/><path fill="#B91D90" d="M837.598 645.664L837.923 645.684C845.208 659.493 863.524 676.755 876.594 685.599C881.451 688.884 891.649 694.624 895.575 698.02L896.082 698.114C907.51 708.225 930.605 717.714 943.064 725.889C937.425 726.148 931.839 726.788 926.222 727.388C896.797 730.534 867.337 733.331 838.311 739.311C835.817 739.825 833.053 740.289 830.614 740.965L830.109 741.138C815.054 735.63 800.107 729.832 785.275 723.749C776.761 720.162 768.224 716.111 759.736 712.623L759.412 712.552C757.261 711.317 751.636 709.187 748.962 708.086C742.044 705.257 735.142 702.391 728.256 699.488C714.545 693.651 699.405 686.014 685.843 679.518C718.713 669.537 752.051 661.167 785.738 654.439C802.829 651.172 820.824 649.14 837.598 645.664Z"/><path fill="#FB4995" d="M895.575 698.02L896.082 698.114C907.51 708.225 930.605 717.714 943.064 725.889C937.425 726.148 931.839 726.788 926.222 727.388C896.797 730.534 867.337 733.331 838.311 739.311C835.817 739.825 833.053 740.289 830.614 740.965L830.109 741.138C815.054 735.63 800.107 729.832 785.275 723.749C776.761 720.162 768.224 716.111 759.736 712.623C767.782 712.182 778.335 710.473 786.571 709.369C801.168 707.332 815.797 705.542 830.454 703.998C848.589 702.151 866.812 700.824 884.962 699.121C888.252 698.813 892.464 698.808 895.575 698.02Z"/><path fill="#F43487" d="M198.535 1024C200.378 1019.76 209.406 1006.95 212.482 1002.57C237.352 967.139 270.24 926.617 302.883 898.232C315.015 901.385 338.282 903.754 351.449 905.32C342.193 914.074 332.343 922.918 323.339 931.832C306.527 948.577 290.405 966 275.013 984.059C264.261 996.628 253.664 1012.61 243.466 1024L198.535 1024Z"/><path fill="#F43487" d="M490.084 765.393C503.726 770.191 518.286 772.539 532.242 776.264C534.735 776.929 545.988 779.014 546.876 780.809C540.604 783.208 533.699 786.803 527.665 789.819C506.275 800.507 484.962 811.644 464.567 824.141C462.356 825.496 459.933 827.086 457.674 828.285C447.308 834.498 429.117 847.733 420.002 852.319C405.654 848.671 378.355 848.441 362.978 846.736C370.808 840.098 387.097 826.921 395.876 821.713C399.225 819.043 411.328 811.923 415.379 809.35C431.409 799.169 448.072 789.451 464.495 779.9C470.76 776.256 484.733 769.499 489.685 765.548L490.084 765.393Z"/><path fill="#8E0E8E" d="M395.876 821.713C409.791 822.96 423.689 824.385 437.568 825.988C443.111 826.602 452.413 827.328 457.674 828.285C447.308 834.498 429.117 847.733 420.002 852.319C405.654 848.671 378.355 848.441 362.978 846.736C370.808 840.098 387.097 826.921 395.876 821.713Z"/><path fill="#F43487" d="M573.703 722.683C612.755 705.47 645.534 693.378 685.843 679.518C699.405 686.014 714.545 693.651 728.256 699.488C735.142 702.391 742.044 705.257 748.962 708.086C751.636 709.187 757.261 711.317 759.412 712.552C749.517 715.406 734.68 717.626 724.084 720.142C703.761 724.969 684.331 729.316 664.533 736.371C660.161 737.929 650.243 740.073 646.599 742.054L646.113 741.961C643.683 740.745 628.8 736.875 625.422 735.98C608.249 731.433 590.845 727.387 573.703 722.683Z"/><path fill="#FEA2D1" d="M646.113 741.961L646.599 742.054C670.96 750.377 696.882 757.107 720.678 767.508C712.586 770.394 702.214 772.2 693.646 774.772C677.078 779.747 660.758 784.995 644.388 790.539C640.091 791.994 620.475 799.725 617.909 799.359C614.322 797.825 604.134 795.359 600.031 794.144C583.018 789.107 565.35 785.531 548.42 780.258C552.503 776.509 595.189 760.494 602.464 757.473C614.55 752.455 633.192 746.758 646.113 741.961Z"/><path fill="#FEA2D1" d="M513.599 707.217C533.123 712.998 554.88 717.07 573.493 722.922C565.031 727.402 555.302 731.344 546.531 735.613C527.306 744.743 508.474 754.679 490.084 765.393L489.685 765.548C484.795 763.656 473.217 760.873 467.838 759.43C457.098 756.555 446.4 753.526 435.747 750.343C452.868 739.192 470.528 729.692 488.389 719.86C493.547 717.02 507.712 710.559 511.568 707.614L513.599 707.217Z"/><path fill="#FB4995" d="M302.883 898.232C321.462 883.146 343.035 859.599 362.978 846.736C378.355 848.441 405.654 848.671 420.002 852.319C400.448 867.176 380.423 880.624 361.961 896.96C359.507 899.131 354.139 903.678 351.449 905.32C338.282 903.754 315.015 901.385 302.883 898.232Z"/><path fill="#5663CF" d="M100.134 1023.43C102.758 997.062 111.102 966.315 118.84 940.902C152.602 830.014 213.598 738.656 294.394 656.693C331.638 618.593 372.25 583.94 415.735 553.155C447.82 530.304 485.716 507.334 520.144 488.019C554.25 469.278 588.881 451.508 623.995 434.732C632.413 430.672 640.984 426.933 649.406 422.83C679.826 407.905 709.997 392.478 739.908 376.557C755.542 368.167 770.939 359.342 786.082 350.093C878.577 294.588 961.914 223.399 987.119 113.334C988.204 108.597 988.978 103.491 990.42 98.8757L990.594 98.3349C990.355 110.702 988.395 121.918 985.599 133.909C947.141 298.826 780.22 383.35 645.05 458.245C610.203 477.963 575.766 498.395 541.761 519.53C525.082 529.926 509.604 541.247 493.692 552.708C400.025 620.176 320.277 704.358 263.253 805.161C245.572 835.756 230.698 867.889 218.812 901.167C212.297 919.68 207.25 939.799 202.801 958.929C198.904 965.869 191.314 975.56 186.588 983.092C181.314 991.449 176.14 999.868 171.068 1008.35C168.314 1013 164.743 1019.64 161.861 1024L73.7848 1024C77.4978 1023.37 95.3737 1023.48 100.134 1023.43Z"/><path fill="#05B3FC" d="M394.63 776.941C395.209 772.299 411.231 749.555 414.961 744.255C436.929 712.927 461.926 683.836 489.59 657.403C518.847 628.865 550.07 602.416 583.029 578.249C676.235 510.298 800.714 452.486 911.575 421.665L911.201 423.594C887.364 434.88 862.857 445.102 839.404 456.948C736.58 508.883 638.2 572.256 557.319 654.969C548.155 664.341 516.728 696.839 511.568 707.614C507.712 710.559 493.547 717.02 488.389 719.86C470.528 729.692 452.868 739.192 435.747 750.343C426.397 756.351 417.094 762.432 407.839 768.584C404.816 770.565 397.608 775.537 394.63 776.941Z"/><path fill="#8E0E8E" d="M837.923 645.684C844.808 643.692 866.897 641.907 874.922 641.204C924.472 636.574 974.272 635.217 1024 637.143L1024 693.944L1024 723.061C999.515 723.03 968.276 723.903 943.62 726.053L943.064 725.889C930.605 717.714 907.51 708.225 896.082 698.114L895.575 698.02C891.649 694.624 881.451 688.884 876.594 685.599C863.524 676.755 845.208 659.493 837.923 645.684Z"/><path fill="#BD46AA" d="M896.082 698.114C939.606 693.707 980.316 693.051 1024 693.944L1024 723.061C999.515 723.03 968.276 723.903 943.62 726.053L943.064 725.889C930.605 717.714 907.51 708.225 896.082 698.114Z"/><path fill="#BD46AA" d="M827.527 609.722C831.277 608.71 851.002 606.988 855.796 606.376C912.734 599.103 966.912 600.359 1024 603.063L1024 637.143C974.272 635.217 924.472 636.574 874.922 641.204C866.897 641.907 844.808 643.692 837.923 645.684L837.598 645.664C834.036 638.017 830.221 632.582 828.892 623.767C828.335 620.077 828.357 613.643 827.693 610.474L827.527 609.722Z"/><path fill="#05B3FC" d="M911.575 421.665C914.305 420.665 916.34 420.172 919.13 419.483C916.552 420.916 913.917 422.468 911.201 423.594L911.575 421.665Z"/><path fill="#43187F" d="M292.129 100.236C399.856 95.7129 490.872 179.338 495.466 287.062C500.06 394.786 416.496 485.856 308.775 490.522C200.953 495.192 109.779 411.532 105.18 303.707C100.581 195.882 184.301 104.763 292.129 100.236Z"/><path fill="#B9E6FB" d="M189.097 421.517C130.02 369.24 115.176 282.946 153.388 213.933C191.601 144.92 272.617 111.705 348.277 134.032C414.449 153.559 462.003 211.491 468.261 280.199C474.519 348.908 438.213 414.477 376.658 445.637C315.103 476.798 240.765 467.238 189.097 421.517Z"/><path fill="#61CFF9" d="M348.277 134.032C414.449 153.559 462.003 211.491 468.261 280.199C474.519 348.908 438.213 414.477 376.658 445.637C315.103 476.798 240.765 467.238 189.097 421.517C196.118 422.196 204.328 424.912 211.466 426.064C221.778 427.728 232.008 428.346 242.418 429.004C278.576 429.42 304.015 425.044 336.157 406.573C370.291 386.958 400.499 348.307 410.203 310.172C422.482 261.918 416.087 222.522 391.621 180.068L391.662 179.93C382.086 164.992 370.239 150.704 355.82 140.258C353.332 138.455 350.463 136.18 348.277 134.032Z"/><path fill="#05B3FC" d="M391.621 180.068C395.302 179.496 402.717 189.368 405.682 192.288C417.848 204.272 426.139 218.406 433.67 233.47C488.896 343.943 380.729 475.324 261.556 436.069C255.582 434.101 248.977 431.481 243.021 429.801L242.418 429.004C278.576 429.42 304.015 425.044 336.157 406.573C370.291 386.958 400.499 348.307 410.203 310.172C422.482 261.918 416.087 222.522 391.621 180.068Z"/><path fill="#61CFF9" d="M314.793 166.542C334.55 164.113 352.515 178.21 354.854 197.977C357.193 217.744 343.013 235.644 323.236 237.893C303.586 240.127 285.826 226.059 283.502 206.419C281.178 186.78 295.165 168.956 314.793 166.542Z"/><path fill="#61CFF9" d="M328.831 293.308C345.694 291.67 360.692 304.009 362.334 320.871C363.975 337.732 351.639 352.733 334.778 354.379C317.912 356.025 302.905 343.684 301.262 326.817C299.62 309.95 311.964 294.946 328.831 293.308Z"/><path fill="#61CFF9" d="M240.618 354.476C249.498 353.026 257.867 359.065 259.288 367.95C260.709 376.834 254.643 385.183 245.753 386.575C236.905 387.961 228.603 381.928 227.189 373.085C225.774 364.241 231.779 355.92 240.618 354.476Z"/><path fill="#61CFF9" d="M214.918 241.233C219.747 240.249 224.731 241.958 227.94 245.699C231.149 249.439 232.081 254.624 230.375 259.248C228.669 263.872 224.592 267.209 219.723 267.969C212.43 269.107 205.563 264.213 204.257 256.949C202.951 249.684 207.685 242.705 214.918 241.233Z"/><path fill="#F0FAFC" d="M701.568 201.951C762.847 200.483 760.779 294.888 695.096 288.398C675.163 285.082 661.691 268.681 658.271 249.429C660.616 250.454 662.87 251.36 665.332 252.065C674.287 254.54 683.855 253.401 691.978 248.892C699.398 244.721 704.819 237.729 707.01 229.504C710.051 218.344 706.908 211.332 701.568 201.951Z"/><path fill="#F0FAFC" d="M461.62 63.2051C472.669 61.1949 483.248 68.545 485.218 79.6008C487.189 90.6567 479.8 101.209 468.738 103.14C457.731 105.061 447.244 97.7184 445.283 86.7186C443.322 75.7189 450.627 65.2051 461.62 63.2051Z"/><path fill="#F0FAFC" d="M86.8712 513.872C93.7849 512.056 101.141 514.114 106.108 519.253C111.076 524.393 112.883 531.815 110.832 538.663C108.782 545.51 103.194 550.718 96.2192 552.282C85.7025 554.64 75.2351 548.139 72.6864 537.667C70.1377 527.195 76.4471 516.611 86.8712 513.872Z"/><path fill="#F0FAFC" d="M837.683 91.8809C847.917 89.641 858.027 96.1309 860.25 106.368C862.474 116.606 855.969 126.705 845.728 128.913C835.509 131.116 825.437 124.628 823.218 114.413C820.999 104.198 827.472 94.116 837.683 91.8809Z"/><path fill="#05B3FC" d="M180.203 618.335C181.617 619.989 183.803 624.337 184.799 626.431C188.187 633.559 191.73 636.32 197.541 641.164C187.897 650.006 186.181 652.682 180.282 664.138C178.334 661.442 176.717 656.887 174.992 653.863C172.175 648.926 167.354 645.273 163.145 641.489C173.564 632.506 174.108 630.645 180.203 618.335Z"/><path fill="#F43487" d="M766.195 541.834C766.988 542.589 768.364 545.534 768.829 546.594C773.153 556.432 776.41 559.249 785.624 564.064C777.893 568.56 773.949 571.694 769.978 579.946C769.268 581.422 767.78 584.799 767 586.074L766.611 586.698C759.646 572.836 759.619 572.042 746.419 564.194C757.748 558.848 761.521 553.26 766.195 541.834Z"/><path fill="#798BED" d="M85.0563 670.764C86.0937 671.92 88.6714 676.049 89.487 677.418C93.5249 684.195 96.015 686.667 102.263 691.213C92.8048 698.763 91.1761 701.332 85.5374 712.023C82.5204 707.998 79.7394 701.306 75.9756 697.578C74.0157 695.637 71.2878 694.375 68.8082 692.053C68.5783 690.297 70.2303 689.212 71.7933 688.254C78.7759 683.971 81.3489 677.881 85.0563 670.764Z"/><path fill="#05B3FC" d="M653.346 36.3977C653.916 37.0063 656.175 40.9711 656.685 41.8673C660.851 49.1967 662.911 51.2707 669.518 56.2476C666.524 59.5242 662.231 62.685 659.542 66.176C657.549 68.763 655.676 73.8859 653.407 76.1595C645.12 66.3271 647.586 66.2024 636.18 56.9211C645.1 49.2187 647.103 46.4025 653.346 36.3977Z"/><path fill="#F43487" d="M899.517 37.72C902.132 40.0386 904.837 45.6008 907.401 48.4181C909.054 50.2351 911.495 51.9491 913.481 53.4279C905.717 58.7907 904.637 60.6424 900.677 69.0323C898.551 67.8393 895.069 59.7627 892.418 57.4193C890.499 55.7235 889.266 54.9686 887.137 53.5817C894.573 47.3426 895.185 46.6579 899.517 37.72Z"/><path fill="#F43487" d="M58.6819 162.252C60.9525 164.24 63.0869 169.147 65.3533 171.553C66.597 172.874 68.7941 174.486 70.2794 175.615C67.5315 178.652 64.9372 180.602 62.6134 184.414C61.685 185.937 60.2269 189.158 58.9618 189.878C54.1533 182.192 53.8234 180.974 46.2329 176.161C54.1511 170.532 53.5456 170.844 58.6819 162.252Z"/><path fill="#5663CF" d="M984.685 286.575C987.852 285.877 991.149 286.941 993.309 289.358C995.47 291.776 996.159 295.172 995.11 298.24C994.061 301.309 991.439 303.573 988.25 304.163C983.436 305.053 978.796 301.92 977.823 297.121C976.85 292.323 979.904 287.63 984.685 286.575Z"/><path fill="#5663CF" d="M722.636 97.1743C727.423 96.2643 732.056 99.3638 733.04 104.137C734.025 108.909 730.999 113.589 726.242 114.649C723.098 115.349 719.821 114.3 717.667 111.905C715.514 109.51 714.818 106.14 715.848 103.088C716.877 100.036 719.472 97.7759 722.636 97.1743Z"/><path fill="#5663CF" d="M198.452 39.2885C201.54 38.3751 204.881 39.1972 207.192 41.4394C209.504 43.6817 210.427 46.9959 209.608 50.1105C208.789 53.225 206.355 55.6563 203.239 56.4713C198.527 57.7042 193.697 54.9285 192.389 50.2361C191.082 45.5437 193.781 40.6702 198.452 39.2885Z"/><path fill="#5350BE" d="M359.971 719.555C364.692 719.179 369.043 719.553 371.347 724.23C374.269 730.163 370.53 733.858 365.864 736.344C361.672 736.875 357.669 736.045 355.202 732.3C353.932 730.39 353.547 728.025 354.146 725.811C355.076 722.466 357.155 721.125 359.971 719.555Z"/><path fill="#05B3FC" d="M563.847 175.775C565.153 176.711 567.507 180.173 568.855 181.696C571.361 184.524 572.919 185.657 576.003 187.858C569.59 194.078 569.278 193.132 565.166 201.14C559.702 193.907 561.495 193.126 552.516 188.92C558.403 183.657 559.927 182.539 563.847 175.775Z"/><path fill="#5663CF" d="M852.712 208.093C857.465 207.67 861.69 211.106 862.246 215.845C862.801 220.583 859.485 224.904 854.764 225.591C851.59 226.054 848.416 224.755 846.476 222.201C844.536 219.647 844.136 216.241 845.433 213.308C846.73 210.374 849.518 208.377 852.712 208.093Z"/><path fill="#5663CF" d="M579.679 373.73C584.163 372.509 588.792 375.132 590.048 379.606C591.304 384.08 588.716 388.73 584.252 390.021C579.739 391.326 575.026 388.704 573.756 384.18C572.486 379.656 575.145 374.964 579.679 373.73Z"/><path fill="#5663CF" d="M55.9975 428.565C59.9773 428.371 63.0311 428.603 65.4537 432.268C66.639 434.068 67.0205 436.281 66.5063 438.375C65.6887 441.739 63.5847 443.271 60.7791 444.877C50.3502 447.13 45.9409 434.741 55.9975 428.565Z"/><path fill="#5663CF" d="M860.024 557.571C864.46 557.13 867.662 557.233 870.03 561.618C871.23 563.822 871.401 566.442 870.498 568.784C869.398 571.688 867.81 572.677 865.135 573.885C854.511 574.44 850.591 564.019 860.024 557.571Z"/><path fill="#61CFF9" d="M129.33 64.5086C129.726 64.9499 129.643 64.8007 129.922 65.4288C132.342 70.8766 135.04 72.6165 139.831 75.702C133.749 79.6702 133.019 79.8454 129.092 85.8949C128.482 85.5509 128.603 85.7005 128.184 85.1166C125.133 80.8668 122.686 78.5095 118.607 75.2507C124.65 71.1622 125.332 70.5779 129.33 64.5086Z"/><path fill="#798BED" d="M49.6314 866.337C53.6444 865.14 57.8761 867.382 59.1386 871.375C60.4011 875.368 58.2278 879.636 54.2559 880.963C51.6285 881.841 48.7318 881.234 46.6778 879.376C44.6237 877.517 43.7315 874.695 44.3435 871.993C44.9556 869.291 46.9768 867.13 49.6314 866.337Z"/><path fill="#05B3FC" d="M678.959 343.81C680.54 343.12 682.373 343.358 683.726 344.43C685.078 345.501 685.729 347.231 685.42 348.928C685.11 350.625 683.89 352.013 682.247 352.538C679.879 353.294 677.333 352.062 676.457 349.736C675.58 347.409 676.68 344.804 678.959 343.81Z"/><path fill="#F0FAFC" d="M150.244 754.264C152.706 753.717 155.157 755.225 155.779 757.669C156.401 760.113 154.969 762.609 152.545 763.305C150.91 763.775 149.148 763.318 147.948 762.112C146.748 760.906 146.299 759.142 146.777 757.509C147.255 755.876 148.583 754.633 150.244 754.264Z"/><path fill="#F0FAFC" d="M945.832 492.302C947.325 491.566 949.098 491.695 950.47 492.637C951.841 493.58 952.597 495.19 952.445 496.847C952.294 498.504 951.259 499.951 949.739 500.629C947.45 501.65 944.765 500.651 943.7 498.382C942.635 496.113 943.583 493.409 945.832 492.302Z"/><path fill="#F0FAFC" d="M430.743 501.726C432.946 500.586 435.657 501.457 436.784 503.668C437.911 505.879 437.023 508.584 434.805 509.697C432.607 510.8 429.93 509.922 428.813 507.73C427.696 505.539 428.558 502.857 430.743 501.726Z"/><path fill="#F0FAFC" d="M821.626 401.215C823.849 400.534 826.213 401.721 826.996 403.909C827.779 406.098 826.704 408.515 824.554 409.399C823.072 410.008 821.374 409.753 820.136 408.735C818.898 407.718 818.32 406.101 818.632 404.529C818.943 402.957 820.094 401.684 821.626 401.215Z"/><path fill="#F0FAFC" d="M313.086 542.71C315.337 542.048 317.707 543.297 318.432 545.528C319.158 547.76 317.976 550.163 315.765 550.951C314.279 551.481 312.623 551.161 311.441 550.117C310.258 549.072 309.737 547.468 310.079 545.928C310.421 544.388 311.573 543.155 313.086 542.71Z"/><path fill="#F0FAFC" d="M551.062 300.818C553.357 300.245 555.687 301.624 556.288 303.913C556.89 306.201 555.538 308.548 553.257 309.176C551.756 309.589 550.15 309.164 549.051 308.062C547.952 306.961 547.53 305.354 547.946 303.855C548.362 302.355 549.552 301.196 551.062 300.818Z"/><path fill="#F0FAFC" d="M992.477 37.728C994.693 36.8295 997.216 37.9088 998.097 40.1315C998.977 42.3543 997.878 44.8688 995.648 45.7316C993.443 46.5846 990.963 45.5003 990.093 43.3026C989.222 41.1049 990.286 38.6163 992.477 37.728Z"/></svg>