<?xml version="1.0" encoding="utf-8" ?><svg xmlns="http://www.w3.org/2000/svg" xmlns:xlink="http://www.w3.org/1999/xlink" width="1024" height="1024" viewBox="0 0 1024 1024"><path fill="#020937" d="M0 0L776.762 0L813.284 0L1024 0L1024 356.265L1024 387.778L1024 438.413L1024 505.968L1024 545.874L1024 618.137L1024 663.65L1024 753.783L1024 842.346L1024 1024L816.873 1024L728.777 1024L614.23 1024L555.311 1024L460.538 1024L409.794 1024L359.266 1024L272.826 1024L228.088 1024L163.713 1024L63.6279 1024L0 1024L0 0Z"/><defs><linearGradient id="gradient_0" gradientUnits="userSpaceOnUse" x1="-44.099285" y1="43.533127" x2="492.71494" y2="625.89154"><stop offset="0" stop-color="#000035"/><stop offset="1" stop-color="#411871"/></linearGradient></defs><path fill="url(#gradient_0)" d="M0 0L776.762 0L813.284 0C804.231 8.01657 794.123 15.5174 784.808 23.5273C751.401 52.0485 718.705 81.3918 686.749 111.53C515.855 274.268 377.478 468.03 278.998 682.483C266.989 707.562 255.603 732.935 244.854 758.578C237.514 776.625 230.516 794.809 223.865 813.121C216.395 832.675 209.551 852.462 203.343 872.452C200.706 881.12 194.545 899.146 192.826 907.401C193.826 909.379 195.178 910.843 194.98 912.465C193.527 913.58 192.414 913.865 191.398 915.347C188.523 921.201 186.476 932.555 184.394 939.069C175.496 966.919 170.64 995.724 163.713 1024L63.6279 1024L0 1024L0 0Z"/><path fill="#43187F" d="M776.762 0L813.284 0C804.231 8.01657 794.123 15.5174 784.808 23.5273C751.401 52.0485 718.705 81.3918 686.749 111.53C515.855 274.268 377.478 468.03 278.998 682.483C266.989 707.562 255.603 732.935 244.854 758.578C237.514 776.625 230.516 794.809 223.865 813.121C216.395 832.675 209.551 852.462 203.343 872.452C200.706 881.12 194.545 899.146 192.826 907.401C193.826 909.379 195.178 910.843 194.98 912.465C193.527 913.58 192.414 913.865 191.398 915.347C188.523 921.201 186.476 932.555 184.394 939.069C175.496 966.919 170.64 995.724 163.713 1024L63.6279 1024C63.8077 1020.09 72.8169 995.575 74.4442 990.062C93.503 925.495 119.69 864.981 146.247 803.243C151.205 791.588 156.527 780.091 162.205 768.769C164.488 764.178 171.704 752.289 171.202 748.198L171.341 747.592L173.347 746.356C173.572 741.026 195.125 703.675 199.167 696.334C248.142 606.164 302.597 519.08 362.226 435.572C390.862 396.193 423.471 356.195 454.279 318.344C475.108 292.689 496.713 267.673 519.064 243.332C527.075 234.438 535.405 225.751 543.163 216.625C544.804 214.694 550.032 209.02 551.073 207.06C553.838 206.766 555.895 204.368 555.766 201.591C559.187 200.424 605.037 152.575 611.064 146.642C635.853 122.623 661.131 99.1137 686.881 76.1279C695.022 68.864 703.169 60.6662 711.5 53.7485C724.63 42.8462 737.726 31.8512 750.822 20.9081C758.687 14.3364 769.687 6.90748 776.762 0Z"/><path fill="#F0FAFC" d="M173.347 746.356C185.762 740.917 185.493 739.994 190.891 727.621C196.468 740.564 198.356 742.288 211.08 748.225C196.94 754.323 195.657 756.754 191.251 771.19C186.508 758.599 184.397 753.407 171.202 748.198L171.341 747.592L173.347 746.356Z"/><path fill="#F0FAFC" d="M187.716 911.558C189.488 909.811 190.582 908.472 192.826 907.401C193.826 909.379 195.178 910.843 194.98 912.465C193.527 913.58 192.414 913.865 191.398 915.347C190.366 914.009 188.953 912.744 187.716 911.558Z"/><path fill="#F0FAFC" d="M308.907 545.309C310.782 544.615 312.887 544.995 314.401 546.302C315.915 547.608 316.599 549.634 316.188 551.591C315.777 553.548 314.334 555.127 312.422 555.713C309.58 556.585 306.56 555.036 305.608 552.219C304.656 549.403 306.118 546.34 308.907 545.309Z"/><path fill="#F0FAFC" d="M551.073 207.06C548.93 207.289 546.866 206.186 545.863 204.279C544.861 202.372 545.124 200.046 546.527 198.411C547.93 196.776 550.189 196.163 552.226 196.864C554.263 197.565 555.666 199.438 555.766 201.591C555.895 204.368 553.838 206.766 551.073 207.06Z"/><path fill="#F43487" d="M156.389 120.839C175.937 96.2803 202.667 86.943 233.235 88.0484C240.357 88.7689 244.041 89.1372 250.935 91.2442C274.434 97.5338 293.738 111.395 305.94 132.59C318.034 153.512 321.224 178.413 314.795 201.707C308.524 224.989 293.15 244.768 272.135 256.589C252.213 267.777 231.71 270.233 209.36 266.357C186.092 261.235 165.672 247.39 152.3 227.672C149.201 222.989 146.481 218.066 144.167 212.95C138.026 200.548 135.506 181.225 137.217 167.57C138.19 159.965 138.952 155.466 141.193 148.076C143.856 139.098 149.97 127.631 156.389 120.839Z"/><path fill="#DD1A89" d="M250.935 91.2442C274.434 97.5338 293.738 111.395 305.94 132.59C318.034 153.512 321.224 178.413 314.795 201.707C308.524 224.989 293.15 244.768 272.135 256.589C252.213 267.777 231.71 270.233 209.36 266.357C210.722 265.138 215.93 262.41 217.84 261.192C246.529 242.902 266.705 221.049 274.526 186.857C280.378 161.274 277.675 137.072 265.251 113.878C260.798 105.566 255.794 98.9839 250.935 91.2442Z"/><path fill="#FD669C" d="M156.389 120.839C175.937 96.2803 202.667 86.943 233.235 88.0484C233.39 88.2881 233.545 88.5278 233.7 88.7674C242.561 98.6361 251.14 108.675 256.518 120.923C260.184 129.27 262.88 142.398 253.792 148.211C242.729 155.286 226.828 144.104 217.147 139.237C209.815 135.551 203.121 132.298 195.429 129.576C187.854 126.908 181.505 124.892 173.633 123.471C169.549 122.733 159.65 121.963 156.389 120.839Z"/><path fill="#FD669C" d="M141.193 148.076C154.259 155.209 160.36 162.084 177.022 166.899C199.84 173.492 239.577 163.885 251.098 191.188C253.605 197.13 248.202 203.801 242.4 204.024C225.328 206.475 208.698 197.616 193.066 191.936C181.966 187.902 171.17 184.028 160.394 179.33C152.736 175.933 144.821 170.735 137.217 167.57C138.19 159.965 138.952 155.466 141.193 148.076Z"/><path fill="#FD669C" d="M144.167 212.95C144.599 212.866 145.032 212.783 145.464 212.7C150.348 215.271 157.336 218.495 162.665 219.59C168.126 220.717 173.655 221.487 179.217 221.894C190.278 222.6 228.173 220.756 235.158 236.017C235.588 236.957 235.201 239.768 234.488 240.353C232.436 243.141 226.119 244.556 222.606 244.814C204.467 246.143 183.631 239.956 166.586 233.826C161.778 232.097 157.163 227.716 152.3 227.672C149.201 222.989 146.481 218.066 144.167 212.95Z"/><path fill="#BF85FA" d="M517.229 224.286C516.967 225.029 516.736 225.838 516.371 226.51C495.772 244.695 470.789 270.905 451.804 290.836C422.894 320.795 394.712 351.449 367.284 382.771C355.306 396.347 343.466 410.044 331.765 423.86C328.862 427.288 316.775 442.201 314.167 444.624C307.199 454.408 295.355 468.139 287.573 477.864C273.67 495.223 260.135 512.874 246.979 530.806C243.249 535.846 222.557 565.621 220.309 567.237C215.993 568.734 196.275 602.813 191.856 608.003L190.973 606.762C189.416 606.292 186.836 605.032 185.446 605.268L185.466 605.216C184.024 604.405 184.628 604.963 183.806 603.286L183.162 603.681L182.721 603.575C185.058 600.67 186.971 597.068 189.226 594.061C196.605 584.224 204.093 571.857 211.563 562.346L212.154 561.601L211.215 561.414C212.806 558.54 218.353 551.289 220.522 548.327C227.513 538.67 234.675 529.139 242.005 519.737C261.398 494.671 286.375 462.078 307.643 438.46C310.919 433.731 318.457 425.478 322.549 420.828C332.107 409.995 341.744 399.232 351.457 388.539C403.347 330.49 458.705 275.639 517.229 224.286Z"/><path fill="#5350BE" d="M517.229 224.286C516.967 225.029 516.736 225.838 516.371 226.51C495.772 244.695 470.789 270.905 451.804 290.836C422.894 320.795 394.712 351.449 367.284 382.771C355.306 396.347 343.466 410.044 331.765 423.86C328.862 427.288 316.775 442.201 314.167 444.624C317.178 437.055 360.744 388.65 368.803 378.919C367.695 377.382 367.039 377.557 366.117 375.734L366.617 374.508C362.625 376.348 326.946 417.975 320.75 424.725C317.667 428.084 312.313 434.952 308.31 438.063C308.088 438.195 307.866 438.328 307.643 438.46C310.919 433.731 318.457 425.478 322.549 420.828C332.107 409.995 341.744 399.232 351.457 388.539C403.347 330.49 458.705 275.639 517.229 224.286Z"/><path fill="#F3CDFA" d="M211.215 561.414L212.154 561.601L211.563 562.346C204.093 571.857 196.605 584.224 189.226 594.061C186.971 597.068 185.058 600.67 182.721 603.575L183.162 603.681L183.806 603.286C184.628 604.963 184.024 604.405 185.466 605.216L185.446 605.268C186.836 605.032 189.416 606.292 190.973 606.762L191.856 608.003C196.275 602.813 215.993 568.734 220.309 567.237C216.722 573.384 210.232 581.067 206.311 587.392C197.047 602.338 187.011 616.898 177.624 631.749C144.494 683.672 114.484 737.522 87.7532 793.011C81.7463 805.69 76.0617 818.607 69.8107 831.105C66.7977 837.129 64.6001 851.789 55.0469 846.856C49.6192 844.053 51.5741 839.192 53.4478 834.832C57.3126 825.839 61.6151 817.055 65.8227 808.236C97.7231 740.011 134.641 674.247 176.273 611.485C186.297 596.469 200.187 575.762 211.215 561.414Z"/><path fill="#F0FAFC" d="M569.681 63.8671C570.426 64.7365 572.501 71.4139 573.836 73.7481C578.689 82.2322 583.778 83.8321 592.346 86.4828C578.08 91.807 573.508 95.4675 570.221 110.746C568.537 107.519 567.754 102.987 565.647 99.268C561.113 91.2647 555.755 89.6054 547.657 87.0385C562.37 81.4696 564.845 79.0116 569.681 63.8671Z"/><path fill="#F0FAFC" d="M84.1238 65.8301C84.4991 66.995 84.9215 68.1442 85.3899 69.2749C89.8945 80.1868 93.2939 82.5828 103.755 86.9539C102.496 87.4437 101.257 87.9842 100.042 88.574C89.4075 93.7353 87.9869 98.6239 84.3877 108.869C83.7879 107.301 83.1533 105.747 82.4844 104.207C78.1626 94.3765 74.7735 91.0472 64.7324 87.1412C65.4005 86.8284 66.0661 86.5102 66.7292 86.1867C77.2827 81.0272 80.4022 76.6015 84.1238 65.8301Z"/><path fill="#F0FAFC" d="M74.1292 332.36C74.7207 333.758 75.2981 335.162 75.8614 336.571C79.7245 346.029 84.2727 348.95 93.3241 352.782C81.9009 357.974 78.8985 361.01 74.3961 372.914C69.3678 360.25 67.6876 358.385 54.711 352.626C66.4772 348.552 69.9518 343.426 74.1292 332.36Z"/><path fill="#F0FAFC" d="M445.133 77.7999C450.435 76.952 455.445 80.4871 456.425 85.7664C457.404 91.0457 453.994 96.1425 448.741 97.2524C445.225 97.9952 441.582 96.7733 439.225 94.0603C436.868 91.3473 436.168 87.5697 437.395 84.192C438.622 80.8142 441.584 78.3673 445.133 77.7999Z"/><path fill="#F0FAFC" d="M311.65 27.2215C314.939 26.5957 318.124 28.7156 318.817 31.9911C319.51 35.2666 317.455 38.4944 314.194 39.2536C312.025 39.7587 309.753 39.0516 308.253 37.405C306.753 35.7585 306.261 33.4298 306.965 31.3171C307.67 29.2044 309.462 27.6378 311.65 27.2215Z"/><path fill="#F0FAFC" d="M87.5464 247.64C89.5157 246.847 91.7593 247.177 93.4178 248.502C95.0762 249.827 95.8925 251.942 95.554 254.038C95.2154 256.134 93.7744 257.885 91.783 258.62C88.7651 259.735 85.4115 258.22 84.2534 255.218C83.0952 252.217 84.5619 248.841 87.5464 247.64Z"/><path fill="#F0FAFC" d="M145.726 44.2663C148.862 43.4255 152.085 45.2866 152.925 48.4225C153.764 51.5584 151.901 54.7808 148.765 55.6189C145.631 56.4564 142.411 54.5953 141.572 51.4613C140.733 48.3274 142.593 45.1066 145.726 44.2663Z"/><path fill="#F0FAFC" d="M610.249 127.266C613.239 126.352 616.415 127.976 617.423 130.935C618.432 133.894 616.91 137.12 613.984 138.222C612.007 138.967 609.781 138.577 608.176 137.202C606.571 135.828 605.842 133.689 606.274 131.621C606.705 129.553 608.229 127.883 610.249 127.266Z"/><path fill="#F0FAFC" d="M200.001 327.166C203.097 326.565 206.098 328.577 206.719 331.669C207.339 334.762 205.346 337.775 202.258 338.415C199.141 339.061 196.095 337.046 195.469 333.926C194.843 330.806 196.876 327.773 200.001 327.166Z"/><path fill="#F0FAFC" d="M139.712 415.275C142.673 415.056 145.295 417.178 145.697 420.12C146.1 423.062 144.144 425.81 141.233 426.394C139.182 426.805 137.072 426.044 135.757 424.417C134.441 422.791 134.137 420.569 134.968 418.649C135.798 416.73 137.626 415.43 139.712 415.275Z"/><path fill="#F0FAFC" d="M106.229 560.272C108.683 559.305 111.462 560.458 112.511 562.878C113.559 565.298 112.501 568.114 110.118 569.243C108.503 570.009 106.599 569.833 105.152 568.784C103.705 567.736 102.945 565.982 103.17 564.209C103.394 562.436 104.567 560.927 106.229 560.272Z"/><path fill="#0ED9F9" d="M371.447 159.741C372.954 159.486 374.398 160.455 374.733 161.947C375.068 163.438 374.177 164.931 372.705 165.345C371.681 165.634 370.581 165.333 369.847 164.563C369.112 163.793 368.862 162.681 369.197 161.671C369.532 160.661 370.398 159.919 371.447 159.741Z"/><path fill="#43187F" d="M526.487 216.139C524.18 219.961 519.78 223.605 516.371 226.51C516.736 225.838 516.967 225.029 517.229 224.286C519.179 221.635 523.798 218.148 526.487 216.139Z"/><path fill="#DD1A89" d="M1024 545.874L1024 618.137L1024 663.65L1024 753.783L1024 842.346L1024 1024L816.873 1024L728.777 1024L614.23 1024L555.311 1024L460.538 1024C460.91 1023.15 461.288 1022.3 461.674 1021.46C473.873 994.773 489.934 970.603 505.752 946.003C587.084 819.513 717.135 704.249 846.803 628.799C903.294 595.959 962.593 568.209 1024 545.874Z"/><path fill="#DD1A89" d="M728.777 1024C737.059 1005.03 753.514 982.333 765.594 965.685C815.674 896.666 876.906 841.229 948.834 795.554C974.357 779.347 995.955 765.792 1024 753.783L1024 842.346L1024 1024L816.873 1024L728.777 1024Z"/><path fill="#B91D90" d="M1024 842.346L1024 1024L816.873 1024C820.838 1018.89 826.285 1010.04 830.144 1004.41C837.008 994.363 844.325 984.628 852.075 975.242C863.133 961.745 871.731 953.183 883.769 940.891C915.248 908.752 950.879 880.636 990.286 858.838C1002.39 852.144 1010.89 847.252 1024 842.346Z"/><path fill="#F0FAFC" d="M839.29 945.747C841.133 946.437 844.869 950.548 845.34 952.698C844.913 954.194 841.513 958.034 840.247 959.796C838.983 959.091 834.378 953.894 833.712 952.506C833.98 950.888 837.772 947.784 839.29 945.747Z"/><path fill="#F43487" d="M614.23 1024C619.834 1014.28 625.326 1004.14 631.145 994.585C645.057 971.95 660.064 950.006 676.112 928.831C766.98 811.627 886.907 720.211 1024 663.65L1024 753.783C995.955 765.792 974.357 779.347 948.834 795.554C876.906 841.229 815.674 896.666 765.594 965.685C753.514 982.333 737.059 1005.03 728.777 1024L614.23 1024Z"/><path fill="#FD669C" d="M1024 618.137L1024 663.65C886.907 720.211 766.98 811.627 676.112 928.831C660.064 950.006 645.057 971.95 631.145 994.585C625.326 1004.14 619.834 1014.28 614.23 1024L555.311 1024C562.591 1009.82 572.304 994.355 580.786 980.815C589.402 967.062 599.121 951.92 608.648 938.703C672.101 852.109 749.634 776.774 838.017 715.835C877.058 689.085 918.395 665.513 961.206 645.234C981.782 635.488 1003.12 627.197 1024 618.137Z"/><path fill="#F0FAFC" d="M716.237 775.16C717.557 775.782 722.032 780.741 723.581 782.238C720.595 784.664 719.622 785 717.542 788.412C716.306 788.482 716.912 788.51 715.636 787.875C714.519 785.976 711.659 783.162 711.318 781.875C713.28 779.454 714.504 777.744 716.237 775.16Z"/><path fill="#0ED9F9" d="M359.266 1024C389.355 920.689 456.06 829.531 532.349 755.296C536.481 751.276 540.618 747.269 544.756 743.255C593.855 695.05 646.43 650.518 702.055 610.017C752.574 574.359 805.209 541.795 859.669 512.505C879.708 501.778 901.268 491.651 921.845 481.995C934.252 476.174 947.865 469.559 960.379 464.29C971.987 459.381 983.64 454.579 995.337 449.885C1004.58 446.273 1015.11 442.627 1024 438.413L1024 505.968L1024 545.874C962.593 568.209 903.294 595.959 846.803 628.799C717.135 704.249 587.084 819.513 505.752 946.003C489.934 970.603 473.873 994.773 461.674 1021.46C461.288 1022.3 460.91 1023.15 460.538 1024L409.794 1024L359.266 1024Z"/><path fill="#FB4995" d="M1024 505.968L1024 545.874C962.593 568.209 903.294 595.959 846.803 628.799C717.135 704.249 587.084 819.513 505.752 946.003C489.934 970.603 473.873 994.773 461.674 1021.46C461.288 1022.3 460.91 1023.15 460.538 1024L409.794 1024C416.712 1012.52 424.212 996.719 431.137 984.45C447.125 956.212 464.532 928.802 483.292 902.325C519.036 853.149 559.129 807.286 603.086 765.289C722.098 648.288 865.975 559.646 1024 505.968Z"/><path fill="#F0FAFC" d="M454.262 882.734C456.36 884.734 456.494 890.138 457.907 892.508C460.768 897.307 469.348 899.283 474.319 900.652C461.373 903.873 458.788 905.089 455.567 918.375L455.223 919.147C454.016 918.046 453.337 914.313 452.238 912.276C448.296 904.968 444.938 902.975 437.414 900.682C439.042 900.004 440.659 899.298 442.264 898.565C450.341 894.809 451.475 890.418 454.262 882.734Z"/><path fill="#F0FAFC" d="M609.246 708.472C615.445 708.507 618.144 715.807 610.982 719.048C602.989 717.212 602.204 712.931 609.246 708.472Z"/><path fill="#49E6FA" d="M1024 387.778L1024 438.413C1015.11 442.627 1004.58 446.273 995.337 449.885C983.64 454.579 971.987 459.381 960.379 464.29C947.865 469.559 934.252 476.174 921.845 481.995C901.268 491.651 879.708 501.778 859.669 512.505C805.209 541.795 752.574 574.359 702.055 610.017C646.43 650.518 593.855 695.05 544.756 743.255C540.618 747.269 536.481 751.276 532.349 755.296C456.06 829.531 389.355 920.689 359.266 1024L272.826 1024C274.637 1021.11 276.325 1017.53 277.799 1014.44C296.921 974.255 320.119 937.059 345.782 900.675C377.978 855.235 413.198 812.014 451.203 771.307C463.051 758.703 476.063 746.163 488.356 733.859C518.392 703.345 549.668 674.075 582.104 646.126C642.523 594.385 708.94 545.782 777.495 505.447C782.94 502.244 796.778 492.191 802.149 491.263L804.992 498.197C808.15 488.769 809.597 482.978 819.236 480.31C820.676 479.912 823.471 478.392 824.525 477.266C827.806 476.388 841.721 468.183 845.421 466.253C860.527 458.416 875.751 450.807 891.087 443.43C914.558 432.38 937.994 422.197 961.807 411.933C982.324 403.09 1003.14 395.777 1024 387.778Z"/><path fill="#F0FAFC" d="M345.089 950.783C348.772 954.636 346.629 958.147 355.198 962.708C348.658 965.3 347.755 968.032 344.971 974.244C341.228 969.77 343.005 966.621 334.714 962.647L339.707 960.445C342.146 956.966 343.221 954.634 345.089 950.783Z"/><path fill="#F0FAFC" d="M690.163 573.303C692.935 576.723 693.913 577.937 697.607 580.148C693.988 582.687 692.254 584.415 689.122 587.549C686.371 581.976 688.804 582.815 681.661 580.547C686.144 577.996 687.108 577.167 690.163 573.303Z"/><path fill="#0ED9F9" d="M228.088 1024C229.397 1019.97 232.134 1014.32 234.009 1010.39C267.177 940.825 307.708 875.018 354.905 814.095C384.572 776.622 416.539 741.03 450.622 707.523C579.835 578.262 732.382 474.671 900.184 402.236C929.281 389.521 960.631 378.243 990.53 367.372C1001.38 363.427 1012.95 360.173 1024 356.265L1024 387.778C1003.14 395.777 982.324 403.09 961.807 411.933C937.994 422.197 914.558 432.38 891.087 443.43C875.751 450.807 860.527 458.416 845.421 466.253C841.721 468.183 827.806 476.388 824.525 477.266C823.471 478.392 820.676 479.912 819.236 480.31C809.597 482.978 808.15 488.769 804.992 498.197L802.149 491.263C796.778 492.191 782.94 502.244 777.495 505.447C708.94 545.782 642.523 594.385 582.104 646.126C549.668 674.075 518.392 703.345 488.356 733.859C476.063 746.163 463.051 758.703 451.203 771.307C413.198 812.014 377.978 855.235 345.782 900.675C320.119 937.059 296.921 974.255 277.799 1014.44C276.325 1017.53 274.637 1021.11 272.826 1024L228.088 1024Z"/><path fill="#F0FAFC" d="M785.357 478.867C800.109 474.531 800.432 471.57 804.952 457.924C808.404 469.867 811.427 475.532 824.525 477.266C823.471 478.392 820.676 479.912 819.236 480.31C809.597 482.978 808.15 488.769 804.992 498.197L802.149 491.263C798.352 482.061 794.156 481.586 785.357 478.867Z"/><defs><linearGradient id="gradient_1" gradientUnits="userSpaceOnUse" x1="811.54932" y1="285.83026" x2="758.70825" y2="212.0294"><stop offset="0" stop-color="#8965FD"/><stop offset="1" stop-color="#737FFD"/></linearGradient></defs><path fill="url(#gradient_1)" d="M675.868 252.864C675.335 251.185 675.286 246.872 675.391 245.043C678.638 188.362 722.048 145.478 779.099 145.952C782.711 145.984 789.551 146.006 792.837 146.912C815.8 151.131 832.059 157.997 849.623 173.835C874.854 160.958 927.356 142.392 957.183 147.724C964.507 149.033 966.749 158.182 962.949 164.458C944.044 195.686 909.972 216.504 880.714 236.84C883.637 265.405 879.12 289.827 860.445 312.739C843.073 334.09 817.878 347.599 790.481 350.252C779.619 351.341 770.769 350.66 760.033 349.16C742.084 345.242 728.936 339.283 714.883 327.84C690.086 338.553 652.166 353.7 625.809 352.129C570.248 348.819 640.667 294.719 655.908 285.058C662.292 281.011 673.044 274.755 677.683 270.723C676.795 265.371 676.037 258.23 675.868 252.864Z"/><path fill="#DAA9FB" d="M675.868 252.864C675.335 251.185 675.286 246.872 675.391 245.043C678.638 188.362 722.048 145.478 779.099 145.952C780.755 150.409 783.072 153.901 784.702 158.56C789.697 171.424 791.723 186.464 788.213 199.953C775.625 220.755 758.853 235.235 737.638 246.864C719.514 256.798 698.237 266.797 677.915 270.976L677.683 270.723C676.795 265.371 676.037 258.23 675.868 252.864Z"/><path fill="#F3CDFA" d="M784.702 158.56C789.697 171.424 791.723 186.464 788.213 199.953C775.625 220.755 758.853 235.235 737.638 246.864C719.514 256.798 698.237 266.797 677.915 270.976L677.683 270.723C676.795 265.371 676.037 258.23 675.868 252.864C676.112 251.845 675.815 250.245 676.224 249.48C677.112 248.506 681.674 247.53 683.069 247.112C722.837 235.22 774.095 209.358 783.647 165.084C784.148 162.759 783.791 160.876 784.702 158.56Z"/><path fill="#CE91FC" d="M779.099 145.952C782.711 145.984 789.551 146.006 792.837 146.912C796.655 154.886 800.334 161.082 803.545 169.519C815.73 201.534 813.407 227.777 808.014 260.235C799.835 265.194 790.609 269.996 782.141 274.538C755.148 288.886 727.484 301.934 699.243 313.637L694.911 308.477C690.313 302.399 685.55 293.008 682.491 286.008C680.664 281.281 678.38 275.977 677.915 270.976C698.237 266.797 719.514 256.798 737.638 246.864C758.853 235.235 775.625 220.755 788.213 199.953C791.723 186.464 789.697 171.424 784.702 158.56C783.072 153.901 780.755 150.409 779.099 145.952Z"/><path fill="#DAA9FB" d="M788.213 199.953C789.094 219.332 771.391 248.705 758.388 262.549C742.531 279.432 727.587 292.372 706.626 302.904C703.882 304.284 697.554 307.705 694.911 308.477C690.313 302.399 685.55 293.008 682.491 286.008C680.664 281.281 678.38 275.977 677.915 270.976C698.237 266.797 719.514 256.798 737.638 246.864C758.853 235.235 775.625 220.755 788.213 199.953Z"/><path fill="#BF85FA" d="M799.581 286.178C802.447 284.163 807.602 281.368 810.759 279.684C835.064 266.723 857.535 251.613 880.714 236.84C883.637 265.405 879.12 289.827 860.445 312.739C843.073 334.09 817.878 347.599 790.481 350.252C779.619 351.341 770.769 350.66 760.033 349.16C763.874 344.489 769.093 339.214 772.713 334.25C780.74 323.242 796.059 299.11 799.581 286.178Z"/><path fill="#BF85FA" d="M792.837 146.912C815.8 151.131 832.059 157.997 849.623 173.835C850.78 175.049 858.307 183.098 859.045 183.595C867.916 196.028 871.587 201.326 876.875 216.043C871.094 222.243 817.319 255.849 808.014 260.235C813.407 227.777 815.73 201.534 803.545 169.519C800.334 161.082 796.655 154.886 792.837 146.912Z"/><path fill="#DAA9FB" d="M799.581 286.178C796.059 299.11 780.74 323.242 772.713 334.25C769.093 339.214 763.874 344.489 760.033 349.16C742.084 345.242 728.936 339.283 714.883 327.84C717.044 326.508 724.906 323.144 727.517 321.953C736.659 317.827 745.769 313.629 754.845 309.359C770.084 302.092 784.479 293.611 799.581 286.178Z"/><path fill="#020937" d="M859.045 183.595C867.086 181.563 923.925 164.821 912.796 185.838C910.254 190.639 882.559 214.126 876.875 216.043C871.587 201.326 867.916 196.028 859.045 183.595Z"/><path fill="#020937" d="M699.243 313.637C688.183 316.443 663.617 327.648 654.376 321.116C645.009 314.493 678.844 288.904 682.491 286.008C685.55 293.008 690.313 302.399 694.911 308.477L699.243 313.637Z"/><path fill="#F0FAFC" d="M448.293 521.423C449.556 522.886 451.779 529.949 452.896 532.258C455.911 538.486 462.867 540.949 468.914 543.097C455.165 549.001 453.744 550.154 448.489 564.581C447.188 564.717 444.056 555.962 443.024 554.283C439.745 548.945 433.245 545.938 427.928 542.911C442.542 536.902 442.362 535.417 448.293 521.423Z"/><path fill="#F0FAFC" d="M393.739 645.899C395.774 648.019 397.993 654.431 398.939 657.115C400.416 661.306 409.577 664.82 413.706 666.567C400.381 673.826 400.185 673.482 394.088 687.294C392.512 686.221 390.182 675.154 387.198 673.067C383.474 670.464 378.275 668.178 374.231 666.038C379.087 663.582 385.229 662.531 388.485 657.637C390.784 654.182 392.232 649.789 393.739 645.899Z"/><path fill="#F0FAFC" d="M947.829 41.9235C948.221 42.3949 948.573 43.4377 948.853 44.0445C954.346 55.9592 954.926 57.8175 967.242 62.4541C955.73 67.4579 953.35 71.0483 948.058 82.2948C947.824 82.4391 947.512 82.3695 947.237 82.3846C944.392 72.4628 938.524 66.3182 929.106 62.447C940.315 59.0669 944.111 52.0907 947.829 41.9235Z"/><path fill="#F0FAFC" d="M566.564 506.282C567.74 507.432 571.02 514.23 571.99 516.202C574.345 520.989 580.753 523.044 585.653 524.564C572.285 529.64 571.994 530.544 567.248 543.674L566.574 543.495C566.012 542.215 565.462 540.929 564.926 539.637C560.603 529.348 559.432 528.998 548.936 524.728C550.582 524.054 552.221 523.359 553.851 522.644C562.522 518.803 563.422 514.514 566.564 506.282Z"/><path fill="#F0FAFC" d="M548.792 411.87C552.364 411.351 555.938 412.804 558.133 415.669C560.329 418.534 560.803 422.362 559.373 425.676C557.943 428.99 554.832 431.272 551.242 431.64C545.85 432.192 541.005 428.333 540.339 422.954C539.673 417.575 543.429 412.65 548.792 411.87Z"/><path fill="#F0FAFC" d="M301.554 798.839C301.846 798.974 307.446 805.397 309.761 807.274C305.374 810.586 304.666 812.098 302.003 816.733C299.129 812.433 297.141 810.431 293.459 806.877C297.381 804.17 298.879 803.052 301.554 798.839Z"/><path fill="#F0FAFC" d="M958.747 299.625C961.996 298.835 965.277 300.805 966.105 304.045C966.934 307.285 965.002 310.589 961.772 311.455C959.648 312.025 957.383 311.409 955.84 309.842C954.297 308.276 953.716 306.002 954.317 303.887C954.919 301.773 956.611 300.145 958.747 299.625Z"/><path fill="#F0FAFC" d="M544.638 301.325C547.334 300.234 550.404 301.525 551.512 304.213C552.619 306.902 551.348 309.981 548.667 311.105C545.961 312.239 542.849 310.955 541.732 308.242C540.614 305.529 541.919 302.425 544.638 301.325Z"/><path fill="#F0FAFC" d="M696.996 405.436C698.824 405.045 700.633 406.173 701.086 407.987C701.539 409.801 700.472 411.647 698.675 412.162C697.457 412.51 696.145 412.167 695.254 411.266C694.363 410.364 694.035 409.049 694.398 407.835C694.76 406.621 695.756 405.701 696.996 405.436Z"/><path fill="#F0FAFC" d="M913.848 360.399C914.601 359.93 915.547 359.902 916.326 360.326C917.105 360.749 917.596 361.56 917.61 362.446C917.625 363.333 917.161 364.159 916.396 364.608C915.235 365.289 913.743 364.912 913.046 363.76C912.349 362.609 912.706 361.112 913.848 360.399Z"/><path fill="#F0FAFC" d="M790.943 68.822C791.682 68.4039 792.589 68.4158 793.317 68.8533C794.045 69.2907 794.481 70.086 794.458 70.9349C794.436 71.7838 793.958 72.5549 793.208 72.9534C792.07 73.5582 790.657 73.1359 790.037 72.0056C789.417 70.8753 789.821 69.4567 790.943 68.822Z"/></svg>