<?xml version="1.0" encoding="utf-8" ?><svg xmlns="http://www.w3.org/2000/svg" xmlns:xlink="http://www.w3.org/1999/xlink" width="1024" height="1024" viewBox="0 0 1024 1024"><path fill="#020937" d="M0 0L860.749 0L1024 0L1024 270.057L1024 447.492L1024 492.898L1024 533.379L1024 570.353L1024 609.204L1024 645.35L1024 682.312L1024 721.38L1024 761.231L1024 820.722L1024 871.605L1024 910.818L1024 959.685L1024 1024L896.37 1024L824.781 1024L770.527 1024L724.093 1024L681.393 1024L642.578 1024L601.991 1024L564.09 1024L523.545 1024L479.127 1024L429.713 1024L360.14 1024L290.407 1024L221.684 1024L105.108 1024L0 1024L0 1020.35L0 979.662L0 942.331L0 897.015L0 845.591L0 806.653L0 769.207L0 733.772L0 701.259L0 665.13L0 629.053L0 589.685L0 546.072L0 0Z"/><path fill="#05B3FC" d="M1024 447.492L1024 492.898L1024 533.379L1024 570.353L1024 609.204L1024 645.35L1024 682.312L1024 721.38L1024 761.231L1024 820.722L1024 871.605L1024 910.818L1024 959.685L1024 1024L896.37 1024L824.781 1024L770.527 1024L724.093 1024L681.393 1024L642.578 1024L601.991 1024L564.09 1024L523.545 1024L479.127 1024L429.713 1024L360.14 1024L290.407 1024L221.684 1024L105.108 1024L0 1024L0 1020.35L0 979.662L0 942.331L0 897.015L0 845.591L0 806.653L0 769.207L0 733.772L0 701.259L0 665.13L0 629.053L0 589.685L0 546.072C16.7579 545.899 34.0423 545.467 50.7427 545.87C79.3728 546.778 107.946 548.997 136.373 552.52C247.724 566.71 354.855 604.124 450.83 662.34C466.549 671.909 485.293 683.746 499.979 694.621C518.517 674.832 542.704 653.342 563.432 636.153C672.952 545.829 803.532 484.663 943.032 458.342C971.93 452.747 995.412 450.477 1024 447.492Z"/><path fill="#03A2E8" d="M0 701.259C12.8278 701.311 25.6313 700.412 38.525 700.394C57.1046 700.535 75.6692 701.487 94.1656 703.248C249.873 717.112 395.497 786.177 504.754 897.98C532.834 926.284 557.587 956.635 580.226 989.402C585.594 997.17 598.226 1015.7 601.991 1024L564.09 1024L523.545 1024L479.127 1024L429.713 1024L360.14 1024L290.407 1024L221.684 1024L105.108 1024L0 1024L0 1020.35L0 979.662L0 942.331L0 897.015L0 845.591L0 806.653L0 769.207L0 733.772L0 701.259Z"/><path fill="#020937" d="M0 845.591C22.4155 844.424 39.5925 843.079 62.687 844.226C180.907 850.616 293.397 897.203 381.519 976.268C399.279 992.273 413.689 1006.12 429.713 1024L360.14 1024L290.407 1024L221.684 1024L105.108 1024L0 1024L0 1020.35L0 979.662L0 942.331L0 897.015L0 845.591Z"/><path fill="#F43487" d="M1.42109e-14 942.331C84.221 933.506 169.095 951.221 242.753 993.001C255.527 1000.14 277.699 1013.49 289.041 1022.84C289.504 1023.22 289.959 1023.61 290.407 1024L221.684 1024L105.108 1024L0 1024L0 1020.35L0 979.662L0 942.331L1.42109e-14 942.331Z"/><path fill="#B91D90" d="M0 979.662C67.3832 972.908 123.917 980.233 186.719 1006.9C195.19 1010.5 214.295 1019.14 221.684 1024L105.108 1024L0 1024L0 1020.35L0 979.662Z"/><path fill="#020937" d="M0 1020.35C29.6844 1017.17 56.3868 1015.85 86.2289 1020.41C92.2247 1021.32 99.384 1022.17 105.108 1024L0 1024L0 1020.35Z"/><path fill="#B91D90" d="M0 897.015C24.3161 895.142 46.2608 893.887 70.8562 895.493C170.829 902.02 265.246 941.82 341.41 1007.07C347.789 1012.56 354.034 1018.21 360.14 1024L290.407 1024C289.959 1023.61 289.504 1023.22 289.041 1022.84C277.699 1013.49 255.527 1000.14 242.753 993.001C169.095 951.221 84.221 933.506 1.42109e-14 942.331L0 897.015Z"/><path fill="#F0FAFC" d="M176.218 887.647C178.342 887.092 180.529 888.291 181.204 890.379C181.879 892.468 180.807 894.72 178.76 895.512C177.328 896.067 175.708 895.783 174.549 894.776C173.391 893.769 172.885 892.203 173.235 890.709C173.585 889.214 174.733 888.036 176.218 887.647Z"/><path fill="#FD669C" d="M0 769.207C28.0364 768.095 51.1112 767.499 79.4293 769.695C213.306 780.521 339.672 835.982 438.27 927.189C470.126 956.267 498.72 988.729 523.545 1024L479.127 1024L429.713 1024C413.689 1006.12 399.279 992.273 381.519 976.268C293.397 897.203 180.907 850.616 62.687 844.226C39.5925 843.079 22.4155 844.424 0 845.591L0 806.653L0 769.207Z"/><path fill="#F43487" d="M0 806.653C154.679 796.646 293.85 848.943 409.717 950.858C422.835 962.397 436.011 974.873 447.757 987.802C458.495 999.621 468.456 1012.15 479.127 1024L429.713 1024C413.689 1006.12 399.279 992.273 381.519 976.268C293.397 897.203 180.907 850.616 62.687 844.226C39.5925 843.079 22.4155 844.424 0 845.591L0 806.653Z"/><path fill="#F8C7E8" d="M0 733.772C18.712 733.406 37.5294 732.324 56.1992 732.938C244.146 739.113 425.11 834.301 537.455 984.995C546.936 997.712 555.946 1010.36 564.09 1024L523.545 1024C498.72 988.729 470.126 956.267 438.27 927.189C339.672 835.982 213.306 780.521 79.4293 769.695C51.1112 767.499 28.0364 768.095 0 769.207L0 733.772Z"/><path fill="#FD669C" d="M669.271 854.921C680.072 844.259 690.408 835.702 702.066 825.951C776.101 764.169 863.015 719.725 956.446 695.873C977.189 690.469 1002.66 684.611 1024 682.312L1024 721.38L1024 761.231L1024 820.722L1024 871.605L1024 910.818L1024 959.685L1024 1024L896.37 1024L824.781 1024L770.527 1024L770.552 1022.28C769.079 1020.4 765.635 1011.42 764.448 1008.78C758.696 995.97 752.146 983.588 745.75 971.102C743.125 966.666 740.844 961.84 738.277 957.284C730.876 944.17 723.305 931.152 715.567 918.234C707.982 906.928 700.795 896.116 692.813 885.081C685.508 876.694 676.945 864.237 669.271 854.921Z"/><path fill="#B91D90" d="M1024 820.722L1024 871.605L1024 910.818L1024 959.685L1024 1024L896.37 1024L824.781 1024L770.527 1024L770.552 1022.28C769.079 1020.4 765.635 1011.42 764.448 1008.78C758.696 995.97 752.146 983.588 745.75 971.102C756.996 956.925 776.488 940.104 790.42 928.589C846.02 882.411 910.893 848.721 980.647 829.798C994.651 826.099 1009.72 823.442 1024 820.722Z"/><path fill="#B91D90" d="M1024 910.818L1024 959.685L1024 1024L896.37 1024L824.781 1024C839.495 1006.52 857.87 991.632 876.062 978.032C923.058 942.898 967.611 924.715 1024 910.818Z"/><path fill="#020937" d="M896.37 1024C901.93 1018.44 911.339 1012.62 917.923 1008.07C951.29 985.043 985.097 970.526 1024 959.685L1024 1024L896.37 1024Z"/><path fill="#F43487" d="M770.552 1022.28C774.477 1021.8 782.51 1011.08 785.583 1007.68C837.572 950.106 907.267 905.294 981.605 882.833C995.271 878.704 1010.11 875.188 1024 871.605L1024 910.818C967.611 924.715 923.058 942.898 876.062 978.032C857.87 991.632 839.495 1006.52 824.781 1024L770.527 1024L770.552 1022.28Z"/><path fill="#F0FAFC" d="M797.44 944.318C800.196 943.278 803.274 944.665 804.32 947.419C805.366 950.173 803.985 953.255 801.233 954.306C798.473 955.362 795.381 953.976 794.332 951.213C793.283 948.451 794.675 945.361 797.44 944.318Z"/><path fill="#020937" d="M715.567 918.234C726.42 906.442 738.524 895.786 750.75 885.44C814.968 831.704 890.274 792.835 971.276 771.617C986.192 767.732 1008.62 762.137 1024 761.231L1024 820.722C1009.72 823.442 994.651 826.099 980.647 829.798C910.893 848.721 846.02 882.411 790.42 928.589C776.488 940.104 756.996 956.925 745.75 971.102C743.125 966.666 740.844 961.84 738.277 957.284C730.876 944.17 723.305 931.152 715.567 918.234Z"/><path fill="#F43487" d="M692.813 885.081C696.256 882.169 701.607 876.381 705.587 872.811C719.681 859.938 734.343 847.702 749.531 836.141C815.036 786.357 890.186 750.755 970.2 731.599C988.659 727.144 1004.97 723.165 1024 721.38L1024 761.231C1008.62 762.137 986.192 767.732 971.276 771.617C890.274 792.835 814.968 831.704 750.75 885.44C738.524 895.786 726.42 906.442 715.567 918.234C707.982 906.928 700.795 896.116 692.813 885.081Z"/><path fill="#68D3F8" d="M0 629.053C36.1985 626.213 79.0046 628.68 114.675 632.891C258.016 648.986 393.391 707.129 503.756 800.001C577.362 862.027 637.767 938.198 681.393 1024L642.578 1024L601.991 1024C598.226 1015.7 585.594 997.17 580.226 989.402C557.587 956.635 532.834 926.284 504.754 897.98C395.497 786.177 249.873 717.112 94.1656 703.248C75.6692 701.487 57.1046 700.535 38.525 700.394C25.6313 700.412 12.8278 701.311 0 701.259L0 665.13L0 629.053Z"/><path fill="#05B3FC" d="M0 665.13C14.6669 664.568 27.0364 663.902 41.8147 664.117C168.704 665.702 292.72 702.107 400.334 769.358C435.896 791.331 469.358 816.534 500.296 844.647C545.426 885.653 585.095 932.292 618.33 983.416C625.975 995.209 636.06 1011.36 642.578 1024L601.991 1024C598.226 1015.7 585.594 997.17 580.226 989.402C557.587 956.635 532.834 926.284 504.754 897.98C395.497 786.177 249.873 717.112 94.1656 703.248C75.6692 701.487 57.1046 700.535 38.525 700.394C25.6313 700.412 12.8278 701.311 0 701.259L0 665.13Z"/><path fill="#03A2E8" d="M2.4869e-14 589.685C208.054 581.813 410.515 658.037 561.719 801.166C612.045 848.72 655.633 902.931 691.274 962.292C701.845 980.133 711.777 998.273 720.595 1017.03C721.606 1019.18 722.834 1022.03 724.093 1024L681.393 1024C637.767 938.198 577.362 862.027 503.756 800.001C393.391 707.129 258.016 648.986 114.675 632.891C79.0046 628.68 36.1985 626.213 0 629.053L0 589.685L2.4869e-14 589.685Z"/><path fill="#F0FAFC" d="M547.919 810.852C549.767 810.549 551.633 811.276 552.787 812.75C553.941 814.224 554.2 816.21 553.463 817.931C552.725 819.652 551.108 820.833 549.245 821.014C546.493 821.28 544.025 819.316 543.667 816.574C543.31 813.832 545.191 811.301 547.919 810.852Z"/><path fill="#F0FAFC" d="M123.29 624.335C125.287 623.777 127.356 624.95 127.902 626.95C128.448 628.95 127.263 631.012 125.26 631.547C123.274 632.077 121.232 630.904 120.69 628.92C120.148 626.937 121.31 624.888 123.29 624.335Z"/><path fill="#03A2E8" d="M1024 609.204L1024 645.35L1024 682.312C1002.66 684.611 977.189 690.469 956.446 695.873C863.015 719.725 776.101 764.169 702.066 825.951C690.408 835.702 680.072 844.259 669.271 854.921C663.004 847.707 651.305 832.02 645.663 826.516C638.703 817.603 629.142 807.516 621.33 799.242C639.955 782.293 658.149 765.326 678.07 749.85C763.58 683.953 863.103 638.612 968.94 617.334C986.816 613.793 1005.92 611.456 1024 609.204Z"/><path fill="#F8C7E8" d="M645.663 826.516C669.399 804.53 694.439 783.994 720.646 765.021C810.304 700.644 914.538 659.525 1024 645.35L1024 682.312C1002.66 684.611 977.189 690.469 956.446 695.873C863.015 719.725 776.101 764.169 702.066 825.951C690.408 835.702 680.072 844.259 669.271 854.921C663.004 847.707 651.305 832.02 645.663 826.516Z"/><path fill="#03A2E8" d="M535.737 720.794C555.403 702.028 572.107 686.093 593.422 668.746C622.031 645.596 652.157 624.386 683.597 605.257C699.92 595.503 715.977 587.248 732.673 578.243C792.152 546.072 856.298 521.672 922.64 508.234C930.319 506.678 938.025 504.596 945.769 503.39C970.854 499.484 998.712 494.083 1024 492.898L1024 533.379C989.211 535.448 944.294 544.396 910.772 553.092C777.533 587.654 665.661 652.64 566.728 747.5C556.007 737.016 547.458 730.255 535.737 720.794Z"/><path fill="#F0FAFC" d="M711.726 593.15C715.258 592.471 718.882 593.744 721.214 596.482C723.547 599.219 724.227 603 722.996 606.379C721.765 609.758 718.812 612.215 715.265 612.81C709.87 613.716 704.75 610.113 703.781 604.729C702.811 599.345 706.354 594.183 711.726 593.15Z"/><path fill="#68D3F8" d="M566.728 747.5C665.661 652.64 777.533 587.654 910.772 553.092C944.294 544.396 989.211 535.448 1024 533.379L1024 570.353C916.103 581.791 812.131 617.222 719.702 674.05C681.015 697.932 643.729 726.7 610.096 757.128C604.699 762.011 599.274 767.806 593.787 772.356C585.347 764.624 574.426 755.38 566.728 747.5Z"/><path fill="#F0FAFC" d="M875.443 573.788C879.13 573.109 882.895 574.478 885.285 577.365C887.676 580.253 888.317 584.208 886.961 587.703C885.606 591.198 882.466 593.686 878.754 594.207C875.968 594.598 873.142 593.837 870.929 592.1C868.716 590.363 867.306 587.8 867.023 585.001C866.482 579.641 870.145 574.763 875.443 573.788Z"/><path fill="#F0FAFC" d="M658.002 681.86C662.564 680.798 667.119 683.654 668.15 688.223C669.181 692.792 666.294 697.327 661.718 698.327C657.185 699.318 652.703 696.465 651.682 691.939C650.661 687.413 653.484 682.912 658.002 681.86Z"/><path fill="#F0FAFC" d="M335.716 618.302C338.514 617.23 341.654 618.611 342.755 621.397C343.856 624.184 342.509 627.338 339.734 628.468C337.913 629.21 335.833 628.917 334.288 627.7C332.744 626.483 331.972 624.529 332.267 622.585C332.563 620.641 333.88 619.005 335.716 618.302Z"/><path fill="#F0FAFC" d="M243.256 587.311C244.65 586.595 246.361 587.082 247.17 588.425C247.978 589.768 247.607 591.508 246.322 592.405C245.409 593.041 244.219 593.116 243.233 592.6C242.248 592.083 241.633 591.061 241.638 589.949C241.642 588.836 242.266 587.819 243.256 587.311Z"/><path fill="#43187F" d="M860.749 0L1024 0L1024 270.057C1004.98 235.795 976.734 207.549 942.474 188.52C920.988 176.731 894.255 167.561 870.535 161.499C866.084 160.362 826.957 151.555 825.329 152.028C824.783 150.378 823.377 149.16 821.666 148.854C819.955 148.548 818.214 149.203 817.13 150.561C815.419 148.629 807.025 145.669 803.902 143.999C799.075 141.357 794.759 137.874 791.156 133.716C754.87 92.206 814.732 32.6565 847.759 9.99325C851.924 7.13582 856.39 3.88426 860.139 0.548445L860.749 0Z"/><path fill="#DBDDF2" d="M975.244 117.265C979.186 118.278 983.239 127.28 986.336 130.581C989.48 133.933 998.942 137.545 999.813 141.242C997.875 145.54 989.793 148.736 986.191 152.735C982.03 157.355 980.351 162.359 975.861 166.47C970.386 161.946 969.082 156.28 964.832 152.292C960.068 147.822 955.361 146.891 950.543 140.984C955.522 136.141 958.892 135.761 963.365 132.389C966.352 130.138 972.175 121.058 975.244 117.265Z"/><path fill="#DBDDF2" d="M945.045 36.3537C949.02 35.3802 953.212 36.6165 956.022 39.5914C958.833 42.5664 959.829 46.8215 958.631 50.735C957.434 54.6484 954.227 57.6172 950.232 58.5096C944.144 59.87 938.095 56.0738 936.673 49.9993C935.25 43.9248 938.985 37.8378 945.045 36.3537Z"/><path fill="#DBDDF2" d="M848.082 89.6534C853.755 87.866 859.804 91.0034 861.611 96.6696C863.418 102.336 860.301 108.396 854.641 110.222C848.954 112.057 842.858 108.922 841.042 103.228C839.227 97.5346 842.383 91.4495 848.082 89.6534Z"/><path fill="#F0FAFC" d="M817.13 150.561C818.214 149.203 819.955 148.548 821.666 148.854C823.377 149.16 824.783 150.378 825.329 152.028C826.042 154.181 825.129 156.536 823.153 157.647C821.177 158.758 818.69 158.313 817.222 156.586C815.754 154.858 815.715 152.333 817.13 150.561Z"/><path fill="#402F87" d="M829.073 225.68C849.503 222.457 870.175 232.93 882.609 248.766C894.664 234.365 906.566 228.666 925.779 227.648C950.617 225.627 983.803 243.928 983.943 271.719C984.119 306.641 938.537 317.157 912.096 317.598C917.544 336.579 914.266 349.588 899.612 363.159C894.755 367.543 888.098 371.374 882.075 373.849C867.672 379.927 851.419 379.9 837.036 373.775C825.552 368.912 815.449 360.715 810.654 348.972C793.831 352.741 775.199 354.496 759.015 347.098C748.861 342.457 743.461 332.235 749.584 321.983C757.137 309.336 773.975 303.359 787.431 299.566C766.856 265.337 792.271 230.335 829.073 225.68Z"/><path fill="#F0FAFC" d="M904.932 294.844C907.391 294.265 909.861 295.767 910.479 298.217C911.098 300.667 909.638 303.16 907.198 303.819C905.584 304.255 903.86 303.787 902.688 302.594C901.516 301.401 901.079 299.669 901.544 298.063C902.009 296.457 903.304 295.226 904.932 294.844Z"/><path fill="#43187F" d="M255.618 103.732C271.142 103.142 286.553 106.594 300.343 113.748C313.659 120.689 321.849 128.224 326.395 142.407C342.702 130.864 365.242 128.753 383.052 138.153C391.536 142.536 397.91 150.135 400.749 159.253C402.956 166.478 402.089 174.294 398.353 180.861C395.485 185.91 390.999 190.122 385.993 193.002C366.131 204.429 343.064 202.448 323.805 191.178C322.666 213.988 317.746 221.295 297.647 232.309C288.28 236.534 278.849 238.863 268.497 240.192C235.952 244.37 193.174 238.58 166.349 218.578C158.378 212.371 150.15 202.972 149.228 192.571C146.46 161.337 187.162 148.821 211.752 146.736C204.719 139.041 201.39 129.721 209.231 121.075C220.207 108.971 240.038 104.729 255.618 103.732Z"/><path fill="#402F87" d="M94.6118 296.865C119.224 265.288 163.402 268.24 183.403 302.775C196.19 302.567 207.409 306.408 216.666 315.445C224.849 323.35 229.448 334.253 229.399 345.63C229.343 377.182 198.25 396.468 168.719 386.568C158.561 398.913 148.197 406.979 131.624 408.609C117.89 409.994 104.18 405.754 93.6261 396.857C89.1702 393.112 86.4008 389.685 83.0943 384.985C23.1014 387.235 18.8498 297.76 85.1641 297.119C88.9839 296.768 90.7861 296.703 94.6118 296.865Z"/><path fill="#43187F" d="M83.0943 384.985C23.1014 387.235 18.8498 297.76 85.1641 297.119C80.2302 298.328 73.151 303.031 69.5697 306.591C49.7166 326.331 53.5007 362.559 75.7448 379.019C77.1811 380.082 82.2379 383.832 83.0943 384.985Z"/><path fill="#F0FAFC" d="M139.616 318.422C140.451 318.283 145.822 322.568 142.69 327.111C140.548 327.182 140.247 327.202 138.492 328.422C138.162 328.589 137.832 328.757 137.502 328.925L136.783 328.407C135.311 324.893 135.664 326.169 133.183 323.753L133.193 322.646C135.718 319.169 136.003 319.277 139.616 318.422Z"/><path fill="#DBDDF2" d="M590.092 376.372C597.192 376.669 598.075 385.905 601.87 389.722C605.118 392.989 614.201 394.163 615.324 399.719C614.224 405.666 605.419 406.871 602.051 410.551C597.772 415.224 597.952 418.296 592.691 423.046C584.991 422.579 584.842 413.936 579.607 409.578C576.4 406.907 566.895 404.813 567.477 399.657C568.173 393.485 578.24 393.092 581.233 389.161C585.059 384.137 584.612 380.527 590.092 376.372Z"/><path fill="#DBDDF2" d="M48.7733 62.2404C53.9321 62.8453 56.7334 71.9233 60.346 75.4247C63.7007 78.6762 72.9768 81.8201 73.4203 86.4623C72.2709 90.1237 64.5335 92.5853 61.0422 96.5117C56.6874 101.409 55.1554 105.7 50.4764 110.155C46.2349 110.231 42.9367 100.877 39.6192 97.6374C36.8291 94.9123 26.446 90.0128 26.3069 86.2369C26.1468 81.8916 35.1885 79.5428 38.0826 76.8641C42.5384 72.7401 44.977 67.109 48.7733 62.2404Z"/><path fill="#DBDDF2" d="M282.185 459.253C288.334 457.721 294.578 461.394 296.226 467.513C297.875 473.632 294.321 479.945 288.235 481.709C284.193 482.881 279.834 481.778 276.836 478.826C273.837 475.874 272.668 471.532 273.777 467.473C274.886 463.414 278.102 460.27 282.185 459.253Z"/><path fill="#DBDDF2" d="M282.634 320.724C288.687 319.668 294.466 323.673 295.603 329.712C296.74 335.751 292.813 341.582 286.79 342.8C282.821 343.602 278.728 342.206 276.076 339.147C273.424 336.087 272.624 331.837 273.982 328.023C275.34 324.209 278.645 321.42 282.634 320.724Z"/><path fill="#F0FAFC" d="M781.081 407.771C784.851 406.57 788.976 407.502 791.864 410.206C794.752 412.911 795.952 416.966 795.001 420.806C794.05 424.647 791.096 427.673 787.28 428.718C781.545 430.286 775.609 426.981 773.922 421.281C772.235 415.58 775.416 409.576 781.081 407.771Z"/><path fill="#DBDDF2" d="M600.687 212.859C606.527 211.794 612.134 215.636 613.25 221.466C614.366 227.296 610.575 232.937 604.754 234.104C598.861 235.287 593.134 231.437 592.003 225.533C590.873 219.629 594.774 213.936 600.687 212.859Z"/><path fill="#DBDDF2" d="M99.6735 477.29C105.565 476.958 110.635 481.411 111.067 487.296C111.499 493.182 107.132 498.326 101.255 498.858C97.3636 499.209 93.5851 497.435 91.371 494.215C89.157 490.996 88.8517 486.832 90.5724 483.324C92.2932 479.817 95.7724 477.51 99.6735 477.29Z"/><path fill="#DBDDF2" d="M971.525 387.284C977.083 386.006 982.644 389.397 984.053 394.922C985.463 400.448 982.204 406.088 976.713 407.628C973.044 408.657 969.105 407.617 966.422 404.911C963.739 402.205 962.732 398.258 963.792 394.597C964.852 390.937 967.811 388.138 971.525 387.284Z"/><path fill="#F0FAFC" d="M453.768 271.284C455.478 270.642 457.403 270.994 458.774 272.201C460.145 273.408 460.738 275.273 460.317 277.05C459.897 278.828 458.53 280.228 456.763 280.693C454.218 281.362 451.595 279.919 450.797 277.411C449.998 274.904 451.304 272.21 453.768 271.284Z"/><path fill="#F0FAFC" d="M645.044 503.325C647.638 502.606 650.325 504.117 651.058 506.708C651.79 509.298 650.292 511.993 647.706 512.739C645.101 513.489 642.382 511.978 641.644 509.369C640.906 506.761 642.431 504.049 645.044 503.325Z"/><path fill="#F0FAFC" d="M726.761 65.191C728.417 64.3625 730.4 64.5442 731.878 65.6599C733.356 66.7756 734.074 68.6325 733.731 70.4523C733.388 72.2721 732.043 73.7403 730.26 74.2415C727.841 74.9216 725.302 73.6511 724.396 71.3074C723.489 68.9637 724.514 66.3151 726.761 65.191Z"/><path fill="#F0FAFC" d="M281.156 47.2482C282.762 46.7269 284.524 47.12 285.756 48.2743C286.987 49.4286 287.494 51.1615 287.078 52.7976C286.662 54.4337 285.39 55.7143 283.756 56.1403C281.331 56.7727 278.842 55.3623 278.139 52.9567C277.435 50.551 278.772 48.022 281.156 47.2482Z"/><path fill="#F0FAFC" d="M448.046 80.6521C450.448 79.7754 453.106 81.0111 453.983 83.4126C454.861 85.814 453.627 88.4726 451.226 89.3517C448.823 90.2314 446.162 88.996 445.284 86.5928C444.405 84.1896 445.642 81.5294 448.046 80.6521Z"/><path fill="#F0FAFC" d="M925.905 413.683C928.373 413.282 930.695 414.971 931.071 417.444C931.448 419.916 929.735 422.22 927.259 422.572C924.818 422.919 922.553 421.236 922.181 418.798C921.81 416.36 923.471 414.078 925.905 413.683Z"/><path fill="#F0FAFC" d="M512.094 608.279C514.383 607.998 516.5 609.536 516.939 611.801C517.378 614.066 515.989 616.283 513.76 616.877C512.174 617.3 510.486 616.803 509.382 615.589C508.278 614.376 507.943 612.647 508.514 611.109C509.085 609.571 510.465 608.479 512.094 608.279Z"/><path fill="#F0FAFC" d="M162.636 144.607C165.044 144.4 167.165 146.181 167.378 148.589C167.59 150.996 165.814 153.121 163.407 153.34C160.992 153.559 158.858 151.776 158.645 149.36C158.431 146.945 160.22 144.815 162.636 144.607Z"/><path fill="#F0FAFC" d="M630.935 92.8034C633.046 92.1827 635.263 93.3827 635.897 95.4899C636.531 97.597 635.346 99.8211 633.243 100.469C631.12 101.123 628.871 99.9241 628.231 97.7976C627.591 95.671 628.804 93.4298 630.935 92.8034Z"/><path fill="#F0FAFC" d="M210.482 490.828C212.534 490.114 214.779 491.191 215.505 493.24C216.231 495.288 215.167 497.539 213.123 498.277C211.062 499.022 208.788 497.947 208.056 495.881C207.323 493.816 208.412 491.548 210.482 490.828Z"/><path fill="#F0FAFC" d="M424.892 570.786C426.015 570.291 427.32 570.456 428.284 571.217C429.248 571.977 429.712 573.208 429.492 574.415C429.271 575.623 428.402 576.61 427.231 576.981C425.552 577.513 423.75 576.639 423.128 574.991C422.506 573.344 423.28 571.497 424.892 570.786Z"/><path fill="#F0FAFC" d="M426.702 448.266C427.766 447.753 429.025 447.863 429.982 448.554C430.94 449.244 431.443 450.404 431.292 451.575C431.141 452.746 430.361 453.74 429.259 454.165C427.649 454.787 425.835 454.027 425.148 452.443C424.462 450.859 425.148 449.016 426.702 448.266Z"/><path fill="#F0FAFC" d="M176.188 68.244C177.167 67.7525 178.335 67.8293 179.241 68.4447C180.147 69.0601 180.649 70.1177 180.553 71.2088C180.457 72.2999 179.778 73.2536 178.778 73.7013C177.279 74.3726 175.519 73.7233 174.814 72.2395C174.11 70.7557 174.72 68.981 176.188 68.244Z"/><path fill="#F0FAFC" d="M55.963 234.738C56.8302 234.304 57.8647 234.372 58.6669 234.918C59.4691 235.463 59.9133 236.4 59.8278 237.366C59.7423 238.332 59.1406 239.177 58.2551 239.573C56.9271 240.167 55.3679 239.591 54.7447 238.277C54.1215 236.962 54.6626 235.391 55.963 234.738Z"/><path fill="#F0FAFC" d="M409.348 322.767C410.32 322.182 411.581 322.475 412.195 323.429C412.809 324.383 412.554 325.653 411.619 326.295C410.989 326.729 410.173 326.785 409.489 326.442C408.805 326.099 408.362 325.41 408.333 324.646C408.303 323.881 408.692 323.161 409.348 322.767Z"/></svg>