<?xml version="1.0" encoding="utf-8" ?><svg xmlns="http://www.w3.org/2000/svg" xmlns:xlink="http://www.w3.org/1999/xlink" width="1024" height="1024" viewBox="0 0 1024 1024"><path fill="#020937" d="M0 0L1024 0L1024 445.277L1024 488.324L1024 545.401L1024 596.818L1024 648.249L1024 714.434L1024 803.812L1024 851.726L1024 961.455L1024 970.816L1024 996.373L1024 1024L839.687 1024L708.298 1024L650.424 1024L567.066 1024L499.898 1024L432.871 1024L361.883 1024L301.937 1024L271.862 1024L114.667 1024L91.4816 1024L0 1024L0 0Z"/><path fill="#FB4995" d="M1024 445.277L1024 488.324L1024 545.401L1024 596.818L1024 648.249L1024 714.434L1024 803.812L1024 851.726L1024 961.455L1024 970.816L1024 996.373L1024 1024L839.687 1024L708.298 1024L650.424 1024L567.066 1024L499.898 1024L432.871 1024L361.883 1024L301.937 1024L271.862 1024C313.607 934.266 366.933 850.39 430.476 774.515C461.818 737.472 496.246 701 532.178 668.795C632.888 578.534 753.309 505.715 884.437 470.214C899.055 466.257 913.858 461.981 928.734 458.829C960.18 452.355 991.996 447.829 1024 445.277Z"/><path fill="#34B0DD" d="M1010.43 573.867C1012.75 581.072 1015.26 590.53 1016.25 597.904C1018.87 597.626 1021.4 597.221 1024 596.818L1024 648.249L1024 714.434L1024 803.812L1024 851.726L1024 961.455L1024 970.816L1024 996.373L1024 1024L839.687 1024L708.298 1024L650.424 1024L567.066 1024C625.165 918.968 714.083 834.285 821.823 781.377C818.957 776.528 813.945 770.294 810.628 764.658C801.078 748.428 797.305 734.61 793.217 716.633C791.226 708.977 789.197 686.003 792.493 679.234C799.572 673.721 831.42 691.359 838.633 696.137C850.179 688.466 929.243 663.506 945.345 661.827C951.809 638.756 962.623 620.544 977.411 602.046C987.301 591.196 997.757 581.444 1010.43 573.867Z"/><path fill="#8E0E8E" d="M821.823 781.377C840.641 802.458 857.635 818.1 883.349 830.927C887.612 833.054 894.792 836.356 899.152 837.715L899.57 838.06C897.847 839.706 879.825 846.938 876.335 848.721C859.737 857.201 838.397 865.513 823.003 875.918C784.461 870.36 750.148 877.67 719.024 901.46C709.293 908.897 695.554 921.176 688.93 931.604C696.48 936.735 705.541 941.132 714.005 944.596C735.64 952.503 749.31 953.878 771.952 955.015C769.224 956.259 763.09 962.118 760.669 964.291C740.662 982.249 724.108 1002.27 708.298 1024L650.424 1024L567.066 1024C625.165 918.968 714.083 834.285 821.823 781.377Z"/><path fill="#43187F" d="M714.005 944.596C735.64 952.503 749.31 953.878 771.952 955.015C769.224 956.259 763.09 962.118 760.669 964.291C740.662 982.249 724.108 1002.27 708.298 1024L650.424 1024C662.557 1002.29 694.534 959.566 714.005 944.596Z"/><path fill="#5D097F" d="M890.408 918.706L893.461 917.047C923.199 920.869 973.842 941.19 994.414 962.698C1004.25 973.595 1014.32 985.847 1024 996.373L1024 1024L839.687 1024L708.298 1024C724.108 1002.27 740.662 982.249 760.669 964.291C763.09 962.118 769.224 956.259 771.952 955.015C811.276 955.185 858.02 941.075 890.408 918.706Z"/><path fill="#8E0E8E" d="M994.414 962.698C1004.25 973.595 1014.32 985.847 1024 996.373L1024 1024L839.687 1024C845.246 1018.82 852.374 1014.71 858.762 1010.63C890.197 990.559 923.905 978.913 959.874 970.105C966.641 968.447 990.073 964.765 994.414 962.698Z"/><path fill="#4BD7D6" d="M688.93 931.604C695.554 921.176 709.293 908.897 719.024 901.46C750.148 877.67 784.461 870.36 823.003 875.918C848.318 881.184 864.604 886.985 887.277 899.332L895.596 904.337C888.711 905.758 870.902 904.435 862.93 904.447C839.349 904.482 796.808 905.705 774.967 912.924C808.808 914.356 842.76 917.71 876.683 918.027C879.487 918.053 888.49 917.786 890.408 918.706C858.02 941.075 811.276 955.185 771.952 955.015C749.31 953.878 735.64 952.503 714.005 944.596C705.541 941.132 696.48 936.735 688.93 931.604Z"/><path fill="#4BD7D6" d="M793.217 716.633C791.226 708.977 789.197 686.003 792.493 679.234C799.572 673.721 831.42 691.359 838.633 696.137C857.762 710.238 873.119 725.528 884.541 746.585C885.661 748.65 887.409 751.863 888.744 753.724C898.465 773.629 905.52 791.78 911.085 813.194C912.61 819.059 915.14 826.321 916.04 832.201C913.026 831.565 900.559 812.664 897.793 809.09C883.809 790.825 869.072 773.15 853.621 756.11C845.356 747.042 837.511 738.353 827.97 730.596C836.312 741.62 899.082 829.171 900.064 836.851L899.152 837.715C894.792 836.356 887.612 833.054 883.349 830.927C857.635 818.1 840.641 802.458 821.823 781.377C818.957 776.528 813.945 770.294 810.628 764.658C801.078 748.428 797.305 734.61 793.217 716.633Z"/><path fill="#5D097F" d="M1024 803.812L1024 851.726L1024 961.455C1022.31 961.672 1017.19 962.169 1016.08 962.614C1009.81 955.977 970.648 911.008 968.761 905.949C964.91 895.625 963.982 877.656 963.488 866.353C962.919 848.384 963.046 834.981 964.048 816.884C969.739 815.979 979.133 813.292 985.093 811.902C997.989 808.865 1010.96 806.167 1024 803.812Z"/><path fill="#43187F" d="M1024 803.812L1024 851.726C1007.77 854.01 979.553 861.623 963.488 866.353C962.919 848.384 963.046 834.981 964.048 816.884C969.739 815.979 979.133 813.292 985.093 811.902C997.989 808.865 1010.96 806.167 1024 803.812Z"/><path fill="#05B3FC" d="M838.633 696.137C850.179 688.466 929.243 663.506 945.345 661.827C940.424 677.222 938.673 701.269 939.71 717.345C940.01 722.006 941.86 732.303 941.866 735.515C924.215 741.198 905.799 748.396 888.744 753.724C887.409 751.863 885.661 748.65 884.541 746.585C873.119 725.528 857.762 710.238 838.633 696.137Z"/><path fill="#8E0E8E" d="M888.744 753.724C905.799 748.396 924.215 741.198 941.866 735.515C944.658 749.274 948.714 762.747 953.981 775.761L956.966 783.453C955.197 793.283 952.594 811.219 952.413 821.255C947.805 821.667 920.647 830.055 916.345 832.193L916.04 832.201C915.14 826.321 912.61 819.059 911.085 813.194C905.52 791.78 898.465 773.629 888.744 753.724Z"/><path fill="#8E0E8E" d="M1024 714.434L1024 803.812C1010.96 806.167 997.989 808.865 985.093 811.902C979.133 813.292 969.739 815.979 964.048 816.884C964.747 808.08 966.55 787.033 969.004 778.948C971.627 775.468 974.719 769.128 976.932 765.26C983.978 752.944 990.802 740.457 997.086 727.735C998.559 724.754 1000.06 721.563 1001.79 718.749C1008.8 717.161 1016.87 715.794 1024 714.434Z"/><path fill="#43187F" d="M899.57 838.06C899.954 838.176 900.338 838.293 900.722 838.409C909.047 849.856 919.753 867.647 927.749 878.396C915.539 885.408 899.522 889.35 887.277 899.332C864.604 886.985 848.318 881.184 823.003 875.918C838.397 865.513 859.737 857.201 876.335 848.721C879.825 846.938 897.847 839.706 899.57 838.06Z"/><path fill="#5D097F" d="M927.749 878.396L953.969 912.353C958.315 917.958 963.487 925.093 967.926 930.362C946.43 919.926 926.137 911.417 902.559 906.718C899.754 906.159 898.165 905.358 895.596 904.337L887.277 899.332C899.522 889.35 915.539 885.408 927.749 878.396Z"/><path fill="#43187F" d="M952.413 821.255C951.04 837.085 951.616 855.037 952.569 870.836C950.745 871.313 946.914 872.945 945.288 873.916C941.423 869.248 917.783 836.084 916.345 832.193C920.647 830.055 947.805 821.667 952.413 821.255Z"/><path fill="#05B3FC" d="M953.981 775.761C955.248 772.643 956.212 758.766 956.83 754.153C960.128 729.516 968.643 698.764 982.646 677.885C978.302 701.986 972.451 725.752 968.859 749.959C967.613 758.354 965.223 771.695 966.035 779.977C963.206 782.559 960.894 784.498 956.966 783.453L953.981 775.761Z"/><path fill="#44C0DB" d="M1020.16 647.836L1024 648.249L1024 714.434C1016.87 715.794 1008.8 717.161 1001.79 718.749C1003.46 715.409 1005.98 708.005 1007.29 704.356C1013.57 686.785 1019.24 666.622 1020.16 647.836Z"/><path fill="#FB4995" d="M1016.25 597.904C1018.87 597.626 1021.4 597.221 1024 596.818L1024 648.249L1020.16 647.836C1020.61 627.326 1019.32 617.948 1016.25 597.904Z"/><path fill="#5D097F" d="M945.288 873.916C946.914 872.945 950.745 871.313 952.569 870.836C953.088 875.32 953.855 880.703 954.158 885.137C951.068 881.364 948.206 877.842 945.288 873.916Z"/><path fill="#8E0E8E" d="M1024 961.455L1024 970.816C1021.24 968.12 1018.72 965.428 1016.08 962.614C1017.19 962.169 1022.31 961.672 1024 961.455Z"/><path fill="#FB4995" d="M432.871 1024C439.36 1009.85 444.493 995.938 451.402 981.609C479.851 921.359 517.606 865.963 563.28 817.453C655.756 721.173 772.775 651.983 901.702 617.352C919.288 612.606 935.745 608.953 953.698 605.91C960.261 604.797 971.102 602.2 977.411 602.046C962.623 620.544 951.809 638.756 945.345 661.827C929.243 663.506 850.179 688.466 838.633 696.137C831.42 691.359 799.572 673.721 792.493 679.234C789.197 686.003 791.226 708.977 793.217 716.633C797.305 734.61 801.078 748.428 810.628 764.658C813.945 770.294 818.957 776.528 821.823 781.377C714.083 834.285 625.165 918.968 567.066 1024L499.898 1024L432.871 1024Z"/><path fill="#05B3FC" d="M793.217 716.633C797.305 734.61 801.078 748.428 810.628 764.658C813.945 770.294 818.957 776.528 821.823 781.377C714.083 834.285 625.165 918.968 567.066 1024L499.898 1024C503.029 1018.37 507.614 1006.93 510.426 1000.73C515.312 990.041 520.597 979.534 526.27 969.237C551.259 922.917 582.6 880.317 619.383 842.675C629.917 832.014 640.584 823.61 650.857 813.638C654.803 812.192 658.117 809.41 660.224 805.774C662.472 804.445 669.423 798.234 671.945 796.084C677.955 790.953 684.117 786.003 690.422 781.241C711.766 765.008 734.045 750.044 757.145 736.425C767.494 730.219 782.269 721.645 793.217 716.633Z"/><path fill="#F0FAFC" d="M650.857 813.638C642.659 816.643 633.487 813.323 629.111 805.766C624.736 798.21 626.423 788.602 633.11 782.988C639.798 777.373 649.553 777.376 656.237 782.994C662.922 788.612 664.603 798.22 660.224 805.774C658.117 809.41 654.803 812.192 650.857 813.638Z"/><path fill="#8E0E8E" d="M361.883 1024C367.732 1007.43 376.668 989.571 384.762 974.033C406.133 932.992 431.062 893.905 459.264 857.22C533.732 761.45 628.534 683.407 736.827 628.725C761.572 616.05 793.992 600.99 820.1 591.585C869.623 574.251 920.492 561.029 972.189 552.056C989.483 549.22 1006.63 547.532 1024 545.401L1024 596.818C1021.4 597.221 1018.87 597.626 1016.25 597.904C1015.26 590.53 1012.75 581.072 1010.43 573.867C997.757 581.444 987.301 591.196 977.411 602.046C971.102 602.2 960.261 604.797 953.698 605.91C935.745 608.953 919.288 612.606 901.702 617.352C772.775 651.983 655.756 721.173 563.28 817.453C517.606 865.963 479.851 921.359 451.402 981.609C444.493 995.938 439.36 1009.85 432.871 1024L361.883 1024Z"/><path fill="#F0FAFC" d="M631.984 711.419C638.821 710.839 644.844 715.886 645.47 722.719C646.096 729.551 641.09 735.608 634.262 736.281C627.368 736.96 621.24 731.895 620.608 724.996C619.976 718.098 625.082 712.004 631.984 711.419Z"/><path fill="#F0FAFC" d="M824.233 607.872C825.451 610.715 826.468 611.364 828.822 613.248L829.6 613.865L828.498 613.881C825.651 615.562 824.946 617.586 824.019 620.645C823.339 619.005 822.85 617.233 822.321 615.528L816.853 613.375C821.32 612.083 822.054 612.005 824.233 607.872Z"/><path fill="#F43487" d="M301.937 1024C315.578 1000.96 327.628 979.497 342.073 956.756C355.807 935.559 370.119 914.743 384.994 894.331C392.227 884.252 399.145 874.19 406.614 864.25C493.997 748.269 605.237 652.378 732.831 583.045C767.689 564.179 800.408 547.282 838.378 535.045C862.273 527.345 885.223 518.517 909.377 511.276C947.407 499.875 984.874 493.884 1024 488.324L1024 545.401C1006.63 547.532 989.483 549.22 972.189 552.056C920.492 561.029 869.623 574.251 820.1 591.585C793.992 600.99 761.572 616.05 736.827 628.725C628.534 683.407 533.732 761.45 459.264 857.22C431.062 893.905 406.133 932.992 384.762 974.033C376.668 989.571 367.732 1007.43 361.883 1024L301.937 1024Z"/><path fill="#F0FAFC" d="M839.708 496.265C846.421 498.193 845.752 503.291 845.451 509.078C849.854 509.43 853.669 509.314 855.536 514.017C855.11 519.267 850.288 519.3 846.087 519.594C846.083 525.27 846.34 527.497 842.575 531.914C835.838 533.773 836.127 523.577 835.887 519.461C831.863 518.9 829.03 518.731 827.197 514.81C827.282 509.583 832.056 509.671 836.017 509.639C836.136 503.565 835.739 500.965 839.708 496.265Z"/><defs><linearGradient id="gradient_0" gradientUnits="userSpaceOnUse" x1="582.59564" y1="292.23001" x2="693.11633" y2="152.09067"><stop offset="0" stop-color="#F4258A"/><stop offset="1" stop-color="#FC72B2"/></linearGradient></defs><path fill="url(#gradient_0)" d="M575.209 287.6C567.959 276.583 558.027 255.117 553.683 241.889C540.518 199.769 530.025 137.159 549.612 95.7454C572.117 48.1637 605.222 69.8837 618.574 110.08C633.54 98.4306 652.867 90.5664 671.4 92.6404C696.726 95.4744 699.681 117.116 698.067 137.786C697.761 141.705 696.937 149.219 702.277 149.278C708.316 149.731 714.155 148.734 720.12 148.828C742.295 149.175 770.889 158.863 767.729 186.407C765.967 201.766 754.89 213.775 746.202 225.886C763.042 227.533 795.242 241.593 792.544 261.905C789.126 287.644 751.291 300.311 730.401 305.828C702.842 313.106 675.966 314.398 648.08 311.14C630.5 309.162 613.206 305.164 596.542 299.225C588.851 295.191 582.145 293.951 575.209 287.6Z"/><defs><linearGradient id="gradient_1" gradientUnits="userSpaceOnUse" x1="613.87433" y1="178.06938" x2="759.5686" y2="146.00502"><stop offset="0" stop-color="#FEA9DB"/><stop offset="1" stop-color="#FFE7EF"/></linearGradient></defs><path fill="url(#gradient_1)" d="M618.574 110.08C633.54 98.4306 652.867 90.5664 671.4 92.6404C696.726 95.4744 699.681 117.116 698.067 137.786C697.761 141.705 696.937 149.219 702.277 149.278C708.316 149.731 714.155 148.734 720.12 148.828C742.295 149.175 770.889 158.863 767.729 186.407C765.967 201.766 754.89 213.775 746.202 225.886C742.011 226.254 729.107 224.706 722.792 225.026C700.639 226.149 685.391 232.208 665.377 239.673C676.748 222.648 695.494 201.599 697.266 179.517C697.575 175.807 695.811 167.565 692.592 165.216C668.779 147.835 628.657 178.755 614.649 194.255C626.246 163.788 625.987 141.151 618.574 110.08Z"/><defs><linearGradient id="gradient_2" gradientUnits="userSpaceOnUse" x1="292.97537" y1="554.02563" x2="51.853985" y2="307.71069"><stop offset="0" stop-color="#4DB0F5"/><stop offset="1" stop-color="#8FCFFC"/></linearGradient></defs><path fill="url(#gradient_2)" d="M71.7928 286.214C122.889 299.871 168.918 328.075 204.287 367.399C254.266 423.148 269.037 487.48 264.22 560.935C263.848 566.616 262.874 572.301 262.565 577.975C256.514 586.465 251.37 594.237 245.696 602.945C242.431 598.277 239.803 592.628 236.57 587.831C210.84 549.649 171.341 524.781 141.814 489.725C95.0538 434.21 65.7707 359.3 71.7928 286.214Z"/><path fill="#05B3FC" d="M156.361 403.838C161.008 404.278 163.294 407.458 166.434 411.048C201.841 451.53 231.861 501.823 243.188 554.785C244.303 560.001 247.158 574.377 246.788 579.482L246.173 579.657C240.349 568.01 236.561 551.098 232.209 538.416C217.436 495.36 193.531 455.707 164.43 420.842C161.076 416.825 156.886 412.841 154.467 408.296C153.777 406.994 155.617 404.78 156.361 403.838Z"/><path fill="#F0FAFC" d="M104.429 331.575C109.581 331.269 113.839 332.588 116.265 337.574C117.568 340.299 117.704 343.438 116.642 346.266C115.266 349.867 112.881 351.641 109.48 353.047C104.577 353.332 100.423 351.782 98.0185 347.227C96.6065 344.523 96.3817 341.353 97.3981 338.476C98.7412 334.737 101.05 333.2 104.429 331.575Z"/><path fill="#44C0DB" d="M194.304 740.297C197.259 738.195 204.935 727.311 208.21 723.887C217.39 714.291 226.424 704.939 236.263 695.98C253.031 680.498 271.192 666.596 290.515 654.453C337.817 625.195 396.99 606.884 452.873 610.274C464.545 610.982 484.028 613.511 494.414 618.096C486.673 641.724 451.179 677.073 431.101 691.612C420.252 699.468 404.087 709.25 392.02 715.236C359.553 731.342 322.633 739.168 286.75 742.62C265.133 744.7 243.253 746.15 221.967 750.368C208.611 753.015 196.234 757.883 183.524 762.568C185.337 757.027 191.269 745.221 194.304 740.297Z"/><path fill="#05B3FC" d="M385.107 664.169C386.785 663.995 387.306 664.353 388.485 665.496C389.202 667.531 389.147 666.537 388.754 668.585C386.497 671.668 375.657 673.277 371.228 674.382C360.931 676.947 350.696 679.75 340.528 682.788C311.649 691.671 280.846 706.484 253.844 720.222C238.443 728.057 224.44 737.014 208.499 743.987C206.507 744.469 206.986 744.653 205.289 744.123C204.852 741.613 209.904 737.591 211.922 736.292C262.352 703.823 325.578 673.834 385.107 664.169Z"/><path fill="#97ADF5" d="M492.44 340.292C495.39 339.499 496.082 338.549 498.133 337.212C504.025 333.371 539.832 307.327 544.223 307.115C545.082 309.361 552.042 324.821 551.902 325.077C549.828 328.868 504.839 354.987 500.156 363.159C500.11 363.239 500.06 363.316 500.012 363.394C416.071 428.244 342.514 505.519 281.88 592.554C268.749 611.243 256.191 630.328 244.224 649.782C239.508 657.32 232.013 670.804 227.263 677.448L226.902 676.522C224.208 681.613 220.836 686.329 218.236 691.276C207.972 710.8 197.708 730.199 188.125 750.076C185.211 756.121 178.62 773.203 174.933 777.401C172.774 777.54 174 777.423 172.349 776.512C166.409 773.239 169.829 760.846 166.885 758.61C164.549 758.258 162.577 758.933 160.234 759.462L159.949 759.057C161.67 753.159 169.29 738.078 172.253 732.025C183.688 708.663 196.626 685.927 209.06 663.125L208.771 662.24C210.018 659.289 216.06 649.465 217.847 646.497C226.795 631.768 236.081 617.247 245.696 602.945C251.37 594.237 256.514 586.465 262.565 577.975C268.173 570.905 274.209 561.865 279.713 554.405C288.587 542.619 297.64 530.967 306.868 519.455C351.396 463.453 401.83 412.411 457.294 367.215C467.752 358.801 481.43 347.393 492.44 340.292Z"/><path fill="#ED93EE" d="M208.771 662.24L209.06 663.125C196.626 685.927 183.688 708.663 172.253 732.025C169.29 738.078 161.67 753.159 159.949 759.057L160.234 759.462C162.577 758.933 164.549 758.258 166.885 758.61C169.829 760.846 166.409 773.239 172.349 776.512C174 777.423 172.774 777.54 174.933 777.401C178.62 773.203 185.211 756.121 188.125 750.076C197.708 730.199 207.972 710.8 218.236 691.276C220.836 686.329 224.208 681.613 226.902 676.522L227.263 677.448C224.407 683.359 220.533 689.178 217.469 694.984C209.648 709.807 201.004 724.952 194.304 740.297C191.269 745.221 185.337 757.027 183.524 762.568C143.317 849.69 121.893 927.935 114.667 1024L91.4816 1024C91.8217 1008.66 95.5706 981.224 97.5764 966.35C109.943 874.643 142.35 784.937 185.977 703.585C193.535 689.492 200.404 676.126 208.771 662.24Z"/><path fill="#05B3FC" d="M575.209 287.6C582.145 293.951 588.851 295.191 596.542 299.225C584.56 305.37 565.121 317.914 554.093 325.305C535.666 337.424 517.63 350.127 500.012 363.394C500.06 363.316 500.11 363.239 500.156 363.159C504.839 354.987 549.828 328.868 551.902 325.077C552.042 324.821 545.082 309.361 544.223 307.115C539.832 307.327 504.025 333.371 498.133 337.212C496.082 338.549 495.39 339.499 492.44 340.292C494.34 338.379 504.756 331.109 507.222 329.383C529.051 314.142 551.752 300.191 575.209 287.6Z"/><path fill="#F0FAFC" d="M302.039 76.3365C313.098 74.7884 323.323 82.4846 324.896 93.5404C326.469 104.596 318.796 114.839 307.744 116.437C296.656 118.04 286.374 110.337 284.796 99.2457C283.218 88.1547 290.944 77.8896 302.039 76.3365Z"/><path fill="#F0FAFC" d="M554.656 491.138C565.325 490.061 574.86 497.805 575.994 508.468C577.129 519.131 569.437 528.707 558.78 529.9C548.042 531.101 538.375 523.337 537.232 512.592C536.088 501.847 543.905 492.223 554.656 491.138Z"/><path fill="#F0FAFC" d="M141.085 146.886C148.38 159.817 144.45 163.45 160.408 173.277C149.411 181.509 149.205 181.447 143.734 195.028C143.082 196.648 142.168 199.171 140.946 200.449C140.025 198.873 137.618 193.612 136.869 191.855C132.483 181.556 129.081 179.189 120.701 172.705C134.643 162.898 133.599 162.729 141.085 146.886Z"/><path fill="#F0FAFC" d="M853.157 295.228C856.179 297.403 859.319 306.731 862.042 310.087C865.192 313.968 869.299 316.734 873.184 319.962C860.701 329.58 861.395 331.043 854.107 345.1C851.07 344.012 847.874 332.934 845.661 330.373C842.581 326.811 837.988 323.798 834.589 320.306C836.483 316.648 842.399 314.232 844.766 310.927C848.234 306.083 850.034 300.364 853.157 295.228Z"/><path fill="#F0FAFC" d="M890.695 16.8239C891.877 17.9921 893.72 21.7044 894.486 23.2738C898.827 32.1659 902.361 35.7497 910.395 41.2098C900.519 47.4044 896.328 54.936 891.196 65.2036C890.019 64.315 888.556 61.4976 887.833 60.1308C883.366 51.6829 880.082 47.1224 871.775 42.2053C883.388 33.4987 884.142 29.6999 890.695 16.8239Z"/><path fill="#F0FAFC" d="M946.689 402.757C951.851 401.683 957.19 403.472 960.664 407.438C964.137 411.404 965.206 416.934 963.461 421.908C961.716 426.883 957.427 430.533 952.237 431.461C944.369 432.867 936.83 427.692 935.313 419.844C933.796 411.996 938.863 404.385 946.689 402.757Z"/><path fill="#F0FAFC" d="M285.155 801.837C285.979 802.698 287.207 805.556 287.689 806.685C291.41 815.412 293.859 817.458 301.112 823.153C290.524 828.211 289.084 833.876 285.276 844.064C280.47 832.728 279.501 828.802 268.668 822.237C278.853 815.512 280.215 812.952 285.155 801.837Z"/><path fill="#F0FAFC" d="M82.5534 621.265C85.6597 624.059 84.4678 630.471 94.7834 637.847C87.375 641.666 85.5973 645.014 82.4806 652.27C81.0662 652.335 79.5743 646.667 78.6795 644.962C76.6097 641.019 74.1937 639.787 70.614 637.544C78.1833 631.524 78.5884 630.224 82.5534 621.265Z"/><path fill="#F0FAFC" d="M74.565 775.861C76.6967 775.655 78.6148 777.159 78.9237 779.278C79.2325 781.397 77.8232 783.386 75.7213 783.796C74.2685 784.08 72.7775 783.541 71.8417 782.394C70.9059 781.247 70.6772 779.679 71.2468 778.312C71.8164 776.946 73.0917 776.004 74.565 775.861Z"/><path fill="#F0FAFC" d="M418.055 534.309C420.154 533.728 422.329 534.948 422.926 537.043C423.524 539.138 422.32 541.322 420.23 541.936C418.117 542.556 415.903 541.336 415.299 539.218C414.695 537.1 415.932 534.896 418.055 534.309Z"/><path fill="#F0FAFC" d="M608.916 19.8113C610.237 19.3291 611.717 19.609 612.77 20.5407C613.824 21.4724 614.283 22.9062 613.967 24.2767C613.65 25.6472 612.608 26.7343 611.253 27.1093C609.269 27.6578 607.206 26.5428 606.579 24.5828C605.951 22.6228 606.983 20.5169 608.916 19.8113Z"/><path fill="#F0FAFC" d="M31.0945 897.184C33.1507 896.897 35.0578 898.311 35.3802 900.362C35.7026 902.413 34.3212 904.344 32.2759 904.701C30.9217 904.937 29.5452 904.425 28.6753 903.36C27.8053 902.296 27.5773 900.845 28.0787 899.565C28.5801 898.285 29.733 897.375 31.0945 897.184Z"/><path fill="#F0FAFC" d="M960.709 220.198C961.978 219.686 963.425 219.907 964.483 220.773C965.542 221.64 966.043 223.015 965.792 224.359C965.541 225.704 964.576 226.805 963.276 227.23C961.357 227.859 959.285 226.853 958.592 224.955C957.9 223.058 958.836 220.954 960.709 220.198Z"/><path fill="#F0FAFC" d="M413.57 113.763C415.57 113.651 417.298 115.145 417.476 117.141C417.654 119.136 416.219 120.913 414.231 121.157C412.884 121.323 411.555 120.742 410.762 119.641C409.97 118.54 409.841 117.094 410.425 115.87C411.01 114.646 412.216 113.838 413.57 113.763Z"/><path fill="#F0FAFC" d="M792.376 81.7459C793.643 81.1702 795.127 81.3616 796.207 82.2402C797.287 83.1187 797.776 84.5328 797.47 85.8906C797.164 87.2485 796.115 88.3159 794.763 88.6462C792.924 89.0953 791.046 88.0714 790.428 86.2828C789.809 84.4943 790.653 82.5287 792.376 81.7459Z"/><path fill="#F0FAFC" d="M436.994 244.783C438.241 244.361 439.62 244.643 440.601 245.523C441.581 246.402 442.013 247.741 441.729 249.027C441.445 250.313 440.491 251.347 439.231 251.732C437.323 252.315 435.301 251.258 434.69 249.36C434.078 247.461 435.104 245.423 436.994 244.783Z"/><path fill="#F0FAFC" d="M694.5 399.784C695.654 399.133 697.073 399.168 698.194 399.876C699.315 400.583 699.958 401.848 699.867 403.171C699.777 404.493 698.968 405.659 697.761 406.207C696.003 407.005 693.93 406.277 693.056 404.557C692.182 402.836 692.819 400.732 694.5 399.784Z"/><path fill="#F0FAFC" d="M57.4659 100.889C58.69 100.468 60.046 100.739 61.0135 101.6C61.981 102.46 62.4096 103.774 62.135 105.04C61.8604 106.305 60.9251 107.323 59.6881 107.705C57.8174 108.282 55.8299 107.251 55.2231 105.39C54.6163 103.529 55.6147 101.525 57.4659 100.889Z"/><path fill="#F0FAFC" d="M285.804 320.228C287.609 319.625 289.568 320.56 290.235 322.343C290.901 324.126 290.036 326.117 288.277 326.846C287.083 327.341 285.714 327.145 284.707 326.334C283.701 325.524 283.216 324.228 283.445 322.956C283.673 321.684 284.578 320.638 285.804 320.228Z"/><path fill="#F0FAFC" d="M404.349 745.815C405.574 745.36 406.949 745.618 407.925 746.485C408.902 747.352 409.32 748.686 409.014 749.956C408.708 751.225 407.727 752.222 406.463 752.549C404.641 753.019 402.771 751.98 402.208 750.185C401.645 748.39 402.586 746.469 404.349 745.815Z"/><path fill="#F0FAFC" d="M65.5124 490.761C67.2996 489.992 69.372 490.818 70.1388 492.607C70.9056 494.395 70.0757 496.466 68.2862 497.23C66.5005 497.993 64.4347 497.165 63.6696 495.38C62.9045 493.596 63.7291 491.529 65.5124 490.761Z"/><path fill="#F0FAFC" d="M229.428 924.774C230.594 924.257 231.952 924.427 232.954 925.218C233.957 926.008 234.439 927.289 234.208 928.544C233.976 929.799 233.069 930.823 231.85 931.204C230.109 931.749 228.246 930.84 227.603 929.133C226.96 927.426 227.76 925.514 229.428 924.774Z"/></svg>