<?xml version="1.0" encoding="utf-8" ?><svg xmlns="http://www.w3.org/2000/svg" xmlns:xlink="http://www.w3.org/1999/xlink" width="1024" height="1024" viewBox="0 0 1024 1024"><defs><linearGradient id="gradient_0" gradientUnits="userSpaceOnUse" x1="340.888" y1="134.92715" x2="683.71802" y2="633.68188"><stop offset="0" stop-color="#00002D"/><stop offset="1" stop-color="#130548"/></linearGradient></defs><path fill="url(#gradient_0)" d="M0 0L199.762 0L275.233 0L353.216 0L445.849 0L534.318 0L811.375 0L851.342 0L1002.16 0L1024 0L1024 19.4074L1024 403.16L1024 440.732L1024 477.813L1024 514.065L1024 551.578L1024 589.096L1024 674.069L1024 757.537L1024 822.202L1024 1024L0 1024L0 869.376L0 746.961L0 550.457L0 469.558L0 379.985L0 303.895L0 230.53L0 0Z"/><path fill="#020937" d="M0 0L199.762 0L275.233 0L353.216 0L445.849 0L534.318 0C536.223 22.3579 537.402 44.47 536.593 66.9346C533.457 154.058 504.78 239.795 458.692 313.44C451.244 325.464 443.233 337.13 434.686 348.398C430.027 354.418 425.306 360.389 420.521 366.309C415.92 371.972 409.284 379.09 406.408 385.454C408.388 392.969 405.86 400.952 399.916 405.958C393.972 410.964 385.676 412.097 378.607 408.868C283.137 503.641 158.198 551.926 24.1282 551.053C15.9764 551 7.99029 550.561 0 550.457L0 469.558L0 379.985L0 303.895L0 230.53L0 0Z"/><path fill="#05B3FC" d="M0 0L199.762 0L275.233 0L353.216 0C355.377 14.743 357.136 27.9357 357.54 42.9399C357.895 56.0943 357.278 68.5724 356.783 81.7177L359.416 82.8402L359.691 83.5574C358.477 84.6826 357.551 85.1221 356.132 85.9305C353.22 109.889 347.925 133.498 340.327 156.406C320.809 214.423 281.452 273.363 232.715 310.863C230.385 312.688 227.953 314.377 225.43 315.921C229.246 325.053 225.868 335.605 217.459 340.824C209.05 346.043 198.096 344.386 191.606 336.913C146.26 362.49 95.6497 377.318 43.6713 380.257C27.772 381.069 15.0945 379.967 0 379.985L0 303.895L0 230.53L0 0Z"/><path fill="#05B3FC" d="M0 0L199.762 0C202.647 8.57824 205.536 16.8339 207.389 25.7196C214.719 61.4227 209.903 98.5518 193.706 131.203C171.931 175.103 134.162 207.998 87.7807 224.459C85.0647 225.423 82.8939 226.121 79.9898 225.966L77.7626 227.19C48.6794 234.259 29.9913 235.436 0 230.53L0 0Z"/><path fill="#F0FAFC" d="M166.425 67.8237C167.525 68.767 168.33 70.6709 168.877 72.0425C172.022 79.9309 177.052 81.647 184.256 85.1943C174.022 90.9245 170.768 92.4197 166.897 103.709C160.7 92.3758 159.511 91.3873 147.998 85.3042C157.624 81.3226 161.797 76.7875 166.425 67.8237Z"/><path fill="#8DE4FA" d="M199.762 0L275.233 0C277.578 10.9872 280.217 22.8417 281.404 33.9875C287.253 88.1893 274.317 142.756 244.758 188.563C193.614 267.354 100.742 314 6.83815 304.678C4.57749 304.454 2.24482 304.057 0 303.895L0 230.53C29.9913 235.436 48.6794 234.259 77.7626 227.19L79.9898 225.966C82.8939 226.121 85.0647 225.423 87.7807 224.459C134.162 207.998 171.931 175.103 193.706 131.203C209.903 98.5518 214.719 61.4227 207.389 25.7196C205.536 16.8339 202.647 8.57824 199.762 0Z"/><path fill="#F0FAFC" d="M79.9898 225.966C82.5041 227.013 88.6425 234.002 90.4722 236.509C84.9172 241.195 84.4558 240.342 80.6315 246.533C76.6842 241.291 75.2555 240.059 70.4774 235.702C73.1696 233.094 76.1125 230.575 77.7626 227.19L79.9898 225.966Z"/><path fill="#F0FAFC" d="M191.606 336.913C186.377 330.892 185.189 322.354 188.575 315.134C191.962 307.914 199.286 303.368 207.259 303.539C215.232 303.709 222.355 308.563 225.43 315.921C229.246 325.053 225.868 335.605 217.459 340.824C209.05 346.043 198.096 344.386 191.606 336.913Z"/><path fill="#F0FAFC" d="M342.801 66.4494C347.441 74.1282 348.586 77.5913 356.783 81.7177L359.416 82.8402L359.691 83.5574C358.477 84.6826 357.551 85.1221 356.132 85.9305C348.208 90.4424 346.978 93.8062 343.235 101.714C338.668 90.8391 335.054 89.3265 325.586 83.4182C335.411 79.9247 338.078 74.9457 342.801 66.4494Z"/><path fill="#F0FAFC" d="M258.992 233.207C260.303 232.554 261.896 233.036 262.625 234.307C263.355 235.577 262.968 237.195 261.744 237.999C260.884 238.563 259.783 238.604 258.883 238.106C257.984 237.607 257.435 236.651 257.458 235.623C257.481 234.595 258.071 233.665 258.992 233.207Z"/><path fill="#43187F" d="M353.216 0L445.849 0C449.036 20.5323 449.714 37.2447 449.637 57.8043C449.507 143.652 421.814 227.189 370.636 296.114C305.206 386.548 206.5 447.252 96.2733 464.846C75.4122 468.022 54.355 469.739 33.255 469.986C22.0927 470.096 11.0269 469.494 0 469.558L0 379.985C15.0945 379.967 27.772 381.069 43.6713 380.257C95.6497 377.318 146.26 362.49 191.606 336.913C198.096 344.386 209.05 346.043 217.459 340.824C225.868 335.605 229.246 325.053 225.43 315.921C227.953 314.377 230.385 312.688 232.715 310.863C281.452 273.363 320.809 214.423 340.327 156.406C347.925 133.498 353.22 109.889 356.132 85.9305C357.551 85.1221 358.477 84.6826 359.691 83.5574L359.416 82.8402L356.783 81.7177C357.278 68.5724 357.895 56.0943 357.54 42.9399C357.136 27.9357 355.377 14.743 353.216 0Z"/><path fill="#F0FAFC" d="M64.7159 404.377C71.2106 415.511 67.9597 414.877 81.3951 422.629C69.9397 427.94 69.8198 428.579 64.0605 439.538C58.6115 427.867 58.1526 427.721 46.9652 421.793C58.0235 415.885 59.2671 416.211 64.7159 404.377Z"/><path fill="#F0FAFC" d="M332.601 300.767C333.961 300.167 335.553 300.727 336.239 302.045C336.926 303.364 336.47 304.989 335.198 305.759C334.299 306.303 333.172 306.302 332.274 305.756C331.376 305.211 330.856 304.211 330.925 303.163C330.993 302.114 331.639 301.191 332.601 300.767Z"/><path fill="#F0FAFC" d="M419.063 100.265C419.845 99.685 420.877 99.5692 421.767 99.9619C422.658 100.355 423.269 101.195 423.367 102.163C423.465 103.131 423.036 104.078 422.243 104.641C421.034 105.5 419.359 105.226 418.488 104.027C417.616 102.827 417.873 101.149 419.063 100.265Z"/><path fill="#F0FAFC" d="M378.607 408.868C370.102 404.983 365.397 395.749 367.252 386.585C369.108 377.421 377.035 370.745 386.381 370.475C395.727 370.205 404.027 376.412 406.408 385.454C408.388 392.969 405.86 400.952 399.916 405.958C393.972 410.964 385.676 412.097 378.607 408.868Z"/><path fill="#F0FAFC" d="M212.402 487.659C215.128 486.938 218.031 487.753 219.985 489.786C221.94 491.819 222.638 494.752 221.809 497.448C220.981 500.144 218.756 502.179 215.998 502.764C211.875 503.639 207.807 501.066 206.831 496.966C205.855 492.866 208.327 488.736 212.402 487.659Z"/><path fill="#F0FAFC" d="M451.978 232.74C454.574 231.939 457.401 232.593 459.38 234.454C461.359 236.315 462.186 239.096 461.546 241.736C460.906 244.377 458.897 246.469 456.285 247.217C452.304 248.356 448.149 246.078 446.968 242.11C445.788 238.141 448.022 233.962 451.978 232.74Z"/><path fill="#F0FAFC" d="M498.01 72.3261C500.586 71.6887 503.305 72.4935 505.12 74.4303C506.934 76.367 507.56 79.1331 506.756 81.6622C505.952 84.1913 503.844 86.0883 501.244 86.6219C497.335 87.4242 493.502 84.9515 492.621 81.059C491.74 77.1664 494.136 73.2847 498.01 72.3261Z"/><path fill="#F0FAFC" d="M402.534 308.322C403.375 307.74 404.464 307.655 405.386 308.098C406.308 308.542 406.92 309.447 406.99 310.468C407.059 311.488 406.575 312.468 405.722 313.032C404.422 313.894 402.671 313.547 401.797 312.255C400.922 310.964 401.251 309.209 402.534 308.322Z"/><path fill="#F0FAFC" d="M53.321 515.72C55.402 516.079 55.8369 516.374 56.58 518.218C56.3722 520.333 56.1213 520.476 54.8144 522.271C52.8932 521.454 52.6797 521.031 51.9594 519.504C51.9696 517.561 52.2756 517.324 53.321 515.72Z"/><path fill="#F0FAFC" d="M288.466 465.222C289.27 464.659 290.327 464.613 291.176 465.105C292.025 465.597 292.511 466.537 292.422 467.514C292.333 468.491 291.685 469.328 290.761 469.658C289.573 470.083 288.254 469.564 287.674 468.443C287.095 467.323 287.433 465.946 288.466 465.222Z"/><path fill="#F43487" d="M735.882 878.224C744.585 855.99 757.836 835.819 774.786 819.003C817.696 776.447 879.455 756.825 938.579 771.539C973.838 780.314 998.659 796.475 1024 822.202L1024 1024L0 1024L0 869.376C89.0223 871.741 162.81 899.794 230.464 957.588C254.811 937.952 268.709 926.593 295.921 910.162C303.752 905.413 311.755 900.953 319.914 896.791C323.518 894.983 340.41 887.426 341.663 885.09L341.991 885.584C343.156 886.097 350.795 882.464 352.6 881.713C362.206 877.63 371.94 873.852 381.786 870.387C384.454 870.016 394.527 866.557 397.513 865.605C406.075 862.828 414.719 860.308 423.433 858.048C432.349 856.924 450.652 851.769 461.091 849.846C474.554 848.112 485.991 846.062 499.903 844.635C513.67 843.3 523.77 842.911 537.603 842.572C558.064 842.438 578.515 843.523 598.848 845.819C604.721 846.452 613.055 847.186 618.69 848.302C639.364 851.258 669.362 856.683 689.754 862.924L690.761 862.561C692.58 863.879 711.065 869.3 714.351 870.405C721.59 872.838 728.769 875.445 735.882 878.224Z"/><path fill="#F0FAFC" d="M905.94 797.398C934.668 795.487 959.498 817.241 961.382 845.97C963.266 874.699 941.488 899.509 912.757 901.365C884.065 903.219 859.296 881.477 857.415 852.787C855.533 824.096 877.252 799.306 905.94 797.398Z"/><path fill="#8E0E8E" d="M461.091 849.846C462.872 843.383 464.713 836.936 466.614 830.506C496.036 729.553 558.715 641.509 644.477 580.665C658.677 570.541 673.47 561.276 688.777 552.92C777.132 506.099 878.249 489.076 977.064 504.387C992.312 506.788 1009.2 509.574 1024 514.065L1024 551.578L1024 589.096L1024 674.069L1024 757.537L1024 822.202C998.659 796.475 973.838 780.314 938.579 771.539C879.455 756.825 817.696 776.447 774.786 819.003C757.836 835.819 744.585 855.99 735.882 878.224C728.769 875.445 721.59 872.838 714.351 870.405C711.065 869.3 692.58 863.879 690.761 862.561L689.754 862.924C669.362 856.683 639.364 851.258 618.69 848.302C613.055 847.186 604.721 846.452 598.848 845.819C578.515 843.523 558.064 842.438 537.603 842.572C523.77 842.911 513.67 843.3 499.903 844.635C485.991 846.062 474.554 848.112 461.091 849.846Z"/><path fill="#F43487" d="M749.093 684.44C752.11 684.609 764.007 676.949 767.626 675.058C838.965 637.774 927.787 634.899 1002.39 664.282C1009.22 666.974 1017.75 670.578 1024 674.069L1024 757.537L1024 822.202C998.659 796.475 973.838 780.314 938.579 771.539C879.455 756.825 817.696 776.447 774.786 819.003C757.836 835.819 744.585 855.99 735.882 878.224C728.769 875.445 721.59 872.838 714.351 870.405C711.065 869.3 692.58 863.879 690.761 862.561L689.754 862.924C669.362 856.683 639.364 851.258 618.69 848.302C620.831 838.953 628.858 819 633.083 810.34C653.814 767.846 681.398 731.909 719.683 703.788C726.393 698.859 738.871 689.422 746.393 686.757C747.905 685.997 747.909 685.724 749.093 684.44Z"/><path fill="#FD669C" d="M690.761 862.561C697.801 845.418 704.116 831.119 714.657 815.596C747.613 766.279 798.897 732.163 857.118 720.824C904.118 712.032 952.702 718.776 995.53 740.037C1005.93 745.303 1014.35 750.982 1024 757.537L1024 822.202C998.659 796.475 973.838 780.314 938.579 771.539C879.455 756.825 817.696 776.447 774.786 819.003C757.836 835.819 744.585 855.99 735.882 878.224C728.769 875.445 721.59 872.838 714.351 870.405C711.065 869.3 692.58 863.879 690.761 862.561Z"/><path fill="#8E0E8E" d="M537.603 842.572C543.234 827.489 547.106 815.131 553.788 799.948C594.18 708.185 667.161 633.443 761.002 596.712C829.879 569.754 907.731 561.746 980.209 576.853C992.124 579.336 1012.82 584.114 1024 589.096L1024 674.069C1017.75 670.578 1009.22 666.974 1002.39 664.282C927.787 634.899 838.965 637.774 767.626 675.058C764.007 676.949 752.11 684.609 749.093 684.44C747.909 685.724 747.905 685.997 746.393 686.757C738.871 689.422 726.393 698.859 719.683 703.788C681.398 731.909 653.814 767.846 633.083 810.34C628.858 819 620.831 838.953 618.69 848.302C613.055 847.186 604.721 846.452 598.848 845.819C578.515 843.523 558.064 842.438 537.603 842.572Z"/><path fill="#F0FAFC" d="M730.433 670.357C733.315 667.332 737.16 665.62 740.056 662.879C742.354 660.705 743.304 655.436 746.687 653.971C748.762 654.534 752.628 661.272 755.329 663.691C758.255 666.313 760.686 667.913 763.635 670.326C757.019 676.982 756.634 673.367 749.093 684.44C747.909 685.724 747.905 685.997 746.393 686.757C738.181 675.476 740.081 678.429 730.433 670.357Z"/><path fill="#F0FAFC" d="M962.489 626.305C963.704 625.758 965.122 625.918 966.185 626.722C967.249 627.526 967.789 628.846 967.594 630.164C967.4 631.483 966.501 632.591 965.251 633.053C963.407 633.735 961.354 632.833 960.609 631.014C959.865 629.194 960.696 627.112 962.489 626.305Z"/><path fill="#F43487" d="M846.753 538.603C847.955 538.998 871.632 536.191 876.069 535.892C891.668 534.845 907.314 534.674 922.932 535.38C960.682 536.877 988.068 541.496 1024 551.578L1024 589.096C1012.82 584.114 992.124 579.336 980.209 576.853C907.731 561.746 829.879 569.754 761.002 596.712C667.161 633.443 594.18 708.185 553.788 799.948C547.106 815.131 543.234 827.489 537.603 842.572C523.77 842.911 513.67 843.3 499.903 844.635C504.417 830.58 507.881 818.547 513.322 804.679C534.424 751.461 565.526 702.779 604.948 661.265C613.471 652.365 622.642 644.447 631.567 635.987C632.597 632.884 635.28 630.62 638.513 630.126C645.903 624.583 652.683 618.29 660.468 612.649C689.851 591.515 721.871 574.315 755.715 561.486C763.606 558.513 771.584 555.779 779.641 553.289C784.005 551.981 805.288 546.825 807.404 545.398C810.396 549.35 813.708 552.331 818.425 554.129C823.764 556.134 829.695 555.838 834.808 553.311C841.507 550.014 844.387 545.263 846.753 538.603Z"/><path fill="#F0FAFC" d="M638.513 630.126C642.366 629.538 646.14 631.583 647.751 635.131C649.363 638.68 648.418 642.868 645.439 645.381C642.46 647.895 638.174 648.122 634.946 645.936C631.719 643.751 630.338 639.686 631.567 635.987C632.597 632.884 635.28 630.62 638.513 630.126Z"/><path fill="#F0FAFC" d="M807.404 545.398C798.86 529.096 810.067 511.558 827.851 512.9C841.578 513.936 848.078 526.086 846.753 538.603C844.387 545.263 841.507 550.014 834.808 553.311C829.695 555.838 823.764 556.134 818.425 554.129C813.708 552.331 810.396 549.35 807.404 545.398Z"/><path fill="#8E0E8E" d="M0 746.961C15.6732 740.609 28.7221 734.673 45.0842 729.561C123.508 705.057 207.661 706.304 283.745 738.578C303.7 747.26 322.866 757.652 341.029 769.638C349.715 775.47 357.036 781.169 365.359 787.156L365.302 787.622C377.522 797.214 384.07 802.89 395.027 813.707L395.135 814.12C397.683 816.804 400.604 819.667 403.325 822.175C411.263 829.494 418.479 838.213 426.364 845.483C425.356 849.546 424.162 853.958 423.433 858.048C414.719 860.308 406.075 862.828 397.513 865.605C394.527 866.557 384.454 870.016 381.786 870.387C371.94 873.852 362.206 877.63 352.6 881.713C350.795 882.464 343.156 886.097 341.991 885.584L341.663 885.09C340.41 887.426 323.518 894.983 319.914 896.791C311.755 900.953 303.752 905.413 295.921 910.162C268.709 926.593 254.811 937.952 230.464 957.588C162.81 899.794 89.0223 871.741 0 869.376L0 746.961Z"/><path fill="#FC94D7" d="M365.302 787.622C377.522 797.214 384.07 802.89 395.027 813.707L395.135 814.12C397.683 816.804 400.604 819.667 403.325 822.175C411.263 829.494 418.479 838.213 426.364 845.483C425.356 849.546 424.162 853.958 423.433 858.048C414.719 860.308 406.075 862.828 397.513 865.605C394.527 866.557 384.454 870.016 381.786 870.387C371.94 873.852 362.206 877.63 352.6 881.713C350.795 882.464 343.156 886.097 341.991 885.584L341.663 885.09C347.753 848.285 352.823 823.347 365.302 787.622Z"/><path fill="#B91D90" d="M395.135 814.12C397.683 816.804 400.604 819.667 403.325 822.175C411.263 829.494 418.479 838.213 426.364 845.483C425.356 849.546 424.162 853.958 423.433 858.048C414.719 860.308 406.075 862.828 397.513 865.605C394.527 866.557 384.454 870.016 381.786 870.387C384.145 858.178 386.87 846.043 389.957 833.998C391.496 828.063 394.065 819.87 395.135 814.12Z"/><path fill="#020937" d="M454.333 678.063C458.176 674.233 468.455 657.266 472.49 651.695C480.037 641.275 487.409 631.889 495.523 621.858C541.164 566.398 597.316 520.506 660.751 486.819C751.554 438.495 862.86 418.65 964.798 430.336C982.631 432.381 1006.75 435.471 1024 440.732L1024 477.813L1024 514.065C1009.2 509.574 992.312 506.788 977.064 504.387C878.249 489.076 777.132 506.099 688.777 552.92C673.47 561.276 658.677 570.541 644.477 580.665C558.715 641.509 496.036 729.553 466.614 830.506C464.713 836.936 462.872 843.383 461.091 849.846C450.652 851.769 432.349 856.924 423.433 858.048C424.162 853.958 425.356 849.546 426.364 845.483C418.479 838.213 411.263 829.494 403.325 822.175C400.604 819.667 397.683 816.804 395.135 814.12L395.027 813.707C384.07 802.89 377.522 797.214 365.302 787.622L365.359 787.156C373.444 762.314 381.663 738.116 393.366 714.677C399.544 702.301 405.158 690.163 412.722 678.503C413.528 672.794 416.641 667.666 421.334 664.317C427.255 660.09 434.938 659.221 441.654 662.019C448.369 664.816 453.163 670.883 454.333 678.063Z"/><path fill="#FC94D7" d="M426.364 845.483L426.5 844.921C457.093 714.74 538.787 602.347 653.171 533.071C762.364 466.54 900.14 447.834 1024 477.813L1024 514.065C1009.2 509.574 992.312 506.788 977.064 504.387C878.249 489.076 777.132 506.099 688.777 552.92C673.47 561.276 658.677 570.541 644.477 580.665C558.715 641.509 496.036 729.553 466.614 830.506C464.713 836.936 462.872 843.383 461.091 849.846C450.652 851.769 432.349 856.924 423.433 858.048C424.162 853.958 425.356 849.546 426.364 845.483Z"/><path fill="#05B3FC" d="M421.334 664.317C427.255 660.09 434.938 659.221 441.654 662.019C448.369 664.816 453.163 670.883 454.333 678.063C455.848 687.372 450.987 696.552 442.435 700.529C425.746 732.387 410.688 763.343 400.422 797.917C399.321 801.626 396.796 810.69 395.027 813.707C384.07 802.89 377.522 797.214 365.302 787.622L365.359 787.156C373.444 762.314 381.663 738.116 393.366 714.677C399.544 702.301 405.158 690.163 412.722 678.503C413.528 672.794 416.641 667.666 421.334 664.317Z"/><path fill="#F0FAFC" d="M421.334 664.317C427.255 660.09 434.938 659.221 441.654 662.019C448.369 664.816 453.163 670.883 454.333 678.063C455.848 687.372 450.987 696.552 442.435 700.529C435.44 703.782 427.226 702.947 421.028 698.353C414.831 693.759 411.643 686.142 412.722 678.503C413.528 672.794 416.641 667.666 421.334 664.317Z"/><path fill="#05B3FC" d="M421.334 664.317C423.42 659.619 438.508 637.449 441.696 632.902C484.023 572.34 537.592 520.475 599.49 480.126C725.181 399.174 877.889 371.487 1024 403.16L1024 440.732C1006.75 435.471 982.631 432.381 964.798 430.336C862.86 418.65 751.554 438.495 660.751 486.819C597.316 520.506 541.164 566.398 495.523 621.858C487.409 631.889 480.037 641.275 472.49 651.695C468.455 657.266 458.176 674.233 454.333 678.063C453.163 670.883 448.369 664.816 441.654 662.019C434.938 659.221 427.255 660.09 421.334 664.317Z"/><path fill="#5350BE" d="M1002.16 0L1024 0L1024 19.4074C1013.44 29.3559 1002.92 40.2742 992.539 50.5166L905.615 136.932L876.102 166.3C873.286 169.094 865.235 177.421 862.572 179.47C864.374 175.1 870.197 172.08 871.46 166.884C873.676 157.77 862.498 151.786 859.555 145.895C856.049 147.438 855.497 151.178 851.142 152.435C854.971 147.714 864.199 138.938 868.9 134.351C880.377 123.153 891.186 112.9 902.084 101.049C908.896 94.5397 915.413 87.7295 921.617 80.6385C925.214 78.142 945.456 57.2462 949.547 53.046C966.239 35.9071 986.434 17.7225 1002.16 0Z"/><path fill="#5B93F2" d="M851.142 152.435C855.497 151.178 856.049 147.438 859.555 145.895C862.498 151.786 873.676 157.77 871.46 166.884C870.197 172.08 864.374 175.1 862.572 179.47C857.052 186.511 844.489 197.679 837.881 204.184C822.129 219.856 806.295 235.446 790.38 250.953L746.731 294.244C739.824 301.048 732.891 308.035 725.734 314.578C722.988 316.862 720.367 318.854 716.703 318.984C710.046 319.22 702.711 313.853 702.929 306.766C703.002 304.382 703.746 300.168 705.401 298.384C711.208 292.127 717.353 286.146 723.444 280.17L753.644 250.102C785.836 217.92 818.532 183.911 851.142 152.435Z"/><path fill="#5B93F2" d="M697.175 115.447C701.993 114.134 705.457 106.251 709.378 106.012L709.908 106.65L710.55 107.398C712.408 109.659 721.547 111.994 723.93 114.695C725.149 116.077 726.262 120.297 726.831 122.178C723.242 125.469 718.925 129.299 715.801 132.965L715.797 134.092C704.91 145.837 692.104 157.563 680.713 168.95L621.221 228.607L594.063 255.738C589.398 260.403 584.689 265.364 579.717 269.661C575.287 273.49 566.892 272.342 562.876 268.251C560.337 265.633 558.939 262.115 558.99 258.468C559.021 255.624 559.625 253.602 561.425 251.43C566.815 244.922 573.307 238.831 579.304 232.86L610.467 201.866C639.295 173.164 667.75 143.458 697.175 115.447Z"/><path fill="#5350BE" d="M811.375 0L851.342 0C809.365 40.4272 768.625 82.5141 727.082 123.404C724.905 125.547 717.998 132.726 715.797 134.092L715.801 132.965C718.925 129.299 723.242 125.469 726.831 122.178C726.262 120.297 725.149 116.077 723.93 114.695C721.547 111.994 712.408 109.659 710.55 107.398L709.908 106.65L709.378 106.012C705.457 106.251 701.993 114.134 697.175 115.447C702.545 109.191 710.642 102.342 716.962 95.1313C713.805 92.5374 711.348 90.9456 707.78 89.0455C719.764 83.1147 719.525 81.896 725.231 70.0613C726.797 74.0381 728.779 77.8378 731.146 81.3967C737.722 72.3272 751.13 61.0774 759.268 52.7391C776.183 35.4087 795.062 17.7126 811.375 0Z"/><path fill="#F0FAFC" d="M725.231 70.0613C726.797 74.0381 728.779 77.8378 731.146 81.3967C735.157 85.2317 739.015 86.9327 743.864 89.4601C731.668 96.4772 731.35 95.5823 725.565 108.662C723.031 103.838 720.809 99.0344 716.962 95.1313C713.805 92.5374 711.348 90.9456 707.78 89.0455C719.764 83.1147 719.525 81.896 725.231 70.0613Z"/><path fill="#F0FAFC" d="M883.893 79.9903C895.709 75.2457 896.947 72.4529 901.925 61.2319C907.583 73.5157 908.069 74.8123 920.729 80.2503L921.617 80.6385C915.413 87.7295 908.896 94.5397 902.084 101.049L901.504 100.362C898.195 88.5028 894.794 84.9208 883.893 79.9903Z"/><path fill="#020937" d="M920.729 80.2503L921.617 80.6385C915.413 87.7295 908.896 94.5397 902.084 101.049L901.504 100.362C904.945 93.4907 906.633 86.9393 913.732 83.6076C916.026 82.531 918.074 81.7349 920.305 80.4902L920.729 80.2503Z"/><path fill="#F0FAFC" d="M792.631 123.233C803.471 122.079 813.248 129.799 814.639 140.612C816.03 151.424 808.527 161.368 797.748 162.996C790.561 164.082 783.349 161.193 778.899 155.447C774.449 149.7 773.458 141.995 776.308 135.309C779.158 128.622 785.403 124.002 792.631 123.233Z"/><path fill="#F0FAFC" d="M550.064 399.284C557.715 410.667 556.668 410.623 568.743 417.311C557.28 424.701 557.277 423.657 550.972 435.705C549.654 435.761 546.566 428.778 545.326 427.066C542.047 422.541 537.178 420.57 532.346 418.137C543.795 409.247 542.035 414.345 550.064 399.284Z"/><path fill="#F0FAFC" d="M919.292 295.268C921.165 296.656 924.066 303.089 925.854 305.237C929.327 309.407 933.954 311.095 938.683 313.275C927.657 318.277 925.657 320.226 919.96 330.523C918.9 329.377 916.588 325.893 915.737 324.488C911.786 317.965 907.446 316.296 900.773 313.218C913.833 307.011 911.899 307.774 919.292 295.268Z"/><path fill="#F0FAFC" d="M298.328 616.837C298.948 617.437 301.169 621.264 301.621 622.215C304.96 629.249 309.388 631.213 315.832 635.104C305.851 639.264 303.319 643.349 298.263 652.317C292.47 640.851 291.449 640.657 280.408 634.742C290.886 629.892 293.408 627.345 298.328 616.837Z"/><path fill="#F0FAFC" d="M111.504 611.755C112.69 613.389 113.803 615.785 115.156 617.607C119.323 623.219 123.705 625.464 129.578 628.701C119.272 634.234 117.44 635.048 111.631 645.132C105.434 634.532 103.891 633.953 93.1343 628.815C102.614 623.436 106.397 621.82 111.504 611.755Z"/><path fill="#F0FAFC" d="M606.318 31.7648C608.617 33.4663 610.121 39.2369 612.904 42.024C616.807 45.9322 619.631 46.985 624.459 49.3797C614.37 55.137 612.688 56.0489 607.136 66.6949C605.79 65.211 604.729 63.2604 603.604 61.56C599.025 54.6328 596.119 52.8888 588.895 49.4888C600.151 45.0436 601.47 42.357 606.318 31.7648Z"/><path fill="#F0FAFC" d="M428.707 515.11C433.17 514.105 437.6 516.916 438.592 521.382C439.584 525.848 436.76 530.27 432.291 531.249C427.841 532.224 423.441 529.414 422.453 524.966C421.465 520.519 424.262 516.11 428.707 515.11Z"/><path fill="#F0FAFC" d="M862.476 240.731C865.289 239.944 868.308 240.752 870.351 242.84C872.394 244.928 873.137 247.963 872.289 250.758C871.441 253.553 869.137 255.664 866.279 256.266C862.054 257.154 857.887 254.531 856.86 250.338C855.834 246.145 858.319 241.894 862.476 240.731Z"/><path fill="#F0FAFC" d="M503.989 313.266C506.208 312.575 508.572 313.784 509.312 315.987C510.051 318.19 508.895 320.58 506.709 321.367C505.251 321.893 503.623 321.588 502.455 320.571C501.286 319.554 500.759 317.984 501.077 316.468C501.396 314.952 502.51 313.727 503.989 313.266Z"/><path fill="#F0FAFC" d="M732.708 42.2897C734.19 41.7051 735.869 42.3828 736.531 43.8316C737.192 45.2804 736.603 46.9932 735.19 47.729C734.209 48.2404 733.025 48.1684 732.113 47.5419C731.2 46.9154 730.708 45.8366 730.833 44.7368C730.957 43.6371 731.679 42.6959 732.708 42.2897Z"/><path fill="#F0FAFC" d="M689.256 375.732C690.255 375.284 691.421 375.431 692.277 376.113C693.134 376.795 693.538 377.898 693.325 378.972C693.112 380.046 692.318 380.912 691.266 381.216C689.789 381.642 688.234 380.854 687.705 379.411C687.176 377.968 687.853 376.361 689.256 375.732Z"/><path fill="#F0FAFC" d="M991.153 105.315C992.609 105.093 993.995 106.012 994.356 107.44C994.718 108.867 993.936 110.335 992.55 110.833C991.526 111.2 990.383 110.955 989.6 110.2C988.817 109.445 988.53 108.311 988.859 107.275C989.189 106.238 990.078 105.478 991.153 105.315Z"/><path fill="#F0FAFC" d="M52.0443 698.285C53.4227 697.542 55.1426 698.056 55.8878 699.433C56.633 700.811 56.1218 702.531 54.7454 703.278C53.3664 704.027 51.6415 703.515 50.8949 702.134C50.1482 700.754 50.6631 699.03 52.0443 698.285Z"/><path fill="#F0FAFC" d="M633.755 323.813C635.146 323.161 636.803 323.747 637.475 325.129C638.146 326.511 637.582 328.176 636.209 328.866C635.304 329.32 634.225 329.253 633.384 328.689C632.543 328.125 632.07 327.152 632.147 326.143C632.224 325.133 632.838 324.243 633.755 323.813Z"/><path fill="#F0FAFC" d="M561.138 332.29C562.494 331.675 564.091 332.275 564.706 333.63C565.322 334.985 564.722 336.583 563.368 337.199C562.012 337.815 560.414 337.216 559.798 335.86C559.182 334.504 559.782 332.906 561.138 332.29Z"/><path fill="#F0FAFC" d="M936.68 191.298C938.023 191.065 939.328 191.873 939.716 193.18C940.105 194.486 939.454 195.876 938.202 196.415C937.251 196.824 936.149 196.651 935.37 195.969C934.591 195.287 934.273 194.217 934.552 193.22C934.832 192.223 935.66 191.475 936.68 191.298Z"/><path fill="#F0FAFC" d="M321.829 519.333C322.691 518.813 323.771 518.82 324.627 519.351C325.482 519.882 325.967 520.849 325.882 521.852C325.797 522.855 325.156 523.726 324.224 524.106C322.929 524.633 321.447 524.077 320.82 522.827C320.193 521.578 320.632 520.056 321.829 519.333Z"/><path fill="#F0FAFC" d="M197.221 572.832C198.531 572.185 200.118 572.708 200.787 574.007C201.455 575.306 200.958 576.901 199.67 577.591C198.818 578.047 197.786 578.009 196.97 577.49C196.155 576.971 195.682 576.053 195.734 575.087C195.786 574.122 196.355 573.26 197.221 572.832Z"/><path fill="#F0FAFC" d="M800.489 340.288C801.275 339.742 802.295 339.661 803.158 340.075C804.022 340.489 804.596 341.335 804.662 342.291C804.729 343.246 804.277 344.164 803.479 344.693C802.263 345.5 800.624 345.178 799.804 343.97C798.985 342.763 799.29 341.121 800.489 340.288Z"/><path fill="#F0FAFC" d="M581.292 166.756C582.136 166.3 583.159 166.335 583.971 166.846C584.782 167.357 585.255 168.266 585.209 169.224C585.162 170.182 584.604 171.04 583.747 171.471C582.448 172.123 580.867 171.611 580.196 170.323C579.525 169.034 580.013 167.446 581.292 166.756Z"/><path fill="#F0FAFC" d="M215.808 674.327C216.694 673.908 217.739 674.015 218.521 674.605C219.304 675.195 219.694 676.17 219.536 677.137C219.377 678.104 218.695 678.903 217.764 679.211C216.442 679.649 215.007 678.983 214.489 677.69C213.971 676.396 214.549 674.923 215.808 674.327Z"/><path fill="#F0FAFC" d="M733.435 184.81C734.786 184.262 736.324 184.915 736.869 186.266C737.414 187.618 736.759 189.155 735.406 189.697C734.057 190.238 732.526 189.585 731.982 188.237C731.439 186.889 732.089 185.356 733.435 184.81Z"/></svg>