<?xml version="1.0" encoding="utf-8" ?><svg xmlns="http://www.w3.org/2000/svg" xmlns:xlink="http://www.w3.org/1999/xlink" width="1024" height="1024" viewBox="0 0 1024 1024"><path fill="#43187F" d="M0 0L152.074 0L152.984 0L324.896 0L473.83 0L568.29 0L616.377 0L713.654 0L934.874 0L978.649 0L1024 0L1024 31.7758L1024 61.9807L1024 127.031L1024 157.98L1024 190.455L1024 219.87L1024 252.934L1024 282.035L1024 310.077L1024 342.364L1024 398.398L1024 428.638L1024 460.02L1024 492.281L1024 524.058L1024 555.43L1024 584.059L1024 615.202L1024 679.044L1024 710.595L1024 741.048L1024 772.961L1024 803.193L1024 833.573L1024 863.418L1024 893.41L1024 962.258L1024 994.81L1024 1024L958.9 1024L913.871 1024L714.797 1024L617.244 1024L596.169 1024L584.014 1024L568.278 1024L474.195 1024L277.802 1024L152.971 1024L152.04 1024L0 1024L0 0Z"/><path fill="#020937" d="M0 0L152.074 0L152.984 0L324.896 0C356.249 35.2859 357.345 77.6388 319.451 110.153C292.764 133.051 259.539 179.068 287.231 213.865C318.257 249.387 404.743 221.278 425.712 272.422C429.298 281.079 430.836 290.447 430.208 299.796C428.389 327.582 411.153 345.943 391.631 363.659C375.349 378.991 353.545 389.881 351.531 414.623C349.528 435.585 365.143 450.662 362.285 472.062C359.295 494.455 340.79 506.528 331.499 525.527C323.61 541.66 324.419 563.089 336.896 576.707C354.597 596.025 382.894 612.646 381.066 642.497C380.001 659.923 368.043 672.097 358.648 685.529C351.05 696.623 348.374 713.621 358.555 723.857C368.655 734.011 384.54 744.908 383.053 761.15C379.985 783.77 351.644 785.552 335.206 790.053C295.503 800.923 269.893 834.855 266.512 875.161C263.966 905.512 278.601 925.631 292.832 950.043C302.053 965.86 300.794 986.463 293.036 1002.39C290.624 1007.53 282.993 1021.64 277.802 1024L152.971 1024L152.04 1024L0 1024L0 0Z"/><path fill="#5350BE" d="M152.074 0L152.984 0C154.729 33.1586 153.554 70.3358 162.762 102.221C170.833 130.166 196.617 144.619 223.934 147.695C225.446 147.883 233.767 148.356 234.277 149.213C214.77 150.559 188.836 158.002 175.615 173.321C154.971 197.242 155.564 236.567 153.733 266.641C153.207 275.297 152.08 294.193 152.619 302.008L151.485 301.233C151.846 293.137 151.115 275.236 150.684 266.793C149.218 238.082 149.667 199.59 131.232 176.054C115.385 155.824 91.5021 152.184 67.8477 149.296C87.5904 145.182 108.729 144.313 124.342 129.188C154.222 100.244 150.578 39.3863 152.074 0Z"/><path fill="#5350BE" d="M152.188 709.996C152.214 712.792 152.005 716.251 152.862 718.811C152.543 727.47 152.839 740.16 153.608 748.97C156.444 781.454 153.712 821.879 175.876 848.175C187.828 862.042 214.882 868.97 232.24 869.611L232.204 869.882L231.638 870.26C213.046 871.264 190.049 878.34 177.263 892.84C156.339 916.568 156.602 960.022 154.559 990.231C153.956 999.15 152.945 1015.64 152.971 1024L152.04 1024C150.784 994.163 150.757 965.117 145.97 935.495C138.736 890.735 113.186 874.977 70.4676 869.965C145.8 864.758 147.505 822.247 150.569 758.603C151.367 742.41 151.907 726.206 152.188 709.996Z"/><path fill="#43187F" d="M151.485 301.233L152.619 302.008C152.652 304.461 152.775 310.064 151.905 312.204C151.351 308.31 151.459 305.173 151.485 301.233Z"/><path fill="#43187F" d="M152.188 709.996L152.177 708.627L152.632 708.734C153.046 712.813 153.185 714.709 152.862 718.811C152.005 716.251 152.214 712.792 152.188 709.996Z"/><path fill="#43187F" d="M232.24 869.611C234.243 868.957 236.017 868.347 237.895 869.214C236.565 870.515 233.383 870.629 231.638 870.26L232.204 869.882L232.24 869.611Z"/><path fill="#5350BE" d="M151.595 350.911C151.358 348.691 151.511 344.447 152.319 342.38C153.191 343.719 153.245 364.813 152.952 367.519C152.736 375.37 153.461 384.19 153.792 392.12C156.221 450.258 159.05 499.497 230.169 504.458C141.209 512.664 158.312 589.871 152.164 655.255C151.238 648.013 151.478 639.082 151.041 631.693C147.19 566.608 151.671 513.103 71.8797 505.061C75.775 504.306 80.5612 503.728 84.4901 503.139C116.223 498.703 139.917 478.922 144.967 446.433C149.725 415.82 151.724 382.082 151.595 350.911Z"/><path fill="#43187F" d="M151.595 350.911C151.358 348.691 151.511 344.447 152.319 342.38C153.191 343.719 153.245 364.813 152.952 367.519C152.391 364.357 152.478 354.703 152.201 350.592L151.595 350.911Z"/><path fill="#F0FAFC" d="M267.092 722.887C272.772 721.232 278.723 724.474 280.414 730.144C282.104 735.813 278.901 741.785 273.242 743.511C267.532 745.253 261.495 742.014 259.789 736.294C258.083 730.573 261.36 724.557 267.092 722.887Z"/><path fill="#F0FAFC" d="M51.1813 596.271C56.9764 595.108 62.6159 598.867 63.7727 604.663C64.9295 610.459 61.1648 616.095 55.3673 617.246C49.5784 618.395 43.9531 614.637 42.798 608.849C41.6429 603.061 45.3948 597.432 51.1813 596.271Z"/><path fill="#F0FAFC" d="M78.3228 226.346C83.8942 224.812 89.65 228.104 91.1519 233.684C92.6539 239.264 89.3284 245.001 83.7397 246.471C78.1963 247.929 72.5162 244.636 71.0264 239.101C69.5367 233.566 72.7966 227.867 78.3228 226.346Z"/><path fill="#F0FAFC" d="M266.869 283.197C270.475 282.258 274.308 283.337 276.895 286.02C279.481 288.704 280.419 292.573 279.349 296.143C278.278 299.713 275.366 302.428 271.73 303.245C266.237 304.48 260.768 301.082 259.442 295.611C258.115 290.139 261.42 284.615 266.869 283.197Z"/><path fill="#F0FAFC" d="M58.5608 935.717C64.0441 934.868 69.1962 938.57 70.1393 944.038C71.0825 949.506 67.4685 954.721 62.0174 955.758C58.4074 956.444 54.7078 955.13 52.3401 952.319C49.9725 949.509 49.3051 945.64 50.5945 942.199C51.8839 938.758 54.9294 936.28 58.5608 935.717Z"/><path fill="#F0FAFC" d="M239.062 962.4C244.475 962.257 249.026 966.433 249.346 971.839C249.667 977.244 245.641 981.929 240.249 982.426C236.601 982.762 233.059 981.083 231.01 978.047C228.96 975.01 228.728 971.098 230.405 967.84C232.081 964.582 235.4 962.497 239.062 962.4Z"/><path fill="#F0FAFC" d="M269.429 436.33C274.717 434.768 280.274 437.765 281.873 443.042C283.472 448.319 280.512 453.897 275.247 455.532C269.93 457.182 264.286 454.188 262.671 448.86C261.057 443.532 264.09 437.908 269.429 436.33Z"/><path fill="#43187F" d="M60.9446 831.364C69.4426 831.388 71.571 838.426 64.5173 843.478C57.4826 843.977 55.4183 836.427 60.9446 831.364Z"/><path fill="#F0FAFC" d="M54.743 61.7442C57.3613 60.8185 60.2378 62.1662 61.2023 64.7706C62.1667 67.3749 60.8618 70.2711 58.272 71.2741C56.5623 71.9362 54.6284 71.626 53.2116 70.4623C51.7947 69.2986 51.1145 67.462 51.4317 65.6561C51.749 63.8503 53.0143 62.3554 54.743 61.7442Z"/><path fill="#F0FAFC" d="M154.437 684.372C156.203 683.952 158.059 684.519 159.288 685.856C160.517 687.193 160.928 689.089 160.361 690.814C159.794 692.54 158.339 693.823 156.557 694.171C153.878 694.693 151.274 692.977 150.697 690.31C150.12 687.642 151.782 685.004 154.437 684.372Z"/><path fill="#F0FAFC" d="M51.5205 340.82C54.2383 340.573 56.646 342.566 56.9112 345.282C57.1765 347.998 55.1999 350.419 52.4857 350.703C49.7455 350.989 47.2962 348.989 47.0284 346.247C46.7606 343.505 48.7767 341.069 51.5205 340.82Z"/><path fill="#0188E5" d="M248.298 550.733C249.96 550.178 251.793 550.562 253.094 551.738C254.394 552.913 254.961 554.698 254.577 556.408C254.193 558.119 252.917 559.49 251.239 559.996C248.695 560.763 246.007 559.346 245.203 556.814C244.399 554.282 245.777 551.573 248.298 550.733Z"/><path fill="#F0FAFC" d="M68.7506 729.894C70.2954 729.147 72.1231 729.29 73.5318 730.27C74.9406 731.25 75.7115 732.913 75.5484 734.622C75.3852 736.33 74.3135 737.817 72.7448 738.513C70.3745 739.564 67.5996 738.52 66.5094 736.167C65.4193 733.815 66.4167 731.023 68.7506 729.894Z"/><path fill="#F0FAFC" d="M352.719 267.273C354.231 266.618 355.979 266.827 357.294 267.818C358.61 268.81 359.292 270.432 359.079 272.066C358.866 273.7 357.792 275.094 356.266 275.715C353.942 276.662 351.289 275.562 350.317 273.249C349.345 270.935 350.416 268.27 352.719 267.273Z"/><path fill="#F0FAFC" d="M287.651 623.741C289.879 622.846 292.415 623.882 293.378 626.082C294.342 628.281 293.384 630.848 291.215 631.879C289.751 632.574 288.025 632.418 286.711 631.471C285.396 630.524 284.701 628.936 284.896 627.328C285.092 625.719 286.147 624.345 287.651 623.741Z"/><path fill="#F0FAFC" d="M270.143 51.3647C272.32 50.8492 274.511 52.1668 275.076 54.3317C275.641 56.4966 274.373 58.7163 272.222 59.3302C270.786 59.74 269.24 59.3401 268.184 58.2853C267.127 57.2305 266.724 55.6861 267.13 54.2493C267.537 52.8126 268.69 51.7087 270.143 51.3647Z"/><path fill="#FB4995" d="M609.781 678.937L887.414 678.959L974.946 678.905C990.402 678.876 1008.81 678.359 1024 679.044L1024 710.595L1024 741.048L1024 772.961L1024 803.193L1024 833.573L1024 863.418L1024 893.41L1024 962.258L1024 994.81L1024 1024L958.9 1024L913.871 1024L714.797 1024L617.244 1024L596.169 1024L584.014 1024L568.278 1024L474.195 1024C474.268 1022.58 474.366 1021.16 474.488 1019.74C476.111 1001.62 484.204 987.434 498.011 975.848L497.554 975.508C493.08 966.014 502.736 952.533 508.806 945.818C516.059 937.793 522.412 927.231 521.517 916.08C521.211 912.259 520.132 908.5 519.799 904.495L519.745 903.788C516.814 900.479 512.886 893.88 513.219 889.414C524.74 893.771 533.596 893.055 545.714 893.055L576.338 893.023C587.122 893.021 598.411 892.867 609.153 893.062C609.122 890.729 609.116 888.396 609.135 886.062C609.442 852.046 620.841 825.233 654.745 812.569C662.131 809.789 671.413 809.943 677.07 803.675C685.944 794.886 682.569 778.928 670.473 774.875C654.196 769.421 643.061 765.582 629.821 753.298C624.247 748.186 619.7 742.057 616.425 735.239C606.779 715.57 610.523 700.54 609.781 678.937Z"/><path fill="#020937" d="M513.219 889.414C524.74 893.771 533.596 893.055 545.714 893.055L576.338 893.023C587.122 893.021 598.411 892.867 609.153 893.062L1024 893.41L1024 962.258L1024 994.81L1024 1024L958.9 1024L913.871 1024L714.797 1024L617.244 1024L596.169 1024L584.014 1024L568.278 1024L474.195 1024C474.268 1022.58 474.366 1021.16 474.488 1019.74C476.111 1001.62 484.204 987.434 498.011 975.848L497.554 975.508C493.08 966.014 502.736 952.533 508.806 945.818C516.059 937.793 522.412 927.231 521.517 916.08C521.211 912.259 520.132 908.5 519.799 904.495L519.745 903.788C516.814 900.479 512.886 893.88 513.219 889.414Z"/><path fill="#BC60C9" d="M535.874 962.43C548.108 961.475 567.806 962.112 580.618 962.039L687.953 962.176L1024 962.258L1024 994.81L1024 1024L958.9 1024L913.871 1024L714.797 1024L617.244 1024L596.169 1024L584.014 1024L568.278 1024L474.195 1024C474.268 1022.58 474.366 1021.16 474.488 1019.74C476.111 1001.62 484.204 987.434 498.011 975.848C510.034 967.554 520.788 962.297 535.874 962.43Z"/><path fill="#8E0E8E" d="M714.797 1024C704.385 1019.71 707.906 999.167 718.217 996.457C720.828 995.771 723.146 994.92 725.947 994.994C736.733 994.872 747.6 994.948 758.385 994.962L818.852 994.977L880.88 994.893C890.873 994.873 900.859 994.795 910.852 994.809C918.236 994.82 924.38 998.387 926.466 1005.8C927.648 1010.14 927.051 1014.77 924.807 1018.67C923.848 1020.34 922.203 1022.14 920.795 1023.48C918.99 1023.58 915.515 1023.67 913.871 1024L714.797 1024Z"/><path fill="#CD77D0" d="M498.011 975.848C510.034 967.554 520.788 962.297 535.874 962.43C543.032 963.099 553.351 962.603 560.761 962.742C564.506 962.812 575.052 962.889 578.043 962.518C576.372 971.813 571.032 1018.36 568.278 1024L474.195 1024C474.268 1022.58 474.366 1021.16 474.488 1019.74C476.111 1001.62 484.204 987.434 498.011 975.848Z"/><path fill="#E4A9E4" d="M578.043 962.518C585.596 961.979 599.085 962.337 606.9 962.537C608.831 977.424 611.157 992.258 613.874 1007.02C614.741 1011.63 616.065 1019.89 617.244 1024L596.169 1024L584.014 1024L568.278 1024C571.032 1018.36 576.372 971.813 578.043 962.518Z"/><path fill="#F0FAFC" d="M584.014 1024C583.439 1011.43 596.589 1010.42 596.169 1024L584.014 1024Z"/><path fill="#8E0E8E" d="M958.9 1024C949.276 1014.76 949.805 999.317 964.241 995.435C969.305 994.074 980.651 994.828 986.394 994.835L1024 994.81L1024 1024L958.9 1024Z"/><path fill="#F0FAFC" d="M822.794 913.301C827.865 911.843 833.163 914.749 834.657 919.81C836.152 924.87 833.284 930.189 828.234 931.72C823.133 933.267 817.748 930.363 816.238 925.251C814.728 920.138 817.671 914.775 822.794 913.301Z"/><defs><linearGradient id="gradient_0" gradientUnits="userSpaceOnUse" x1="1019.4788" y1="779.8844" x2="703.57501" y2="794.4671"><stop offset="0" stop-color="#AE0070"/><stop offset="1" stop-color="#E21783"/></linearGradient></defs><path fill="url(#gradient_0)" d="M770.118 746.884C758.593 744.909 746.353 746.014 735.015 745.711C723.934 745.289 713.962 747.383 707.544 736.213C700.849 724.563 708.751 711.51 721.978 710.879C731.221 710.438 740.823 710.623 750.225 710.643L805.021 710.857L910.379 710.889C921.309 710.898 933.028 710.887 944.221 710.579C963.991 710.036 968.797 733.205 951.49 740.594C947.938 742.11 934.42 741.431 929.673 741.435L872.701 741.59C865.259 741.578 845.311 741.074 839.065 742.269C836.186 742.819 833.53 744.198 831.424 746.237C822.463 754.842 826.969 769.16 838.771 772.39C843.443 773.669 855.352 772.994 860.764 772.982L925.994 772.88C936.652 772.83 947.66 772.364 958.256 773.252C964.707 773.793 971.654 781.172 971.026 787.742C969.392 804.829 955.087 803.208 942.33 803.084L911.664 802.981C904.978 802.942 898.188 802.562 891.543 803.443C875.161 805.615 872.693 831.52 890.544 833.178C896.502 833.731 902.232 833.559 908.223 833.548L936.127 833.482L1024 833.573L1024 863.418L819.863 863.137L757.059 863.047C746.191 863.031 735.168 863.391 724.318 862.891C721.46 862.759 717.478 862.583 714.853 861.396C711.139 859.715 707.995 855.752 706.662 851.976C704.524 845.923 705.483 839.954 708.219 834.313C709.881 830.887 714.776 828.152 718.343 827.29C723.921 825.943 730.569 826.498 736.293 826.49C746.768 826.474 797.883 828.024 804.477 825.444C807.845 824.127 810.566 821.296 812.007 818.006C813.791 813.933 813.505 809.513 811.811 805.456C805.288 789.842 776.416 800.314 763.283 794.84C757.568 792.458 753.373 787.97 751.12 782.232C748.319 775.1 748.572 768.702 751.718 761.766C755.541 753.338 761.978 750.051 770.118 746.884Z"/><path fill="#B91D90" d="M1024 710.595L1024 741.048C1011.03 741.239 988.316 745.209 987.571 726.51C987.426 722.292 989.045 718.206 992.039 715.231C998.601 708.782 1014.65 710.54 1024 710.595Z"/><path fill="#B91D90" d="M1024 803.193C1015.66 803.528 1005.1 805.159 998.756 799.276C995.888 796.623 994.194 792.936 994.051 789.031C993.902 784.67 995.579 780.443 998.677 777.37C1004.71 771.477 1015.82 772.88 1024 772.961L1024 803.193Z"/><path fill="#2DCFF5" d="M610.946 398.057L1024 398.398L1024 428.638L1024 460.02L1024 492.281L1024 524.058L1024 555.43L1024 584.059L1024 615.202L751.159 615.149C695.238 615.531 639.316 615.543 583.395 615.182C591.605 614.806 601.697 615.057 610.06 615.075C610.019 609.489 610.013 603.904 610.041 598.319C610.323 569.658 627.519 543.416 653.124 530.77C665.375 524.719 684.978 526.783 683.759 508.4C682.67 491.979 667.798 494.454 656.391 490.394C647.826 487.344 638.836 482.155 632.302 475.737C607.509 450.318 611.532 428.961 610.946 398.057Z"/><path fill="#05B3FC" d="M776.102 472.257C764.117 469.916 751.627 471.059 739.515 470.581C730.462 470.351 721.213 471.243 714.26 464.263C705.185 455.152 706.288 439.367 717.52 432.548C720.264 430.883 723.764 429.342 726.972 429.123C739.018 428.301 751.528 428.676 763.572 428.733C786.083 428.663 808.595 428.717 831.105 428.894L914.016 428.91C925.649 428.895 937.281 428.55 948.955 428.686C966.322 429.305 969.743 453.704 953.256 458.996C947.013 461 934.369 460.114 927.309 460.079L870.664 459.967C861.045 459.952 851.607 459.692 841.888 460.31C828.98 461.023 822.625 476.886 831.205 486.451C835.441 491.431 841.042 491.982 847.223 492.013C854.335 492.047 861.544 492.01 868.7 492L922.633 491.964C932.337 491.942 942.348 491.691 952.019 491.993C957.597 492.32 961.61 493.713 965.178 498.02C972.678 507.075 968.433 520.076 956.99 523.004C951.322 524.454 945.837 524.048 940.037 524.036L908.896 523.937C900.667 523.906 888.181 522.509 881.66 528.036C874.757 533.888 874.52 544.377 881.046 550.736C887.414 556.94 897.748 555.723 906.044 555.741C915.85 555.76 925.656 555.721 935.461 555.623L1024 555.43L1024 584.059C961.281 584.511 898.56 584.476 835.841 583.955L763.147 583.98C751.915 583.988 736.403 584.485 725.57 583.854C722.101 583.637 718.735 582.584 715.76 580.786C711.61 578.221 708.715 574.044 707.771 569.258C706.851 564.54 708.009 559.545 710.701 555.583C716.929 546.416 728.844 547.943 738.585 547.952L774.777 548.018C782.127 548.028 790.204 548.418 797.298 547.338C806.773 545.894 811.626 535.394 808.984 526.804C802.656 506.233 772.613 521.58 758.703 511.417C745.207 501.556 749.736 480.126 765.212 475.069C769.307 473.703 771.79 473.037 776.102 472.257Z"/><path fill="#05B3FC" d="M1024 428.638L1024 460.02C1015.06 460.12 1000.84 461.769 994.407 456.116C991.135 453.214 989.181 449.108 988.994 444.739C988.355 425.534 1011.54 428.691 1024 428.638Z"/><path fill="#05B3FC" d="M1024 524.058C1015.32 524.146 1003.86 525.855 997.027 519.267C988.296 510.853 992.361 497.191 1003.48 493.405C1009.06 491.505 1017.84 492.169 1024 492.281L1024 524.058Z"/><path fill="#FB4995" d="M608.192 127L1024 127.031L1024 157.98L1024 190.455L1024 219.87L1024 252.934L1024 282.035L1024 310.077L1024 342.364C984.388 341.945 944.116 342.453 904.434 342.395L584.835 342.293L584.939 341.983L610.13 342.004C611.195 328.876 609.126 317.486 612.317 304.102C618.036 280.541 635.715 261.719 658.872 254.537C670.985 250.906 683.642 254.371 683.157 233.467C682.834 219.55 663.08 219.203 652.64 215.38C636.195 209.663 624.776 198.301 616.334 183.367C605.57 164.324 608.818 147.692 608.192 127Z"/><defs><linearGradient id="gradient_1" gradientUnits="userSpaceOnUse" x1="1014.1793" y1="216.82797" x2="700.32239" y2="253.92198"><stop offset="0" stop-color="#B00070"/><stop offset="1" stop-color="#E41E85"/></linearGradient></defs><path fill="url(#gradient_1)" d="M770.769 195.185C759.4 193.786 745.825 194.797 734.294 194.552C728.991 194.439 722.518 194.994 717.385 193.758C714.366 193.003 711.586 191.496 709.303 189.379C705.44 185.862 703.879 181.264 703.833 176.092C703.754 171.325 705.651 166.737 709.074 163.418C712.103 160.513 717.09 158.332 721.188 158.168C730.523 157.797 740.584 157.989 749.932 158.018L804.849 157.985L899.92 158.012C914.367 158.016 928.774 157.981 943.673 157.915C962.23 157.832 967.806 179.757 953.029 188.611C948.37 191.402 929.935 190.546 923.661 190.527L867.711 190.415C859.244 190.411 849.635 189.489 841.297 190.765C838.723 191.159 836.6 192.002 834.619 193.722C831.453 196.471 829.383 200.491 829.29 204.714C829.203 208.645 830.825 212.411 833.531 215.234C835.947 217.754 839.053 219.278 842.491 219.796C850.217 220.962 862.768 219.954 871.171 219.963C896.574 219.992 922.015 219.594 947.412 219.936C953.359 220.017 959.103 220.478 963.394 225.178C966.1 228.142 967.405 232.174 967.243 236.159C966.983 242.556 963.505 248.529 957.544 251.038C949.609 254.377 914.942 252.851 904.422 252.657C899.271 252.562 893.291 251.892 888.251 252.975C885.335 253.601 882.674 254.878 880.51 256.947C877.747 259.588 876.074 263.148 876.13 266.997C876.19 271.079 878.057 274.937 880.964 277.761C882.872 279.615 885.475 281.229 888.144 281.62C893.558 282.412 899.365 282.055 904.832 282.045L930.991 282.016L1024 282.035L1024 310.077C1003 310.585 979.985 310.097 958.815 310.101L838.547 310.135L768.528 310.158C753.451 310.21 738.147 310.105 723.065 309.85C720.846 309.713 718.509 309.164 716.452 308.417C706.418 304.774 702.072 294.378 705.984 284.555C707.706 279.798 712.726 275.061 717.712 273.8C722.925 272.483 730.271 272.99 735.812 273.021L774.779 273.065C782.973 273.06 794.197 274.013 801.896 270.974C804.685 269.874 809.153 265.961 809.772 262.826C816.276 229.852 780.448 246.376 763.229 239.987C750.909 235.325 746.616 220.771 751.891 209.434C755.693 201.264 763.152 198.149 770.769 195.185Z"/><path fill="#B91D90" d="M1024 190.455C1011.24 190.523 989.124 193.523 988.997 174.715C988.972 170.291 990.728 166.043 993.87 162.929C1000.72 156.074 1014.35 157.898 1024 157.98L1024 190.455Z"/><path fill="#B91D90" d="M1024 252.934C1015.78 253.058 1003.26 254.477 997.448 248.634C994.292 245.597 992.06 240.745 992.352 236.226C993.574 217.325 1011.19 219.801 1024 219.87L1024 252.934Z"/><path fill="#BC60C9" d="M473.83 0L568.29 0L616.377 0L713.654 0L934.874 0L978.649 0L1024 0L1024 31.7758L1024 61.9807L685.523 61.8904L579.76 61.9023L551.147 61.9441C545.785 61.9527 538.126 62.1415 532.957 61.5622C506.502 61.6298 482.621 41.063 475.975 15.9223C474.509 10.3791 474.117 5.69985 473.83 0Z"/><path fill="#8E0E8E" d="M713.654 0L934.874 0C943.597 5.14389 948.536 13.6441 943.578 23.4633C939.039 32.4531 930.532 31.5229 921.995 31.6683C917.798 31.7398 913.535 31.6894 909.318 31.688L867.049 31.6663L774.774 31.5656C758.457 31.5388 741.929 31.6203 725.619 31.3265C722.397 31.0149 718.977 31.0247 716.242 29.0249C705.014 20.8151 706.843 9.86801 713.654 0Z"/><path fill="#CD77D0" d="M473.83 0L568.29 0C570.312 11.2818 572.225 22.5827 574.029 33.9013C575.368 42.2114 576.977 53.4744 579.192 61.3905C572.709 60.9741 562.731 61.3127 556.008 61.2655C549.671 61.2209 539.039 61.0023 532.957 61.5622C506.502 61.6298 482.621 41.063 475.975 15.9223C474.509 10.3791 474.117 5.69985 473.83 0Z"/><path fill="#E4A9E4" d="M568.29 0L616.377 0L607.197 61.5699C599.086 61.5372 587.031 61.8792 579.192 61.3905C576.977 53.4744 575.368 42.2114 574.029 33.9013C572.225 22.5827 570.312 11.2818 568.29 5.68434e-14L568.29 0Z"/><path fill="#8E0E8E" d="M978.649 0L1024 0L1024 31.7758C1011.15 31.7601 998.046 31.9071 985.207 31.4602C981.071 31.1282 975.164 29.0893 972.779 25.4096C966.357 15.5046 969.957 5.97439 978.649 0Z"/><path fill="#FB82B6" d="M472.935 773.882L472.89 756.933C472.877 734.362 476.353 715.527 493.212 698.692C516.716 675.222 544.163 678.553 574.36 678.797L609.781 678.937C610.523 700.54 606.779 715.57 616.425 735.239C619.7 742.057 624.247 748.186 629.821 753.298C643.061 765.582 654.196 769.421 670.473 774.875C682.569 778.928 685.944 794.886 677.07 803.675C671.413 809.943 662.131 809.789 654.745 812.569C620.841 825.233 609.442 852.046 609.135 886.062C609.116 888.396 609.122 890.729 609.153 893.062C598.411 892.867 587.122 893.021 576.338 893.023L545.714 893.055C533.596 893.055 524.74 893.771 513.219 889.414C507.095 886.997 501.387 883.639 496.3 879.46C481.92 867.635 475.039 853.291 473.181 834.968C472.193 816.85 472.903 792.488 472.935 773.882Z"/><path fill="#FD669C" d="M472.935 773.882L472.89 756.933C472.877 734.362 476.353 715.527 493.212 698.692C516.716 675.222 544.163 678.553 574.36 678.797C574.46 708.391 577.203 733.508 554.235 756.109C538.434 771.658 518.946 773.969 498.296 773.975C489.842 773.987 481.388 773.956 472.935 773.882Z"/><path fill="#FD669C" d="M473.748 808.71C502.693 808.688 533.964 805.121 555.694 827.566C574.443 846.932 574.475 868.742 576.338 893.023L545.714 893.055C533.596 893.055 524.74 893.771 513.219 889.414C507.095 886.997 501.387 883.639 496.3 879.46C481.92 867.635 475.039 853.291 473.181 834.968C473.373 834.67 473.975 833.8 473.973 833.481C473.909 825.243 473.775 816.956 473.748 808.71Z"/><path fill="#F0FAFC" d="M591.28 733.342C592.461 736.572 592.815 740.932 593.904 744.189C598.851 758.973 603.965 774.416 619.573 780.807C627.498 784.052 635.105 786.841 642.985 789.72C615.819 800.327 601.882 803.012 593.972 834.499C593.524 836.283 592.432 841.315 591.5 842.689L590.895 841.873C581.801 807.517 572.365 798.652 537.596 790.477C546.446 786.189 559.407 783.474 568.961 777.547C582.765 768.984 587.691 748.342 591.28 733.342Z"/><path fill="#7FD8FB" d="M573.637 398.016L610.946 398.057C611.532 428.961 607.509 450.318 632.302 475.737C638.836 482.155 647.826 487.344 656.391 490.394C667.798 494.454 682.67 491.979 683.759 508.4C684.978 526.783 665.375 524.719 653.124 530.77C627.519 543.416 610.323 569.658 610.041 598.319C610.013 603.904 610.019 609.489 610.06 615.075C601.697 615.057 591.605 614.806 583.395 615.182L574.324 615.174C573.804 607.628 574.513 599.33 573.966 591.612C572.999 577.967 568.061 564.902 559.761 554.028C547.607 537.808 532.505 528.261 511.951 525.667C502.28 524.557 489.913 528.552 481.969 521.538C479.418 519.286 475.996 512.561 476.034 509.072C476.112 504.847 477.842 500.82 480.855 497.856C487.529 491.329 500.137 492.365 509.144 492.696C525.213 493.286 543.074 484.862 554.202 473.359C576.018 450.807 573.615 426.336 573.637 398.016Z"/><path fill="#F0FAFC" d="M592.418 457.921C592.964 458.519 595.565 468.325 596.148 470.12C605.572 499.113 623.284 502.758 649.685 510.369C635.069 512.882 615.188 519.47 605.909 531.713C600.001 539.509 594.231 555.203 592.986 564.983L592.571 565.441C586.892 548.903 583.208 532.225 567.098 522.287C555.407 515.074 546.017 514.083 533.914 509.41C542.872 507.734 552.067 505.174 560.291 501.373C580.798 491.897 585.233 477.795 592.418 457.921Z"/><path fill="#FB82B6" d="M574.255 126.981L608.192 127C608.818 147.692 605.57 164.324 616.334 183.367C624.776 198.301 636.195 209.663 652.64 215.38C663.08 219.203 682.834 219.55 683.157 233.467C683.642 254.371 670.985 250.906 658.872 254.537C635.715 261.719 618.036 280.541 612.317 304.102C609.126 317.486 611.195 328.876 610.13 342.004L584.939 341.983C581.624 341.761 577.047 341.879 573.635 341.865C574.185 314.74 575.195 297.121 554.726 275.104C530.869 249.443 504.807 254.489 473.138 253.602C473.044 242.059 473.021 230.515 473.07 218.972L505.22 219.015C524.866 218.859 541.385 213.111 555.145 198.758C576.593 176.386 574.527 155.052 574.255 126.981Z"/><path fill="#F0FAFC" d="M591.002 180.791C591.909 182.977 593.046 188.654 593.71 191.224C595.657 198.697 598.973 205.744 603.49 212.008C614.214 226.993 628.922 232.557 646.398 235.489C620.893 241.299 604.063 251.444 594.903 277.272C593.921 280.041 592.367 288.573 591.284 290.074C588.212 279.186 587.817 273.05 580.924 262.699C569.478 245.51 553.883 239.603 534.591 235.475C569.147 229.042 584.297 215.322 591.002 180.791Z"/><path fill="#2DCFF5" d="M574.324 615.174C543.536 614.893 517.785 620.531 492.829 596.732C465.424 570.597 473.182 539.475 472.495 505.316C472.19 490.132 471.096 464.629 474.638 450.619C477.76 438.202 484.211 426.872 493.296 417.849C517.163 393.977 542.765 397.904 573.637 398.016C573.615 426.336 576.018 450.807 554.202 473.359C543.074 484.862 525.213 493.286 509.144 492.696C500.137 492.365 487.529 491.329 480.855 497.856C477.842 500.82 476.112 504.847 476.034 509.072C475.996 512.561 479.418 519.286 481.969 521.538C489.913 528.552 502.28 524.557 511.951 525.667C532.505 528.261 547.607 537.808 559.761 554.028C568.061 564.902 572.999 577.967 573.966 591.612C574.513 599.33 573.804 607.628 574.324 615.174Z"/><path fill="#FD669C" d="M584.835 342.293L548.589 342.382C526.674 342.344 508.026 337.496 492.298 321.334C470.144 298.568 472.747 277.118 472.673 248.63L472.596 203.545C472.659 180.625 475.131 164.171 492.323 146.699C515.996 122.641 543.247 126.861 574.255 126.981C574.527 155.052 576.593 176.386 555.145 198.758C541.385 213.111 524.866 218.859 505.22 219.015L473.07 218.972C473.021 230.515 473.044 242.059 473.138 253.602C504.807 254.489 530.869 249.443 554.726 275.104C575.195 297.121 574.185 314.74 573.635 341.865C577.047 341.879 581.624 341.761 584.939 341.983L584.835 342.293Z"/><path fill="#F0FAFC" d="M422.327 401.22C428.181 399.679 434.17 403.201 435.668 409.067C437.166 414.932 433.6 420.896 427.724 422.351C421.908 423.791 416.02 420.269 414.537 414.464C413.054 408.659 416.533 402.745 422.327 401.22Z"/><path fill="#F0FAFC" d="M362.956 836.218C368.727 834.585 374.726 837.954 376.333 843.732C377.941 849.51 374.544 855.494 368.759 857.076C363.011 858.647 357.073 855.277 355.475 849.535C353.878 843.794 357.222 837.841 362.956 836.218Z"/><path fill="#F0FAFC" d="M474.894 90.6563C480.452 89.2141 486.129 92.5349 487.596 98.0856C489.064 103.636 485.768 109.329 480.224 110.821C474.645 112.323 468.908 109.002 467.432 103.416C465.955 97.8295 469.302 92.1077 474.894 90.6563Z"/><path fill="#F0FAFC" d="M708.261 363.005C711.697 361.895 715.465 362.716 718.127 365.156C720.789 367.595 721.936 371.276 721.13 374.796C720.324 378.316 717.689 381.131 714.231 382.169C708.961 383.75 703.401 380.794 701.764 375.541C700.128 370.288 703.026 364.696 708.261 363.005Z"/><path fill="#F0FAFC" d="M430.006 971.25C432.717 970.068 435.873 971.314 437.047 974.029C438.22 976.745 436.964 979.897 434.244 981.061C431.537 982.22 428.403 980.971 427.235 978.268C426.067 975.565 427.306 972.426 430.006 971.25Z"/><path fill="#F0FAFC" d="M409.084 682.302C411.349 681.344 413.965 682.376 414.964 684.624C415.963 686.872 414.977 689.505 412.748 690.545C411.27 691.234 409.535 691.072 408.21 690.12C406.886 689.169 406.178 687.576 406.359 685.956C406.54 684.335 407.582 682.938 409.084 682.302Z"/><path fill="#F0FAFC" d="M549.011 357.893C551.392 357.409 553.729 358.897 554.298 361.259C554.867 363.622 553.462 366.01 551.121 366.662C549.532 367.105 547.827 366.644 546.677 365.461C545.526 364.278 545.113 362.562 545.599 360.985C546.086 359.408 547.394 358.222 549.011 357.893Z"/><path fill="#F0FAFC" d="M862.213 87.3635C864.465 86.7057 866.84 87.917 867.629 90.1262C868.419 92.3355 867.35 94.7773 865.191 95.6961C863.677 96.3406 861.93 96.0927 860.654 95.0523C859.379 94.0119 858.785 92.3503 859.112 90.7371C859.439 89.124 860.633 87.8249 862.213 87.3635Z"/><path fill="#F0FAFC" d="M696.861 96.1861C698.32 95.5981 699.983 95.8451 701.209 96.8316C702.434 97.8182 703.03 99.3902 702.767 100.941C702.504 102.492 701.423 103.78 699.941 104.308C697.714 105.101 695.261 103.966 694.423 101.756C693.584 99.5451 694.668 97.0698 696.861 96.1861Z"/><path fill="#F0FAFC" d="M922.533 646.277C923.95 645.631 925.606 645.811 926.851 646.746C928.095 647.682 928.729 649.222 928.503 650.763C928.277 652.303 927.227 653.597 925.766 654.135C923.621 654.925 921.235 653.877 920.365 651.763C919.495 649.648 920.453 647.225 922.533 646.277Z"/><path fill="#F0FAFC" d="M649.445 640.745C650.79 640.056 652.404 640.156 653.654 641.007C654.904 641.857 655.589 643.322 655.442 644.826C655.295 646.331 654.339 647.635 652.948 648.227C650.9 649.099 648.529 648.193 647.585 646.177C646.641 644.161 647.463 641.759 649.445 640.745Z"/><path fill="#F0FAFC" d="M422.339 176.207C423.296 175.711 424.449 175.783 425.337 176.395C426.225 177.006 426.704 178.058 426.581 179.129C426.459 180.2 425.756 181.117 424.753 181.513C423.308 182.084 421.669 181.422 421.025 180.007C420.382 178.593 420.959 176.922 422.339 176.207Z"/></svg>