<?xml version="1.0" encoding="utf-8" ?><svg xmlns="http://www.w3.org/2000/svg" xmlns:xlink="http://www.w3.org/1999/xlink" width="1024" height="1024" viewBox="0 0 1024 1024"><path fill="#B91D90" d="M0 0L1024 0L1024 389.655L1024 422.698L1024 615.51L1024 681.697L1024 1024L1011.01 1024L955.612 1024L895.61 1024L834.223 1024L778.691 1024L725.564 1024L664.274 1024L603.977 1024L556.451 1024L477.335 1024L283.235 1024L220.941 1024L148.957 1024L0 1024L0 946.441L0 900.907L0 856.26L0 755.429L0 708.964L0 666.045L0 625.037L0 579.803L0 532.411L0 507.208L0 436.429L0 212.579L0 149.367L0 0Z"/><path fill="#CFE2FB" d="M137.922 598.746C155.47 601.968 172.551 606.821 189.742 609.848L190.721 610.664C200.916 628.923 212.814 645.414 221.019 665.182C227.81 682.635 234.477 695.777 240.968 714.392C246.6 731.389 251.507 746.446 256.282 763.69C230.946 754.087 206.577 747.979 181.365 739.807L181.169 739.415C177.361 726.418 175.312 706.46 171.842 692.124C168.498 677.311 164.501 662.653 159.863 648.193C156.845 635.781 148.67 619.985 142.637 608.673C141.351 606.261 137.588 600.734 137.922 598.746Z"/><path fill="#020937" d="M0 0L1024 0L1024 389.655C1012.32 398.184 1001.63 407.743 990.349 416.233C965.349 435.055 938.942 451.93 911.361 466.712C903.65 470.788 895.745 474.677 887.946 478.591C849.907 497.682 809.194 510.967 771.268 530.352C764.652 533.734 758.1 537.331 751.572 540.881C734.987 549.86 718.603 559.208 702.435 568.918C685.939 578.768 669.35 589.373 652.241 598.084C648.964 599.752 634.963 607.398 632.261 608.234C627.775 608.566 624.492 610.841 620.988 611.936C613.089 614.405 588.123 626.454 581.937 627.11C543.075 604.126 503.162 582.968 462.329 563.703C450.519 558.036 438.588 552.627 426.542 547.481C419.327 544.383 406.023 539.068 399.506 535.366C382.102 528.551 365.093 521.184 347.516 514.69C234.133 472.798 120.904 444.401 0 436.429L0 212.579L0 149.367L0 0Z"/><path fill="#43187F" d="M0 212.579C13.2139 213.323 25.7984 213.902 38.9383 215.52C82.367 221.223 124.86 232.6 165.328 249.36C174.469 253.151 183.517 257.162 192.466 261.387C197.598 263.835 213.236 272.571 217.396 273.314C224.473 277.646 242.132 290.518 247.725 296.616C249.735 298.172 256.45 303.668 258.253 304.359C261.84 307.266 265.336 310.538 268.902 313.552C272.966 316.986 277.581 320.312 281.55 323.731C273.217 334.357 264.093 344.598 255.583 355.227C272.17 369.54 284.769 381.413 298.487 398.934C328.345 437.071 349.29 480.879 382.029 516.76C387.413 522.661 394.662 529.153 399.506 535.366C382.102 528.551 365.093 521.184 347.516 514.69C234.133 472.798 120.904 444.401 0 436.429L0 212.579Z"/><path fill="#0A5FD5" d="M217.396 273.314C224.473 277.646 242.132 290.518 247.725 296.616C249.735 298.172 256.45 303.668 258.253 304.359C261.84 307.266 265.336 310.538 268.902 313.552C272.966 316.986 277.581 320.312 281.55 323.731C273.217 334.357 264.093 344.598 255.583 355.227C253.829 356.988 251.988 359.636 250.315 361.577C226.127 389.638 202.414 418.784 177.393 446.072C158.404 426.898 134.809 411.206 116.192 392.429C123.114 382.738 132.367 372.576 140.224 363.497L168.512 330.323L199.307 293.814C204.784 287.375 211.5 279.212 217.396 273.314Z"/><path fill="#F0FAFC" d="M254.959 312.753C256.816 313.657 262.588 318.818 264.26 320.296C251.075 336.822 237.406 352.956 223.269 368.675L222.49 368.827C219.995 367.068 216.57 363.55 214.258 361.313C227.67 344.796 241.546 329.197 254.959 312.753Z"/><path fill="#F0FAFC" d="M206.522 370.011C209.464 372.37 212.318 375.036 215.121 377.576C210.053 384.165 202.503 392.145 196.877 398.514C188.869 407.68 180.945 416.919 173.105 426.229C170.839 425.541 166.434 420.657 164.532 418.725C170.143 411.071 178.304 402.053 184.592 394.762C191.573 386.67 199.167 377.645 206.522 370.011Z"/><path fill="#F0FAFC" d="M225.569 287.751C227.351 288.407 232.686 293.31 234.44 294.85C228.535 302.592 220.752 311.095 214.408 318.485C207.331 326.729 200.149 335.299 192.906 343.365C191.433 342.934 185.592 337.128 184.184 335.8C196.569 320.654 212.443 301.997 225.569 287.751Z"/><path fill="#F0FAFC" d="M176.836 344.837C179.419 347.242 183.014 350.072 185.778 352.379C172.308 368.393 158.751 384.334 145.107 400.201C143.673 400.144 138.247 394.892 136.555 393.453C148.401 377.281 163.81 360.173 176.836 344.837Z"/><path fill="#F0FAFC" d="M81.0581 264.702C86.9868 263.029 93.3568 264.685 97.72 269.034C102.083 273.382 103.761 279.747 102.109 285.681C100.456 291.615 95.7307 296.197 89.7479 297.664C80.7153 299.88 71.5736 294.447 69.2028 285.454C66.8319 276.461 72.107 267.227 81.0581 264.702Z"/><path fill="#F0FAFC" d="M44.5689 376.874C47.2968 375.756 50.4152 377.052 51.548 379.773C52.6807 382.495 51.4022 385.621 48.6867 386.768C45.9501 387.925 42.795 386.634 41.6534 383.891C40.5119 381.148 41.8198 378 44.5689 376.874Z"/><path fill="#120A5B" d="M0 149.367C60.3318 150.268 116.113 158.033 172.257 181.441C177.754 183.733 196.059 190.055 199.797 193.976C194.496 199.845 190.127 204.723 190.525 213.359C190.805 219.227 193.443 224.734 197.842 228.629C203.751 233.878 212.201 235.305 219.405 231.925C234.033 245.479 253.093 258.273 267.668 271.371C270.556 273.709 276.135 278.355 278.717 280.933C272.124 288.997 265.172 296.581 258.253 304.359C256.45 303.668 249.735 298.172 247.725 296.616C242.132 290.518 224.473 277.646 217.396 273.314C213.236 272.571 197.598 263.835 192.466 261.387C183.517 257.162 174.469 253.151 165.328 249.36C124.86 232.6 82.367 221.223 38.9383 215.52C25.7984 213.902 13.2139 213.323 0 212.579L0 149.367Z"/><path fill="#2873EE" d="M267.668 271.371C270.556 273.709 276.135 278.355 278.717 280.933C272.124 288.997 265.172 296.581 258.253 304.359C256.45 303.668 249.735 298.172 247.725 296.616C255.292 287.858 260.802 280.738 267.668 271.371Z"/><path fill="#5350BE" d="M77.198 177.529C80.4269 177.09 83.4237 179.287 83.9754 182.499C84.527 185.71 82.4352 188.782 79.2447 189.445C77.0799 189.894 74.8421 189.127 73.4088 187.444C71.9755 185.76 71.575 183.429 72.3644 181.363C73.1537 179.298 75.0072 177.828 77.198 177.529Z"/><path fill="#0A5FD5" d="M435.48 29.5449C455.415 45.6895 480.829 64.7152 498.903 82.1032C488.543 93.8231 479.997 104.737 470.143 116.569L417.37 179.363C409.192 189.106 395.872 206.281 387.425 214.953C379.374 208.44 371.13 200.767 363.31 194.605L338.069 224.945C334.563 222.108 331.096 219.224 327.667 216.295C331.626 209.45 346.711 190.767 352.423 184.507C344.431 178.121 333.546 169.883 326.244 163.121C342.946 140.133 365.28 114.75 383.585 92.5548C400.241 72.3583 418.315 49.1582 435.48 29.5449Z"/><path fill="#F0FAFC" d="M442.418 47.3136C445.138 48.8826 449.766 53.0918 452.064 55.2462C446.773 61.8281 440.119 69.0932 434.539 75.625C424.956 86.9184 415.437 98.2665 405.983 109.669L405.032 109.908C402.256 108.232 399.276 105.398 396.784 103.198C412.048 85.6728 426.015 64.57 442.418 47.3136Z"/><path fill="#F0FAFC" d="M418.945 132.719C420.061 133.209 426.748 138.642 428.163 139.766C413.595 158.979 397.495 177.358 381.793 195.669L381.365 195.754C379.27 194.708 374.545 190.621 372.484 188.933C377.582 183.599 384.12 175.112 388.984 169.2L418.945 132.719Z"/><path fill="#F0FAFC" d="M470.977 71.7603C472.116 72.2053 478.444 78.1402 479.744 79.3045C475.35 85.1955 469.016 92.3206 464.196 98.0384L433.451 134.509C430.611 132.78 427.134 129.558 424.521 127.294C439.233 109.132 455.391 89.0975 470.977 71.7603Z"/><path fill="#F0FAFC" d="M390.401 109.742C392.08 110.602 397.997 115.808 399.541 117.144C393.831 124.466 387.364 131.696 381.375 138.848L356.235 169.207C355.673 169.593 356.049 169.391 355.021 169.619C351.55 167.904 349.839 165.833 347.316 163.005C350.836 157.202 357.782 149.018 362.246 143.544C371.555 132.214 380.941 120.946 390.401 109.742Z"/><path fill="#CFE2FB" d="M224.708 166.973C229.188 160.321 233.719 154.744 242.188 152.895C247.568 151.72 254.801 153.086 259.482 156.137C265.568 160.106 265.705 166.753 271.265 171.353C280.234 178.772 289.659 186.086 298.856 193.228C308.564 200.766 317.958 208.922 327.667 216.295C331.096 219.224 334.563 222.108 338.069 224.945L358.881 242.211C362.774 245.444 369.176 250.434 372.186 254.144C371.926 257.261 371.898 259.694 371.884 262.81C365.401 270.461 359.17 278.131 353.05 286.067C352.61 286.638 351.738 287.035 351.024 287.159C339.275 276.522 326.238 266.606 313.956 256.567C291.797 238.091 269.447 219.845 246.91 201.832C234.348 190.866 227.882 183.252 224.708 166.973Z"/><path fill="#9ECAFB" d="M246.91 201.832C269.447 219.845 291.797 238.091 313.956 256.567C326.238 266.606 339.275 276.522 351.024 287.159L351.143 287.433C345.051 295.365 335.507 306.982 330.902 315.409C328.631 315.555 323.741 316.016 322.01 314.978C308.439 306.846 290.896 291.042 278.717 280.933C276.135 278.355 270.556 273.709 267.668 271.371C253.093 258.273 234.033 245.479 219.405 231.925C229.108 221.918 237.628 211.311 246.91 201.832Z"/><path fill="#9ECAFB" d="M372.186 254.144L372.465 254.656C374.259 256.764 377.01 261.345 377.888 262.27C390.026 261.534 401.591 270.696 402.162 283.11C402.622 293.115 395.18 299.568 389.288 306.633C401.038 316.624 414.825 327.84 426.023 338.208C420.647 344.597 415.208 350.932 409.705 357.212C402.314 351.202 395.019 345.076 387.823 338.835C383.281 334.925 377.476 329.607 372.692 326.211C370.633 328.79 369.194 332.117 367.002 334.655C356.346 346.992 336.325 339.499 331.911 325.112C330.784 321.442 330.925 319.118 330.902 315.409C335.507 306.982 345.051 295.365 351.143 287.433L351.024 287.159C351.738 287.035 352.61 286.638 353.05 286.067C359.17 278.131 365.401 270.461 371.884 262.81C371.898 259.694 371.926 257.261 372.186 254.144Z"/><path fill="#87B6FA" d="M351.143 287.433C360.436 292.866 361.326 290.951 370.4 293.754C372.619 294.44 384.624 305.083 387.03 307.265C384.458 310.168 373.158 323.23 372.692 326.211C370.633 328.79 369.194 332.117 367.002 334.655C356.346 346.992 336.325 339.499 331.911 325.112C330.784 321.442 330.925 319.118 330.902 315.409C335.507 306.982 345.051 295.365 351.143 287.433Z"/><path fill="#87B6FA" d="M372.465 254.656C374.259 256.764 377.01 261.345 377.888 262.27C377.01 262.72 373.718 262.906 372.516 263.026C372.391 259.977 372.35 257.707 372.465 254.656Z"/><path fill="#87B6FA" d="M185.396 137.274C197.901 146.75 209.913 157.314 222.621 166.549C223.194 166.965 224.032 166.978 224.708 166.973C227.882 183.252 234.348 190.866 246.91 201.832C237.628 211.311 229.108 221.918 219.405 231.925C212.201 235.305 203.751 233.878 197.842 228.629C193.443 224.734 190.805 219.227 190.525 213.359C190.127 204.723 194.496 199.845 199.797 193.976L206.511 186.619C194.234 176.584 181.817 166.721 169.265 157.032C174.2 150.448 180.087 143.641 185.396 137.274Z"/><path fill="#120A5B" d="M746.062 83.2281C854.547 77.3861 947.268 160.504 953.276 268.98C959.283 377.455 876.306 470.304 767.84 476.476C659.139 482.662 566.047 399.467 560.027 290.758C554.007 182.048 637.343 89.0826 746.062 83.2281Z"/><path fill="#F43487" d="M752.1 132.813C833.183 129.998 901.267 193.3 904.353 274.373C907.439 355.447 844.364 423.742 763.301 427.098C681.856 430.47 613.167 367.032 610.067 285.575C606.966 204.119 670.633 135.643 752.1 132.813Z"/><path fill="#B91D90" d="M697.803 302.201C707.634 300.775 719.559 306.581 727.316 312.224C750.062 328.773 751.502 368.217 717.104 371.448C704.842 372.609 696.285 370.011 686.217 362.324C671.202 350.858 662.693 329.563 675.638 313.146C680.561 306.902 689.724 302.813 697.803 302.201Z"/><path fill="#B91D90" d="M785.417 248.58C792.784 248.206 798.533 249.246 805.426 252.945C822.514 262.116 837.959 288.174 828.429 307.201C825.671 312.708 820.068 315.281 814.35 316.82C806.074 317.577 800.265 315.988 793.238 311.614C781.854 304.322 771.869 292.582 768.895 279.171C765.79 265.166 769.592 251.623 785.417 248.58Z"/><path fill="#B91D90" d="M699.482 211.14C703.571 210.63 708.947 211.622 712.269 214.002C723.31 221.911 718.489 238.295 712.051 247.446C705.443 256.839 696.718 262.974 685.606 265.028C650.427 267.105 667.274 215.904 699.482 211.14Z"/><path fill="#FB4995" d="M528.468 424.235C558.8 420.251 586.64 441.554 590.724 471.873C594.807 502.191 573.597 530.101 543.292 534.285C512.845 538.488 484.776 517.156 480.673 486.696C476.57 456.235 497.994 428.237 528.468 424.235Z"/><path fill="#F43487" d="M565.219 475.102C592.343 473.356 593.188 511.433 556.502 515.901C547.937 515.613 542.411 514.134 536.205 507.883C540.495 503.885 547.047 499.063 549.552 493.72C553.741 484.787 554.556 478.271 565.219 475.102Z"/><path fill="#F43487" d="M523.635 477.618C537.672 479.111 536.169 493.19 524.275 496.996C519.886 496.115 515.965 493.89 514.728 489.272C514.09 486.958 514.455 484.483 515.733 482.451C517.593 479.436 520.412 478.478 523.635 477.618Z"/><path fill="#F0FAFC" d="M952.798 38.4239C961.984 36.7927 970.754 42.9134 972.391 52.098C974.028 61.2827 967.913 70.0567 958.73 71.7001C949.537 73.345 940.753 67.2231 939.115 58.0298C937.476 48.8366 943.603 40.0566 952.798 38.4239Z"/><path fill="#F0FAFC" d="M564.502 29.809C573.492 29.5446 581.014 36.5778 581.353 45.5653C581.693 54.5528 574.722 62.1329 565.738 62.5469C556.647 62.9658 548.958 55.8948 548.614 46.8009C548.271 37.7071 555.406 30.0766 564.502 29.809Z"/><path fill="#120A5B" d="M66.129 42.6478C74.2216 41.4445 81.7929 46.9273 83.1743 54.9914C84.5557 63.0555 79.2411 70.7457 71.2094 72.3045C65.8541 73.3439 60.3557 71.4035 56.8389 67.2333C53.322 63.063 52.3376 57.3161 54.2658 52.213C56.1941 47.11 60.7332 43.4502 66.129 42.6478Z"/><path fill="#120A5B" d="M255.27 44.3994C263.447 43.5558 270.782 49.4433 271.728 57.6088C272.674 65.7744 266.878 73.1825 258.725 74.2299C253.36 74.9191 248.038 72.6693 244.795 68.3404C241.551 64.0114 240.886 58.2724 243.055 53.3167C245.223 48.361 249.89 44.9547 255.27 44.3994Z"/><path fill="#120A5B" d="M477.865 199.785C482.701 198.302 487.962 199.544 491.625 203.032C495.288 206.521 496.785 211.714 495.54 216.617C494.295 221.521 490.502 225.371 485.618 226.69C478.241 228.681 470.63 224.391 468.514 217.049C466.398 209.707 470.559 202.024 477.865 199.785Z"/><path fill="#43187F" d="M407.42 440.049C410.329 439.836 413.957 439.598 416.478 441.042C427.439 447.319 426.973 461.03 414.494 464.822C411.818 465.395 409.673 465.81 406.976 465.053C403.622 464.144 400.812 461.854 399.245 458.754C395.056 450.485 399.883 443.624 407.42 440.049Z"/><path fill="#5350BE" d="M327.167 370.08C331.618 369.53 335.677 372.677 336.254 377.124C336.831 381.57 333.71 385.649 329.267 386.254C324.784 386.865 320.661 383.71 320.079 379.223C319.497 374.737 322.677 370.634 327.167 370.08Z"/><path fill="#43187F" d="M576.74 118.184C578.677 117.734 580.706 118.368 582.04 119.842C583.374 121.316 583.804 123.398 583.163 125.28C582.523 127.162 580.912 128.549 578.955 128.902C576.033 129.431 573.222 127.532 572.621 124.623C572.02 121.715 573.848 118.858 576.74 118.184Z"/><path fill="#9ECAFB" d="M513.916 132.37C516.741 131.993 519.356 133.928 519.823 136.74C520.289 139.553 518.439 142.228 515.642 142.783C513.753 143.158 511.809 142.474 510.571 140.999C509.332 139.524 508.995 137.492 509.691 135.696C510.387 133.9 512.006 132.625 513.916 132.37Z"/><path fill="#87B6FA" d="M490.32 308.799C492.116 308.045 494.182 308.351 495.683 309.592C497.183 310.833 497.871 312.805 497.467 314.711C497.063 316.616 495.635 318.139 493.759 318.665C491.097 319.411 488.314 317.959 487.404 315.348C486.494 312.738 487.771 309.87 490.32 308.799Z"/><path fill="#87B6FA" d="M676.02 56.288C678.814 55.8666 681.43 57.7637 681.897 60.5506C682.365 63.3375 680.511 65.9843 677.732 66.4976C675.894 66.8372 674.015 66.1589 672.817 64.7231C671.619 63.2873 671.289 61.3172 671.952 59.5692C672.616 57.8212 674.171 56.5669 676.02 56.288Z"/><path fill="#43187F" d="M617.777 553.578C619.496 552.835 621.485 553.104 622.946 554.275C624.407 555.447 625.101 557.33 624.75 559.17C624.399 561.009 623.06 562.504 621.27 563.056C618.703 563.846 615.965 562.492 615.036 559.971C614.106 557.45 615.31 554.642 617.777 553.578Z"/><path fill="#F0FAFC" d="M969.202 148.232C971.734 147.718 974.227 149.268 974.884 151.767C975.541 154.265 974.134 156.842 971.677 157.639C969.959 158.197 968.074 157.758 966.778 156.5C965.483 155.241 964.99 153.369 965.498 151.635C966.007 149.902 967.432 148.592 969.202 148.232Z"/><path fill="#F0FAFC" d="M852.704 31.7698C855.283 31.421 857.669 33.1949 858.077 35.765C858.486 38.3351 856.767 40.7611 854.207 41.2288C852.498 41.5411 850.753 40.9031 849.649 39.5617C848.544 38.2202 848.253 36.3857 848.887 34.7679C849.521 33.1501 850.982 32.0028 852.704 31.7698Z"/><path fill="#F0FAFC" d="M715.162 526.188C716.783 525.675 718.553 526.083 719.786 527.252C721.019 528.422 721.52 530.168 721.094 531.813C720.668 533.458 719.382 534.742 717.736 535.166C715.285 535.796 712.779 534.361 712.081 531.929C711.384 529.497 712.75 526.951 715.162 526.188Z"/><path fill="#F0FAFC" d="M328.175 47.7068C330.584 46.9015 333.193 48.1798 334.033 50.5768C334.873 52.9738 333.633 55.6012 331.248 56.4756C329.675 57.0526 327.912 56.7376 326.636 55.6511C325.36 54.5646 324.768 52.8751 325.087 51.2297C325.406 49.5844 326.586 48.2382 328.175 47.7068Z"/><path fill="#F0FAFC" d="M84.5322 114.74C87.0263 114.478 89.2746 116.252 89.6006 118.738C89.9266 121.225 88.2114 123.518 85.7341 123.908C84.0739 124.169 82.4026 123.509 81.3689 122.184C80.3351 120.859 80.1015 119.078 80.7588 117.531C81.4161 115.984 82.8608 114.916 84.5322 114.74Z"/><path fill="#5350BE" d="M180.527 43.6587C182.402 42.8975 184.538 43.8076 185.287 45.6869C186.036 47.5661 185.113 49.6961 183.229 50.4335C181.362 51.1643 179.255 50.2507 178.512 48.3882C177.769 46.5257 178.67 44.4131 180.527 43.6587Z"/><path fill="#F43487" d="M632.261 608.234C634.963 607.398 648.964 599.752 652.241 598.084C669.35 589.373 685.939 578.768 702.435 568.918C718.603 559.208 734.987 549.86 751.572 540.881C758.1 537.331 764.652 533.734 771.268 530.352C809.194 510.967 849.907 497.682 887.946 478.591C895.745 474.677 903.65 470.788 911.361 466.712C938.942 451.93 965.349 435.055 990.349 416.233C1001.63 407.743 1012.32 398.184 1024 389.655L1024 422.698L1024 615.51L1024 681.697L1024 1024L1011.01 1024L955.612 1024C880.657 923.118 792.67 832.608 693.945 754.833C667.195 733.87 634.447 712.432 605.767 694.051C463.781 601.744 305.878 536.625 140.099 502.008C123.8 498.606 61.6156 485.762 47.7808 488.02C46.4742 488.234 45.9074 488.435 45.1116 489.481C45.9849 492.782 52.6057 494.671 55.5092 495.993C79.4119 506.881 101.469 521.206 121.932 537.626C125.971 540.868 131.728 545.015 134.934 548.824L136.364 549.686C159.381 570.307 172.519 583.7 189.742 609.848C172.551 606.821 155.47 601.968 137.922 598.746C137.72 598.656 136.72 598.624 136.452 598.605C91.3914 589.576 45.8232 583.297 4.26326e-14 579.803L0 532.411L0 507.208L0 436.429C120.904 444.401 234.133 472.798 347.516 514.69C365.093 521.184 382.102 528.551 399.506 535.366C406.023 539.068 419.327 544.383 426.542 547.481C438.588 552.627 450.519 558.036 462.329 563.703C503.162 582.968 543.075 604.126 581.937 627.11C588.123 626.454 613.089 614.405 620.988 611.936C624.492 610.841 627.775 608.566 632.261 608.234Z"/><path fill="#43187F" d="M632.261 608.234C634.963 607.398 648.964 599.752 652.241 598.084C669.35 589.373 685.939 578.768 702.435 568.918C718.603 559.208 734.987 549.86 751.572 540.881C758.1 537.331 764.652 533.734 771.268 530.352C809.194 510.967 849.907 497.682 887.946 478.591C895.745 474.677 903.65 470.788 911.361 466.712C938.942 451.93 965.349 435.055 990.349 416.233C1001.63 407.743 1012.32 398.184 1024 389.655L1024 422.698L1024 615.51L1024 681.697C1017.82 683.484 1011.71 685.233 1005.48 686.845C1002.47 687.625 994.759 688.619 992.933 690.571C991.826 689.467 990.216 689.037 988.706 689.44C987.197 689.844 986.016 691.021 985.608 692.529C981.042 691.832 970.154 696.842 965.187 698.47C929.603 710.135 895.706 724.761 863.239 743.449C851.27 750.338 839.009 756.462 826.905 763.608L807.339 775.143C804.843 776.613 798.602 779.822 797.01 781.705C781.46 767.889 765.642 754.379 749.563 741.183C696.384 699.34 640.375 661.225 581.937 627.11C588.123 626.454 613.089 614.405 620.988 611.936C624.492 610.841 627.775 608.566 632.261 608.234Z"/><path fill="#120A5B" d="M632.261 608.234C634.963 607.398 648.964 599.752 652.241 598.084C669.35 589.373 685.939 578.768 702.435 568.918C718.603 559.208 734.987 549.86 751.572 540.881C758.1 537.331 764.652 533.734 771.268 530.352C809.194 510.967 849.907 497.682 887.946 478.591C895.745 474.677 903.65 470.788 911.361 466.712C938.942 451.93 965.349 435.055 990.349 416.233C1001.63 407.743 1012.32 398.184 1024 389.655L1024 422.698C988.18 442.266 948.858 462.117 918.367 489.191C908.73 497.701 899.935 507.121 892.106 517.319C883.308 528.901 876.2 540.889 866.298 552.11C812.718 612.826 720.675 626.93 644.606 611.543C641.492 610.913 637.844 609.991 634.828 609.1C633.964 608.837 633.108 608.549 632.261 608.234Z"/><path fill="#120A5B" d="M1024 615.51L1024 681.697C1017.82 683.484 1011.71 685.233 1005.48 686.845C1002.47 687.625 994.759 688.619 992.933 690.571C991.826 689.467 990.216 689.037 988.706 689.44C987.197 689.844 986.016 691.021 985.608 692.529C981.042 691.832 970.154 696.842 965.187 698.47C929.603 710.135 895.706 724.761 863.239 743.449C851.27 750.338 839.009 756.462 826.905 763.608L807.339 775.143C804.843 776.613 798.602 779.822 797.01 781.705C781.46 767.889 765.642 754.379 749.563 741.183C750.825 739.828 758.916 735.799 761.275 734.384C774.98 726.169 788.7 717.772 802.629 709.951C808.6 706.599 817.22 701.354 823.391 698.953C828.952 698.775 830.35 696.911 833.49 692.63C839.665 688.5 853.14 681.985 860.324 678.333C881.559 667.536 904.758 656.109 926.883 647.254C934.366 644.285 941.877 641.386 949.414 638.559C953.085 637.201 962.482 634.094 965.047 632.417C969.408 635.08 974.744 635.611 979.545 633.862C984.346 632.112 988.089 628.271 989.714 623.427C1000.93 619.956 1012.39 617.31 1024 615.51Z"/><path fill="#F0FAFC" d="M965.047 632.417C957.547 627.839 954.846 618.254 958.851 610.433C962.855 602.613 972.212 599.203 980.31 602.612C988.408 606.021 992.508 615.097 989.714 623.427C988.089 628.271 984.346 632.112 979.545 633.862C974.744 635.611 969.408 635.08 965.047 632.417Z"/><path fill="#5350BE" d="M823.391 698.953C822.878 698.613 822.377 698.258 821.887 697.886C819.695 696.199 817.836 693.399 817.559 690.609C817.372 688.653 817.987 686.705 819.264 685.211C820.769 683.463 822.939 682.427 825.245 682.354C831.467 682.164 833.365 687.373 833.49 692.63C830.35 696.911 828.952 698.775 823.391 698.953Z"/><path fill="#5350BE" d="M956.976 487.594C963.661 486.432 970.025 490.898 971.206 497.579C972.388 504.26 967.942 510.637 961.265 511.84C954.559 513.047 948.147 508.577 946.96 501.867C945.774 495.158 950.263 488.76 956.976 487.594Z"/><path fill="#5350BE" d="M701.369 623.32C705.37 622.714 709.385 624.321 711.863 627.519C714.341 630.717 714.894 635.006 713.309 638.729C711.723 642.451 708.248 645.024 704.224 645.453C698.19 646.097 692.748 641.802 691.972 635.783C691.195 629.765 695.369 624.229 701.369 623.32Z"/><path fill="#5350BE" d="M891.943 558.117C893.435 557.475 895.162 557.721 896.417 558.753C897.672 559.785 898.245 561.432 897.903 563.02C897.561 564.609 896.361 565.874 894.792 566.298C892.592 566.893 890.307 565.687 889.557 563.535C888.808 561.383 889.849 559.018 891.943 558.117Z"/><path fill="#020937" d="M992.933 690.571C994.759 688.619 1002.47 687.625 1005.48 686.845C1011.71 685.233 1017.82 683.484 1024 681.697L1024 1024L1011.01 1024C995.13 1000.41 977.816 979.025 960.078 956.889C910.432 894.281 855.905 835.703 797.01 781.705C798.602 779.822 804.843 776.613 807.339 775.143L826.905 763.608C839.009 756.462 851.27 750.338 863.239 743.449C895.706 724.761 929.603 710.135 965.187 698.47C970.154 696.842 981.042 691.832 985.608 692.529C986.016 691.021 987.197 689.844 988.706 689.44C990.216 689.037 991.826 689.467 992.933 690.571Z"/><path fill="#F0FAFC" d="M985.608 692.529C986.016 691.021 987.197 689.844 988.706 689.44C990.216 689.037 991.826 689.467 992.933 690.571C994.44 692.074 994.649 694.443 993.428 696.187C992.208 697.931 989.91 698.546 987.981 697.644C986.053 696.742 985.052 694.584 985.608 692.529Z"/><path fill="#120A5B" d="M965.476 879.058C973.471 877.768 981.025 883.122 982.457 891.092C983.889 899.063 978.67 906.711 970.726 908.284C965.46 909.326 960.042 907.446 956.554 903.365C953.067 899.285 952.053 893.64 953.902 888.601C955.752 883.562 960.177 879.913 965.476 879.058Z"/><path fill="#120A5B" d="M994.981 772.815C1002.49 772.086 1009.18 777.564 1009.94 785.071C1010.71 792.578 1005.26 799.292 997.759 800.092C995.741 800.307 993.7 800.071 991.783 799.402C985.707 797.278 981.926 791.214 982.695 784.823C983.464 778.433 988.575 773.437 994.981 772.815Z"/><path fill="#5350BE" d="M888.007 800.464C891.108 799.41 894.475 801.082 895.508 804.19C896.542 807.299 894.847 810.654 891.732 811.667C888.646 812.67 885.329 810.994 884.305 807.915C883.282 804.836 884.935 801.509 888.007 800.464Z"/><path fill="#43187F" d="M968.153 744.769C972.121 745.072 974.877 747.963 971.75 751.64C966.481 752.486 964.886 748.874 968.153 744.769Z"/><path fill="#FD669C" d="M74.1874 539.48C95.4528 542.512 113.617 544.971 134.934 548.824L136.364 549.686C159.381 570.307 172.519 583.7 189.742 609.848C172.551 606.821 155.47 601.968 137.922 598.746C137.72 598.656 136.72 598.624 136.452 598.605C135.92 595.509 123.762 581.721 121.035 578.727C107.27 563.615 90.6348 551.452 74.1874 539.48Z"/><path fill="#B91D90" d="M0 507.208C24.5918 513.666 53.2598 525.129 74.1478 539.838C54.0188 535.842 21.6354 534.53 0 532.411L0 507.208Z"/><path fill="#120A5B" d="M4.26326e-14 579.803C45.8232 583.297 91.3914 589.576 136.452 598.605C136.72 598.624 137.72 598.656 137.922 598.746C137.588 600.734 141.351 606.261 142.637 608.673C148.67 619.985 156.845 635.781 159.863 648.193C164.501 662.653 168.498 677.311 171.842 692.124C175.312 706.46 177.361 726.418 181.169 739.415L181.365 739.807C182.909 749.752 184.408 758.561 186.406 768.381C187.542 773.963 190.158 784.477 190.685 789.705C196.363 827.81 225.483 870.136 248.493 899.632C266.45 922.65 282.703 942.736 306.243 960.28C336.993 983.198 368.152 992.073 405.095 1000.1C426.551 1004.76 458.035 1012.89 477.335 1024L283.235 1024L220.941 1024L148.957 1024L0 1024L0 946.441L0 900.907L0 856.26L0 755.429L0 708.964L0 666.045L0 625.037L0 579.803L4.26326e-14 579.803Z"/><path fill="#05B3FC" d="M4.26326e-14 579.803C45.8232 583.297 91.3914 589.576 136.452 598.605C136.72 598.624 137.72 598.656 137.922 598.746C137.588 600.734 141.351 606.261 142.637 608.673C148.67 619.985 156.845 635.781 159.863 648.193C164.501 662.653 168.498 677.311 171.842 692.124C175.312 706.46 177.361 726.418 181.169 739.415L181.365 739.807C182.909 749.752 184.408 758.561 186.406 768.381C187.542 773.963 190.158 784.477 190.685 789.705C187.991 789.217 184.842 788.18 182.168 787.443C164.772 782.645 147.153 778.149 129.524 774.248C86.83 765.022 43.554 758.734 1.42109e-14 755.429L0 708.964L0 666.045L0 625.037L0 579.803L4.26326e-14 579.803Z"/><path fill="#799DF5" d="M4.26326e-14 579.803C45.8232 583.297 91.3914 589.576 136.452 598.605C136.72 598.624 137.72 598.656 137.922 598.746C137.588 600.734 141.351 606.261 142.637 608.673C148.67 619.985 156.845 635.781 159.863 648.193C164.501 662.653 168.498 677.311 171.842 692.124C169.771 692.098 158.107 689.238 155.228 688.569C145.308 686.263 135.891 684.071 125.808 682.295C85.0791 675.117 41.2756 667.734 0 666.045L0 625.037L0 579.803L4.26326e-14 579.803Z"/><path fill="#F8A4E1" d="M4.26326e-14 579.803C45.8232 583.297 91.3914 589.576 136.452 598.605C136.72 598.624 137.72 598.656 137.922 598.746C137.588 600.734 141.351 606.261 142.637 608.673C148.67 619.985 156.845 635.781 159.863 648.193C153.356 647.428 144.653 645.257 138.082 643.853C127.719 641.634 117.317 639.603 106.88 637.762C71.4967 631.68 35.8223 627.433 2.84217e-14 625.037L0 579.803L4.26326e-14 579.803Z"/><path fill="#87B6FA" d="M0 666.045C41.2756 667.734 85.0791 675.117 125.808 682.295C135.891 684.071 145.308 686.263 155.228 688.569C158.107 689.238 169.771 692.098 171.842 692.124C175.312 706.46 177.361 726.418 181.169 739.415C174.927 737.967 168.658 736.43 162.455 734.828C115.17 722.621 66.546 716.327 18.1389 710.459C12.1744 709.736 5.99823 709.348 0 708.964L0 666.045Z"/><path fill="#0A5FD5" d="M-1.42109e-14 900.907C68.7854 918.407 132.988 950.534 188.231 995.098C199.733 1004.4 210.543 1013.47 220.941 1024L148.957 1024L0 1024L0 946.441L0 900.907L-1.42109e-14 900.907Z"/><path fill="#120A5B" d="M0 946.441C48.3452 960.779 111.078 990.262 148.957 1024L0 1024L0 946.441Z"/><path fill="#05B3FC" d="M0 856.26C18.9156 861.884 37.2885 866.662 55.9856 873.079C137.55 901.072 210.97 948.288 270.426 1010.78C274.608 1015.18 278.824 1019.81 283.235 1024L220.941 1024C210.543 1013.47 199.733 1004.4 188.231 995.098C132.988 950.534 68.7854 918.407 -1.42109e-14 900.907L0 856.26Z"/><path fill="#F0FAFC" d="M90.1896 806.435C99.0613 805.958 106.646 812.751 107.145 821.621C107.645 830.492 100.871 838.093 92.0023 838.616C83.1011 839.14 75.4661 832.336 74.9646 823.434C74.4631 814.531 81.2859 806.914 90.1896 806.435Z"/><path fill="#F0FAFC" d="M189.052 885.707C191.557 884.893 194.253 886.236 195.112 888.726C195.971 891.216 194.676 893.935 192.202 894.839C190.562 895.438 188.726 895.104 187.4 893.967C186.075 892.83 185.467 891.066 185.809 889.354C186.151 887.641 187.391 886.247 189.052 885.707Z"/><path fill="#05B3FC" d="M181.365 739.807C206.577 747.979 230.946 754.087 256.282 763.69L256.889 764.271C383.383 806.896 500.024 874.5 599.888 963.072C611.51 973.216 622.943 983.575 634.18 994.144C643.893 1003.16 655.555 1014.04 664.274 1024L603.977 1024L556.451 1024L477.335 1024C458.035 1012.89 426.551 1004.76 405.095 1000.1C368.152 992.073 336.993 983.198 306.243 960.28C282.703 942.736 266.45 922.65 248.493 899.632C225.483 870.136 196.363 827.81 190.685 789.705C190.158 784.477 187.542 773.963 186.406 768.381C184.408 758.561 182.909 749.752 181.365 739.807Z"/><path fill="#05B3FC" d="M181.365 739.807C206.577 747.979 230.946 754.087 256.282 763.69L256.889 764.271C261.783 781.3 266.427 798.399 270.819 815.563L270.933 816.065C283.61 863.244 304.312 907.591 348.288 933.248C373.487 947.95 398.43 952.846 426.764 957.727C483.392 967.48 517.38 982.179 556.451 1024L477.335 1024C458.035 1012.89 426.551 1004.76 405.095 1000.1C368.152 992.073 336.993 983.198 306.243 960.28C282.703 942.736 266.45 922.65 248.493 899.632C225.483 870.136 196.363 827.81 190.685 789.705C190.158 784.477 187.542 773.963 186.406 768.381C184.408 758.561 182.909 749.752 181.365 739.807Z"/><path fill="#19E5F3" d="M181.365 739.807C206.577 747.979 230.946 754.087 256.282 763.69L256.889 764.271C261.783 781.3 266.427 798.399 270.819 815.563C264.325 814.302 247.881 807.626 240.722 805.333C224.26 800.061 206.998 795.196 190.685 789.705C190.158 784.477 187.542 773.963 186.406 768.381C184.408 758.561 182.909 749.752 181.365 739.807Z"/><path fill="#120A5B" d="M270.933 816.065C286.691 821.07 312.226 832.449 327.338 839.317C407.078 875.848 481.948 922.189 550.211 977.264C561.37 986.268 572.318 995.531 583.046 1005.04C589.916 1011.21 596.958 1018.12 603.977 1024L556.451 1024C517.38 982.179 483.392 967.48 426.764 957.727C398.43 952.846 373.487 947.95 348.288 933.248C304.312 907.591 283.61 863.244 270.933 816.065Z"/><path fill="#F0FAFC" d="M371.216 891.376C373.913 891.169 376.284 893.15 376.559 895.841C376.834 898.533 374.912 900.952 372.228 901.294C370.432 901.522 368.653 900.759 367.58 899.3C366.508 897.84 366.312 895.914 367.067 894.268C367.822 892.622 369.41 891.515 371.216 891.376Z"/><path fill="#799DF5" d="M221.019 665.182C227.109 667.178 233.645 668.682 239.515 670.704C259.053 677.433 279.418 683.902 298.696 691.184C445.967 745.537 580.797 828.966 695.158 936.505C724.321 964.381 752.194 993.577 778.691 1024L725.564 1024L664.274 1024C655.555 1014.04 643.893 1003.16 634.18 994.144C622.943 983.575 611.51 973.216 599.888 963.072C500.024 874.5 383.383 806.896 256.889 764.271L256.282 763.69C251.507 746.446 246.6 731.389 240.968 714.392C234.477 695.777 227.81 682.635 221.019 665.182Z"/><path fill="#87B6FA" d="M240.968 714.392C248.401 714.416 297.938 733.544 306.823 737.006C454.194 794.204 587.616 882.279 698.128 995.314C707.355 1004.6 717.084 1014.07 725.564 1024L664.274 1024C655.555 1014.04 643.893 1003.16 634.18 994.144C622.943 983.575 611.51 973.216 599.888 963.072C500.024 874.5 383.383 806.896 256.889 764.271L256.282 763.69C251.507 746.446 246.6 731.389 240.968 714.392Z"/><path fill="#F8A4E1" d="M190.721 610.664C205.184 614.165 219.019 618.529 233.414 622.6C298.929 641.128 362.086 667.516 423.693 696.295C430.408 699.432 437.926 703.148 444.174 706.967C439.711 695.867 428.848 668.014 446.33 661.326C448.507 660.493 451.783 660.512 454.173 660.465C461.709 663.156 464.439 664.65 470.576 669.737C487.18 689.257 490.27 705.705 489.441 731.326C503.214 740.51 518.324 748.332 532.181 757.171C553.587 770.825 575.424 785.3 596.263 799.829C667.728 849.909 733.113 908.147 791.094 973.366C805.998 989.921 819.795 1007.06 834.223 1024L778.691 1024C752.194 993.577 724.321 964.381 695.158 936.505C580.797 828.966 445.967 745.537 298.696 691.184C279.418 683.902 259.053 677.433 239.515 670.704C233.645 668.682 227.109 667.178 221.019 665.182C212.814 645.414 200.916 628.923 190.721 610.664Z"/><path fill="#F43487" d="M470.576 669.737C474.262 670.108 519.836 697.112 525.3 700.415C564.974 724.404 606.371 749.536 643.845 776.81C692.6 812.636 738.581 852.092 781.396 894.841C790.671 904.205 799.5 913.981 808.453 923.645C832.502 949.431 855.672 976.022 877.924 1003.37C883.404 1010.08 889.589 1017.73 895.61 1024L834.223 1024C819.795 1007.06 805.998 989.921 791.094 973.366C733.113 908.147 667.728 849.909 596.263 799.829C575.424 785.3 553.587 770.825 532.181 757.171C518.324 748.332 503.214 740.51 489.441 731.326C490.27 705.705 487.18 689.257 470.576 669.737Z"/><path fill="#F43487" d="M136.364 549.686C142.113 549.803 164.881 555.482 172.122 557.078C260.771 577.504 346.828 607.881 428.656 647.631C432.863 649.686 451.922 658.711 454.173 660.465C451.783 660.512 448.507 660.493 446.33 661.326C428.848 668.014 439.711 695.867 444.174 706.967C437.926 703.148 430.408 699.432 423.693 696.295C362.086 667.516 298.929 641.128 233.414 622.6C219.019 618.529 205.184 614.165 190.721 610.664L189.742 609.848C172.519 583.7 159.381 570.307 136.364 549.686Z"/></svg>