<?xml version="1.0" encoding="utf-8" ?><svg xmlns="http://www.w3.org/2000/svg" xmlns:xlink="http://www.w3.org/1999/xlink" width="1024" height="512" viewBox="0 0 1024 512"><defs><linearGradient id="gradient_0" gradientUnits="userSpaceOnUse" x1="697.82306" y1="240.85161" x2="940.90125" y2="846.72272"><stop offset="0" stop-color="#4172A3"/><stop offset="1" stop-color="#3EC09E"/></linearGradient></defs><path fill="url(#gradient_0)" transform="scale(0.5 0.5)" d="M1024.83 107.434C1033.11 110.308 1045.22 116.171 1053.49 119.911L1110.81 146.108C1160.47 168.354 1217.96 192.519 1266.13 216.245C1273.65 218.474 1305.62 233.498 1313.9 237.235L1411.26 281.056C1528.49 333.141 1645.38 385.973 1761.94 439.549C1767.83 446.121 1764.46 442.271 1767.1 449.524L1768.29 449.54L1769.78 446.444C1775.97 449.059 1804.49 461.423 1807.52 465.455L1806.4 468.191L1805.64 468.513C1801.63 470.229 1797.17 472.929 1794.93 476.771C1799.81 475.599 1795.63 474.522 1801.91 475.21L1802.7 476.647C1800.35 478.919 1799.48 476.586 1795.93 479.61C1791.41 479.776 1787.72 478.097 1785.88 479.781C1786.5 481.079 1787.36 481.438 1788.58 482.221C1785.12 486.96 1779.62 485.091 1773.99 484.831C1770.75 500.419 1745 484.916 1740.93 503.539C1740.6 505.057 1725.4 509.789 1721.16 510.423C1719.51 512.891 1718.33 515.362 1715.47 516.072C1713.39 515.238 1713.28 515.166 1711.56 513.736C1711.39 516.549 1711.88 516.198 1710.38 517.723L1706.61 518.352L1705.88 516.952C1705.04 517.728 1702.82 521.359 1703.14 521.249C1697.91 523.03 1692.63 522.944 1689.35 527.681C1689.11 528.027 1682.01 527.761 1680.85 527.713L1679.52 527.657L1679.32 528.529L1681.07 530.344C1680.77 530.398 1680.48 530.451 1680.19 530.505L1678.1 530.928C1679.48 530.659 1653.35 542.945 1654.29 542.257C1654.99 543.369 1654.6 543.115 1655.65 543.671C1642.05 550.909 1614.93 561.759 1599.45 568.618L1492.48 616.573L1178.21 758.694L1090.48 798.728C1068.49 808.62 1044.95 818.585 1023.49 829.365C1021.07 827.429 1016.04 826.749 1011.96 823.531C1002.75 820.449 987.564 812.611 977.91 808.185C957.444 799.03 937.031 789.756 916.673 780.363L746.973 703.454L225.199 468.499C229.46 465.022 265.377 449.03 272.328 445.854C310.992 427.919 349.819 410.341 388.806 393.121L759.053 225.993L935.309 146.659C953.89 138.218 972.532 129.912 991.235 121.744C1001.91 116.993 1013.82 110.885 1024.83 107.434ZM1325.22 490.541C1332.02 488.289 1345.93 481.506 1352.88 478.363C1369.75 470.619 1386.75 463.157 1403.87 455.981C1401.11 454.002 1384.16 446.895 1380.26 445.187L1324.21 420.709L1324.34 422.127C1337.28 429.747 1384.22 447.277 1389.77 453.323C1390.89 464.571 1342.67 478.85 1333.25 484.154C1327.76 487.245 1331.12 487.584 1323.93 488.989L1325.22 490.541ZM937.102 330.076C936.561 326.293 942.621 328.166 947.354 321.642C930.657 328.478 905.067 339.757 889 347.748C890.56 348.962 891.087 348.941 892.98 349.34C902.11 344.54 932.902 334.707 937.102 330.076Z"/><path fill="#18506E" fill-opacity="0.98431373" transform="scale(0.5 0.5)" d="M1324.21 420.709L1380.26 445.187C1384.16 446.895 1401.11 454.002 1403.87 455.981C1386.75 463.157 1369.75 470.619 1352.88 478.363C1345.93 481.506 1332.02 488.289 1325.22 490.541L1323.93 488.989C1331.12 487.584 1327.76 487.245 1333.25 484.154C1342.67 478.85 1390.89 464.571 1389.77 453.323C1384.22 447.277 1337.28 429.747 1324.34 422.127L1324.21 420.709Z"/><path fill="#18506E" fill-opacity="0.98039216" transform="scale(0.5 0.5)" d="M889 347.748C905.067 339.757 930.657 328.478 947.354 321.642C942.621 328.166 936.561 326.293 937.102 330.076C932.902 334.707 902.11 344.54 892.98 349.34C891.087 348.941 890.56 348.962 889 347.748Z"/><path fill="#18506E" transform="scale(0.5 0.5)" d="M1026 174.367C1035.82 177.785 1044.39 182.425 1053.55 185.79C1091.38 199.687 1127.97 216.761 1164.97 232.396C1175.79 236.967 1209.39 252.965 1219.03 255.547C1216.6 251.897 1209.26 249.096 1205.08 247.169L1204.64 245.971C1212.41 238.717 1205.68 242.943 1209.54 236.478C1218.57 232.612 1223.58 245.593 1232.27 234.53C1229.67 228.121 1222.83 233.925 1216.61 230.66L1216.81 229.193L1220.86 228.428C1224.03 224.98 1218.83 223.081 1220.58 216.055L1222.28 215.12C1232.23 219.725 1228.59 210.127 1233.18 206.568C1234 207.804 1235.75 209.936 1236.68 209.607C1245.34 206.532 1256.89 216.502 1265.69 218.969L1266.13 216.245C1273.65 218.474 1305.62 233.498 1313.9 237.235L1411.26 281.056C1528.49 333.141 1645.38 385.973 1761.94 439.549C1767.83 446.121 1764.46 442.271 1767.1 449.524L1768.29 449.54L1769.78 446.444C1775.97 449.059 1804.49 461.423 1807.52 465.455L1806.4 468.191L1805.64 468.513C1801.63 470.229 1797.17 472.929 1794.93 476.771C1799.81 475.599 1795.63 474.522 1801.91 475.21L1802.7 476.647C1800.35 478.919 1799.48 476.586 1795.93 479.61C1791.41 479.776 1787.72 478.097 1785.88 479.781C1786.5 481.079 1787.36 481.438 1788.58 482.221C1785.12 486.96 1779.62 485.091 1773.99 484.831C1770.75 500.419 1745 484.916 1740.93 503.539C1740.6 505.057 1725.4 509.789 1721.16 510.423C1719.51 512.891 1718.33 515.362 1715.47 516.072C1713.39 515.238 1713.28 515.166 1711.56 513.736C1711.39 516.549 1711.88 516.198 1710.38 517.723L1706.61 518.352L1705.88 516.952C1705.04 517.728 1702.82 521.359 1703.14 521.249C1697.91 523.03 1692.63 522.944 1689.35 527.681C1689.11 528.027 1682.01 527.761 1680.85 527.713L1679.52 527.657L1679.32 528.529L1681.07 530.344C1680.77 530.398 1680.48 530.451 1680.19 530.505L1678.1 530.928C1679.48 530.659 1653.35 542.945 1654.29 542.257C1654.99 543.369 1654.6 543.115 1655.65 543.671C1642.05 550.909 1614.93 561.759 1599.45 568.618L1492.48 616.573L1178.21 758.694L1090.48 798.728C1068.49 808.62 1044.95 818.585 1023.49 829.365L1024.25 822.938C1022.88 815.663 1023.53 795.925 1023.39 787.817C1022.9 760.009 1025.83 725.804 1023.86 698.532L1023.22 698.528C1024.25 694.913 1024.08 668.938 1024.12 663.418L1023.85 653.808C1023.82 644.989 1024.51 636.41 1024.19 627.47L1067.63 607.93C1074.25 604.941 1086.22 599.92 1092.21 596.397C1100.05 593.613 1112.63 587.764 1120.73 584.262C1126.05 580.803 1161.38 565.619 1168.53 562.41L1269.69 516.282C1283.16 510.167 1313.48 497.365 1325.22 490.541C1332.02 488.289 1345.93 481.506 1352.88 478.363C1369.75 470.619 1386.75 463.157 1403.87 455.981C1401.11 454.002 1384.16 446.895 1380.26 445.187L1324.21 420.709C1319.28 417.369 1273.53 397.611 1264.19 393.468L1115.65 327.861C1103.23 321.929 1089.58 316.5 1076.87 310.675C1072.82 310.495 1030.73 290.158 1025.07 287.05C1024.85 279.288 1023.06 244.606 1025.76 240.202L1035.45 244.44L1041.64 241.83L1024.3 234.152C1024.93 226.271 1023.73 217.032 1025.02 209.185C1027.71 201.408 1025.81 183.584 1026 174.367Z"/><path fill="#186A75" transform="scale(0.5 0.5)" d="M1402.78 526.503C1402.43 526.462 1406.48 526.924 1406.48 526.924C1442.27 509.88 1478.91 494.378 1514.36 476.717C1514.39 476.702 1516.56 477.631 1517.27 477.902C1521.54 474.976 1528.04 468.442 1533.28 468.421L1534.99 472.05L1536.08 472.077L1537.15 470.553C1535.96 469.043 1535.63 468.761 1534.15 467.516C1537.25 466.018 1543.5 464.978 1545.03 463.912C1553.4 458.099 1568.75 449.906 1579.37 449.962C1579.64 447.047 1579.13 447.68 1580.77 446.036C1582.49 446.74 1582.7 447.043 1584.01 448.254L1585.71 447.358L1585.69 444.338C1587.28 443.298 1610.41 434.705 1610.81 434.96C1629.58 447.15 1665.7 456.757 1682.79 468.295L1685.2 468.395L1682.11 469.469C1676.65 471.34 1660.19 478.694 1654.33 481.444C1611.53 501.53 1560.81 523.898 1518.47 543.402L1141.21 720.198C1127.6 726.474 1029.1 769.185 1025.99 773.499C1024.04 783.659 1027.21 816.31 1024.25 822.938C1022.88 815.663 1023.53 795.925 1023.39 787.817C1022.9 760.009 1025.83 725.804 1023.86 698.532L1023.22 698.528C1024.25 694.913 1024.08 668.938 1024.12 663.418L1023.85 653.808C1023.82 644.989 1024.51 636.41 1024.19 627.47L1067.63 607.93C1074.25 604.941 1086.22 599.92 1092.21 596.397C1100.05 593.613 1112.63 587.764 1120.73 584.262C1126.05 580.803 1161.38 565.619 1168.53 562.41L1269.69 516.282C1283.16 510.167 1313.48 497.365 1325.22 490.541C1332.02 488.289 1345.93 481.506 1352.88 478.363C1369.75 470.619 1386.75 463.157 1403.87 455.981L1404.55 455.836L1478.21 491.285L1402.78 526.503Z"/><defs><linearGradient id="gradient_1" gradientUnits="userSpaceOnUse" x1="1423.1924" y1="642.67328" x2="1068.9061" y2="528.66602"><stop offset="0" stop-color="#54C9D4"/><stop offset="1" stop-color="#96FEFD"/></linearGradient></defs><path fill="url(#gradient_1)" transform="scale(0.5 0.5)" d="M1403.87 455.981L1404.55 455.836L1478.21 491.285L1402.78 526.503C1370.85 539.253 1333.26 557.703 1301.73 572.119L1107.15 660.983C1092.66 667.533 1077.84 673.849 1063.5 680.687C1056.96 683.806 1028.83 697.442 1023.86 698.532L1023.22 698.528C1024.25 694.913 1024.08 668.938 1024.12 663.418L1023.85 653.808C1023.82 644.989 1024.51 636.41 1024.19 627.47L1067.63 607.93C1074.25 604.941 1086.22 599.92 1092.21 596.397C1100.05 593.613 1112.63 587.764 1120.73 584.262C1126.05 580.803 1161.38 565.619 1168.53 562.41L1269.69 516.282C1283.16 510.167 1313.48 497.365 1325.22 490.541C1332.02 488.289 1345.93 481.506 1352.88 478.363C1369.75 470.619 1386.75 463.157 1403.87 455.981Z"/><path fill="#7CEEFB" transform="scale(0.5 0.5)" d="M1092.21 596.397C1100.05 593.613 1112.63 587.764 1120.73 584.262C1118.49 591.336 1106.13 591.016 1105.92 598.347L1109.19 599.066C1105.61 602.243 1101.11 600.24 1099.17 602.549C1093.43 609.401 1094.65 614.809 1085.68 619.53C1083.76 619.061 1083.61 618.702 1082.29 617.271C1073.15 620.019 1078.05 625.482 1070.55 622.26L1068.04 623.467L1068.1 625.036L1073.02 628.8L1072.95 630.444L1070.86 631.514C1067.24 628.998 1065.49 626.864 1061.59 626.599C1059.21 629.585 1058.01 633.203 1056.61 636.762L1058.81 637.692C1052.34 645.048 1052.08 630.486 1043.63 646.442L1042.71 646.095L1041.65 643.297L1039.94 643.354C1035.58 649.156 1042.45 657.053 1030.9 660.287C1026.04 658.608 1028.85 658.126 1025.49 656.073L1025.79 655.237L1025.3 656.285L1026.42 656.671C1023.78 658.756 1025.02 659.365 1024.12 663.418L1023.85 653.808C1023.82 644.989 1024.51 636.41 1024.19 627.47L1067.63 607.93C1074.25 604.941 1086.22 599.92 1092.21 596.397Z"/><path fill="#54B6D4" transform="scale(0.5 0.5)" d="M1026 174.367C1035.82 177.785 1044.39 182.425 1053.55 185.79C1091.38 199.687 1127.97 216.761 1164.97 232.396C1175.79 236.967 1209.39 252.965 1219.03 255.547C1284.04 284.148 1348.89 313.116 1413.57 342.447C1451.15 359.772 1492.43 380.087 1530.17 396.273C1525.5 397.891 1462.22 427.076 1460.69 428.437L1458.6 428.837L1453.47 432.294L1452.59 431.944C1445.69 435.94 1407.26 453.184 1404.55 455.836L1403.87 455.981C1401.11 454.002 1384.16 446.895 1380.26 445.187L1324.21 420.709C1319.28 417.369 1273.53 397.611 1264.19 393.468L1115.65 327.861C1103.23 321.929 1089.58 316.5 1076.87 310.675C1072.82 310.495 1030.73 290.158 1025.07 287.05C1024.85 279.288 1023.06 244.606 1025.76 240.202L1035.45 244.44L1041.64 241.83L1024.3 234.152C1024.93 226.271 1023.73 217.032 1025.02 209.185C1027.71 201.408 1025.81 183.584 1026 174.367Z"/><defs><linearGradient id="gradient_2" gradientUnits="userSpaceOnUse" x1="1219.6765" y1="245.03897" x2="1306.0796" y2="487.84515"><stop offset="0" stop-color="#3085B1"/><stop offset="1" stop-color="#5AC5C9"/></linearGradient></defs><path fill="url(#gradient_2)" transform="scale(0.5 0.5)" d="M1025.07 287.05C1024.85 279.288 1023.06 244.606 1025.76 240.202L1035.45 244.44C1056.38 254.236 1078.07 262.906 1098.69 272.701L1116.09 280.237C1127.99 285.596 1139.93 290.831 1151.94 295.941C1163.4 301.255 1181.33 310.118 1192.67 314.224C1236.33 334.916 1281.76 353.362 1325.57 373.878C1335.7 378.622 1348.64 384.775 1359.03 388.666L1374.12 395.564C1398.91 407.005 1428 421.222 1452.59 431.944C1445.69 435.94 1407.26 453.184 1404.55 455.836L1403.87 455.981C1401.11 454.002 1384.16 446.895 1380.26 445.187L1324.21 420.709C1319.28 417.369 1273.53 397.611 1264.19 393.468L1115.65 327.861C1103.23 321.929 1089.58 316.5 1076.87 310.675C1072.82 310.495 1030.73 290.158 1025.07 287.05Z"/><path fill="#18506E" transform="scale(0.5 0.5)" d="M1025.07 287.05C1024.85 279.288 1023.06 244.606 1025.76 240.202L1035.45 244.44C1056.38 254.236 1078.07 262.906 1098.69 272.701C1102.11 278.772 1113.29 279.117 1116.01 282.513C1113.95 286.225 1108.78 287.354 1104.87 287.596C1100.88 292.121 1103.06 294.67 1099.3 295.56L1096.6 293.515C1091.49 297.989 1093.06 312.109 1076.87 310.675C1072.82 310.495 1030.73 290.158 1025.07 287.05Z"/><path fill="#7CEEFB" transform="scale(0.5 0.5)" d="M1193.05 308.428C1209.33 315.801 1356.99 380.954 1358.14 382.289L1357.35 384.407L1359.95 385.946L1359.03 388.666C1348.64 384.775 1335.7 378.622 1325.57 373.878C1281.76 353.362 1236.33 334.916 1192.67 314.224C1192.37 312.017 1192.72 310.592 1193.05 308.428Z"/><path fill="#6BE9ED" transform="scale(0.5 0.5)" d="M1358.14 382.289C1366.34 385.443 1373.01 388.723 1380.95 392.258C1402.41 402.291 1439.56 417.719 1458.6 428.837L1453.47 432.294L1452.59 431.944C1428 421.222 1398.91 407.005 1374.12 395.564L1359.03 388.666L1359.95 385.946L1357.35 384.407L1358.14 382.289Z"/><path fill="#4CCFF9" transform="scale(0.5 0.5)" d="M1041.64 241.83L1092.17 263.932C1095.98 265.604 1112 272.305 1115.03 274.172L1113.37 276.176L1116.09 280.237L1098.69 272.701C1078.07 262.906 1056.38 254.236 1035.45 244.44L1041.64 241.83Z"/><path fill="#4CCFF9" transform="scale(0.5 0.5)" d="M1157.2 293.017C1160.91 294.546 1191.45 306.916 1193.05 308.428C1192.72 310.592 1192.37 312.017 1192.67 314.224C1181.33 310.118 1163.4 301.255 1151.94 295.941L1157.2 293.017Z"/><path fill="#4CCFF9" transform="scale(0.5 0.5)" d="M1115.03 274.172C1122.91 277.489 1151.11 289.29 1157.2 293.017L1151.94 295.941C1139.93 290.831 1127.99 285.596 1116.09 280.237L1113.37 276.176L1115.03 274.172Z"/><path fill="#6BE9ED" transform="scale(0.5 0.5)" d="M1460.69 428.437C1462.22 427.076 1525.5 397.891 1530.17 396.273C1554.98 407.538 1583.53 419.761 1607.54 432.031C1592.55 439.153 1577.42 445.98 1562.15 452.507C1556.87 454.823 1539.59 462.239 1535.48 464.918L1529.02 467.927C1512.13 475.805 1495.19 483.591 1478.21 491.285L1404.55 455.836C1407.26 453.184 1445.69 435.94 1452.59 431.944L1453.47 432.294L1458.6 428.837L1460.69 428.437Z"/><path fill="#6BE9ED" transform="scale(0.5 0.5)" d="M1460.69 428.437C1480.47 441.197 1515.69 453.763 1535.48 464.918L1529.02 467.927C1512.13 475.805 1495.19 483.591 1478.21 491.285L1404.55 455.836C1407.26 453.184 1445.69 435.94 1452.59 431.944L1453.47 432.294L1458.6 428.837L1460.69 428.437Z"/><path fill="#7CEEFB" transform="scale(0.5 0.5)" d="M1460.69 428.437C1480.47 441.197 1515.69 453.763 1535.48 464.918L1529.02 467.927C1512.59 459.956 1496.06 452.197 1479.42 444.652C1472.46 441.435 1459.46 435.925 1453.47 432.294L1458.6 428.837L1460.69 428.437Z"/><defs><linearGradient id="gradient_3" gradientUnits="userSpaceOnUse" x1="1025.9906" y1="320.50354" x2="1021.0439" y2="589.62225"><stop offset="0" stop-color="#1A3F8A"/><stop offset="1" stop-color="#3FCDAA"/></linearGradient></defs><path fill="url(#gradient_3)" transform="scale(0.5 0.5)" d="M1025.07 287.05C1030.73 290.158 1072.82 310.495 1076.87 310.675C1089.58 316.5 1103.23 321.929 1115.65 327.861L1264.19 393.468C1273.53 397.611 1319.28 417.369 1324.21 420.709L1324.34 422.127C1337.28 429.747 1384.22 447.277 1389.77 453.323C1390.89 464.571 1342.67 478.85 1333.25 484.154C1327.76 487.245 1331.12 487.584 1323.93 488.989L1325.22 490.541C1313.48 497.365 1283.16 510.167 1269.69 516.282L1168.53 562.41C1161.38 565.619 1126.05 580.803 1120.73 584.262C1112.63 587.764 1100.05 593.613 1092.21 596.397C1086.22 599.92 1074.25 604.941 1067.63 607.93L1024.19 627.47C1002.47 617.207 977.162 605.416 955.092 596.32C953.323 595.182 948.346 592.806 946.247 591.73C931.264 585.737 914.875 577.77 899.631 571.341C897.201 569.55 860.904 553.683 852.016 549.71C784.077 519.336 714.53 488.483 646.738 457.447C646.044 456.438 645.473 455.608 645.025 454.958C662.554 448.134 682.444 438.768 699.87 431.135C733.413 416.631 766.875 401.939 800.254 387.06C828.522 374.339 860.592 359.162 889 347.748C890.56 348.962 891.087 348.941 892.98 349.34C902.11 344.54 932.902 334.707 937.102 330.076C936.561 326.293 942.621 328.166 947.354 321.642C949.47 320.271 955.524 317.613 958.07 316.418C961.289 316.353 1018.24 290.082 1025.07 287.05Z"/><path fill="#45E1B8" transform="scale(0.5 0.5)" d="M946.247 591.73C943.686 583.893 933.914 585.71 936.156 580.16C941.584 575.919 944.535 575.475 950.907 574.815C960.004 573.871 970.618 566.608 979.465 564.924C1008.27 559.441 1035.48 559.668 1061.72 574.397C1063.95 574.139 1066.18 573.88 1068.41 573.622C1076.88 578.679 1087.35 586.104 1095.51 591.128L1095.5 592.448L1091.96 594.996L1092.21 596.397C1086.22 599.92 1074.25 604.941 1067.63 607.93L1024.19 627.47C1002.47 617.207 977.162 605.416 955.092 596.32C953.323 595.182 948.346 592.806 946.247 591.73Z"/><path fill="#144395" transform="scale(0.5 0.5)" d="M1025.07 287.05C1030.73 290.158 1072.82 310.495 1076.87 310.675C1089.58 316.5 1103.23 321.929 1115.65 327.861C1106.36 334.449 1093.12 326.337 1086.13 327.55C1085.04 331.108 1085.78 330.686 1083.26 332.412L1079.93 332.33C1077.69 329.349 1076.51 325.526 1073.43 325.266C1065.29 324.582 1056.88 322.941 1048.81 322.236C1037.97 321.289 1017.32 327.131 1008.36 322.59C1007.91 322.828 1002.05 326.006 1002.01 326.008C997.291 326.312 982.165 321.314 978.569 323.664C968.847 330.02 953.697 328.805 942.278 331.108C942.174 331.129 938.33 330.147 937.102 330.076C936.561 326.293 942.621 328.166 947.354 321.642C949.47 320.271 955.524 317.613 958.07 316.418C961.289 316.353 1018.24 290.082 1025.07 287.05Z"/><path fill="#34ACA8" transform="scale(0.5 0.5)" d="M590.899 432.943L593.297 432.047C598.267 434.527 629.636 450.174 632.781 450.473C636.471 450.401 641.396 452.36 645.361 453.292L645.025 454.958C645.473 455.608 646.044 456.438 646.738 457.447C714.53 488.483 784.077 519.336 852.016 549.71C860.904 553.683 897.201 569.55 899.631 571.341C914.875 577.77 931.264 585.737 946.247 591.73C948.346 592.806 953.323 595.182 955.092 596.32C977.162 605.416 1002.47 617.207 1024.19 627.47C1024.51 636.41 1023.82 644.989 1023.85 653.808L1024.12 663.418C1024.08 668.938 1024.25 694.913 1023.22 698.528L1023.86 698.532C1025.83 725.804 1022.9 760.009 1023.39 787.817C1023.53 795.925 1022.88 815.663 1024.25 822.938L1023.49 829.365C1021.07 827.429 1016.04 826.749 1011.96 823.531C1010.22 817.268 1007.02 789.342 1007.83 781.564C1007.99 780.067 1015.53 774.574 1016.32 770.518C1007.38 765.07 981.465 753.851 970.715 748.499C927.485 726.976 880.766 708.135 837.834 686.361C773.663 657.73 709.805 628.404 646.271 598.389C634.685 592.95 623.23 586.36 611.933 581.191C529.677 543.559 446.24 507.609 364.199 469.669L364.234 468.539C374.942 462.6 424.615 439.129 434.75 436.647L435.456 436.479C437.465 435.992 439.772 435.657 441.757 436.455C476.47 450.423 509.905 467.474 543.961 482.934C550.17 485.753 565.341 493.498 571.153 493.549C569.486 492.504 566.891 491.305 565.07 490.392C548.711 483.276 529.629 474.909 513.943 466.866C540.174 456.406 564.901 443.907 590.899 432.943Z"/><defs><linearGradient id="gradient_4" gradientUnits="userSpaceOnUse" x1="567.01294" y1="546.2323" x2="981.19702" y2="575.5993"><stop offset="0" stop-color="#53C1D1"/><stop offset="1" stop-color="#AEFFFF"/></linearGradient></defs><path fill="url(#gradient_4)" transform="scale(0.5 0.5)" d="M590.899 432.943L593.297 432.047C598.267 434.527 629.636 450.174 632.781 450.473C636.471 450.401 641.396 452.36 645.361 453.292L645.025 454.958C645.473 455.608 646.044 456.438 646.738 457.447C714.53 488.483 784.077 519.336 852.016 549.71C860.904 553.683 897.201 569.55 899.631 571.341C914.875 577.77 931.264 585.737 946.247 591.73C948.346 592.806 953.323 595.182 955.092 596.32C977.162 605.416 1002.47 617.207 1024.19 627.47C1024.51 636.41 1023.82 644.989 1023.85 653.808L1024.12 663.418C1024.08 668.938 1024.25 694.913 1023.22 698.528C1018.63 697.209 1002.13 689.373 996.909 686.969C980.212 679.179 963.438 671.553 946.59 664.094C933.678 657.636 868.75 626.165 859.072 624.519C852.95 620.009 572.006 493.649 571.153 493.549C569.486 492.504 566.891 491.305 565.07 490.392C548.711 483.276 529.629 474.909 513.943 466.866C540.174 456.406 564.901 443.907 590.899 432.943Z"/><path fill="#C6F7F7" transform="scale(0.5 0.5)" d="M899.631 571.341C914.875 577.77 931.264 585.737 946.247 591.73C948.346 592.806 953.323 595.182 955.092 596.32C977.162 605.416 1002.47 617.207 1024.19 627.47C1024.51 636.41 1023.82 644.989 1023.85 653.808L1024.12 663.418C1024.08 668.938 1024.25 694.913 1023.22 698.528C1018.63 697.209 1002.13 689.373 996.909 686.969C980.212 679.179 963.438 671.553 946.59 664.094C957.937 657.58 961.675 675.61 975.325 664.182L975.179 662.62C965.827 659.543 932.275 629.844 927.232 618.871C924.206 613.673 923.183 602.121 919.65 597.578C914.423 590.855 907.918 585.541 904.355 577.227C904.303 577.107 899.71 573.744 898.649 572.613L899.631 571.341Z"/><path fill="#DDF7F8" transform="scale(0.5 0.5)" d="M955.092 596.32C977.162 605.416 1002.47 617.207 1024.19 627.47C1024.51 636.41 1023.82 644.989 1023.85 653.808C1023.19 659.069 1022.81 664.06 1022.33 669.324C1020.3 665.88 1022.63 655.955 1021.08 652.247C1020.09 650.97 1022.23 642.486 1021.72 641.371C1019.51 636.513 1012.75 632.325 1016.5 627.003C1014.64 624.538 1008.39 622.772 1005.06 621.554L1002.02 623.744C998.767 623.236 999.774 623.856 997.948 621.682L998.117 620.347C1000.26 620.845 1000.71 621.085 1002.84 620.742L1001.87 619.601C990.888 617.878 983.066 609.856 972.334 605.339C966.3 602.8 960.232 601.266 954.652 598.957L955.092 596.32Z"/><path fill="#6BE9ED" transform="scale(0.5 0.5)" d="M590.899 432.943L593.297 432.047C598.267 434.527 629.636 450.174 632.781 450.473C636.739 453.145 638.45 453.874 642.886 455.757C624.841 464.645 583.645 483.339 565.07 490.392C548.711 483.276 529.629 474.909 513.943 466.866C540.174 456.406 564.901 443.907 590.899 432.943Z"/><path fill="#45E1B8" transform="scale(0.5 0.5)" d="M859.072 624.519C868.75 626.165 933.678 657.636 946.59 664.094C963.438 671.553 980.212 679.179 996.909 686.969C1002.13 689.373 1018.63 697.209 1023.22 698.528L1023.86 698.532C1025.83 725.804 1022.9 760.009 1023.39 787.817C1023.53 795.925 1022.88 815.663 1024.25 822.938L1023.49 829.365C1021.07 827.429 1016.04 826.749 1011.96 823.531C1010.22 817.268 1007.02 789.342 1007.83 781.564C1007.99 780.067 1015.53 774.574 1016.32 770.518C1007.38 765.07 981.465 753.851 970.715 748.499C927.485 726.976 880.766 708.135 837.834 686.361L838.169 686.111C839.47 685.926 1009.82 762.892 1019.99 769.553L1021.23 769.136C1022.49 765.991 1021.99 707.682 1022 699.971C1013.67 697.664 1000.48 690.576 992.026 687.121C966.276 676.601 941.908 663.041 916.372 652.544C909.842 649.859 904.576 645.914 897.235 643.213L895.529 645.475C892.407 642.308 883.952 635.664 879.849 635.113C871.349 633.973 866.638 630.502 859.154 626.22L859.072 624.519Z"/><path fill="#54B6D4" transform="scale(0.5 0.5)" d="M574.761 370.572C578.072 367.357 643.477 339.559 653.416 335.127L831.172 255.784L946.529 205.145C972.806 193.646 998.559 182.997 1024.51 170.675C1025.21 181.931 1024.9 197.594 1025.02 209.185C1023.73 217.032 1024.93 226.271 1024.3 234.152L1041.64 241.83L1035.45 244.44L1025.76 240.202C1023.06 244.606 1024.85 279.288 1025.07 287.05C1018.24 290.082 961.289 316.353 958.07 316.418C955.524 317.613 949.47 320.271 947.354 321.642C930.657 328.478 905.067 339.757 889 347.748C860.592 359.162 828.522 374.339 800.254 387.06C766.875 401.939 733.413 416.631 699.87 431.135C682.444 438.768 662.554 448.134 645.025 454.958L645.361 453.292C641.396 452.36 636.471 450.401 632.781 450.473C629.636 450.174 598.267 434.527 593.297 432.047L590.899 432.943L588.307 430.097L586.141 428.847C583.087 428.064 577.402 424.634 574.218 422.997C561.748 416.584 548.677 410.954 536.11 404.801C531.757 402.669 523.135 401.315 520.976 397.851C530.844 390.657 567.319 377.937 574.859 372.152L574.761 370.572Z"/><path fill="#54B6D4" transform="scale(0.5 0.5)" d="M959.048 268.36C969.814 265.51 1020.19 239.033 1025.76 240.202C1023.06 244.606 1024.85 279.288 1025.07 287.05C1018.24 290.082 961.289 316.353 958.07 316.418C955.524 317.613 949.47 320.271 947.354 321.642C930.657 328.478 905.067 339.757 889 347.748C860.592 359.162 828.522 374.339 800.254 387.06C766.875 401.939 733.413 416.631 699.87 431.135C682.444 438.768 662.554 448.134 645.025 454.958L645.361 453.292C641.396 452.36 636.471 450.401 632.781 450.473C629.636 450.174 598.267 434.527 593.297 432.047C701.916 382.497 810.848 333.636 920.087 285.47L925.399 283.488C931.768 280.244 940.3 276.724 946.964 273.755L959.048 268.36Z"/><path fill="#2E76B5" transform="scale(0.5 0.5)" d="M959.048 268.36C969.814 265.51 1020.19 239.033 1025.76 240.202C1023.06 244.606 1024.85 279.288 1025.07 287.05C1018.24 290.082 961.289 316.353 958.07 316.418C958.994 312.137 1014.21 290.519 1021.83 286.587C1022.66 282.161 1022.53 280.261 1022.39 275.716C1018.13 273.773 1009.53 273.547 1005.07 271.62C1003.43 270.911 1003.08 267.057 1002.61 264.971L1001.26 264.276L998.845 266.605C995.112 266.112 994.452 259.763 988.533 259.641C976.996 259.402 931.924 285.957 925.399 283.488C931.768 280.244 940.3 276.724 946.964 273.755L959.048 268.36Z"/><path fill="#7CEEFB" transform="scale(0.5 0.5)" d="M916.736 282.209L920.087 285.47C810.848 333.636 701.916 382.497 593.297 432.047L590.899 432.943L588.307 430.097L586.141 428.847C600.044 421.87 619.05 414.281 633.574 407.813C662.203 394.77 690.917 381.913 719.713 369.244L916.736 282.209Z"/><path fill="#4CCFF9" transform="scale(0.5 0.5)" d="M956.937 264.179C961.497 261.188 1017.84 236.253 1024.3 234.152L1041.64 241.83L1035.45 244.44L1025.76 240.202C1020.19 239.033 969.814 265.51 959.048 268.36L956.937 264.179Z"/><path fill="#4CCFF9" transform="scale(0.5 0.5)" d="M945.091 269.354L956.937 264.179L959.048 268.36L946.964 273.755C940.3 276.724 931.768 280.244 925.399 283.488L920.087 285.47L916.736 282.209C918.906 280.449 941.772 270.757 945.091 269.354Z"/><path fill="#6BE9ED" transform="scale(0.5 0.5)" d="M574.761 370.572L574.859 372.152C567.319 377.937 530.844 390.657 520.976 397.851C523.135 401.315 531.757 402.669 536.11 404.801C548.677 410.954 561.748 416.584 574.218 422.997C577.402 424.634 583.087 428.064 586.141 428.847L588.307 430.097L590.899 432.943C564.901 443.907 540.174 456.406 513.943 466.866L509.573 464.783C486.412 453.257 461.644 443.004 437.769 432.914C483.401 412.844 529.111 390.488 574.761 370.572Z"/><path fill="#7CEEFB" transform="scale(0.5 0.5)" d="M509.573 464.783C515.314 460.447 578.768 431.866 588.307 430.097L590.899 432.943C564.901 443.907 540.174 456.406 513.943 466.866L509.573 464.783Z"/><defs><linearGradient id="gradient_5" gradientUnits="userSpaceOnUse" x1="605.7384" y1="738.16827" x2="638.87158" y2="671.6524"><stop offset="0" stop-color="#144256"/><stop offset="1" stop-color="#198480"/></linearGradient></defs><path fill="url(#gradient_5)" transform="scale(0.5 0.5)" d="M225.199 468.499L746.973 703.454L916.673 780.363C937.031 789.756 957.444 799.03 977.91 808.185C987.564 812.611 1002.75 820.449 1011.96 823.531C1016.04 826.749 1021.07 827.429 1023.49 829.365C1044.95 818.585 1068.49 808.62 1090.48 798.728L1178.21 758.694L1492.48 616.573L1599.45 568.618C1614.93 561.759 1642.05 550.909 1655.65 543.671L1823 470.132C1822.81 475.688 1822.62 480.914 1822.15 486.467C1821.94 488.793 1821.7 491.116 1821.43 493.436C1819.63 491.133 1820.26 491.859 1817.23 490.628C1798.59 492.596 1773.32 516.342 1752.53 522.415C1706.44 535.882 1664.18 565.143 1619.81 583.217C1614.26 585.477 1609.68 591.063 1604.13 591.521C1602.64 591.622 1602.66 591.73 1601.38 592.375L1600.14 592.086L1602.71 590.263L1601.97 589.422C1599.25 590.065 1600.19 589.466 1598.43 591.717L1598.38 594.663C1595.93 596.442 1590.86 598.572 1587.88 597.822L1587.06 598.24C1584.08 607.709 1579.39 609.721 1570.26 612.676C1569.33 611.633 1569.43 611.674 1569.17 610.285C1565.58 613.761 1562.42 617.37 1557.19 617.647L1558.13 614.434L1557.62 613.651C1554.84 616.148 1549.61 621.639 1545.8 621.326L1546.47 620.796C1537.83 622.925 1535.56 623.344 1527.97 628.374L1524.92 627.234C1522.79 628.759 1523.07 628.066 1522.49 630.12C1524.24 630.362 1525.65 630.433 1527.27 631.159C1522.34 634.89 1495.57 641.918 1492.86 644.801L1494.97 645.749C1490.28 646.011 1485.85 647.523 1481.39 648.881C1481.53 650.665 1481.8 651.046 1482.52 652.626C1479.94 653.445 1480.69 652.82 1479.18 654.79L1477.98 652.9C1474.44 652.877 1468.1 655.741 1464.53 657.12L1463.85 659.908C1439.7 665.004 1383.36 701.472 1368.99 701.149L1367.82 702.412C1369.65 711.199 1353.51 714.497 1348.06 712.185C1349.96 710.514 1350.78 710.513 1353.32 709.84L1355 707.67L1353.63 706.164C1347.4 706.957 1346.19 711.277 1339.59 712.719L1338.79 712.901C1338.14 713.043 1337.59 713.145 1336.94 713.252L1335.14 715.337L1335.38 716.879C1337.07 716.084 1337.75 715.702 1339.34 714.712L1343.32 714.871C1333.04 719.322 1311.69 728.004 1303.41 734.071L1302.6 733.51C1301.48 732.747 1301.28 732.708 1299.93 732.324L1297.17 734.024L1299.82 734.421C1297.65 740.999 1275.63 744.968 1270 750.276C1267.28 752.842 1254.22 753.791 1251.91 756.705L1251.53 759.502C1243.71 763.075 1234.58 766.953 1227.36 771.425L1225.05 769.378C1220.43 771.426 1218.46 775.725 1215.01 777.422C1211.89 778.961 1202.92 775.62 1200.59 779.776L1201.26 781.257C1196.44 783.352 1189.74 785.996 1185.47 788.786C1184.09 788.486 1182.45 788.126 1180.53 787.707C1174.86 790.156 1166.01 794.161 1161.16 797.361C1151.2 803.935 1149.13 806.101 1137.81 808.885L1136.64 808.237L1136.2 805.662C1133.11 807.491 1133.44 806.701 1132.02 809.531C1133.09 810.216 1134.15 810.865 1135.17 811.635C1132.82 811.844 1131.41 812.044 1129.1 812.515L1130.33 810.605L1129.47 809.8C1127.56 811.557 1127.28 812.301 1126.04 814.606C1118.1 818.898 1107.75 825.444 1098.98 825.583L1096.91 827.409C1080.28 844.294 1046.27 854.696 1023.9 861.587C1023.57 878.112 1023.49 894.64 1023.65 911.168C1045.43 900.998 1067.35 891.153 1089.42 881.636C1098.38 877.703 1108.22 872.409 1117 869.34L1117.88 869.758C1115.01 873.418 1115.98 869.532 1111.65 874.756C1103.82 879.47 1081.56 889.111 1072.77 893.109C1059.6 899.103 1036.72 910.921 1023.51 915.025C1020.95 914.247 1018.52 913.192 1016.07 912.11C980.19 896.282 944.82 879.312 908.957 863.444L572.255 711.096L331.043 603.409L262.135 572.276C251.354 567.38 233.754 560.059 224.191 554.239C223.927 529.207 224.043 500.259 225.049 475.315C224.683 473.65 225.068 470.338 225.199 468.499ZM1046.22 849.498C1039.47 849.396 1031.13 848.282 1025.42 850.727C1022.9 853.73 1023.36 855.228 1023.64 859.764C1028.63 858.311 1041.33 852.133 1046.22 849.498Z"/><path fill="#34ACA8" transform="scale(0.5 0.5)" d="M225.199 468.499L746.973 703.454L916.673 780.363C937.031 789.756 957.444 799.03 977.91 808.185C987.564 812.611 1002.75 820.449 1011.96 823.531C1016.04 826.749 1021.07 827.429 1023.49 829.365C1044.95 818.585 1068.49 808.62 1090.48 798.728L1178.21 758.694L1492.48 616.573L1599.45 568.618C1614.93 561.759 1642.05 550.909 1655.65 543.671L1823 470.132C1822.81 475.688 1822.62 480.914 1822.15 486.467C1821.94 488.793 1821.7 491.116 1821.43 493.436C1819.63 491.133 1820.26 491.859 1817.23 490.628C1798.59 492.596 1773.32 516.342 1752.53 522.415C1706.44 535.882 1664.18 565.143 1619.81 583.217C1614.26 585.477 1609.68 591.063 1604.13 591.521C1602.64 591.622 1602.66 591.73 1601.38 592.375L1600.14 592.086L1602.71 590.263L1601.97 589.422C1599.25 590.065 1600.19 589.466 1598.43 591.717L1598.38 594.663C1595.93 596.442 1590.86 598.572 1587.88 597.822L1587.06 598.24C1584.08 607.709 1579.39 609.721 1570.26 612.676C1569.33 611.633 1569.43 611.674 1569.17 610.285C1565.58 613.761 1562.42 617.37 1557.19 617.647L1558.13 614.434L1557.62 613.651C1554.84 616.148 1549.61 621.639 1545.8 621.326L1546.47 620.796C1537.83 622.925 1535.56 623.344 1527.97 628.374L1524.92 627.234C1522.79 628.759 1523.07 628.066 1522.49 630.12C1524.24 630.362 1525.65 630.433 1527.27 631.159C1522.34 634.89 1495.57 641.918 1492.86 644.801L1494.97 645.749C1490.28 646.011 1485.85 647.523 1481.39 648.881C1481.53 650.665 1481.8 651.046 1482.52 652.626C1479.94 653.445 1480.69 652.82 1479.18 654.79L1477.98 652.9C1474.44 652.877 1468.1 655.741 1464.53 657.12L1463.85 659.908C1439.7 665.004 1383.36 701.472 1368.99 701.149L1367.82 702.412C1369.65 711.199 1353.51 714.497 1348.06 712.185C1349.96 710.514 1350.78 710.513 1353.32 709.84L1355 707.67L1353.63 706.164C1347.4 706.957 1346.19 711.277 1339.59 712.719L1338.79 712.901C1338.14 713.043 1337.59 713.145 1336.94 713.252L1335.14 715.337L1335.38 716.879C1337.07 716.084 1337.75 715.702 1339.34 714.712L1343.32 714.871C1333.04 719.322 1311.69 728.004 1303.41 734.071L1302.6 733.51C1301.48 732.747 1301.28 732.708 1299.93 732.324L1297.17 734.024L1299.82 734.421C1297.65 740.999 1275.63 744.968 1270 750.276C1267.28 752.842 1254.22 753.791 1251.91 756.705L1251.53 759.502C1243.71 763.075 1234.58 766.953 1227.36 771.425L1225.05 769.378C1220.43 771.426 1218.46 775.725 1215.01 777.422C1211.89 778.961 1202.92 775.62 1200.59 779.776L1201.26 781.257C1196.44 783.352 1189.74 785.996 1185.47 788.786C1184.09 788.486 1182.45 788.126 1180.53 787.707C1174.86 790.156 1166.01 794.161 1161.16 797.361C1151.2 803.935 1149.13 806.101 1137.81 808.885L1136.64 808.237L1136.2 805.662C1133.11 807.491 1133.44 806.701 1132.02 809.531C1133.09 810.216 1134.15 810.865 1135.17 811.635C1132.82 811.844 1131.41 812.044 1129.1 812.515L1130.33 810.605L1129.47 809.8C1127.56 811.557 1127.28 812.301 1126.04 814.606C1118.1 818.898 1107.75 825.444 1098.98 825.583L1096.91 827.409C1080.28 844.294 1046.27 854.696 1023.9 861.587L1023.28 860.918C1022.21 861.213 987.09 849.602 987.107 849.615L988.844 848.811L989.242 847.603C982.823 843.781 972.673 843.556 969.344 836.557C963.729 835.157 944.087 828.008 940.019 824.713C935.476 823.41 923.546 817.262 918.531 814.932C910.717 811.302 902.96 809.096 895.548 805.873C892.368 804.194 891.932 803.579 889.883 800.591L889.34 799.79C887.743 799.938 886.147 800.107 884.554 800.297C879.853 796.639 868.384 792.87 861.505 789.6C836.08 777.513 810.841 765.302 786.529 750.946C779.496 746.793 764.809 746.906 758.823 739.282C755.726 735.338 753.325 737.125 749.129 735.486C724.912 720.831 698.499 709.846 672.399 699.046C668.498 697.435 659.037 691.129 656.228 690.662C651.923 686.585 630.976 678.347 624.269 675.159L560.992 644.598C557.228 642.773 551.892 643.507 547.501 643.686C547.109 643.225 543.072 641.461 540.111 638.56L541.034 638.574C534.965 632.454 520.018 629.344 512.038 625.54C510.632 624.869 510.244 623.049 509.748 621.519L509.525 620.812C506.761 619.98 506.207 620.014 503.493 620.913L502.378 622.704C497.174 617.778 478.068 612.84 470.449 607.94C461.219 602.003 410.668 571.876 403.104 572.343C396.473 567.405 393.223 567.405 385.146 566.163C379.807 564.072 378.417 561.113 376.213 560.137C364.965 555.161 349.168 544.252 337.414 543.703L336.893 543.681C325.227 533.852 305.299 527.249 291.81 519.45C274.53 509.46 257.444 498.857 238.727 491.775C234.162 490.048 232.724 490.949 228.639 487.811L227.766 488.014L227.764 497.272C225.231 494.602 227.556 481.423 225.049 475.315C224.683 473.65 225.068 470.338 225.199 468.499ZM1046.22 849.498C1039.47 849.396 1031.13 848.282 1025.42 850.727C1022.9 853.73 1023.36 855.228 1023.64 859.764C1028.63 858.311 1041.33 852.133 1046.22 849.498Z"/><path fill="#186A75" fill-opacity="0.98823529" transform="scale(0.5 0.5)" d="M1023.64 859.764C1023.36 855.228 1022.9 853.73 1025.42 850.727C1031.13 848.282 1039.47 849.396 1046.22 849.498C1041.33 852.133 1028.63 858.311 1023.64 859.764Z"/><path fill="#186A75" transform="scale(0.5 0.5)" d="M1046.22 849.498C1049.04 847.319 1091.06 829.374 1096.91 827.409C1080.28 844.294 1046.27 854.696 1023.9 861.587L1023.28 860.918L1023.64 859.764C1028.63 858.311 1041.33 852.133 1046.22 849.498Z"/><path fill="#18877E" transform="scale(0.5 0.5)" d="M895.548 805.873L895.286 805.347C894.191 803.19 893.846 802.683 892.304 800.845L892.515 799.03C896.311 797.982 936.966 818.126 943.407 821.604L944.048 822.583C941.715 823.416 941.392 823.108 940.019 824.713C935.476 823.41 923.546 817.262 918.531 814.932C910.717 811.302 902.96 809.096 895.548 805.873Z"/><path fill="#186A75" transform="scale(0.5 0.5)" d="M1557.62 613.651C1567.58 607.61 1578.47 604.336 1587.06 598.24C1584.08 607.709 1579.39 609.721 1570.26 612.676C1569.33 611.633 1569.43 611.674 1569.17 610.285C1565.58 613.761 1562.42 617.37 1557.19 617.647L1558.13 614.434L1557.62 613.651Z"/><path fill="#186A75" transform="scale(0.5 0.5)" d="M1355 707.67C1355.14 707.073 1355.83 705.866 1356.14 705.254C1359.95 705.086 1364.12 703.565 1367.82 702.412C1369.65 711.199 1353.51 714.497 1348.06 712.185C1349.96 710.514 1350.78 710.513 1353.32 709.84L1355 707.67Z"/><path fill="#18877E" transform="scale(0.5 0.5)" d="M547.501 643.686C551.892 643.507 557.228 642.773 560.992 644.598L624.269 675.159C630.976 678.347 651.923 686.585 656.228 690.662C653.009 689.976 651.715 689.483 648.471 690.42L652.444 691.19L652.472 691.884C643.286 694.24 627.423 675.166 616.886 676.565C609.72 677.516 613.05 673.173 607.121 669.283L605.177 670.032L606.177 671.531C608.394 672.262 608.538 672.389 610.457 673.757L609.953 674.547C592.565 667.799 562.945 653.831 547.501 643.686Z"/><path fill="#186A75" transform="scale(0.5 0.5)" d="M385.146 566.163C393.223 567.405 396.473 567.405 403.104 572.343L400.825 573.763C393.058 572.832 391.145 570.731 385.146 566.163Z"/><defs><linearGradient id="gradient_6" gradientUnits="userSpaceOnUse" x1="1440.923" y1="741.29346" x2="1405.4795" y2="670.50232"><stop offset="0" stop-color="#0D1E3C" stop-opacity="0.98823529"/><stop offset="1" stop-color="#095D5B"/></linearGradient></defs><path fill="url(#gradient_6)" transform="scale(0.5 0.5)" d="M1587.06 598.24L1587.88 597.822C1590.86 598.572 1595.93 596.442 1598.38 594.663L1598.43 591.717C1600.19 589.466 1599.25 590.065 1601.97 589.422L1602.71 590.263L1600.14 592.086L1601.38 592.375C1602.66 591.73 1602.64 591.622 1604.13 591.521C1609.68 591.063 1614.26 585.477 1619.81 583.217C1664.18 565.143 1706.44 535.882 1752.53 522.415C1773.32 516.342 1798.59 492.596 1817.23 490.628C1820.26 491.859 1819.63 491.133 1821.43 493.436C1821.7 491.116 1821.94 488.793 1822.15 486.467L1823.99 492.625C1824.2 507.238 1825.93 544.853 1824.07 556.477C1812.5 563.528 1779.61 576.834 1765.97 582.746L1660.67 628.697L1371.65 757.467L1196.93 836.534C1177.03 845.655 1157.27 855.513 1137.06 864.051C1130.38 866.873 1118.07 872.87 1111.65 874.756C1115.98 869.532 1115.01 873.418 1117.88 869.758L1117 869.34C1108.22 872.409 1098.38 877.703 1089.42 881.636C1067.35 891.153 1045.43 900.998 1023.65 911.168C1023.49 894.64 1023.57 878.112 1023.9 861.587C1046.27 854.696 1080.28 844.294 1096.91 827.409L1098.98 825.583C1107.75 825.444 1118.1 818.898 1126.04 814.606C1127.28 812.301 1127.56 811.557 1129.47 809.8L1130.33 810.605L1129.1 812.515C1131.41 812.044 1132.82 811.844 1135.17 811.635C1134.15 810.865 1133.09 810.216 1132.02 809.531C1133.44 806.701 1133.11 807.491 1136.2 805.662L1136.64 808.237L1137.81 808.885C1149.13 806.101 1151.2 803.935 1161.16 797.361C1166.01 794.161 1174.86 790.156 1180.53 787.707C1182.45 788.126 1184.09 788.486 1185.47 788.786C1189.74 785.996 1196.44 783.352 1201.26 781.257L1200.59 779.776C1202.92 775.62 1211.89 778.961 1215.01 777.422C1218.46 775.725 1220.43 771.426 1225.05 769.378L1227.36 771.425C1234.58 766.953 1243.71 763.075 1251.53 759.502L1251.91 756.705C1254.22 753.791 1267.28 752.842 1270 750.276C1275.63 744.968 1297.65 740.999 1299.82 734.421L1297.17 734.024L1299.93 732.324C1301.28 732.708 1301.48 732.747 1302.6 733.51L1303.41 734.071C1311.69 728.004 1333.04 719.322 1343.32 714.871L1339.34 714.712C1337.75 715.702 1337.07 716.084 1335.38 716.879L1335.14 715.337L1336.94 713.252C1337.59 713.145 1338.14 713.043 1338.79 712.901L1339.59 712.719C1346.19 711.277 1347.4 706.957 1353.63 706.164L1355 707.67L1353.32 709.84C1350.78 710.513 1349.96 710.514 1348.06 712.185C1353.51 714.497 1369.65 711.199 1367.82 702.412L1368.99 701.149C1383.36 701.472 1439.7 665.004 1463.85 659.908L1464.53 657.12C1468.1 655.741 1474.44 652.877 1477.98 652.9L1479.18 654.79C1480.69 652.82 1479.94 653.445 1482.52 652.626C1481.8 651.046 1481.53 650.665 1481.39 648.881C1485.85 647.523 1490.28 646.011 1494.97 645.749L1492.86 644.801C1495.57 641.918 1522.34 634.89 1527.27 631.159C1525.65 630.433 1524.24 630.362 1522.49 630.12C1523.07 628.066 1522.79 628.759 1524.92 627.234L1527.97 628.374C1535.56 623.344 1537.83 622.925 1546.47 620.796L1545.8 621.326C1549.61 621.639 1554.84 616.148 1557.62 613.651L1558.13 614.434L1557.19 617.647C1562.42 617.37 1565.58 613.761 1569.17 610.285C1569.43 611.674 1569.33 611.633 1570.26 612.676C1579.39 609.721 1584.08 607.709 1587.06 598.24Z"/><path fill="#112247" fill-opacity="0.97254902" transform="scale(0.5 0.5)" d="M1761.94 439.549C1787.02 449.885 1800.17 457.273 1823.96 469.664C1824.06 476.452 1824.47 486.081 1823.99 492.625L1822.15 486.467C1822.62 480.914 1822.81 475.688 1823 470.132L1655.65 543.671C1654.6 543.115 1654.99 543.369 1654.29 542.257C1653.35 542.945 1679.48 530.659 1678.1 530.928L1680.19 530.505C1680.48 530.451 1680.77 530.398 1681.07 530.344L1679.32 528.529L1679.52 527.657L1680.85 527.713C1682.01 527.761 1689.11 528.027 1689.35 527.681C1692.63 522.944 1697.91 523.03 1703.14 521.249C1702.82 521.359 1705.04 517.728 1705.88 516.952L1706.61 518.352L1710.38 517.723C1711.88 516.198 1711.39 516.549 1711.56 513.736C1713.28 515.166 1713.39 515.238 1715.47 516.072C1718.33 515.362 1719.51 512.891 1721.16 510.423C1725.4 509.789 1740.6 505.057 1740.93 503.539C1745 484.916 1770.75 500.419 1773.99 484.831C1779.62 485.091 1785.12 486.96 1788.58 482.221C1787.36 481.438 1786.5 481.079 1785.88 479.781C1787.72 478.097 1791.41 479.776 1795.93 479.61C1799.48 476.586 1800.35 478.919 1802.7 476.647L1801.91 475.21C1795.63 474.522 1799.81 475.599 1794.93 476.771C1797.17 472.929 1801.63 470.229 1805.64 468.513L1806.4 468.191L1807.52 465.455C1804.49 461.423 1775.97 449.059 1769.78 446.444L1768.29 449.54L1767.1 449.524C1764.46 442.271 1767.83 446.121 1761.94 439.549Z"/></svg>