<?xml version="1.0" encoding="utf-8" ?><svg xmlns="http://www.w3.org/2000/svg" xmlns:xlink="http://www.w3.org/1999/xlink" width="455" height="341" viewBox="0 0 455 341"><defs><linearGradient id="gradient_0" gradientUnits="userSpaceOnUse" x1="633.63263" y1="77.090111" x2="721.4281" y2="324.1911"><stop offset="0" stop-color="#13498B"/><stop offset="1" stop-color="#377EA4"/></linearGradient></defs><path fill="url(#gradient_0)" transform="matrix(0.333333 0 0 0.333008 0.000488281 0)" d="M681.608 57.7305C701.782 68.7703 721.77 79.2094 742.13 89.838C747.715 92.7537 766.121 102.254 770.558 105.818C845.054 146.267 919.898 186.071 995.081 225.228L1062.12 260.418C1070.13 264.667 1090.75 275.344 1097.29 280.168C1098.29 286.536 1098 296.402 1098.01 303.132L1098.08 337.557L1098.24 430.035C1098.28 447.059 1097.99 465.354 1098.59 482.267C1105.72 486.911 1113.68 491.116 1121.25 495.039C1160.29 515.279 1197.85 538.137 1236.45 559.141C1239.53 560.816 1242.91 562.565 1245.58 564.822C1247.23 569.648 1247.64 613.18 1246.12 617.652C1243.35 620.617 1219.8 632.658 1214.44 635.561C1212.31 637.777 1211.09 638.917 1209.46 641.596C1218.56 647 1244.26 658.815 1249.38 662.868L858.205 877.517L746.773 939.227C732.054 947.474 717.532 956.088 702.562 963.933C695.489 967.64 688.384 972.073 680.947 974.895C662.352 966.53 638.386 952.637 620.335 942.744L513.106 883.946L112.994 665.858C113.244 662.3 147.999 647.392 154.155 640.779L154.104 640.033L150.405 638.152L150.98 636.277C153.745 634.998 155.333 635.719 157.914 637.118C158.429 638.61 158.257 638.655 157.926 640.244L571.151 867.692C581.099 873.163 679.785 928.353 681.739 928.492C681.3 923.275 681.628 914.364 681.656 908.935C681.729 897.713 681.714 886.49 681.612 875.268C694.583 867.415 709.028 860.342 721.783 852.465C720.765 851.578 721.133 852.138 720.982 850.568C724.519 845.961 725.327 845.517 728.949 841.516L728.587 840.883C725.755 840.986 724.646 841.664 722.124 842.813C723.319 839.993 724.743 841.161 727.263 837.653C728.014 831.816 723.926 833.603 722.571 831.258C719.897 826.636 718.357 815.163 712.043 813.595C707.41 812.444 707.006 809.24 704.596 805.61C691.097 798.764 708.723 790.131 714.76 786.426C709.535 785.565 689.971 802.601 683.926 801.48C682.02 798.328 684.674 782.903 682.587 779.53C682.495 772.142 682.457 765.254 682.702 757.874C677.156 753.781 658.109 743.61 651.206 739.761C629.02 727.345 606.707 715.156 584.271 703.196C583.53 697.636 584.195 688.066 583.776 681.524L583.718 648.723C584.378 644.377 583.073 638.307 584.69 634.792C580.43 631.887 572.112 627.755 567.232 625.114L534.652 607.405C507.778 592.701 476.388 574.249 449.303 560.915C446.509 557.619 394.893 532.289 385.451 525.02C384.687 520.932 384.736 517.759 384.661 513.597C402.585 504.031 424.889 489.723 442.287 481.652L443.166 480.974C443.017 477.25 442.158 457.614 443.743 455.53L441.443 454.399L432.257 449.802L431.976 441.165C432.12 437.698 432.776 437.702 435.566 436.059L438.341 434.649C439.316 434.4 440.475 433.713 441.412 433.234L443.152 432.55C465.502 420.992 488.697 405.772 511.792 394.471C515.512 391.969 521.477 388.868 525.436 387.004C538.752 379.629 552.564 372.866 565.852 365.384C571.801 362.035 578.351 358.536 584.632 355.918L581.401 358.969C583.233 361.216 616.289 378.164 621.253 381.023C629.584 384.423 659.167 400.695 666.904 405.73C669.857 401.199 671.619 401.962 676.794 401.771C675.664 401.698 672.322 401.462 671.406 400.991C661.183 395.731 643.268 387.09 634.276 381.044C623.112 376.431 611.233 368.899 600.407 363.414C596.126 361.245 589.044 357.156 584.632 355.918L584.694 355.55C583.751 347.164 584.618 314.333 583.133 310.002L585.171 309.176L585.021 308.698L584.385 308.105C583.2 304.347 583.724 156.129 585.122 150.607C585.583 143.722 585.313 119.728 584.745 113.141L584.752 112.664L583.032 111.708L583.3 110.536C603.444 98.9101 625.82 87.6823 646.353 76.3424C656.536 70.7187 671.438 62.341 681.608 57.7305ZM775.87 134.289C778.287 147.437 777.035 160.354 776.841 173.629C776.374 205.577 777.368 237.551 776.921 269.487C776.828 276.122 777.108 285.981 775.902 292.226C775.742 297.319 775.712 302.416 775.812 307.512L869.388 358.35C883.315 365.878 906.166 377.1 918.868 385.118C917.246 372.87 918.774 353.129 918.444 340.039C917.433 299.93 919.816 259.452 918.582 219.398C918.334 211.316 919.738 201.402 919.334 193.737L918.7 193.585C917.557 196.496 917.669 199.863 917.517 203.059C917.297 198.803 916.938 195.695 918.773 191.76C919.19 190.867 919.227 190.331 919.081 189.343C916.529 185.706 908.085 182.217 903.618 179.708L903.657 178.846C901.229 176.843 890.501 171.358 887.301 169.686L856.529 153.583L803.537 125.2C795.13 120.717 784.409 114.641 775.891 110.816C775.813 115.637 775.34 130.338 775.87 134.289ZM784.425 540.156L784.731 542.265L783.984 542.844C782.524 543.986 782.091 544.144 781.782 545.726C783.951 544.508 784.705 544.05 786.613 542.468L786.822 540.646C790.165 537.487 802.395 531.115 806.756 528.795C818.144 522.734 829.226 516.239 840.513 510.005C845.58 507.207 850.502 505.612 855.611 502.215L856.516 502.656L860.967 500.058L861.273 498.481C884.076 485.073 911.303 471.311 934.94 458.482C933.399 457.1 911.763 445.776 907.783 443.734C889.786 434.497 871.07 423.175 852.84 414.715L847.957 417.635C848.975 415.716 849.153 416.155 848.744 414.589L845.323 412.998C844.157 409.934 766.577 367.567 759.188 365.925C757.396 364.88 755.615 363.981 753.774 363.032C736.489 373.147 716.841 384.797 698.986 393.853C695.377 395.898 686.378 401.024 682.638 402.274C684.503 403.642 684.514 403.932 685.556 406.095C692.879 402.076 707.481 393.876 714.702 390.928C711.779 394.416 701.737 399.132 697.274 401.405L697.533 402.154C700.783 411.845 694.365 411.163 704.355 416.463C712.662 420.87 722.888 425.162 730.825 429.894L731.121 430.97C727.575 430.561 688.987 409.856 685.743 407.118C684.349 408.4 682.614 410.11 681.085 411.15L679.898 411.413C674.614 411.994 672.845 411.997 668.151 414.683L663.161 417.69C659.876 419.254 657.667 420.43 654.537 422.285C650.267 424.733 633.362 434.166 629.302 435.811C625.934 437.83 615.102 443.247 613.721 446.604C613.634 446.817 613.352 448.847 613.3 449.263C625.135 456.275 637.674 462.633 649.302 469.54C654.938 471.88 663.854 477.13 669.353 480.286C667.273 482.06 665.273 481.773 662.424 481.895C670.368 486.274 680.17 491.114 687.555 495.915C688.047 487.831 701.382 492.144 705.802 494.825C712.719 492.983 737.265 478.111 746.705 473.749C744.82 476.851 728.957 484.318 724.203 487.366C724.128 494.806 723.543 498.017 720.113 504.594C724.114 506.689 739.127 513.918 740.564 516.852C728.807 510.701 717.832 504.578 705.729 499.062C700.308 501.21 698.321 501.58 692.528 502.424L687.987 499.078C684.565 501.61 671.711 509.308 667.863 510.5C659.915 515.492 630.091 530.118 625.86 534.272L630.889 537.137C640.301 542.568 714.593 580.481 715.798 583.452C715.858 583.599 715.874 583.76 715.911 583.913L717.426 583.246C719.638 578.762 729.397 572.235 734.331 571.305C745.246 561.619 768.477 553.339 780.721 543.528C781.453 542.403 783.301 541.064 784.425 540.156ZM852.24 418.238C875.198 429.49 897.418 442.374 920.475 453.459C922.705 454.531 925.322 455.788 926.609 457.959C926.011 460.123 924.689 460.934 922.765 462.015C914.109 466.877 862.569 494.887 856.229 493.21C851.13 491.862 846.381 487.04 841.044 487.002C840.771 487 840.497 486.984 840.223 486.987C840.058 486.988 839.893 487.005 839.728 487.014C837.014 486.165 823.959 478.947 820.745 477.223C807.204 469.809 793.553 462.599 779.796 455.595L783.807 453.743C807.528 448.055 830.644 429.815 852.24 418.238ZM776.442 457.943C774.929 458.584 774.085 458.839 772.711 459.756L771.144 460.291C768.806 458.696 768.646 459.119 767.611 456.938C768.403 455.028 770.528 454.253 772.436 453.204C774.517 453.725 776.027 453.834 777.462 455.35C777.467 457.288 777.77 456.441 776.442 457.943ZM574.797 459.874C567.545 464.275 538.294 479.021 535.299 483.481L535.417 484.39C539.271 486.1 540.233 484.868 543.805 482.988C548.945 479.714 573.836 466.909 579.126 464.795L578.997 464.168C577.804 463.195 576.929 460.89 576.225 459.411L574.797 459.874Z"/><path fill="#16436A" fill-opacity="0.98823529" transform="matrix(0.333333 0 0 0.333008 0.000488281 0)" d="M775.891 110.816C784.409 114.641 795.13 120.717 803.537 125.2L856.529 153.583L887.301 169.686C890.501 171.358 901.229 176.843 903.657 178.846L903.618 179.708C908.085 182.217 916.529 185.706 919.081 189.343C919.227 190.331 919.19 190.867 918.773 191.76C916.938 195.695 917.297 198.803 917.517 203.059C917.669 199.863 917.557 196.496 918.7 193.585L919.334 193.737C919.738 201.402 918.334 211.316 918.582 219.398C919.816 259.452 917.433 299.93 918.444 340.039C918.774 353.129 917.246 372.87 918.868 385.118C906.166 377.1 883.315 365.878 869.388 358.35L775.812 307.512C775.712 302.416 775.742 297.319 775.902 292.226C777.108 285.981 776.828 276.122 776.921 269.487C777.368 237.551 776.374 205.577 776.841 173.629C777.035 160.354 778.287 147.437 775.87 134.289C775.34 130.338 775.813 115.637 775.891 110.816Z"/><path fill="#2B74A6" fill-opacity="0.98431373" transform="matrix(0.333333 0 0 0.333008 0.000488281 0)" d="M759.188 365.925C766.577 367.567 844.157 409.934 845.323 412.998C828.383 422.654 811.389 432.212 794.34 441.674C790.305 443.88 775.903 451.802 772.457 452.929C761.101 445.972 743.52 437.898 731.121 430.97L730.825 429.894C722.888 425.162 712.662 420.87 704.355 416.463C694.365 411.163 700.783 411.845 697.533 402.154L697.274 401.405C701.737 399.132 711.779 394.416 714.702 390.928C729.376 382.14 744.846 374.691 759.188 365.925Z"/><defs><linearGradient id="gradient_1" gradientUnits="userSpaceOnUse" x1="743.76105" y1="422.47906" x2="631.55188" y2="480.79477"><stop offset="0" stop-color="#2983A3" stop-opacity="0.98823529"/><stop offset="1" stop-color="#13FFEE"/></linearGradient></defs><path fill="url(#gradient_1)" transform="matrix(0.333333 0 0 0.333008 0.000488281 0)" d="M663.161 417.69C672.124 416.24 674.267 423.864 683.653 419.498C685.18 417.393 684.779 418.547 684.831 415.892C686.938 416.941 687.601 417.023 689.952 416.961C714.848 428.197 742.246 443.505 766.557 456.46C757.302 461.062 707.836 491.689 701.51 489.689C701.181 489.585 700.858 489.46 700.535 489.336L701.226 489.853C697.65 488.274 696.124 487.765 692.327 489.132C686.73 491.146 674.178 480.726 669.353 480.286C663.854 477.13 654.938 471.88 649.302 469.54C637.674 462.633 625.135 456.275 613.3 449.263C613.352 448.847 613.634 446.817 613.721 446.604C615.102 443.247 625.934 437.83 629.302 435.811C633.362 434.166 650.267 424.733 654.537 422.285C657.667 420.43 659.876 419.254 663.161 417.69Z"/><path fill="#2B74A6" fill-opacity="0.96078432" transform="matrix(0.333333 0 0 0.333008 0.000488281 0)" d="M772.711 459.756C787.158 465.841 805.772 476.078 820.16 483.435C830.227 488.583 846.414 496.548 855.611 502.215C850.502 505.612 845.58 507.207 840.513 510.005C829.226 516.239 818.144 522.734 806.756 528.795C802.395 531.115 790.165 537.487 786.822 540.646L786.613 542.468C784.705 544.05 783.951 544.508 781.782 545.726C782.091 544.144 782.524 543.986 783.984 542.844L784.731 542.265L784.425 540.156C772.946 532.869 753.256 523.444 740.564 516.852C739.127 513.918 724.114 506.689 720.113 504.594C723.543 498.017 724.128 494.806 724.203 487.366C728.957 484.318 744.82 476.851 746.705 473.749C751.148 470.273 765.279 463.96 771.144 460.291L772.711 459.756Z"/><path fill="#2B74A6" fill-opacity="0.98823529" transform="matrix(0.333333 0 0 0.333008 0.000488281 0)" d="M676.433 512.279C685.565 511.33 684.634 504.551 690.988 511.741C693.698 514.808 711.554 508.539 712.315 508.815C725.366 513.535 738.011 522.164 750.452 528.446C750.712 528.651 750.972 528.855 751.233 529.06L751.029 530.037L751.71 530.432C755.179 532.468 761.181 536.751 761.495 541.006L759.301 540.685C758.913 541.022 756.062 549.237 754.7 551.686C747.621 555.323 737.789 559.514 734.192 566.866C733.754 567.761 734.219 570.28 734.331 571.305C729.397 572.235 719.638 578.762 717.426 583.246L715.911 583.913C715.874 583.76 715.858 583.599 715.798 583.452C714.593 580.481 640.301 542.568 630.889 537.137C641.802 530.191 664.632 518.557 676.433 512.279Z"/><path fill="#30F5F0" fill-opacity="0.98823529" transform="matrix(0.333333 0 0 0.333008 0.000488281 0)" d="M685.743 407.118C688.987 409.856 727.575 430.561 731.121 430.97C743.52 437.898 761.101 445.972 772.457 452.929L772.436 453.204C770.528 454.253 768.403 455.028 767.611 456.938C768.646 459.119 768.806 458.696 771.144 460.291C765.279 463.96 751.148 470.273 746.705 473.749C737.265 478.111 712.719 492.983 705.802 494.825C701.382 492.144 688.047 487.831 687.555 495.915C680.17 491.114 670.368 486.274 662.424 481.895C665.273 481.773 667.273 482.06 669.353 480.286C674.178 480.726 686.73 491.146 692.327 489.132C696.124 487.765 697.65 488.274 701.226 489.853L700.535 489.336C700.858 489.46 701.181 489.585 701.51 489.689C707.836 491.689 757.302 461.062 766.557 456.46C742.246 443.505 714.848 428.197 689.952 416.961C687.435 415.082 685.641 414.554 682.754 413.457C677.828 417.222 673.696 416.284 668.151 414.683C672.845 411.997 674.614 411.994 679.898 411.413L681.085 411.15C682.614 410.11 684.349 408.4 685.743 407.118Z"/><path fill="#305593" fill-opacity="0.97647059" transform="matrix(0.333333 0 0 0.333008 0.000488281 0)" d="M847.957 417.635L852.84 414.715C871.07 423.175 889.786 434.497 907.783 443.734C911.763 445.776 933.399 457.1 934.94 458.482C911.303 471.311 884.076 485.073 861.273 498.481C854.476 494.985 846.127 490.942 839.728 487.014C839.893 487.005 840.058 486.988 840.223 486.987C840.497 486.984 840.771 487 841.044 487.002C846.381 487.04 851.13 491.862 856.229 493.21C862.569 494.887 914.109 466.877 922.765 462.015C924.689 460.934 926.011 460.123 926.609 457.959C925.322 455.788 922.705 454.531 920.475 453.459C897.418 442.374 875.198 429.49 852.24 418.238C830.644 429.815 807.528 448.055 783.807 453.743C787.903 450.739 797.167 445.6 801.846 442.897C817.088 434.243 832.46 425.821 847.957 417.635Z"/><path fill="#28EFF6" fill-opacity="0.98823529" transform="matrix(0.333333 0 0 0.333008 0.000488281 0)" d="M705.729 499.062C717.832 504.578 728.807 510.701 740.564 516.852C753.256 523.444 772.946 532.869 784.425 540.156C783.301 541.064 781.453 542.403 780.721 543.528C770.941 538.96 760.929 533.867 751.233 529.06C750.972 528.855 750.712 528.651 750.452 528.446C738.011 522.164 725.366 513.535 712.315 508.815C711.554 508.539 693.698 514.808 690.988 511.741C684.634 504.551 685.565 511.33 676.433 512.279C680.91 508.837 689.883 505.049 692.528 502.424C698.321 501.58 700.308 501.21 705.729 499.062Z"/><path fill="#28EFF6" fill-opacity="0.98823529" transform="matrix(0.333333 0 0 0.333008 0.000488281 0)" d="M776.442 457.943C777.872 458.381 777.132 458.274 778.724 457.883L779.796 455.595C793.553 462.599 807.204 469.809 820.745 477.223C823.959 478.947 837.014 486.165 839.728 487.014C846.127 490.942 854.476 494.985 861.273 498.481L860.967 500.058L856.516 502.656L855.611 502.215C846.414 496.548 830.227 488.583 820.16 483.435C805.772 476.078 787.158 465.841 772.711 459.756C774.085 458.839 774.929 458.584 776.442 457.943Z"/><path fill="#305593" fill-opacity="0.98823529" transform="matrix(0.333333 0 0 0.333008 0.000488281 0)" d="M751.233 529.06C760.929 533.867 770.941 538.96 780.721 543.528C768.477 553.339 745.246 561.619 734.331 571.305C734.219 570.28 733.754 567.761 734.192 566.866C737.789 559.514 747.621 555.323 754.7 551.686C756.062 549.237 758.913 541.022 759.301 540.685L761.495 541.006C761.181 536.751 755.179 532.468 751.71 530.432L751.029 530.037L751.233 529.06Z"/><path fill="#30F5F0" fill-opacity="0.98823529" transform="matrix(0.333333 0 0 0.333008 0.000488281 0)" d="M845.323 412.998L848.744 414.589C849.153 416.155 848.975 415.716 847.957 417.635C832.46 425.821 817.088 434.243 801.846 442.897C797.167 445.6 787.903 450.739 783.807 453.743L779.796 455.595L778.724 457.883C777.132 458.274 777.872 458.381 776.442 457.943C777.77 456.441 777.467 457.288 777.462 455.35C776.027 453.834 774.517 453.725 772.436 453.204L772.457 452.929C775.903 451.802 790.305 443.88 794.34 441.674C811.389 432.212 828.383 422.654 845.323 412.998Z"/><defs><linearGradient id="gradient_2" gradientUnits="userSpaceOnUse" x1="720.11823" y1="404.47" x2="721.53052" y2="363.50702"><stop offset="0" stop-color="#1BFFF8" stop-opacity="0.98431373"/><stop offset="1" stop-color="#33DCF2"/></linearGradient></defs><path fill="url(#gradient_2)" transform="matrix(0.333333 0 0 0.333008 0.000488281 0)" d="M753.774 363.032C755.615 363.981 757.396 364.88 759.188 365.925C744.846 374.691 729.376 382.14 714.702 390.928C707.481 393.876 692.879 402.076 685.556 406.095C684.514 403.932 684.503 403.642 682.638 402.274C686.378 401.024 695.377 395.898 698.986 393.853C716.841 384.797 736.489 373.147 753.774 363.032Z"/><path fill="#30F5F0" fill-opacity="0.98823529" transform="matrix(0.333333 0 0 0.333008 0.000488281 0)" d="M687.987 499.078L692.528 502.424C689.883 505.049 680.91 508.837 676.433 512.279C664.632 518.557 641.802 530.191 630.889 537.137L625.86 534.272C630.091 530.118 659.915 515.492 667.863 510.5C671.711 509.308 684.565 501.61 687.987 499.078Z"/><path fill="#19DBD4" transform="matrix(0.333333 0 0 0.333008 0.000488281 0)" d="M685.556 406.095C692.879 402.076 707.481 393.876 714.702 390.928C711.779 394.416 701.737 399.132 697.274 401.405L697.533 402.154C700.783 411.845 694.365 411.163 704.355 416.463C712.662 420.87 722.888 425.162 730.825 429.894L731.121 430.97C727.575 430.561 688.987 409.856 685.743 407.118L685.556 406.095Z"/><path fill="#FFFDFB" transform="matrix(0.333333 0 0 0.333008 0.000488281 0)" d="M687.555 495.915C688.047 487.831 701.382 492.144 705.802 494.825L705.729 499.062C700.308 501.21 698.321 501.58 692.528 502.424L687.987 499.078L687.555 495.915Z"/><path fill="#19DBD4" fill-opacity="0.98823529" transform="matrix(0.333333 0 0 0.333008 0.000488281 0)" d="M682.754 413.457C685.641 414.554 687.435 415.082 689.952 416.961C687.601 417.023 686.938 416.941 684.831 415.892C684.779 418.547 685.18 417.393 683.653 419.498C674.267 423.864 672.124 416.24 663.161 417.69L668.151 414.683C673.696 416.284 677.828 417.222 682.754 413.457Z"/><defs><linearGradient id="gradient_3" gradientUnits="userSpaceOnUse" x1="802.63324" y1="757.64404" x2="1203.9042" y2="503.29559"><stop offset="0" stop-color="#55D9FA"/><stop offset="1" stop-color="#9DEFFA"/></linearGradient></defs><path fill="url(#gradient_3)" transform="matrix(0.333333 0 0 0.333008 0.000488281 0)" d="M920.614 386.245C932.781 393.821 946.291 400.788 958.871 407.73C961.552 409.209 974.001 416.159 976.331 417.029C996.753 429 1019.35 440.794 1040.17 452.491C1056.44 461.632 1080.24 476.491 1096.69 483.544L1097.3 483.208L1098.59 482.267C1105.72 486.911 1113.68 491.116 1121.25 495.039C1160.29 515.279 1197.85 538.137 1236.45 559.141C1239.53 560.816 1242.91 562.565 1245.58 564.822C1247.23 569.648 1247.64 613.18 1246.12 617.652C1243.35 620.617 1219.8 632.658 1214.44 635.561C1212.31 637.777 1211.09 638.917 1209.46 641.596C1218.56 647 1244.26 658.815 1249.38 662.868L858.205 877.517L746.773 939.227C732.054 947.474 717.532 956.088 702.562 963.933C695.489 967.64 688.384 972.073 680.947 974.895C662.352 966.53 638.386 952.637 620.335 942.744L513.106 883.946L112.994 665.858C113.244 662.3 147.999 647.392 154.155 640.779L154.104 640.033L150.405 638.152L150.98 636.277C153.745 634.998 155.333 635.719 157.914 637.118C158.429 638.61 158.257 638.655 157.926 640.244L571.151 867.692C581.099 873.163 679.785 928.353 681.739 928.492C681.3 923.275 681.628 914.364 681.656 908.935C681.729 897.713 681.714 886.49 681.612 875.268C694.583 867.415 709.028 860.342 721.783 852.465C720.765 851.578 721.133 852.138 720.982 850.568C724.519 845.961 725.327 845.517 728.949 841.516L728.587 840.883C725.755 840.986 724.646 841.664 722.124 842.813C723.319 839.993 724.743 841.161 727.263 837.653C728.014 831.816 723.926 833.603 722.571 831.258C719.897 826.636 718.357 815.163 712.043 813.595C707.41 812.444 707.006 809.24 704.596 805.61C691.097 798.764 708.723 790.131 714.76 786.426C709.535 785.565 689.971 802.601 683.926 801.48C682.02 798.328 684.674 782.903 682.587 779.53C682.495 772.142 682.457 765.254 682.702 757.874C677.156 753.781 658.109 743.61 651.206 739.761C629.02 727.345 606.707 715.156 584.271 703.196C583.53 697.636 584.195 688.066 583.776 681.524L583.718 648.723C584.378 644.377 583.073 638.307 584.69 634.792C616.827 652.439 650.217 671.401 682.472 688.448C683.223 689.347 683.019 689.068 684.122 689.666C703.263 682.233 725.825 666.617 744.227 656.66L890.302 576.294C913.321 563.444 940.016 546.743 963.574 535.263C973.295 532.265 993.465 519.477 1003.71 514.023C1014.94 508.046 1028.38 501.266 1039.23 494.971C1013.4 480.301 988.291 466.553 961.373 453.78C947.627 447.258 932.73 440.555 920.148 432.136C919.842 425.221 919.442 391.958 920.614 386.245Z"/><path fill="#08102F" transform="matrix(0.333333 0 0 0.333008 0.000488281 0)" d="M1245.58 564.822C1247.23 569.648 1247.64 613.18 1246.12 617.652C1243.35 620.617 1219.8 632.658 1214.44 635.561C1212.31 637.777 1211.09 638.917 1209.46 641.596C1218.56 647 1244.26 658.815 1249.38 662.868L858.205 877.517L746.773 939.227C732.054 947.474 717.532 956.088 702.562 963.933C695.489 967.64 688.384 972.073 680.947 974.895C662.352 966.53 638.386 952.637 620.335 942.744L513.106 883.946L112.994 665.858C113.244 662.3 147.999 647.392 154.155 640.779L154.104 640.033L150.405 638.152L150.98 636.277C153.745 634.998 155.333 635.719 157.914 637.118C158.429 638.61 158.257 638.655 157.926 640.244L571.151 867.692C581.099 873.163 679.785 928.353 681.739 928.492C681.3 923.275 681.628 914.364 681.656 908.935C681.729 897.713 681.714 886.49 681.612 875.268C694.583 867.415 709.028 860.342 721.783 852.465C757.119 833.494 792.231 814.111 827.114 794.318L1078.74 656.336C1133.85 626.015 1191.05 595.937 1245.58 564.822Z"/><path fill="#2CA9CE" transform="matrix(0.333333 0 0 0.333008 0.000488281 0)" d="M1245.58 564.822C1247.23 569.648 1247.64 613.18 1246.12 617.652C1243.35 620.617 1219.8 632.658 1214.44 635.561C1204.45 640.328 1192.45 647.359 1182.48 652.739C1161.79 663.819 1141.17 675.016 1120.61 686.331L975.332 765.736L768.825 880.013C740.532 895.773 709.501 912.117 681.739 928.492C681.3 923.275 681.628 914.364 681.656 908.935C681.729 897.713 681.714 886.49 681.612 875.268C694.583 867.415 709.028 860.342 721.783 852.465C757.119 833.494 792.231 814.111 827.114 794.318L1078.74 656.336C1133.85 626.015 1191.05 595.937 1245.58 564.822Z"/><defs><linearGradient id="gradient_4" gradientUnits="userSpaceOnUse" x1="704.28448" y1="485.16104" x2="965.27759" y2="692.4812"><stop offset="0" stop-color="#B1D6DC"/><stop offset="1" stop-color="#D5FFFF"/></linearGradient></defs><path fill="url(#gradient_4)" transform="matrix(0.333333 0 0 0.333008 0.000488281 0)" d="M920.614 386.245C932.781 393.821 946.291 400.788 958.871 407.73C961.552 409.209 974.001 416.159 976.331 417.029C996.753 429 1019.35 440.794 1040.17 452.491C1056.44 461.632 1080.24 476.491 1096.69 483.544C1098.51 485.386 1098.13 487.864 1098.13 490.816C1098.11 503.453 1097.8 516.425 1098.17 529.048C1081.49 537.235 1065.16 546.554 1048.92 555.582C1046.99 556.658 1044.84 557.81 1043.07 559.116L920.868 626.778C884.077 646.611 847.409 666.672 810.866 686.959C783.71 702.269 756.527 716.384 729.517 731.525L696.631 750.119C693.752 751.732 685.261 756.778 682.702 757.874C677.156 753.781 658.109 743.61 651.206 739.761C629.02 727.345 606.707 715.156 584.271 703.196C583.53 697.636 584.195 688.066 583.776 681.524L583.718 648.723C584.378 644.377 583.073 638.307 584.69 634.792C616.827 652.439 650.217 671.401 682.472 688.448C683.223 689.347 683.019 689.068 684.122 689.666C703.263 682.233 725.825 666.617 744.227 656.66L890.302 576.294C913.321 563.444 940.016 546.743 963.574 535.263C973.295 532.265 993.465 519.477 1003.71 514.023C1014.94 508.046 1028.38 501.266 1039.23 494.971C1013.4 480.301 988.291 466.553 961.373 453.78C947.627 447.258 932.73 440.555 920.148 432.136C919.842 425.221 919.442 391.958 920.614 386.245Z"/><path fill="#7ACBDD" transform="matrix(0.333333 0 0 0.333008 0.000488281 0)" d="M1043.07 559.116C1050.6 557.106 1059.4 551.196 1066.45 547.458C1076.08 542.354 1086.27 536.288 1096.07 531.628L1096.07 573.994C1072.46 586.323 1050.34 599.362 1027.21 612.431C959.994 650.407 892.303 687.565 824.872 725.155C813.417 731.541 800.767 740.017 788.857 745.151C789.703 745.434 790.876 745.482 791.58 744.989C795.861 741.991 809.237 747.163 814.419 749.629C819.884 757.578 827.079 770.538 824.79 780.111C824.077 783.09 822.96 786.996 823.438 789.842C824.679 791.177 824.783 791.22 826.212 792.194L827.114 794.318C792.231 814.111 757.119 833.494 721.783 852.465C720.765 851.578 721.133 852.138 720.982 850.568C724.519 845.961 725.327 845.517 728.949 841.516L728.587 840.883C725.755 840.986 724.646 841.664 722.124 842.813C723.319 839.993 724.743 841.161 727.263 837.653C728.014 831.816 723.926 833.603 722.571 831.258C719.897 826.636 718.357 815.163 712.043 813.595C707.41 812.444 707.006 809.24 704.596 805.61C691.097 798.764 708.723 790.131 714.76 786.426C709.535 785.565 689.971 802.601 683.926 801.48C682.02 798.328 684.674 782.903 682.587 779.53C682.495 772.142 682.457 765.254 682.702 757.874C685.261 756.778 693.752 751.732 696.631 750.119L729.517 731.525C756.527 716.384 783.71 702.269 810.866 686.959C847.409 666.672 884.077 646.611 920.868 626.778L1043.07 559.116Z"/><path fill="#4AC96E" transform="matrix(0.333333 0 0 0.333008 0.000488281 0)" d="M584.632 355.918L581.401 358.969C583.233 361.216 616.289 378.164 621.253 381.023C629.584 384.423 659.167 400.695 666.904 405.73C669.857 401.199 671.619 401.962 676.794 401.771L682.638 402.274C684.503 403.642 684.514 403.932 685.556 406.095L685.743 407.118C684.349 408.4 682.614 410.11 681.085 411.15L679.898 411.413C674.614 411.994 672.845 411.997 668.151 414.683L663.161 417.69C659.876 419.254 657.667 420.43 654.537 422.285C650.267 424.733 633.362 434.166 629.302 435.811C625.934 437.83 615.102 443.247 613.721 446.604C613.634 446.817 613.352 448.847 613.3 449.263C625.135 456.275 637.674 462.633 649.302 469.54C654.938 471.88 663.854 477.13 669.353 480.286C667.273 482.06 665.273 481.773 662.424 481.895C670.368 486.274 680.17 491.114 687.555 495.915L687.987 499.078C684.565 501.61 671.711 509.308 667.863 510.5C659.915 515.492 630.091 530.118 625.86 534.272L630.889 537.137C640.301 542.568 714.593 580.481 715.798 583.452C715.858 583.599 715.874 583.76 715.911 583.913L717.426 583.246C719.638 578.762 729.397 572.235 734.331 571.305C745.246 561.619 768.477 553.339 780.721 543.528C781.453 542.403 783.301 541.064 784.425 540.156L784.731 542.265L783.984 542.844C782.524 543.986 782.091 544.144 781.782 545.726C783.951 544.508 784.705 544.05 786.613 542.468L786.822 540.646C790.165 537.487 802.395 531.115 806.756 528.795C818.144 522.734 829.226 516.239 840.513 510.005C845.58 507.207 850.502 505.612 855.611 502.215L856.516 502.656L860.967 500.058L861.273 498.481C884.076 485.073 911.303 471.311 934.94 458.482L935.161 460.116C937.216 459.227 939.783 457.772 941.811 456.699C941.766 459.309 941.873 468.771 941.226 470.651C931.54 477.016 916.936 484.656 906.525 490.409C925.519 499.503 948.393 510.147 966.453 520.947L966.46 531.813L963.574 535.263C940.016 546.743 913.321 563.444 890.302 576.294L744.227 656.66C725.825 666.617 703.263 682.233 684.122 689.666C683.019 689.068 683.223 689.347 682.472 688.448C650.217 671.401 616.827 652.439 584.69 634.792C580.43 631.887 572.112 627.755 567.232 625.114L534.652 607.405C507.778 592.701 476.388 574.249 449.303 560.915C446.509 557.619 394.893 532.289 385.451 525.02C384.687 520.932 384.736 517.759 384.661 513.597C402.585 504.031 424.889 489.723 442.287 481.652L443.166 480.974C443.017 477.25 442.158 457.614 443.743 455.53L441.443 454.399L432.257 449.802L431.976 441.165C432.12 437.698 432.776 437.702 435.566 436.059L438.341 434.649C439.316 434.4 440.475 433.713 441.412 433.234L443.152 432.55C465.502 420.992 488.697 405.772 511.792 394.471C515.512 391.969 521.477 388.868 525.436 387.004C538.752 379.629 552.564 372.866 565.852 365.384C571.801 362.035 578.351 358.536 584.632 355.918ZM543.805 482.988C548.945 479.714 573.836 466.909 579.126 464.795L578.997 464.168C577.804 463.195 576.929 460.89 576.225 459.411L574.797 459.874C567.545 464.275 538.294 479.021 535.299 483.481L535.417 484.39C539.271 486.1 540.233 484.868 543.805 482.988Z"/><path fill="#103672" transform="matrix(0.333333 0 0 0.333008 0.000488281 0)" d="M584.632 355.918L581.401 358.969C583.233 361.216 616.289 378.164 621.253 381.023C629.584 384.423 659.167 400.695 666.904 405.73C669.857 401.199 671.619 401.962 676.794 401.771L682.638 402.274C684.503 403.642 684.514 403.932 685.556 406.095L685.743 407.118C684.349 408.4 682.614 410.11 681.085 411.15L679.898 411.413C674.614 411.994 672.845 411.997 668.151 414.683L663.161 417.69C659.876 419.254 657.667 420.43 654.537 422.285C650.267 424.733 633.362 434.166 629.302 435.811C625.934 437.83 615.102 443.247 613.721 446.604C613.634 446.817 613.352 448.847 613.3 449.263C625.135 456.275 637.674 462.633 649.302 469.54C654.938 471.88 663.854 477.13 669.353 480.286C667.273 482.06 665.273 481.773 662.424 481.895C670.368 486.274 680.17 491.114 687.555 495.915L687.987 499.078C684.565 501.61 671.711 509.308 667.863 510.5C659.915 515.492 630.091 530.118 625.86 534.272L630.889 537.137C640.301 542.568 714.593 580.481 715.798 583.452C715.858 583.599 715.874 583.76 715.911 583.913L717.426 583.246C719.638 578.762 729.397 572.235 734.331 571.305C745.246 561.619 768.477 553.339 780.721 543.528C781.453 542.403 783.301 541.064 784.425 540.156L784.731 542.265L783.984 542.844C782.524 543.986 782.091 544.144 781.782 545.726C783.951 544.508 784.705 544.05 786.613 542.468L786.822 540.646C790.165 537.487 802.395 531.115 806.756 528.795C818.144 522.734 829.226 516.239 840.513 510.005C845.58 507.207 850.502 505.612 855.611 502.215L856.516 502.656L860.967 500.058L861.273 498.481C884.076 485.073 911.303 471.311 934.94 458.482L935.161 460.116C937.216 459.227 939.783 457.772 941.811 456.699C941.766 459.309 941.873 468.771 941.226 470.651C931.54 477.016 916.936 484.656 906.525 490.409L880.962 504.395C879.285 505.011 871.712 509.29 869.868 510.249C855.092 517.931 841.141 527.262 826.689 535.421L753.394 576.593C743.49 582.181 723.03 593.036 715.091 599.345C702.506 590.637 687.909 583.712 674.249 576.585L620.074 548.136C578.942 526.637 540.22 504.354 498.137 483.631C487.76 478.436 477.441 473.126 467.182 467.701C459.456 463.479 451.641 459.422 443.743 455.53L441.443 454.399L432.257 449.802L431.976 441.165C432.12 437.698 432.776 437.702 435.566 436.059L438.341 434.649C439.316 434.4 440.475 433.713 441.412 433.234L443.152 432.55C465.502 420.992 488.697 405.772 511.792 394.471C515.512 391.969 521.477 388.868 525.436 387.004C538.752 379.629 552.564 372.866 565.852 365.384C571.801 362.035 578.351 358.536 584.632 355.918ZM543.805 482.988C548.945 479.714 573.836 466.909 579.126 464.795L578.997 464.168C577.804 463.195 576.929 460.89 576.225 459.411L574.797 459.874C567.545 464.275 538.294 479.021 535.299 483.481L535.417 484.39C539.271 486.1 540.233 484.868 543.805 482.988Z"/><path fill="#28EFF6" fill-opacity="0.98823529" transform="matrix(0.333333 0 0 0.333008 0.000488281 0)" d="M574.797 459.874L576.225 459.411C576.929 460.89 577.804 463.195 578.997 464.168L579.126 464.795C573.836 466.909 548.945 479.714 543.805 482.988C540.233 484.868 539.271 486.1 535.417 484.39L535.299 483.481C538.294 479.021 567.545 464.275 574.797 459.874Z"/><path fill="#1FB9BE" transform="matrix(0.333333 0 0 0.333008 0.000488281 0)" d="M584.632 355.918L581.401 358.969C583.233 361.216 616.289 378.164 621.253 381.023C629.584 384.423 659.167 400.695 666.904 405.73C669.857 401.199 671.619 401.962 676.794 401.771L682.638 402.274C684.503 403.642 684.514 403.932 685.556 406.095L685.743 407.118C684.349 408.4 682.614 410.11 681.085 411.15L679.898 411.413C674.614 411.994 672.845 411.997 668.151 414.683L663.161 417.69C659.876 419.254 657.667 420.43 654.537 422.285C650.267 424.733 633.362 434.166 629.302 435.811C625.934 437.83 615.102 443.247 613.721 446.604C613.634 446.817 613.352 448.847 613.3 449.263C613.074 443.151 613.106 443.726 607.817 440.78C603.133 440.31 601.352 440.289 596.658 440.644C594.649 442.122 593.046 443.135 591.427 445.047L582.486 439.595C578.558 438.915 550.897 423.25 545.796 420.371L506.202 399.707C508.366 398.406 510.225 397.062 512.279 395.611L511.792 394.471C515.512 391.969 521.477 388.868 525.436 387.004C538.752 379.629 552.564 372.866 565.852 365.384C571.801 362.035 578.351 358.536 584.632 355.918Z"/><path fill="#28EFF6" transform="matrix(0.333333 0 0 0.333008 0.000488281 0)" d="M512.279 395.611C516.985 397.315 527.944 404.267 532.983 406.954C549.146 415.733 565.543 424.075 582.156 431.969C583.921 432.824 594.467 438.417 595.493 438.559C599.175 439.068 608.754 439.601 612.436 438.015C615.95 436.501 625.392 429.897 628.499 430.379L626.27 432.108C627.304 433.287 628.479 434.508 629.302 435.811C625.934 437.83 615.102 443.247 613.721 446.604C613.634 446.817 613.352 448.847 613.3 449.263C613.074 443.151 613.106 443.726 607.817 440.78C603.133 440.31 601.352 440.289 596.658 440.644C594.649 442.122 593.046 443.135 591.427 445.047L582.486 439.595C578.558 438.915 550.897 423.25 545.796 420.371L506.202 399.707C508.366 398.406 510.225 397.062 512.279 395.611Z"/><path fill="#ABD3D8" transform="matrix(0.333333 0 0 0.333008 0.000488281 0)" d="M626.27 432.108C627.304 433.287 628.479 434.508 629.302 435.811C625.934 437.83 615.102 443.247 613.721 446.604C613.634 446.817 613.352 448.847 613.3 449.263C613.074 443.151 613.106 443.726 607.817 440.78C612.945 439.825 621.484 434.746 626.27 432.108Z"/><path fill="#30F5F0" transform="matrix(0.333333 0 0 0.333008 0.000488281 0)" d="M582.486 439.595L582.938 439.59C584.596 439.563 584.811 439.586 586.465 439.083C587.046 438.103 587.067 438.265 587.344 437.195L586.533 436.417C590.119 437.803 593.181 439.016 596.658 440.644C594.649 442.122 593.046 443.135 591.427 445.047L582.486 439.595Z"/><path fill="#3289B1" transform="matrix(0.333333 0 0 0.333008 0.000488281 0)" d="M584.632 355.918L581.401 358.969C583.233 361.216 616.289 378.164 621.253 381.023C619.355 381.673 616.819 379.825 615.009 378.935C610.54 376.736 606.232 374.186 601.848 371.822C599.094 370.337 581.185 373.251 575.283 371.665C572.533 370.926 570.414 368.325 567.854 367.193C566.655 366.663 565.731 366.962 564.566 367.392C557.746 369.908 529.702 388.492 525.595 387.103C525.536 387.083 525.489 387.037 525.436 387.004C538.752 379.629 552.564 372.866 565.852 365.384C571.801 362.035 578.351 358.536 584.632 355.918Z"/><path fill="#30F5F0" transform="matrix(0.333333 0 0 0.333008 0.000488281 0)" d="M628.499 430.379C635.461 426.738 644.296 421.572 651.13 418.45C652.427 420.159 652.906 420.93 654.537 422.285C650.267 424.733 633.362 434.166 629.302 435.811C628.479 434.508 627.304 433.287 626.27 432.108L628.499 430.379Z"/><path fill="#FFFDFB" transform="matrix(0.333333 0 0 0.333008 0.000488281 0)" d="M676.794 401.771L682.638 402.274C684.503 403.642 684.514 403.932 685.556 406.095L685.743 407.118C684.349 408.4 682.614 410.11 681.085 411.15L679.898 411.413C674.241 411.249 673.772 411.088 668.722 408.972L666.904 405.73C669.857 401.199 671.619 401.962 676.794 401.771Z"/><path fill="#ABD3D8" transform="matrix(0.333333 0 0 0.333008 0.000488281 0)" d="M668.722 408.972C673.772 411.088 674.241 411.249 679.898 411.413C674.614 411.994 672.845 411.997 668.151 414.683L663.161 417.69C659.876 419.254 657.667 420.43 654.537 422.285C652.906 420.93 652.427 420.159 651.13 418.45C656.408 415.936 663.44 411.842 668.722 408.972Z"/><path fill="#2CA9CE" transform="matrix(0.333333 0 0 0.333008 0.000488281 0)" d="M596.658 440.644C601.352 440.289 603.133 440.31 607.817 440.78C613.106 443.726 613.074 443.151 613.3 449.263C625.135 456.275 637.674 462.633 649.302 469.54C654.938 471.88 663.854 477.13 669.353 480.286C667.273 482.06 665.273 481.773 662.424 481.895C670.368 486.274 680.17 491.114 687.555 495.915L687.987 499.078C684.565 501.61 671.711 509.308 667.863 510.5C659.915 515.492 630.091 530.118 625.86 534.272C602.087 523.201 569.972 505.205 546.641 492.2C544.916 488.942 542.496 488.373 539.111 486.873C541.254 485.858 542.052 485.44 543.985 484.079L543.805 482.988C548.945 479.714 573.836 466.909 579.126 464.795L578.997 464.168C577.804 463.195 576.929 460.89 576.225 459.411C579.193 457.674 585.079 453.979 588.067 452.981C589.358 452.099 590.53 451.179 591.773 450.234C592.611 447.561 592.282 448.239 591.427 445.047C593.046 443.135 594.649 442.122 596.658 440.644Z"/><path fill="#19DBD4" transform="matrix(0.333333 0 0 0.333008 0.000488281 0)" d="M596.658 440.644C601.352 440.289 603.133 440.31 607.817 440.78C613.106 443.726 613.074 443.151 613.3 449.263C625.135 456.275 637.674 462.633 649.302 469.54C654.938 471.88 663.854 477.13 669.353 480.286C667.273 482.06 665.273 481.773 662.424 481.895C670.368 486.274 680.17 491.114 687.555 495.915L687.987 499.078C684.565 501.61 671.711 509.308 667.863 510.5C669.391 508.582 670.847 508.263 671.343 506.605L670.499 505.208C664.884 503.91 664.433 499.188 656.989 496.606C628.844 486.844 607.509 484.754 585.545 462.348C583.014 463.708 582.046 464.378 579.126 464.795L578.997 464.168C577.804 463.195 576.929 460.89 576.225 459.411C579.193 457.674 585.079 453.979 588.067 452.981C589.358 452.099 590.53 451.179 591.773 450.234C592.611 447.561 592.282 448.239 591.427 445.047C593.046 443.135 594.649 442.122 596.658 440.644Z"/><defs><linearGradient id="gradient_5" gradientUnits="userSpaceOnUse" x1="629.70923" y1="477.78998" x2="607.83417" y2="436.03778"><stop offset="0" stop-color="#E3F5F5"/><stop offset="1" stop-color="#FFF7FB"/></linearGradient></defs><path fill="url(#gradient_5)" transform="matrix(0.333333 0 0 0.333008 0.000488281 0)" d="M596.658 440.644C601.352 440.289 603.133 440.31 607.817 440.78C613.106 443.726 613.074 443.151 613.3 449.263C625.135 456.275 637.674 462.633 649.302 469.54C647.614 472.378 648.558 471.449 645.759 473.111C634.498 466.724 622.377 459.351 610.369 454.569C604.322 452.16 597.739 453.118 592.279 456.707C591.039 455.444 589.428 454.148 588.067 452.981C589.358 452.099 590.53 451.179 591.773 450.234C592.611 447.561 592.282 448.239 591.427 445.047C593.046 443.135 594.649 442.122 596.658 440.644Z"/><path fill="#ABD3D8" transform="matrix(0.333333 0 0 0.333008 0.000488281 0)" d="M649.302 469.54C654.938 471.88 663.854 477.13 669.353 480.286C667.273 482.06 665.273 481.773 662.424 481.895C656.985 479.062 650.808 476.432 645.759 473.111C648.558 471.449 647.614 472.378 649.302 469.54Z"/><path fill="#28EFF6" transform="matrix(0.333333 0 0 0.333008 0.000488281 0)" d="M576.225 459.411C579.193 457.674 585.079 453.979 588.067 452.981C589.428 454.148 591.039 455.444 592.279 456.707C589.143 459.108 582.683 462.388 578.997 464.168C577.804 463.195 576.929 460.89 576.225 459.411Z"/><defs><linearGradient id="gradient_6" gradientUnits="userSpaceOnUse" x1="459.6235" y1="477.56802" x2="577.30817" y2="417.92914"><stop offset="0" stop-color="#143E86"/><stop offset="1" stop-color="#18F4CD"/></linearGradient></defs><path fill="url(#gradient_6)" transform="matrix(0.333333 0 0 0.333008 0.000488281 0)" d="M511.792 394.471L512.279 395.611C510.225 397.062 508.366 398.406 506.202 399.707L545.796 420.371C550.897 423.25 578.558 438.915 582.486 439.595L591.427 445.047C592.282 448.239 592.611 447.561 591.773 450.234C590.53 451.179 589.358 452.099 588.067 452.981C585.079 453.979 579.193 457.674 576.225 459.411L574.797 459.874C567.545 464.275 538.294 479.021 535.299 483.481L535.417 484.39C539.271 486.1 540.233 484.868 543.805 482.988L543.985 484.079C542.052 485.44 541.254 485.858 539.111 486.873C542.496 488.373 544.916 488.942 546.641 492.2C522.916 479.192 498.043 467.341 474.074 454.782C466.797 450.969 443.877 439.536 438.341 434.649C439.316 434.4 440.475 433.713 441.412 433.234L443.152 432.55C465.502 420.992 488.697 405.772 511.792 394.471Z"/><path fill="#305593" transform="matrix(0.333333 0 0 0.333008 0.000488281 0)" d="M935.161 460.116C937.216 459.227 939.783 457.772 941.811 456.699C941.766 459.309 941.873 468.771 941.226 470.651C940.846 467.427 940.88 462.437 939.755 459.868L939.453 459.71C939.419 460.947 939.563 463.315 938.352 464.05C933.888 466.761 929.288 469.259 924.761 471.869C911.293 479.776 897.641 487.366 883.816 494.632C871.454 501.036 858.596 506.346 846.62 513.561C843.952 515.168 841.097 516.653 838.235 517.884C833.619 517.417 778.393 552.969 768.777 554.446C769.922 551.725 780.227 548.258 781.782 545.726C783.951 544.508 784.705 544.05 786.613 542.468L786.822 540.646C790.165 537.487 802.395 531.115 806.756 528.795C818.144 522.734 829.226 516.239 840.513 510.005C845.58 507.207 850.502 505.612 855.611 502.215L856.516 502.656L860.967 500.058L861.273 498.481C884.076 485.073 911.303 471.311 934.94 458.482L935.161 460.116Z"/><path fill="#3289B1" transform="matrix(0.333333 0 0 0.333008 0.000488281 0)" d="M855.611 502.215L856.516 502.656C837.756 515.442 815.753 525.589 796.181 537.236C793.263 538.973 789.653 540.987 786.613 542.468L786.822 540.646C790.165 537.487 802.395 531.115 806.756 528.795C818.144 522.734 829.226 516.239 840.513 510.005C845.58 507.207 850.502 505.612 855.611 502.215Z"/><path fill="#7ACBDD" transform="matrix(0.333333 0 0 0.333008 0.000488281 0)" d="M934.94 458.482L935.161 460.116C910.771 472.937 885.502 488.121 860.967 500.058L861.273 498.481C884.076 485.073 911.303 471.311 934.94 458.482Z"/><path fill="#08102F" transform="matrix(0.333333 0 0 0.333008 0.000488281 0)" d="M438.341 434.649C443.877 439.536 466.797 450.969 474.074 454.782C498.043 467.341 522.916 479.192 546.641 492.2C569.972 505.205 602.087 523.201 625.86 534.272L630.889 537.137C640.301 542.568 714.593 580.481 715.798 583.452C715.858 583.599 715.874 583.76 715.911 583.913C710.741 583.261 626.504 537.003 614.772 530.745C569.756 506.581 524.56 482.756 479.186 459.272C472.578 455.883 439.789 438.523 436.406 437.653L435.566 436.059L438.341 434.649Z"/><path fill="#2CA9CE" transform="matrix(0.333333 0 0 0.333008 0.000488281 0)" d="M436.406 437.653C439.789 438.523 472.578 455.883 479.186 459.272C524.56 482.756 569.756 506.581 614.772 530.745C626.504 537.003 710.741 583.261 715.911 583.913L716.053 585.47C710.334 584.102 686.749 570.555 680.296 567.109L616.69 533.51L487.303 465.08C469.87 455.882 453.601 447.801 436.151 438.219L436.406 437.653Z"/><path fill="#3289B1" transform="matrix(0.333333 0 0 0.333008 0.000488281 0)" d="M781.782 545.726C780.227 548.258 769.922 551.725 768.777 554.446C778.393 552.969 833.619 517.417 838.235 517.884C831.442 522.029 715.919 585.486 716.053 585.47L715.911 583.913L717.426 583.246C719.638 578.762 729.397 572.235 734.331 571.305C745.246 561.619 768.477 553.339 780.721 543.528C781.453 542.403 783.301 541.064 784.425 540.156L784.731 542.265L783.984 542.844C782.524 543.986 782.091 544.144 781.782 545.726Z"/><path fill="#208656" transform="matrix(0.333333 0 0 0.333008 0.000488281 0)" d="M498.137 483.631C540.22 504.354 578.942 526.637 620.074 548.136L674.249 576.585C687.909 583.712 702.506 590.637 715.091 599.345C723.03 593.036 743.49 582.181 753.394 576.593L826.689 535.421C841.141 527.262 855.092 517.931 869.868 510.249C871.712 509.29 879.285 505.011 880.962 504.395C884.063 507.372 903.181 516.578 908.076 519.093C870.141 539.254 833.861 560.376 796.531 581.353L683.311 643.991C673.799 638.948 664.256 633.258 654.761 628.049L549.186 569.572C515.517 550.891 479.088 532.476 445.959 513.152L498.137 483.631Z"/><path fill="#208656" transform="matrix(0.333333 0 0 0.333008 0.000488281 0)" d="M683.37 676.783C689.474 674.427 706.546 664.698 712.919 661.181L767.962 630.784L966.453 520.947L966.46 531.813L963.574 535.263C940.016 546.743 913.321 563.444 890.302 576.294L744.227 656.66C725.825 666.617 703.263 682.233 684.122 689.666C683.019 689.068 683.223 689.347 682.472 688.448L683.17 688.089L683.37 676.783Z"/><path fill="#ABD3D8" transform="matrix(0.333333 0 0 0.333008 0.000488281 0)" d="M966.46 531.813L963.574 535.263C940.016 546.743 913.321 563.444 890.302 576.294L744.227 656.66C725.825 666.617 703.263 682.233 684.122 689.666C683.019 689.068 683.223 689.347 682.472 688.448L683.17 688.089C687.672 684.752 710.299 672.904 716.37 669.528C745.81 653.206 775.334 637.034 804.94 621.014L909.95 562.46C927.175 552.872 948.813 540.108 966.46 531.813Z"/><path fill="#1A7752" transform="matrix(0.333333 0 0 0.333008 0.000488281 0)" d="M384.661 513.597C403.06 524.022 421.334 533.29 439.8 543.424L620.359 642.483C641.017 653.936 663.355 664.842 683.37 676.783L683.17 688.089L682.472 688.448C650.217 671.401 616.827 652.439 584.69 634.792C580.43 631.887 572.112 627.755 567.232 625.114L534.652 607.405C507.778 592.701 476.388 574.249 449.303 560.915C446.509 557.619 394.893 532.289 385.451 525.02C384.687 520.932 384.736 517.759 384.661 513.597Z"/><path fill="#7ACBDD" transform="matrix(0.333333 0 0 0.333008 0.000488281 0)" d="M443.166 480.974C443.017 477.25 442.158 457.614 443.743 455.53C451.641 459.422 459.456 463.479 467.182 467.701C460.164 472.457 450.755 477.152 443.166 480.974Z"/><defs><linearGradient id="gradient_7" gradientUnits="userSpaceOnUse" x1="1013.7807" y1="191.20316" x2="1003.749" y2="479.48749"><stop offset="0" stop-color="#003178"/><stop offset="1" stop-color="#5BB0B6"/></linearGradient></defs><path fill="url(#gradient_7)" transform="matrix(0.333333 0 0 0.333008 0.000488281 0)" d="M770.558 105.818C845.054 146.267 919.898 186.071 995.081 225.228L1062.12 260.418C1070.13 264.667 1090.75 275.344 1097.29 280.168C1098.29 286.536 1098 296.402 1098.01 303.132L1098.08 337.557L1098.24 430.035C1098.28 447.059 1097.99 465.354 1098.59 482.267L1097.3 483.208L1096.69 483.544C1080.24 476.491 1056.44 461.632 1040.17 452.491C1019.35 440.794 996.753 429 976.331 417.029C974.001 416.159 961.552 409.209 958.871 407.73C946.291 400.788 932.781 393.821 920.614 386.245C921.326 379.674 920.823 364.536 920.764 357.398C919.84 364.35 922.004 379.647 920.018 385.372L918.868 385.118C917.246 372.87 918.774 353.129 918.444 340.039C917.433 299.93 919.816 259.452 918.582 219.398C918.334 211.316 919.738 201.402 919.334 193.737L918.7 193.585C917.557 196.496 917.669 199.863 917.517 203.059C917.297 198.803 916.938 195.695 918.773 191.76C919.19 190.867 919.227 190.331 919.081 189.343C916.529 185.706 908.085 182.217 903.618 179.708L903.657 178.846C901.229 176.843 890.501 171.358 887.301 169.686L856.529 153.583L803.537 125.2C795.13 120.717 784.409 114.641 775.891 110.816C774.615 109.591 771.944 107.877 770.396 106.812L770.558 105.818Z"/><path fill="#99B0C1" transform="matrix(0.333333 0 0 0.333008 0.000488281 0)" d="M770.558 105.818C845.054 146.267 919.898 186.071 995.081 225.228L1062.12 260.418C1070.13 264.667 1090.75 275.344 1097.29 280.168C1098.29 286.536 1098 296.402 1098.01 303.132L1098.08 337.557L1098.24 430.035C1098.28 447.059 1097.99 465.354 1098.59 482.267L1097.3 483.208C1097.16 478.443 1096.34 474.147 1096.32 468.784C1096.25 443.835 1096.23 418.843 1096.18 393.899C1097.05 357.572 1096.71 317.499 1096.46 281.102C1090.37 276.973 1079.95 271.528 1073.26 267.915C1058.53 260.047 1043.75 252.26 1028.93 244.557L921.022 187.421L920.802 258.699C920.753 255.005 920.929 251.188 919.925 247.602C920.31 243.088 920.013 232.785 920.007 227.968L919.812 187.266C914.574 184.922 909.254 181.37 903.657 178.846C901.229 176.843 890.501 171.358 887.301 169.686L856.529 153.583L803.537 125.2C795.13 120.717 784.409 114.641 775.891 110.816C774.615 109.591 771.944 107.877 770.396 106.812L770.558 105.818Z"/><path fill="#08102F" transform="matrix(0.333333 0 0 0.333008 0.000488281 0)" d="M903.657 178.846C909.254 181.37 914.574 184.922 919.812 187.266L920.007 227.968C920.013 232.785 920.31 243.088 919.925 247.602C918.687 271.17 919.804 304.547 919.811 328.861L919.757 364.701C919.747 370.361 919.477 380.019 920.018 385.372L918.868 385.118C917.246 372.87 918.774 353.129 918.444 340.039C917.433 299.93 919.816 259.452 918.582 219.398C918.334 211.316 919.738 201.402 919.334 193.737L918.7 193.585C917.557 196.496 917.669 199.863 917.517 203.059C917.297 198.803 916.938 195.695 918.773 191.76C919.19 190.867 919.227 190.331 919.081 189.343C916.529 185.706 908.085 182.217 903.618 179.708L903.657 178.846Z"/><path fill="#F0D6BA" transform="matrix(0.333333 0 0 0.333008 0.000488281 0)" d="M996.723 257.969C1004.9 261.336 1028.26 274.066 1035.89 278.807C1035.57 285.483 1035.68 292.124 1035.73 298.806C1029.7 301.897 1000.56 317.598 996.651 318.428C987.091 312.437 971.182 306.761 959.459 299.386C959.131 293.057 959.433 286.347 959.135 279.8C971.918 272.97 984.456 265.688 996.723 257.969Z"/><path fill="#EEA261" transform="matrix(0.333333 0 0 0.333008 0.000488281 0)" d="M959.135 279.8C971.918 272.97 984.456 265.688 996.723 257.969C996.112 270.037 996.437 286.08 996.578 298.426L996.442 299.285C996.489 305.059 996.32 312.819 996.651 318.428C987.091 312.437 971.182 306.761 959.459 299.386C959.131 293.057 959.433 286.347 959.135 279.8Z"/><path fill="#947648" transform="matrix(0.333333 0 0 0.333008 0.000488281 0)" d="M959.135 279.8C971.694 286.345 984.202 291.856 996.442 299.285C996.489 305.059 996.32 312.819 996.651 318.428C987.091 312.437 971.182 306.761 959.459 299.386C959.131 293.057 959.433 286.347 959.135 279.8Z"/><path fill="#EBB481" transform="matrix(0.333333 0 0 0.333008 0.000488281 0)" d="M1035.89 278.807C1035.57 285.483 1035.68 292.124 1035.73 298.806C1029.7 301.897 1000.56 317.598 996.651 318.428C996.32 312.819 996.489 305.059 996.442 299.285L996.578 298.426C1001.84 297.658 1030.53 282.499 1035.89 278.807Z"/><defs><linearGradient id="gradient_8" gradientUnits="userSpaceOnUse" x1="858.05005" y1="258.4455" x2="859.42517" y2="532.54712"><stop offset="0" stop-color="#A0C6CC"/><stop offset="1" stop-color="#C1E9EE"/></linearGradient></defs><path fill="url(#gradient_8)" transform="matrix(0.333333 0 0 0.333008 0.000488281 0)" d="M684.419 259.479C714.986 275.033 745.009 291.785 775.812 307.512L869.388 358.35C883.315 365.878 906.166 377.1 918.868 385.118L920.018 385.372C922.004 379.647 919.84 364.35 920.764 357.398C920.823 364.536 921.326 379.674 920.614 386.245C919.442 391.958 919.842 425.221 920.148 432.136C932.73 440.555 947.627 447.258 961.373 453.78C988.291 466.553 1013.4 480.301 1039.23 494.971C1028.38 501.266 1014.94 508.046 1003.71 514.023C993.465 519.477 973.295 532.265 963.574 535.263L966.46 531.813L966.453 520.947C948.393 510.147 925.519 499.503 906.525 490.409C916.936 484.656 931.54 477.016 941.226 470.651C941.873 468.771 941.766 459.309 941.811 456.699C939.783 457.772 937.216 459.227 935.161 460.116L934.94 458.482C933.399 457.1 911.763 445.776 907.783 443.734C889.786 434.497 871.07 423.175 852.84 414.715L847.957 417.635C848.975 415.716 849.153 416.155 848.744 414.589L845.323 412.998C844.157 409.934 766.577 367.567 759.188 365.925C757.396 364.88 755.615 363.981 753.774 363.032C736.489 373.147 716.841 384.797 698.986 393.853C695.377 395.898 686.378 401.024 682.638 402.274L676.794 401.771C675.664 401.698 672.322 401.462 671.406 400.991C661.183 395.731 643.268 387.09 634.276 381.044C623.112 376.431 611.233 368.899 600.407 363.414C596.126 361.245 589.044 357.156 584.632 355.918L584.694 355.55L585.78 355.217C603.877 345.73 622.367 336.543 640.33 326.973L640.594 326.741C644.09 323.618 659.226 315.653 664.753 311.909C669.362 313.88 675.321 316.98 679.924 319.23C680.013 308.945 679.444 266.366 681.425 259.908L684.419 259.479Z"/><defs><linearGradient id="gradient_9" gradientUnits="userSpaceOnUse" x1="681.276" y1="322.18436" x2="660.36493" y2="385.77686"><stop offset="0" stop-color="#365194"/><stop offset="1" stop-color="#1AA1B7"/></linearGradient></defs><path fill="url(#gradient_9)" transform="matrix(0.333333 0 0 0.333008 0.000488281 0)" d="M663.958 315.185C690.747 329.33 717.709 343.021 744.152 357.823C747.22 359.541 750.632 361.5 753.774 363.032C736.489 373.147 716.841 384.797 698.986 393.853C695.377 395.898 686.378 401.024 682.638 402.274L676.794 401.771C675.664 401.698 672.322 401.462 671.406 400.991C661.183 395.731 643.268 387.09 634.276 381.044C623.112 376.431 611.233 368.899 600.407 363.414C596.126 361.245 589.044 357.156 584.632 355.918L584.694 355.55L585.78 355.217C603.877 345.73 622.367 336.543 640.33 326.973C646.502 324.765 657.629 318.467 663.958 315.185Z"/><path fill="#1FB9BE" transform="matrix(0.333333 0 0 0.333008 0.000488281 0)" d="M621.94 373.702C637.143 368.438 670.608 373.995 685.441 381.126C692.678 384.606 695.521 386.86 698.986 393.853C695.377 395.898 686.378 401.024 682.638 402.274L676.794 401.771C675.664 401.698 672.322 401.462 671.406 400.991C661.183 395.731 643.268 387.09 634.276 381.044C632.965 378.522 625.1 375.243 621.94 373.702Z"/><path fill="#52AFEE" transform="matrix(0.333333 0 0 0.333008 0.000488281 0)" d="M664.753 311.909C669.362 313.88 675.321 316.98 679.924 319.23C755.56 357.714 830.697 397.171 905.317 437.592C911.139 440.711 939.207 453.881 941.811 456.699C939.783 457.772 937.216 459.227 935.161 460.116L934.94 458.482C933.399 457.1 911.763 445.776 907.783 443.734C889.786 434.497 871.07 423.175 852.84 414.715L847.957 417.635C848.975 415.716 849.153 416.155 848.744 414.589L845.323 412.998C844.157 409.934 766.577 367.567 759.188 365.925C757.396 364.88 755.615 363.981 753.774 363.032C750.632 361.5 747.22 359.541 744.152 357.823C717.709 343.021 690.747 329.33 663.958 315.185C657.629 318.467 646.502 324.765 640.33 326.973L640.594 326.741C644.09 323.618 659.226 315.653 664.753 311.909Z"/><path fill="#7ACBDD" transform="matrix(0.333333 0 0 0.333008 0.000488281 0)" d="M585.021 308.698C592.116 305.362 602.421 299.4 609.704 295.567C624.868 287.694 639.993 279.743 655.075 271.714C662.945 267.442 671.696 262.06 679.87 258.199C681.295 257.526 682.885 258.725 684.419 259.479L681.425 259.908C679.444 266.366 680.013 308.945 679.924 319.23C675.321 316.98 669.362 313.88 664.753 311.909C659.226 315.653 644.09 323.618 640.594 326.741L640.33 326.973C622.367 336.543 603.877 345.73 585.78 355.217L584.694 355.55C583.751 347.164 584.618 314.333 583.133 310.002L585.171 309.176L585.021 308.698Z"/><path fill="#1FB9BE" transform="matrix(0.333333 0 0 0.333008 0.000488281 0)" d="M585.171 309.176C585.805 316.305 584.301 351.601 585.78 355.217L584.694 355.55C583.751 347.164 584.618 314.333 583.133 310.002L585.171 309.176Z"/><path fill="#103672" transform="matrix(0.333333 0 0 0.333008 0.000488281 0)" d="M585.122 150.607C586.01 183.043 585.432 218.454 585.396 251.069L585.316 288.265C585.298 293.911 585.51 303.277 585.021 308.698L584.385 308.105C583.2 304.347 583.724 156.129 585.122 150.607Z"/><path fill="#103672" transform="matrix(0.333333 0 0 0.333008 0.000488281 0)" d="M775.87 134.289C778.287 147.437 777.035 160.354 776.841 173.629C776.374 205.577 777.368 237.551 776.921 269.487C776.828 276.122 777.108 285.981 775.902 292.226C775.607 239.58 775.597 186.934 775.87 134.289Z"/><path fill="#F0D6BA" transform="matrix(0.333333 0 0 0.333008 0.000488281 0)" d="M680.097 97.2113C682.392 97.5743 723.936 120.294 725.728 122.17C726.043 123.446 726.147 123.47 726.158 124.758C725.869 131.938 725.871 138.956 725.857 146.139C719.525 149.777 685.879 170.349 680.628 170.047C665.656 161.634 649.359 152.751 635.256 143.127C635.201 136.431 635.202 129.734 635.261 123.038C645.223 115.854 668.448 104.103 680.097 97.2113Z"/><path fill="#EEA261" transform="matrix(0.333333 0 0 0.333008 0.000488281 0)" d="M635.261 123.038C645.223 115.854 668.448 104.103 680.097 97.2113C679.292 111.952 680.371 133.539 680.521 148.86C680.527 155.189 680.267 163.913 680.628 170.047C665.656 161.634 649.359 152.751 635.256 143.127C635.201 136.431 635.202 129.734 635.261 123.038Z"/><path fill="#208656" transform="matrix(0.333333 0 0 0.333008 0.000488281 0)" d="M635.261 123.038C647.373 128.734 669.986 140.571 680.521 148.86C680.527 155.189 680.267 163.913 680.628 170.047C665.656 161.634 649.359 152.751 635.256 143.127C635.201 136.431 635.202 129.734 635.261 123.038Z"/><path fill="#B7E07C" transform="matrix(0.333333 0 0 0.333008 0.000488281 0)" d="M680.521 148.86C685.747 147.266 698.084 139.564 703.503 136.651C710.985 132.63 718.573 128.667 726.158 124.758C725.869 131.938 725.871 138.956 725.857 146.139C719.525 149.777 685.879 170.349 680.628 170.047C680.267 163.913 680.527 155.189 680.521 148.86Z"/><defs><linearGradient id="gradient_10" gradientUnits="userSpaceOnUse" x1="146.48077" y1="734.16876" x2="693.58368" y2="639.29126"><stop offset="0" stop-color="#2F8CC2"/><stop offset="1" stop-color="#44CEF2"/></linearGradient></defs><path fill="url(#gradient_10)" transform="matrix(0.333333 0 0 0.333008 0.000488281 0)" d="M269.13 531.958C277.461 527.488 285.55 521.512 294.023 517.127C340.276 493.186 385.31 463.815 431.976 441.165L432.257 449.802L441.443 454.399L443.743 455.53C442.158 457.614 443.017 477.25 443.166 480.974L442.287 481.652C424.889 489.723 402.585 504.031 384.661 513.597C384.736 517.759 384.687 520.932 385.451 525.02C394.893 532.289 446.509 557.619 449.303 560.915C476.388 574.249 507.778 592.701 534.652 607.405L567.232 625.114C572.112 627.755 580.43 631.887 584.69 634.792C583.073 638.307 584.378 644.377 583.718 648.723L583.776 681.524C584.195 688.066 583.53 697.636 584.271 703.196C606.707 715.156 629.02 727.345 651.206 739.761C658.109 743.61 677.156 753.781 682.702 757.874C682.457 765.254 682.495 772.142 682.587 779.53C684.674 782.903 682.02 798.328 683.926 801.48C689.971 802.601 709.535 785.565 714.76 786.426C708.723 790.131 691.097 798.764 704.596 805.61C707.006 809.24 707.41 812.444 712.043 813.595C718.357 815.163 719.897 826.636 722.571 831.258C723.926 833.603 728.014 831.816 727.263 837.653C724.743 841.161 723.319 839.993 722.124 842.813C724.646 841.664 725.755 840.986 728.587 840.883L728.949 841.516C725.327 845.517 724.519 845.961 720.982 850.568C721.133 852.138 720.765 851.578 721.783 852.465C709.028 860.342 694.583 867.415 681.612 875.268C667.54 865.793 640.714 851.931 625.001 843.247L516.225 783.464L236.945 629.053C197.616 607.213 157.414 586.729 118.386 564.307C116.268 563.09 115.932 563.018 115.201 560.804C135.693 550.352 262.304 485.665 268.336 477.431L268.676 478.615C268.601 485.544 267.765 528.566 269.13 531.958Z"/><defs><linearGradient id="gradient_11" gradientUnits="userSpaceOnUse" x1="413.66705" y1="727.13141" x2="537.76691" y2="608.55048"><stop offset="0" stop-color="#206CB6"/><stop offset="1" stop-color="#1C83C9"/></linearGradient></defs><path fill="url(#gradient_11)" transform="matrix(0.333333 0 0 0.333008 0.000488281 0)" d="M269.13 531.958C277.461 527.488 285.55 521.512 294.023 517.127C340.276 493.186 385.31 463.815 431.976 441.165L432.257 449.802L441.443 454.399L443.743 455.53C442.158 457.614 443.017 477.25 443.166 480.974L442.287 481.652C424.889 489.723 402.585 504.031 384.661 513.597C384.736 517.759 384.687 520.932 385.451 525.02C394.893 532.289 446.509 557.619 449.303 560.915C476.388 574.249 507.778 592.701 534.652 607.405L567.232 625.114C572.112 627.755 580.43 631.887 584.69 634.792C583.073 638.307 584.378 644.377 583.718 648.723L583.776 681.524C584.195 688.066 583.53 697.636 584.271 703.196C606.707 715.156 629.02 727.345 651.206 739.761C658.109 743.61 677.156 753.781 682.702 757.874C682.457 765.254 682.495 772.142 682.587 779.53C682.097 783.548 682.409 799.238 682.392 804.116C666.135 794.441 646.166 784.043 629.384 774.891L536.278 724.291L269.714 578.502C269.618 572.59 269.029 536.124 269.904 532.786L269.13 531.958Z"/><path fill="#7ACBDD" transform="matrix(0.333333 0 0 0.333008 0.000488281 0)" d="M269.13 531.958C277.461 527.488 285.55 521.512 294.023 517.127C340.276 493.186 385.31 463.815 431.976 441.165L432.257 449.802L441.443 454.399L443.743 455.53C442.158 457.614 443.017 477.25 443.166 480.974L442.287 481.652C424.889 489.723 402.585 504.031 384.661 513.597C384.736 517.759 384.687 520.932 385.451 525.02C394.893 532.289 446.509 557.619 449.303 560.915C447.443 560.931 446.784 560.59 445.091 559.817C444.138 581.982 445.482 604.635 445.118 626.855L269.904 532.786L269.13 531.958Z"/><path fill="#1FB9BE" transform="matrix(0.333333 0 0 0.333008 0.000488281 0)" d="M441.443 454.399L443.743 455.53C442.158 457.614 443.017 477.25 443.166 480.974L442.287 481.652C441.402 477.76 441.431 459.301 441.443 454.399Z"/><path fill="#ABD3D8" transform="matrix(0.333333 0 0 0.333008 0.000488281 0)" d="M445.118 626.855C445.482 604.635 444.138 581.982 445.091 559.817C446.784 560.59 447.443 560.931 449.303 560.915C476.388 574.249 507.778 592.701 534.652 607.405L567.232 625.114C572.112 627.755 580.43 631.887 584.69 634.792C583.073 638.307 584.378 644.377 583.718 648.723L583.776 681.524C584.195 688.066 583.53 697.636 584.271 703.196L528.333 672.665C500.359 657.826 472.618 642.554 445.118 626.855Z"/><path fill="#7ACBDD" transform="matrix(0.333333 0 0 0.333008 0.000488281 0)" d="M583.718 648.723L583.776 681.524C582.33 676.055 581.321 652.846 583.718 648.723Z"/><defs><linearGradient id="gradient_12" gradientUnits="userSpaceOnUse" x1="344.11185" y1="195.61961" x2="380.63452" y2="462.25388"><stop offset="0" stop-color="#042F6C"/><stop offset="1" stop-color="#4EA0AE"/></linearGradient></defs><path fill="url(#gradient_12)" transform="matrix(0.333333 0 0 0.333008 0.000488281 0)" d="M455.12 180.161L455.242 181.463C450.127 185.035 444.52 186.772 440.668 189.372L442.189 189.885C442.896 195.533 442.383 207.103 442.378 213.399L442.467 259.726L442.623 342.409C442.641 356.097 443.073 371.985 442.569 385.487L442.624 385.951C442.618 392.025 442.003 429.907 443.152 432.55L441.412 433.234C440.475 433.713 439.316 434.4 438.341 434.649L435.566 436.059C432.776 437.702 432.12 437.698 431.976 441.165C385.31 463.815 340.276 493.186 294.023 517.127C285.55 521.512 277.461 527.488 269.13 531.958C267.765 528.566 268.601 485.544 268.676 478.615L269.956 478.058C269.407 474.914 269.804 465.559 269.848 461.844C269.912 453.041 269.925 444.238 269.887 435.436C269.858 420.848 269.87 406.243 269.708 391.661C269.59 381.071 268.867 370.469 269.048 359.88C268.985 364.665 269.127 376.722 268.552 380.893C268.141 377.386 268.186 373.851 268.195 370.322C268.264 343.469 267.783 316.644 267.354 289.801C267.306 286.789 267.8 283.029 268.77 280.171C273.801 276.242 301.113 262.44 308.384 258.601L394.339 213.111C405.464 207.264 416.519 201.284 427.5 195.171C437.963 189.246 443.722 184.947 455.12 180.161Z"/><path fill="#ABD3D8" transform="matrix(0.333333 0 0 0.333008 0.000488281 0)" d="M440.676 386.379L441.021 386.141L442.624 385.951C442.618 392.025 442.003 429.907 443.152 432.55L441.412 433.234C440.475 433.713 439.316 434.4 438.341 434.649L435.566 436.059C432.776 437.702 432.12 437.698 431.976 441.165C385.31 463.815 340.276 493.186 294.023 517.127C285.55 521.512 277.461 527.488 269.13 531.958C267.765 528.566 268.601 485.544 268.676 478.615L269.956 478.058C277.948 474.444 289.193 468.09 297.077 463.844L342.506 439.322C366.222 426.679 389.875 413.917 413.464 401.036C422.39 396.181 431.948 391.437 440.676 386.379Z"/><path fill="#2CA9CE" transform="matrix(0.333333 0 0 0.333008 0.000488281 0)" d="M440.676 386.379L441.021 386.141L442.624 385.951C442.618 392.025 442.003 429.907 443.152 432.55L441.412 433.234C441.127 426.555 442.509 389.049 440.676 386.379Z"/><path fill="#08102F" transform="matrix(0.333333 0 0 0.333008 0.000488281 0)" d="M440.668 189.372L442.189 189.885C442.896 195.533 442.383 207.103 442.378 213.399L442.467 259.726L442.623 342.409C442.641 356.097 443.073 371.985 442.569 385.487L442.624 385.951L441.021 386.141C441.599 379.738 441.189 347.233 440.591 340.853L440.321 245.799C440.235 228.393 440.563 208.414 439.766 191.158L439.556 190.556L440.668 189.372Z"/><path fill="#2B74A6" transform="matrix(0.333333 0 0 0.333008 0.000488281 0)" d="M439.766 191.158C440.563 208.414 440.235 228.393 440.321 245.799L440.591 340.853C439.286 335.526 439.259 321.859 439.157 315.734C439.702 310.16 439.247 292.373 439.245 285.62L439.156 221.886C439.137 215.111 438.739 197.161 439.766 191.158Z"/><path fill="#EEA261" transform="matrix(0.333333 0 0 0.333008 0.000488281 0)" d="M363.46 259.531C366.894 261.138 369.519 262.29 372.677 264.376C381.226 268.587 394.385 275.831 402.546 280.872L402.62 297.341C400.616 298.498 396.337 301.114 394.396 301.738C390.229 304.379 373.555 313.878 369.303 315.702C366.749 317.433 366.167 317.653 363.241 318.678C352.652 313.208 337.369 303.553 326.674 297.284L326.601 280.437C338.524 273.411 351.34 266.517 363.46 259.531Z"/><path fill="#EBB481" transform="matrix(0.333333 0 0 0.333008 0.000488281 0)" d="M373.435 296.233L371.507 296.437C370.585 292.528 374.729 279.282 372.815 273.524C372.535 272.683 374.981 269.224 374.732 266.718L372.471 265.608L372.677 264.376C381.226 268.587 394.385 275.831 402.546 280.872L402.62 297.341C400.616 298.498 396.337 301.114 394.396 301.738C390.229 304.379 373.555 313.878 369.303 315.702C369.09 315.496 368.294 315.258 367.959 315.133L365.241 316.612L364.55 316.142C363.838 312.483 364.189 305.918 364.261 301.979L373.75 296.687L373.435 296.233Z"/><path fill="#F0D6BA" transform="matrix(0.333333 0 0 0.333008 0.000488281 0)" d="M373.435 296.233L371.507 296.437C370.585 292.528 374.729 279.282 372.815 273.524C372.535 272.683 374.981 269.224 374.732 266.718L372.471 265.608L372.677 264.376C381.226 268.587 394.385 275.831 402.546 280.872L402.62 297.341C400.616 298.498 396.337 301.114 394.396 301.738C393.541 301.52 393.877 301.754 393.373 301.06C403.204 297.16 401.178 293.535 400.909 283.732C394.583 286.491 378.1 292.309 373.435 296.233Z"/><path fill="#CB5B32" transform="matrix(0.333333 0 0 0.333008 0.000488281 0)" d="M326.601 280.437C335.42 284.129 354.257 296.317 363.214 301.738L363.241 318.678C352.652 313.208 337.369 303.553 326.674 297.284L326.601 280.437Z"/><path fill="#103672" fill-opacity="0.98823529" transform="matrix(0.333333 0 0 0.333008 0.000488281 0)" d="M150.405 638.152C144.841 632.501 127.652 625.4 121.419 617.873C118.907 614.839 116.229 611.694 115.24 607.478C112.081 594.006 113.686 578.44 113.206 564.593C113.123 562.185 113.853 561.973 115.201 560.804C115.932 563.018 116.268 563.09 118.386 564.307C157.414 586.729 197.616 607.213 236.945 629.053L516.225 783.464L625.001 843.247C640.714 851.931 667.54 865.793 681.612 875.268C681.714 886.49 681.729 897.713 681.656 908.935C681.628 914.364 681.3 923.275 681.739 928.492C679.785 928.353 581.099 873.163 571.151 867.692L157.926 640.244C158.257 638.655 158.429 638.61 157.914 637.118C155.333 635.719 153.745 634.998 150.98 636.277L150.405 638.152Z"/><defs><linearGradient id="gradient_13" gradientUnits="userSpaceOnUse" x1="491.60986" y1="159.73645" x2="534.67139" y2="363.62537"><stop offset="0" stop-color="#07205A" stop-opacity="0.91764706"/><stop offset="1" stop-color="#2D7382"/></linearGradient></defs><path fill="url(#gradient_13)" transform="matrix(0.333333 0 0 0.333008 0.000488281 0)" d="M490.403 160.948L490.821 161.698C494.428 162.37 507.111 151.79 511.073 152.463C507.385 156.922 484.002 168.519 476.73 173.57L477.02 173.795C481.119 172.221 483.307 174.116 486.761 173.49C495.188 171.961 504.118 165.358 512.677 167.166C517.702 168.228 517.238 163.924 519.297 162.323C519.49 163.792 519.623 164.763 519.973 166.23C522.258 166.651 537.696 158.807 541.656 158.198C546.368 157.473 550.636 157.989 555.308 157.446C558.284 157.099 561.818 154.145 565.117 154.526C572.297 154.989 573.21 151.599 574.883 145.599C575.883 141.811 578.046 142.58 581.367 140.887C584.471 135.385 583.449 120.134 584.745 113.141C585.313 119.728 585.583 143.722 585.122 150.607C583.724 156.129 583.2 304.347 584.385 308.105L585.021 308.698L585.171 309.176L583.133 310.002L487.61 361.545C474.639 368.515 455.599 379.474 442.569 385.487C443.073 371.985 442.641 356.097 442.623 342.409L442.467 259.726L442.378 213.399C442.383 207.103 442.896 195.533 442.189 189.885L440.668 189.372C444.52 186.772 450.127 185.035 455.242 181.463L455.12 180.161C456.438 178.42 486.432 162.762 490.403 160.948Z"/><path fill="#7ACBDD" transform="matrix(0.333333 0 0 0.333008 0.000488281 0)" d="M583.133 310.002C584.618 314.333 583.751 347.164 584.694 355.55L584.632 355.918C578.351 358.536 571.801 362.035 565.852 365.384C552.564 372.866 538.752 379.629 525.436 387.004C521.477 388.868 515.512 391.969 511.792 394.471C488.697 405.772 465.502 420.992 443.152 432.55C442.003 429.907 442.618 392.025 442.624 385.951L442.569 385.487C455.599 379.474 474.639 368.515 487.61 361.545L583.133 310.002Z"/><path fill="#305593" fill-opacity="0.85882354" transform="matrix(0.333333 0 0 0.333008 0.000488281 0)" d="M852.24 418.238C875.198 429.49 897.418 442.374 920.475 453.459C922.705 454.531 925.322 455.788 926.609 457.959C926.011 460.123 924.689 460.934 922.765 462.015C914.109 466.877 862.569 494.887 856.229 493.21C851.13 491.862 846.381 487.04 841.044 487.002C840.771 487 840.497 486.984 840.223 486.987C840.058 486.988 839.893 487.005 839.728 487.014C837.014 486.165 823.959 478.947 820.745 477.223C807.204 469.809 793.553 462.599 779.796 455.595L783.807 453.743C807.528 448.055 830.644 429.815 852.24 418.238Z"/><path fill="#103672" fill-opacity="0.86666667" transform="matrix(0.333333 0 0 0.333008 0.000488281 0)" d="M583.3 110.536L583.032 111.708L584.752 112.664L584.745 113.141C583.449 120.134 584.471 135.385 581.367 140.887C578.046 142.58 575.883 141.811 574.883 145.599C573.21 151.599 572.297 154.989 565.117 154.526C561.818 154.145 558.284 157.099 555.308 157.446C550.636 157.989 546.368 157.473 541.656 158.198C537.696 158.807 522.258 166.651 519.973 166.23C519.623 164.763 519.49 163.792 519.297 162.323C517.238 163.924 517.702 168.228 512.677 167.166C504.118 165.358 495.188 171.961 486.761 173.49C483.307 174.116 481.119 172.221 477.02 173.795L476.73 173.57C484.002 168.519 507.385 156.922 511.073 152.463C507.111 151.79 494.428 162.37 490.821 161.698L490.403 160.948C515.405 145.385 543.391 133.032 568.883 118.169C573.632 115.4 577.862 111.544 583.3 110.536Z"/><path fill="#28EFF6" fill-opacity="0.98823529" transform="matrix(0.333333 0 0 0.333008 0.000488281 0)" d="M584.632 355.918C589.044 357.156 596.126 361.245 600.407 363.414C611.233 368.899 623.112 376.431 634.276 381.044C643.268 387.09 661.183 395.731 671.406 400.991C672.322 401.462 675.664 401.698 676.794 401.771C671.619 401.962 669.857 401.199 666.904 405.73C659.167 400.695 629.584 384.423 621.253 381.023C616.289 378.164 583.233 361.216 581.401 358.969L584.632 355.918Z"/><defs><linearGradient id="gradient_14" gradientUnits="userSpaceOnUse" x1="723.04315" y1="495.2847" x2="706.6853" y2="493.83789"><stop offset="0" stop-color="#24A8C8"/><stop offset="1" stop-color="#35D3E2"/></linearGradient></defs><path fill="url(#gradient_14)" transform="matrix(0.333333 0 0 0.333008 0.000488281 0)" d="M705.802 494.825C712.719 492.983 737.265 478.111 746.705 473.749C744.82 476.851 728.957 484.318 724.203 487.366C724.128 494.806 723.543 498.017 720.113 504.594C724.114 506.689 739.127 513.918 740.564 516.852C728.807 510.701 717.832 504.578 705.729 499.062L705.802 494.825Z"/><path fill="#7ACBDD" fill-opacity="0.98823529" transform="matrix(0.333333 0 0 0.333008 0.000488281 0)" d="M269.048 359.88C268.867 370.469 269.59 381.071 269.708 391.661C269.87 406.243 269.858 420.848 269.887 435.436C269.925 444.238 269.912 453.041 269.848 461.844C269.804 465.559 269.407 474.914 269.956 478.058L268.676 478.615L268.336 477.431C268.934 468.438 268.531 454.761 268.536 445.239L268.552 380.893C269.127 376.722 268.985 364.665 269.048 359.88Z"/><path fill="#FFFDFB" transform="matrix(0.333333 0 0 0.333008 0.000488281 0)" d="M772.436 453.204C774.517 453.725 776.027 453.834 777.462 455.35C777.467 457.288 777.77 456.441 776.442 457.943C774.929 458.584 774.085 458.839 772.711 459.756L771.144 460.291C768.806 458.696 768.646 459.119 767.611 456.938C768.403 455.028 770.528 454.253 772.436 453.204Z"/></svg>