<?xml version="1.0" encoding="utf-8" ?><svg xmlns="http://www.w3.org/2000/svg" xmlns:xlink="http://www.w3.org/1999/xlink" width="455" height="341" viewBox="0 0 455 341"><path fill="#A3EEF4" transform="scale(0.333333 0.333008)" d="M999.006 399.983C1001.4 401.445 1005.29 403.152 1007.92 404.399L1009.8 405.511C1015.73 408.875 1020.72 411.564 1026.85 414.532C1046.36 424.283 1065.81 434.447 1085.21 444.434C1125.08 464.959 1166.32 483.823 1205.08 506.246C1216.55 512.883 1236.72 521.16 1246.36 527.724C1247.64 535.476 1248.06 576.75 1246.1 578.322C1232.18 589.505 1152.57 628.531 1137.18 636.955C1135.28 639.05 1132.22 641.19 1129.92 642.951C1139.01 649.757 1145.35 650.988 1154.69 656.042C1172.33 665.595 1196.62 675.729 1213.14 686.094C1203.41 692.478 1182.23 702.747 1171.62 708.288C1145.82 722.076 1119.87 735.574 1093.77 748.778L890.758 854.681C837.684 882.294 784.667 910.932 731.184 937.679C719.516 943.514 693.553 958.547 682.765 962.183C667.329 954.693 648.954 944.258 633.433 936.133L542.127 888.834L310.676 770.127C269.376 748.97 228.391 727.203 187.735 704.833C180.55 700.886 173.302 697.054 165.994 693.34C162.757 691.69 154 687.542 151.463 685.553C151.529 685.385 151.572 685.207 151.661 685.05C153.982 680.995 216.124 653.227 225.344 648.935C228.794 647.329 231.725 644.055 235.519 643.48C235.853 643.43 236.188 643.39 236.522 643.345C236.462 642.265 230.124 639.041 227.164 636.228L170.717 605.597C154.348 596.91 135.827 587.58 119.969 578.295C119.093 562.876 120.251 546.034 119.702 530.427C123.078 527.213 164.486 506.394 171.659 502.642L302.171 433.067C314.436 426.5 326.733 419.994 339.063 413.552C346.17 409.811 354.843 405.55 361.452 401.227C365.973 403.415 384.239 412.835 388.115 414.183L388.848 414.665C387.833 427.084 388.891 442.263 388.495 454.844C388.378 458.552 388.713 466.709 388.137 470.024C388.119 474.529 387.821 490.222 388.347 493.842C388.359 499.235 388.506 505.209 388.14 510.545L388.037 527.11C408.417 537.767 428.853 548.315 449.346 558.752C453.24 560.755 466.914 568.598 470.46 569.606C483.062 576.602 497.038 583.797 509.935 590.277L516.496 593.623L524.382 597.86L535.53 603.524C540.093 605.864 544.676 608.162 549.28 610.419C553.86 612.794 573.229 623.238 576.997 624.546C580.112 626.284 582.523 627.671 585.829 629.038C588.814 631.321 595.689 634.483 599.318 636.423C608.969 641.583 619.241 646.345 628.757 651.726C640.7 658.057 656.944 667.058 668.976 672.46L669.431 672.625C671.796 674.077 681.581 680.404 683.455 680.112C701.316 669.789 724.235 658.575 742.922 648.903C750.925 645.199 759.598 640.189 767.593 636.122C790.624 624.439 813.59 612.627 836.49 600.687C881.872 577.355 929.895 553.778 974.68 529.678C974.733 520.816 974.637 511.954 974.391 503.095C974.603 501.638 974.454 495.932 974.442 494.142L974.709 493.439C974.235 485.612 974.514 475.014 974.488 466.98L974.421 412.881L975.291 412.28C983.154 408.748 991.398 404.133 999.006 399.983Z"/><defs><linearGradient id="gradient_0" gradientUnits="userSpaceOnUse" x1="910.18463" y1="796.33759" x2="1086.1516" y2="445.32254"><stop offset="0" stop-color="#74BBC6"/><stop offset="1" stop-color="#9CE6ED"/></linearGradient></defs><path fill="url(#gradient_0)" transform="scale(0.333333 0.333008)" d="M999.006 399.983C1001.4 401.445 1005.29 403.152 1007.92 404.399L1009.8 405.511C1015.73 408.875 1020.72 411.564 1026.85 414.532C1046.36 424.283 1065.81 434.447 1085.21 444.434C1125.08 464.959 1166.32 483.823 1205.08 506.246C1216.55 512.883 1236.72 521.16 1246.36 527.724C1247.64 535.476 1248.06 576.75 1246.1 578.322C1232.18 589.505 1152.57 628.531 1137.18 636.955C1123.72 642.621 1101.13 655.271 1087.46 662.288L973.044 721.75L820.088 801.264C774.577 824.629 726.844 848.086 682.357 873.056C683.321 861.786 682.652 832.266 682.41 820.365C708.747 806.499 735.224 792.899 761.836 779.568C759.53 777.321 690.564 743.753 684.421 741.59L681.981 741.951C681.488 732.116 682.125 719.626 681.91 709.283C685.319 707.83 689.313 705.877 692.628 704.137C720.958 689.268 749.825 675.406 778.07 660.393C772.128 657.524 748.963 650.211 742.922 648.903C750.925 645.199 759.598 640.189 767.593 636.122C790.624 624.439 813.59 612.627 836.49 600.687C881.872 577.355 929.895 553.778 974.68 529.678C974.733 520.816 974.637 511.954 974.391 503.095C974.603 501.638 974.454 495.932 974.442 494.142L974.709 493.439C974.235 485.612 974.514 475.014 974.488 466.98L974.421 412.881L975.291 412.28C983.154 408.748 991.398 404.133 999.006 399.983Z"/><path fill="#30788E" transform="scale(0.333333 0.333008)" d="M1246.36 527.724C1247.64 535.476 1248.06 576.75 1246.1 578.322C1232.18 589.505 1152.57 628.531 1137.18 636.955C1123.72 642.621 1101.13 655.271 1087.46 662.288L973.044 721.75L820.088 801.264C774.577 824.629 726.844 848.086 682.357 873.056C683.321 861.786 682.652 832.266 682.41 820.365C708.747 806.499 735.224 792.899 761.836 779.568C765.008 776.187 814.495 752.761 823.193 747.593C825.497 746.746 839.475 739.209 842.633 737.61C860.638 728.487 878.59 719.259 896.487 709.925L1067.98 620.55L1176.54 564.632C1194.63 555.51 1212.44 546.033 1230.36 536.606C1235.67 533.817 1241.43 531.094 1246.36 527.724Z"/><path fill="#693229" transform="scale(0.333333 0.333008)" d="M974.709 493.439C975.26 496.315 975.12 498.55 975.094 501.457L1008.2 520.646C1013.04 523.456 1022.33 528.574 1026.46 531.754C1029.51 529.691 1058.73 515.296 1062.76 513.498C1063.67 521.085 1062.95 538.62 1063.06 547.198L867.464 647.363L807.495 678.078C794.228 684.798 774.577 694.387 762.011 701.79C743.213 711.142 724.493 720.652 705.853 730.316C702.157 732.238 686.856 739.884 684.421 741.59L681.981 741.951C681.488 732.116 682.125 719.626 681.91 709.283C685.319 707.83 689.313 705.877 692.628 704.137C720.958 689.268 749.825 675.406 778.07 660.393C772.128 657.524 748.963 650.211 742.922 648.903C750.925 645.199 759.598 640.189 767.593 636.122C790.624 624.439 813.59 612.627 836.49 600.687C881.872 577.355 929.895 553.778 974.68 529.678C974.733 520.816 974.637 511.954 974.391 503.095C974.603 501.638 974.454 495.932 974.442 494.142L974.709 493.439Z"/><path fill="#BC744B" transform="scale(0.333333 0.333008)" d="M974.709 493.439C975.26 496.315 975.12 498.55 975.094 501.457L1008.2 520.646C1013.04 523.456 1022.33 528.574 1026.46 531.754C1004.97 543.244 982.555 554.362 960.864 565.614L844.538 626.255C823.672 637.077 797.985 649.157 778.07 660.393C772.128 657.524 748.963 650.211 742.922 648.903C750.925 645.199 759.598 640.189 767.593 636.122C790.624 624.439 813.59 612.627 836.49 600.687C881.872 577.355 929.895 553.778 974.68 529.678C974.733 520.816 974.637 511.954 974.391 503.095C974.603 501.638 974.454 495.932 974.442 494.142L974.709 493.439Z"/><path fill="#459EA0" transform="scale(0.333333 0.333008)" d="M762.011 701.79C760.641 703.35 760.048 703.957 758.448 705.276C759.384 708.041 759.279 707.774 763.003 710.09C773.187 716.427 797.884 716.42 800.316 730.803C800.362 731.072 807.633 733.112 810.613 737.904C815.348 742.756 814.035 744.198 816.62 749.38C819.241 748.696 820.74 747.586 823.193 747.593C814.495 752.761 765.008 776.187 761.836 779.568C759.53 777.321 690.564 743.753 684.421 741.59C686.856 739.884 702.157 732.238 705.853 730.316C724.493 720.652 743.213 711.142 762.011 701.79Z"/><defs><linearGradient id="gradient_1" gradientUnits="userSpaceOnUse" x1="1055.0892" y1="491.07846" x2="976.25439" y2="503.20453"><stop offset="0" stop-color="#C0724A"/><stop offset="1" stop-color="#E8AC74"/></linearGradient></defs><path fill="url(#gradient_1)" transform="scale(0.333333 0.333008)" d="M974.488 466.98C998.426 482.068 1025.63 493.735 1050.49 507.298C1053.02 508.673 1060.49 512.843 1062.76 513.498C1058.73 515.296 1029.51 529.691 1026.46 531.754C1022.33 528.574 1013.04 523.456 1008.2 520.646L975.094 501.457C975.12 498.55 975.26 496.315 974.709 493.439C974.235 485.612 974.514 475.014 974.488 466.98Z"/><path fill="#070C1D" transform="scale(0.333333 0.333008)" d="M227.164 636.228C241.761 642.574 263.856 655.032 278.389 662.803L362.945 707.8L573.024 816.656C598.946 830.425 625.024 843.896 651.254 857.068C657.596 860.33 676.837 871.365 682.357 873.056C726.844 848.086 774.577 824.629 820.088 801.264L973.044 721.75L1087.46 662.288C1101.13 655.271 1123.72 642.621 1137.18 636.955C1135.28 639.05 1132.22 641.19 1129.92 642.951C1139.01 649.757 1145.35 650.988 1154.69 656.042C1172.33 665.595 1196.62 675.729 1213.14 686.094C1203.41 692.478 1182.23 702.747 1171.62 708.288C1145.82 722.076 1119.87 735.574 1093.77 748.778L890.758 854.681C837.684 882.294 784.667 910.932 731.184 937.679C719.516 943.514 693.553 958.547 682.765 962.183C667.329 954.693 648.954 944.258 633.433 936.133L542.127 888.834L310.676 770.127C269.376 748.97 228.391 727.203 187.735 704.833C180.55 700.886 173.302 697.054 165.994 693.34C162.757 691.69 154 687.542 151.463 685.553C151.529 685.385 151.572 685.207 151.661 685.05C153.982 680.995 216.124 653.227 225.344 648.935C228.794 647.329 231.725 644.055 235.519 643.48C235.853 643.43 236.188 643.39 236.522 643.345C236.462 642.265 230.124 639.041 227.164 636.228Z"/><path fill="#71D5E4" transform="scale(0.333333 0.333008)" d="M119.969 578.295C119.093 562.876 120.251 546.034 119.702 530.427C122.566 532.658 132.529 537.013 136.291 538.804C143.25 542.137 150.156 545.582 157.005 549.137L270.62 607.116C376.543 660.752 482.006 715.29 587 770.723C609.514 782.877 633.426 793.805 655.923 806.197C664.436 810.887 674.185 815.333 682.41 820.365C682.652 832.266 683.321 861.786 682.357 873.056C676.837 871.365 657.596 860.33 651.254 857.068C625.024 843.896 598.946 830.425 573.024 816.656L362.945 707.8L278.389 662.803C263.856 655.032 241.761 642.574 227.164 636.228L170.717 605.597C154.348 596.91 135.827 587.58 119.969 578.295Z"/><path fill="#DCAA78" transform="scale(0.333333 0.333008)" d="M303.186 516.092C306.22 512.027 377.116 476.532 388.137 470.024C388.119 474.529 387.821 490.222 388.347 493.842C388.359 499.235 388.506 505.209 388.14 510.545L388.037 527.11C408.417 537.767 428.853 548.315 449.346 558.752C453.24 560.755 466.914 568.598 470.46 569.606C483.062 576.602 497.038 583.797 509.935 590.277L516.496 593.623L524.382 597.86L535.53 603.524C540.093 605.864 544.676 608.162 549.28 610.419C553.86 612.794 573.229 623.238 576.997 624.546C580.112 626.284 582.523 627.671 585.829 629.038C588.814 631.321 595.689 634.483 599.318 636.423C608.969 641.583 619.241 646.345 628.757 651.726C640.7 658.057 656.944 667.058 668.976 672.46L669.431 672.625C671.796 674.077 681.581 680.404 683.455 680.112C701.316 669.789 724.235 658.575 742.922 648.903C748.963 650.211 772.128 657.524 778.07 660.393C749.825 675.406 720.958 689.268 692.628 704.137C689.313 705.877 685.319 707.83 681.91 709.283C670.759 704.377 658.3 697.526 647.318 691.885L581.771 657.937L403.798 566.413C381.191 554.731 358.517 543.178 335.628 532.061C326.389 527.573 312.478 519.316 303.186 516.092Z"/><path fill="#070D47" transform="scale(0.333333 0.333008)" d="M388.14 510.545L388.037 527.11C382.862 524.223 377.607 521.482 372.277 518.893C377.423 515.865 382.808 513.238 388.14 510.545Z"/><path fill="#BC744B" transform="scale(0.333333 0.333008)" d="M303.186 516.092C312.478 519.316 326.389 527.573 335.628 532.061C358.517 543.178 381.191 554.731 403.798 566.413L581.771 657.937L647.318 691.885C658.3 697.526 670.759 704.377 681.91 709.283C682.125 719.626 681.488 732.116 681.981 741.951C675.374 738.41 668.304 735.223 661.545 731.712C638.376 719.466 615.101 707.42 591.723 695.575L477.495 636.116C437.509 614.946 397.325 594.154 356.949 573.74C340.419 565.349 319.279 553.764 302.707 546.369C302.98 536.279 303.14 526.186 303.186 516.092Z"/><path fill="#71D5E4" transform="scale(0.333333 0.333008)" d="M681.693 118.615C692.648 121.807 719.465 137.972 731.456 143.698C739.85 147.707 760.755 157.823 767.97 162.463L771.962 164.221L779.788 169.876C778.243 171.765 776.387 173.16 774.274 174.361C751.417 187.354 728.028 199.388 705.261 212.558C701.309 214.844 697.302 217 693.116 218.833C700.295 223.179 715.171 230.462 720.739 234.364C724.505 235.63 740.733 244.876 744.724 247.13C756.345 253.694 767.871 259.654 779.662 265.906C808.36 249.583 841.642 233.307 869.084 216.239L870.585 217.145C871.739 219.318 872.003 218.974 871.808 220.998C869.58 223.375 867.739 224.036 865.484 225.559C855.31 232.431 790.982 263.753 787.074 269.969C796.097 273.82 808.173 280.628 817.165 285.304C837.478 295.959 857.862 306.479 878.315 316.862C880.455 315.873 882.559 314.727 884.648 313.627C911.754 299.351 939.223 285.784 965.42 269.857C966.351 269.291 967.001 269.293 968.039 269.228C969.478 270.306 971.31 271.307 971.935 272.74C944.608 287.075 914.473 304.52 887.405 320.053C887.835 321.464 887.502 320.826 888.641 321.838C884.198 323.175 884.874 323.337 884.584 328.008L878.212 324.697C862.704 332.69 846.701 341.732 831.336 350.218C818.488 357.315 798.752 367.21 786.722 375.414C800.675 384.184 821.696 393.924 836.737 402.392C843.623 406.269 868.123 419.684 873.953 421.941L874.325 422.604L872.103 424.473C870.977 424.915 869.473 425.435 868.448 426C867.7 425.279 867.809 425.533 867.45 424.773C866.67 423.122 787.071 382.627 778.569 378.717C750.784 394.45 721.974 409.12 694.214 424.831C693.211 424.191 692.001 422.404 691.194 421.363C689.696 420.279 687.936 419.38 686.309 418.466C694.782 417.186 709.211 405.553 719.131 403.771C735.042 394.413 754.83 384.443 771.384 375.333C744.441 360.254 707.55 340.922 680.041 327.682L676.746 329.224C675.428 325.839 676.111 326.142 673.552 324.215C673.339 323.841 673.126 323.467 672.912 323.092C656.861 314.989 637.357 304.914 621.721 297.033C608.552 290.396 596.999 283.739 584.618 277.622C579.86 279.943 494.949 326.261 495.526 325.577L495.166 325.123C495.553 324.117 495.787 323.058 495.861 321.981C496.043 319.142 493.852 316.997 492.085 314.838L489.337 313.051C484.424 311.411 479.251 311.172 474.336 312.906C460.585 306.291 445.872 298.026 432.216 290.921C423.774 286.528 406.721 277.791 399.581 272.529L401.667 271.577C427.405 258.155 461.238 239.831 485.878 225.045C488.279 223.62 490.924 222.307 493.41 221.009C513.116 209.688 532.955 198.599 552.923 187.745C563.603 181.977 574.67 176.46 585.122 170.349L592.055 166.814C622.09 152.554 651.843 133.502 681.693 118.615ZM778.047 371.999C794.81 362.726 811.657 353.603 828.584 344.632C841.752 337.663 859.37 328.688 871.85 320.797C855.63 311.649 840.848 303.537 824.263 295.109C812.381 289.071 795.803 281.17 784.745 274.424L780.087 272.359C757.898 283.562 736.153 296.613 714.317 308.5C706.01 313.022 695.062 319.809 686.703 323.699C705.724 333.022 724.554 342.729 743.183 352.813C754.377 358.79 767.329 365.414 778.047 371.999ZM592.589 273.43C619.482 286.696 645.573 301.911 672.076 315.937C673.95 316.928 678.433 319.565 680.201 319.994C710.484 304.021 742.811 283.869 772.529 269.239C754.26 259.265 735.924 249.413 717.524 239.685C711.822 236.671 690.471 224.398 685.495 225.324C668.596 229.763 655.364 238.204 640.033 246.584C624.002 255.145 608.183 264.097 592.589 273.43Z"/><path fill="#256783" fill-opacity="0.96862745" transform="scale(0.333333 0.333008)" d="M780.087 272.359L784.745 274.424C795.803 281.17 812.381 289.071 824.263 295.109C840.848 303.537 855.63 311.649 871.85 320.797C859.37 328.688 841.752 337.663 828.584 344.632C811.657 353.603 794.81 362.726 778.047 371.999C767.329 365.414 754.377 358.79 743.183 352.813C724.554 342.729 705.724 333.022 686.703 323.699C695.062 319.809 706.01 313.022 714.317 308.5C736.153 296.613 757.898 283.562 780.087 272.359Z"/><path fill="#256783" transform="scale(0.333333 0.333008)" d="M681.693 118.615C692.648 121.807 719.465 137.972 731.456 143.698C739.85 147.707 760.755 157.823 767.97 162.463L771.962 164.221L779.788 169.876C778.243 171.765 776.387 173.16 774.274 174.361C751.417 187.354 728.028 199.388 705.261 212.558C701.309 214.844 697.302 217 693.116 218.833C700.295 223.179 715.171 230.462 720.739 234.364C714.864 234.795 696.573 220.947 690.112 218.974C687.808 218.27 687.438 218.986 685.366 220.191L685.622 218.509L687.447 216.533C687.654 213.989 687.548 214.733 686.061 212.078L682.704 210.075L676.285 209.786C665.607 206.253 655.292 200.06 645.31 194.97C627.667 185.972 609.774 175.454 592.055 166.814C622.09 152.554 651.843 133.502 681.693 118.615Z"/><path fill="#13A6E7" transform="scale(0.333333 0.333008)" d="M767.97 162.463L771.962 164.221L779.788 169.876C778.243 171.765 776.387 173.16 774.274 174.361C751.417 187.354 728.028 199.388 705.261 212.558C701.309 214.844 697.302 217 693.116 218.833C700.295 223.179 715.171 230.462 720.739 234.364C714.864 234.795 696.573 220.947 690.112 218.974C687.808 218.27 687.438 218.986 685.366 220.191L685.622 218.509L687.447 216.533C687.654 213.989 687.548 214.733 686.061 212.078L682.704 210.075C691.029 204.484 704.546 197.247 713.429 192.323L767.97 162.463Z"/><path fill="#080782" transform="scale(0.333333 0.333008)" d="M767.97 162.463L771.962 164.221C763.63 169.998 749.504 177.642 740.319 182.704C722.718 192.404 704.006 203.152 686.061 212.078L682.704 210.075C691.029 204.484 704.546 197.247 713.429 192.323L767.97 162.463Z"/><defs><linearGradient id="gradient_2" gradientUnits="userSpaceOnUse" x1="621.7337" y1="173.07285" x2="540.00574" y2="261.51425"><stop offset="0" stop-color="#2C6F8D"/><stop offset="1" stop-color="#43A7A3"/></linearGradient></defs><path fill="url(#gradient_2)" transform="scale(0.333333 0.333008)" d="M592.055 166.814C609.774 175.454 627.667 185.972 645.31 194.97C655.292 200.06 665.607 206.253 676.285 209.786L682.704 210.075L686.061 212.078C687.548 214.733 687.654 213.989 687.447 216.533L685.622 218.509L685.366 220.191C677.365 224.704 674.077 222.916 669.052 215.301C666.775 217.098 667.497 220.344 666.734 220.95C663.846 223.247 657.433 227.291 653.849 227.658C647.332 230.722 638.289 236.097 631.816 239.741C619.758 246.579 607.643 253.318 595.474 259.956C590.653 262.584 585.829 265.301 580.805 267.524C580.102 267.835 577.68 266.388 577.005 265.98C565.528 260.853 553.778 253.875 542.752 247.784L493.41 221.009C513.116 209.688 532.955 198.599 552.923 187.745C563.603 181.977 574.67 176.46 585.122 170.349L592.055 166.814Z"/><path fill="#13A6E7" transform="scale(0.333333 0.333008)" d="M592.055 166.814C609.774 175.454 627.667 185.972 645.31 194.97C655.292 200.06 665.607 206.253 676.285 209.786L682.704 210.075L686.061 212.078C687.548 214.733 687.654 213.989 687.447 216.533L685.622 218.509L685.366 220.191C677.365 224.704 674.077 222.916 669.052 215.301C666.775 217.098 667.497 220.344 666.734 220.95C663.846 223.247 657.433 227.291 653.849 227.658C657.693 224.595 664.233 221.805 666.887 218.44C666.327 216.32 666.99 215.402 666.947 213.227C664.488 210.49 653.995 205.585 650.095 203.613L607.012 181.913C601.691 179.233 589.092 173.28 585.122 170.349L592.055 166.814Z"/><path fill="#F4F3F9" transform="scale(0.333333 0.333008)" d="M676.285 209.786L682.704 210.075L686.061 212.078C687.548 214.733 687.654 213.989 687.447 216.533L685.622 218.509C679.349 222.482 669.824 221.571 671.677 213.292C673.319 211.119 673.765 211.067 676.285 209.786Z"/><path fill="#080782" transform="scale(0.333333 0.333008)" d="M577.005 265.98C581.593 262.814 664.273 217.176 665.662 216.907L666.887 218.44C664.233 221.805 657.693 224.595 653.849 227.658C647.332 230.722 638.289 236.097 631.816 239.741C619.758 246.579 607.643 253.318 595.474 259.956C590.653 262.584 585.829 265.301 580.805 267.524C580.102 267.835 577.68 266.388 577.005 265.98Z"/><path fill="#3EBBA4" transform="scale(0.333333 0.333008)" d="M401.667 271.577C427.405 258.155 461.238 239.831 485.878 225.045C511.924 238.109 545.402 254.226 570.178 268.736C551.174 278.96 532.243 289.321 513.388 299.82C506.659 303.498 496.306 309.599 489.607 312.747L489.337 313.051C484.424 311.411 479.251 311.172 474.336 312.906C460.585 306.291 445.872 298.026 432.216 290.921C423.774 286.528 406.721 277.791 399.581 272.529L401.667 271.577Z"/><path fill="#080782" transform="scale(0.333333 0.333008)" d="M399.581 272.529L401.667 271.577C406.429 274.693 412.236 277.487 417.383 280.05C435.88 289.258 453.941 299.239 472.275 308.74C478.798 312.121 483.051 308.905 489.607 312.747L489.337 313.051C484.424 311.411 479.251 311.172 474.336 312.906C460.585 306.291 445.872 298.026 432.216 290.921C423.774 286.528 406.721 277.791 399.581 272.529Z"/><path fill="#48ADC9" transform="scale(0.333333 0.333008)" d="M787.074 269.969C796.097 273.82 808.173 280.628 817.165 285.304C837.478 295.959 857.862 306.479 878.315 316.862L871.85 320.797C855.63 311.649 840.848 303.537 824.263 295.109C812.381 289.071 795.803 281.17 784.745 274.424L785.166 273.545L782.89 272.518C784.626 270.287 784.571 272.523 787.074 269.969Z"/><path fill="#080782" transform="scale(0.333333 0.333008)" d="M570.178 268.736L573.283 270.577L573.41 271.497C556.173 280.626 539.911 289.287 522.931 299.045C515.805 303.14 499.243 312.302 492.085 314.838L489.337 313.051L489.607 312.747C496.306 309.599 506.659 303.498 513.388 299.82C532.243 289.321 551.174 278.96 570.178 268.736Z"/><path fill="#080782" transform="scale(0.333333 0.333008)" d="M686.309 418.466C694.782 417.186 709.211 405.553 719.131 403.771C711.827 410.091 697.444 415.221 691.194 421.363C689.696 420.279 687.936 419.38 686.309 418.466Z"/><path fill="#30788E" fill-opacity="0.96862745" transform="scale(0.333333 0.333008)" d="M685.495 225.324C690.471 224.398 711.822 236.671 717.524 239.685C735.924 249.413 754.26 259.265 772.529 269.239C742.811 283.869 710.484 304.021 680.201 319.994C678.433 319.565 673.95 316.928 672.076 315.937C645.573 301.911 619.482 286.696 592.589 273.43C608.183 264.097 624.002 255.145 640.033 246.584C655.364 238.204 668.596 229.763 685.495 225.324Z"/><path fill="#48ADC9" transform="scale(0.333333 0.333008)" d="M398.97 376.06L399.315 376.766C404.357 379.408 425.324 389.997 428.596 392.361C423.11 391.032 412.669 384.521 407.76 387.409C403.758 389.763 400.476 406.883 399.738 411.477C399.938 419.103 400.652 418.784 406.454 423.794C409.501 424.722 411.782 426.633 413.128 427.036C420.129 431.005 427.444 434.663 434.615 438.337C447.142 444.005 459.838 451.386 472.224 457.498C477.706 460.203 484.835 464.386 490.502 466.27L491.568 465.85L492.747 462.784L493.706 463.218L494.18 463.338C494.247 464.816 494.163 467.954 495.604 468.797C518.896 482.431 543.545 494.067 567.337 506.881C570.444 508.555 573.942 510.464 577.103 511.898L583.973 515.941C586.435 517.253 590.837 519.911 593.349 520.183L594.119 519.494C595.731 522.925 656.679 553.648 664.04 557.093C667.759 559.378 671.524 561.069 675.046 563.189C677.482 564.578 679.217 565.507 681.786 566.699L681.69 618.21C681.689 624.355 682.034 639.923 681.361 645.261C677.721 644.279 656.305 632.253 650.47 629.552C649.104 628.382 642.997 625.756 640.983 624.826C620.164 614.237 600.411 603.386 579.199 592.884C576.549 591.056 562.675 584.291 559.51 582.903C550.703 577.899 540.409 574.203 531.835 568.789C531.433 568.541 528.87 567.434 528.293 567.174L527.302 565.548C520.762 560.831 492.995 547.28 484.798 543.136L427.87 513.908C415.014 507.377 400.872 500.725 388.347 493.842C387.821 490.222 388.119 474.529 388.137 470.024C388.713 466.709 388.378 458.552 388.495 454.844C388.891 442.263 387.833 427.084 388.848 414.665L398.575 420.856C398.682 412.784 398.03 382.239 398.97 376.06Z"/><path fill="#2D83B6" transform="scale(0.333333 0.333008)" d="M399.315 376.766C404.357 379.408 425.324 389.997 428.596 392.361C423.11 391.032 412.669 384.521 407.76 387.409C403.758 389.763 400.476 406.883 399.738 411.477C399.938 419.103 400.652 418.784 406.454 423.794C404.282 423.1 401.37 421.827 399.186 420.953C399.353 406.224 399.396 391.495 399.315 376.766Z"/><path fill="#1E5079" fill-opacity="0.94901961" transform="scale(0.333333 0.333008)" d="M973.739 412.931L974.421 412.881L974.488 466.98C974.514 475.014 974.235 485.612 974.709 493.439L974.442 494.142C969.938 495.065 937.748 513.225 930.597 516.84L803.907 582.322C765.497 601.974 728.16 620.058 690.021 640.442C688.582 641.468 686.634 642.877 685.13 643.747L683.788 642.445C681.947 631.398 681.856 600.899 683.353 589.477L683.478 589.955C684.803 582.444 684.162 571.731 686.38 565.919C689.161 564.565 697.958 560.89 699.071 558.93C706.912 554.155 718.269 549.373 726.973 544.278C731.141 542.8 770.331 522.172 772.208 520.421L772.789 520.25C773.565 507.581 773.061 490.308 772.963 477.446C773.936 476.235 775.586 475.58 777.014 474.835C779.892 474.239 801.341 461.96 805.416 459.708C809.365 457.546 813.282 455.325 817.164 453.045L819.61 451.941C824.34 449.312 828.684 447.066 833.35 444.206L835.749 443.014C841.95 440.234 848.562 436.425 854.577 433.12L858.542 431.43C854.419 435.646 850.964 436.212 848.431 439.93C844.68 441.064 813.952 457.02 810.739 459.689C801.795 461.988 786.718 473.078 777.635 476.632C775.89 477.315 775.107 478.679 774.083 480.231C773.984 486.74 773.325 511.55 774.181 516.429C779.15 518.06 783.933 513.69 788.004 511.555C811.975 498.985 836.105 486.668 859.937 473.813C863.456 471.914 866.664 469.222 870.182 467.289L870.859 463.984C871.052 464.567 871.451 465.995 871.77 466.401C872.539 467.118 872.297 466.87 873.425 467.2C879.553 464.596 888.911 459.189 895.166 455.888C911.205 447.432 927.177 438.848 943.079 430.138C947.84 427.547 971.044 415.336 973.739 412.931Z"/><path fill="#4EE3B0" transform="scale(0.333333 0.333008)" d="M399.581 272.529C406.721 277.791 423.774 286.528 432.216 290.921C445.872 298.026 460.585 306.291 474.336 312.906C469.985 316.975 468.728 318.017 468.3 324.065L469.448 326.139L468.871 327.294C471.55 330.017 472.992 331.092 476.747 332.478C475.078 333.666 458.944 342.423 457.308 342.946C445.458 349.985 433.482 356.812 421.387 363.422C416.853 365.912 402.858 373.205 398.97 376.06C398.03 382.239 398.682 412.784 398.575 420.856L388.848 414.665L388.115 414.183C384.239 412.835 365.973 403.415 361.452 401.227C347.205 394.219 333.092 386.943 319.119 379.404C313.327 376.281 307.513 373.631 301.985 370.079C301.213 357.422 301.748 339.445 301.813 326.562C306.375 323.309 315.778 318.415 320.97 315.553L356.396 296.045C362.592 292.599 384.777 279.348 389.542 277.455C392.744 276.032 396.397 274.105 399.581 272.529Z"/><path fill="#2D83B6" transform="scale(0.333333 0.333008)" d="M301.985 370.079C301.213 357.422 301.748 339.445 301.813 326.562C330.482 340.691 358.186 355.69 386.808 369.742L388.394 371.674C387.45 375.96 387.72 408.854 388.115 414.183C384.239 412.835 365.973 403.415 361.452 401.227C347.205 394.219 333.092 386.943 319.119 379.404C313.327 376.281 307.513 373.631 301.985 370.079Z"/><path fill="#F4F3F9" transform="scale(0.333333 0.333008)" d="M388.394 371.674C393.676 369.921 404.385 363.537 409.721 360.563C424.094 352.593 438.392 344.485 452.61 336.242C455.004 338.214 455.817 340.217 457.308 342.946C445.458 349.985 433.482 356.812 421.387 363.422C416.853 365.912 402.858 373.205 398.97 376.06C398.03 382.239 398.682 412.784 398.575 420.856L388.848 414.665L388.115 414.183C387.72 408.854 387.45 375.96 388.394 371.674Z"/><path fill="#A3EEF4" transform="scale(0.333333 0.333008)" d="M399.581 272.529C406.721 277.791 423.774 286.528 432.216 290.921C445.872 298.026 460.585 306.291 474.336 312.906C469.985 316.975 468.728 318.017 468.3 324.065L468.127 323.835C468.204 322.915 468.43 320.417 467.522 319.856C461.081 315.875 454.183 312.534 447.444 309.087C433.909 302.269 420.521 295.162 407.29 287.772C402.371 285.059 393.631 280.577 389.542 277.455C392.744 276.032 396.397 274.105 399.581 272.529Z"/><path fill="#080782" transform="scale(0.333333 0.333008)" d="M468.127 323.835L468.3 324.065L469.448 326.139L468.871 327.294C471.55 330.017 472.992 331.092 476.747 332.478C475.078 333.666 458.944 342.423 457.308 342.946C455.817 340.217 455.004 338.214 452.61 336.242C438.392 344.485 424.094 352.593 409.721 360.563C404.385 363.537 393.676 369.921 388.394 371.674L386.808 369.742C396.893 362.548 421.133 350.115 432.509 343.708C441.509 338.638 459.37 327.984 468.127 323.835Z"/><path fill="#A3EEF4" transform="scale(0.333333 0.333008)" d="M452.61 336.242C457.71 333.296 463.579 329.694 468.871 327.294C471.55 330.017 472.992 331.092 476.747 332.478C475.078 333.666 458.944 342.423 457.308 342.946C455.817 340.217 455.004 338.214 452.61 336.242Z"/><path fill="#182B6B" fill-opacity="0.78431374" transform="scale(0.333333 0.333008)" d="M690.021 640.442C691.769 640.628 692.957 641.136 694.576 640.338C711.758 631.861 728.642 622.685 745.619 613.789C752.152 610.367 758.809 607.17 765.294 603.709L766.356 604.272L765.661 605.172C762.868 605.646 760.076 606.244 758.699 609.06C764.75 607.087 772.63 602.718 778.55 599.914C798.69 590.374 817.603 578.407 837.33 568.141C877.128 547.457 916.324 525.675 956.286 505.287C959.246 503.777 970.041 496.894 971.987 497.3C973.846 500.064 972.744 500.958 974.391 503.095C974.637 511.954 974.733 520.816 974.68 529.678C929.895 553.778 881.872 577.355 836.49 600.687C813.59 612.627 790.624 624.439 767.593 636.122C759.598 640.189 750.925 645.199 742.922 648.903C724.235 658.575 701.316 669.789 683.455 680.112C681.308 678.052 681.879 675.638 681.923 672.826C679.917 669.998 674.029 674.046 669.431 672.625L668.976 672.46C671.21 671.72 671.232 670.481 674.527 670.748C677.112 670.957 678.309 670.939 680.7 670.05C682.261 668.156 681.723 668.344 681.806 665.205L681.826 660.183C681.887 657.454 682.295 654.547 680.834 652.461C678.553 652.426 678.294 652.357 676.346 651.171L676.413 650.603L677.723 649.655C675.944 647.873 675.868 647.747 673.613 646.732L671.572 648.001C670.175 646.102 664.356 638.234 662.793 637.267C658.731 634.757 653.938 634.101 650.47 629.552C656.305 632.253 677.721 644.279 681.361 645.261L682.459 643.984C683.699 644.218 683.947 644.185 685.13 643.747C686.634 642.877 688.582 641.468 690.021 640.442ZM688.564 672.225C690.426 667.614 688.864 659.617 687.001 655.124C685.039 653.522 686.136 654.004 683.554 653.707C681.723 657.609 680.414 669.559 684.743 672.248L688.564 672.225Z"/><path fill="#182B6B" fill-opacity="0.94901961" transform="scale(0.333333 0.333008)" d="M683.554 653.707C686.136 654.004 685.039 653.522 687.001 655.124C688.864 659.617 690.426 667.614 688.564 672.225L684.743 672.248C680.414 669.559 681.723 657.609 683.554 653.707Z"/><path fill="#1E5079" fill-opacity="0.9254902" transform="scale(0.333333 0.333008)" d="M878.212 324.697L884.584 328.008C892.603 332.183 906.814 339.971 914.721 343.053C929.676 350.392 957.362 363.488 971.01 371.877C967.589 373.951 966.099 374.74 962.416 376.282L961.422 375.71C957.447 377.525 939.453 386.098 937.841 388.991C936.898 389.563 936.146 390.148 935.114 390.418C932.462 390.323 915.999 398.734 914.593 400.663L914.883 401.124C913.282 402.129 908.189 405.319 906.468 405.649C905.907 405.52 905.346 405.392 904.785 405.264C894.363 410.487 884.215 416.395 873.953 421.941C868.123 419.684 843.623 406.269 836.737 402.392C821.696 393.924 800.675 384.184 786.722 375.414C798.752 367.21 818.488 357.315 831.336 350.218C846.701 341.732 862.704 332.69 878.212 324.697Z"/><path fill="#19447F" fill-opacity="0.98039216" transform="scale(0.333333 0.333008)" d="M870.585 217.145C877.026 222.397 906.832 237.125 915.463 241.557C929.933 248.987 953.413 262.541 968.22 268.535L968.039 269.228C967.001 269.293 966.351 269.291 965.42 269.857C939.223 285.784 911.754 299.351 884.648 313.627C882.559 314.727 880.455 315.873 878.315 316.862C857.862 306.479 837.478 295.959 817.165 285.304C808.173 280.628 796.097 273.82 787.074 269.969C790.982 263.753 855.31 232.431 865.484 225.559C867.739 224.036 869.58 223.375 871.808 220.998C872.003 218.974 871.739 219.318 870.585 217.145Z"/><path fill="#182B6B" fill-opacity="0.96470588" transform="scale(0.333333 0.333008)" d="M968.22 268.535C972.489 270.439 974.828 272.418 978.805 274.605L1002.96 287.825C1021.84 298.224 1039.06 306.327 1057.68 318.195C1059.14 319.577 1060.22 320.524 1061.81 321.766L1061.62 322.578C1052.23 327.765 979.71 367.933 975.931 368.558C973.435 367.975 966.2 363.631 963.448 362.33C948.578 355.302 933.311 345.384 918.775 338.276C916.675 336.005 892.829 323.596 888.641 321.838C887.502 320.826 887.835 321.464 887.405 320.053C914.473 304.52 944.608 287.075 971.935 272.74C971.31 271.307 969.478 270.306 968.039 269.228L968.22 268.535Z"/><path fill="#30788E" fill-opacity="0.93725491" transform="scale(0.333333 0.333008)" d="M778.569 378.717C787.071 382.627 866.67 423.122 867.45 424.773C867.809 425.533 867.7 425.279 868.448 426C866.817 427.839 861.086 430.225 858.542 431.43L854.577 433.12L852.675 432.043C847.504 433.911 837.909 437.533 835.749 443.014L833.35 444.206C832.197 444.092 831.042 444.001 829.885 443.932C825.896 443.698 819.966 447.528 819.61 451.941L817.164 453.045C813.631 453.038 809.164 453.479 806.546 456.221C804.961 457.883 805.81 457.524 805.416 459.708C801.341 461.96 779.892 474.239 777.014 474.835C769.831 472.033 749.868 461.144 742.492 457.063C727.364 448.694 709.298 440.074 694.59 431.425C694.733 429.065 694.454 427.169 694.214 424.831C721.974 409.12 750.784 394.45 778.569 378.717Z"/><path fill="#459EA0" fill-opacity="0.96862745" transform="scale(0.333333 0.333008)" d="M676.746 329.224L680.041 327.682C707.55 340.922 744.441 360.254 771.384 375.333C754.83 384.443 735.042 394.413 719.131 403.771C709.211 405.553 694.782 417.186 686.309 418.466C681.031 417.462 679.224 417.463 674.106 418.471C670.464 417.923 663.073 413.354 659.732 411.73C651.845 407.898 610.867 384.698 605.212 384.381C603.31 383.686 592.279 377.148 589.854 375.752L592.192 374.84C600.433 371.661 615.874 362.317 624.319 357.653L676.746 329.224Z"/><path fill="#3EBBA4" fill-opacity="0.98823529" transform="scale(0.333333 0.333008)" d="M584.618 277.622C596.999 283.739 608.552 290.396 621.721 297.033C637.357 304.914 656.861 314.989 672.912 323.092C673.126 323.467 673.339 323.841 673.552 324.215C656.55 332.291 637.675 343.682 620.748 352.428C614.247 355.787 588.678 369.537 584.316 373.276L583.992 373.313C581.423 371.717 577.969 370.018 575.239 368.657C552.617 357.374 530.831 344.603 508.383 332.98C504.168 330.798 499.396 328.271 495.526 325.577C494.949 326.261 579.86 279.943 584.618 277.622Z"/><path fill="#4EE3B0" fill-opacity="0.98823529" transform="scale(0.333333 0.333008)" d="M488.119 331.535C494.24 339.432 562.794 369.911 576.374 378.94C564.692 384.112 547.853 393.671 536.31 399.971C522.444 407.539 504.963 416.441 491.724 424.634L491.322 425.844C478.107 418.425 462.979 411.231 450.292 403.767C444.82 400.352 434.611 395.39 428.596 392.361C425.324 389.997 404.357 379.408 399.315 376.766L398.97 376.06C402.858 373.205 416.853 365.912 421.387 363.422C433.482 356.812 445.458 349.985 457.308 342.946C458.944 342.423 475.078 333.666 476.747 332.478C480.736 333.255 484.867 334.44 488.119 331.535Z"/><path fill="#1E5079" fill-opacity="0.98039216" transform="scale(0.333333 0.333008)" d="M779.788 169.876C798.639 180.693 820.143 190.789 839.522 200.969C846.645 204.71 862.418 213.701 869.084 216.239C841.642 233.307 808.36 249.583 779.662 265.906C767.871 259.654 756.345 253.694 744.724 247.13C740.733 244.876 724.505 235.63 720.739 234.364C715.171 230.462 700.295 223.179 693.116 218.833C697.302 217 701.309 214.844 705.261 212.558C728.028 199.388 751.417 187.354 774.274 174.361C776.387 173.16 778.243 171.765 779.788 169.876Z"/><path fill="#4EE3B0" fill-opacity="0.96862745" transform="scale(0.333333 0.333008)" d="M583.651 382.388L583.735 383.266C585.49 386.782 650.364 422.005 659.474 425.107L661.743 426.452L661.911 427.355C654.821 433.708 622.908 448.893 613.421 455.081C610.969 456.68 603.247 460.464 601.263 462.215C595.498 465.159 587.73 469.404 582.274 472.908C579.128 471.377 574.278 468.837 571.12 467.742C562.502 462.962 553.294 458.521 544.537 453.887C532.769 447.659 520.731 440.902 508.638 435.397C506.062 433.936 500.333 430.175 497.968 432.763C492.602 438.634 495.256 455.448 494.18 463.338L493.706 463.218C494.055 451.395 493.82 438.91 493.863 427.02C494.913 427.485 496.065 428.045 497.165 427.592C506.962 423.567 518.013 417.078 527.097 412.027C540.164 404.781 553.29 397.641 566.472 390.606C570.475 388.46 579.596 383.194 583.651 382.388Z"/><path fill="#298688" fill-opacity="0.78431374" transform="scale(0.333333 0.333008)" d="M666.109 429.473C669.464 434.064 670.371 435.049 675.64 437.527L675.122 439.003C679.184 443.028 690.736 438.9 695.631 442.313C703.508 447.862 709.992 452.391 719.262 455.74C719.867 455.958 726.313 459.615 726.674 459.901C732.193 464.28 757.715 473.358 758.436 480.205C756.359 483.873 752.833 482.753 751.328 486.247L752.052 488.569C737.596 496.411 723.095 504.168 708.548 511.84C703.97 514.236 683.816 523.898 682.395 526.934L682.153 527.555C679.72 522.796 675.639 525.117 672.294 520.927C673.96 521.629 675.318 522.484 677.013 522.159C675.672 519.604 665.833 514.433 662.82 513.218C657.698 511.153 653.868 505.636 649.899 503.485C646.327 501.55 640.228 500.273 635.738 498.139L636.263 496.765C631.663 493.748 630.555 499.265 628.572 492.662C628.666 492.978 604.329 480.172 602.892 479.232C603.083 477.028 612.783 472.261 615.221 468.86C616.506 467.802 624.621 463.403 626.56 462.312C640.931 454.636 656.463 445.414 670.831 437.341C669.112 435.345 667.129 432.693 665.465 430.582L666.109 429.473Z"/><path fill="#070D47" fill-opacity="0.83137256" transform="scale(0.333333 0.333008)" d="M972.965 371.025C973.351 384.991 973.609 398.96 973.739 412.931C971.044 415.336 947.84 427.547 943.079 430.138C927.177 438.848 911.205 447.432 895.166 455.888C888.911 459.189 879.553 464.596 873.425 467.2C872.297 466.87 872.539 467.118 871.77 466.401C871.711 452.424 871.821 438.447 872.103 424.473L874.325 422.604C877.711 421.619 901.345 408.269 906.468 405.649C908.189 405.319 913.282 402.129 914.883 401.124C918.621 399.801 931.428 392.466 935.114 390.418C936.146 390.148 936.898 389.563 937.841 388.991C945.619 385.294 954.648 380.304 962.416 376.282C966.099 374.74 967.589 373.951 971.01 371.877L972.965 371.025ZM877.327 426.667C875.953 429.355 875.588 429.714 873.447 431.867C873.424 436.852 873.006 457.694 873.623 461.409C876.841 461.915 879.295 459.768 882.062 457.909C888.016 454.986 893.434 450.969 899.404 448.152C917.904 439.422 957.289 424.26 969.351 408.53C970.488 403.652 970.266 388.055 969.023 383.605C966.421 382.289 963.706 380.959 960.772 381.344C937.926 396.816 911.164 404.899 888.487 420.585C884.608 423.267 881.736 424.98 877.327 426.667Z"/><path fill="#070D47" fill-opacity="0.72549021" transform="scale(0.333333 0.333008)" d="M960.772 381.344C963.706 380.959 966.421 382.289 969.023 383.605C970.266 388.055 970.488 403.652 969.351 408.53C957.289 424.26 917.904 439.422 899.404 448.152C893.434 450.969 888.016 454.986 882.062 457.909C879.295 459.768 876.841 461.915 873.623 461.409C873.006 457.694 873.424 436.852 873.447 431.867C875.588 429.714 875.953 429.355 877.327 426.667C881.736 424.98 884.608 423.267 888.487 420.585C911.164 404.899 937.926 396.816 960.772 381.344Z"/><path fill="#070D47" fill-opacity="0.56862748" transform="scale(0.333333 0.333008)" d="M868.448 426L869.834 426.764C871.368 433.043 870.256 455.233 870.859 463.984L870.182 467.289C866.664 469.222 863.456 471.914 859.937 473.813C836.105 486.668 811.975 498.985 788.004 511.555C783.933 513.69 779.15 518.06 774.181 516.429C773.325 511.55 773.984 486.74 774.083 480.231C775.107 478.679 775.89 477.315 777.635 476.632C786.718 473.078 801.795 461.988 810.739 459.689C809.96 461.146 809.306 462.044 809.197 463.693C811.742 461.699 810.555 462.201 813.676 461.705C813.84 462.161 814.005 462.616 814.169 463.072C818.56 463.126 824.057 460.45 827.54 457.748C829.263 457.578 835.265 458.228 836.047 457.584C842.778 452.037 843.786 449.134 852.096 445.412C853.647 443.11 855.214 440.819 856.798 438.54L856.53 437.812C853.853 437.652 851.853 439.498 848.431 439.93C850.964 436.212 854.419 435.646 858.542 431.43C861.086 430.225 866.817 427.839 868.448 426Z"/><path fill="#1B61A7" fill-opacity="0.14901961" transform="scale(0.333333 0.333008)" d="M531.835 568.789C540.409 574.203 550.703 577.899 559.51 582.903C559.703 584.165 559.894 584.959 559.758 586.247C563.29 591.582 570.34 597.332 576.903 598.076C577.68 596.112 577.822 596.633 577.369 594.976C574.002 594.759 572.761 594.974 570.38 592.8L570.408 591.737C573.584 590.309 574.727 592.791 578.414 593.785L579.199 592.884C600.411 603.386 620.164 614.237 640.983 624.826C641.492 625.381 646.223 630.297 646.12 630.044C647.602 633.688 650.857 645.292 650.018 648.731C645.14 648.897 639.543 648.922 634.776 649.809C632.731 650.19 630.783 651.279 628.757 651.726C619.241 646.345 608.969 641.583 599.318 636.423C595.689 634.483 588.814 631.321 585.829 629.038L586.281 626.748C584.452 622.911 580.533 623.427 576.997 624.546C573.229 623.238 553.86 612.794 549.28 610.419C549.874 609.323 549.844 609.398 549.974 608.156C547.128 606.966 544.534 606.246 541.585 605.375C542.504 604.802 542.192 605.029 542.867 604.126C542.238 601.967 542.215 601.9 540.539 600.491L538.977 600.642C537.912 601.711 537.459 602.229 536.034 602.835L534.907 601.514C534.881 599.839 532.286 594.196 531.481 592.284L532.111 591.144L533.329 591.292L535.177 593.674C539.071 594.995 554.935 607.589 561.746 610.852L562.115 611.598C562.688 607.676 553.128 599.908 550.111 597.779C544.877 594.088 539.639 592.076 533.329 591.292C531.218 588.2 525.603 588.396 523.235 584.082C523.967 580.595 527.521 580.464 528.251 579.378C530.251 576.407 528.898 572.403 531.835 568.789Z"/><path fill="#2D83B6" fill-opacity="0.9254902" transform="scale(0.333333 0.333008)" d="M388.347 493.842C400.872 500.725 415.014 507.377 427.87 513.908L484.798 543.136C492.995 547.28 520.762 560.831 527.302 565.548L526.344 565.289C517.35 562.812 500.115 550.451 494.185 551.231C495.19 553.915 494.862 555.649 493.959 558.456C492.232 563.824 485.007 559.92 482.275 564.492C481.03 566.573 482.368 570.286 479.9 571.07C476.973 571.437 473.774 569.465 470.46 569.606C466.914 568.598 453.24 560.755 449.346 558.752C428.853 548.315 408.417 537.767 388.037 527.11L388.14 510.545C388.506 505.209 388.359 499.235 388.347 493.842Z"/><path fill="#070D47" fill-opacity="0.81176472" transform="scale(0.333333 0.333008)" d="M1053.36 331.342L1056 329.487C1057.6 328.343 1057.72 328.148 1059.61 328.059L1060.48 328.588C1060.79 333.895 1061.29 358.265 1060.63 362.573C1057.79 367.028 1022.21 384.893 1015.38 387.521C1012.09 387.142 1010.69 386.447 1008.07 387.719C1007.81 390.509 1008.29 390.409 1006.81 392.133L1003.96 392.865C1002.97 394.85 1003.3 394.27 1003.72 396.939C1004.79 401.311 1004.53 401.393 1007.92 404.399C1005.29 403.152 1001.4 401.445 999.006 399.983C991.398 404.133 983.154 408.748 975.291 412.28C974.642 403.5 974.985 391.287 975.105 382.26C976.206 377.047 976.194 375.823 978.538 371.095C988.587 364.816 1044.57 333.688 1053.36 331.342Z"/><path fill="#19447F" fill-opacity="0.10196079" transform="scale(0.333333 0.333008)" d="M594.606 479.348C613.025 488.32 631.499 499.513 649.716 508.962C653.72 511.038 667.447 518.94 670.82 520.1C672.148 523.269 672.884 524.06 675.208 526.491C675.021 527.837 674.437 528.149 673.449 529.147C674.347 530.989 675.711 530.758 675.928 531.18C678.208 535.622 683.58 543.767 680.324 548.709C675.153 549.24 672.123 541.894 666.537 542.514C662.914 547.838 665.927 551.668 664.684 556.659L664.04 557.093C656.679 553.648 595.731 522.925 594.119 519.494L593.97 516.198C594.99 504.547 594.678 491.104 594.606 479.348Z"/><defs><linearGradient id="gradient_3" gradientUnits="userSpaceOnUse" x1="725.73425" y1="490.73004" x2="725.86908" y2="563.25763"><stop offset="0" stop-color="#051046" stop-opacity="0.65098041"/><stop offset="1" stop-color="#09163F" stop-opacity="0.82745099"/></linearGradient></defs><path fill="url(#gradient_3)" transform="scale(0.333333 0.333008)" d="M682.395 526.934C687.121 524.428 689.474 525.443 692.802 523.645C697.867 520.909 703.445 516.659 708.629 513.959C717.807 509.247 727.168 504.87 736.411 500.267C743.069 496.951 749.547 493.193 756.29 490.128C759.485 488.676 764.239 487.646 766.249 491.385C768.08 494.791 765.72 498.928 765.634 502.474C765.707 506.72 769.524 513.331 767.411 517.692C763.27 526.236 730.308 538.08 726.973 544.278C718.269 549.373 706.912 554.155 699.071 558.93C697.535 559.154 685.535 565.059 682.902 566.179C683.004 563.356 683.338 560.355 682.604 557.688L681.182 558.776C681.414 557.046 682.351 554.863 682.569 552.933C683.18 547.544 684.12 532.541 682.153 527.555L682.395 526.934Z"/><path fill="#1B61A7" fill-opacity="0.086274512" transform="scale(0.333333 0.333008)" d="M494.18 463.338C495.256 455.448 492.602 438.634 497.968 432.763C500.333 430.175 506.062 433.936 508.638 435.397C507.069 441.18 516.78 443.194 520.659 444.14C521.018 444.227 525.435 455.211 529.022 454.22C529.523 454.172 531.108 455.273 531.696 455.678L533.342 456.801L533.929 456.582C530.831 452.89 526.021 449.024 523.714 445.442L523.817 444.815C531.915 447.451 567.173 466.637 573.918 471.505L575.512 471.224L576.649 471.944C575.022 475.363 571.462 476.505 571.79 477.592C574.649 478.711 573.838 477.929 575.033 480.372L574.702 481.85L571.35 483.086L571.244 483.842C576.493 488.701 573.817 492.529 573.931 499.751C572.327 500.169 572.161 500.118 570.56 500.136C571.418 501.533 574.785 504.117 576.208 505.305C577.047 508.3 577.155 508.799 577.103 511.898C573.942 510.464 570.444 508.555 567.337 506.881C543.545 494.067 518.896 482.431 495.604 468.797C494.163 467.954 494.247 464.816 494.18 463.338Z"/><path fill="#1666AE" fill-opacity="0.30588236" transform="scale(0.333333 0.333008)" d="M434.615 438.337C431.616 430.835 433.932 435.906 430.253 433.813C430.21 431.687 429.889 432.005 430.838 430.509C434.02 430.452 434.917 431.142 437.759 429.367L437.377 429.451C440.059 426.831 440.99 423.759 442.472 420.273L441.808 421.499L443.295 420.925L443.36 421.131C445.189 415.408 439.703 415.569 437.835 412.251C440.267 409.165 442.949 405.813 439.943 402.405C445.126 401.723 442.643 405.009 450.292 403.767C462.979 411.231 478.107 418.425 491.322 425.844L492.797 426.605C492.163 432.499 491.714 457.26 492.747 462.784L491.568 465.85L490.502 466.27C484.835 464.386 477.706 460.203 472.224 457.498C459.838 451.386 447.142 444.005 434.615 438.337Z"/><path fill="#A3EEF4" transform="scale(0.333333 0.333008)" d="M487.402 331.112C489.36 329.215 492.793 326.309 495.166 325.123L495.526 325.577C499.396 328.271 504.168 330.798 508.383 332.98C530.831 344.603 552.617 357.374 575.239 368.657C577.969 370.018 581.423 371.717 583.992 373.313C581.952 375.017 578.222 377.317 576.918 379.002C579.124 380.149 581.386 381.383 583.651 382.388C579.596 383.194 570.475 388.46 566.472 390.606C553.29 397.641 540.164 404.781 527.097 412.027C518.013 417.078 506.962 423.567 497.165 427.592C496.065 428.045 494.913 427.485 493.863 427.02L493.772 426.821L492.797 426.605L491.322 425.844L491.724 424.634C504.963 416.441 522.444 407.539 536.31 399.971C547.853 393.671 564.692 384.112 576.374 378.94C562.794 369.911 494.24 339.432 488.119 331.535L487.402 331.112Z"/><path fill="#1B61A7" fill-opacity="0.57254905" transform="scale(0.333333 0.333008)" d="M399.738 411.477C400.476 406.883 403.758 389.763 407.76 387.409C412.669 384.521 423.11 391.032 428.596 392.361C434.611 395.39 444.82 400.352 450.292 403.767C442.643 405.009 445.126 401.723 439.943 402.405C442.949 405.813 440.267 409.165 437.835 412.251C439.703 415.569 445.189 415.408 443.36 421.131L443.295 420.925L441.808 421.499L442.472 420.273C440.99 423.759 440.059 426.831 437.377 429.451L437.759 429.367C434.917 431.142 434.02 430.452 430.838 430.509C429.889 432.005 430.21 431.687 430.253 433.813C433.932 435.906 431.616 430.835 434.615 438.337C427.444 434.663 420.129 431.005 413.128 427.036C417.281 427.369 418.247 427.455 422.103 429.082L422.959 429.448L423.4 428.957L422.243 427.326C417.775 424.543 414.44 428.076 410.934 423.548L413.234 423.929C412.45 423.01 410.26 422.721 408.836 422.349C408.677 420.644 413.454 414.773 414.286 410.557L415.027 410.079C415.818 412.074 415.723 411.879 417.635 412.266L417.873 411.289L416.677 409.48C414.611 408.405 415.624 408.486 413.576 408.922C411.02 411.27 411.951 413.495 409.788 417.177C407.998 417.809 408.131 417.777 406.264 417.396C404.28 414.373 407.911 412.397 403.82 410.013C402.173 410.488 401.322 410.813 399.738 411.477Z"/><path fill="#F4F3F9" transform="scale(0.333333 0.333008)" d="M584.316 373.276L589.854 375.752C592.279 377.148 603.31 383.686 605.212 384.381C610.867 384.698 651.845 407.898 659.732 411.73C663.073 413.354 670.464 417.923 674.106 418.471C672.818 419.289 671.953 420.018 670.451 420.225L669.406 421.542C667.241 423.761 667.315 424.386 664.58 425.115C663.739 424.772 662.263 424.228 661.51 423.842L659.474 425.107C650.364 422.005 585.49 386.782 583.735 383.266L583.651 382.388C581.386 381.383 579.124 380.149 576.918 379.002C578.222 377.317 581.952 375.017 583.992 373.313L584.316 373.276Z"/><path fill="#080782" transform="scale(0.333333 0.333008)" d="M583.735 383.266C588.555 384.96 603.746 393.345 609.099 396.172C626.493 405.54 643.964 414.764 661.51 423.842L659.474 425.107C650.364 422.005 585.49 386.782 583.735 383.266Z"/><path fill="#182B6B" transform="scale(0.333333 0.333008)" d="M605.212 384.381C610.867 384.698 651.845 407.898 659.732 411.73C663.073 413.354 670.464 417.923 674.106 418.471C672.818 419.289 671.953 420.018 670.451 420.225C669.182 418.557 612.444 388.665 605.212 384.381Z"/><path fill="#19447F" fill-opacity="0.49019608" transform="scale(0.333333 0.333008)" d="M640.983 624.826C642.997 625.756 649.104 628.382 650.47 629.552C653.938 634.101 658.731 634.757 662.793 637.267C664.356 638.234 670.175 646.102 671.572 648.001L673.613 646.732C675.868 647.747 675.944 647.873 677.723 649.655L676.413 650.603L676.346 651.171C678.294 652.357 678.553 652.426 680.834 652.461C682.295 654.547 681.887 657.454 681.826 660.183C678.841 659.347 679.751 659.11 677.603 660.235C676.749 662.501 676.801 661.368 677.539 663.754C679.384 665.383 678.988 665.529 681.806 665.205C681.723 668.344 682.261 668.156 680.7 670.05C678.309 670.939 677.112 670.957 674.527 670.748C671.232 670.481 671.21 671.72 668.976 672.46C656.944 667.058 640.7 658.057 628.757 651.726C630.783 651.279 632.731 650.19 634.776 649.809C639.543 648.922 645.14 648.897 650.018 648.731C650.857 645.292 647.602 633.688 646.12 630.044C646.223 630.297 641.492 625.381 640.983 624.826Z"/><path fill="#1B61A7" fill-opacity="0.627451" transform="scale(0.333333 0.333008)" d="M470.46 569.606C473.774 569.465 476.973 571.437 479.9 571.07C482.368 570.286 481.03 566.573 482.275 564.492C485.007 559.92 492.232 563.824 493.959 558.456C494.862 555.649 495.19 553.915 494.185 551.231C500.115 550.451 517.35 562.812 526.344 565.289L527.302 565.548L528.293 567.174L527.755 567.124C525.123 566.854 522.234 565.595 520.742 565.831C518.47 569.115 519.335 575.143 517.684 578.446L519.024 579.062L519.007 580.341L519.207 581.599L518.075 581.815L518.89 583.769L518.462 583.844L516.69 580.956L515.686 581.206C512.937 580.12 511.121 579.985 508.797 579.11C510.175 581.621 511.909 584.232 512.327 586.984C511.633 589.263 511.946 588.499 509.935 590.277C497.038 583.797 483.062 576.602 470.46 569.606Z"/><path fill="#182B6B" fill-opacity="0.87058824" transform="scale(0.333333 0.333008)" d="M690.021 640.442C728.16 620.058 765.497 601.974 803.907 582.322L930.597 516.84C937.748 513.225 969.938 495.065 974.442 494.142C974.454 495.932 974.603 501.638 974.391 503.095C972.744 500.958 973.846 500.064 971.987 497.3C970.041 496.894 959.246 503.777 956.286 505.287C916.324 525.675 877.128 547.457 837.33 568.141C817.603 578.407 798.69 590.374 778.55 599.914C772.63 602.718 764.75 607.087 758.699 609.06C760.076 606.244 762.868 605.646 765.661 605.172L766.356 604.272L765.294 603.709C758.809 607.17 752.152 610.367 745.619 613.789C728.642 622.685 711.758 631.861 694.576 640.338C692.957 641.136 691.769 640.628 690.021 640.442Z"/><path fill="#F4F3F9" transform="scale(0.333333 0.333008)" d="M599.328 467.177C606.108 463.883 613.562 459.475 620.206 455.736C622.252 457.624 625.18 460.021 626.56 462.312C624.621 463.403 616.506 467.802 615.221 468.86C608.44 472.335 600.426 477.077 593.83 480.115C593.805 489.636 593.256 507.308 593.97 516.198L594.119 519.494L593.349 520.183C590.837 519.911 586.435 517.253 583.973 515.941C582.37 502.609 584.34 488.911 582.978 477.825C584.739 474.408 595.055 470.267 599.328 467.177Z"/><path fill="#44EEF0" transform="scale(0.333333 0.333008)" d="M673.552 324.215C676.111 326.142 675.428 325.839 676.746 329.224L624.319 357.653C615.874 362.317 600.433 371.661 592.192 374.84L589.854 375.752L584.316 373.276C588.678 369.537 614.247 355.787 620.748 352.428C637.675 343.682 656.55 332.291 673.552 324.215Z"/><path fill="#44EEF0" fill-opacity="0.98823529" transform="scale(0.333333 0.333008)" d="M694.59 431.425C709.298 440.074 727.364 448.694 742.492 457.063C749.868 461.144 769.831 472.033 777.014 474.835C775.586 475.58 773.936 476.235 772.963 477.446L771.561 478.838L769.792 478.796C767.414 476.849 753.2 469.778 749.514 467.886L705.306 445.228C701.164 443.1 692.541 439.622 690.584 435.94C691.987 434.689 693.356 432.898 694.59 431.425Z"/><path fill="#070D47" fill-opacity="0.82352942" transform="scale(0.333333 0.333008)" d="M769.792 478.796L771.561 478.838C771.607 486.066 771.35 514.966 772.208 520.421C770.331 522.172 731.141 542.8 726.973 544.278C730.308 538.08 763.27 526.236 767.411 517.692C769.524 513.331 765.707 506.72 765.634 502.474C765.72 498.928 768.08 494.791 766.249 491.385C764.239 487.646 759.485 488.676 756.29 490.128C749.547 493.193 743.069 496.951 736.411 500.267C727.168 504.87 717.807 509.247 708.629 513.959C703.445 516.659 697.867 520.909 692.802 523.645C689.474 525.443 687.121 524.428 682.395 526.934C683.816 523.898 703.97 514.236 708.548 511.84C723.095 504.168 737.596 496.411 752.052 488.569C757.683 485.191 763.974 482.264 769.792 478.796Z"/><path fill="#1E5079" fill-opacity="0.18431373" transform="scale(0.333333 0.333008)" d="M1040.23 378.37C1041.09 377.647 1042.96 376.706 1044.03 376.12C1046.46 376.833 1046.68 377.275 1048.22 379.345L1048.11 380.194L1044.24 381.01C1042.03 386.485 1041.81 388.085 1040.43 393.539C1039.24 398.236 1039.86 404.915 1038.15 407.804C1035.2 407.276 1031.36 410.163 1027.41 409.588C1021.15 408.677 1015.84 402.128 1009.8 405.511L1007.92 404.399C1004.53 401.393 1004.79 401.311 1003.72 396.939L1007.02 395.634C1007.79 398.692 1007.18 398.158 1009.16 399.917C1012.69 399.968 1013.23 396.835 1017.66 396.403C1022.47 392.194 1037.88 383.649 1040.23 378.37Z"/><path fill="#F4F3F9" transform="scale(0.333333 0.333008)" d="M674.106 418.471C679.224 417.463 681.031 417.462 686.309 418.466C687.936 419.38 689.696 420.279 691.194 421.363C692.001 422.404 693.211 424.191 694.214 424.831C694.454 427.169 694.733 429.065 694.59 431.425C693.356 432.898 691.987 434.689 690.584 435.94C684.422 438.561 682.458 439.279 675.64 437.527C670.371 435.049 669.464 434.064 666.109 429.473C666.195 426.748 668.043 424.06 669.406 421.542L670.451 420.225C671.953 420.018 672.818 419.289 674.106 418.471Z"/><path fill="#F4F3F9" transform="scale(0.333333 0.333008)" d="M474.336 312.906C479.251 311.172 484.424 311.411 489.337 313.051L492.085 314.838C493.852 316.997 496.043 319.142 495.861 321.981C495.787 323.058 495.553 324.117 495.166 325.123C492.793 326.309 489.36 329.215 487.402 331.112L488.119 331.535C484.867 334.44 480.736 333.255 476.747 332.478C472.992 331.092 471.55 330.017 468.871 327.294L469.448 326.139L468.3 324.065C468.728 318.017 469.985 316.975 474.336 312.906Z"/><path fill="#13A6E7" transform="scale(0.333333 0.333008)" d="M469.448 326.139C475.562 331.46 479.025 333.316 487.402 331.112L488.119 331.535C484.867 334.44 480.736 333.255 476.747 332.478C472.992 331.092 471.55 330.017 468.871 327.294L469.448 326.139Z"/><path fill="#A3EEF4" transform="scale(0.333333 0.333008)" d="M665.465 430.582C667.129 432.693 669.112 435.345 670.831 437.341C656.463 445.414 640.931 454.636 626.56 462.312C625.18 460.021 622.252 457.624 620.206 455.736C635.104 447.257 650.732 439.256 665.465 430.582Z"/><path fill="#30788E" fill-opacity="0.98039216" transform="scale(0.333333 0.333008)" d="M690.584 435.94C692.541 439.622 701.164 443.1 705.306 445.228L749.514 467.886C753.2 469.778 767.414 476.849 769.792 478.796C763.974 482.264 757.683 485.191 752.052 488.569L751.328 486.247C752.833 482.753 756.359 483.873 758.436 480.205C757.715 473.358 732.193 464.28 726.674 459.901C726.313 459.615 719.867 455.958 719.262 455.74C709.992 452.391 703.508 447.862 695.631 442.313C690.736 438.9 679.184 443.028 675.122 439.003L675.64 437.527C682.458 439.279 684.422 438.561 690.584 435.94Z"/><path fill="#182B6B" fill-opacity="0.41568628" transform="scale(0.333333 0.333008)" d="M670.82 520.1L672.294 520.927C675.639 525.117 679.72 522.796 682.153 527.555C684.12 532.541 683.18 547.544 682.569 552.933C682.351 554.863 681.414 557.046 681.182 558.776C678.994 560.433 676.785 561.359 675.046 563.189C671.524 561.069 667.759 559.378 664.04 557.093L664.684 556.659C665.927 551.668 662.914 547.838 666.537 542.514C672.123 541.894 675.153 549.24 680.324 548.709C683.58 543.767 678.208 535.622 675.928 531.18C675.711 530.758 674.347 530.989 673.449 529.147C674.437 528.149 675.021 527.837 675.208 526.491C672.884 524.06 672.148 523.269 670.82 520.1Z"/><path fill="#459EA0" fill-opacity="0.90196079" transform="scale(0.333333 0.333008)" d="M593.83 480.115C600.426 477.077 608.44 472.335 615.221 468.86C612.783 472.261 603.083 477.028 602.892 479.232C604.329 480.172 628.666 492.978 628.572 492.662C630.555 499.265 631.663 493.748 636.263 496.765L635.738 498.139C640.228 500.273 646.327 501.55 649.899 503.485C653.868 505.636 657.698 511.153 662.82 513.218C665.833 514.433 675.672 519.604 677.013 522.159C675.318 522.484 673.96 521.629 672.294 520.927L670.82 520.1C667.447 518.94 653.72 511.038 649.716 508.962C631.499 499.513 613.025 488.32 594.606 479.348C594.678 491.104 594.99 504.547 593.97 516.198C593.256 507.308 593.805 489.636 593.83 480.115Z"/><path fill="#070D47" fill-opacity="0.43921569" transform="scale(0.333333 0.333008)" d="M848.431 439.93C851.853 439.498 853.853 437.652 856.53 437.812L856.798 438.54C855.214 440.819 853.647 443.11 852.096 445.412C843.786 449.134 842.778 452.037 836.047 457.584C835.265 458.228 829.263 457.578 827.54 457.748C824.057 460.45 818.56 463.126 814.169 463.072C814.005 462.616 813.84 462.161 813.676 461.705C810.555 462.201 811.742 461.699 809.197 463.693C809.306 462.044 809.96 461.146 810.739 459.689C813.952 457.02 844.68 441.064 848.431 439.93Z"/><path fill="#1E5079" fill-opacity="0.18039216" transform="scale(0.333333 0.333008)" d="M576.649 471.944C583.411 474.583 579.842 473.468 582.978 477.825C584.34 488.911 582.37 502.609 583.973 515.941L577.103 511.898C577.155 508.799 577.047 508.3 576.208 505.305C574.785 504.117 571.418 501.533 570.56 500.136C572.161 500.118 572.327 500.169 573.931 499.751C573.817 492.529 576.493 488.701 571.244 483.842L571.35 483.086L574.702 481.85L575.033 480.372C573.838 477.929 574.649 478.711 571.79 477.592C571.462 476.505 575.022 475.363 576.649 471.944Z"/><path fill="#A3EEF4" transform="scale(0.333333 0.333008)" d="M918.775 338.276C933.311 345.384 948.578 355.302 963.448 362.33C966.2 363.631 973.435 367.975 975.931 368.558L974.928 369.838C974.317 370.246 973.606 370.817 972.965 371.025L971.01 371.877C957.362 363.488 929.676 350.392 914.721 343.053C917.813 341.838 918.197 341.393 918.775 338.276Z"/><path fill="#070D47" fill-opacity="0.97647059" transform="scale(0.333333 0.333008)" d="M1057.68 318.195C1061.08 319.624 1064.03 320.38 1065.46 323.769C1062.93 333.446 1058.8 321.338 1053.36 331.342C1044.57 333.688 988.587 364.816 978.538 371.095C976.194 375.823 976.206 377.047 975.105 382.26L974.928 369.838L975.931 368.558C979.71 367.933 1052.23 327.765 1061.62 322.578L1061.81 321.766C1060.22 320.524 1059.14 319.577 1057.68 318.195Z"/><defs><linearGradient id="gradient_4" gradientUnits="userSpaceOnUse" x1="634.25372" y1="449.84412" x2="629.651" y2="443.13354"><stop offset="0" stop-color="#00017A" stop-opacity="0.95686275"/><stop offset="1" stop-color="#010182"/></linearGradient></defs><path fill="url(#gradient_4)" transform="scale(0.333333 0.333008)" d="M669.406 421.542C668.043 424.06 666.195 426.748 666.109 429.473L665.465 430.582C650.732 439.256 635.104 447.257 620.206 455.736C613.562 459.475 606.108 463.883 599.328 467.177C599.514 462.815 600.639 466.865 601.263 462.215C603.247 460.464 610.969 456.68 613.421 455.081C622.908 448.893 654.821 433.708 661.911 427.355L661.743 426.452L659.474 425.107L661.51 423.842C662.263 424.228 663.739 424.772 664.58 425.115C667.315 424.386 667.241 423.761 669.406 421.542Z"/><path fill="#1666AE" fill-opacity="0.39607844" transform="scale(0.333333 0.333008)" d="M519.007 580.341L519.024 579.062L517.684 578.446C519.335 575.143 518.47 569.115 520.742 565.831C522.234 565.595 525.123 566.854 527.755 567.124L528.293 567.174C528.87 567.434 531.433 568.541 531.835 568.789C528.898 572.403 530.251 576.407 528.251 579.378C527.521 580.464 523.967 580.595 523.235 584.082C525.603 588.396 531.218 588.2 533.329 591.292L532.111 591.144L531.481 592.284C532.286 594.196 534.881 599.839 534.907 601.514L536.034 602.835L535.53 603.524L524.382 597.86C525.506 597.128 526.241 596.527 527.181 595.569L527.382 595.603C525.942 591.08 519.68 587.917 519.725 583.275C519.736 582.102 519.562 581.353 519.007 580.341Z"/><path fill="#44EEF0" transform="scale(0.333333 0.333008)" d="M888.641 321.838C892.829 323.596 916.675 336.005 918.775 338.276C918.197 341.393 917.813 341.838 914.721 343.053C906.814 339.971 892.603 332.183 884.584 328.008C884.874 323.337 884.198 323.175 888.641 321.838Z"/><path fill="#070D47" fill-opacity="0.93333334" transform="scale(0.333333 0.333008)" d="M1060.63 362.573C1061.63 361.484 1062.84 361.162 1063.83 359.439C1066.06 355.549 1063.46 347.034 1065.71 344.235C1065.99 351.074 1065.88 357.876 1065.84 364.72C1060.69 367.638 1049.47 373.719 1044.03 376.12C1042.96 376.706 1041.09 377.647 1040.23 378.37C1037.53 379.654 1025.7 385.297 1023.79 386.888C1018.99 388.978 1011.6 392.869 1007.02 395.634L1003.72 396.939C1003.3 394.27 1002.97 394.85 1003.96 392.865L1006.81 392.133C1008.29 390.409 1007.81 390.509 1008.07 387.719C1010.69 386.447 1012.09 387.142 1015.38 387.521C1022.21 384.893 1057.79 367.028 1060.63 362.573Z"/><path fill="#19447F" fill-opacity="0.93333334" transform="scale(0.333333 0.333008)" d="M681.182 558.776L682.604 557.688C683.338 560.355 683.004 563.356 682.902 566.179C685.535 565.059 697.535 559.154 699.071 558.93C697.958 560.89 689.161 564.565 686.38 565.919C684.162 571.731 684.803 582.444 683.478 589.955L683.353 589.477C681.856 600.899 681.947 631.398 683.788 642.445L685.13 643.747C683.947 644.185 683.699 644.218 682.459 643.984L681.361 645.261C682.034 639.923 681.689 624.355 681.69 618.21L681.786 566.699C679.217 565.507 677.482 564.578 675.046 563.189C676.785 561.359 678.994 560.433 681.182 558.776Z"/><path fill="#1666AE" fill-opacity="0.047058824" transform="scale(0.333333 0.333008)" d="M508.638 435.397C520.731 440.902 532.769 447.659 544.537 453.887C553.294 458.521 562.502 462.962 571.12 467.742C572.268 468.643 574.534 470.307 575.512 471.224L573.918 471.505C567.173 466.637 531.915 447.451 523.817 444.815L523.714 445.442C526.021 449.024 530.831 452.89 533.929 456.582L533.342 456.801L531.696 455.678C531.108 455.273 529.523 454.172 529.022 454.22C525.435 455.211 521.018 444.227 520.659 444.14C516.78 443.194 507.069 441.18 508.638 435.397Z"/><defs><linearGradient id="gradient_5" gradientUnits="userSpaceOnUse" x1="1058.4471" y1="345.09641" x2="1067.8193" y2="342.70303"><stop offset="0" stop-color="#090943" stop-opacity="0.87450981"/><stop offset="1" stop-color="#090941" stop-opacity="0.95686275"/></linearGradient></defs><path fill="url(#gradient_5)" transform="scale(0.333333 0.333008)" d="M1053.36 331.342C1058.8 321.338 1062.93 333.446 1065.46 323.769C1065.79 329.402 1066.1 338.602 1065.71 344.235C1063.46 347.034 1066.06 355.549 1063.83 359.439C1062.84 361.162 1061.63 361.484 1060.63 362.573C1061.29 358.265 1060.79 333.895 1060.48 328.588L1059.61 328.059C1057.72 328.148 1057.6 328.343 1056 329.487L1053.36 331.342Z"/><path fill="#2D83B6" fill-opacity="0.52549022" transform="scale(0.333333 0.333008)" d="M399.738 411.477C401.322 410.813 402.173 410.488 403.82 410.013C407.911 412.397 404.28 414.373 406.264 417.396C408.131 417.777 407.998 417.809 409.788 417.177C411.951 413.495 411.02 411.27 413.576 408.922C415.624 408.486 414.611 408.405 416.677 409.48L417.873 411.289L417.635 412.266C415.723 411.879 415.818 412.074 415.027 410.079L414.286 410.557C413.454 414.773 408.677 420.644 408.836 422.349C410.26 422.721 412.45 423.01 413.234 423.929L410.934 423.548C414.44 428.076 417.775 424.543 422.243 427.326L423.4 428.957L422.959 429.448L422.103 429.082C418.247 427.455 417.281 427.369 413.128 427.036C411.782 426.633 409.501 424.722 406.454 423.794C400.652 418.784 399.938 419.103 399.738 411.477Z"/><path fill="#1666AE" fill-opacity="0.2" transform="scale(0.333333 0.333008)" d="M533.329 591.292C539.639 592.076 544.877 594.088 550.111 597.779C553.128 599.908 562.688 607.676 562.115 611.598L561.746 610.852C554.935 607.589 539.071 594.995 535.177 593.674L533.329 591.292Z"/><path fill="#256783" fill-opacity="0.054901961" transform="scale(0.333333 0.333008)" d="M1009.8 405.511C1015.84 402.128 1021.15 408.677 1027.41 409.588C1031.36 410.163 1035.2 407.276 1038.15 407.804C1038.08 410.57 1038.56 410.573 1037.19 412.224C1031.99 413.94 1031.78 411.967 1026.85 414.532C1020.72 411.564 1015.73 408.875 1009.8 405.511Z"/><path fill="#1666AE" fill-opacity="0.043137256" transform="scale(0.333333 0.333008)" d="M559.51 582.903C562.675 584.291 576.549 591.056 579.199 592.884L578.414 593.785C574.727 592.791 573.584 590.309 570.408 591.737L570.38 592.8C572.761 594.974 574.002 594.759 577.369 594.976C577.822 596.633 577.68 596.112 576.903 598.076C570.34 597.332 563.29 591.582 559.758 586.247C559.894 584.959 559.703 584.165 559.51 582.903Z"/><path fill="#080782" fill-opacity="0.98431373" transform="scale(0.333333 0.333008)" d="M582.274 472.908C587.73 469.404 595.498 465.159 601.263 462.215C600.639 466.865 599.514 462.815 599.328 467.177C595.055 470.267 584.739 474.408 582.978 477.825C579.842 473.468 583.411 474.583 576.649 471.944L575.512 471.224C574.534 470.307 572.268 468.643 571.12 467.742C574.278 468.837 579.128 471.377 582.274 472.908Z"/><path fill="#30788E" fill-opacity="0.0078431377" transform="scale(0.333333 0.333008)" d="M1007.02 395.634C1011.6 392.869 1018.99 388.978 1023.79 386.888C1024.27 388.717 1024.47 388.823 1023.76 390.596C1019.84 393.174 1019.52 392.382 1017.66 396.403C1013.23 396.835 1012.69 399.968 1009.16 399.917C1007.18 398.158 1007.79 398.692 1007.02 395.634Z"/><path fill="#1666AE" fill-opacity="0.47058824" transform="scale(0.333333 0.333008)" d="M509.935 590.277C511.946 588.499 511.633 589.263 512.327 586.984C511.909 584.232 510.175 581.621 508.797 579.11C511.121 579.985 512.937 580.12 515.686 581.206C517.829 587.763 523.325 587.999 516.496 593.623L509.935 590.277Z"/><path fill="#1666AE" fill-opacity="0.41568628" transform="scale(0.333333 0.333008)" d="M519.007 580.341C519.562 581.353 519.736 582.102 519.725 583.275C519.68 587.917 525.942 591.08 527.382 595.603L527.181 595.569C526.241 596.527 525.506 597.128 524.382 597.86L516.496 593.623C523.325 587.999 517.829 587.763 515.686 581.206L516.69 580.956L518.462 583.844L518.89 583.769L518.075 581.815L519.207 581.599L519.007 580.341Z"/><path fill="#1666AE" fill-opacity="0.9254902" transform="scale(0.333333 0.333008)" d="M974.928 369.838L975.105 382.26C974.985 391.287 974.642 403.5 975.291 412.28L974.421 412.881L973.739 412.931C973.609 398.96 973.351 384.991 972.965 371.025C973.606 370.817 974.317 370.246 974.928 369.838Z"/><path fill="#256783" fill-opacity="0.062745102" transform="scale(0.333333 0.333008)" d="M1040.23 378.37C1037.88 383.649 1022.47 392.194 1017.66 396.403C1019.52 392.382 1019.84 393.174 1023.76 390.596C1024.47 388.823 1024.27 388.717 1023.79 386.888C1025.7 385.297 1037.53 379.654 1040.23 378.37Z"/><path fill="#C0CEE0" fill-opacity="0.96862745" transform="scale(0.333333 0.333008)" d="M492.797 426.605L493.772 426.821L493.863 427.02C493.82 438.91 494.055 451.395 493.706 463.218L492.747 462.784C491.714 457.26 492.163 432.499 492.797 426.605Z"/><path fill="#1B61A7" fill-opacity="0.83137256" transform="scale(0.333333 0.333008)" d="M868.448 426C869.473 425.435 870.977 424.915 872.103 424.473C871.821 438.447 871.711 452.424 871.77 466.401C871.451 465.995 871.052 464.567 870.859 463.984C870.256 455.233 871.368 433.043 869.834 426.764L868.448 426Z"/><path fill="#48ADC9" fill-opacity="0.94509804" transform="scale(0.333333 0.333008)" d="M771.561 478.838L772.963 477.446C773.061 490.308 773.565 507.581 772.789 520.25L772.208 520.421C771.35 514.966 771.607 486.066 771.561 478.838Z"/><path fill="#19447F" fill-opacity="0.80392158" transform="scale(0.333333 0.333008)" d="M669.431 672.625C674.029 674.046 679.917 669.998 681.923 672.826C681.879 675.638 681.308 678.052 683.455 680.112C681.581 680.404 671.796 674.077 669.431 672.625Z"/><path fill="#256783" fill-opacity="0.96470588" transform="scale(0.333333 0.333008)" d="M835.749 443.014C837.909 437.533 847.504 433.911 852.675 432.043L854.577 433.12C848.562 436.425 841.95 440.234 835.749 443.014Z"/><path fill="#2D83B6" fill-opacity="0.95686275" transform="scale(0.333333 0.333008)" d="M873.953 421.941C884.215 416.395 894.363 410.487 904.785 405.264C905.346 405.392 905.907 405.52 906.468 405.649C901.345 408.269 877.711 421.619 874.325 422.604L873.953 421.941Z"/><path fill="#1666AE" fill-opacity="0.34117648" transform="scale(0.333333 0.333008)" d="M536.034 602.835C537.459 602.229 537.912 601.711 538.977 600.642L540.539 600.491C542.215 601.9 542.238 601.967 542.867 604.126C542.192 605.029 542.504 604.802 541.585 605.375C544.534 606.246 547.128 606.966 549.974 608.156C549.844 609.398 549.874 609.323 549.28 610.419C544.676 608.162 540.093 605.864 535.53 603.524L536.034 602.835Z"/><path fill="#256783" fill-opacity="0.96862745" transform="scale(0.333333 0.333008)" d="M819.61 451.941C819.966 447.528 825.896 443.698 829.885 443.932C831.042 444.001 832.197 444.092 833.35 444.206C828.684 447.066 824.34 449.312 819.61 451.941Z"/><path fill="#1666AE" fill-opacity="0.95294118" transform="scale(0.333333 0.333008)" d="M937.841 388.991C939.453 386.098 957.447 377.525 961.422 375.71L962.416 376.282C954.648 380.304 945.619 385.294 937.841 388.991Z"/><defs><linearGradient id="gradient_6" gradientUnits="userSpaceOnUse" x1="807.52679" y1="454.6825" x2="808.5578" y2="457.11429"><stop offset="0" stop-color="#1B6277" stop-opacity="0.96078432"/><stop offset="1" stop-color="#3C8195" stop-opacity="0.97254902"/></linearGradient></defs><path fill="url(#gradient_6)" transform="scale(0.333333 0.333008)" d="M805.416 459.708C805.81 457.524 804.961 457.883 806.546 456.221C809.164 453.479 813.631 453.038 817.164 453.045C813.282 455.325 809.365 457.546 805.416 459.708Z"/><path fill="#1666AE" fill-opacity="0.94117647" transform="scale(0.333333 0.333008)" d="M914.883 401.124L914.593 400.663C915.999 398.734 932.462 390.323 935.114 390.418C931.428 392.466 918.621 399.801 914.883 401.124Z"/><path fill="#1B61A7" fill-opacity="0.078431375" transform="scale(0.333333 0.333008)" d="M576.997 624.546C580.533 623.427 584.452 622.911 586.281 626.748L585.829 629.038C582.523 627.671 580.112 626.284 576.997 624.546Z"/><path fill="#19447F" fill-opacity="0.44705883" transform="scale(0.333333 0.333008)" d="M681.806 665.205C678.988 665.529 679.384 665.383 677.539 663.754C676.801 661.368 676.749 662.501 677.603 660.235C679.751 659.11 678.841 659.347 681.826 660.183L681.806 665.205Z"/></svg>