<?xml version="1.0" encoding="utf-8" ?><svg xmlns="http://www.w3.org/2000/svg" xmlns:xlink="http://www.w3.org/1999/xlink" width="1024" height="512" viewBox="0 0 1024 512"><defs><linearGradient id="gradient_0" gradientUnits="userSpaceOnUse" x1="1510.3279" y1="725.42792" x2="537.10425" y2="165.82056"><stop offset="0" stop-color="#A7C0C3"/><stop offset="1" stop-color="#D5E7E7" stop-opacity="0.98823529"/></linearGradient></defs><path fill="url(#gradient_0)" transform="scale(0.5 0.5)" d="M369.68 447.23C376.835 443.147 396.073 435.312 404.749 431.579L478.511 400.121L763.431 278.374C832.149 248.881 900.716 217.745 969.762 188.906C981.274 184.098 1014.55 168.313 1024.78 165.55C1134.14 215.517 1248.64 262.248 1359.11 310.154L1561.87 397.13C1598.72 412.938 1638.61 431.431 1675.64 445.803C1566.73 495.3 1457.17 543.353 1346.98 589.948L1260.55 627.299C1252.84 630.666 1232.92 640.804 1225.89 642.921C1219.98 644.75 1199.2 650.671 1196.77 654.631C1180.2 658.816 1012.54 729.979 1006.55 740.005C1006.23 740.552 1006.29 741.093 1006.24 741.714C1004.81 742.284 1003.24 742.819 1001.79 743.345L998.75 741.829L998.683 741.297C1000.62 740.752 1002.84 740.064 1003.65 738.298C1009.13 734.667 1013.78 733.481 1019.33 728.801L1019.12 727.743C1009.06 724.589 1001.13 718.728 992.546 715.542C955.425 701.769 919.673 683.628 883.321 668.197L496.383 501.324C469.238 489.601 442.172 477.697 415.186 465.612C404.605 460.936 380.018 449.367 369.68 447.23ZM452.344 448.537L870.754 630.36L992.2 682.798C997.201 684.915 1021.12 696.197 1024.6 696.959C1077.27 671.919 1138.42 647.403 1192.37 623.826L1595.86 447.297L1023.68 199.107C974.291 221.759 921.764 243.401 871.67 265.181L620.524 374.822C564.666 399.187 507.834 423.433 452.344 448.537Z"/><path fill="#4B6E7A" transform="scale(0.5 0.5)" d="M1023.68 199.107L1595.86 447.297L1192.37 623.826C1138.42 647.403 1077.27 671.919 1024.6 696.959C1021.12 696.197 997.201 684.915 992.2 682.798L870.754 630.36L452.344 448.537C507.834 423.433 564.666 399.187 620.524 374.822L871.67 265.181C921.764 243.401 974.291 221.759 1023.68 199.107ZM779.363 460.879L965.765 543.924C973.418 547.325 1018.23 568.618 1024.21 569.699L1268.23 461.944C1268.41 449.939 1268.37 437.932 1268.12 425.929C1245.07 417.212 1214.99 402.615 1191.92 392.338L1100 352.155C1074.97 341.117 1048.98 329.109 1023.8 318.709C957.116 345.991 889.45 379.519 822.612 407.13C815.144 410.215 785.261 425.05 779.779 426.048C778.735 434.733 779.337 451.483 779.363 460.879ZM510.451 448.865C529.931 457.313 549.474 465.615 569.079 473.77C574.834 466.334 600.177 468.426 604.641 463.014C601.83 461.326 602.708 461.255 600.191 461.7L599.924 461.088L601.146 458.2L599.973 457.122C594.214 457.309 594.033 458.585 591.597 462.993C586.897 462.709 575.578 460.895 572.521 464.316L574.138 466.64C573.054 467.4 568.949 465.315 564.468 465.766C564.785 467.448 564.84 467.545 564.744 469.342C558.117 468.617 542.046 457.481 534.638 455.578C529.001 454.13 523.282 456.169 521.455 447.678C522.711 444.639 551.83 431.771 555.44 433.301C553.356 435.033 550.591 435.373 547.862 436.029C556.009 439.642 569.312 429.851 575 436.004C573.061 437.031 562.672 436.178 558.873 436.384C552.759 440.321 544.82 446.716 547.725 454.628C558.276 464.825 607.237 463.109 594.207 442.184L590.584 442.478C587.631 435.59 585.968 436.397 579.026 434.182C582.836 433.387 604.705 441.533 608.437 440.868L608.715 438.564L607.269 437.343L605.106 438.066C584.405 423.588 573.861 434.165 557.247 428.225C543.25 434.198 523.64 441.978 510.451 448.865Z"/><path fill="#CADDDE" transform="scale(0.5 0.5)" d="M1023.61 226.089C1133.06 272.158 1242.09 319.228 1350.69 367.293L1441.28 406.413C1451.1 410.642 1479.81 422.446 1488.08 427.252C1503.71 433.847 1523.92 441.735 1538.88 449.009C1520.45 458.017 1495.51 467.667 1476.02 475.791C1472.31 477.908 1466.46 480.277 1462.42 481.956C1418.2 500.348 1374.67 520.324 1330.72 539.34L1024.02 672.195C936.631 635.313 848.431 595.644 761.376 557.642C721.79 540.59 682.297 523.323 642.899 505.842C618.167 495.109 593.635 485.114 569.079 473.77C574.834 466.334 600.177 468.426 604.641 463.014C601.83 461.326 602.708 461.255 600.191 461.7L599.924 461.088L601.146 458.2L599.973 457.122C594.214 457.309 594.033 458.585 591.597 462.993C586.897 462.709 575.578 460.895 572.521 464.316L574.138 466.64C573.054 467.4 568.949 465.315 564.468 465.766C564.785 467.448 564.84 467.545 564.744 469.342C558.117 468.617 542.046 457.481 534.638 455.578C529.001 454.13 523.282 456.169 521.455 447.678C522.711 444.639 551.83 431.771 555.44 433.301C553.356 435.033 550.591 435.373 547.862 436.029C556.009 439.642 569.312 429.851 575 436.004C573.061 437.031 562.672 436.178 558.873 436.384C552.759 440.321 544.82 446.716 547.725 454.628C558.276 464.825 607.237 463.109 594.207 442.184L590.584 442.478C587.631 435.59 585.968 436.397 579.026 434.182C582.836 433.387 604.705 441.533 608.437 440.868L608.715 438.564L607.269 437.343L605.106 438.066C584.405 423.588 573.861 434.165 557.247 428.225C584.209 416.853 611.079 404.511 637.974 392.897L868.459 292.795C917.245 271.459 974.686 245.034 1023.61 226.089ZM779.363 460.879L965.765 543.924C973.418 547.325 1018.23 568.618 1024.21 569.699L1268.23 461.944C1268.41 449.939 1268.37 437.932 1268.12 425.929C1245.07 417.212 1214.99 402.615 1191.92 392.338L1100 352.155C1074.97 341.117 1048.98 329.109 1023.8 318.709C957.116 345.991 889.45 379.519 822.612 407.13C815.144 410.215 785.261 425.05 779.779 426.048C778.735 434.733 779.337 451.483 779.363 460.879Z"/><path fill="#F4D29D" transform="scale(0.5 0.5)" d="M1488.08 427.252C1503.71 433.847 1523.92 441.735 1538.88 449.009C1520.45 458.017 1495.51 467.667 1476.02 475.791C1475.34 475.664 1475.36 475.725 1474.82 475.438C1464.93 470.211 1451.8 471.953 1441.69 467.776C1437.73 466.608 1431.13 463.352 1427.22 461.463L1427.75 460.514L1431.37 459.853L1430.68 456.622L1431.61 455.24C1434.9 456.481 1431.18 457.019 1434.27 460.016C1441.54 461.726 1452.82 464.07 1460.18 463.787C1459.61 460.144 1452.39 460.878 1451.01 457.489C1449.91 454.761 1447.23 448.888 1447.87 446.285L1449.47 447.345C1450.85 446.287 1450.42 446.418 1450.84 444.106C1452.58 441.607 1453.36 441.103 1456.12 439.83L1455.08 438.435C1447.59 437.757 1439.01 441.726 1431.37 443.995L1431.54 440.753C1429.97 440.386 1429.28 440.525 1427.72 440.636C1432.38 437.748 1439.82 436.496 1442.79 434.257C1452.69 429.979 1473.99 430.504 1485.74 429.862C1486.5 428.853 1487.21 428.153 1488.08 427.252Z"/><path fill="#F8D5B4" transform="scale(0.5 0.5)" d="M1488.08 427.252C1503.71 433.847 1523.92 441.735 1538.88 449.009C1520.45 458.017 1495.51 467.667 1476.02 475.791C1475.34 475.664 1475.36 475.725 1474.82 475.438C1464.93 470.211 1451.8 471.953 1441.69 467.776C1455.84 466.993 1501.11 470.066 1504.66 450.882C1503.69 448.401 1502.69 446.09 1500.77 444.212C1491.41 435.09 1455.22 434.374 1442.79 434.257C1452.69 429.979 1473.99 430.504 1485.74 429.862C1486.5 428.853 1487.21 428.153 1488.08 427.252Z"/><path fill="#4B6E7A" transform="scale(0.5 0.5)" d="M779.779 426.048C785.261 425.05 815.144 410.215 822.612 407.13C889.45 379.519 957.116 345.991 1023.8 318.709C1048.98 329.109 1074.97 341.117 1100 352.155L1191.92 392.338C1214.99 402.615 1245.07 417.212 1268.12 425.929C1268.37 437.932 1268.41 449.939 1268.23 461.944L1024.21 569.699C1018.23 568.618 973.418 547.325 965.765 543.924L779.363 460.879C779.337 451.483 778.735 434.733 779.779 426.048ZM1042.99 377.5C1048.07 381.542 1067.58 389.336 1074.38 392.366C1098 402.779 1121.55 413.341 1145.03 424.051C1149.21 425.996 1161.93 431.604 1164.47 433.99C1157.83 438.176 1142.92 442.345 1135.28 445.978C1131.07 447.982 1127.45 450.163 1123.2 452.065L1067.12 476.943C1061.34 479.534 1031.76 492.33 1027.69 495.213C1021.58 497.242 984.447 478.551 976.501 474.944C945.72 461.304 915.105 447.293 884.66 432.917C893.938 426.06 908.745 420.593 919.497 415.84C953.507 400.806 987.672 384.194 1022.64 371.83C1025.95 370.658 1039.34 376.071 1042.99 377.5ZM1185.8 432.328C1152.88 418.021 1120.36 402.733 1087.44 388.338C1083.8 385.984 1072.63 381.316 1068.15 379.259C1053.54 372.557 1038.36 366.586 1023.93 359.466C1024.14 357.417 1023.87 351.665 1023.81 349.322C964.771 374.746 905.778 402.19 846.763 426.96C849.762 428.165 857.23 431.541 859.996 431.533C865.921 434.255 870.873 436.51 877.001 438.758L878.205 439.368C897.944 448.09 919.904 457.292 939.302 466.475C957.758 474.641 976.146 482.959 994.464 491.428C1001.49 494.625 1021.94 505.694 1028.65 503.105C1029.06 502.948 1029.46 502.784 1029.86 502.614C1036.41 498.432 1061.9 487.813 1070.05 483.956C1107.48 466.237 1148.94 450.774 1185.8 432.328Z"/><path fill="#2E5366" transform="scale(0.5 0.5)" d="M779.779 426.048L1023.76 534.379C1023.86 541.204 1023.54 564.379 1024.21 569.699C1018.23 568.618 973.418 547.325 965.765 543.924L779.363 460.879C779.337 451.483 778.735 434.733 779.779 426.048Z"/><path fill="#0B131D" transform="scale(0.5 0.5)" d="M1268.12 425.929C1268.37 437.932 1268.41 449.939 1268.23 461.944L1024.21 569.699C1023.54 564.379 1023.86 541.204 1023.76 534.379C1055.49 522.02 1099.41 501.202 1130.65 487.011L1268.12 425.929Z"/><path fill="#84EBE2" transform="scale(0.5 0.5)" d="M884.66 432.917C893.938 426.06 908.745 420.593 919.497 415.84C953.507 400.806 987.672 384.194 1022.64 371.83C1025.95 370.658 1039.34 376.071 1042.99 377.5C1048.07 381.542 1067.58 389.336 1074.38 392.366C1098 402.779 1121.55 413.341 1145.03 424.051C1149.21 425.996 1161.93 431.604 1164.47 433.99C1157.83 438.176 1142.92 442.345 1135.28 445.978C1131.07 447.982 1127.45 450.163 1123.2 452.065L1067.12 476.943C1061.34 479.534 1031.76 492.33 1027.69 495.213C1021.58 497.242 984.447 478.551 976.501 474.944C945.72 461.304 915.105 447.293 884.66 432.917Z"/><path fill="#FEFEFE" fill-opacity="0.82745099" transform="scale(0.5 0.5)" d="M1023.93 359.466C1038.36 366.586 1053.54 372.557 1068.15 379.259C1072.63 381.316 1083.8 385.984 1087.44 388.338C1088.56 390.392 1088.35 389.472 1087.8 392.131C1081.48 397.113 1053.64 376.704 1042.99 377.5C1039.34 376.071 1025.95 370.658 1022.64 371.83C987.672 384.194 953.507 400.806 919.497 415.84C908.745 420.593 893.938 426.06 884.66 432.917C915.105 447.293 945.72 461.304 976.501 474.944C984.447 478.551 1021.58 497.242 1027.69 495.213L1025.29 498.74C1026.38 501.449 1026.78 500.966 1029.86 502.614C1029.46 502.784 1029.06 502.948 1028.65 503.105C1021.94 505.694 1001.49 494.625 994.464 491.428C976.146 482.959 957.758 474.641 939.302 466.475L944.337 465.445L944.423 464.031C941.355 461.098 932.115 457.559 927.756 455.678C920.087 450.095 873.881 428.114 866.577 431.215C867.788 434.008 873.837 432.804 877.001 438.758C870.873 436.51 865.921 434.255 859.996 431.533C867.812 428.012 875.702 424.655 883.659 421.465C881.374 425.64 879.967 423.269 876.252 427.401C886.457 431.478 933.612 403.701 946.234 399.583C949.003 398.679 952.377 396.974 953.607 394.205L952.287 393.038C950.709 393.303 949.394 392.986 947.806 392.756C965.309 384.756 982.921 376.994 1000.63 369.47C999.222 374.152 995.072 372.354 993.386 375.01C995.709 376.567 994.766 376.138 998.037 375.992C999.895 374.738 1003.85 372.011 1006 372.707C1002.14 371.386 1003.44 372.417 1001.25 368.687C1008.78 365.54 1016.34 362.467 1023.93 359.466Z"/><path fill="#FEFEFE" fill-opacity="0.97254902" transform="scale(0.5 0.5)" d="M1042.99 377.5C1053.64 376.704 1081.48 397.113 1087.8 392.131C1088.35 389.472 1088.56 390.392 1087.44 388.338C1120.36 402.733 1152.88 418.021 1185.8 432.328C1148.94 450.774 1107.48 466.237 1070.05 483.956C1061.9 487.813 1036.41 498.432 1029.86 502.614C1026.78 500.966 1026.38 501.449 1025.29 498.74L1027.69 495.213C1031.76 492.33 1061.34 479.534 1067.12 476.943L1123.2 452.065C1127.45 450.163 1131.07 447.982 1135.28 445.978C1142.92 442.345 1157.83 438.176 1164.47 433.99C1161.93 431.604 1149.21 425.996 1145.03 424.051C1121.55 413.341 1098 402.779 1074.38 392.366C1067.58 389.336 1048.07 381.542 1042.99 377.5Z"/><path fill="#2E5366" transform="scale(0.5 0.5)" d="M1023.81 349.322C1036.31 353.219 1074.15 370.976 1087.82 377.248C1123.75 393.722 1162.62 409.664 1197.98 426.676L1185.8 432.328C1152.88 418.021 1120.36 402.733 1087.44 388.338C1083.8 385.984 1072.63 381.316 1068.15 379.259C1053.54 372.557 1038.36 366.586 1023.93 359.466C1024.14 357.417 1023.87 351.665 1023.81 349.322Z"/><path fill="#0B131D" fill-opacity="0.98823529" transform="scale(0.5 0.5)" d="M846.763 426.96C905.778 402.19 964.771 374.746 1023.81 349.322C1023.87 351.665 1024.14 357.417 1023.93 359.466C1016.34 362.467 1008.78 365.54 1001.25 368.687L1000.63 369.47C982.921 376.994 965.309 384.756 947.806 392.756C937.542 397.159 889.969 416.303 883.659 421.465C875.702 424.655 867.812 428.012 859.996 431.533C857.23 431.541 849.762 428.165 846.763 426.96Z"/><path fill="#FEFEFE" fill-opacity="0.61960787" transform="scale(0.5 0.5)" d="M947.806 392.756C949.394 392.986 950.709 393.303 952.287 393.038L953.607 394.205C952.377 396.974 949.003 398.679 946.234 399.583C933.612 403.701 886.457 431.478 876.252 427.401C879.967 423.269 881.374 425.64 883.659 421.465C889.969 416.303 937.542 397.159 947.806 392.756Z"/><path fill="#FEFEFE" fill-opacity="0.627451" transform="scale(0.5 0.5)" d="M877.001 438.758C873.837 432.804 867.788 434.008 866.577 431.215C873.881 428.114 920.087 450.095 927.756 455.678C917.109 459.547 886.483 436.231 878.205 439.368L877.001 438.758Z"/><path fill="#FEFEFE" fill-opacity="0.74117649" transform="scale(0.5 0.5)" d="M878.205 439.368C886.483 436.231 917.109 459.547 927.756 455.678C932.115 457.559 941.355 461.098 944.423 464.031L944.337 465.445L939.302 466.475C919.904 457.292 897.944 448.09 878.205 439.368Z"/><path fill="#FEFEFE" fill-opacity="0.84705883" transform="scale(0.5 0.5)" d="M1000.63 369.47L1001.25 368.687C1003.44 372.417 1002.14 371.386 1006 372.707C1003.85 372.011 999.895 374.738 998.037 375.992C994.766 376.138 995.709 376.567 993.386 375.01C995.072 372.354 999.222 374.152 1000.63 369.47Z"/><path fill="#D0F1F6" transform="scale(0.5 0.5)" d="M1206.89 358.739C1212.56 357.828 1225.76 356.289 1229.98 360.221L1228.68 359.054L1229.51 359.818C1230.16 363.474 1226.74 363.959 1223.98 368.642C1228.47 369.706 1231.51 368.371 1235.59 366.69C1227.2 377.926 1197.07 376.734 1199.22 362.732C1200.87 360.109 1203.88 359.643 1206.89 358.739Z"/><path fill="#D0F1F6" transform="scale(0.5 0.5)" d="M1013.05 278.758C1018.22 277.789 1033 276.376 1037.44 279.239C1034.85 284.255 1029.35 281.076 1027.69 289.986C1029.32 292.007 1031.11 291.686 1034.3 292.295L1033.82 292.811L1034.73 293.454L1036.85 291.989C1038.48 289.821 1038.55 289.481 1040.99 288.577L1040.81 290.464C1035.38 297.89 1025.74 295.622 1017.18 295.259C1014.12 295.13 1011.14 281.622 1010.23 280.396L1013.05 278.758Z"/><path fill="#FEFEFE" transform="scale(0.5 0.5)" d="M823.955 363.51C830.013 363.319 832.924 362.456 837.706 365.902C838.758 369.036 838.708 367.669 837.508 371.193L835.743 371.2C830.796 371.556 824.885 372.751 821.209 370.051C821.391 366.352 821.667 367.046 823.955 363.51Z"/><path fill="#FEFEFE" transform="scale(0.5 0.5)" d="M822.97 515.634C826.229 515.12 826.915 514.938 830.274 515.746L830.004 515.839C834.404 516.436 840.555 515.969 841.291 520.641L839.398 522.156C835.895 522.969 827.604 524.066 824.233 522.728C823.571 520.026 824.017 520.321 825.235 517.393L821.373 516.525L822.97 515.634Z"/><path fill="#FEFEFE" transform="scale(0.5 0.5)" d="M1210.38 518.219C1215.51 517.894 1223.83 516.812 1228.04 519.59L1227.82 521.701C1221.54 524.915 1211.63 527.667 1210.38 518.219Z"/><path fill="#FEFEFE" transform="scale(0.5 0.5)" d="M1014.93 600.352C1021.87 599.473 1027.97 597.398 1031.82 604.346C1025.56 605.879 1017.18 607.464 1014.93 600.352Z"/><path fill="#F4D29D" fill-opacity="0.98039216" transform="scale(0.5 0.5)" d="M557.247 428.225C573.861 434.165 584.405 423.588 605.106 438.066L607.269 437.343L608.715 438.564L608.437 440.868C604.705 441.533 582.836 433.387 579.026 434.182C585.968 436.397 587.631 435.59 590.584 442.478L594.207 442.184C607.237 463.109 558.276 464.825 547.725 454.628C544.82 446.716 552.759 440.321 558.873 436.384C562.672 436.178 573.061 437.031 575 436.004C569.312 429.851 556.009 439.642 547.862 436.029C550.591 435.373 553.356 435.033 555.44 433.301C551.83 431.771 522.711 444.639 521.455 447.678C523.282 456.169 529.001 454.13 534.638 455.578C542.046 457.481 558.117 468.617 564.744 469.342C564.84 467.545 564.785 467.448 564.468 465.766C568.949 465.315 573.054 467.4 574.138 466.64L572.521 464.316C575.578 460.895 586.897 462.709 591.597 462.993C594.033 458.585 594.214 457.309 599.973 457.122L601.146 458.2L599.924 461.088L600.191 461.7C602.708 461.255 601.83 461.326 604.641 463.014C600.177 468.426 574.834 466.334 569.079 473.77C549.474 465.615 529.931 457.313 510.451 448.865C523.64 441.978 543.25 434.198 557.247 428.225Z"/><path fill="#A0CBD3" transform="scale(0.5 0.5)" d="M12.9163 442.116C19.0559 436.831 80.0305 412.449 91.271 407.793L158.862 379.184C160.784 383.183 199.364 398.499 207.403 401.95C241.59 416.303 275.559 431.171 309.298 446.551L205.319 491.617C198.124 494.732 157.262 510.995 154.888 515.161C164.299 519.304 173.791 523.257 183.361 527.018C191.045 524.314 199.671 520.743 207.093 517.334C251.598 496.89 297.5 478.869 342.059 458.71C349.483 455.297 362.188 449.757 369.68 447.23C380.018 449.367 404.605 460.936 415.186 465.612C442.172 477.697 469.238 489.601 496.383 501.324L883.321 668.197C919.673 683.628 955.425 701.769 992.546 715.542C1001.13 718.728 1009.06 724.589 1019.12 727.743L1019.33 728.801C1013.78 733.481 1009.13 734.667 1003.65 738.298C1002.84 740.064 1000.62 740.752 998.683 741.297C990.83 742.623 959.128 752.407 954.166 757.451L954.11 757.612C949.422 759.757 927.031 769.254 924.848 771.24C919.211 772.263 914.271 776.461 911.235 776.533C898.26 780.99 884.333 788.632 871.538 792.99C863.326 796.502 847.308 802.689 840.066 806.458C836.429 807.971 835.562 808.182 834.875 811.836C837.015 815.758 858.046 824.183 863.063 823.184C871.554 821.493 879.476 814.714 887.175 811.486C892.342 809.32 897.318 808.26 902.763 805.932L979.008 772.802C987.906 768.93 1027.86 750.047 1034 748.84C1032.86 751.739 1031.97 752.251 1029.45 753.848L1029.51 755.064C1066.29 770.471 1102.89 786.308 1139.31 802.573C1149.54 807.023 1177.81 820.079 1186.82 822.795L1078.61 871.098C1061.25 878.804 1039.89 887.482 1023.13 895.69L1023.01 937.228L1023.8 937.046C1024.15 964.813 1024.59 996.218 1024.02 1024L1020.24 1024C1016.37 1018.71 856.088 949.516 839.042 942.048L192.584 658.974L71.3334 606.211C61.7439 602.028 6.67714 576.402 0 575.912L0 490.094L0 442.903L12.9163 442.116Z"/><path fill="#CADDDE" transform="scale(0.5 0.5)" d="M342.059 458.71C349.483 455.297 362.188 449.757 369.68 447.23C380.018 449.367 404.605 460.936 415.186 465.612C442.172 477.697 469.238 489.601 496.383 501.324L883.321 668.197C919.673 683.628 955.425 701.769 992.546 715.542C1001.13 718.728 1009.06 724.589 1019.12 727.743L1019.33 728.801C1013.78 733.481 1009.13 734.667 1003.65 738.298C1002.84 740.064 1000.62 740.752 998.683 741.297C990.83 742.623 959.128 752.407 954.166 757.451L954.11 757.612C949.422 759.757 927.031 769.254 924.848 771.24C919.211 772.263 914.271 776.461 911.235 776.533C898.26 780.99 884.333 788.632 871.538 792.99C863.326 796.502 847.308 802.689 840.066 806.458C834.894 806.125 832.762 807.233 828.02 809.079L407.544 624.869L258.235 560.232C238.788 551.796 200.25 536.47 183.361 527.018C191.045 524.314 199.671 520.743 207.093 517.334C251.598 496.89 297.5 478.869 342.059 458.71Z"/><path fill="#D0F1F6" transform="scale(0.5 0.5)" d="M342.059 458.71C349.483 455.297 362.188 449.757 369.68 447.23C380.018 449.367 404.605 460.936 415.186 465.612C442.172 477.697 469.238 489.601 496.383 501.324L883.321 668.197C919.673 683.628 955.425 701.769 992.546 715.542C1001.13 718.728 1009.06 724.589 1019.12 727.743L1019.33 728.801C1013.78 733.481 1009.13 734.667 1003.65 738.298C1000.32 739.043 994.763 740.235 991.697 738.976C982.451 735.176 973.064 731.104 963.901 727.151L911.535 704.489L772.047 643.871L342.059 458.71Z"/><path fill="#2E5366" transform="scale(0.5 0.5)" d="M0 490.094C29.6659 503.748 62.6273 517.138 92.8365 530.138L252.945 599.63L771.885 827.479C798.888 839.405 1018.31 937.335 1023.01 937.228L1023.8 937.046C1024.15 964.813 1024.59 996.218 1024.02 1024L1020.24 1024C1016.37 1018.71 856.088 949.516 839.042 942.048L192.584 658.974L71.3334 606.211C61.7439 602.028 6.67714 576.402 0 575.912L0 490.094Z"/><path fill="#CADDDE" transform="scale(0.5 0.5)" d="M12.9163 442.116C19.0559 436.831 80.0305 412.449 91.271 407.793L158.862 379.184C160.784 383.183 199.364 398.499 207.403 401.95C241.59 416.303 275.559 431.171 309.298 446.551L205.319 491.617C198.124 494.732 157.262 510.995 154.888 515.161C119.467 500.844 84.5718 484.53 49.239 469.939C33.2972 463.355 18.3708 457.621 2.91433 449.746C6.50525 447.212 9.62015 445.082 12.9163 442.116Z"/><path fill="#0B131D" transform="scale(0.5 0.5)" d="M1888.71 379.452C1915.93 392.198 1945.36 404.394 1972.96 416.486C1993.22 425.357 2027.1 442.742 2048 445.559L2048 447.567L2048 487.759L2048 576.308C2034.16 579.408 1990.21 600.237 1974.4 607.237L1833.69 668.913L1260.11 920.408L1111.5 985.781C1093.46 993.694 1075.45 1001.71 1057.5 1009.83C1051.84 1012.37 1032.34 1020.06 1029.46 1024L1024.02 1024C1024.59 996.218 1024.15 964.813 1023.8 937.046L1023.01 937.228L1023.13 895.69C1039.89 887.482 1061.25 878.804 1078.61 871.098L1186.82 822.795C1196 818.676 1205.24 814.696 1214.55 810.857C1208.52 807.817 1197.41 803.794 1190.45 800.719C1167.74 790.563 1144.95 780.614 1122.06 770.871C1106.05 764.019 1067.95 746.388 1052.89 741.921L1055.05 738.967C1061.55 737.753 1062.37 735.011 1068.6 732.688C1098.24 721.622 1129.81 708.352 1158.75 695.594L1198.41 677.695C1204.59 674.903 1215.19 668.048 1221.74 667.338C1226.05 666.586 1232.06 663.536 1235.85 661.43C1286.49 641.801 1345.42 614.043 1396.01 592.226L1549.89 526.889C1601.93 504.339 1654.16 480.441 1705.95 457.208C1737.13 471.618 1769.63 483.79 1800.93 498.075C1821.78 507.593 1842.64 517.124 1863.61 526.394C1872.57 522.47 1881.59 518.688 1890.67 515.051C1882.97 510.386 1855.44 498.572 1846.26 494.374C1810.27 477.72 1774.01 461.637 1737.51 446.131C1750.06 441.67 1887.69 381.565 1888.71 379.452Z"/><path fill="#A0CBD3" transform="scale(0.5 0.5)" d="M1705.95 457.208C1737.13 471.618 1769.63 483.79 1800.93 498.075C1821.78 507.593 1842.64 517.124 1863.61 526.394C1843.52 536.13 1822.14 544.988 1801.69 554.173L1638.32 626.268L1214.55 810.857C1208.52 807.817 1197.41 803.794 1190.45 800.719C1167.74 790.563 1144.95 780.614 1122.06 770.871C1106.05 764.019 1067.95 746.388 1052.89 741.921L1055.05 738.967C1061.55 737.753 1062.37 735.011 1068.6 732.688C1098.24 721.622 1129.81 708.352 1158.75 695.594L1198.41 677.695C1204.59 674.903 1215.19 668.048 1221.74 667.338C1226.05 666.586 1232.06 663.536 1235.85 661.43C1286.49 641.801 1345.42 614.043 1396.01 592.226L1549.89 526.889C1601.93 504.339 1654.16 480.441 1705.95 457.208Z"/><path fill="#395E6F" transform="scale(0.5 0.5)" d="M1888.71 379.452C1915.93 392.198 1945.36 404.394 1972.96 416.486C1993.22 425.357 2027.1 442.742 2048 445.559L2048 447.567L2048 487.759L1350.11 793.048L1135.98 887.341L1062.46 920.095C1051.61 924.924 1034.37 933.196 1023.8 937.046L1023.01 937.228L1023.13 895.69C1039.89 887.482 1061.25 878.804 1078.61 871.098L1186.82 822.795C1196 818.676 1205.24 814.696 1214.55 810.857L1638.32 626.268L1801.69 554.173C1822.14 544.988 1843.52 536.13 1863.61 526.394C1872.57 522.47 1881.59 518.688 1890.67 515.051C1882.97 510.386 1855.44 498.572 1846.26 494.374C1810.27 477.72 1774.01 461.637 1737.51 446.131C1750.06 441.67 1887.69 381.565 1888.71 379.452Z"/><path fill="#93BDC5" transform="scale(0.5 0.5)" d="M1888.71 379.452C1915.93 392.198 1945.36 404.394 1972.96 416.486C1993.22 425.357 2027.1 442.742 2048 445.559L2048 447.567C1997.02 469.089 1940.94 492.385 1890.67 515.051C1882.97 510.386 1855.44 498.572 1846.26 494.374C1810.27 477.72 1774.01 461.637 1737.51 446.131C1750.06 441.67 1887.69 381.565 1888.71 379.452Z"/><path fill="#CADDDE" transform="scale(0.5 0.5)" d="M181.711 369.233C196.366 361.902 218.369 353.349 234.202 346.423L386.506 281.208L835.988 84.4483C839.799 89.9165 973.245 144.203 990.804 153.008C969.863 163.437 940.749 174.959 918.732 184.492L777.802 245.64C677.251 289.457 576.455 332.707 475.417 375.388C459.458 382.246 443.452 389.562 427.424 396.276C425.216 397.201 424.054 400.743 420.891 401.795C401.903 408.111 383.37 414.773 365.034 422.778C362.577 423.851 338.464 434.114 337.597 434.18C332.184 436.399 313.436 444.059 309.298 446.551C275.559 431.171 241.59 416.303 207.403 401.95C199.364 398.499 160.784 383.183 158.862 379.184C162.223 376.944 177.686 370.649 181.711 369.233Z"/><path fill="#D0F1F6" transform="scale(0.5 0.5)" d="M158.862 379.184C162.223 376.944 177.686 370.649 181.711 369.233C183.787 369.059 188.051 368.751 189.868 369.507C207.331 376.767 225.322 384.803 242.656 392.217C263.617 401.207 284.531 410.304 305.399 419.506C313.837 423.232 330.082 429.918 337.597 434.18C332.184 436.399 313.436 444.059 309.298 446.551C275.559 431.171 241.59 416.303 207.403 401.95C199.364 398.499 160.784 383.183 158.862 379.184Z"/><path fill="#A0CBD3" transform="scale(0.5 0.5)" d="M1208.48 87.0453C1216.81 86.8023 1271.39 112.859 1281.7 117.352L1401.42 169.134L1638.33 271.96C1681.73 290.96 1726.99 310.984 1770.42 329.325L1824.75 352.793C1835.65 357.387 1850.82 363.021 1861.07 368.03C1851.75 370.824 1822.21 384.499 1811.81 389.044L1707.14 435.159C1654.95 411.97 1600.25 389.441 1547.62 366.918L1253.09 239.81C1186.15 211.396 1119.41 182.539 1052.86 153.243C1064.01 148.58 1087.77 139.054 1097.31 133.732L1096.75 132.435C1120.36 119.935 1152.56 111.889 1177.25 100.703C1180.81 99.0881 1207.02 88.0755 1208.48 87.0453Z"/><defs><linearGradient id="gradient_1" gradientUnits="userSpaceOnUse" x1="1564.2826" y1="173.87283" x2="1248.9417" y2="662.9884"><stop offset="0" stop-color="#98FAF9"/><stop offset="1" stop-color="#D2FDFD" stop-opacity="0.98039216"/></linearGradient></defs><path fill="url(#gradient_1)" transform="scale(0.5 0.5)" d="M1052.86 153.243C1119.41 182.539 1186.15 211.396 1253.09 239.81L1547.62 366.918C1600.25 389.441 1654.95 411.97 1707.14 435.159L1811.81 389.044C1822.21 384.499 1851.75 370.824 1861.07 368.03C1866.67 370.162 1884.56 376.713 1888.71 379.452C1887.69 381.565 1750.06 441.67 1737.51 446.131C1774.01 461.637 1810.27 477.72 1846.26 494.374C1855.44 498.572 1882.97 510.386 1890.67 515.051C1881.59 518.688 1872.57 522.47 1863.61 526.394C1842.64 517.124 1821.78 507.593 1800.93 498.075C1769.63 483.79 1737.13 471.618 1705.95 457.208C1654.16 480.441 1601.93 504.339 1549.89 526.889L1396.01 592.226C1345.42 614.043 1286.49 641.801 1235.85 661.43C1238.05 659.931 1239.86 659.128 1240.75 656.737C1239.12 654.013 1236.56 653.563 1233.41 652.397L1233.43 651.344L1239.18 649.213L1238.92 647.927C1236.15 645.75 1233.09 646.402 1229.49 646.602C1226.48 644.9 1227.41 645.893 1225.89 642.921C1232.92 640.804 1252.84 630.666 1260.55 627.299L1346.98 589.948C1457.17 543.353 1566.73 495.3 1675.64 445.803C1638.61 431.431 1598.72 412.938 1561.87 397.13L1359.11 310.154C1248.64 262.248 1134.14 215.517 1024.78 165.55L1052.86 153.243Z"/><path fill="#FEFEFE" fill-opacity="0.92941177" transform="scale(0.5 0.5)" d="M1065.71 126.703L1070.77 126.875C1070.08 127.428 1069.84 128.27 1069.47 129.064C1070.03 129.42 1071.03 129.889 1071.22 130.336C1067.7 134.032 1062.08 136.156 1057.45 138.315C1073.13 138.066 1082.28 137.788 1096.75 132.435L1097.31 133.732C1087.77 139.054 1064.01 148.58 1052.86 153.243L1024.78 165.55C1014.55 168.313 981.274 184.098 969.762 188.906C900.716 217.745 832.149 248.881 763.431 278.374L478.511 400.121L404.749 431.579C396.073 435.312 376.835 443.147 369.68 447.23C362.188 449.757 349.483 455.297 342.059 458.71C297.5 478.869 251.598 496.89 207.093 517.334C199.671 520.743 191.045 524.314 183.361 527.018C173.791 523.257 164.299 519.304 154.888 515.161C157.262 510.995 198.124 494.732 205.319 491.617L309.298 446.551C313.436 444.059 332.184 436.399 337.597 434.18C338.464 434.114 362.577 423.851 365.034 422.778C383.37 414.773 401.903 408.111 420.891 401.795C424.054 400.743 425.216 397.201 427.424 396.276C443.452 389.562 459.458 382.246 475.417 375.388C576.455 332.707 677.251 289.457 777.802 245.64L918.732 184.492C940.749 174.959 969.863 163.437 990.804 153.008C995.312 150.622 1013.38 143.792 1019.12 141.5C1022.23 141.085 1044.94 132.505 1048.08 130.579L1048.43 132.265C1046.8 135.075 1047.39 134.219 1043.34 135.296C1049.69 135.783 1048.01 132.771 1053.81 132.959L1055.15 134.424L1053.99 137.176L1056.45 136.573L1055.02 135.381L1054.66 137.373L1058.36 135.439L1058.63 133.551C1057.48 133.47 1057.88 133.608 1056.89 132.971L1057.79 131.4C1060.86 130.239 1059.82 130.124 1062.5 130.901C1061.08 131.878 1061.43 131.352 1060.71 132.768C1062.6 134.106 1061.79 133.738 1064.35 133.804C1065.84 132.896 1066.29 131.621 1067.14 130.052L1065.71 126.703Z"/><path fill="#CADDDE" fill-opacity="0.98823529" transform="scale(0.5 0.5)" d="M857.802 74.3494C871.713 69.1253 890.25 60.1743 904.42 53.963L981.034 20.8663C1032 -1.39989 1016.81 -2.0011 1066.13 20.3238L1144.84 55.4499C1150.88 60.2209 1169.33 68.6746 1176.87 69.4441L1177.63 70.6892C1170.38 76.3756 1159.8 78.7235 1151.07 82.7621C1123.07 95.7106 1094.36 107.213 1066.55 120.592C1061.92 122.82 1051.45 128.784 1047.29 129.241L1047.39 130.116L1048.08 130.579C1044.94 132.505 1022.23 141.085 1019.12 141.5C1017.13 139.687 1015.07 138.786 1012.64 137.71C964.311 116.353 915.68 95.6026 867.125 74.7818C865.016 73.8777 860.151 74.1839 857.802 74.3494Z"/><path fill="#CADDDE" fill-opacity="0.50196081" transform="scale(0.5 0.5)" d="M1196.77 654.631C1201.02 654.686 1213.76 647.454 1216.2 650.089C1220.26 654.483 1226.55 651.87 1228.46 654.56L1225.18 658.025L1225.68 659.114L1230.12 660.021L1230.71 661.151C1227.68 663.442 1223.4 665.23 1221.74 667.338C1215.19 668.048 1204.59 674.903 1198.41 677.695L1158.75 695.594C1129.81 708.352 1098.24 721.622 1068.6 732.688C1062.37 735.011 1061.55 737.753 1055.05 738.967C1050.86 738.592 1048.23 740.338 1045.54 740.409C1036.41 740.648 1021.43 744.279 1013.11 743.143L1012.25 742.318C1009.52 742.547 1008.93 742.352 1006.24 741.714C1006.29 741.093 1006.23 740.552 1006.55 740.005C1012.54 729.979 1180.2 658.816 1196.77 654.631ZM1110.93 691.917C1103.53 695.404 1069.07 711.199 1062.11 713.549C1059.28 714.733 1051.01 717.84 1049.22 719.625C1045.04 720.704 1035.11 724.725 1032.59 728.007C1045.51 731.031 1043.39 735.191 1058.1 728.65C1059.9 727.849 1065.88 730.85 1069.22 728.383L1066.18 726.436L1067.45 725.143C1067.79 725.175 1069.35 725.325 1069.72 725.288C1073.52 724.598 1087.72 718.267 1090.67 716.081C1103.35 706.666 1146.64 695.802 1154.96 687.45C1158.52 687.747 1177.1 677.15 1179.25 673.864C1175.71 670.402 1176.49 675.474 1167.75 669.157C1164.37 668.928 1153.07 674.314 1149.01 675.964C1139.58 680.393 1123.86 687.332 1113.95 690.69C1112.45 691.578 1112.4 691.952 1110.93 691.917Z"/><defs><linearGradient id="gradient_2" gradientUnits="userSpaceOnUse" x1="1085.1132" y1="701.27411" x2="1092.5028" y2="715.13055"><stop offset="0" stop-color="#F9FEFF" stop-opacity="0.21568628"/><stop offset="1" stop-color="#F4FDFC" stop-opacity="0.29411766"/></linearGradient></defs><path fill="url(#gradient_2)" transform="scale(0.5 0.5)" d="M1134.8 688.905C1141.64 695.027 1145.85 689.217 1153.95 687.64L1154.96 687.45C1146.64 695.802 1103.35 706.666 1090.67 716.081C1087.72 718.267 1073.52 724.598 1069.72 725.288C1069.35 725.325 1067.79 725.175 1067.45 725.143L1066.18 726.436L1069.22 728.383C1065.88 730.85 1059.9 727.849 1058.1 728.65C1043.39 735.191 1045.51 731.031 1032.59 728.007C1039.32 727.793 1042.46 727.008 1048.4 723.445L1049.22 719.625C1051.01 717.84 1059.28 714.733 1062.11 713.549C1063.19 714.261 1065.03 715.816 1066.47 715.561C1079.16 713.303 1096.87 698.963 1109.09 698.817L1107.07 697.54L1113.46 695.895L1114.01 694.634L1110.93 691.917C1112.4 691.952 1112.45 691.578 1113.95 690.69C1120.13 697.923 1123.69 687.968 1134.8 688.905Z"/><path fill="#CADDDE" fill-opacity="0.29803923" transform="scale(0.5 0.5)" d="M1149.01 675.964C1153.07 674.314 1164.37 668.928 1167.75 669.157C1176.49 675.474 1175.71 670.402 1179.25 673.864C1177.1 677.15 1158.52 687.747 1154.96 687.45L1153.95 687.64C1145.85 689.217 1141.64 695.027 1134.8 688.905C1139.36 684.134 1144.18 684.863 1151.35 682.179C1149.17 681.012 1148.86 680.975 1147.43 679.044L1149.01 675.964Z"/><path fill="#CADDDE" fill-opacity="0.2" transform="scale(0.5 0.5)" d="M1110.93 691.917L1114.01 694.634L1113.46 695.895L1107.07 697.54L1109.09 698.817C1096.87 698.963 1079.16 713.303 1066.47 715.561C1065.03 715.816 1063.19 714.261 1062.11 713.549C1069.07 711.199 1103.53 695.404 1110.93 691.917Z"/><path fill="#CADDDE" fill-opacity="0.23921569" transform="scale(0.5 0.5)" d="M1149.01 675.964L1147.43 679.044C1148.86 680.975 1149.17 681.012 1151.35 682.179C1144.18 684.863 1139.36 684.134 1134.8 688.905C1123.69 687.968 1120.13 697.923 1113.95 690.69C1123.86 687.332 1139.58 680.393 1149.01 675.964Z"/><path fill="#FEFEFE" fill-opacity="0.21176471" transform="scale(0.5 0.5)" d="M1049.22 719.625L1048.4 723.445C1042.46 727.008 1039.32 727.793 1032.59 728.007C1035.11 724.725 1045.04 720.704 1049.22 719.625Z"/><path fill="#84EBE2" fill-opacity="0.98823529" transform="scale(0.5 0.5)" d="M835.988 84.4483C843.774 80.3386 849.647 77.7376 857.802 74.3494C860.151 74.1839 865.016 73.8777 867.125 74.7818C915.68 95.6026 964.311 116.353 1012.64 137.71C1015.07 138.786 1017.13 139.687 1019.12 141.5C1013.38 143.792 995.312 150.622 990.804 153.008C973.245 144.203 839.799 89.9165 835.988 84.4483Z"/><path fill="#D0F1F6" fill-opacity="0.98823529" transform="scale(0.5 0.5)" d="M1034 748.84C1037.66 746.891 1048.77 742.81 1052.89 741.921C1067.95 746.388 1106.05 764.019 1122.06 770.871C1144.95 780.614 1167.74 790.563 1190.45 800.719C1197.41 803.794 1208.52 807.817 1214.55 810.857C1205.24 814.696 1196 818.676 1186.82 822.795C1177.81 820.079 1149.54 807.023 1139.31 802.573C1102.89 786.308 1066.29 770.471 1029.51 755.064L1029.45 753.848C1031.97 752.251 1032.86 751.739 1034 748.84Z"/><path fill="#FEFEFE" fill-opacity="0.48627451" transform="scale(0.5 0.5)" d="M1178.76 67.869C1185.65 70.0107 1190.56 77.4107 1197.53 79.697C1226.45 89.1805 1253.2 102.98 1281.12 115.038L1399.37 166.15L1890.62 378.272L1976.88 416.188C1995.16 424.218 2029.41 441.956 2048 443.678L2048 445.559C2027.1 442.742 1993.22 425.357 1972.96 416.486C1945.36 404.394 1915.93 392.198 1888.71 379.452C1884.56 376.713 1866.67 370.162 1861.07 368.03C1850.82 363.021 1835.65 357.387 1824.75 352.793L1770.42 329.325C1726.99 310.984 1681.73 290.96 1638.33 271.96L1401.42 169.134L1281.7 117.352C1271.39 112.859 1216.81 86.8023 1208.48 87.0453C1204.24 86.7523 1186.77 87.7677 1184.1 90.2027L1186.35 90.3997L1184.94 89.199L1185.82 90.3664L1184.79 90.3292L1185.66 92.461C1179.52 95.3484 1149.08 110.555 1143.78 109.813L1141.41 107.566C1136.62 108.225 1115.24 114.537 1112.13 117.123C1108.44 115.794 1104.22 112.945 1100.77 113.36C1092.94 114.3 1087.24 119.301 1079.35 120.893L1075.92 120.717L1075.15 120.01C1076.35 115.691 1170.58 79.2312 1181.05 73.0933C1181.48 71.0248 1180.25 70.1824 1178.76 67.869Z"/><path fill="#FEFEFE" fill-opacity="0.60392159" transform="scale(0.5 0.5)" d="M1013.11 743.143C1021.43 744.279 1036.41 740.648 1045.54 740.409C1048.23 740.338 1050.86 738.592 1055.05 738.967L1052.89 741.921C1048.77 742.81 1037.66 746.891 1034 748.84C1027.86 750.047 987.906 768.93 979.008 772.802L902.763 805.932C897.318 808.26 892.342 809.32 887.175 811.486C879.476 814.714 871.554 821.493 863.063 823.184C858.046 824.183 837.015 815.758 834.875 811.836C835.562 808.182 836.429 807.971 840.066 806.458C847.308 802.689 863.326 796.502 871.538 792.99L871.44 795.645C867.279 796.867 841.507 808.101 838.044 810.482L838.371 811.859C842.704 813.745 851.21 818.604 854.961 818.557C862.046 812.11 855.951 813.967 865.555 810.862C869.347 811.704 879.567 804.918 884.125 802.948C909.694 792.006 935.598 781.598 961.207 770.721C969.404 767.24 999.509 749.848 1006.32 750.987L1006.76 752.211C1005.1 752.831 1003.94 753.211 1002.23 753.688L1008.28 755.006C1012.27 749.518 1016.11 752.401 1020.11 746.687C1018.19 745.723 1016.53 746.861 1013.87 747.688L1012.7 746.63L1013.11 743.143Z"/><path fill="#FEFEFE" fill-opacity="0.53333336" transform="scale(0.5 0.5)" d="M1006.24 741.714C1008.93 742.352 1009.52 742.547 1012.25 742.318L1013.11 743.143L1012.7 746.63L1013.87 747.688C1016.53 746.861 1018.19 745.723 1020.11 746.687C1016.11 752.401 1012.27 749.518 1008.28 755.006L1002.23 753.688C1003.94 753.211 1005.1 752.831 1006.76 752.211L1006.32 750.987C999.509 749.848 969.404 767.24 961.207 770.721C935.598 781.598 909.694 792.006 884.125 802.948C879.567 804.918 869.347 811.704 865.555 810.862C863.56 810.438 860.704 810.13 858.615 809.835C860.305 809.321 861.985 808.774 863.654 808.193C862.532 807.859 861.611 807.624 860.546 807.113C866.425 803.296 863.921 808.321 866.294 802.163C866.396 801.897 884.772 794.822 887.456 793.08L887.659 791.765L884.986 790.532C879.905 791.989 876.142 793.254 871.44 795.645L871.538 792.99C884.333 788.632 898.26 780.99 911.235 776.533C909.478 778.821 906.594 780.315 904.084 781.897C913.24 782.128 911.285 784.898 917.5 784.765C922.789 782.461 939.516 775.705 942.594 772.242C935.4 769.452 932.013 769.273 924.848 771.24C927.031 769.254 949.422 759.757 954.11 757.612L956.313 757.796C953.677 759.842 949.39 761.849 948.492 763.976C952.258 766.174 956.376 764.019 959.533 761.45C960.626 763.43 960.07 762.77 962.467 763.837C965.065 763.79 974.572 761.501 976.167 759.949C982.569 757.269 1000.16 752.333 1002.96 747.632C1001.07 745.637 998.512 747.651 994.273 745.827C995.557 743.242 996.064 743.516 998.75 741.829L1001.79 743.345C1003.24 742.819 1004.81 742.284 1006.24 741.714Z"/><path fill="#FEFEFE" fill-opacity="0.64313728" transform="scale(0.5 0.5)" d="M1112.13 117.123C1115.24 114.537 1136.62 108.225 1141.41 107.566L1143.78 109.813C1149.08 110.555 1179.52 95.3484 1185.66 92.461L1184.79 90.3292L1185.82 90.3664L1184.94 89.199L1186.35 90.3997L1184.1 90.2027C1186.77 87.7677 1204.24 86.7523 1208.48 87.0453C1207.02 88.0755 1180.81 99.0881 1177.25 100.703C1152.56 111.889 1120.36 119.935 1096.75 132.435C1082.28 137.788 1073.13 138.066 1057.45 138.315C1062.08 136.156 1067.7 134.032 1071.22 130.336C1076.21 131.131 1089.03 126.307 1093.53 123.812C1096.65 120.861 1107.75 117.418 1112.13 117.123Z"/><path fill="#FEFEFE" fill-opacity="0.69803923" transform="scale(0.5 0.5)" d="M1144.84 55.4499C1153.94 58.2084 1171.59 66.8928 1178.76 67.869C1180.25 70.1824 1181.48 71.0248 1181.05 73.0933C1170.58 79.2312 1076.35 115.691 1075.15 120.01L1075.92 120.717C1071.55 127.26 1069.51 123.194 1065.71 126.703L1067.14 130.052C1066.29 131.621 1065.84 132.896 1064.35 133.804C1061.79 133.738 1062.6 134.106 1060.71 132.768C1061.43 131.352 1061.08 131.878 1062.5 130.901C1059.82 130.124 1060.86 130.239 1057.79 131.4L1056.89 132.971C1057.88 133.608 1057.48 133.47 1058.63 133.551L1058.36 135.439L1054.66 137.373L1055.02 135.381L1056.45 136.573L1053.99 137.176L1055.15 134.424L1053.81 132.959C1048.01 132.771 1049.69 135.783 1043.34 135.296C1047.39 134.219 1046.8 135.075 1048.43 132.265L1048.08 130.579L1047.39 130.116L1047.29 129.241C1051.45 128.784 1061.92 122.82 1066.55 120.592C1094.36 107.213 1123.07 95.7106 1151.07 82.7621C1159.8 78.7235 1170.38 76.3756 1177.63 70.6892L1176.87 69.4441C1169.33 68.6746 1150.88 60.2209 1144.84 55.4499Z"/><path fill="#FEFEFE" fill-opacity="0.54901963" transform="scale(0.5 0.5)" d="M998.683 741.297L998.75 741.829C996.064 743.516 995.557 743.242 994.273 745.827C998.512 747.651 1001.07 745.637 1002.96 747.632C1000.16 752.333 982.569 757.269 976.167 759.949C975.316 760.065 973.873 760.192 973.129 760.47L972.213 758.79L969.887 759.658L970.195 758.522L974.312 756.313C965.168 755.868 970.949 759.804 959.533 761.45C956.376 764.019 952.258 766.174 948.492 763.976C949.39 761.849 953.677 759.842 956.313 757.796L954.11 757.612L954.166 757.451C959.128 752.407 990.83 742.623 998.683 741.297Z"/><path fill="#FEFEFE" fill-opacity="0.38039216" transform="scale(0.5 0.5)" d="M871.44 795.645C876.142 793.254 879.905 791.989 884.986 790.532L887.659 791.765L887.456 793.08C884.772 794.822 866.396 801.897 866.294 802.163C863.921 808.321 866.425 803.296 860.546 807.113C861.611 807.624 862.532 807.859 863.654 808.193C861.985 808.774 860.305 809.321 858.615 809.835C860.704 810.13 863.56 810.438 865.555 810.862C855.951 813.967 862.046 812.11 854.961 818.557C851.21 818.604 842.704 813.745 838.371 811.859L838.044 810.482C841.507 808.101 867.279 796.867 871.44 795.645Z"/><path fill="#CADDDE" fill-opacity="0.7764706" transform="scale(0.5 0.5)" d="M1225.89 642.921C1227.41 645.893 1226.48 644.9 1229.49 646.602C1233.09 646.402 1236.15 645.75 1238.92 647.927L1239.18 649.213L1233.43 651.344L1233.41 652.397C1236.56 653.563 1239.12 654.013 1240.75 656.737C1239.86 659.128 1238.05 659.931 1235.85 661.43C1232.06 663.536 1226.05 666.586 1221.74 667.338C1223.4 665.23 1227.68 663.442 1230.71 661.151L1230.12 660.021L1225.68 659.114L1225.18 658.025L1228.46 654.56C1226.55 651.87 1220.26 654.483 1216.2 650.089C1213.76 647.454 1201.02 654.686 1196.77 654.631C1199.2 650.671 1219.98 644.75 1225.89 642.921Z"/><path fill="#FEFEFE" fill-opacity="0.50980395" transform="scale(0.5 0.5)" d="M924.848 771.24C932.013 769.273 935.4 769.452 942.594 772.242C939.516 775.705 922.789 782.461 917.5 784.765C911.285 784.898 913.24 782.128 904.084 781.897C906.594 780.315 909.478 778.821 911.235 776.533C914.271 776.461 919.211 772.263 924.848 771.24Z"/><defs><linearGradient id="gradient_3" gradientUnits="userSpaceOnUse" x1="1098.2101" y1="121.49264" x2="1093.0573" y2="114.85184"><stop offset="0" stop-color="#FBFDFF" stop-opacity="0.52156866"/><stop offset="1" stop-color="#FAFDFF" stop-opacity="0.59607846"/></linearGradient></defs><path fill="url(#gradient_3)" transform="scale(0.5 0.5)" d="M1079.35 120.893C1087.24 119.301 1092.94 114.3 1100.77 113.36C1104.22 112.945 1108.44 115.794 1112.13 117.123C1107.75 117.418 1096.65 120.861 1093.53 123.812C1086.22 122.793 1088.67 120.812 1079.35 120.893Z"/><defs><linearGradient id="gradient_4" gradientUnits="userSpaceOnUse" x1="1084.4851" y1="129.41258" x2="1075.5149" y2="123.58742"><stop offset="0" stop-color="#FBFDFF" stop-opacity="0.58823532"/><stop offset="1" stop-color="#FBFDFF" stop-opacity="0.65490198"/></linearGradient></defs><path fill="url(#gradient_4)" transform="scale(0.5 0.5)" d="M1075.92 120.717L1079.35 120.893C1088.67 120.812 1086.22 122.793 1093.53 123.812C1089.03 126.307 1076.21 131.131 1071.22 130.336C1071.03 129.889 1070.03 129.42 1069.47 129.064C1069.84 128.27 1070.08 127.428 1070.77 126.875L1065.71 126.703C1069.51 123.194 1071.55 127.26 1075.92 120.717Z"/><path fill="#FEFEFE" fill-opacity="0.58039218" transform="scale(0.5 0.5)" d="M959.533 761.45C970.949 759.804 965.168 755.868 974.312 756.313L970.195 758.522L969.887 759.658L972.213 758.79L973.129 760.47C973.873 760.192 975.316 760.065 976.167 759.949C974.572 761.501 965.065 763.79 962.467 763.837C960.07 762.77 960.626 763.43 959.533 761.45Z"/></svg>