<?xml version="1.0" encoding="utf-8" ?><svg xmlns="http://www.w3.org/2000/svg" xmlns:xlink="http://www.w3.org/1999/xlink" width="1024" height="512" viewBox="0 0 1024 512"><path fill="#84EBE3" fill-opacity="0.011764706" transform="scale(0.5 0.5)" d="M244.663 171.257C246.721 171.082 247.77 172.04 249.866 173.076C253.711 178.975 248.753 181.152 244.535 183.701C241.638 181.624 238.414 180.433 237.124 177.326C238.661 173.689 240.633 173.526 244.663 171.257Z"/><path fill="#43DCEA" fill-opacity="0.011764706" transform="scale(0.5 0.5)" d="M287.924 295.528C291.015 295.783 291.941 295.76 294.884 297.07C294.96 299.829 293.399 300.852 291.41 303.567L288.949 303.442C285.646 301.235 286.45 302.457 285.675 298.996L287.924 295.528Z"/><defs><linearGradient id="gradient_0" gradientUnits="userSpaceOnUse" x1="928.25189" y1="825.67255" x2="1213.5964" y2="173.78778"><stop offset="0" stop-color="#9BC7D0"/><stop offset="1" stop-color="#D4F4F9"/></linearGradient></defs><path fill="url(#gradient_0)" transform="scale(0.5 0.5)" d="M1023.51 94.8064C1042.65 100.869 1079.13 117.684 1098.75 126.078L1255.72 194.057L1739.22 402.328L1884.41 465.054L1928.75 484.265C1933.49 486.306 1948.01 492.738 1952.61 493.953L1954.63 498.123C1951.11 504.012 1807.63 559.4 1787.67 570.329C1780.23 572.52 1767.32 578.362 1759.53 581.637C1741.14 589.368 1722.81 597.235 1704.54 605.236C1665.37 622.244 1625.13 638.441 1585.67 655.045L1096.2 862.72C1081.85 869.517 1066.1 875.983 1051.48 882.346C1045.42 884.984 1030.77 891.664 1024.88 893.503C982.665 876.838 938.746 856.93 896.579 839.396C757.517 781.481 618.895 722.516 480.725 662.504L95.8454 500.002C92.3109 498.49 91.3991 498.594 90.1315 495.806C92.2535 494.709 94.6824 493.704 96.8992 492.761C137.657 475.432 178.244 456.904 219.326 440.378C237.038 432.233 256.854 424.626 275.037 416.778L423.183 353.247L732.209 219.502L931.621 133.88L990.436 108.51C999.452 104.618 1014.59 97.6559 1023.51 94.8064ZM1760.66 496.02C1731.77 484.691 1701.34 470.792 1672.77 458.435L1515.06 390.207L1024.99 179.381C1019.37 179.643 882.594 240.624 867.601 247.07L553.835 381.326C510.226 399.991 466.179 418.224 422.774 437.331C411.466 441.773 315.29 483.597 313.195 483.514C305.174 482.945 302.218 489.901 288.434 488.103L287.518 489.212C289.241 491.011 288.321 490.537 291.345 490.603L290.106 491.788L292.205 493.264L288.073 495.265L287.904 496.464C297.478 501.658 348.159 519.568 352.558 523.818L357.968 525.79C386.636 539.053 428.811 556.57 458.514 568.396L461.115 569.427C469.275 572.799 509.752 588.851 515.059 592.166C543.424 604.342 574.599 618.465 603.214 629.664C609.158 632.764 657.84 654.379 663.649 655.36L665.156 656.264C711.27 675.224 758.953 695.556 805.106 713.681L808.053 714.63C830.276 723.987 853.07 734.408 875.19 743.315C920.655 763.61 977.102 788.005 1023.77 805.932C1046.01 797.561 1066.71 788.229 1088.57 779.213C1115.26 768.504 1141.86 757.559 1168.36 746.38L1242.7 715.219C1275.62 700.753 1310.34 687.513 1343.29 672.69C1358.18 665.992 1374.6 660.066 1389.03 652.707C1407.86 645.566 1430.48 635.707 1449 627.416L1450.93 626.756C1496.36 608.795 1541.73 588.065 1586.87 569.161L1652.6 541.497C1663.26 536.973 1679.83 530.413 1689.55 525.267L1691.34 524.823L1760.66 496.02ZM604.068 510.894L597.406 508.833L595.954 509.528C594.303 506.257 585.444 503.377 581.738 501.853L581.154 500.256C577.38 497.472 556.714 489.13 551.955 487.814C549.336 488.741 545.708 486.269 541.38 485.281C535.073 484.838 503.327 472.849 496.888 468.729C494.362 467.113 481.903 476.949 474.878 475.41C483.575 470.936 500.627 464.066 510.01 460.333C527.941 451.127 549.29 444.114 567.578 435.178C576.621 430.759 588.369 425.817 597.88 422.396L597.49 417.716L598.218 417.209L599.16 420.607C605.667 421.589 701.342 374.471 719.89 370.334C723.916 367.178 736.307 362.426 741.703 360.215L754.209 354.944L806.727 332.362L811.805 330.505L824.786 324.607L831.76 321.772C861.199 308.217 895.704 293.697 925.616 281.375L926.119 280.874C930.503 280.398 963.367 265.893 970.105 262.98C978.791 257.504 1012.71 244.253 1024.15 238.994L1025.11 239.174L1089.97 266.718C1095.3 268.966 1117.34 277.968 1121.12 280.528L1242.48 332.267L1302.94 358.139C1315.92 363.645 1329.73 368.932 1342.21 375.341C1367.8 385.558 1393.16 397.935 1418.68 408.375C1426.08 411.401 1441.62 418.809 1448.76 420.794C1447.76 433.241 1450.21 501.429 1447.03 506.291L1447 506.769L1447.55 508.201C1380.69 537.772 1311.4 564.394 1245.12 593.788C1258.75 600.885 1381.78 650.411 1383.12 652.396C1379.22 652.811 1255.73 600.937 1243.76 595.019L1243.01 595.167C1233.7 597.576 1206.51 609.507 1196.59 613.593L1102.99 652.223L1048.4 674.483C1043.9 676.363 1030.28 681.711 1026.78 683.782L1022.73 684.903C1015.42 680.052 977.752 666.414 967.938 662.335C914.794 639.882 861.478 617.841 807.994 596.212C807.104 596.1 803.748 594.88 802.69 594.522C794.728 590.159 759.912 576.848 749.317 572.322L604.068 510.894ZM1547.38 465.01C1543.85 468.456 1507.78 482.7 1501.09 485.685C1491.34 489.739 1470.35 499.528 1461.33 502.469C1455.86 502.051 1455.03 503.024 1450.11 505.512C1449.94 477.604 1450.49 449.077 1449.78 421.237C1455.05 424.165 1460.27 426.204 1465.69 428.728C1492.77 441.325 1520.89 452.283 1548.01 464.697L1547.38 465.01ZM1053.75 696.21C1050.41 696.666 1030.77 688.926 1029.08 686.404C1035.17 687.31 1047.9 693.453 1053.75 696.21ZM1011.06 688.597L1014.34 687.172L1014.75 688.368L1013.23 689.4L1011.06 688.597ZM1161.89 742.276L1161.16 743.733C1157.68 742.894 1133.07 731.865 1127.65 729.362C1109.7 721.082 1092.96 714.863 1074.82 707.478L1075.18 705.46C1104.56 716.435 1132.95 730.902 1161.89 742.276Z"/><path fill="#496C76" fill-opacity="0.96470588" transform="scale(0.5 0.5)" d="M1024.99 179.381L1515.06 390.207L1672.77 458.435C1701.34 470.792 1731.77 484.691 1760.66 496.02L1691.34 524.823L1691.06 523.235L1228.11 322.18L1099.42 267.036C1074.47 256.213 1049.7 244.624 1024.56 234.363C1025.14 222.557 1023.56 187.73 1024.99 179.381Z"/><path fill="#74A2AB" fill-opacity="0.94901961" transform="scale(0.5 0.5)" d="M422.774 437.331C466.179 418.224 510.226 399.991 553.835 381.326L867.601 247.07C882.594 240.624 1019.37 179.643 1024.99 179.381C1023.56 187.73 1025.14 222.557 1024.56 234.363C917.756 278.857 811.317 327.491 704.435 372.013C671.072 385.91 631.172 404.864 598.218 417.209L597.49 417.716L592.175 419.55C583.862 418.56 571.203 428.115 562.15 428.968C558.041 429.355 548.77 426.986 546.566 427.579C511.206 437.081 474.98 431.959 439.09 436.857C434.17 437.529 427.917 436.97 422.774 437.331Z"/><path fill="#285062" fill-opacity="0.9137255" transform="scale(0.5 0.5)" d="M604.068 510.894L749.317 572.322C759.912 576.848 794.728 590.159 802.69 594.522C803.39 595.287 804.297 596.28 805.413 597.499C806.808 634.648 805.856 672.562 805.819 709.81C805.817 711.737 805.688 712.458 805.106 713.681C758.953 695.556 711.27 675.224 665.156 656.264C680.387 647.089 799.274 602.295 801.016 598.203C798.311 597.713 670.265 651.888 663.649 655.36C657.84 654.379 609.158 632.764 603.214 629.664C602.627 628.319 599.7 625.304 599.667 625.068C596.896 604.829 598.647 584.3 599.48 564.022C600.166 547.303 596.534 529.823 600.846 513.158C601.105 512.07 602.786 511.578 604.068 510.894Z"/><path fill="#285062" fill-opacity="0.95294118" transform="scale(0.5 0.5)" d="M1548.01 464.697L1646.99 507.787C1655.37 511.418 1682.25 523.847 1689.55 525.267C1679.83 530.413 1663.26 536.973 1652.6 541.497L1586.87 569.161C1541.73 588.065 1496.36 608.795 1450.93 626.756C1449.26 622.455 1450.12 523.229 1450.11 511.061C1472.95 521.17 1495.87 531.104 1518.86 540.86C1527.44 544.527 1539.77 550.897 1548.07 553.112C1534.94 543.961 1527.6 543.308 1514.78 537.527C1493.73 528.043 1468.88 518.468 1448.8 507.604L1461.33 502.469C1470.35 499.528 1491.34 489.739 1501.09 485.685C1507.78 482.7 1543.85 468.456 1547.38 465.01L1548.01 464.697Z"/><path fill="#285062" fill-opacity="0.92156863" transform="scale(0.5 0.5)" d="M1026.78 683.782L1029.08 686.404C1030.77 688.926 1050.41 696.666 1053.75 696.21C1057.4 697.201 1072.98 703.196 1075.18 705.46L1074.82 707.478C1092.96 714.863 1109.7 721.082 1127.65 729.362C1133.07 731.865 1157.68 742.894 1161.16 743.733L1161.89 742.276L1163.58 741.769C1166.22 743.513 1166.61 743.758 1168.36 746.38C1141.86 757.559 1115.26 768.504 1088.57 779.213C1066.71 788.229 1046.01 797.561 1023.77 805.932C977.102 788.005 920.655 763.61 875.19 743.315C875.933 742.978 876.498 742.654 877.088 742.084C883.072 736.311 993.891 694.639 1011.06 688.597L1013.23 689.4L1014.75 688.368L1020.44 688.521C1020.62 694.402 1021.07 718.43 1022.25 723.25C1022.86 711.622 1022.8 696.755 1022.73 684.903L1026.78 683.782Z"/><path fill="#254A60" fill-opacity="0.93725491" transform="scale(0.5 0.5)" d="M1026.78 683.782C1030.28 681.711 1043.9 676.363 1048.4 674.483L1102.99 652.223L1196.59 613.593C1206.51 609.507 1233.7 597.576 1243.01 595.167C1244.77 618.254 1246.57 637.519 1245.39 661.241C1244.48 679.38 1243.11 697.043 1242.7 715.219L1168.36 746.38C1166.61 743.758 1166.22 743.513 1163.58 741.769L1161.89 742.276C1132.95 730.902 1104.56 716.435 1075.18 705.46C1072.98 703.196 1057.4 697.201 1053.75 696.21C1047.9 693.453 1035.17 687.31 1029.08 686.404L1026.78 683.782Z"/><path fill="#254A60" fill-opacity="0.90980393" transform="scale(0.5 0.5)" d="M807.994 596.212C861.478 617.841 914.794 639.882 967.938 662.335C977.752 666.414 1015.42 680.052 1022.73 684.903C1022.8 696.755 1022.86 711.622 1022.25 723.25C1021.07 718.43 1020.62 694.402 1020.44 688.521L1014.75 688.368L1014.34 687.172L1011.06 688.597C993.891 694.639 883.072 736.311 877.088 742.084C876.498 742.654 875.933 742.978 875.19 743.315C853.07 734.408 830.276 723.987 808.053 714.63C807.977 675.274 807.62 635.539 807.994 596.212Z"/><path fill="#285062" fill-opacity="0.96470588" transform="scale(0.5 0.5)" d="M1245.12 593.788C1311.4 564.394 1380.69 537.772 1447.55 508.201C1451.33 516.888 1446.71 608.103 1449 627.416C1430.48 635.707 1407.86 645.566 1389.03 652.707L1383.12 652.396C1381.78 650.411 1258.75 600.885 1245.12 593.788Z"/><path fill="#285062" fill-opacity="0.90196079" transform="scale(0.5 0.5)" d="M474.878 475.41C481.903 476.949 494.362 467.113 496.888 468.729C503.327 472.849 535.073 484.838 541.38 485.281C545.708 486.269 549.336 488.741 551.955 487.814C556.714 489.13 577.38 497.472 581.154 500.256L581.738 501.853C585.444 503.377 594.303 506.257 595.954 509.528C590.81 510.473 554.4 527.104 547.209 530.389C518.202 543.639 487.38 555.434 458.514 568.396C428.811 556.57 386.636 539.053 357.968 525.79C394.889 509.725 437.912 489.753 474.878 475.41Z"/><path fill="#74A2AB" fill-opacity="0.92156863" transform="scale(0.5 0.5)" d="M422.774 437.331C427.917 436.97 434.17 437.529 439.09 436.857C474.98 431.959 511.206 437.081 546.566 427.579C548.77 426.986 558.041 429.355 562.15 428.968C571.203 428.115 583.862 418.56 592.175 419.55C530.711 447.669 467.204 472.503 405.583 500.299C396.514 504.389 357.702 520.112 352.558 523.818C348.159 519.568 297.478 501.658 287.904 496.464L288.073 495.265L292.205 493.264C298.948 490.477 307.195 487.395 313.195 483.514C315.29 483.597 411.466 441.773 422.774 437.331Z"/><path fill="#254A60" fill-opacity="0.94901961" transform="scale(0.5 0.5)" d="M1243.01 595.167L1243.76 595.019C1255.73 600.937 1379.22 652.811 1383.12 652.396L1389.03 652.707C1374.6 660.066 1358.18 665.992 1343.29 672.69C1310.34 687.513 1275.62 700.753 1242.7 715.219C1243.11 697.043 1244.48 679.38 1245.39 661.241C1246.57 637.519 1244.77 618.254 1243.01 595.167Z"/><path fill="#285062" fill-opacity="0.9254902" transform="scale(0.5 0.5)" d="M597.406 508.833L604.068 510.894C602.786 511.578 601.105 512.07 600.846 513.158C596.534 529.823 600.166 547.303 599.48 564.022C598.647 584.3 596.896 604.829 599.667 625.068C599.7 625.304 602.627 628.319 603.214 629.664C574.599 618.465 543.424 604.342 515.059 592.166C509.752 588.851 469.275 572.799 461.115 569.427C465.324 566.789 491.46 556.08 498.054 553.305C521.751 543.412 545.333 533.247 568.795 522.813C574.744 520.176 591.532 513.11 595.954 509.528L597.406 508.833Z"/><path fill="#060E18" fill-opacity="0.95294118" transform="scale(0.5 0.5)" d="M1024.56 234.363C1049.7 244.624 1074.47 256.213 1099.42 267.036L1228.11 322.18L1691.06 523.235L1691.34 524.823L1689.55 525.267C1682.25 523.847 1655.37 511.418 1646.99 507.787L1548.01 464.697C1520.89 452.283 1492.77 441.325 1465.69 428.728C1460.27 426.204 1455.05 424.165 1449.78 421.237L1448.76 420.794C1441.62 418.809 1426.08 411.401 1418.68 408.375C1393.16 397.935 1367.8 385.558 1342.21 375.341C1329.73 368.932 1315.92 363.645 1302.94 358.139L1242.48 332.267L1121.12 280.528C1117.34 277.968 1095.3 268.966 1089.97 266.718L1025.11 239.174L1024.15 238.994C1012.71 244.253 978.791 257.504 970.105 262.98C963.367 265.893 930.503 280.398 926.119 280.874L925.616 281.375C895.704 293.697 861.199 308.217 831.76 321.772L824.786 324.607L811.805 330.505L806.727 332.362L754.209 354.944L741.703 360.215C736.307 362.426 723.916 367.178 719.89 370.334C701.342 374.471 605.667 421.589 599.16 420.607L598.218 417.209C631.172 404.864 671.072 385.91 704.435 372.013C811.317 327.491 917.756 278.857 1024.56 234.363Z"/><path fill="#060E18" fill-opacity="0.88627452" transform="scale(0.5 0.5)" d="M592.175 419.55L597.49 417.716L597.88 422.396C588.369 425.817 576.621 430.759 567.578 435.178C549.29 444.114 527.941 451.127 510.01 460.333C500.627 464.066 483.575 470.936 474.878 475.41C437.912 489.753 394.889 509.725 357.968 525.79L352.558 523.818C357.702 520.112 396.514 504.389 405.583 500.299C467.204 472.503 530.711 447.669 592.175 419.55Z"/><path fill="#496C76" fill-opacity="0.94901961" transform="scale(0.5 0.5)" d="M1448.76 420.794L1449.78 421.237C1450.49 449.077 1449.94 477.604 1450.11 505.512C1455.03 503.024 1455.86 502.051 1461.33 502.469L1448.8 507.604C1468.88 518.468 1493.73 528.043 1514.78 537.527C1527.6 543.308 1534.94 543.961 1548.07 553.112C1539.77 550.897 1527.44 544.527 1518.86 540.86C1495.87 531.104 1472.95 521.17 1450.11 511.061C1450.12 523.229 1449.26 622.455 1450.93 626.756L1449 627.416C1446.71 608.103 1451.33 516.888 1447.55 508.201L1447 506.769L1447.03 506.291C1450.21 501.429 1447.76 433.241 1448.76 420.794Z"/><path fill="#496C76" fill-opacity="0.9254902" transform="scale(0.5 0.5)" d="M663.649 655.36C670.265 651.888 798.311 597.713 801.016 598.203C799.274 602.295 680.387 647.089 665.156 656.264L663.649 655.36Z"/><path fill="#496C76" fill-opacity="0.9254902" transform="scale(0.5 0.5)" d="M458.514 568.396C487.38 555.434 518.202 543.639 547.209 530.389C554.4 527.104 590.81 510.473 595.954 509.528C591.532 513.11 574.744 520.176 568.795 522.813C545.333 533.247 521.751 543.412 498.054 553.305C491.46 556.08 465.324 566.789 461.115 569.427L458.514 568.396Z"/><path fill="#496C76" fill-opacity="0.90980393" transform="scale(0.5 0.5)" d="M802.69 594.522C803.748 594.88 807.104 596.1 807.994 596.212C807.62 635.539 807.977 675.274 808.053 714.63L805.106 713.681C805.688 712.458 805.817 711.737 805.819 709.81C805.856 672.562 806.808 634.648 805.413 597.499C804.297 596.28 803.39 595.287 802.69 594.522Z"/><path fill="#94BEC6" fill-opacity="0.98823529" transform="scale(0.5 0.5)" d="M290.106 491.788L291.345 490.603C288.321 490.537 289.241 491.011 287.518 489.212L288.434 488.103C302.218 489.901 305.174 482.945 313.195 483.514C307.195 487.395 298.948 490.477 292.205 493.264L290.106 491.788Z"/><path fill="#94BEC6" transform="scale(0.5 0.5)" d="M90.1315 495.806C92.2535 494.709 94.6824 493.704 96.8992 492.761C137.657 475.432 178.244 456.904 219.326 440.378C216.425 444.851 214.676 449.728 217.006 454.842L218.451 454.28C219.644 450.991 220.001 448.942 222.998 447.216C224.874 450.56 222.023 451.417 224.405 452.169C227.665 450.714 226.28 450.786 229.592 451.828L232.39 454.999C235.004 453.9 236.615 453.139 239.446 452.556C242.427 455.381 247.631 462.447 249.268 463.671C251.708 465.495 268.012 471.107 270.108 474.193C273.602 479.336 276.465 491.415 285.499 493.321C287.528 492.851 288.197 492.622 290.106 491.788L292.205 493.264L288.073 495.265L287.904 496.464C297.478 501.658 348.159 519.568 352.558 523.818L357.968 525.79C386.636 539.053 428.811 556.57 458.514 568.396L461.115 569.427C469.275 572.799 509.752 588.851 515.059 592.166C512.556 593.588 512.233 593.236 511.057 595.538C515.22 601.436 515.41 604.657 522.703 604.52C525.876 609.407 521.099 610.38 525.019 615.825C525.756 615.468 526.494 615.214 527.28 614.987C531.252 617.933 526.91 618.804 530.665 619.069C533.012 616.8 534.789 614.337 537.593 613.633C539.636 617.059 541.686 620.728 544.183 623.811C548.736 623.982 548.679 623.263 551.873 625.463L551.986 626.097C552.479 628.739 552.654 629.261 553.81 631.662L554.862 631.821C558.242 628.826 559.884 627.689 564.373 628.029C565.71 628.963 567.273 629.594 567.355 630.801C567.666 635.377 574.188 638.375 578.087 641.463C586.82 648.378 599.399 644.004 605.989 650.758C609.191 654.038 614.349 652.392 614.878 655.418C612.495 656.598 611.748 656.805 609.161 657.455C608.099 660.317 608.661 660.696 609.153 663.949C613.88 664.731 622.497 662.163 627.114 660.695L629.764 666.981L631.334 667.425L631.881 666.64L630.953 664.59L634.508 664.83L634.14 666.949C636.619 669.088 635.424 668.485 639.548 668.6C639.722 673.302 638.452 674.595 640.166 678.153L641.577 678.431C642.555 676.328 643.028 675.162 644.392 673.251L646.47 673.061C647.835 675.13 647.622 675.585 647.545 678.203C651.139 677.538 655.863 676.239 659.167 677.344L671.31 689.508C669.342 691.908 664.706 689.191 664.32 691.971C670.862 696.394 675.753 689.896 678.949 692.944C685.12 698.83 691.303 699.802 699.423 701.086L699.575 702.885L697.118 705.772C698.827 708.239 699.509 707.986 702.487 709.368C704.095 707.748 704.077 707.531 704.832 705.313C707.346 704.926 708.946 705.602 711.409 706.271L711.252 708.609L709.054 710.351C708.736 713.419 708.426 712.208 710.363 714.866C713.551 715.042 716.268 715.225 719.442 715.603C719.996 719.399 719.297 718.42 721.569 720.203C723.73 720.199 725.458 720.118 727.604 720.482L727.809 724.36C729.637 725.887 735.6 727.092 737.86 727.303C745.777 728.041 749.813 736.182 755.815 739.722C761.386 743.01 769.569 744.046 775.366 748.741L775.462 751.605L776.782 752.606C780.243 751.764 781.523 750.754 784.204 751.944C785.058 756.038 784.249 755.263 786.969 757.489C791.453 758.101 795.738 755.908 797.546 757.075C809.855 765.03 820.934 774.556 833.002 782.923C836.699 785.487 845.627 784.284 848.614 787.152C858.634 796.774 876.835 794.197 885.894 803.322C886.8 804.235 889.45 807.68 890.807 807.859C892.512 807.178 904.485 814.253 904.518 814.236C908.718 812.183 912.523 812.326 916.04 815.325L915.198 815.627C914.261 815.969 914.041 816.064 913.178 816.622L911.508 813.569L907.711 816.58L907.771 817.546C915.052 818.136 922.634 824.412 927.259 823.087L929.283 820.441C932.027 820.304 932.598 820.858 934.974 822.331L935.093 823.313L929.259 825.064L928.715 826.294C930.65 828.49 939.1 827.592 942.292 832.184C943.214 833.51 949.578 829.295 949.638 829.316C957.017 831.858 956.419 836.534 962.34 831.109C963.869 832.773 963.864 833.151 964.597 835.357C968.171 837.847 976.022 835.114 977.984 837.598C983.786 844.945 979.323 844.47 990.421 844.299C992.08 842.426 992.24 842.02 993.222 839.708C1001.96 839.89 1005.98 850.533 1015.42 843.25C1019.97 843.969 1016.5 846.635 1022.99 847.256C1024.64 845.647 1024.64 845.531 1025.41 843.299C1028.94 844.78 1027.35 847.258 1029.38 847.412C1033.28 847.709 1037.96 848.438 1041.67 849.604L1046.5 845.908C1049.11 849.734 1046.49 850.376 1049.97 852.628C1063.82 853.015 1058.97 841.539 1077.93 858.928C1078.96 859.88 1085.81 859.969 1087.86 858.566L1088.95 856.597C1092.59 855.826 1091.06 855.776 1094.81 857.07C1096.07 858.921 1095.98 860.465 1096.2 862.72C1081.85 869.517 1066.1 875.983 1051.48 882.346C1045.42 884.984 1030.77 891.664 1024.88 893.503C982.665 876.838 938.746 856.93 896.579 839.396C757.517 781.481 618.895 722.516 480.725 662.504L95.8454 500.002C92.3109 498.49 91.3991 498.594 90.1315 495.806Z"/><path fill="#060E18" fill-opacity="0.97647059" transform="scale(0.5 0.5)" d="M166.144 584.191L764.131 838.983L952.362 918.42C974.864 927.812 1001.18 940.078 1023.69 948.542C1026.51 951.63 1024.55 986.972 1024.37 993.146C1177.08 929.862 1329.38 865.606 1481.26 800.383C1510.95 787.356 1541.28 773.156 1570.91 760.484L1751.26 685.333L1832.19 651.114C1848.18 644.264 1867.77 635.201 1883.81 629.553C1892.98 629.421 1911.36 619.277 1920.64 615.573C1918.12 616.578 1934.33 619.545 1938.24 619.22C1946.07 621.969 1955.85 626.38 1962.89 630.751C1943.6 641.738 1897.03 659.787 1875.06 668.934L1726.3 731.6C1552.55 803.633 1379.38 877.044 1206.8 951.827L1114.46 991.78C1100.66 997.684 1050.82 1016.63 1042.36 1024L1008.34 1024C1003.42 1019.41 902.859 978.782 889.387 972.994L296.944 722.516L150.26 660.66C129.387 651.753 103.336 641.3 83.1829 631.443L83.408 629.913C86.2838 627.692 88.4231 626.988 91.7741 625.626C112.469 617.218 132.011 606.406 152.84 598.232C158.231 596.116 164.642 593.412 169.46 590.312C169.508 587.345 168.403 587.053 166.144 584.191Z"/><path fill="#E8F9F7" fill-opacity="0.98823529" transform="scale(0.5 0.5)" d="M1025.42 321.622L1025.64 322.959C1025.54 334.901 1024.59 380.093 1025.8 389.873C1024.36 427.153 1027.28 469.845 1025.32 505.875C1075.55 487.092 1128.22 463.85 1178.03 443.724C1192.17 438.011 1229.35 423.008 1241.16 416.81L1241.89 416.691L1243.25 416.752L1244.24 418.064C1242.92 437.475 1243.73 467.258 1243.85 487.3C1243.99 509.751 1243.13 538.213 1244.16 560.207C1243.93 570.547 1243.88 580.89 1244.01 591.232C1253.46 587.381 1264.85 583.065 1273.88 578.648C1277.15 577.729 1281.24 576.07 1284.45 574.724C1331.23 555.082 1378.29 536.089 1424.73 515.637C1431.81 512.516 1439.61 508.695 1447 506.769L1447.55 508.201C1380.69 537.772 1311.4 564.394 1245.12 593.788L1243.76 595.019L1243.01 595.167C1233.7 597.576 1206.51 609.507 1196.59 613.593L1102.99 652.223L1048.4 674.483C1043.9 676.363 1030.28 681.711 1026.78 683.782L1022.73 684.903C1015.42 680.052 977.752 666.414 967.938 662.335C914.794 639.882 861.478 617.841 807.994 596.212C807.104 596.1 803.748 594.88 802.69 594.522C794.728 590.159 759.912 576.848 749.317 572.322L604.068 510.894L597.406 508.833C597.833 507.548 598.35 507.599 599.792 506.642C606.77 510.656 616.806 514.226 624.455 517.261C674.088 536.955 722.32 559.96 772.971 576.996C782.784 580.297 793.252 585.6 803.445 589.25C803.988 584.302 803.919 576.784 804.017 571.598C800.732 570.193 794.736 573.058 791.183 571.537C807.744 568.911 805.165 568.675 805.314 552.895C805.739 507.895 805.874 462.892 805.897 417.891L807.792 417.021C816.059 421.851 849.061 434.22 860.62 439.197C914.246 462.415 968.294 484.646 1022.74 505.88C1023.1 465.736 1024.93 410.677 1023.16 371.307C1023.77 367.919 1023.97 324.931 1023.34 323.094L1025.42 321.622ZM808.068 594.233C824.644 586.205 846.515 578.042 863.966 571.073C895.143 558.762 926.225 546.212 957.21 533.424C974.523 526.617 1003.48 512.981 1020.01 508.376C968.505 487.802 917.2 466.723 866.105 445.141C847.208 437.107 826.513 428.82 807.982 420.358C808.058 476.464 809.44 538.708 808.068 594.233ZM856.874 613.588C858.595 613.6 859.357 613.319 860.986 612.899C855.988 609.296 829.957 599.556 823.431 597.934L823.67 596.728C827.989 595.86 852.764 597.669 858.114 598.445C874.245 600.787 889.108 605.572 906.024 603.218C911.998 602.387 920.717 603.089 926.886 602.688C933.112 602.46 941.51 605.8 947.876 605.477L948.643 603.525C958.234 604.034 967.849 603.875 977.418 603.049C993.564 601.571 992.071 600.623 1008.21 604.479C1007.95 602.706 1008.02 602.644 1008.25 600.948C1012.3 600.396 1014.2 601.926 1018.35 603.584C1019.95 607.614 1020.01 606.261 1019.39 610.29C1017.44 612.621 1016.32 612.694 1013.42 613.278L1012.49 613.46C1013.73 614.11 1019.56 614.397 1021.3 614.541C1022.69 589.34 1021.91 540.594 1021.72 512.959C1021.19 512.346 1020.74 511.82 1020.37 511.38C975.322 529.392 930.379 547.657 885.539 566.175C869.323 572.796 826.166 591.265 811.002 595.208C826.309 601.142 841.855 607.001 856.874 613.588ZM1026.97 511.059L1025.55 510.808C1023.27 514.667 1025.52 675.125 1027.54 678.725C1062.08 666.453 1101.56 649.294 1135.97 635.397C1157.8 626.755 1179.55 617.936 1201.24 608.939C1207.21 606.498 1232.01 597.704 1234.57 593.706C1232.37 591.148 1226.34 589.74 1222.71 588.591C1179.71 572.254 1136.89 555.438 1094.26 538.148C1073.61 529.915 1046.63 520.121 1026.97 511.059Z"/><path fill="#84EBE3" transform="scale(0.5 0.5)" d="M1240.41 420.345L1241.76 421.038C1242.71 426.181 1242.14 458.611 1242.09 466.269C1241.86 507.411 1242.06 549.68 1239.86 590.747C1229.16 588.347 1199.6 576.029 1188.13 571.51L1092.79 534.234C1074.23 526.945 1045.59 514.152 1027.46 508.896C1047.84 498.937 1082.04 487.26 1103.97 477.876C1149.19 458.522 1195.17 439.661 1240.41 420.345Z"/><defs><linearGradient id="gradient_1" gradientUnits="userSpaceOnUse" x1="909.74084" y1="421.82748" x2="913.35535" y2="587.77051"><stop offset="0" stop-color="#6BDFDC" stop-opacity="0.98823529"/><stop offset="1" stop-color="#ABFDE5"/></linearGradient></defs><path fill="url(#gradient_1)" transform="scale(0.5 0.5)" d="M807.982 420.358C826.513 428.82 847.208 437.107 866.105 445.141C917.2 466.723 968.505 487.802 1020.01 508.376C1003.48 512.981 974.523 526.617 957.21 533.424C926.225 546.212 895.143 558.762 863.966 571.073C846.515 578.042 824.644 586.205 808.068 594.233C809.44 538.708 808.058 476.464 807.982 420.358Z"/><defs><linearGradient id="gradient_2" gradientUnits="userSpaceOnUse" x1="919.97162" y1="514.06891" x2="920.03552" y2="605.01892"><stop offset="0" stop-color="#30DBEE" stop-opacity="0.98431373"/><stop offset="1" stop-color="#7DECDF"/></linearGradient></defs><path fill="url(#gradient_2)" transform="scale(0.5 0.5)" d="M1020.37 511.38C1020.74 511.82 1021.19 512.346 1021.72 512.959C1021.91 540.594 1022.69 589.34 1021.3 614.541C1019.56 614.397 1013.73 614.11 1012.49 613.46L1013.42 613.278C1016.32 612.694 1017.44 612.621 1019.39 610.29C1020.01 606.261 1019.95 607.614 1018.35 603.584C1014.2 601.926 1012.3 600.396 1008.25 600.948C1008.02 602.644 1007.95 602.706 1008.21 604.479C992.071 600.623 993.564 601.571 977.418 603.049C967.849 603.875 958.234 604.034 948.643 603.525L947.876 605.477C941.51 605.8 933.112 602.46 926.886 602.688C920.717 603.089 911.998 602.387 906.024 603.218C889.108 605.572 874.245 600.787 858.114 598.445C852.764 597.669 827.989 595.86 823.67 596.728L823.431 597.934C829.957 599.556 855.988 609.296 860.986 612.899C859.357 613.319 858.595 613.6 856.874 613.588C841.855 607.001 826.309 601.142 811.002 595.208C826.166 591.265 869.323 572.796 885.539 566.175C930.379 547.657 975.322 529.392 1020.37 511.38Z"/><defs><linearGradient id="gradient_3" gradientUnits="userSpaceOnUse" x1="1117.3794" y1="511.61569" x2="1119.7266" y2="600.58759"><stop offset="0" stop-color="#31DBED" stop-opacity="0.98039216"/><stop offset="1" stop-color="#80EEE1"/></linearGradient></defs><path fill="url(#gradient_3)" transform="scale(0.5 0.5)" d="M1026.97 511.059C1046.63 520.121 1073.61 529.915 1094.26 538.148C1136.89 555.438 1179.71 572.254 1222.71 588.591C1222.57 589.653 1222.73 589.121 1221.58 590.086C1209.8 585.339 1191.11 591.652 1178.64 594.342C1166.6 596.841 1154.44 598.712 1142.2 599.947C1117.38 602.311 1090.83 600.04 1065.87 602.39C1056.48 603.274 1041.82 598.737 1030.47 600.854C1029.76 602.808 1029.61 603.46 1029.23 605.509L1027.95 604.43C1026.45 607.733 1026.83 610.069 1029.14 612.705C1037.99 612.851 1046.84 613.063 1055.68 613.34C1049.57 614.401 1039.18 613.179 1032.55 614.002C1029.82 614.342 1029.15 616.202 1027.51 618.469C1025.79 609.968 1024.79 515.413 1026.97 511.059Z"/><path fill="#84EBE3" fill-opacity="0.98823529" transform="scale(0.5 0.5)" d="M1222.71 588.591C1226.34 589.74 1232.37 591.148 1234.57 593.706C1232.01 597.704 1207.21 606.498 1201.24 608.939C1179.55 617.936 1157.8 626.755 1135.97 635.397C1101.56 649.294 1062.08 666.453 1027.54 678.725C1025.52 675.125 1023.27 514.667 1025.55 510.808L1026.97 511.059C1024.79 515.413 1025.79 609.968 1027.51 618.469C1029.15 616.202 1029.82 614.342 1032.55 614.002C1039.18 613.179 1049.57 614.401 1055.68 613.34C1046.84 613.063 1037.99 612.851 1029.14 612.705C1026.83 610.069 1026.45 607.733 1027.95 604.43L1029.23 605.509C1029.61 603.46 1029.76 602.808 1030.47 600.854C1041.82 598.737 1056.48 603.274 1065.87 602.39C1090.83 600.04 1117.38 602.311 1142.2 599.947C1154.44 598.712 1166.6 596.841 1178.64 594.342C1191.11 591.652 1209.8 585.339 1221.58 590.086C1222.73 589.121 1222.57 589.653 1222.71 588.591Z"/><path fill="#84EBE3" transform="scale(0.5 0.5)" d="M1020.37 511.38L1021.99 510.618C1024.2 513.411 1023.06 658.81 1021.15 675.904C1021.02 677.028 1020.86 678.149 1020.67 679.265C984.502 666.345 949.671 651.75 914.246 636.945C895.34 629.045 875.511 622.175 856.874 613.588C858.595 613.6 859.357 613.319 860.986 612.899C855.988 609.296 829.957 599.556 823.431 597.934L823.67 596.728C827.989 595.86 852.764 597.669 858.114 598.445C874.245 600.787 889.108 605.572 906.024 603.218C911.998 602.387 920.717 603.089 926.886 602.688C933.112 602.46 941.51 605.8 947.876 605.477L948.643 603.525C958.234 604.034 967.849 603.875 977.418 603.049C993.564 601.571 992.071 600.623 1008.21 604.479C1007.95 602.706 1008.02 602.644 1008.25 600.948C1012.3 600.396 1014.2 601.926 1018.35 603.584C1019.95 607.614 1020.01 606.261 1019.39 610.29C1017.44 612.621 1016.32 612.694 1013.42 613.278L1012.49 613.46C1013.73 614.11 1019.56 614.397 1021.3 614.541C1022.69 589.34 1021.91 540.594 1021.72 512.959C1021.19 512.346 1020.74 511.82 1020.37 511.38Z"/><path fill="#496C76" fill-opacity="0.98431373" transform="scale(0.5 0.5)" d="M88.6302 551.546C87.8524 544.39 87.9003 498.836 90.1315 495.806C91.3991 498.594 92.3109 498.49 95.8454 500.002L480.725 662.504C618.895 722.516 757.517 781.481 896.579 839.396C938.746 856.93 982.665 876.838 1024.88 893.503C1024.81 902.814 1023.72 942.064 1024.48 948.275L1023.69 948.542C1001.18 940.078 974.864 927.812 952.362 918.42L764.131 838.983L166.144 584.191C162.668 583.778 94.1823 554.592 88.6302 551.546Z"/><path fill="#74A2AB" fill-opacity="0.98823529" transform="scale(0.5 0.5)" d="M1952.75 502.811C1952.99 511.009 1954.46 546.481 1951.51 551.306C1945.58 554.624 1899.86 573.894 1895.23 574.264C1898.63 575.298 1899.75 575.052 1903.27 574.78C1896.21 577.761 1886.96 581.377 1880.29 584.765L1879.34 584.942C1871.12 588.019 1864.58 590.642 1856.62 594.314L1273.43 840.837C1217.76 864.518 1162.23 888.535 1106.84 912.888C1082.88 923.297 1048.39 939.514 1024.48 948.275C1023.72 942.064 1024.81 902.814 1024.88 893.503C1030.77 891.664 1045.42 884.984 1051.48 882.346C1066.1 875.983 1081.85 869.517 1096.2 862.72L1585.67 655.045C1625.13 638.441 1665.37 622.244 1704.54 605.236C1722.81 597.235 1741.14 589.368 1759.53 581.637C1767.32 578.362 1780.23 572.52 1787.67 570.329C1793.84 571.482 1831.01 554.11 1839.47 550.48C1867.64 538.151 1896.01 526.272 1924.56 514.847C1933.72 511.075 1943.66 506.257 1952.75 502.811Z"/><path fill="#254A60" fill-opacity="0.97647059" transform="scale(0.5 0.5)" d="M1024.48 948.275C1048.39 939.514 1082.88 923.297 1106.84 912.888C1162.23 888.535 1217.76 864.518 1273.43 840.837L1856.62 594.314C1859.95 597.562 1892.02 610.678 1898.84 613.739L1909.07 618.254C1901.81 621.356 1890.41 625.85 1883.81 629.553C1867.77 635.201 1848.18 644.264 1832.19 651.114L1751.26 685.333L1570.91 760.484C1541.28 773.156 1510.95 787.356 1481.26 800.383C1329.38 865.606 1177.08 929.862 1024.37 993.146C1024.55 986.972 1026.51 951.63 1023.69 948.542L1024.48 948.275Z"/><path fill="#84EBE3" transform="scale(0.5 0.5)" d="M599.792 506.642C615.199 500.623 634.245 491.63 649.985 484.938L805.897 417.891C805.874 462.892 805.739 507.895 805.314 552.895C805.165 568.675 807.744 568.911 791.183 571.537C794.736 573.058 800.732 570.193 804.017 571.598C803.919 576.784 803.988 584.302 803.445 589.25C793.252 585.6 782.784 580.297 772.971 576.996C722.32 559.96 674.088 536.955 624.455 517.261C616.806 514.226 606.77 510.656 599.792 506.642Z"/><defs><linearGradient id="gradient_4" gradientUnits="userSpaceOnUse" x1="1322.7231" y1="589.76031" x2="1345.9595" y2="438.16873"><stop offset="0" stop-color="#A8F8DE"/><stop offset="1" stop-color="#24D5EC"/></linearGradient></defs><path fill="url(#gradient_4)" transform="scale(0.5 0.5)" d="M1244.24 418.064C1280.51 433.244 1316.62 448.818 1352.55 464.782C1374.72 475.007 1397.03 484.901 1419.49 494.461C1427.24 497.793 1439.56 503.601 1447.03 506.291L1447 506.769C1439.61 508.695 1431.81 512.516 1424.73 515.637C1378.29 536.089 1331.23 555.082 1284.45 574.724C1281.24 576.07 1277.15 577.729 1273.88 578.648C1266.16 578.535 1265.8 577.271 1261.04 571.397C1255.9 569.427 1250.43 571.855 1246.9 575.702L1246.3 576.357C1245.84 574.837 1244.65 563.179 1244.16 560.207C1243.13 538.213 1243.99 509.751 1243.85 487.3C1243.73 467.258 1242.92 437.475 1244.24 418.064Z"/><path fill="#285062" fill-opacity="0.78431374" transform="scale(0.5 0.5)" d="M754.209 354.944L806.727 332.362C804.738 345.084 806.2 387.262 805.707 403.286L805.575 416.449C796.712 411.909 772.625 400.847 763.653 400.322C765.703 401.935 770.723 404.677 773.195 406.114L773.213 406.903L769.724 406.935L769.095 407.657C771.878 409.722 780.723 413.665 784.154 414.521C784.883 415.919 784.762 415.361 784.912 416.895L783.458 421.077L784.226 422.646L786.163 423.167C780.192 426.389 775.526 427.509 769.644 430.273C749.531 439.725 727.633 447.197 707.888 457.171C707.407 456.884 706.922 456.605 706.432 456.335C702.73 454.26 701.835 454.23 698.227 455.234C700.677 455.77 702.835 455.941 705.316 456.197L705.91 457.253C695.457 466.631 651.403 477.929 638.064 485.806C626.155 492.837 619.556 494.117 606.566 498.139C605.767 498.386 605.706 499.611 605.467 500.489L603.418 501.609L600.947 500.8C596.112 491.311 601.466 437.834 597.88 422.396L597.49 417.716L598.218 417.209L599.16 420.607C605.667 421.589 701.342 374.471 719.89 370.334C723.487 370.825 725.783 368.581 729.795 368.995L724.026 371.581C729 375.293 757.988 364.514 759.838 357.408C758.09 355.068 757.717 355.655 754.209 354.944ZM738.563 384.194C738.249 381.144 738.657 378.521 736.172 376.714C732.679 374.174 722.88 375.009 718.114 375.023C722.647 381.849 730.754 383.964 738.563 384.194Z"/><path fill="#285062" fill-opacity="0.62352943" transform="scale(0.5 0.5)" d="M718.114 375.023C722.88 375.009 732.679 374.174 736.172 376.714C738.657 378.521 738.249 381.144 738.563 384.194C730.754 383.964 722.647 381.849 718.114 375.023Z"/><path fill="#285062" fill-opacity="0.91764706" transform="scale(0.5 0.5)" d="M1121.12 280.528L1242.48 332.267C1241.51 340.898 1241.91 354.683 1241.9 363.73L1241.89 416.691L1241.16 416.81L1208.18 402.696C1201.82 399.839 1192.55 395.365 1186.16 393.321C1180.24 389.484 1148.17 376.423 1139.54 372.598C1101.78 355.854 1063.04 340.6 1025.64 322.959L1025.42 321.622L1028.4 321.941C1032.89 321.404 1096.63 293.905 1098.69 291.351C1101.43 289.319 1102.28 288.395 1105.78 288.293C1110.69 287.635 1116.73 285.416 1120.7 282.454L1121.12 280.528Z"/><defs><linearGradient id="gradient_5" gradientUnits="userSpaceOnUse" x1="876.76837" y1="300.10461" x2="915.63672" y2="374.40799"><stop offset="0" stop-color="#264E60" stop-opacity="0.75294119"/><stop offset="1" stop-color="#264E5F" stop-opacity="0.86274511"/></linearGradient></defs><path fill="url(#gradient_5)" transform="scale(0.5 0.5)" d="M925.616 281.375C943.379 287.68 965.091 299.161 983.012 306.479C988.732 308.814 1018.25 321.208 1021.73 323.662C973.758 346.445 921.825 368.338 872.852 388.929L869.791 390.392C863.57 392.829 851.949 397.41 846.195 400.665L834.002 405.79C825.506 409.197 817.054 412.713 808.649 416.337C808.242 414.108 808.138 406.522 808.044 403.886C807.434 394.402 809.005 336.174 806.727 332.362L811.805 330.505L809.505 334.192L810.071 335.656C814.092 336.317 823.764 330.917 826.921 328.002C829.52 328.007 830.044 328.094 832.303 326.865C833.195 324.256 832.89 325.037 831.76 321.772C861.199 308.217 895.704 293.697 925.616 281.375ZM909.112 371.87L910.548 369.39L909.714 367.747L905.639 366.573L903.42 369.41L903.956 370.862C905.614 371.21 907.458 371.643 909.112 371.87Z"/><path fill="#285062" fill-opacity="0.78431374" transform="scale(0.5 0.5)" d="M905.639 366.573L909.714 367.747L910.548 369.39L909.112 371.87C907.458 371.643 905.614 371.21 903.956 370.862L903.42 369.41L905.639 366.573Z"/><defs><linearGradient id="gradient_6" gradientUnits="userSpaceOnUse" x1="921.08942" y1="504.69196" x2="917.03424" y2="397.14801"><stop offset="0" stop-color="#AEF0DA"/><stop offset="1" stop-color="#59E4E5"/></linearGradient></defs><path fill="url(#gradient_6)" transform="scale(0.5 0.5)" d="M1021.6 393.274C1021.62 386.969 1020.88 376.635 1023.16 371.307C1024.93 410.677 1023.1 465.736 1022.74 505.88C968.294 484.646 914.246 462.415 860.62 439.197C849.061 434.22 816.059 421.851 807.792 417.021L808.649 416.337C817.054 412.713 825.506 409.197 834.002 405.79L846.195 400.665L843.035 405.175C843.604 405.629 843.832 406.011 844.205 406.619C848.871 407.317 852.214 406.539 857.096 406.819C859.755 405.665 862.065 406.774 864.421 406.193C879.373 402.51 894.645 404.513 909.78 401.318C915.742 400.06 916.27 394.657 921.85 394.331C924.801 394.828 925.27 395.374 927.226 397.487L927.771 398.085C931.97 398.873 932.632 395.601 939.07 395.591C948.313 395.576 968.199 398.274 975.844 394.772C964.485 391.477 939.282 395.629 924.704 393.714L924.689 393.099C941.176 393.217 1007.33 390.242 1020.03 394.236L1021.6 393.274Z"/><path fill="#84EBE3" transform="scale(0.5 0.5)" d="M975.844 394.772C964.485 391.477 939.282 395.629 924.704 393.714L924.689 393.099C941.176 393.217 1007.33 390.242 1020.03 394.236L1021.6 393.274C1021.58 398.148 1022 408.722 1020.39 412.732L1019.12 412.587C1015.69 404.77 1026.45 405.097 1012.18 399.497C1009.86 398.587 1007.52 397.709 1005.17 396.865C1002.22 395.782 990.873 397.765 987.118 397.562C982.538 397.315 980.976 395.586 976.344 395.228L975.844 394.772Z"/><path fill="#84EBE3" transform="scale(0.5 0.5)" d="M834.002 405.79L846.195 400.665L843.035 405.175C843.604 405.629 843.832 406.011 844.205 406.619C848.871 407.317 852.214 406.539 857.096 406.819C854.579 413.272 837.887 417.252 834.002 405.79Z"/><path fill="#285062" fill-opacity="0.94509804" transform="scale(0.5 0.5)" d="M1342.21 375.341C1367.8 385.558 1393.16 397.935 1418.68 408.375C1426.08 411.401 1441.62 418.809 1448.76 420.794C1447.76 433.241 1450.21 501.429 1447.03 506.291C1439.56 503.601 1427.24 497.793 1419.49 494.461C1397.03 484.901 1374.72 475.007 1352.55 464.782C1316.62 448.818 1280.51 433.244 1244.24 418.064L1243.25 416.752C1242.79 409.782 1243.09 398.948 1243.05 391.681C1246.03 399.38 1246.01 403.103 1244.9 411.37C1245.24 411.865 1245.58 412.361 1245.93 412.857C1259.34 412.632 1267.57 402.945 1279.32 401.784C1276.69 403.569 1271.24 405.666 1267.04 408.365C1274.68 406.569 1336.65 381.337 1341.5 377.463L1342.21 375.341Z"/><defs><linearGradient id="gradient_7" gradientUnits="userSpaceOnUse" x1="1131.4546" y1="400.1936" x2="1126.5702" y2="505.56891"><stop offset="0" stop-color="#5DE6E4"/><stop offset="1" stop-color="#B2F1DD"/></linearGradient></defs><path fill="url(#gradient_7)" transform="scale(0.5 0.5)" d="M1025.8 389.873L1026.89 392.728C1026.96 397.869 1027 402.41 1027.48 407.558C1028.38 405.111 1029.29 401.263 1031.94 400.401C1033.85 399.78 1042.69 396.913 1043.92 397.615C1055.94 404.454 1061.82 399.785 1072.88 400.465C1111.09 402.815 1149.3 407.651 1187.62 404.273C1193.51 403.765 1203.44 406.2 1208.18 402.696L1241.16 416.81C1229.35 423.008 1192.17 438.011 1178.03 443.724C1128.22 463.85 1075.55 487.092 1025.32 505.875C1027.28 469.845 1024.36 427.153 1025.8 389.873Z"/><path fill="#43DCEA" fill-opacity="0.98823529" transform="scale(0.5 0.5)" d="M1021.73 323.662L1023.34 323.094C1023.97 324.931 1023.77 367.919 1023.16 371.307C1020.88 376.635 1021.62 386.969 1021.6 393.274L1020.03 394.236C1007.33 390.242 941.176 393.217 924.689 393.099L924.704 393.714C939.282 395.629 964.485 391.477 975.844 394.772C968.199 398.274 948.313 395.576 939.07 395.591C932.632 395.601 931.97 398.873 927.771 398.085L927.226 397.487C925.27 395.374 924.801 394.828 921.85 394.331C916.27 394.657 915.742 400.06 909.78 401.318C894.645 404.513 879.373 402.51 864.421 406.193C862.065 406.774 859.755 405.665 857.096 406.819C852.214 406.539 848.871 407.317 844.205 406.619C843.832 406.011 843.604 405.629 843.035 405.175L846.195 400.665C851.949 397.41 863.57 392.829 869.791 390.392L872.852 388.929C921.825 368.338 973.758 346.445 1021.73 323.662Z"/><path fill="#43DCEA" fill-opacity="0.98823529" transform="scale(0.5 0.5)" d="M1025.64 322.959C1063.04 340.6 1101.78 355.854 1139.54 372.598C1148.17 376.423 1180.24 389.484 1186.16 393.321C1181.88 395.614 1046.74 390.083 1026.89 392.728L1025.8 389.873C1024.59 380.093 1025.54 334.901 1025.64 322.959Z"/><path fill="#285062" fill-opacity="0.9254902" transform="scale(0.5 0.5)" d="M1242.48 332.267L1302.94 358.139C1315.92 363.645 1329.73 368.932 1342.21 375.341L1341.5 377.463C1331.03 378.602 1285.61 401.688 1279.32 401.784C1267.57 402.945 1259.34 412.632 1245.93 412.857C1245.58 412.361 1245.24 411.865 1244.9 411.37C1246.01 403.103 1246.03 399.38 1243.05 391.681C1243.11 376.44 1244 346.763 1242.48 332.267Z"/><path fill="#285062" fill-opacity="0.9254902" transform="scale(0.5 0.5)" d="M1449.78 421.237C1455.05 424.165 1460.27 426.204 1465.69 428.728C1492.77 441.325 1520.89 452.283 1548.01 464.697L1547.38 465.01C1537.14 467.815 1512.49 478.72 1502.22 483.475C1501.88 484.081 1501.26 485.069 1501.09 485.685C1491.34 489.739 1470.35 499.528 1461.33 502.469C1455.86 502.051 1455.03 503.024 1450.11 505.512C1449.94 477.604 1450.49 449.077 1449.78 421.237Z"/><path fill="#285062" fill-opacity="0.88627452" transform="scale(0.5 0.5)" d="M1025.11 239.174L1089.97 266.718C1095.3 268.966 1117.34 277.968 1121.12 280.528L1120.7 282.454C1116.4 282.783 1109.31 285.859 1105.78 288.293C1102.28 288.395 1101.43 289.319 1098.69 291.351C1094.19 291.875 1031.45 318.802 1028.4 321.941L1025.42 321.622C1023.95 300.241 1025.12 261.821 1025.11 239.174Z"/><path fill="#285062" fill-opacity="0.81960785" transform="scale(0.5 0.5)" d="M510.01 460.333C523.429 463.092 584.304 435.733 597.234 428.38C597.321 454.794 597.606 479.668 596.562 506.096C592.972 504.467 584.691 500.265 581.154 500.256C577.38 497.472 556.714 489.13 551.955 487.814C549.86 486.329 539.969 481.686 537.819 482.658L541.38 485.281C535.073 484.838 503.327 472.849 496.888 468.729C494.362 467.113 481.903 476.949 474.878 475.41C483.575 470.936 500.627 464.066 510.01 460.333ZM531.095 478.914C527.357 476.761 520.949 474.003 516.653 473.932C520.153 475.529 526.316 478.586 529.828 479.421L531.095 478.914Z"/><path fill="#496C76" fill-opacity="0.81176472" transform="scale(0.5 0.5)" d="M516.653 473.932C520.949 474.003 527.357 476.761 531.095 478.914L529.828 479.421C526.316 478.586 520.153 475.529 516.653 473.932Z"/><path fill="#285062" fill-opacity="0.87058824" transform="scale(0.5 0.5)" d="M1024.15 238.994C1023.46 265.835 1023.64 295.16 1023.74 322.124L971.05 299.437C963.969 296.389 941.489 288.273 938.734 282.472C940.909 275.987 956.932 274.568 963.368 273.287L963.54 272.013L964.95 272.85L964.616 272.121C962.667 271.855 957.884 271.603 956.909 270.471C961.011 268.156 968.645 265.896 969.683 264.877L970.105 262.98C978.791 257.504 1012.71 244.253 1024.15 238.994Z"/><path fill="#84EBE3" fill-opacity="0.98823529" transform="scale(0.5 0.5)" d="M1026.89 392.728C1046.74 390.083 1181.88 395.614 1186.16 393.321C1192.55 395.365 1201.82 399.839 1208.18 402.696C1203.44 406.2 1193.51 403.765 1187.62 404.273C1149.3 407.651 1111.09 402.815 1072.88 400.465C1061.82 399.785 1055.94 404.454 1043.92 397.615C1042.69 396.913 1033.85 399.78 1031.94 400.401C1029.29 401.263 1028.38 405.111 1027.48 407.558C1027 402.41 1026.96 397.869 1026.89 392.728Z"/><path fill="#496C76" fill-opacity="0.84705883" transform="scale(0.5 0.5)" d="M784.912 416.895C784.762 415.361 784.883 415.919 784.154 414.521C780.723 413.665 771.878 409.722 769.095 407.657L769.724 406.935L773.213 406.903L773.195 406.114C770.723 404.677 765.703 401.935 763.653 400.322C772.625 400.847 796.712 411.909 805.575 416.449L805.707 403.286L808.044 403.886C808.138 406.522 808.242 414.108 808.649 416.337L807.792 417.021L805.897 417.891L649.985 484.938C634.245 491.63 615.199 500.623 599.792 506.642C598.35 507.599 597.833 507.548 597.406 508.833L595.954 509.528C594.303 506.257 585.444 503.377 581.738 501.853L581.154 500.256C584.691 500.265 592.972 504.467 596.562 506.096C597.606 479.668 597.321 454.794 597.234 428.38L597.88 422.396C601.466 437.834 596.112 491.311 600.947 500.8L603.418 501.609L605.467 500.489C605.706 499.611 605.767 498.386 606.566 498.139C619.556 494.117 626.155 492.837 638.064 485.806C651.403 477.929 695.457 466.631 705.91 457.253L705.316 456.197C702.835 455.941 700.677 455.77 698.227 455.234C701.835 454.23 702.73 454.26 706.432 456.335C706.922 456.605 707.407 456.884 707.888 457.171C727.633 447.197 749.531 439.725 769.644 430.273C775.526 427.509 780.192 426.389 786.163 423.167C788.34 422.933 788.508 422.712 790.432 421.55L790.756 419.649C788.195 416.986 789.003 417.768 784.912 416.895Z"/><path fill="#94BEC6" fill-opacity="0.97647059" transform="scale(0.5 0.5)" d="M1952.61 493.953C1954.96 495.361 1957.37 496.215 1957.78 499.083C1960.01 514.892 1958.64 534.966 1958.65 551.021C1946.56 558.725 1917.46 567.866 1903.27 574.78C1899.75 575.052 1898.63 575.298 1895.23 574.264C1899.86 573.894 1945.58 554.624 1951.51 551.306C1954.46 546.481 1952.99 511.009 1952.75 502.811C1943.66 506.257 1933.72 511.075 1924.56 514.847C1896.01 526.272 1867.64 538.151 1839.47 550.48C1831.01 554.11 1793.84 571.482 1787.67 570.329C1807.63 559.4 1951.11 504.012 1954.63 498.123L1952.61 493.953Z"/><path fill="#285062" fill-opacity="0.73333335" transform="scale(0.5 0.5)" d="M510.01 460.333C527.941 451.127 549.29 444.114 567.578 435.178C576.621 430.759 588.369 425.817 597.88 422.396L597.234 428.38C584.304 435.733 523.429 463.092 510.01 460.333Z"/><path fill="#496C76" fill-opacity="0.86666667" transform="scale(0.5 0.5)" d="M1024.15 238.994L1025.11 239.174C1025.12 261.821 1023.95 300.241 1025.42 321.622L1023.34 323.094L1021.73 323.662C1018.25 321.208 988.732 308.814 983.012 306.479C965.091 299.161 943.379 287.68 925.616 281.375L926.119 280.874C930.503 280.398 963.367 265.893 970.105 262.98L969.683 264.877C968.645 265.896 961.011 268.156 956.909 270.471C957.884 271.603 962.667 271.855 964.616 272.121L964.95 272.85L963.54 272.013L963.368 273.287C956.932 274.568 940.909 275.987 938.734 282.472C941.489 288.273 963.969 296.389 971.05 299.437L1023.74 322.124C1023.64 295.16 1023.46 265.835 1024.15 238.994Z"/><path fill="#0C182A" fill-opacity="0.84313726" transform="scale(0.5 0.5)" d="M1856.62 594.314C1864.58 590.642 1871.12 588.019 1879.34 584.942C1874.42 589.598 1861.91 591.045 1860.85 595.882C1864.4 598.731 1874.46 598.485 1880.08 600.628C1880.74 595.724 1878.05 596.659 1880.87 594.424C1887.26 594.535 1898.58 600.793 1905.32 603.381L1908.96 604.762C1904.59 605.16 1904.8 604.449 1901.91 606.773C1901.86 609.078 1901.83 610.103 1902.12 612.379L1898.84 613.739C1892.02 610.678 1859.95 597.562 1856.62 594.314Z"/><path fill="#84EBE3" fill-opacity="0.98823529" transform="scale(0.5 0.5)" d="M1244.16 560.207C1244.65 563.179 1245.84 574.837 1246.3 576.357L1246.9 575.702C1250.43 571.855 1255.9 569.427 1261.04 571.397C1265.8 577.271 1266.16 578.535 1273.88 578.648C1264.85 583.065 1253.46 587.381 1244.01 591.232C1243.88 580.89 1243.93 570.547 1244.16 560.207Z"/><path fill="#0C182A" fill-opacity="0.90196079" transform="scale(0.5 0.5)" d="M1908.96 604.762C1918.5 609.505 1928.61 614.855 1938.24 619.22C1934.33 619.545 1918.12 616.578 1920.64 615.573C1911.36 619.277 1892.98 629.421 1883.81 629.553C1890.41 625.85 1901.81 621.356 1909.07 618.254L1898.84 613.739L1902.12 612.379C1901.83 610.103 1901.86 609.078 1901.91 606.773C1904.8 604.449 1904.59 605.16 1908.96 604.762Z"/><path fill="#496C76" fill-opacity="0.95686275" transform="scale(0.5 0.5)" d="M1245.12 593.788C1258.75 600.885 1381.78 650.411 1383.12 652.396C1379.22 652.811 1255.73 600.937 1243.76 595.019L1245.12 593.788Z"/><path fill="#0C182A" fill-opacity="0.21960784" transform="scale(0.5 0.5)" d="M1879.34 584.942L1880.29 584.765C1879.47 587.441 1878.25 588.644 1876.42 590.629C1881.89 592.936 1900.08 596.737 1905.32 603.381C1898.58 600.793 1887.26 594.535 1880.87 594.424C1878.05 596.659 1880.74 595.724 1880.08 600.628C1874.46 598.485 1864.4 598.731 1860.85 595.882C1861.91 591.045 1874.42 589.598 1879.34 584.942Z"/><path fill="#496C76" fill-opacity="0.9254902" transform="scale(0.5 0.5)" d="M1075.18 705.46C1104.56 716.435 1132.95 730.902 1161.89 742.276L1161.16 743.733C1157.68 742.894 1133.07 731.865 1127.65 729.362C1109.7 721.082 1092.96 714.863 1074.82 707.478L1075.18 705.46Z"/><path fill="#285062" fill-opacity="0.7019608" transform="scale(0.5 0.5)" d="M741.703 360.215L754.209 354.944C757.717 355.655 758.09 355.068 759.838 357.408C757.988 364.514 729 375.293 724.026 371.581L729.795 368.995C734.399 368.752 746.78 366.022 749.417 362.292C747.603 360.125 745.324 360.633 741.703 360.215Z"/><path fill="#496C76" fill-opacity="0.93725491" transform="scale(0.5 0.5)" d="M1279.32 401.784C1285.61 401.688 1331.03 378.602 1341.5 377.463C1336.65 381.337 1274.68 406.569 1267.04 408.365C1271.24 405.666 1276.69 403.569 1279.32 401.784Z"/><path fill="#496C76" fill-opacity="0.92156863" transform="scale(0.5 0.5)" d="M1028.4 321.941C1031.45 318.802 1094.19 291.875 1098.69 291.351C1096.63 293.905 1032.89 321.404 1028.4 321.941Z"/><path fill="#496C76" fill-opacity="0.80000001" transform="scale(0.5 0.5)" d="M806.727 332.362C809.005 336.174 807.434 394.402 808.044 403.886L805.707 403.286C806.2 387.262 804.738 345.084 806.727 332.362Z"/><path fill="#285062" fill-opacity="0.65882355" transform="scale(0.5 0.5)" d="M719.89 370.334C723.916 367.178 736.307 362.426 741.703 360.215C745.324 360.633 747.603 360.125 749.417 362.292C746.78 366.022 734.399 368.752 729.795 368.995C725.783 368.581 723.487 370.825 719.89 370.334Z"/><path fill="#496C76" fill-opacity="0.92156863" transform="scale(0.5 0.5)" d="M1241.89 416.691L1241.9 363.73C1241.91 354.683 1241.51 340.898 1242.48 332.267C1244 346.763 1243.11 376.44 1243.05 391.681C1243.09 398.948 1242.79 409.782 1243.25 416.752L1241.89 416.691Z"/><path fill="#285062" fill-opacity="0.72941178" transform="scale(0.5 0.5)" d="M811.805 330.505L824.786 324.607L826.921 328.002C823.764 330.917 814.092 336.317 810.071 335.656L809.505 334.192L811.805 330.505Z"/><path fill="#496C76" fill-opacity="0.93725491" transform="scale(0.5 0.5)" d="M1501.09 485.685C1501.26 485.069 1501.88 484.081 1502.22 483.475C1512.49 478.72 1537.14 467.815 1547.38 465.01C1543.85 468.456 1507.78 482.7 1501.09 485.685Z"/><path fill="#496C76" fill-opacity="0.89803922" transform="scale(0.5 0.5)" d="M1029.08 686.404C1035.17 687.31 1047.9 693.453 1053.75 696.21C1050.41 696.666 1030.77 688.926 1029.08 686.404Z"/><path fill="#285062" fill-opacity="0.7764706" transform="scale(0.5 0.5)" d="M784.912 416.895C789.003 417.768 788.195 416.986 790.756 419.649L790.432 421.55C788.508 422.712 788.34 422.933 786.163 423.167L784.226 422.646L783.458 421.077L784.912 416.895Z"/><path fill="#285062" fill-opacity="0.70980394" transform="scale(0.5 0.5)" d="M824.786 324.607L831.76 321.772C832.89 325.037 833.195 324.256 832.303 326.865C830.044 328.094 829.52 328.007 826.921 328.002L824.786 324.607Z"/><path fill="#496C76" fill-opacity="0.85490197" transform="scale(0.5 0.5)" d="M541.38 485.281L537.819 482.658C539.969 481.686 549.86 486.329 551.955 487.814C549.336 488.741 545.708 486.269 541.38 485.281Z"/><path fill="#254A60" fill-opacity="0.89019608" transform="scale(0.5 0.5)" d="M1105.78 288.293C1109.31 285.859 1116.4 282.783 1120.7 282.454C1116.73 285.416 1110.69 287.635 1105.78 288.293Z"/><path fill="#496C76" fill-opacity="0.89803922" transform="scale(0.5 0.5)" d="M1011.06 688.597L1014.34 687.172L1014.75 688.368L1013.23 689.4L1011.06 688.597Z"/></svg>