<?xml version="1.0" encoding="utf-8" ?><svg xmlns="http://www.w3.org/2000/svg" xmlns:xlink="http://www.w3.org/1999/xlink" width="341" height="341" viewBox="0 0 341 341"><path fill="#FFFEFE" transform="scale(0.333008 0.333008)" d="M794.523 247.788C796.075 246.933 798.026 247.481 798.905 249.019C799.784 250.557 799.267 252.516 797.743 253.42C796.736 254.017 795.485 254.024 794.47 253.44C793.455 252.855 792.834 251.769 792.845 250.599C792.857 249.428 793.498 248.353 794.523 247.788Z"/><path fill="#BEFEFF" transform="scale(0.333008 0.333008)" d="M167.117 302.72C167.898 302.194 168.905 302.14 169.737 302.58C170.569 303.02 171.091 303.883 171.096 304.824C171.101 305.765 170.587 306.633 169.759 307.081C168.561 307.73 167.066 307.324 166.36 306.159C165.655 304.994 165.988 303.48 167.117 302.72Z"/><path fill="#FFFEFE" transform="scale(0.333008 0.333008)" d="M664.848 95.8162C665.665 95.6338 666.517 95.9092 667.072 96.5355C667.628 97.1618 667.8 98.0402 667.521 98.8297C667.242 99.6192 666.557 100.195 665.732 100.334C664.501 100.541 663.329 99.7304 663.09 98.5056C662.85 97.2808 663.63 96.0881 664.848 95.8162Z"/><defs><linearGradient id="gradient_0" gradientUnits="userSpaceOnUse" x1="565.94525" y1="658.55988" x2="537.0307" y2="894.74792"><stop offset="0" stop-color="#4DC6CF"/><stop offset="1" stop-color="#B3E2E7"/></linearGradient></defs><path fill="url(#gradient_0)" transform="scale(0.333008 0.333008)" d="M410.468 595.763C419.284 597.203 447.159 615.622 456.897 620.75C460.932 622.875 466.718 627.178 471.595 628.945C471.407 631.556 471.195 638.429 471.71 640.791L472.155 640.178C475.335 635.728 476.944 636.184 482.071 636.5C487.14 635.029 494.916 640.994 498.866 643.193C498.542 634.285 498.497 606.187 500.598 598.719C501.638 613.757 499.434 629.626 500.658 643.666C507.776 645.424 509.56 653.408 520.322 647.512C523.463 645.792 522.395 641.951 523.648 638.355C523.565 636.245 523.459 634.137 523.332 632.03L524.319 631.683C525.612 631.628 531.231 631.065 532.317 630.798C537.522 629.517 548.559 632.204 552.877 631.161L552.844 630.422C566.988 622.034 581.484 614.158 595.954 606.357C599.263 604.573 611.862 596.945 614.511 596.138C621.342 601.608 644.885 614.39 653.981 619.506C666.285 626.426 681.421 636.26 693.511 642.822C708.443 651.528 723.443 660.116 738.51 668.586C744.817 672.112 755.378 677.454 761.128 681.185C768.029 684.979 820.455 713.522 823.273 717.038C822.577 731.435 822.968 748.734 822.99 763.292L605.179 886.33C583.455 898.377 561.647 910.269 539.755 922.007C532.485 925.913 517.61 933.04 511.371 936.926C507.29 935.731 491.653 926.497 486.941 923.806L444.019 899.465C384.984 866.66 326.214 833.381 267.714 799.63C246.306 787.234 221.98 774.503 201.305 761.431C201.07 750.777 200.862 729.184 201.735 717.768C201.995 717.441 202.256 717.114 202.516 716.787C205.18 714.746 217.356 707.978 221.001 705.829L264.258 680.291C284.443 667.911 308.606 654.37 329.255 642.543C345.963 632.767 362.771 623.162 379.676 613.729C389.62 608.11 401.019 601.949 410.468 595.763Z"/><defs><linearGradient id="gradient_1" gradientUnits="userSpaceOnUse" x1="464.89111" y1="780.38086" x2="558.08795" y2="678.64197"><stop offset="0" stop-color="#416FBF"/><stop offset="1" stop-color="#3292DF"/></linearGradient></defs><path fill="url(#gradient_1)" transform="scale(0.333008 0.333008)" d="M552.844 630.422C566.988 622.034 581.484 614.158 595.954 606.357C599.263 604.573 611.862 596.945 614.511 596.138C621.342 601.608 644.885 614.39 653.981 619.506C666.285 626.426 681.421 636.26 693.511 642.822C688.156 646.389 680.792 650.374 674.938 653.283C654.252 663.566 634.673 676.369 614.433 687.23C613.811 690.256 613.814 712.286 613.965 716.029C614.504 729.444 613.046 749.193 614.603 762.118C595.945 773.179 572.538 787.768 553.51 797.661C543.745 803.508 533.921 809.254 524.039 814.899C521.881 816.625 515.602 819.797 512.936 821.199C508.419 818.663 503.937 816.066 499.491 813.409C490.177 808.442 480.913 803.381 471.702 798.226C472.428 787.12 471.151 771.795 472.21 762.13C472.252 759.051 472.346 755.803 472.221 752.736C471.076 724.719 471.32 696.58 471.938 668.55C472.07 662.565 472.477 654.192 471.478 648.357C471.706 645.623 471.978 643.541 471.71 640.791L472.155 640.178C475.335 635.728 476.944 636.184 482.071 636.5C487.14 635.029 494.916 640.994 498.866 643.193C498.542 634.285 498.497 606.187 500.598 598.719C501.638 613.757 499.434 629.626 500.658 643.666C507.776 645.424 509.56 653.408 520.322 647.512C523.463 645.792 522.395 641.951 523.648 638.355C523.565 636.245 523.459 634.137 523.332 632.03L524.319 631.683C525.612 631.628 531.231 631.065 532.317 630.798C537.522 629.517 548.559 632.204 552.877 631.161L552.844 630.422Z"/><path fill="#25D0CE" transform="scale(0.333008 0.333008)" d="M552.844 630.422C566.988 622.034 581.484 614.158 595.954 606.357C599.263 604.573 611.862 596.945 614.511 596.138C621.342 601.608 644.885 614.39 653.981 619.506C666.285 626.426 681.421 636.26 693.511 642.822C688.156 646.389 680.792 650.374 674.938 653.283C654.252 663.566 634.673 676.369 614.433 687.23C608.382 682.577 592.607 673.751 585.238 669.372C578.327 665.265 559.341 652.696 552.98 650.113L552.877 631.161L552.844 630.422Z"/><path fill="#0BB6B2" transform="scale(0.333008 0.333008)" d="M552.98 650.113C559.341 652.696 578.327 665.265 585.238 669.372C592.607 673.751 608.382 682.577 614.433 687.23C613.811 690.256 613.814 712.286 613.965 716.029C614.504 729.444 613.046 749.193 614.603 762.118C595.945 773.179 572.538 787.768 553.51 797.661C553.167 785.731 552.95 774.928 552.934 762.951C553.765 751.881 553.181 729.286 553.082 717.615L552.98 650.113Z"/><path fill="#1F61A0" transform="scale(0.333008 0.333008)" d="M524.319 631.683C525.612 631.628 531.231 631.065 532.317 630.798C537.522 629.517 548.559 632.204 552.877 631.161L552.98 650.113L553.082 717.615C553.181 729.286 553.765 751.881 552.934 762.951C551.528 765.323 552.499 765.512 550.396 767.023C543.43 766.072 535.921 762.445 529.072 761.032L528.402 760.898C526.964 762.055 525.505 763.186 524.026 764.291C523.087 729.577 524.64 694.085 524.09 659.305C523.983 652.537 524.499 645.029 523.648 638.355C523.565 636.245 523.459 634.137 523.332 632.03L524.319 631.683Z"/><path fill="#1F61A0" transform="scale(0.333008 0.333008)" d="M471.71 640.791L472.155 640.178C475.335 635.728 476.944 636.184 482.071 636.5L482.754 636.769C493.41 640.906 499.893 638.959 499.819 653.203C499.714 673.659 500.324 694.316 500.001 714.767C499.741 731.218 500.813 748.932 499.946 765.208C499.836 764.091 499.846 761.893 498.723 761.517C492.559 759.456 481.308 759.548 475.194 761.305L472.21 762.13C472.252 759.051 472.346 755.803 472.221 752.736C471.076 724.719 471.32 696.58 471.938 668.55C472.07 662.565 472.477 654.192 471.478 648.357C471.706 645.623 471.978 643.541 471.71 640.791Z"/><path fill="#1E4B66" transform="scale(0.333008 0.333008)" d="M472.21 762.13L475.194 761.305C481.308 759.548 492.559 759.456 498.723 761.517C499.846 761.893 499.836 764.091 499.946 765.208C499.971 771.621 500.674 810.192 499.491 813.409C490.177 808.442 480.913 803.381 471.702 798.226C472.428 787.12 471.151 771.795 472.21 762.13Z"/><path fill="#1E4B66" transform="scale(0.333008 0.333008)" d="M524.026 764.291C525.505 763.186 526.964 762.055 528.402 760.898L529.072 761.032C535.921 762.445 543.43 766.072 550.396 767.023C552.499 765.512 551.528 765.323 552.934 762.951C552.95 774.928 553.167 785.731 553.51 797.661C543.745 803.508 533.921 809.254 524.039 814.899C522.794 811.966 524.092 770.967 524.026 764.291Z"/><path fill="#0BB6B2" transform="scale(0.333008 0.333008)" d="M410.468 595.763C419.284 597.203 447.159 615.622 456.897 620.75C460.932 622.875 466.718 627.178 471.595 628.945C471.407 631.556 471.195 638.429 471.71 640.791C471.978 643.541 471.706 645.623 471.478 648.357C472.477 654.192 472.07 662.565 471.938 668.55C471.32 696.58 471.076 724.719 472.221 752.736C472.346 755.803 472.252 759.051 472.21 762.13C471.151 771.795 472.428 787.12 471.702 798.226C464.459 794.814 455.544 788.993 448.187 785.062C433.689 777.316 419.164 769.665 405.022 761.29C381.981 748.677 359.083 734.187 335.822 721.746C325.785 716.378 316.839 709.988 306.182 705.047C302.385 701.109 270.796 684.018 264.258 680.291C284.443 667.911 308.606 654.37 329.255 642.543C345.963 632.767 362.771 623.162 379.676 613.729C389.62 608.11 401.019 601.949 410.468 595.763Z"/><path fill="#3C8192" transform="scale(0.333008 0.333008)" d="M405.65 685.919C411.789 682.615 419.27 677.557 425.428 673.792C434.463 668.327 443.6 663.035 452.836 657.917C458.942 654.486 464.956 650.93 471.478 648.357C472.477 654.192 472.07 662.565 471.938 668.55C471.32 696.58 471.076 724.719 472.221 752.736C472.346 755.803 472.252 759.051 472.21 762.13C471.151 771.795 472.428 787.12 471.702 798.226C464.459 794.814 455.544 788.993 448.187 785.062C433.689 777.316 419.164 769.665 405.022 761.29C405.062 736.213 404.797 710.963 405.65 685.919Z"/><path fill="#25D0CE" transform="scale(0.333008 0.333008)" d="M410.468 595.763C419.284 597.203 447.159 615.622 456.897 620.75C460.932 622.875 466.718 627.178 471.595 628.945C471.407 631.556 471.195 638.429 471.71 640.791C471.978 643.541 471.706 645.623 471.478 648.357C464.956 650.93 458.942 654.486 452.836 657.917C443.6 663.035 434.463 668.327 425.428 673.792C419.27 677.557 411.789 682.615 405.65 685.919C401.628 682.834 390.041 676.674 385.206 673.948C372.434 666.669 359.607 659.487 346.727 652.401C342.181 649.924 332.456 645.484 329.255 642.543C345.963 632.767 362.771 623.162 379.676 613.729C389.62 608.11 401.019 601.949 410.468 595.763Z"/><path fill="#0BB6B2" transform="scale(0.333008 0.333008)" d="M202.516 716.787C205.18 714.746 217.356 707.978 221.001 705.829L264.258 680.291C270.796 684.018 302.385 701.109 306.182 705.047C300.734 704.884 299.895 705.541 296.533 709.859C296.391 719.85 299.047 726.737 302.406 736.018C306.778 748.098 308.731 760.899 314.193 772.472C315.563 775.374 316.729 778.839 317.834 781.874C321.154 783.598 327.49 786.709 330.022 789.158C337.637 794.285 347.146 799.455 355.183 804.084L394.407 826.707C433.095 849.458 472.142 871.595 511.531 893.11C511.558 905.7 512.145 924.625 511.371 936.926C507.29 935.731 491.653 926.497 486.941 923.806L444.019 899.465C384.984 866.66 326.214 833.381 267.714 799.63C246.306 787.234 221.98 774.503 201.305 761.431C201.07 750.777 200.862 729.184 201.735 717.768C201.995 717.441 202.256 717.114 202.516 716.787Z"/><path fill="#25D0CE" transform="scale(0.333008 0.333008)" d="M202.516 716.787C205.18 714.746 217.356 707.978 221.001 705.829L264.258 680.291C270.796 684.018 302.385 701.109 306.182 705.047C300.734 704.884 299.895 705.541 296.533 709.859C296.391 719.85 299.047 726.737 302.406 736.018C306.778 748.098 308.731 760.899 314.193 772.472C315.563 775.374 316.729 778.839 317.834 781.874C321.154 783.598 327.49 786.709 330.022 789.158C326.148 788.813 302.265 773.997 297.181 771.077L220.839 727.182C217.811 725.423 203.916 718.244 202.516 716.787Z"/><path fill="#182A41" transform="scale(0.333008 0.333008)" d="M511.531 893.11C526.955 884.789 542.779 875.611 558.103 867L657.25 811.333C686.285 795.153 715.854 779.815 744.768 763.609C771.204 748.542 797.376 733.016 823.273 717.038C822.577 731.435 822.968 748.734 822.99 763.292L605.179 886.33C583.455 898.377 561.647 910.269 539.755 922.007C532.485 925.913 517.61 933.04 511.371 936.926C512.145 924.625 511.558 905.7 511.531 893.11Z"/><path fill="#3C8192" transform="scale(0.333008 0.333008)" d="M693.511 642.822C708.443 651.528 723.443 660.116 738.51 668.586C744.817 672.112 755.378 677.454 761.128 681.185C741.656 693.049 721.757 703.32 701.762 714.203L614.603 762.118C613.046 749.193 614.504 729.444 613.965 716.029C613.814 712.286 613.811 690.256 614.433 687.23C634.673 676.369 654.252 663.566 674.938 653.283C680.792 650.374 688.156 646.389 693.511 642.822Z"/><path fill="#14C0DE" transform="scale(0.333008 0.333008)" d="M764.297 698.563C766.302 698.415 766.466 698.391 768.437 698.664C773.486 702.502 780.119 705.175 784.5 709.203C784.051 715.748 784.848 720.608 777.638 722.548C765.925 722.771 771.838 719.636 764.89 713.627C763.762 712.863 760.242 714.218 759.319 713.641C755.459 711.225 756.469 706.69 758.161 703.344C759.937 699.831 760.731 699.805 764.297 698.563Z"/><path fill="#14C0DE" transform="scale(0.333008 0.333008)" d="M471.46 0L553.604 0L614.405 0L614.405 270.376L614.375 355.823C614.363 366.522 614.985 388.087 614.088 397.508C614.884 413.449 614.055 436.027 614.037 452.393L614.079 562.143C614.087 565.929 613.755 594.109 614.511 596.138C611.862 596.945 599.263 604.573 595.954 606.357C581.484 614.158 566.988 622.034 552.844 630.422L552.877 631.161C548.559 632.204 537.522 629.517 532.317 630.798C531.231 631.065 525.612 631.628 524.319 631.683L523.332 632.03C523.459 634.137 523.565 636.245 523.648 638.355C522.395 641.951 523.463 645.792 520.322 647.512C509.56 653.408 507.776 645.424 500.658 643.666C499.434 629.626 501.638 613.757 500.598 598.719C498.497 606.187 498.542 634.285 498.866 643.193C494.916 640.994 487.14 635.029 482.071 636.5C476.944 636.184 475.335 635.728 472.155 640.178L471.71 640.791C471.195 638.429 471.407 631.556 471.595 628.945C472.561 623.075 471.772 605.375 471.684 598.696L470.648 528.024C470.254 449.882 470.312 371.739 470.82 293.598C470.308 288.821 470.953 282.246 470.081 278.1L470.61 276.726C470.174 270.272 470.484 259.74 470.416 252.873C470.706 250.342 470.563 246.431 470.531 243.84C470.183 215.708 470.913 187.486 470.429 159.365C471.097 142.79 470.481 121.585 470.482 104.71C470.714 70.167 470.729 35.6232 470.529 1.08026L471.46 0Z"/><defs><linearGradient id="gradient_2" gradientUnits="userSpaceOnUse" x1="506.07602" y1="405.87546" x2="514.59454" y2="0.70306057"><stop offset="0" stop-color="#7DE7F6"/><stop offset="1" stop-color="#BFEEF8"/></linearGradient></defs><path fill="url(#gradient_2)" transform="scale(0.333008 0.333008)" d="M471.46 0L553.604 0L614.405 0L614.405 270.376L614.375 355.823C614.363 366.522 614.985 388.087 614.088 397.508C613.603 394.666 613.754 386.999 613.761 383.773L613.829 358.015L613.821 260.923C600.018 265.65 592.289 257.413 579.18 255.639C575.801 255.182 565.525 255.549 561.139 255.519C559.123 258.669 557.585 260.163 553.518 259.042C553.311 267.541 553.596 276.106 553.248 284.547C553.113 282.621 553.449 282.149 552.435 281.041C545.107 280.278 533.697 279.939 526.681 281.915C526.473 287.056 526.37 293.797 525.576 298.759C525.445 332.276 525.761 367.446 524.415 400.889C522.063 409.064 506.034 407.969 500.369 404.651C501.238 397.813 499.64 380.6 499.563 372.604L499.509 293.8C494.668 289.74 479.055 290.152 472.769 291.224C471.474 291.445 471.235 292.613 470.82 293.598C470.308 288.821 470.953 282.246 470.081 278.1L470.61 276.726C470.174 270.272 470.484 259.74 470.416 252.873C470.706 250.342 470.563 246.431 470.531 243.84C470.183 215.708 470.913 187.486 470.429 159.365C471.097 142.79 470.481 121.585 470.482 104.71C470.714 70.167 470.729 35.6232 470.529 1.08026L471.46 0Z"/><defs><linearGradient id="gradient_3" gradientUnits="userSpaceOnUse" x1="582.66895" y1="1.3099706" x2="584.42529" y2="261.65903"><stop offset="0" stop-color="#0F3548"/><stop offset="1" stop-color="#2C6479"/></linearGradient></defs><path fill="url(#gradient_3)" transform="scale(0.333008 0.333008)" d="M553.604 0L614.405 0L614.405 270.376L614.375 355.823C614.363 366.522 614.985 388.087 614.088 397.508C613.603 394.666 613.754 386.999 613.761 383.773L613.829 358.015L613.821 260.923C600.018 265.65 592.289 257.413 579.18 255.639C575.801 255.182 565.525 255.549 561.139 255.519C559.123 258.669 557.585 260.163 553.518 259.042C553.612 255.298 553.449 251.058 553.388 247.277C553.969 240.413 553.552 227.637 553.551 220.237L553.596 168.821L553.604 0Z"/><path fill="#25D0CE" transform="scale(0.333008 0.333008)" d="M470.61 276.726C471.243 279.163 471.516 280.182 472.541 282.463C477.256 282.262 481.544 282.062 486.274 282.276C490.338 282.459 494.895 283.102 498.858 283.055L499.662 283.014C499.506 286.715 499.486 290.094 499.509 293.8C494.668 289.74 479.055 290.152 472.769 291.224C471.474 291.445 471.235 292.613 470.82 293.598C470.308 288.821 470.953 282.246 470.081 278.1L470.61 276.726Z"/><path fill="#25D0CE" transform="scale(0.333008 0.333008)" d="M552.876 272.811C553.377 264.721 552.074 254.495 553.388 247.277C553.449 251.058 553.612 255.298 553.518 259.042C553.311 267.541 553.596 276.106 553.248 284.547C553.113 282.621 553.449 282.149 552.435 281.041C545.107 280.278 533.697 279.939 526.681 281.915C526.473 287.056 526.37 293.797 525.576 298.759C525.495 290.651 525.459 282.544 525.467 274.436L526.316 274.285C527.627 274.629 531.543 274.279 533.247 274.333C540.626 274.569 545.879 275.325 552.876 272.811Z"/><path fill="#25D0CE" transform="scale(0.333008 0.333008)" d="M498.858 283.055C499.11 277.002 497.999 259.916 499.304 256.082C500.222 258.911 500.314 279.8 499.662 283.014L498.858 283.055Z"/><path fill="#25D0CE" transform="scale(0.333008 0.333008)" d="M525.467 274.436C525.309 269.823 525.769 262.934 526.395 258.404L526.702 258.351C527.103 264.254 527.148 268.41 526.316 274.285L525.467 274.436Z"/><path fill="#3C8192" transform="scale(0.333008 0.333008)" d="M561.139 255.519C565.525 255.549 575.801 255.182 579.18 255.639C592.289 257.413 600.018 265.65 613.821 260.923L613.829 358.015L613.761 383.773C613.754 386.999 613.603 394.666 614.088 397.508C614.884 413.449 614.055 436.027 614.037 452.393L614.079 562.143C614.087 565.929 613.755 594.109 614.511 596.138C611.862 596.945 599.263 604.573 595.954 606.357C581.484 614.158 566.988 622.034 552.844 630.422C551.435 624.815 552.998 610.277 553.032 603.34L553.487 504.034L553.497 344.166C553.493 325.201 552.816 303.151 553.248 284.547C553.596 276.106 553.311 267.541 553.518 259.042C557.585 260.163 559.123 258.669 561.139 255.519Z"/><path fill="#2D91D8" transform="scale(0.333008 0.333008)" d="M523.332 632.03C522.102 626.406 521.35 600.126 523.765 595.731C525.857 600.067 524.834 625.805 524.319 631.683L523.332 632.03Z"/><path fill="#25D0CE" transform="scale(0.333008 0.333008)" d="M500.369 404.651C506.034 407.969 522.063 409.064 524.415 400.889C525.408 406.506 523.567 408.392 517.937 409.61C514.703 410.309 511.033 410.203 507.794 409.849C505.662 409.635 501.817 407.823 500.553 408.95L500.224 410.891C499.109 409.692 499.836 406.117 500.369 404.651Z"/><path fill="#3C8192" transform="scale(0.333008 0.333008)" d="M410.01 1.47425C416.467 0.980734 425.168 1.20084 431.742 1.20762C444.671 1.28276 457.6 1.2403 470.529 1.08026C470.729 35.6232 470.714 70.167 470.482 104.71C470.481 121.585 471.097 142.79 470.429 159.365C470.913 187.486 470.183 215.708 470.531 243.84C470.563 246.431 470.706 250.342 470.416 252.873C470.484 259.74 470.174 270.272 470.61 276.726L470.081 278.1C470.953 282.246 470.308 288.821 470.82 293.598C470.312 371.739 470.254 449.882 470.648 528.024L471.684 598.696C471.772 605.375 472.561 623.075 471.595 628.945C466.718 627.178 460.932 622.875 456.897 620.75C447.159 615.622 419.284 597.203 410.468 595.763C409.675 581.79 410.073 564.248 410.056 550.007L409.969 470.404L409.557 344.421C409.421 322.7 409.434 300.977 409.596 279.256C409.191 270.347 409.493 258.569 409.469 249.423L409.386 190.512C409.075 127.499 409.283 64.484 410.01 1.47425Z"/><path fill="#1E4B66" transform="scale(0.333008 0.333008)" d="M410.01 1.47425C416.467 0.980734 425.168 1.20084 431.742 1.20762C444.671 1.28276 457.6 1.2403 470.529 1.08026C470.729 35.6232 470.714 70.167 470.482 104.71C470.481 121.585 471.097 142.79 470.429 159.365C469.396 165.821 470.138 177.258 470.137 184.157C470.002 200.27 469.952 216.385 469.989 232.499C469.996 236.2 470.379 248.879 469.918 251.512C467.483 251.812 465.984 251.023 462.969 252.375C457.379 255.059 451.934 252.065 446.625 252.196C442.698 252.293 441.022 254.237 435.954 253.807C427.866 253.122 414.561 258.771 410.104 265.413C410.007 268.775 410.003 276.224 409.596 279.256C409.191 270.347 409.493 258.569 409.469 249.423L409.386 190.512C409.075 127.499 409.283 64.484 410.01 1.47425Z"/><path fill="#1E4B66" transform="scale(0.333008 0.333008)" d="M470.081 278.1C468.973 276.06 469.075 255.016 470.416 252.873C470.484 259.74 470.174 270.272 470.61 276.726L470.081 278.1Z"/></svg>