<?xml version="1.0" encoding="utf-8" ?><svg xmlns="http://www.w3.org/2000/svg" xmlns:xlink="http://www.w3.org/1999/xlink" width="1024" height="1024" viewBox="0 0 1024 1024"><path transform="scale(2 2)" d="M313.203 166.086C327.498 164.805 328.876 176.742 328.628 187.583L362.959 187.578C372.59 187.567 386.709 184.516 387.023 197.466C394.504 198.644 402.281 200.564 409.524 201.619L409.524 210.354C405.751 211.253 388.09 214.183 387.729 215.143C383.508 226.382 379.235 223.77 363.539 223.766L328.628 223.75C328.379 230.47 330.351 237.872 325.067 243.064C319.975 248.067 309.643 246.493 302.772 246.492L266.269 246.478C262.635 255.577 258.211 264.471 254.395 273.471C247.943 288.688 235.776 286.484 222.122 286.489L191.929 286.497C191.265 290.44 189.359 296.388 188.196 300.359L179.299 331.571C178.034 336.016 177.391 340.296 173.983 343.618C167.999 348.239 152.924 346.583 145.277 346.602C126.223 346.585 124.673 341.684 129.144 324.815L134.943 303.622C137.431 294.525 139.562 285.21 142.241 276.181C143.831 270.821 147.31 265.57 149.026 260.149C140.395 240.341 117.058 253.19 115.6 235.546L114.324 235.095C96.6517 228.954 95.8867 192.548 127.58 192.515L138.335 192.525C151.046 178.585 149.559 180.216 167.057 180.238L300.75 180.25C302.001 172.723 305.198 167.397 313.203 166.086ZM128.335 235.546L189.09 235.546C193.507 225.501 204.462 214.249 215.81 212.827C236.773 207.615 266.701 220.343 272.244 192.525C259.984 192.377 247.4 192.524 235.109 192.525L161.355 192.525C159.509 193.403 156.202 197.563 154.479 199.181C142.381 210.539 133.375 219.084 128.335 235.546ZM328.628 219.05L363.383 219.04C367.958 219.042 378.027 220.346 381.212 217.509C383.434 214.3 384.162 195.386 379.386 192.525C373.725 192.106 362.867 192.523 356.787 192.523L338.235 192.516C335.411 192.514 331.367 192.38 328.628 192.525C328.619 200.831 328.33 210.881 328.628 219.05ZM209.501 246.478L203.951 246.478C201.07 256.524 197.702 267.872 194.355 277.743C195.682 277.746 197.039 277.766 198.363 277.743L224.435 277.731C241.506 277.728 242.724 279.193 249.94 261.849C251.942 257.037 254.807 251.413 256.897 246.478C244.933 246.289 230.094 245.805 218.242 246.478L217.905 246.703C218.916 257.757 215.824 263.867 225.498 271.945L226.545 272.808C208.817 268.298 209.416 262.467 209.501 246.478ZM138.335 331.705C127.378 339.479 165.21 336.626 166.479 336.519C168.786 335.203 168.229 332.07 165.933 331.859C162.782 331.57 159.351 331.683 156.159 331.682L138.335 331.705ZM291.413 195.7C287.183 199.604 289.807 222.789 290.12 223.09C291.103 224.038 292.676 223.984 293.935 223.75C297.561 221.304 295.698 197.578 295.014 196.812C294.082 195.769 292.718 195.664 291.413 195.7ZM303.037 195.7C302.269 196.235 300.817 197.212 300.831 198.17C300.923 204.476 297.485 224.436 304.574 223.75C309.173 221.852 306.456 197.518 306.136 197.06C305.445 196.068 304.187 195.718 303.037 195.7ZM313.969 178.529C313.42 178.878 312.539 179.283 312.552 179.909C312.678 185.622 311.869 229.925 312.785 232.855C313.507 233.521 314.448 233.516 315.407 233.509C317.728 231.585 316.708 226.317 316.706 223.538L316.687 191.068C316.686 186.768 318.361 179.407 313.969 178.529ZM111.6 226.841C112.726 228.092 114.375 229.876 115.6 231.002C117.835 221.264 117.156 212.694 125.44 205.196C126.56 204.183 132.355 198.712 132.943 197.748L132.756 197.466C129.751 197.452 125.396 197.235 122.51 197.591C108.745 199.289 102.442 216.248 111.6 226.841Z"/><path transform="scale(2 2)" d="M151.171 208.897C166.119 208.082 185.167 209.153 200.373 209.576C204.421 209.689 208.155 209.778 212.184 209.258C201.802 213.495 197.138 216.543 190.013 225.155C188.68 226.929 187.428 229.111 186.073 231.002C179.584 231.169 172.326 231.004 165.741 231.003L134.474 231.002C136.777 223.443 144.848 213.523 151.171 208.897ZM186.073 222.244C189.177 222.272 193.747 220.307 190.266 218.145C188.221 216.874 154.388 217.505 149.026 217.509C146.765 217.631 141.462 217.521 144.494 221.414C146.564 222.652 158.415 222.252 161.439 222.25L186.073 222.244Z"/><path transform="scale(2 2)" d="M375.741 195.7C376.162 195.75 377.473 196.066 377.498 196.512C377.726 200.601 379.81 214.755 375.741 215.916C370.739 215.518 372.814 198.853 373.486 197.047C374.175 196.24 374.726 196.126 375.741 195.7Z"/></svg>